M48
;Layer_Color=9474304
;FILE_FORMAT=2:5
INCH,LZ
;TYPE=PLATED
T01F00S00C0.00787
T02F00S00C0.01181
T03F00S00C0.01654
T05F00S00C0.02559
T06F00S00C0.03000
T07F00S00C0.03150
T09F00S00C0.03543
T10F00S00C0.03600
T11F00S00C0.04100
T12F00S00C0.05000
T13F00S00C0.05512
T14F00S00C0.06299
T15F00S00C0.06693
T16F00S00C0.07087
T17F00S00C0.12100
T18F00S00C0.12598
%
T01
X0437118Y-0222382
Y-0217894
X043263
X0442512
X0447
X0442512Y-0222382
X016515Y-01995
X015885
X0162Y-020265
Y-019635
X0222276Y-02055
X0228575
X0225426Y-0208649
Y-020235
X043263Y-02125
X0437118
Y-0208012
X0442512
Y-02125
X0447
T02
X0511909Y-0253957
X0517814Y-0242146
X0511909Y-0230335
X0517814Y-0218524
X0500098Y-0230335
X0488287
X0482381Y-0242146
X0478538Y-0238392
X047057Y-0242146
X0458759
X0464665Y-0230335
X0452854
X04495Y-02315
X04255Y-02305
X0423326Y-0242146
X0429232Y-0253957
X0441043
X0464665
X0476476
X0488287
X0417421
X040561
X0393799
X0381988
X0387893Y-0242146
X0399704
X0403Y-0235
X0393799Y-0230335
X0381988
X0370177
X0358366
X0364271Y-0242146
X0376082
Y-0218524
X0387893
X0396Y-02195
X0399Y-0222
X0417Y-0225
X0418Y-0218
X0421976Y-0216959
X0425Y-0217
X035246Y-0242146
X0358366Y-0253957
X03315Y-02535
X0275688Y-0253957
X0263877
X0240255
X0228444
X0216633
X0204822
X0193011
X01915Y-0227
Y-02175
X0218
X0240255Y-0230335
X0252066
X0246161Y-0242146
X0235Y-02445
X0275688Y-0230335
X02775Y-02205
Y-02155
X0269Y-02235
X0305
X01825Y-0227
X0175898Y-02155
X0155082Y-0219584
X0151673Y-0218524
X0151703Y-0231207
X0163484Y-0242146
X0157578Y-0253957
X0145767
X0139862Y-0242146
X012482Y-0234599
X0122145Y-0253957
X0098523
X0086712
X00905Y-0248
X0079
X0074901Y-0253957
X0057184Y-0242146
Y-0218524
X0068995
X0080807
X0112847Y-0218651
X0104429Y-0242146
X0187106
X01812Y-0253957
X0045373Y-0218524
X0032Y-02165
X0021751Y-0218524
X000994
X0015846Y-0230335
X0004035
X000994Y-0242146
X0021751
X0004035Y-0253957
Y-0206713
X0015846
X000994Y-0194902
X0004035Y-0183091
Y-0159469
X000994Y-0147658
X0021751
X0033562
X0027657Y-0112225
X0004035
X000994Y-0100414
X0004035Y-0088603
X000994Y-0076792
X0021751
X0027657Y-0064981
X0004035
Y-0135847
X0045373Y-0147658
X0057184
X0068995
X0069689Y-0152
X00795Y-0150056
X0079495Y-0147087
X0082298Y-0144202
X0082042Y-0154559
X00855Y-0159
X0098Y-0164
X0097Y-01675
X00965Y-0171
X010162Y-0171707
X0111427Y-018198
X01285Y-0157
X01255Y-015
X0117Y-01425
X0122145Y-0135847
X01205Y-0128
X0128051Y-0124036
X0139862
X0136Y-01105
X0145767Y-0112225
X01515Y-0103
X01545Y-0097
X016Y-00975
X01645Y-0099
X0171032Y-0105855
X0171Y-0115
X01785Y-0114
X0180992Y-0110489
X0187478Y-01085
X0183522Y-0103229
X0178522
X0178Y-0091
X017454Y-0087952
X0184Y-00885
X0189325Y-0089036
X01815Y-00795
X01745Y-0064
X0178Y-0059
X0157578Y-0064981
X01605Y-0076
X0159512Y-008437
X01335Y-00735
X01205Y-0073554
X011624Y-0076792
X0122145Y-0064981
X0110334
X0098523
X0096Y-00785
Y-00815
X0098523Y-0088603
X0110334
X011624Y-0100414
X0104429
X0110334Y-0112225
X01165Y-0115
X01125Y-01195
X0107234Y-0123563
X0098523Y-0112225
X0086059Y-0120116
X00801Y-0121016
X0074901Y-0135847
X0088594Y-0137222
X0091955Y-0136526
X0098148Y-0135364
X0133956Y-0135847
X0145767
X015945Y-0138
X0165691Y-0148197
X01615Y-01535
X0152Y-0151
X0148173Y-0153442
X0182192Y-0145697
X0187478Y-0142361
X0188Y-0125
X0175295Y-0124036
Y-017128
X01755Y-01915
X0173Y-0201
X01695Y-0205916
X0155031Y-0205735
X0151553Y-0200872
X0148339Y-0198175
X01445Y-01965
X01435Y-0203
X0144105Y-0211859
X01475Y-0209
X0138Y-02125
X01635Y-0189184
X01825Y-01985
X0080807Y-0194902
X0055Y-01815
X00615Y-0096
X0069Y-0097
X006309Y-0088603
X0051279
X0045373Y-0076792
X0051279Y-0064981
X0039468
X0074901
X0080807Y-0076792
X0086Y-00865
X0128Y-0106
X0199484Y-0105
X01975Y-0111
X0203Y-0114
X02035Y-0121384
X0210728Y-0124036
X0211Y-01145
X02135Y-01045
X02185Y-0107
X0234719Y-0110312
X02425Y-0114
X0252773Y-0113521
X0262Y-01175
X02575Y-01265
X026Y-0131
X0254
X02485
X0251Y-0126
X0240255Y-0135847
X0246161Y-0147658
X0257972
X0262Y-0147
X0277Y-01475
Y-01515
X0281536Y-0145505
X0293405Y-0147658
X0293Y-01305
Y-0125
X03025
Y-01305
X02835Y-0129
X02765Y-01305
X0274Y-00955
X0271031
X0279Y-00845
X0301604Y-0082948
X0305216Y-0076792
X0298Y-0076
X029931Y-0064981
X0311121
X0315315Y-00655
X0319252
X0318829Y-0069181
X0319252Y-0073374
X0315315
X03105Y-00725
X0319329Y-0077681
X0319897Y-0085785
X0322933Y-0088603
X03155Y-00885
X0306Y-00925
X03265Y-01015
X0323Y-01085
X03295Y-01135
X0328838Y-0124036
X0334743Y-0135847
X0322933
X0315912Y-013877
X0317027Y-0147658
X03105Y-01455
X0328838Y-0147658
X0340649
X0334743Y-0159469
X03295Y-0161
X032Y-01665
X0317027Y-017128
X0340649
X0335Y-01775
X03395Y-0186
X0340649Y-0194902
X03395Y-0203
X0335Y-0206787
X0307Y-0202
X0306Y-0193
X0303901Y-0190384
X0302Y-01825
X0293405Y-017128
X02825Y-0173
X0281078Y-017538
X0281578Y-016988
X02805Y-01885
X0279722Y-0193591
X0277Y-02065
X02775Y-0211
X0287Y-02045
X0298Y-01985
X0307Y-02135
X02585Y-0202216
X0256Y-0198
X02525Y-02065
X0237Y-0206
X024Y-01995
X0229444Y-0194873
X0222539Y-0194902
X02255Y-0187
X0227Y-0184
X0240255Y-0183091
X0252066
X02525Y-01895
X02495Y-0177
X0246161Y-017128
X02465Y-016
X0257972Y-017128
X0217Y-016
X0221Y-0145
X0221944Y-0140444
X0225Y-0143
X02125Y-0145
X0200892Y-0145587
X019387Y-0128146
X0194Y-01175
X0226Y-01265
X0241633Y-010404
X0247854Y-0079786
X0245781Y-007211
X0252462Y-0068259
X0246853Y-0058784
X02295Y-00585
X0224Y-00595
X0219Y-00635
X0193011Y-0064981
X01975Y-0072
X02875Y-0064
X0317284Y-0061563
X0333032
X0336968
X0335Y-00655
X0331063
Y-0073374
X0335
X0214652Y-0203583
X02145Y-0207
X0204822Y-0206713
X0197Y-02055
X0355Y-0211
X03605Y-0207
X03595Y-01825
X0360384Y-0174549
X0364271Y-017128
X0366384Y-0179285
X0370989Y-0183601
X0376082Y-017128
X0387Y-01735
X0395616Y-0179374
X0400804Y-0183299
X04Y-0193
X0404Y-01955
X0393332Y-0195999
X0389Y-0196
X0414429Y-019215
X04225Y-01985
X04255Y-01885
X0434501Y-0179642
X04445Y-01835
X0452854Y-0183091
X0464665
X047363Y-0176692
X047057Y-017128
X0482381
X0494192
X0488287Y-0159469
X0476476
X0464665
X0452854
X0441043
X0429232
X0417421
X042Y-01735
X0423326Y-017128
X0411515
Y-0147658
X0423326
X0429232Y-0135847
X04345Y-0136
X0417421Y-0135847
X0408598Y-0133484
X0404101Y-0139241
X04045Y-01225
X040561Y-0112225
X0417421
X042Y-0109
X04135Y-01045
X0411515Y-0100414
X0409783Y-0093975
X0417421Y-0088603
X0429232
X0441043
X0446948Y-0076792
X0458759
X047057
X0482381
X0494192
X0500098Y-0064981
X0488287
X0476476
X0464665
X0452854
X0441043
X0429232
X0417421
X040561
X0393799
X0387893Y-0076792
X0376082
X0381988Y-0088603
Y-0112225
X0370177
X03725Y-0108
X0367Y-01015
X0364271Y-0124036
X0376082
X0387893
X03905Y-01275
X0387893Y-0147658
X0376082
X0375341Y-014405
X0370762Y-0147747
X0364271Y-0147658
X0366Y-0145
X0361Y-01465
X0354Y-01455
X035403Y-0127493
X035246Y-0124036
X0346554Y-0112225
X03535Y-00875
Y-00835
Y-0079
Y-0075
X04135Y-008
X0423326Y-0076792
X0435137
Y-0100414
X0446948
X04445Y-0103
X0441043Y-0112225
X0452854
X0464665
X0476476
X0488287
X04955Y-0103
X0482506Y-0098307
X047057Y-0100414
X0476476Y-0088603
X0495431Y-0122
X0482381Y-0147658
X047057
X0458759
X0446948
Y-017128
X0458759
X0449712Y-0201314
X0436Y-0198835
X04255Y-0212
X0422595Y-0214056
X042Y-02095
X04165Y-0206
X04065Y-0212
X0475708Y-0208312
X0500098Y-0206713
X0429232Y-0112225
X0423326Y-0100414
X0381988Y-0159469
X0358366
X0355Y-01665
X035246Y-017128
X0346554Y-0159469
X0511909
X0517814Y-0147658
X0519603Y-0136243
X0515Y-0109
X0519575Y-0099279
X0507924Y-0100576
X050538Y-0098416
X0506003Y-0076792
X0517814
X0511909Y-0064981
X050276Y-0118519
X0506003Y-017128
X0517814
X0511909Y-0183091
X0517814Y-0194902
X0506003
X0511909Y-0206713
X0512165Y-0057626
X0508228
X0504291
X050626Y-0053689
X0510197
X0514134
X0518Y-0054
X0522008Y-0053689
X052004Y-0057626
X0516103
X0500354
X0496417
X049248
X0488543
X0484606
X0480669
X0476732
X0472795
X0468858
X0464921
X0460984
X0457047
X045311
X0449173
X0445236
X0441299
X0437362
X0433425
X0429488
X0425551
X0421614
X0417677
X041374
X0409803
X0405866
X0401929
X0397992
X0394055
X0390118
X0386181
X0382244
X0378307
X037437
X0370433
X0366496
X0362559
X0358622
X0354685
X0350748
X0346811
X034878Y-0053689
X0352717
X0356654
X0360591
X0364528
X0368465
X0372402
X0376082Y-005317
X0380276Y-0053689
X0384213
X0387893Y-005317
X0392087Y-0053689
X0396024
X0399704Y-005317
X0403898Y-0053689
X0407835
X0411772
X0415709
X0419646
X0423583
X042752
X0431457
X0435394
X0439331
X0443268
X0447205
X0451142
X0455079
X0459016
X0462953
X046689
X0470827
X0474764
X0478701
X0482638
X0486575
X0490512
X0494449
X0498386
X0502323
X0344843
X0340905
X0336968
X0333032
X0335Y-0057626
X0331063
X0338937
X0342874
X0319252
X0315315
X03115Y-00575
X0307Y-0057
X0303063
X0299126
X0295189
X0291252
X0287315
X0283378
X0279441
X0275504
X0271567
X026763
X0264Y-00565
X0262509Y-0053345
X02595Y-0054
X026Y-00575
X0256076Y-0056345
X02525Y-00555
X02515Y-0052
X02545
X02575
X0266102Y-0053689
X0270039
X0273976
X0277913
X028185
X0285787
X0289724
X0293661
X0297598
X0301535
X0305472
X0309409
X0313347
X0317284
X0320329Y-0053681
X0248188Y-0054677
X0246161Y-005317
X0249Y-00495
Y-0046
Y-00425
Y-00395
Y-00365
Y-00335
Y-003
X024908Y-0026337
X024508
X0240512Y-002613
X0228701
X0224764
X0220827
X021689
X0212953
X0209016
X0205079
X0201142
X0197205
X0193268
X019108Y-0028837
X0195236Y-0030067
X0199173
X020311
X0207047
X0210984
X0214921
X0218858
X0222795
X0226732
X0224764Y-0034004
X0220827
X021689
X0212953
X0209016
X0205079
X0201142
X02295Y-00445
X0241Y-00485
X0244008Y-0037806
X0189331Y-0034004
X0187106Y-0029548
X0184537Y-002971
X018058Y-0029837
X017708
X017358
X0173583Y-002613
X017708Y-0026337
X018008
X018308
X018608
X0189331Y-002613
X017108Y-0028337
X0161772Y-002613
X0157834
X01545Y-00255
X0153Y-00225
X01495Y-0023
X01505Y-002
X01475Y-00195
X0145767Y-0017737
X0149Y-0017
X0147Y-0014
X01435Y-00135
X0145Y-0011
X01415
X01425Y-0008
X01395
X0140756Y-0005225
X0137255Y-0005295
X0122145Y-0017737
X0113Y-0020782
X01125Y-0028
X01055Y-00295
X012Y-00315
X01335Y-0033
X0139Y-00435
X0145767Y-0041359
X0154Y-0038
X0161Y-00385
X016Y-0029
X0147Y-00275
X011624Y-005317
X01015Y-00465
X00785Y-00345
X0084Y-0022
X0092556Y-0017721
X0061325Y-0020498
X0063Y-00295
X0045373Y-005317
X01815Y-00535
X0187106Y-005317
X0033562
X0021751
X000994
X0004035Y-0041359
T03
X02865Y-0260024
Y-0256283
Y-0252543
Y-0249
Y-0245456
Y-0241913
Y-0238173
Y-0234432
X0292012
Y-0238173
Y-0241913
Y-0245456
Y-0249
Y-0252543
Y-0256283
Y-0260024
X0315488Y-025998
Y-0256239
Y-02525
Y-0248956
Y-0245413
Y-0241869
Y-0238129
Y-0234389
X0321
Y-0238129
Y-0241869
Y-0245413
Y-0248956
Y-02525
Y-0256239
Y-025998
T05
X01345Y-00995
Y-00945
Y-00895
Y-00845
Y-00795
X01395
Y-00845
Y-00895
Y-00945
Y-00995
T06
X0128Y-00655
X0138
X0148
Y-00555
X0138
X0128
T07
X00395Y-014
X0045
X00505
X0048776Y-0135161
X00545Y-0135
X00425
X0129Y-0165
Y-017
Y-0175
Y-01795
X0124Y-018
X0119
X0115Y-01905
Y-01955
Y-02005
Y-02055
X0078Y-00255
X00785Y-0018
Y-0012
X0078Y-00055
X00705
X0073488Y-00295
T09
X0254067Y-0254264
Y-0244421
Y-0234579
Y-0224736
X0344Y-0227252
Y-0235126
Y-0243
Y-0250874
Y-0258748
Y-0219378
T10
X0127059Y-0037894
Y-0012299
T11
X0503911Y-02216
X0492711Y-02162
Y-02054
Y-01946
Y-01838
X0503911Y-01892
Y-02
Y-02108
Y-01784
T12
X0014Y-02365
T13
X0203Y-0248
X0218
T14
X0019772Y-00995
Y-00695
X0015228Y-00455
Y-00155
T15
X0111501Y-0249
X01315
X01515
X0171501
T16
X0034Y-02365
T17
X0498311Y-02492
Y-01508
T18
X00615Y-0253
X0089059Y-0058095
X0459815Y-0090595
M30
