M48
;Layer_Color=9474304
;FILE_FORMAT=2:5
INCH,LZ
;TYPE=PLATED
T04F00S00C0.01969
T08F00S00C0.03150
%
G90
G05
T04
G00X0281657Y-0256972
M15
G01Y-0253232
M16
G00X0296854Y-0256972
M15
G01Y-0253232
M16
G00X0310646Y-0256928
M15
G01Y-0253188
M16
G00X0325842Y-0256928
M15
G01Y-0253188
M16
G00X0325842Y-024118
M15
G01Y-023744
M16
G00X0310646Y-024118
M15
G01Y-023744
M16
G00X0296854Y-0241224
M15
G01Y-0237484
M16
G00X0281657Y-0241224
M15
G01Y-0237484
M16
T08
G00X036741Y-024813
M15
G01X037437Y-025509
M16
G00X0363409Y-0218736
M15
G01Y-0228579
M16
G00X0414591Y-0230547
M15
G01Y-024039
M16
G00X0403764Y-0259091
M15
G01X0393921
M16
G00X0391953Y-0207909
M15
G01X038211
M16
M17
M30
