M48
;Layer_Color=9474304
;FILE_FORMAT=2:5
INCH,LZ
;TYPE=PLATED
T01F00S00C0.01181
T02F00S00C0.02800
T04F00S00C0.25591
%
T01
X0796866Y00475
X0628027
X0459189
X029035
X0121512
T02
X0795819Y0107476
X062698
X0458142
X0289303
X0120465
Y0251087
X0289303
X0458142
X062698
X0795819
Y0392091
X062698
X0458142
X0289303
X0120465
X0120465Y0522114
X0289303
X0458142
X062698
X0795819
T04
X0887728Y0285368
M30
