G04*
G04 #@! TF.GenerationSoftware,Altium Limited,Altium Designer,24.5.2 (23)*
G04*
G04 Layer_Color=16711935*
%FSLAX25Y25*%
%MOIN*%
G70*
G04*
G04 #@! TF.SameCoordinates,D39E80A3-1B6C-4955-BD37-BE89A69CF03F*
G04*
G04*
G04 #@! TF.FilePolarity,Positive*
G04*
G01*
G75*
%ADD12C,0.00787*%
%ADD13C,0.00394*%
G36*
X135447Y-24415D02*
X135477D01*
X135509Y-24419D01*
X135546Y-24426D01*
X135589Y-24437D01*
X135633Y-24448D01*
X135684Y-24463D01*
X135735Y-24481D01*
X135786Y-24503D01*
X135840Y-24532D01*
X135891Y-24565D01*
X135942Y-24601D01*
X135993Y-24645D01*
X136041Y-24696D01*
X136044Y-24699D01*
X136052Y-24710D01*
X136063Y-24725D01*
X136077Y-24750D01*
X136099Y-24783D01*
X136117Y-24820D01*
X136139Y-24867D01*
X136161Y-24918D01*
X136186Y-24980D01*
X136208Y-25049D01*
X136226Y-25125D01*
X136244Y-25209D01*
X136263Y-25304D01*
X136274Y-25405D01*
X136281Y-25515D01*
X136285Y-25631D01*
Y-25635D01*
Y-25638D01*
Y-25649D01*
Y-25664D01*
X136281Y-25700D01*
Y-25751D01*
X136277Y-25809D01*
X136270Y-25879D01*
X136263Y-25955D01*
X136252Y-26039D01*
X136237Y-26123D01*
X136219Y-26214D01*
X136197Y-26301D01*
X136172Y-26388D01*
X136139Y-26472D01*
X136103Y-26552D01*
X136063Y-26629D01*
X136015Y-26694D01*
X136012Y-26698D01*
X136004Y-26705D01*
X135990Y-26719D01*
X135971Y-26741D01*
X135950Y-26763D01*
X135921Y-26785D01*
X135884Y-26814D01*
X135848Y-26840D01*
X135804Y-26865D01*
X135757Y-26894D01*
X135702Y-26916D01*
X135648Y-26942D01*
X135586Y-26960D01*
X135520Y-26974D01*
X135451Y-26982D01*
X135378Y-26985D01*
X135349D01*
X135327Y-26982D01*
X135302D01*
X135273Y-26978D01*
X135204Y-26963D01*
X135127Y-26945D01*
X135047Y-26916D01*
X134967Y-26872D01*
X134927Y-26847D01*
X134890Y-26818D01*
X134887Y-26814D01*
X134883Y-26811D01*
X134872Y-26800D01*
X134861Y-26789D01*
X134843Y-26770D01*
X134829Y-26749D01*
X134789Y-26698D01*
X134748Y-26632D01*
X134712Y-26552D01*
X134679Y-26461D01*
X134658Y-26359D01*
X134967Y-26334D01*
Y-26337D01*
X134970Y-26341D01*
X134974Y-26363D01*
X134985Y-26396D01*
X135000Y-26436D01*
X135014Y-26479D01*
X135036Y-26523D01*
X135062Y-26563D01*
X135087Y-26596D01*
X135094Y-26603D01*
X135109Y-26618D01*
X135134Y-26640D01*
X135171Y-26665D01*
X135218Y-26687D01*
X135269Y-26709D01*
X135331Y-26723D01*
X135396Y-26730D01*
X135422D01*
X135451Y-26727D01*
X135484Y-26719D01*
X135527Y-26709D01*
X135571Y-26694D01*
X135615Y-26676D01*
X135659Y-26647D01*
X135666Y-26643D01*
X135684Y-26629D01*
X135709Y-26603D01*
X135742Y-26567D01*
X135779Y-26523D01*
X135819Y-26472D01*
X135855Y-26406D01*
X135891Y-26334D01*
Y-26330D01*
X135895Y-26323D01*
X135899Y-26312D01*
X135906Y-26297D01*
X135910Y-26276D01*
X135917Y-26250D01*
X135924Y-26221D01*
X135932Y-26184D01*
X135942Y-26144D01*
X135950Y-26101D01*
X135957Y-26053D01*
X135961Y-26002D01*
X135968Y-25944D01*
X135971Y-25886D01*
X135975Y-25820D01*
Y-25755D01*
X135971Y-25759D01*
X135957Y-25780D01*
X135932Y-25809D01*
X135899Y-25846D01*
X135862Y-25890D01*
X135815Y-25930D01*
X135764Y-25970D01*
X135706Y-26006D01*
X135702D01*
X135698Y-26010D01*
X135677Y-26021D01*
X135644Y-26032D01*
X135600Y-26050D01*
X135549Y-26064D01*
X135491Y-26075D01*
X135429Y-26086D01*
X135364Y-26090D01*
X135335D01*
X135313Y-26086D01*
X135284Y-26083D01*
X135254Y-26079D01*
X135218Y-26072D01*
X135182Y-26061D01*
X135098Y-26035D01*
X135054Y-26017D01*
X135011Y-25991D01*
X134967Y-25966D01*
X134920Y-25937D01*
X134876Y-25901D01*
X134836Y-25861D01*
X134832Y-25857D01*
X134825Y-25850D01*
X134814Y-25839D01*
X134803Y-25820D01*
X134785Y-25795D01*
X134767Y-25769D01*
X134748Y-25737D01*
X134727Y-25700D01*
X134705Y-25660D01*
X134687Y-25617D01*
X134668Y-25566D01*
X134650Y-25515D01*
X134639Y-25460D01*
X134628Y-25398D01*
X134621Y-25336D01*
X134617Y-25271D01*
Y-25267D01*
Y-25260D01*
Y-25249D01*
Y-25231D01*
X134621Y-25209D01*
Y-25187D01*
X134632Y-25129D01*
X134643Y-25060D01*
X134661Y-24987D01*
X134687Y-24907D01*
X134723Y-24830D01*
Y-24827D01*
X134727Y-24823D01*
X134734Y-24812D01*
X134741Y-24798D01*
X134763Y-24761D01*
X134796Y-24714D01*
X134836Y-24663D01*
X134883Y-24612D01*
X134941Y-24561D01*
X135003Y-24517D01*
X135007D01*
X135011Y-24514D01*
X135021Y-24506D01*
X135036Y-24503D01*
X135072Y-24485D01*
X135120Y-24466D01*
X135182Y-24444D01*
X135251Y-24430D01*
X135327Y-24415D01*
X135411Y-24412D01*
X135429D01*
X135447Y-24415D01*
D02*
G37*
G36*
X136652Y-24262D02*
X136667Y-24270D01*
X136689Y-24277D01*
X136714Y-24288D01*
X136743Y-24303D01*
X136776Y-24317D01*
X136812Y-24335D01*
X136892Y-24379D01*
X136983Y-24430D01*
X137082Y-24496D01*
X137184Y-24568D01*
X137187D01*
X137195Y-24561D01*
X137213Y-24554D01*
X137231Y-24543D01*
X137260Y-24532D01*
X137289Y-24517D01*
X137326Y-24506D01*
X137366Y-24492D01*
X137409Y-24477D01*
X137457Y-24463D01*
X137562Y-24437D01*
X137679Y-24419D01*
X137741Y-24415D01*
X137802Y-24412D01*
X137835D01*
X137861Y-24415D01*
X137890D01*
X137926Y-24419D01*
X137966Y-24426D01*
X138010Y-24434D01*
X138105Y-24452D01*
X138210Y-24481D01*
X138319Y-24521D01*
X138370Y-24546D01*
X138425Y-24576D01*
X138428Y-24579D01*
X138436Y-24583D01*
X138450Y-24594D01*
X138469Y-24605D01*
X138494Y-24623D01*
X138520Y-24645D01*
X138581Y-24696D01*
X138651Y-24761D01*
X138720Y-24841D01*
X138789Y-24932D01*
X138851Y-25038D01*
Y-25041D01*
X138858Y-25052D01*
X138865Y-25067D01*
X138873Y-25089D01*
X138883Y-25118D01*
X138898Y-25151D01*
X138913Y-25191D01*
X138924Y-25234D01*
X138938Y-25282D01*
X138953Y-25333D01*
X138964Y-25387D01*
X138978Y-25449D01*
X138993Y-25577D01*
X139000Y-25711D01*
Y-25715D01*
Y-25730D01*
Y-25748D01*
X138996Y-25773D01*
Y-25806D01*
X138993Y-25846D01*
X138989Y-25890D01*
X138982Y-25937D01*
X138964Y-26043D01*
X138938Y-26155D01*
X138902Y-26276D01*
X138851Y-26392D01*
X138847Y-26396D01*
X138844Y-26406D01*
X138836Y-26421D01*
X138822Y-26443D01*
X138807Y-26468D01*
X138789Y-26498D01*
X138738Y-26567D01*
X138680Y-26640D01*
X138603Y-26716D01*
X138520Y-26792D01*
X138421Y-26858D01*
X138418Y-26862D01*
X138407Y-26865D01*
X138392Y-26872D01*
X138370Y-26883D01*
X138345Y-26894D01*
X138316Y-26909D01*
X138279Y-26923D01*
X138239Y-26938D01*
X138192Y-26952D01*
X138145Y-26967D01*
X138039Y-26992D01*
X137923Y-27011D01*
X137861Y-27018D01*
X137762D01*
X137737Y-27014D01*
X137704D01*
X137671Y-27011D01*
X137628Y-27003D01*
X137584Y-26996D01*
X137489Y-26978D01*
X137380Y-26949D01*
X137275Y-26905D01*
X137220Y-26880D01*
X137165Y-26851D01*
X137162Y-26847D01*
X137154Y-26843D01*
X137140Y-26832D01*
X137118Y-26822D01*
X137096Y-26803D01*
X137067Y-26781D01*
X137005Y-26730D01*
X136940Y-26665D01*
X136867Y-26585D01*
X136798Y-26490D01*
X136740Y-26385D01*
Y-26381D01*
X136732Y-26370D01*
X136725Y-26355D01*
X136718Y-26334D01*
X136703Y-26305D01*
X136692Y-26272D01*
X136678Y-26232D01*
X136663Y-26188D01*
X136652Y-26141D01*
X136638Y-26090D01*
X136623Y-26035D01*
X136612Y-25977D01*
X136598Y-25850D01*
X136590Y-25715D01*
Y-25711D01*
Y-25700D01*
Y-25686D01*
Y-25664D01*
X136594Y-25635D01*
Y-25602D01*
X136598Y-25566D01*
X136601Y-25529D01*
X136612Y-25442D01*
X136630Y-25347D01*
X136652Y-25249D01*
X136685Y-25154D01*
Y-25151D01*
X136689Y-25143D01*
X136696Y-25129D01*
X136703Y-25114D01*
X136714Y-25093D01*
X136725Y-25067D01*
X136754Y-25009D01*
X136794Y-24940D01*
X136845Y-24867D01*
X136903Y-24794D01*
X136969Y-24721D01*
X136965D01*
X136958Y-24714D01*
X136947Y-24707D01*
X136929Y-24696D01*
X136911Y-24681D01*
X136885Y-24667D01*
X136831Y-24634D01*
X136765Y-24594D01*
X136692Y-24554D01*
X136616Y-24521D01*
X136543Y-24488D01*
X136641Y-24259D01*
X136645D01*
X136652Y-24262D01*
D02*
G37*
G36*
X138648Y-148588D02*
X138681D01*
X138721Y-148592D01*
X138765Y-148596D01*
X138812Y-148603D01*
X138918Y-148621D01*
X139031Y-148646D01*
X139151Y-148683D01*
X139267Y-148734D01*
X139271Y-148738D01*
X139282Y-148741D01*
X139296Y-148748D01*
X139318Y-148763D01*
X139344Y-148777D01*
X139373Y-148796D01*
X139442Y-148847D01*
X139515Y-148905D01*
X139591Y-148981D01*
X139667Y-149065D01*
X139733Y-149163D01*
X139737Y-149167D01*
X139740Y-149178D01*
X139748Y-149193D01*
X139759Y-149214D01*
X139769Y-149240D01*
X139784Y-149269D01*
X139799Y-149305D01*
X139813Y-149345D01*
X139828Y-149393D01*
X139842Y-149440D01*
X139868Y-149546D01*
X139886Y-149662D01*
X139893Y-149724D01*
Y-149822D01*
X139890Y-149848D01*
Y-149881D01*
X139886Y-149913D01*
X139879Y-149957D01*
X139871Y-150001D01*
X139853Y-150095D01*
X139824Y-150204D01*
X139780Y-150310D01*
X139755Y-150365D01*
X139726Y-150419D01*
X139722Y-150423D01*
X139718Y-150430D01*
X139708Y-150445D01*
X139697Y-150467D01*
X139679Y-150488D01*
X139657Y-150517D01*
X139606Y-150579D01*
X139540Y-150645D01*
X139460Y-150718D01*
X139365Y-150787D01*
X139260Y-150845D01*
X139256D01*
X139245Y-150852D01*
X139231Y-150860D01*
X139209Y-150867D01*
X139180Y-150882D01*
X139147Y-150892D01*
X139107Y-150907D01*
X139063Y-150921D01*
X139016Y-150932D01*
X138965Y-150947D01*
X138910Y-150962D01*
X138852Y-150972D01*
X138725Y-150987D01*
X138590Y-150994D01*
X138586D01*
X138575D01*
X138561D01*
X138539D01*
X138510Y-150991D01*
X138477D01*
X138441Y-150987D01*
X138405Y-150983D01*
X138317Y-150972D01*
X138223Y-150954D01*
X138124Y-150932D01*
X138030Y-150900D01*
X138026D01*
X138019Y-150896D01*
X138004Y-150889D01*
X137989Y-150882D01*
X137968Y-150871D01*
X137942Y-150860D01*
X137884Y-150830D01*
X137815Y-150791D01*
X137742Y-150740D01*
X137669Y-150681D01*
X137596Y-150616D01*
Y-150619D01*
X137589Y-150627D01*
X137582Y-150638D01*
X137571Y-150656D01*
X137556Y-150674D01*
X137542Y-150699D01*
X137509Y-150754D01*
X137469Y-150820D01*
X137429Y-150892D01*
X137396Y-150969D01*
X137363Y-151042D01*
X137134Y-150943D01*
Y-150940D01*
X137138Y-150932D01*
X137145Y-150918D01*
X137152Y-150896D01*
X137163Y-150871D01*
X137178Y-150841D01*
X137192Y-150809D01*
X137211Y-150772D01*
X137254Y-150692D01*
X137305Y-150601D01*
X137371Y-150503D01*
X137443Y-150401D01*
Y-150397D01*
X137436Y-150390D01*
X137429Y-150372D01*
X137418Y-150354D01*
X137407Y-150324D01*
X137392Y-150295D01*
X137382Y-150259D01*
X137367Y-150219D01*
X137353Y-150175D01*
X137338Y-150128D01*
X137312Y-150022D01*
X137294Y-149906D01*
X137291Y-149844D01*
X137287Y-149782D01*
Y-149749D01*
X137291Y-149724D01*
Y-149695D01*
X137294Y-149658D01*
X137302Y-149618D01*
X137309Y-149575D01*
X137327Y-149480D01*
X137356Y-149374D01*
X137396Y-149265D01*
X137422Y-149214D01*
X137451Y-149160D01*
X137454Y-149156D01*
X137458Y-149149D01*
X137469Y-149134D01*
X137480Y-149116D01*
X137498Y-149091D01*
X137520Y-149065D01*
X137571Y-149003D01*
X137636Y-148934D01*
X137716Y-148865D01*
X137808Y-148796D01*
X137913Y-148734D01*
X137917D01*
X137928Y-148727D01*
X137942Y-148719D01*
X137964Y-148712D01*
X137993Y-148701D01*
X138026Y-148687D01*
X138066Y-148672D01*
X138110Y-148661D01*
X138157Y-148646D01*
X138208Y-148632D01*
X138262Y-148621D01*
X138324Y-148607D01*
X138452Y-148592D01*
X138586Y-148585D01*
X138590D01*
X138605D01*
X138623D01*
X138648Y-148588D01*
D02*
G37*
G36*
X138037Y-151628D02*
X138033D01*
X138026Y-151631D01*
X138011Y-151635D01*
X137993Y-151639D01*
X137971Y-151642D01*
X137946Y-151649D01*
X137891Y-151668D01*
X137826Y-151693D01*
X137764Y-151726D01*
X137706Y-151762D01*
X137655Y-151806D01*
X137651Y-151813D01*
X137636Y-151828D01*
X137618Y-151857D01*
X137600Y-151893D01*
X137578Y-151937D01*
X137560Y-151992D01*
X137545Y-152053D01*
X137542Y-152119D01*
Y-152141D01*
X137545Y-152155D01*
X137549Y-152196D01*
X137560Y-152246D01*
X137578Y-152305D01*
X137604Y-152367D01*
X137640Y-152428D01*
X137691Y-152487D01*
X137698Y-152494D01*
X137720Y-152512D01*
X137753Y-152534D01*
X137797Y-152563D01*
X137851Y-152592D01*
X137913Y-152614D01*
X137986Y-152632D01*
X138066Y-152640D01*
X138070D01*
X138077D01*
X138088D01*
X138102Y-152636D01*
X138142Y-152632D01*
X138190Y-152621D01*
X138248Y-152607D01*
X138306Y-152581D01*
X138364Y-152545D01*
X138419Y-152498D01*
X138426Y-152490D01*
X138441Y-152472D01*
X138463Y-152443D01*
X138488Y-152403D01*
X138514Y-152352D01*
X138535Y-152290D01*
X138550Y-152221D01*
X138557Y-152145D01*
Y-152112D01*
X138554Y-152086D01*
X138550Y-152053D01*
X138543Y-152017D01*
X138535Y-151973D01*
X138525Y-151926D01*
X138798Y-151963D01*
Y-151981D01*
X138794Y-151995D01*
Y-152043D01*
X138801Y-152083D01*
X138809Y-152130D01*
X138819Y-152185D01*
X138838Y-152246D01*
X138863Y-152305D01*
X138896Y-152367D01*
Y-152370D01*
X138900Y-152374D01*
X138914Y-152392D01*
X138939Y-152418D01*
X138972Y-152447D01*
X139020Y-152476D01*
X139074Y-152501D01*
X139136Y-152520D01*
X139172Y-152527D01*
X139213D01*
X139216D01*
X139220D01*
X139242D01*
X139271Y-152520D01*
X139311Y-152512D01*
X139355Y-152498D01*
X139402Y-152479D01*
X139449Y-152450D01*
X139493Y-152410D01*
X139497Y-152407D01*
X139511Y-152388D01*
X139529Y-152363D01*
X139551Y-152330D01*
X139569Y-152287D01*
X139587Y-152235D01*
X139602Y-152177D01*
X139606Y-152112D01*
Y-152083D01*
X139598Y-152050D01*
X139591Y-152006D01*
X139576Y-151959D01*
X139558Y-151912D01*
X139529Y-151861D01*
X139493Y-151813D01*
X139489Y-151810D01*
X139471Y-151795D01*
X139445Y-151773D01*
X139409Y-151748D01*
X139362Y-151722D01*
X139304Y-151697D01*
X139234Y-151675D01*
X139154Y-151660D01*
X139209Y-151351D01*
X139213D01*
X139224Y-151355D01*
X139238Y-151358D01*
X139260Y-151362D01*
X139285Y-151369D01*
X139314Y-151380D01*
X139384Y-151402D01*
X139464Y-151438D01*
X139544Y-151482D01*
X139620Y-151537D01*
X139689Y-151606D01*
X139693Y-151610D01*
X139697Y-151617D01*
X139704Y-151628D01*
X139715Y-151642D01*
X139729Y-151660D01*
X139744Y-151686D01*
X139759Y-151711D01*
X139777Y-151744D01*
X139806Y-151817D01*
X139835Y-151901D01*
X139853Y-151999D01*
X139860Y-152050D01*
Y-152141D01*
X139857Y-152181D01*
X139849Y-152228D01*
X139839Y-152287D01*
X139820Y-152352D01*
X139799Y-152418D01*
X139769Y-152483D01*
Y-152487D01*
X139766Y-152490D01*
X139755Y-152512D01*
X139733Y-152545D01*
X139708Y-152581D01*
X139671Y-152625D01*
X139631Y-152669D01*
X139584Y-152712D01*
X139529Y-152749D01*
X139522Y-152752D01*
X139504Y-152763D01*
X139471Y-152778D01*
X139431Y-152796D01*
X139384Y-152814D01*
X139329Y-152829D01*
X139267Y-152840D01*
X139205Y-152843D01*
X139198D01*
X139176D01*
X139147Y-152840D01*
X139107Y-152832D01*
X139060Y-152822D01*
X139009Y-152803D01*
X138958Y-152781D01*
X138907Y-152752D01*
X138900Y-152749D01*
X138885Y-152738D01*
X138859Y-152716D01*
X138830Y-152687D01*
X138798Y-152650D01*
X138761Y-152607D01*
X138728Y-152556D01*
X138696Y-152494D01*
Y-152498D01*
X138692Y-152505D01*
X138688Y-152516D01*
X138685Y-152530D01*
X138670Y-152570D01*
X138648Y-152621D01*
X138619Y-152680D01*
X138583Y-152738D01*
X138535Y-152793D01*
X138481Y-152843D01*
X138474Y-152847D01*
X138452Y-152862D01*
X138415Y-152884D01*
X138368Y-152905D01*
X138310Y-152927D01*
X138241Y-152949D01*
X138161Y-152964D01*
X138073Y-152967D01*
X138070D01*
X138059D01*
X138040D01*
X138019Y-152964D01*
X137989Y-152960D01*
X137957Y-152953D01*
X137920Y-152945D01*
X137880Y-152938D01*
X137793Y-152909D01*
X137746Y-152887D01*
X137702Y-152865D01*
X137655Y-152836D01*
X137607Y-152803D01*
X137560Y-152767D01*
X137516Y-152723D01*
X137513Y-152720D01*
X137505Y-152712D01*
X137495Y-152698D01*
X137480Y-152680D01*
X137462Y-152658D01*
X137443Y-152629D01*
X137422Y-152596D01*
X137404Y-152556D01*
X137382Y-152516D01*
X137360Y-152469D01*
X137342Y-152421D01*
X137323Y-152367D01*
X137309Y-152308D01*
X137298Y-152246D01*
X137291Y-152185D01*
X137287Y-152115D01*
Y-152083D01*
X137291Y-152061D01*
X137294Y-152032D01*
X137298Y-151999D01*
X137305Y-151963D01*
X137312Y-151923D01*
X137334Y-151835D01*
X137371Y-151744D01*
X137392Y-151697D01*
X137418Y-151653D01*
X137451Y-151610D01*
X137484Y-151566D01*
X137487Y-151562D01*
X137495Y-151555D01*
X137505Y-151544D01*
X137520Y-151533D01*
X137538Y-151515D01*
X137564Y-151497D01*
X137589Y-151475D01*
X137622Y-151453D01*
X137658Y-151431D01*
X137695Y-151409D01*
X137782Y-151369D01*
X137884Y-151337D01*
X137938Y-151326D01*
X137997Y-151318D01*
X138037Y-151628D01*
D02*
G37*
G36*
X20980Y-117394D02*
Y-117397D01*
Y-117412D01*
Y-117430D01*
Y-117455D01*
X20977Y-117488D01*
Y-117525D01*
X20973Y-117568D01*
X20969Y-117612D01*
X20958Y-117710D01*
X20944Y-117812D01*
X20922Y-117910D01*
X20907Y-117958D01*
X20893Y-118001D01*
Y-118005D01*
X20889Y-118012D01*
X20882Y-118023D01*
X20875Y-118038D01*
X20853Y-118078D01*
X20820Y-118129D01*
X20776Y-118187D01*
X20725Y-118245D01*
X20660Y-118307D01*
X20580Y-118362D01*
X20576D01*
X20569Y-118369D01*
X20558Y-118373D01*
X20540Y-118384D01*
X20518Y-118394D01*
X20489Y-118405D01*
X20460Y-118416D01*
X20423Y-118431D01*
X20383Y-118446D01*
X20339Y-118456D01*
X20292Y-118467D01*
X20237Y-118478D01*
X20183Y-118485D01*
X20125Y-118493D01*
X19994Y-118500D01*
X19961D01*
X19935Y-118496D01*
X19906D01*
X19870Y-118493D01*
X19830Y-118489D01*
X19790Y-118485D01*
X19699Y-118471D01*
X19601Y-118449D01*
X19506Y-118420D01*
X19415Y-118380D01*
X19411D01*
X19404Y-118373D01*
X19393Y-118365D01*
X19378Y-118358D01*
X19339Y-118329D01*
X19291Y-118289D01*
X19237Y-118238D01*
X19186Y-118180D01*
X19135Y-118107D01*
X19095Y-118027D01*
Y-118023D01*
X19091Y-118016D01*
X19087Y-118001D01*
X19080Y-117983D01*
X19073Y-117961D01*
X19065Y-117932D01*
X19055Y-117900D01*
X19047Y-117859D01*
X19040Y-117816D01*
X19029Y-117768D01*
X19022Y-117718D01*
X19015Y-117663D01*
X19007Y-117601D01*
X19004Y-117535D01*
X19000Y-117466D01*
Y-117394D01*
Y-115937D01*
X19335D01*
Y-117394D01*
Y-117397D01*
Y-117408D01*
Y-117426D01*
Y-117448D01*
X19339Y-117474D01*
Y-117506D01*
X19342Y-117576D01*
X19349Y-117656D01*
X19360Y-117736D01*
X19375Y-117812D01*
X19382Y-117845D01*
X19393Y-117878D01*
X19397Y-117885D01*
X19404Y-117903D01*
X19422Y-117929D01*
X19444Y-117965D01*
X19469Y-118001D01*
X19506Y-118041D01*
X19550Y-118081D01*
X19601Y-118114D01*
X19608Y-118118D01*
X19626Y-118129D01*
X19659Y-118140D01*
X19703Y-118154D01*
X19753Y-118173D01*
X19819Y-118183D01*
X19888Y-118194D01*
X19964Y-118198D01*
X20001D01*
X20023Y-118194D01*
X20055D01*
X20088Y-118191D01*
X20168Y-118176D01*
X20256Y-118158D01*
X20339Y-118129D01*
X20420Y-118089D01*
X20456Y-118063D01*
X20489Y-118034D01*
X20492Y-118031D01*
X20496Y-118027D01*
X20503Y-118016D01*
X20514Y-118001D01*
X20525Y-117980D01*
X20540Y-117958D01*
X20554Y-117925D01*
X20569Y-117892D01*
X20583Y-117852D01*
X20594Y-117805D01*
X20609Y-117750D01*
X20620Y-117692D01*
X20631Y-117626D01*
X20638Y-117557D01*
X20645Y-117477D01*
Y-117394D01*
Y-115937D01*
X20980D01*
Y-117394D01*
D02*
G37*
G36*
X25021Y-116214D02*
X25017Y-116218D01*
X25010Y-116225D01*
X24995Y-116240D01*
X24981Y-116261D01*
X24959Y-116287D01*
X24929Y-116316D01*
X24900Y-116352D01*
X24868Y-116396D01*
X24835Y-116440D01*
X24795Y-116491D01*
X24755Y-116549D01*
X24715Y-116607D01*
X24671Y-116673D01*
X24627Y-116742D01*
X24584Y-116818D01*
X24540Y-116895D01*
X24536Y-116899D01*
X24529Y-116913D01*
X24518Y-116935D01*
X24500Y-116968D01*
X24482Y-117008D01*
X24460Y-117051D01*
X24434Y-117102D01*
X24409Y-117160D01*
X24380Y-117226D01*
X24347Y-117292D01*
X24318Y-117364D01*
X24289Y-117441D01*
X24231Y-117597D01*
X24176Y-117765D01*
Y-117768D01*
X24172Y-117779D01*
X24169Y-117798D01*
X24161Y-117819D01*
X24154Y-117849D01*
X24147Y-117885D01*
X24136Y-117925D01*
X24129Y-117969D01*
X24118Y-118020D01*
X24107Y-118074D01*
X24089Y-118191D01*
X24070Y-118318D01*
X24059Y-118456D01*
X23743D01*
Y-118453D01*
Y-118442D01*
Y-118427D01*
X23746Y-118405D01*
Y-118376D01*
X23750Y-118340D01*
X23754Y-118300D01*
X23757Y-118256D01*
X23765Y-118205D01*
X23772Y-118154D01*
X23783Y-118092D01*
X23794Y-118031D01*
X23805Y-117965D01*
X23819Y-117892D01*
X23856Y-117743D01*
Y-117739D01*
X23859Y-117725D01*
X23867Y-117703D01*
X23877Y-117670D01*
X23889Y-117634D01*
X23903Y-117590D01*
X23918Y-117539D01*
X23939Y-117484D01*
X23961Y-117423D01*
X23983Y-117361D01*
X24038Y-117222D01*
X24103Y-117077D01*
X24176Y-116931D01*
X24180Y-116928D01*
X24187Y-116913D01*
X24198Y-116895D01*
X24212Y-116866D01*
X24231Y-116833D01*
X24256Y-116793D01*
X24282Y-116749D01*
X24311Y-116702D01*
X24380Y-116596D01*
X24453Y-116487D01*
X24536Y-116374D01*
X24624Y-116269D01*
X23390D01*
Y-115970D01*
X25021D01*
Y-116214D01*
D02*
G37*
G36*
X22574Y-118456D02*
X22265D01*
Y-116487D01*
X22261Y-116491D01*
X22243Y-116505D01*
X22221Y-116527D01*
X22185Y-116553D01*
X22145Y-116585D01*
X22094Y-116622D01*
X22036Y-116662D01*
X21970Y-116702D01*
X21967D01*
X21963Y-116706D01*
X21941Y-116720D01*
X21905Y-116738D01*
X21861Y-116760D01*
X21810Y-116786D01*
X21755Y-116811D01*
X21701Y-116837D01*
X21646Y-116858D01*
Y-116560D01*
X21650D01*
X21657Y-116553D01*
X21672Y-116549D01*
X21690Y-116538D01*
X21712Y-116527D01*
X21737Y-116513D01*
X21799Y-116476D01*
X21872Y-116436D01*
X21945Y-116385D01*
X22021Y-116327D01*
X22098Y-116265D01*
X22101Y-116261D01*
X22105Y-116258D01*
X22116Y-116247D01*
X22130Y-116236D01*
X22163Y-116200D01*
X22207Y-116156D01*
X22251Y-116105D01*
X22298Y-116047D01*
X22338Y-115988D01*
X22374Y-115927D01*
X22574D01*
Y-118456D01*
D02*
G37*
G36*
X28126Y-131004D02*
X28159D01*
X28199Y-131007D01*
X28243Y-131015D01*
X28294Y-131022D01*
X28399Y-131040D01*
X28509Y-131069D01*
X28618Y-131109D01*
X28669Y-131135D01*
X28720Y-131164D01*
X28723Y-131167D01*
X28731Y-131171D01*
X28745Y-131182D01*
X28760Y-131196D01*
X28782Y-131211D01*
X28807Y-131233D01*
X28836Y-131258D01*
X28865Y-131288D01*
X28894Y-131320D01*
X28927Y-131353D01*
X28993Y-131437D01*
X29055Y-131535D01*
X29109Y-131644D01*
Y-131648D01*
X29116Y-131659D01*
X29120Y-131677D01*
X29131Y-131699D01*
X29138Y-131728D01*
X29149Y-131764D01*
X29164Y-131804D01*
X29175Y-131848D01*
X29186Y-131895D01*
X29200Y-131950D01*
X29218Y-132063D01*
X29233Y-132190D01*
X29240Y-132321D01*
Y-132325D01*
Y-132340D01*
Y-132361D01*
X29237Y-132387D01*
Y-132423D01*
X29233Y-132460D01*
X29229Y-132507D01*
X29222Y-132554D01*
X29204Y-132660D01*
X29178Y-132776D01*
X29142Y-132893D01*
X29091Y-133006D01*
X29087Y-133009D01*
X29084Y-133020D01*
X29076Y-133035D01*
X29062Y-133053D01*
X29047Y-133078D01*
X29029Y-133107D01*
X28982Y-133173D01*
X28920Y-133246D01*
X28847Y-133319D01*
X28763Y-133391D01*
X28665Y-133453D01*
X28661Y-133457D01*
X28651Y-133461D01*
X28636Y-133468D01*
X28618Y-133479D01*
X28589Y-133490D01*
X28559Y-133501D01*
X28523Y-133515D01*
X28483Y-133530D01*
X28439Y-133544D01*
X28392Y-133559D01*
X28290Y-133581D01*
X28174Y-133599D01*
X28054Y-133606D01*
X28017D01*
X27992Y-133602D01*
X27959Y-133599D01*
X27919Y-133595D01*
X27879Y-133592D01*
X27832Y-133581D01*
X27733Y-133559D01*
X27624Y-133526D01*
X27569Y-133504D01*
X27518Y-133479D01*
X27468Y-133446D01*
X27417Y-133413D01*
X27413Y-133410D01*
X27406Y-133406D01*
X27391Y-133395D01*
X27373Y-133377D01*
X27355Y-133359D01*
X27329Y-133333D01*
X27304Y-133304D01*
X27275Y-133275D01*
X27246Y-133239D01*
X27216Y-133195D01*
X27184Y-133151D01*
X27154Y-133104D01*
X27129Y-133049D01*
X27100Y-132995D01*
X27078Y-132936D01*
X27056Y-132871D01*
X27384Y-132794D01*
Y-132798D01*
X27387Y-132805D01*
X27395Y-132820D01*
X27402Y-132838D01*
X27409Y-132860D01*
X27420Y-132889D01*
X27449Y-132947D01*
X27486Y-133013D01*
X27529Y-133078D01*
X27584Y-133140D01*
X27642Y-133195D01*
X27650Y-133202D01*
X27671Y-133217D01*
X27708Y-133235D01*
X27755Y-133260D01*
X27817Y-133282D01*
X27886Y-133304D01*
X27970Y-133319D01*
X28061Y-133322D01*
X28090D01*
X28108Y-133319D01*
X28134D01*
X28163Y-133315D01*
X28232Y-133304D01*
X28308Y-133290D01*
X28388Y-133264D01*
X28472Y-133228D01*
X28549Y-133180D01*
X28552D01*
X28556Y-133173D01*
X28581Y-133155D01*
X28614Y-133126D01*
X28654Y-133082D01*
X28701Y-133027D01*
X28745Y-132966D01*
X28785Y-132889D01*
X28822Y-132805D01*
Y-132802D01*
X28825Y-132794D01*
X28829Y-132783D01*
X28833Y-132765D01*
X28840Y-132744D01*
X28847Y-132718D01*
X28858Y-132656D01*
X28873Y-132583D01*
X28887Y-132503D01*
X28894Y-132416D01*
X28898Y-132321D01*
Y-132318D01*
Y-132307D01*
Y-132289D01*
Y-132267D01*
X28894Y-132241D01*
Y-132208D01*
X28891Y-132172D01*
X28887Y-132132D01*
X28876Y-132045D01*
X28858Y-131950D01*
X28836Y-131855D01*
X28807Y-131761D01*
Y-131757D01*
X28803Y-131750D01*
X28796Y-131739D01*
X28789Y-131721D01*
X28767Y-131677D01*
X28734Y-131626D01*
X28694Y-131568D01*
X28643Y-131506D01*
X28585Y-131451D01*
X28516Y-131400D01*
X28512D01*
X28505Y-131397D01*
X28494Y-131389D01*
X28479Y-131382D01*
X28461Y-131375D01*
X28439Y-131364D01*
X28388Y-131342D01*
X28323Y-131320D01*
X28250Y-131302D01*
X28170Y-131288D01*
X28086Y-131284D01*
X28061D01*
X28039Y-131288D01*
X28014D01*
X27988Y-131291D01*
X27922Y-131306D01*
X27846Y-131324D01*
X27770Y-131353D01*
X27690Y-131393D01*
X27650Y-131415D01*
X27613Y-131444D01*
X27610Y-131448D01*
X27606Y-131451D01*
X27595Y-131462D01*
X27580Y-131473D01*
X27566Y-131491D01*
X27548Y-131513D01*
X27526Y-131535D01*
X27507Y-131564D01*
X27486Y-131597D01*
X27460Y-131633D01*
X27438Y-131670D01*
X27417Y-131713D01*
X27398Y-131761D01*
X27380Y-131812D01*
X27362Y-131866D01*
X27347Y-131924D01*
X27013Y-131841D01*
Y-131837D01*
X27016Y-131823D01*
X27023Y-131801D01*
X27034Y-131772D01*
X27045Y-131739D01*
X27060Y-131699D01*
X27078Y-131655D01*
X27100Y-131608D01*
X27151Y-131506D01*
X27216Y-131404D01*
X27256Y-131353D01*
X27296Y-131302D01*
X27340Y-131258D01*
X27391Y-131215D01*
X27395Y-131211D01*
X27402Y-131204D01*
X27420Y-131196D01*
X27438Y-131182D01*
X27468Y-131164D01*
X27497Y-131146D01*
X27537Y-131127D01*
X27577Y-131109D01*
X27624Y-131087D01*
X27675Y-131069D01*
X27730Y-131051D01*
X27788Y-131033D01*
X27850Y-131018D01*
X27915Y-131011D01*
X27984Y-131004D01*
X28057Y-131000D01*
X28097D01*
X28126Y-131004D01*
D02*
G37*
G36*
X25873Y-133013D02*
X25877Y-133009D01*
X25895Y-132995D01*
X25917Y-132973D01*
X25953Y-132947D01*
X25993Y-132915D01*
X26044Y-132878D01*
X26103Y-132838D01*
X26168Y-132798D01*
X26172D01*
X26175Y-132794D01*
X26197Y-132780D01*
X26234Y-132762D01*
X26277Y-132740D01*
X26328Y-132714D01*
X26383Y-132689D01*
X26437Y-132663D01*
X26492Y-132642D01*
Y-132940D01*
X26488D01*
X26481Y-132947D01*
X26467Y-132951D01*
X26448Y-132962D01*
X26427Y-132973D01*
X26401Y-132987D01*
X26339Y-133024D01*
X26266Y-133064D01*
X26193Y-133115D01*
X26117Y-133173D01*
X26041Y-133235D01*
X26037Y-133239D01*
X26033Y-133242D01*
X26022Y-133253D01*
X26008Y-133264D01*
X25975Y-133300D01*
X25931Y-133344D01*
X25888Y-133395D01*
X25840Y-133453D01*
X25800Y-133512D01*
X25764Y-133573D01*
X25564D01*
Y-131044D01*
X25873D01*
Y-133013D01*
D02*
G37*
G36*
X24010Y-131004D02*
X24039Y-131007D01*
X24075Y-131015D01*
X24115Y-131022D01*
X24159Y-131033D01*
X24202Y-131047D01*
X24250Y-131062D01*
X24297Y-131084D01*
X24344Y-131109D01*
X24392Y-131138D01*
X24439Y-131175D01*
X24483Y-131215D01*
X24523Y-131258D01*
X24526Y-131262D01*
X24534Y-131273D01*
X24545Y-131291D01*
X24563Y-131320D01*
X24581Y-131353D01*
X24599Y-131397D01*
X24625Y-131448D01*
X24646Y-131506D01*
X24668Y-131571D01*
X24690Y-131648D01*
X24712Y-131732D01*
X24730Y-131826D01*
X24748Y-131928D01*
X24759Y-132037D01*
X24767Y-132158D01*
X24770Y-132285D01*
Y-132289D01*
Y-132303D01*
Y-132328D01*
Y-132358D01*
X24767Y-132398D01*
Y-132441D01*
X24763Y-132489D01*
X24759Y-132543D01*
X24748Y-132656D01*
X24730Y-132776D01*
X24708Y-132896D01*
X24694Y-132951D01*
X24679Y-133006D01*
Y-133009D01*
X24676Y-133017D01*
X24668Y-133031D01*
X24661Y-133049D01*
X24654Y-133075D01*
X24639Y-133100D01*
X24610Y-133162D01*
X24574Y-133228D01*
X24526Y-133297D01*
X24472Y-133366D01*
X24406Y-133424D01*
X24403D01*
X24399Y-133431D01*
X24388Y-133439D01*
X24374Y-133446D01*
X24355Y-133461D01*
X24333Y-133472D01*
X24279Y-133501D01*
X24213Y-133526D01*
X24137Y-133552D01*
X24046Y-133566D01*
X23948Y-133573D01*
X23915D01*
X23875Y-133570D01*
X23828Y-133563D01*
X23773Y-133552D01*
X23715Y-133537D01*
X23653Y-133519D01*
X23595Y-133490D01*
X23591D01*
X23587Y-133486D01*
X23569Y-133475D01*
X23540Y-133457D01*
X23504Y-133431D01*
X23463Y-133395D01*
X23420Y-133355D01*
X23380Y-133308D01*
X23340Y-133253D01*
X23336Y-133246D01*
X23322Y-133228D01*
X23307Y-133195D01*
X23281Y-133148D01*
X23260Y-133093D01*
X23231Y-133031D01*
X23205Y-132958D01*
X23183Y-132878D01*
Y-132875D01*
X23180Y-132867D01*
X23176Y-132856D01*
X23172Y-132838D01*
X23169Y-132816D01*
X23165Y-132791D01*
X23158Y-132758D01*
X23154Y-132722D01*
X23147Y-132682D01*
X23143Y-132638D01*
X23140Y-132587D01*
X23132Y-132536D01*
X23129Y-132478D01*
Y-132420D01*
X23125Y-132354D01*
Y-132285D01*
Y-132281D01*
Y-132267D01*
Y-132241D01*
Y-132212D01*
X23129Y-132172D01*
Y-132128D01*
X23132Y-132081D01*
X23136Y-132030D01*
X23147Y-131914D01*
X23165Y-131793D01*
X23187Y-131677D01*
X23201Y-131622D01*
X23220Y-131568D01*
Y-131564D01*
X23223Y-131557D01*
X23231Y-131542D01*
X23238Y-131524D01*
X23245Y-131499D01*
X23260Y-131473D01*
X23289Y-131411D01*
X23325Y-131346D01*
X23372Y-131273D01*
X23427Y-131207D01*
X23493Y-131146D01*
X23496D01*
X23500Y-131138D01*
X23511Y-131131D01*
X23525Y-131124D01*
X23544Y-131113D01*
X23562Y-131098D01*
X23616Y-131073D01*
X23682Y-131047D01*
X23758Y-131022D01*
X23849Y-131007D01*
X23948Y-131000D01*
X23984D01*
X24010Y-131004D01*
D02*
G37*
G36*
X22856Y-131047D02*
Y-131062D01*
Y-131084D01*
X22852Y-131113D01*
X22848Y-131146D01*
X22841Y-131182D01*
X22834Y-131218D01*
X22819Y-131258D01*
Y-131262D01*
X22816Y-131266D01*
X22808Y-131288D01*
X22794Y-131320D01*
X22772Y-131364D01*
X22743Y-131415D01*
X22706Y-131473D01*
X22666Y-131531D01*
X22615Y-131593D01*
Y-131597D01*
X22608Y-131600D01*
X22590Y-131622D01*
X22557Y-131655D01*
X22510Y-131702D01*
X22455Y-131757D01*
X22386Y-131823D01*
X22302Y-131895D01*
X22211Y-131972D01*
X22208Y-131975D01*
X22193Y-131986D01*
X22171Y-132005D01*
X22146Y-132026D01*
X22113Y-132055D01*
X22073Y-132088D01*
X22033Y-132125D01*
X21986Y-132165D01*
X21895Y-132252D01*
X21804Y-132340D01*
X21760Y-132383D01*
X21720Y-132427D01*
X21684Y-132467D01*
X21654Y-132507D01*
Y-132510D01*
X21647Y-132514D01*
X21640Y-132525D01*
X21633Y-132540D01*
X21607Y-132580D01*
X21578Y-132627D01*
X21553Y-132685D01*
X21527Y-132747D01*
X21512Y-132816D01*
X21505Y-132882D01*
Y-132886D01*
Y-132889D01*
X21509Y-132911D01*
X21512Y-132947D01*
X21523Y-132987D01*
X21538Y-133038D01*
X21563Y-133089D01*
X21596Y-133140D01*
X21640Y-133191D01*
X21647Y-133198D01*
X21665Y-133213D01*
X21691Y-133231D01*
X21731Y-133257D01*
X21782Y-133279D01*
X21840Y-133300D01*
X21909Y-133315D01*
X21986Y-133319D01*
X22007D01*
X22022Y-133315D01*
X22066Y-133311D01*
X22117Y-133300D01*
X22171Y-133286D01*
X22233Y-133260D01*
X22291Y-133228D01*
X22346Y-133184D01*
X22353Y-133177D01*
X22368Y-133159D01*
X22390Y-133129D01*
X22411Y-133086D01*
X22437Y-133035D01*
X22459Y-132969D01*
X22473Y-132896D01*
X22481Y-132813D01*
X22797Y-132845D01*
Y-132849D01*
X22794Y-132860D01*
Y-132878D01*
X22790Y-132904D01*
X22783Y-132933D01*
X22776Y-132966D01*
X22765Y-133006D01*
X22754Y-133046D01*
X22725Y-133133D01*
X22681Y-133220D01*
X22655Y-133264D01*
X22623Y-133308D01*
X22590Y-133348D01*
X22554Y-133384D01*
X22550Y-133388D01*
X22543Y-133391D01*
X22532Y-133402D01*
X22513Y-133413D01*
X22492Y-133428D01*
X22466Y-133442D01*
X22437Y-133461D01*
X22401Y-133479D01*
X22361Y-133497D01*
X22317Y-133515D01*
X22270Y-133530D01*
X22219Y-133544D01*
X22164Y-133555D01*
X22106Y-133566D01*
X22044Y-133570D01*
X21978Y-133573D01*
X21942D01*
X21916Y-133570D01*
X21887Y-133566D01*
X21851Y-133563D01*
X21811Y-133555D01*
X21771Y-133548D01*
X21676Y-133522D01*
X21582Y-133486D01*
X21534Y-133464D01*
X21487Y-133439D01*
X21443Y-133406D01*
X21403Y-133370D01*
X21400Y-133366D01*
X21392Y-133362D01*
X21385Y-133348D01*
X21371Y-133333D01*
X21352Y-133315D01*
X21334Y-133290D01*
X21316Y-133264D01*
X21294Y-133231D01*
X21258Y-133162D01*
X21221Y-133075D01*
X21207Y-133031D01*
X21199Y-132980D01*
X21192Y-132929D01*
X21189Y-132875D01*
Y-132867D01*
Y-132849D01*
X21192Y-132820D01*
X21196Y-132780D01*
X21203Y-132736D01*
X21218Y-132685D01*
X21232Y-132631D01*
X21254Y-132576D01*
X21258Y-132569D01*
X21265Y-132551D01*
X21280Y-132521D01*
X21301Y-132481D01*
X21330Y-132438D01*
X21367Y-132383D01*
X21411Y-132328D01*
X21462Y-132267D01*
X21469Y-132259D01*
X21487Y-132238D01*
X21505Y-132219D01*
X21523Y-132201D01*
X21545Y-132179D01*
X21574Y-132150D01*
X21603Y-132121D01*
X21640Y-132088D01*
X21676Y-132052D01*
X21720Y-132012D01*
X21767Y-131972D01*
X21818Y-131924D01*
X21877Y-131877D01*
X21935Y-131826D01*
X21938Y-131823D01*
X21946Y-131815D01*
X21960Y-131804D01*
X21978Y-131790D01*
X22000Y-131768D01*
X22026Y-131746D01*
X22084Y-131699D01*
X22146Y-131644D01*
X22204Y-131590D01*
X22255Y-131542D01*
X22277Y-131524D01*
X22295Y-131506D01*
X22299Y-131502D01*
X22310Y-131491D01*
X22324Y-131477D01*
X22342Y-131455D01*
X22361Y-131430D01*
X22382Y-131404D01*
X22426Y-131342D01*
X21185D01*
Y-131044D01*
X22856D01*
Y-131047D01*
D02*
G37*
G36*
X28386Y-139504D02*
X28419D01*
X28459Y-139507D01*
X28503Y-139515D01*
X28554Y-139522D01*
X28659Y-139540D01*
X28768Y-139569D01*
X28878Y-139609D01*
X28929Y-139635D01*
X28980Y-139664D01*
X28983Y-139667D01*
X28990Y-139671D01*
X29005Y-139682D01*
X29019Y-139697D01*
X29041Y-139711D01*
X29067Y-139733D01*
X29096Y-139758D01*
X29125Y-139787D01*
X29154Y-139820D01*
X29187Y-139853D01*
X29252Y-139937D01*
X29314Y-140035D01*
X29369Y-140144D01*
Y-140148D01*
X29376Y-140159D01*
X29380Y-140177D01*
X29391Y-140199D01*
X29398Y-140228D01*
X29409Y-140264D01*
X29424Y-140304D01*
X29434Y-140348D01*
X29445Y-140395D01*
X29460Y-140450D01*
X29478Y-140563D01*
X29493Y-140690D01*
X29500Y-140821D01*
Y-140825D01*
Y-140840D01*
Y-140861D01*
X29496Y-140887D01*
Y-140923D01*
X29493Y-140960D01*
X29489Y-141007D01*
X29482Y-141054D01*
X29464Y-141160D01*
X29438Y-141276D01*
X29402Y-141393D01*
X29351Y-141506D01*
X29347Y-141509D01*
X29344Y-141520D01*
X29336Y-141535D01*
X29322Y-141553D01*
X29307Y-141578D01*
X29289Y-141607D01*
X29242Y-141673D01*
X29180Y-141746D01*
X29107Y-141819D01*
X29023Y-141891D01*
X28925Y-141953D01*
X28921Y-141957D01*
X28910Y-141961D01*
X28896Y-141968D01*
X28878Y-141979D01*
X28848Y-141990D01*
X28819Y-142001D01*
X28783Y-142015D01*
X28743Y-142030D01*
X28699Y-142044D01*
X28652Y-142059D01*
X28550Y-142081D01*
X28433Y-142099D01*
X28313Y-142106D01*
X28277D01*
X28251Y-142103D01*
X28219Y-142099D01*
X28179Y-142095D01*
X28139Y-142092D01*
X28091Y-142081D01*
X27993Y-142059D01*
X27884Y-142026D01*
X27829Y-142004D01*
X27778Y-141979D01*
X27727Y-141946D01*
X27676Y-141913D01*
X27673Y-141910D01*
X27665Y-141906D01*
X27651Y-141895D01*
X27633Y-141877D01*
X27615Y-141859D01*
X27589Y-141833D01*
X27564Y-141804D01*
X27534Y-141775D01*
X27505Y-141739D01*
X27476Y-141695D01*
X27443Y-141651D01*
X27414Y-141604D01*
X27389Y-141549D01*
X27360Y-141495D01*
X27338Y-141436D01*
X27316Y-141371D01*
X27644Y-141295D01*
Y-141298D01*
X27647Y-141305D01*
X27655Y-141320D01*
X27662Y-141338D01*
X27669Y-141360D01*
X27680Y-141389D01*
X27709Y-141447D01*
X27746Y-141513D01*
X27789Y-141578D01*
X27844Y-141640D01*
X27902Y-141695D01*
X27909Y-141702D01*
X27931Y-141717D01*
X27968Y-141735D01*
X28015Y-141760D01*
X28077Y-141782D01*
X28146Y-141804D01*
X28230Y-141819D01*
X28321Y-141822D01*
X28350D01*
X28368Y-141819D01*
X28394D01*
X28423Y-141815D01*
X28492Y-141804D01*
X28568Y-141789D01*
X28648Y-141764D01*
X28732Y-141728D01*
X28808Y-141680D01*
X28812D01*
X28816Y-141673D01*
X28841Y-141655D01*
X28874Y-141626D01*
X28914Y-141582D01*
X28961Y-141527D01*
X29005Y-141466D01*
X29045Y-141389D01*
X29081Y-141305D01*
Y-141302D01*
X29085Y-141295D01*
X29089Y-141284D01*
X29092Y-141265D01*
X29100Y-141244D01*
X29107Y-141218D01*
X29118Y-141156D01*
X29132Y-141083D01*
X29147Y-141003D01*
X29154Y-140916D01*
X29158Y-140821D01*
Y-140818D01*
Y-140807D01*
Y-140788D01*
Y-140767D01*
X29154Y-140741D01*
Y-140708D01*
X29151Y-140672D01*
X29147Y-140632D01*
X29136Y-140545D01*
X29118Y-140450D01*
X29096Y-140355D01*
X29067Y-140261D01*
Y-140257D01*
X29063Y-140250D01*
X29056Y-140239D01*
X29049Y-140221D01*
X29027Y-140177D01*
X28994Y-140126D01*
X28954Y-140068D01*
X28903Y-140006D01*
X28845Y-139951D01*
X28776Y-139900D01*
X28772D01*
X28765Y-139897D01*
X28754Y-139889D01*
X28739Y-139882D01*
X28721Y-139875D01*
X28699Y-139864D01*
X28648Y-139842D01*
X28583Y-139820D01*
X28510Y-139802D01*
X28430Y-139787D01*
X28346Y-139784D01*
X28321D01*
X28299Y-139787D01*
X28273D01*
X28248Y-139791D01*
X28182Y-139806D01*
X28106Y-139824D01*
X28030Y-139853D01*
X27949Y-139893D01*
X27909Y-139915D01*
X27873Y-139944D01*
X27869Y-139948D01*
X27866Y-139951D01*
X27855Y-139962D01*
X27840Y-139973D01*
X27826Y-139991D01*
X27807Y-140013D01*
X27786Y-140035D01*
X27767Y-140064D01*
X27746Y-140097D01*
X27720Y-140133D01*
X27698Y-140170D01*
X27676Y-140213D01*
X27658Y-140261D01*
X27640Y-140312D01*
X27622Y-140366D01*
X27607Y-140425D01*
X27272Y-140341D01*
Y-140337D01*
X27276Y-140323D01*
X27283Y-140301D01*
X27294Y-140272D01*
X27305Y-140239D01*
X27320Y-140199D01*
X27338Y-140155D01*
X27360Y-140108D01*
X27411Y-140006D01*
X27476Y-139904D01*
X27516Y-139853D01*
X27556Y-139802D01*
X27600Y-139758D01*
X27651Y-139715D01*
X27655Y-139711D01*
X27662Y-139704D01*
X27680Y-139697D01*
X27698Y-139682D01*
X27727Y-139664D01*
X27757Y-139646D01*
X27797Y-139627D01*
X27836Y-139609D01*
X27884Y-139587D01*
X27935Y-139569D01*
X27989Y-139551D01*
X28048Y-139533D01*
X28110Y-139518D01*
X28175Y-139511D01*
X28244Y-139504D01*
X28317Y-139500D01*
X28357D01*
X28386Y-139504D01*
D02*
G37*
G36*
X26133Y-141513D02*
X26137Y-141509D01*
X26155Y-141495D01*
X26177Y-141473D01*
X26213Y-141447D01*
X26253Y-141415D01*
X26304Y-141378D01*
X26362Y-141338D01*
X26428Y-141298D01*
X26432D01*
X26435Y-141295D01*
X26457Y-141280D01*
X26493Y-141262D01*
X26537Y-141240D01*
X26588Y-141214D01*
X26643Y-141189D01*
X26697Y-141163D01*
X26752Y-141142D01*
Y-141440D01*
X26748D01*
X26741Y-141447D01*
X26726Y-141451D01*
X26708Y-141462D01*
X26686Y-141473D01*
X26661Y-141487D01*
X26599Y-141524D01*
X26526Y-141564D01*
X26453Y-141615D01*
X26377Y-141673D01*
X26300Y-141735D01*
X26297Y-141739D01*
X26293Y-141742D01*
X26282Y-141753D01*
X26268Y-141764D01*
X26235Y-141800D01*
X26191Y-141844D01*
X26148Y-141895D01*
X26100Y-141953D01*
X26060Y-142012D01*
X26024Y-142073D01*
X25824D01*
Y-139544D01*
X26133D01*
Y-141513D01*
D02*
G37*
G36*
X24269Y-139504D02*
X24298Y-139507D01*
X24335Y-139515D01*
X24375Y-139522D01*
X24419Y-139533D01*
X24462Y-139547D01*
X24510Y-139562D01*
X24557Y-139584D01*
X24604Y-139609D01*
X24652Y-139638D01*
X24699Y-139675D01*
X24743Y-139715D01*
X24783Y-139758D01*
X24786Y-139762D01*
X24793Y-139773D01*
X24804Y-139791D01*
X24823Y-139820D01*
X24841Y-139853D01*
X24859Y-139897D01*
X24884Y-139948D01*
X24906Y-140006D01*
X24928Y-140071D01*
X24950Y-140148D01*
X24972Y-140232D01*
X24990Y-140326D01*
X25008Y-140428D01*
X25019Y-140537D01*
X25027Y-140657D01*
X25030Y-140785D01*
Y-140788D01*
Y-140803D01*
Y-140829D01*
Y-140858D01*
X25027Y-140898D01*
Y-140941D01*
X25023Y-140989D01*
X25019Y-141043D01*
X25008Y-141156D01*
X24990Y-141276D01*
X24968Y-141396D01*
X24954Y-141451D01*
X24939Y-141506D01*
Y-141509D01*
X24936Y-141516D01*
X24928Y-141531D01*
X24921Y-141549D01*
X24914Y-141575D01*
X24899Y-141600D01*
X24870Y-141662D01*
X24834Y-141728D01*
X24786Y-141797D01*
X24732Y-141866D01*
X24666Y-141924D01*
X24663D01*
X24659Y-141931D01*
X24648Y-141939D01*
X24633Y-141946D01*
X24615Y-141961D01*
X24593Y-141972D01*
X24539Y-142001D01*
X24473Y-142026D01*
X24397Y-142052D01*
X24306Y-142066D01*
X24207Y-142073D01*
X24175D01*
X24135Y-142070D01*
X24087Y-142062D01*
X24033Y-142052D01*
X23975Y-142037D01*
X23913Y-142019D01*
X23854Y-141990D01*
X23851D01*
X23847Y-141986D01*
X23829Y-141975D01*
X23800Y-141957D01*
X23763Y-141931D01*
X23723Y-141895D01*
X23680Y-141855D01*
X23640Y-141808D01*
X23600Y-141753D01*
X23596Y-141746D01*
X23581Y-141728D01*
X23567Y-141695D01*
X23541Y-141648D01*
X23519Y-141593D01*
X23490Y-141531D01*
X23465Y-141458D01*
X23443Y-141378D01*
Y-141375D01*
X23439Y-141367D01*
X23436Y-141356D01*
X23432Y-141338D01*
X23428Y-141316D01*
X23425Y-141291D01*
X23418Y-141258D01*
X23414Y-141222D01*
X23407Y-141182D01*
X23403Y-141138D01*
X23399Y-141087D01*
X23392Y-141036D01*
X23389Y-140978D01*
Y-140920D01*
X23385Y-140854D01*
Y-140785D01*
Y-140781D01*
Y-140767D01*
Y-140741D01*
Y-140712D01*
X23389Y-140672D01*
Y-140628D01*
X23392Y-140581D01*
X23396Y-140530D01*
X23407Y-140414D01*
X23425Y-140294D01*
X23447Y-140177D01*
X23461Y-140122D01*
X23480Y-140068D01*
Y-140064D01*
X23483Y-140057D01*
X23490Y-140042D01*
X23498Y-140024D01*
X23505Y-139999D01*
X23519Y-139973D01*
X23549Y-139911D01*
X23585Y-139846D01*
X23632Y-139773D01*
X23687Y-139707D01*
X23753Y-139646D01*
X23756D01*
X23760Y-139638D01*
X23771Y-139631D01*
X23785Y-139624D01*
X23803Y-139613D01*
X23822Y-139598D01*
X23876Y-139573D01*
X23942Y-139547D01*
X24018Y-139522D01*
X24109Y-139507D01*
X24207Y-139500D01*
X24244D01*
X24269Y-139504D01*
D02*
G37*
G36*
X22216Y-141513D02*
X22220Y-141509D01*
X22238Y-141495D01*
X22260Y-141473D01*
X22297Y-141447D01*
X22336Y-141415D01*
X22388Y-141378D01*
X22446Y-141338D01*
X22511Y-141298D01*
X22515D01*
X22519Y-141295D01*
X22540Y-141280D01*
X22577Y-141262D01*
X22620Y-141240D01*
X22671Y-141214D01*
X22726Y-141189D01*
X22781Y-141163D01*
X22835Y-141142D01*
Y-141440D01*
X22831D01*
X22824Y-141447D01*
X22810Y-141451D01*
X22792Y-141462D01*
X22770Y-141473D01*
X22744Y-141487D01*
X22682Y-141524D01*
X22610Y-141564D01*
X22537Y-141615D01*
X22460Y-141673D01*
X22384Y-141735D01*
X22380Y-141739D01*
X22377Y-141742D01*
X22366Y-141753D01*
X22351Y-141764D01*
X22318Y-141800D01*
X22275Y-141844D01*
X22231Y-141895D01*
X22184Y-141953D01*
X22144Y-142012D01*
X22107Y-142073D01*
X21907D01*
Y-139544D01*
X22216D01*
Y-141513D01*
D02*
G37*
G36*
X65328Y-23490D02*
X65372D01*
X65419Y-23494D01*
X65470Y-23498D01*
X65586Y-23509D01*
X65706Y-23527D01*
X65823Y-23549D01*
X65878Y-23563D01*
X65932Y-23581D01*
X65936D01*
X65943Y-23585D01*
X65958Y-23592D01*
X65976Y-23600D01*
X66001Y-23607D01*
X66027Y-23621D01*
X66089Y-23651D01*
X66154Y-23687D01*
X66227Y-23734D01*
X66293Y-23789D01*
X66354Y-23854D01*
Y-23858D01*
X66362Y-23862D01*
X66369Y-23873D01*
X66376Y-23887D01*
X66387Y-23905D01*
X66402Y-23924D01*
X66427Y-23978D01*
X66453Y-24044D01*
X66478Y-24120D01*
X66493Y-24211D01*
X66500Y-24309D01*
Y-24346D01*
X66496Y-24371D01*
X66493Y-24400D01*
X66486Y-24437D01*
X66478Y-24477D01*
X66467Y-24521D01*
X66453Y-24564D01*
X66438Y-24611D01*
X66416Y-24659D01*
X66391Y-24706D01*
X66362Y-24754D01*
X66325Y-24801D01*
X66285Y-24845D01*
X66242Y-24884D01*
X66238Y-24888D01*
X66227Y-24895D01*
X66209Y-24906D01*
X66180Y-24925D01*
X66147Y-24943D01*
X66103Y-24961D01*
X66052Y-24986D01*
X65994Y-25008D01*
X65929Y-25030D01*
X65852Y-25052D01*
X65768Y-25074D01*
X65674Y-25092D01*
X65572Y-25110D01*
X65463Y-25121D01*
X65342Y-25128D01*
X65215Y-25132D01*
X65211D01*
X65197D01*
X65171D01*
X65142D01*
X65102Y-25128D01*
X65059D01*
X65011Y-25125D01*
X64957Y-25121D01*
X64844Y-25110D01*
X64724Y-25092D01*
X64604Y-25070D01*
X64549Y-25056D01*
X64494Y-25041D01*
X64491D01*
X64483Y-25037D01*
X64469Y-25030D01*
X64451Y-25023D01*
X64425Y-25016D01*
X64400Y-25001D01*
X64338Y-24972D01*
X64272Y-24936D01*
X64203Y-24888D01*
X64134Y-24834D01*
X64076Y-24768D01*
Y-24764D01*
X64069Y-24761D01*
X64061Y-24750D01*
X64054Y-24735D01*
X64039Y-24717D01*
X64029Y-24695D01*
X63999Y-24641D01*
X63974Y-24575D01*
X63948Y-24499D01*
X63934Y-24408D01*
X63927Y-24309D01*
Y-24277D01*
X63930Y-24237D01*
X63937Y-24189D01*
X63948Y-24135D01*
X63963Y-24077D01*
X63981Y-24015D01*
X64010Y-23956D01*
Y-23953D01*
X64014Y-23949D01*
X64025Y-23931D01*
X64043Y-23902D01*
X64069Y-23865D01*
X64105Y-23825D01*
X64145Y-23782D01*
X64192Y-23742D01*
X64247Y-23701D01*
X64254Y-23698D01*
X64272Y-23683D01*
X64305Y-23669D01*
X64352Y-23643D01*
X64407Y-23621D01*
X64469Y-23592D01*
X64542Y-23567D01*
X64622Y-23545D01*
X64625D01*
X64633Y-23541D01*
X64644Y-23538D01*
X64662Y-23534D01*
X64684Y-23530D01*
X64709Y-23527D01*
X64742Y-23519D01*
X64778Y-23516D01*
X64818Y-23509D01*
X64862Y-23505D01*
X64913Y-23501D01*
X64964Y-23494D01*
X65022Y-23490D01*
X65080D01*
X65146Y-23487D01*
X65215D01*
X65219D01*
X65233D01*
X65259D01*
X65288D01*
X65328Y-23490D01*
D02*
G37*
G36*
X66456Y-26235D02*
X64487D01*
X64491Y-26239D01*
X64505Y-26257D01*
X64527Y-26279D01*
X64553Y-26315D01*
X64585Y-26355D01*
X64622Y-26406D01*
X64662Y-26464D01*
X64702Y-26530D01*
Y-26533D01*
X64705Y-26537D01*
X64720Y-26559D01*
X64738Y-26595D01*
X64760Y-26639D01*
X64786Y-26690D01*
X64811Y-26745D01*
X64837Y-26799D01*
X64858Y-26854D01*
X64560D01*
Y-26850D01*
X64553Y-26843D01*
X64549Y-26828D01*
X64538Y-26810D01*
X64527Y-26788D01*
X64513Y-26763D01*
X64476Y-26701D01*
X64436Y-26628D01*
X64385Y-26555D01*
X64327Y-26479D01*
X64265Y-26402D01*
X64261Y-26399D01*
X64258Y-26395D01*
X64247Y-26384D01*
X64236Y-26370D01*
X64200Y-26337D01*
X64156Y-26293D01*
X64105Y-26250D01*
X64047Y-26202D01*
X63988Y-26162D01*
X63927Y-26126D01*
Y-25926D01*
X66456D01*
Y-26235D01*
D02*
G37*
G36*
X65488Y-27523D02*
X65525D01*
X65568Y-27527D01*
X65612Y-27531D01*
X65710Y-27542D01*
X65812Y-27556D01*
X65910Y-27578D01*
X65958Y-27593D01*
X66001Y-27607D01*
X66005D01*
X66012Y-27611D01*
X66023Y-27618D01*
X66038Y-27626D01*
X66078Y-27647D01*
X66129Y-27680D01*
X66187Y-27724D01*
X66245Y-27775D01*
X66307Y-27840D01*
X66362Y-27920D01*
Y-27924D01*
X66369Y-27931D01*
X66373Y-27942D01*
X66384Y-27960D01*
X66395Y-27982D01*
X66405Y-28011D01*
X66416Y-28040D01*
X66431Y-28077D01*
X66445Y-28117D01*
X66456Y-28161D01*
X66467Y-28208D01*
X66478Y-28262D01*
X66486Y-28317D01*
X66493Y-28375D01*
X66500Y-28506D01*
Y-28539D01*
X66496Y-28565D01*
Y-28594D01*
X66493Y-28630D01*
X66489Y-28670D01*
X66486Y-28710D01*
X66471Y-28801D01*
X66449Y-28899D01*
X66420Y-28994D01*
X66380Y-29085D01*
Y-29089D01*
X66373Y-29096D01*
X66365Y-29107D01*
X66358Y-29122D01*
X66329Y-29162D01*
X66289Y-29209D01*
X66238Y-29263D01*
X66180Y-29314D01*
X66107Y-29365D01*
X66027Y-29405D01*
X66023D01*
X66016Y-29409D01*
X66001Y-29413D01*
X65983Y-29420D01*
X65961Y-29427D01*
X65932Y-29434D01*
X65899Y-29445D01*
X65859Y-29453D01*
X65816Y-29460D01*
X65768Y-29471D01*
X65717Y-29478D01*
X65663Y-29485D01*
X65601Y-29493D01*
X65535Y-29496D01*
X65466Y-29500D01*
X65394D01*
X63937D01*
Y-29165D01*
X65394D01*
X65397D01*
X65408D01*
X65426D01*
X65448D01*
X65474Y-29162D01*
X65506D01*
X65575Y-29158D01*
X65656Y-29151D01*
X65736Y-29140D01*
X65812Y-29125D01*
X65845Y-29118D01*
X65878Y-29107D01*
X65885Y-29103D01*
X65903Y-29096D01*
X65929Y-29078D01*
X65965Y-29056D01*
X66001Y-29030D01*
X66041Y-28994D01*
X66081Y-28950D01*
X66114Y-28899D01*
X66118Y-28892D01*
X66129Y-28874D01*
X66140Y-28841D01*
X66154Y-28798D01*
X66172Y-28747D01*
X66183Y-28681D01*
X66194Y-28612D01*
X66198Y-28536D01*
Y-28499D01*
X66194Y-28477D01*
Y-28444D01*
X66191Y-28412D01*
X66176Y-28332D01*
X66158Y-28244D01*
X66129Y-28161D01*
X66089Y-28080D01*
X66063Y-28044D01*
X66034Y-28011D01*
X66031Y-28008D01*
X66027Y-28004D01*
X66016Y-27997D01*
X66001Y-27986D01*
X65979Y-27975D01*
X65958Y-27960D01*
X65925Y-27946D01*
X65892Y-27931D01*
X65852Y-27917D01*
X65805Y-27906D01*
X65750Y-27891D01*
X65692Y-27880D01*
X65626Y-27869D01*
X65557Y-27862D01*
X65477Y-27855D01*
X65394D01*
X63937D01*
Y-27520D01*
X65394D01*
X65397D01*
X65412D01*
X65430D01*
X65455D01*
X65488Y-27523D01*
D02*
G37*
G36*
X198075Y-176927D02*
X198104Y-176931D01*
X198137Y-176935D01*
X198177Y-176938D01*
X198217Y-176949D01*
X198308Y-176971D01*
X198399Y-177004D01*
X198447Y-177025D01*
X198494Y-177051D01*
X198538Y-177080D01*
X198581Y-177113D01*
X198585Y-177117D01*
X198592Y-177120D01*
X198599Y-177135D01*
X198614Y-177149D01*
X198632Y-177167D01*
X198650Y-177189D01*
X198672Y-177218D01*
X198690Y-177251D01*
X198712Y-177284D01*
X198734Y-177324D01*
X198774Y-177411D01*
X198807Y-177513D01*
X198818Y-177568D01*
X198825Y-177626D01*
X198501Y-177652D01*
Y-177648D01*
Y-177641D01*
X198497Y-177630D01*
X198494Y-177611D01*
X198483Y-177571D01*
X198468Y-177517D01*
X198447Y-177462D01*
X198417Y-177400D01*
X198381Y-177346D01*
X198337Y-177295D01*
X198330Y-177291D01*
X198316Y-177277D01*
X198286Y-177258D01*
X198246Y-177237D01*
X198203Y-177215D01*
X198148Y-177197D01*
X198086Y-177182D01*
X198017Y-177178D01*
X197995D01*
X197981Y-177182D01*
X197937Y-177186D01*
X197886Y-177200D01*
X197824Y-177218D01*
X197762Y-177248D01*
X197697Y-177291D01*
X197668Y-177317D01*
X197638Y-177346D01*
X197635Y-177349D01*
X197631Y-177353D01*
X197624Y-177364D01*
X197613Y-177375D01*
X197588Y-177415D01*
X197558Y-177466D01*
X197533Y-177528D01*
X197507Y-177604D01*
X197489Y-177695D01*
X197482Y-177743D01*
Y-177794D01*
Y-177797D01*
Y-177804D01*
Y-177819D01*
X197486Y-177837D01*
Y-177859D01*
X197489Y-177884D01*
X197500Y-177943D01*
X197518Y-178012D01*
X197544Y-178081D01*
X197580Y-178147D01*
X197631Y-178208D01*
Y-178212D01*
X197638Y-178216D01*
X197657Y-178234D01*
X197689Y-178259D01*
X197733Y-178289D01*
X197791Y-178314D01*
X197857Y-178340D01*
X197933Y-178358D01*
X197977Y-178365D01*
X198046D01*
X198075Y-178361D01*
X198112Y-178358D01*
X198155Y-178347D01*
X198199Y-178336D01*
X198246Y-178318D01*
X198294Y-178296D01*
X198297Y-178292D01*
X198312Y-178285D01*
X198334Y-178267D01*
X198363Y-178249D01*
X198392Y-178223D01*
X198421Y-178190D01*
X198454Y-178157D01*
X198479Y-178118D01*
X198770Y-178157D01*
X198527Y-179453D01*
X197274D01*
Y-179158D01*
X198283D01*
X198417Y-178478D01*
X198414Y-178481D01*
X198407Y-178485D01*
X198396Y-178492D01*
X198377Y-178503D01*
X198355Y-178514D01*
X198330Y-178529D01*
X198272Y-178558D01*
X198199Y-178587D01*
X198119Y-178612D01*
X198032Y-178631D01*
X197988Y-178638D01*
X197908D01*
X197886Y-178634D01*
X197857Y-178631D01*
X197824Y-178627D01*
X197788Y-178620D01*
X197748Y-178609D01*
X197660Y-178583D01*
X197613Y-178565D01*
X197566Y-178540D01*
X197518Y-178514D01*
X197471Y-178485D01*
X197427Y-178449D01*
X197384Y-178409D01*
X197380Y-178405D01*
X197373Y-178398D01*
X197362Y-178387D01*
X197347Y-178369D01*
X197329Y-178343D01*
X197311Y-178318D01*
X197289Y-178285D01*
X197267Y-178249D01*
X197249Y-178208D01*
X197227Y-178165D01*
X197209Y-178114D01*
X197191Y-178063D01*
X197176Y-178008D01*
X197165Y-177946D01*
X197158Y-177884D01*
X197154Y-177819D01*
Y-177815D01*
Y-177804D01*
Y-177786D01*
X197158Y-177761D01*
X197162Y-177732D01*
X197165Y-177699D01*
X197172Y-177659D01*
X197180Y-177619D01*
X197202Y-177524D01*
X197238Y-177426D01*
X197260Y-177375D01*
X197289Y-177328D01*
X197318Y-177277D01*
X197354Y-177229D01*
X197358Y-177226D01*
X197365Y-177215D01*
X197380Y-177200D01*
X197398Y-177182D01*
X197424Y-177160D01*
X197453Y-177131D01*
X197489Y-177106D01*
X197529Y-177076D01*
X197573Y-177047D01*
X197624Y-177022D01*
X197678Y-176996D01*
X197737Y-176971D01*
X197799Y-176953D01*
X197868Y-176938D01*
X197941Y-176927D01*
X198017Y-176924D01*
X198050D01*
X198075Y-176927D01*
D02*
G37*
G36*
X199207Y-176774D02*
X199222Y-176782D01*
X199244Y-176789D01*
X199269Y-176800D01*
X199298Y-176814D01*
X199331Y-176829D01*
X199367Y-176847D01*
X199448Y-176891D01*
X199539Y-176942D01*
X199637Y-177007D01*
X199739Y-177080D01*
X199742D01*
X199750Y-177073D01*
X199768Y-177066D01*
X199786Y-177055D01*
X199815Y-177044D01*
X199844Y-177029D01*
X199881Y-177018D01*
X199921Y-177004D01*
X199964Y-176989D01*
X200012Y-176974D01*
X200117Y-176949D01*
X200234Y-176931D01*
X200296Y-176927D01*
X200358Y-176924D01*
X200390D01*
X200416Y-176927D01*
X200445D01*
X200481Y-176931D01*
X200521Y-176938D01*
X200565Y-176945D01*
X200660Y-176964D01*
X200765Y-176993D01*
X200874Y-177033D01*
X200925Y-177058D01*
X200980Y-177087D01*
X200984Y-177091D01*
X200991Y-177095D01*
X201005Y-177106D01*
X201024Y-177117D01*
X201049Y-177135D01*
X201075Y-177156D01*
X201136Y-177208D01*
X201206Y-177273D01*
X201275Y-177353D01*
X201344Y-177444D01*
X201406Y-177550D01*
Y-177553D01*
X201413Y-177564D01*
X201420Y-177579D01*
X201428Y-177601D01*
X201439Y-177630D01*
X201453Y-177663D01*
X201468Y-177702D01*
X201479Y-177746D01*
X201493Y-177794D01*
X201508Y-177845D01*
X201519Y-177899D01*
X201533Y-177961D01*
X201548Y-178088D01*
X201555Y-178223D01*
Y-178227D01*
Y-178241D01*
Y-178259D01*
X201551Y-178285D01*
Y-178318D01*
X201548Y-178358D01*
X201544Y-178401D01*
X201537Y-178449D01*
X201519Y-178554D01*
X201493Y-178667D01*
X201457Y-178787D01*
X201406Y-178904D01*
X201402Y-178907D01*
X201399Y-178918D01*
X201391Y-178933D01*
X201377Y-178955D01*
X201362Y-178980D01*
X201344Y-179009D01*
X201293Y-179078D01*
X201235Y-179151D01*
X201158Y-179228D01*
X201075Y-179304D01*
X200976Y-179370D01*
X200973Y-179373D01*
X200962Y-179377D01*
X200947Y-179384D01*
X200925Y-179395D01*
X200900Y-179406D01*
X200871Y-179421D01*
X200834Y-179435D01*
X200794Y-179450D01*
X200747Y-179464D01*
X200700Y-179479D01*
X200594Y-179504D01*
X200478Y-179523D01*
X200416Y-179530D01*
X200318D01*
X200292Y-179526D01*
X200259D01*
X200226Y-179523D01*
X200183Y-179515D01*
X200139Y-179508D01*
X200044Y-179490D01*
X199935Y-179461D01*
X199830Y-179417D01*
X199775Y-179392D01*
X199721Y-179362D01*
X199717Y-179359D01*
X199710Y-179355D01*
X199695Y-179344D01*
X199673Y-179333D01*
X199651Y-179315D01*
X199622Y-179293D01*
X199560Y-179242D01*
X199495Y-179177D01*
X199422Y-179097D01*
X199353Y-179002D01*
X199295Y-178896D01*
Y-178893D01*
X199287Y-178882D01*
X199280Y-178867D01*
X199273Y-178846D01*
X199258Y-178816D01*
X199247Y-178784D01*
X199233Y-178744D01*
X199218Y-178700D01*
X199207Y-178653D01*
X199193Y-178602D01*
X199178Y-178547D01*
X199167Y-178489D01*
X199153Y-178361D01*
X199145Y-178227D01*
Y-178223D01*
Y-178212D01*
Y-178198D01*
Y-178176D01*
X199149Y-178147D01*
Y-178114D01*
X199153Y-178077D01*
X199156Y-178041D01*
X199167Y-177954D01*
X199185Y-177859D01*
X199207Y-177761D01*
X199240Y-177666D01*
Y-177663D01*
X199244Y-177655D01*
X199251Y-177641D01*
X199258Y-177626D01*
X199269Y-177604D01*
X199280Y-177579D01*
X199309Y-177521D01*
X199349Y-177451D01*
X199400Y-177379D01*
X199458Y-177306D01*
X199524Y-177233D01*
X199520D01*
X199513Y-177226D01*
X199502Y-177218D01*
X199484Y-177208D01*
X199466Y-177193D01*
X199440Y-177178D01*
X199386Y-177146D01*
X199320Y-177106D01*
X199247Y-177066D01*
X199171Y-177033D01*
X199098Y-177000D01*
X199196Y-176771D01*
X199200D01*
X199207Y-176774D01*
D02*
G37*
G36*
X33328Y-79487D02*
X33372D01*
X33419Y-79490D01*
X33470Y-79494D01*
X33586Y-79505D01*
X33707Y-79523D01*
X33823Y-79545D01*
X33878Y-79560D01*
X33932Y-79578D01*
X33936D01*
X33943Y-79581D01*
X33958Y-79589D01*
X33976Y-79596D01*
X34001Y-79603D01*
X34027Y-79618D01*
X34089Y-79647D01*
X34154Y-79683D01*
X34227Y-79731D01*
X34293Y-79785D01*
X34354Y-79851D01*
Y-79854D01*
X34362Y-79858D01*
X34369Y-79869D01*
X34376Y-79883D01*
X34387Y-79902D01*
X34402Y-79920D01*
X34427Y-79975D01*
X34453Y-80040D01*
X34478Y-80116D01*
X34493Y-80208D01*
X34500Y-80306D01*
Y-80342D01*
X34496Y-80368D01*
X34493Y-80397D01*
X34486Y-80433D01*
X34478Y-80473D01*
X34467Y-80517D01*
X34453Y-80561D01*
X34438Y-80608D01*
X34416Y-80655D01*
X34391Y-80703D01*
X34362Y-80750D01*
X34325Y-80797D01*
X34285Y-80841D01*
X34242Y-80881D01*
X34238Y-80884D01*
X34227Y-80892D01*
X34209Y-80903D01*
X34180Y-80921D01*
X34147Y-80939D01*
X34103Y-80957D01*
X34052Y-80983D01*
X33994Y-81005D01*
X33929Y-81027D01*
X33852Y-81048D01*
X33768Y-81070D01*
X33674Y-81088D01*
X33572Y-81107D01*
X33463Y-81117D01*
X33342Y-81125D01*
X33215Y-81128D01*
X33211D01*
X33197D01*
X33171D01*
X33142D01*
X33102Y-81125D01*
X33059D01*
X33011Y-81121D01*
X32957Y-81117D01*
X32844Y-81107D01*
X32724Y-81088D01*
X32604Y-81067D01*
X32549Y-81052D01*
X32494Y-81037D01*
X32491D01*
X32484Y-81034D01*
X32469Y-81027D01*
X32451Y-81019D01*
X32425Y-81012D01*
X32400Y-80997D01*
X32338Y-80968D01*
X32272Y-80932D01*
X32203Y-80884D01*
X32134Y-80830D01*
X32076Y-80764D01*
Y-80761D01*
X32068Y-80757D01*
X32061Y-80746D01*
X32054Y-80732D01*
X32039Y-80713D01*
X32028Y-80692D01*
X31999Y-80637D01*
X31974Y-80572D01*
X31948Y-80495D01*
X31934Y-80404D01*
X31927Y-80306D01*
Y-80273D01*
X31930Y-80233D01*
X31938Y-80186D01*
X31948Y-80131D01*
X31963Y-80073D01*
X31981Y-80011D01*
X32010Y-79953D01*
Y-79949D01*
X32014Y-79945D01*
X32025Y-79927D01*
X32043Y-79898D01*
X32068Y-79862D01*
X32105Y-79822D01*
X32145Y-79778D01*
X32192Y-79738D01*
X32247Y-79698D01*
X32254Y-79694D01*
X32272Y-79680D01*
X32305Y-79665D01*
X32352Y-79640D01*
X32407Y-79618D01*
X32469Y-79589D01*
X32542Y-79563D01*
X32622Y-79541D01*
X32625D01*
X32633Y-79538D01*
X32644Y-79534D01*
X32662Y-79531D01*
X32684Y-79527D01*
X32709Y-79523D01*
X32742Y-79516D01*
X32778Y-79512D01*
X32818Y-79505D01*
X32862Y-79501D01*
X32913Y-79498D01*
X32964Y-79490D01*
X33022Y-79487D01*
X33080D01*
X33146Y-79483D01*
X33215D01*
X33219D01*
X33233D01*
X33259D01*
X33288D01*
X33328Y-79487D01*
D02*
G37*
G36*
X34456Y-82231D02*
X32487D01*
X32491Y-82235D01*
X32505Y-82253D01*
X32527Y-82275D01*
X32553Y-82311D01*
X32585Y-82351D01*
X32622Y-82402D01*
X32662Y-82461D01*
X32702Y-82526D01*
Y-82530D01*
X32706Y-82534D01*
X32720Y-82555D01*
X32738Y-82592D01*
X32760Y-82635D01*
X32786Y-82686D01*
X32811Y-82741D01*
X32837Y-82796D01*
X32858Y-82850D01*
X32560D01*
Y-82846D01*
X32553Y-82839D01*
X32549Y-82825D01*
X32538Y-82806D01*
X32527Y-82785D01*
X32513Y-82759D01*
X32476Y-82697D01*
X32436Y-82625D01*
X32385Y-82552D01*
X32327Y-82475D01*
X32265Y-82399D01*
X32261Y-82395D01*
X32258Y-82392D01*
X32247Y-82381D01*
X32236Y-82366D01*
X32200Y-82333D01*
X32156Y-82290D01*
X32105Y-82246D01*
X32047Y-82199D01*
X31988Y-82158D01*
X31927Y-82122D01*
Y-81922D01*
X34456D01*
Y-82231D01*
D02*
G37*
G36*
X33259Y-83422D02*
X33288D01*
X33357Y-83425D01*
X33437Y-83436D01*
X33521Y-83447D01*
X33608Y-83465D01*
X33696Y-83487D01*
X33699D01*
X33707Y-83491D01*
X33717Y-83494D01*
X33732Y-83498D01*
X33772Y-83513D01*
X33823Y-83534D01*
X33881Y-83556D01*
X33939Y-83585D01*
X34001Y-83622D01*
X34060Y-83658D01*
X34067Y-83662D01*
X34085Y-83676D01*
X34111Y-83698D01*
X34143Y-83727D01*
X34180Y-83760D01*
X34216Y-83800D01*
X34256Y-83840D01*
X34289Y-83887D01*
X34293Y-83895D01*
X34304Y-83909D01*
X34318Y-83935D01*
X34336Y-83971D01*
X34358Y-84015D01*
X34376Y-84066D01*
X34398Y-84124D01*
X34416Y-84190D01*
Y-84197D01*
X34420Y-84208D01*
X34424Y-84219D01*
X34427Y-84255D01*
X34435Y-84306D01*
X34442Y-84364D01*
X34449Y-84434D01*
X34453Y-84510D01*
X34456Y-84594D01*
Y-85500D01*
X31938D01*
Y-84532D01*
X31941Y-84466D01*
X31945Y-84394D01*
X31952Y-84321D01*
X31963Y-84248D01*
X31974Y-84186D01*
Y-84182D01*
X31977Y-84175D01*
Y-84164D01*
X31985Y-84150D01*
X31996Y-84110D01*
X32014Y-84059D01*
X32039Y-84000D01*
X32072Y-83938D01*
X32109Y-83877D01*
X32156Y-83818D01*
X32160Y-83815D01*
X32163Y-83811D01*
X32174Y-83800D01*
X32185Y-83786D01*
X32221Y-83749D01*
X32272Y-83706D01*
X32334Y-83658D01*
X32407Y-83607D01*
X32491Y-83560D01*
X32585Y-83520D01*
X32589D01*
X32596Y-83516D01*
X32611Y-83509D01*
X32633Y-83505D01*
X32658Y-83494D01*
X32687Y-83487D01*
X32720Y-83480D01*
X32760Y-83469D01*
X32800Y-83458D01*
X32847Y-83451D01*
X32949Y-83433D01*
X33062Y-83422D01*
X33186Y-83418D01*
X33190D01*
X33197D01*
X33215D01*
X33233D01*
X33259Y-83422D01*
D02*
G37*
%LPC*%
G36*
X135415Y-24667D02*
X135396D01*
X135382Y-24670D01*
X135345Y-24674D01*
X135298Y-24685D01*
X135247Y-24707D01*
X135189Y-24732D01*
X135131Y-24772D01*
X135102Y-24794D01*
X135076Y-24823D01*
Y-24827D01*
X135069Y-24830D01*
X135054Y-24852D01*
X135032Y-24889D01*
X135003Y-24936D01*
X134978Y-24998D01*
X134956Y-25071D01*
X134941Y-25154D01*
X134934Y-25253D01*
Y-25256D01*
Y-25264D01*
Y-25278D01*
X134938Y-25296D01*
Y-25318D01*
X134941Y-25344D01*
X134952Y-25402D01*
X134967Y-25467D01*
X134992Y-25537D01*
X135029Y-25602D01*
X135076Y-25664D01*
X135083Y-25671D01*
X135102Y-25689D01*
X135131Y-25711D01*
X135171Y-25740D01*
X135222Y-25769D01*
X135280Y-25791D01*
X135349Y-25809D01*
X135425Y-25817D01*
X135447D01*
X135462Y-25813D01*
X135498Y-25809D01*
X135549Y-25799D01*
X135604Y-25780D01*
X135666Y-25751D01*
X135724Y-25715D01*
X135782Y-25664D01*
X135790Y-25657D01*
X135804Y-25638D01*
X135830Y-25606D01*
X135855Y-25558D01*
X135880Y-25504D01*
X135906Y-25435D01*
X135921Y-25358D01*
X135928Y-25271D01*
Y-25264D01*
Y-25245D01*
X135924Y-25213D01*
X135921Y-25172D01*
X135913Y-25125D01*
X135899Y-25074D01*
X135884Y-25020D01*
X135862Y-24965D01*
X135859Y-24958D01*
X135848Y-24940D01*
X135833Y-24914D01*
X135811Y-24881D01*
X135786Y-24849D01*
X135753Y-24809D01*
X135717Y-24776D01*
X135673Y-24743D01*
X135666Y-24739D01*
X135651Y-24732D01*
X135626Y-24717D01*
X135593Y-24707D01*
X135557Y-24692D01*
X135513Y-24678D01*
X135466Y-24670D01*
X135415Y-24667D01*
D02*
G37*
G36*
X137795Y-24696D02*
X137762D01*
X137730Y-24699D01*
X137686Y-24703D01*
X137631Y-24710D01*
X137577Y-24725D01*
X137515Y-24739D01*
X137457Y-24761D01*
X137464Y-24765D01*
X137482Y-24779D01*
X137515Y-24798D01*
X137555Y-24820D01*
X137606Y-24841D01*
X137661Y-24867D01*
X137722Y-24889D01*
X137788Y-24907D01*
X137704Y-25147D01*
X137700D01*
X137690Y-25143D01*
X137675Y-25140D01*
X137657Y-25133D01*
X137631Y-25125D01*
X137602Y-25114D01*
X137537Y-25089D01*
X137460Y-25052D01*
X137380Y-25012D01*
X137304Y-24965D01*
X137227Y-24907D01*
X137224Y-24911D01*
X137213Y-24918D01*
X137198Y-24936D01*
X137180Y-24958D01*
X137158Y-24987D01*
X137133Y-25020D01*
X137107Y-25060D01*
X137078Y-25107D01*
X137053Y-25162D01*
X137027Y-25223D01*
X137002Y-25289D01*
X136980Y-25358D01*
X136958Y-25438D01*
X136943Y-25522D01*
X136936Y-25613D01*
X136933Y-25711D01*
Y-25715D01*
Y-25726D01*
Y-25740D01*
Y-25762D01*
X136936Y-25791D01*
Y-25820D01*
X136940Y-25857D01*
X136947Y-25893D01*
X136958Y-25977D01*
X136976Y-26068D01*
X137002Y-26159D01*
X137038Y-26246D01*
Y-26250D01*
X137042Y-26257D01*
X137049Y-26268D01*
X137056Y-26283D01*
X137082Y-26326D01*
X137115Y-26377D01*
X137158Y-26436D01*
X137213Y-26494D01*
X137275Y-26552D01*
X137344Y-26603D01*
X137347D01*
X137351Y-26610D01*
X137362Y-26614D01*
X137380Y-26625D01*
X137398Y-26632D01*
X137420Y-26643D01*
X137475Y-26669D01*
X137540Y-26690D01*
X137617Y-26712D01*
X137704Y-26727D01*
X137795Y-26730D01*
X137832D01*
X137857Y-26727D01*
X137890Y-26723D01*
X137926Y-26716D01*
X137966Y-26709D01*
X138010Y-26698D01*
X138061Y-26683D01*
X138108Y-26669D01*
X138159Y-26647D01*
X138214Y-26621D01*
X138265Y-26592D01*
X138316Y-26556D01*
X138367Y-26519D01*
X138414Y-26472D01*
X138418Y-26468D01*
X138425Y-26461D01*
X138436Y-26447D01*
X138450Y-26425D01*
X138472Y-26399D01*
X138490Y-26366D01*
X138512Y-26326D01*
X138534Y-26283D01*
X138560Y-26232D01*
X138581Y-26173D01*
X138600Y-26112D01*
X138618Y-26043D01*
X138636Y-25970D01*
X138647Y-25890D01*
X138654Y-25802D01*
X138658Y-25711D01*
Y-25704D01*
Y-25689D01*
Y-25664D01*
X138654Y-25631D01*
X138651Y-25591D01*
X138643Y-25544D01*
X138636Y-25489D01*
X138629Y-25435D01*
X138600Y-25311D01*
X138581Y-25249D01*
X138556Y-25187D01*
X138530Y-25125D01*
X138498Y-25067D01*
X138461Y-25009D01*
X138418Y-24958D01*
X138414Y-24954D01*
X138407Y-24947D01*
X138392Y-24932D01*
X138374Y-24918D01*
X138348Y-24896D01*
X138319Y-24874D01*
X138287Y-24852D01*
X138247Y-24827D01*
X138207Y-24801D01*
X138159Y-24779D01*
X138108Y-24758D01*
X138054Y-24736D01*
X137992Y-24721D01*
X137930Y-24707D01*
X137864Y-24699D01*
X137795Y-24696D01*
D02*
G37*
G36*
X138586Y-148927D02*
X138579D01*
X138565D01*
X138539D01*
X138506Y-148930D01*
X138466Y-148934D01*
X138419Y-148941D01*
X138364Y-148949D01*
X138310Y-148956D01*
X138186Y-148985D01*
X138124Y-149003D01*
X138062Y-149029D01*
X138000Y-149054D01*
X137942Y-149087D01*
X137884Y-149123D01*
X137833Y-149167D01*
X137829Y-149171D01*
X137822Y-149178D01*
X137808Y-149193D01*
X137793Y-149211D01*
X137771Y-149236D01*
X137749Y-149265D01*
X137727Y-149298D01*
X137702Y-149338D01*
X137677Y-149378D01*
X137655Y-149425D01*
X137633Y-149476D01*
X137611Y-149531D01*
X137596Y-149593D01*
X137582Y-149655D01*
X137575Y-149720D01*
X137571Y-149790D01*
Y-149822D01*
X137575Y-149855D01*
X137578Y-149899D01*
X137585Y-149953D01*
X137600Y-150008D01*
X137615Y-150070D01*
X137636Y-150128D01*
X137640Y-150121D01*
X137655Y-150102D01*
X137673Y-150070D01*
X137695Y-150030D01*
X137716Y-149979D01*
X137742Y-149924D01*
X137764Y-149862D01*
X137782Y-149797D01*
X138022Y-149881D01*
Y-149884D01*
X138019Y-149895D01*
X138015Y-149910D01*
X138008Y-149928D01*
X138000Y-149953D01*
X137989Y-149982D01*
X137964Y-150048D01*
X137928Y-150124D01*
X137888Y-150204D01*
X137840Y-150281D01*
X137782Y-150357D01*
X137786Y-150361D01*
X137793Y-150372D01*
X137811Y-150386D01*
X137833Y-150405D01*
X137862Y-150426D01*
X137895Y-150452D01*
X137935Y-150477D01*
X137982Y-150506D01*
X138037Y-150532D01*
X138099Y-150557D01*
X138164Y-150583D01*
X138233Y-150605D01*
X138313Y-150627D01*
X138397Y-150641D01*
X138488Y-150648D01*
X138586Y-150652D01*
X138590D01*
X138601D01*
X138616D01*
X138637D01*
X138666Y-150648D01*
X138696D01*
X138732Y-150645D01*
X138768Y-150638D01*
X138852Y-150627D01*
X138943Y-150609D01*
X139034Y-150583D01*
X139121Y-150547D01*
X139125D01*
X139132Y-150543D01*
X139143Y-150536D01*
X139158Y-150528D01*
X139202Y-150503D01*
X139253Y-150470D01*
X139311Y-150426D01*
X139369Y-150372D01*
X139427Y-150310D01*
X139478Y-150241D01*
Y-150237D01*
X139486Y-150233D01*
X139489Y-150223D01*
X139500Y-150204D01*
X139507Y-150186D01*
X139518Y-150164D01*
X139544Y-150110D01*
X139566Y-150044D01*
X139587Y-149968D01*
X139602Y-149881D01*
X139606Y-149790D01*
Y-149753D01*
X139602Y-149728D01*
X139598Y-149695D01*
X139591Y-149658D01*
X139584Y-149618D01*
X139573Y-149575D01*
X139558Y-149524D01*
X139544Y-149476D01*
X139522Y-149425D01*
X139497Y-149371D01*
X139467Y-149320D01*
X139431Y-149269D01*
X139394Y-149218D01*
X139347Y-149171D01*
X139344Y-149167D01*
X139336Y-149160D01*
X139322Y-149149D01*
X139300Y-149134D01*
X139274Y-149112D01*
X139242Y-149094D01*
X139202Y-149072D01*
X139158Y-149050D01*
X139107Y-149025D01*
X139049Y-149003D01*
X138987Y-148985D01*
X138918Y-148967D01*
X138845Y-148949D01*
X138765Y-148938D01*
X138678Y-148930D01*
X138586Y-148927D01*
D02*
G37*
G36*
X23948Y-131255D02*
X23926D01*
X23911Y-131258D01*
X23875Y-131266D01*
X23824Y-131280D01*
X23769Y-131306D01*
X23707Y-131342D01*
X23678Y-131364D01*
X23649Y-131393D01*
X23620Y-131422D01*
X23591Y-131459D01*
Y-131462D01*
X23584Y-131470D01*
X23576Y-131480D01*
X23569Y-131499D01*
X23554Y-131524D01*
X23544Y-131557D01*
X23529Y-131593D01*
X23515Y-131637D01*
X23504Y-131692D01*
X23489Y-131750D01*
X23474Y-131819D01*
X23463Y-131892D01*
X23456Y-131979D01*
X23449Y-132070D01*
X23442Y-132172D01*
Y-132285D01*
Y-132289D01*
Y-132292D01*
Y-132310D01*
Y-132343D01*
X23445Y-132387D01*
Y-132434D01*
X23449Y-132492D01*
X23453Y-132554D01*
X23460Y-132623D01*
X23478Y-132762D01*
X23489Y-132831D01*
X23504Y-132896D01*
X23518Y-132958D01*
X23540Y-133017D01*
X23562Y-133068D01*
X23587Y-133111D01*
Y-133115D01*
X23595Y-133118D01*
X23602Y-133129D01*
X23613Y-133144D01*
X23645Y-133177D01*
X23686Y-133217D01*
X23740Y-133253D01*
X23802Y-133286D01*
X23835Y-133300D01*
X23871Y-133311D01*
X23911Y-133315D01*
X23951Y-133319D01*
X23973D01*
X23988Y-133315D01*
X24028Y-133308D01*
X24075Y-133297D01*
X24130Y-133275D01*
X24188Y-133242D01*
X24217Y-133220D01*
X24246Y-133198D01*
X24272Y-133169D01*
X24297Y-133137D01*
Y-133133D01*
X24304Y-133126D01*
X24312Y-133111D01*
X24323Y-133093D01*
X24333Y-133064D01*
X24348Y-133031D01*
X24359Y-132991D01*
X24374Y-132944D01*
X24388Y-132889D01*
X24403Y-132827D01*
X24417Y-132758D01*
X24428Y-132682D01*
X24439Y-132594D01*
X24446Y-132500D01*
X24450Y-132398D01*
X24454Y-132285D01*
Y-132278D01*
Y-132259D01*
Y-132227D01*
X24450Y-132183D01*
Y-132136D01*
X24446Y-132077D01*
X24443Y-132016D01*
X24435Y-131950D01*
X24417Y-131808D01*
X24406Y-131739D01*
X24392Y-131673D01*
X24377Y-131612D01*
X24355Y-131553D01*
X24333Y-131502D01*
X24308Y-131459D01*
Y-131455D01*
X24301Y-131451D01*
X24283Y-131426D01*
X24250Y-131393D01*
X24210Y-131357D01*
X24155Y-131320D01*
X24093Y-131288D01*
X24024Y-131262D01*
X23988Y-131258D01*
X23948Y-131255D01*
D02*
G37*
G36*
X24207Y-139755D02*
X24186D01*
X24171Y-139758D01*
X24135Y-139766D01*
X24084Y-139780D01*
X24029Y-139806D01*
X23967Y-139842D01*
X23938Y-139864D01*
X23909Y-139893D01*
X23880Y-139922D01*
X23851Y-139959D01*
Y-139962D01*
X23844Y-139970D01*
X23836Y-139980D01*
X23829Y-139999D01*
X23814Y-140024D01*
X23803Y-140057D01*
X23789Y-140093D01*
X23774Y-140137D01*
X23763Y-140192D01*
X23749Y-140250D01*
X23734Y-140319D01*
X23723Y-140392D01*
X23716Y-140479D01*
X23709Y-140570D01*
X23701Y-140672D01*
Y-140785D01*
Y-140788D01*
Y-140792D01*
Y-140810D01*
Y-140843D01*
X23705Y-140887D01*
Y-140934D01*
X23709Y-140992D01*
X23712Y-141054D01*
X23720Y-141123D01*
X23738Y-141262D01*
X23749Y-141331D01*
X23763Y-141396D01*
X23778Y-141458D01*
X23800Y-141516D01*
X23822Y-141568D01*
X23847Y-141611D01*
Y-141615D01*
X23854Y-141618D01*
X23862Y-141629D01*
X23873Y-141644D01*
X23905Y-141677D01*
X23945Y-141717D01*
X24000Y-141753D01*
X24062Y-141786D01*
X24095Y-141800D01*
X24131Y-141811D01*
X24171Y-141815D01*
X24211Y-141819D01*
X24233D01*
X24248Y-141815D01*
X24287Y-141808D01*
X24335Y-141797D01*
X24389Y-141775D01*
X24448Y-141742D01*
X24477Y-141720D01*
X24506Y-141699D01*
X24531Y-141669D01*
X24557Y-141637D01*
Y-141633D01*
X24564Y-141626D01*
X24572Y-141611D01*
X24582Y-141593D01*
X24593Y-141564D01*
X24608Y-141531D01*
X24619Y-141491D01*
X24633Y-141444D01*
X24648Y-141389D01*
X24663Y-141327D01*
X24677Y-141258D01*
X24688Y-141182D01*
X24699Y-141094D01*
X24706Y-141000D01*
X24710Y-140898D01*
X24713Y-140785D01*
Y-140778D01*
Y-140759D01*
Y-140727D01*
X24710Y-140683D01*
Y-140636D01*
X24706Y-140577D01*
X24702Y-140515D01*
X24695Y-140450D01*
X24677Y-140308D01*
X24666Y-140239D01*
X24652Y-140173D01*
X24637Y-140111D01*
X24615Y-140053D01*
X24593Y-140002D01*
X24568Y-139959D01*
Y-139955D01*
X24561Y-139951D01*
X24542Y-139926D01*
X24510Y-139893D01*
X24470Y-139857D01*
X24415Y-139820D01*
X24353Y-139787D01*
X24284Y-139762D01*
X24248Y-139758D01*
X24207Y-139755D01*
D02*
G37*
G36*
X65328Y-23803D02*
X65215D01*
X65211D01*
X65208D01*
X65190D01*
X65157D01*
X65113Y-23807D01*
X65066D01*
X65008Y-23811D01*
X64946Y-23814D01*
X64877Y-23822D01*
X64738Y-23840D01*
X64669Y-23851D01*
X64604Y-23865D01*
X64542Y-23880D01*
X64483Y-23902D01*
X64433Y-23924D01*
X64389Y-23949D01*
X64385D01*
X64382Y-23956D01*
X64371Y-23964D01*
X64356Y-23975D01*
X64323Y-24007D01*
X64283Y-24047D01*
X64247Y-24102D01*
X64214Y-24164D01*
X64200Y-24197D01*
X64189Y-24233D01*
X64185Y-24273D01*
X64181Y-24313D01*
Y-24335D01*
X64185Y-24350D01*
X64192Y-24389D01*
X64203Y-24437D01*
X64225Y-24491D01*
X64258Y-24550D01*
X64280Y-24579D01*
X64302Y-24608D01*
X64331Y-24633D01*
X64363Y-24659D01*
X64367D01*
X64374Y-24666D01*
X64389Y-24673D01*
X64407Y-24684D01*
X64436Y-24695D01*
X64469Y-24710D01*
X64509Y-24721D01*
X64556Y-24735D01*
X64611Y-24750D01*
X64673Y-24764D01*
X64742Y-24779D01*
X64818Y-24790D01*
X64906Y-24801D01*
X65000Y-24808D01*
X65102Y-24812D01*
X65215Y-24815D01*
X65222D01*
X65241D01*
X65273D01*
X65317Y-24812D01*
X65364D01*
X65423Y-24808D01*
X65484Y-24804D01*
X65550Y-24797D01*
X65692Y-24779D01*
X65761Y-24768D01*
X65827Y-24754D01*
X65889Y-24739D01*
X65947Y-24717D01*
X65998Y-24695D01*
X66041Y-24670D01*
X66045D01*
X66049Y-24663D01*
X66074Y-24644D01*
X66107Y-24611D01*
X66143Y-24572D01*
X66180Y-24517D01*
X66212Y-24455D01*
X66238Y-24386D01*
X66242Y-24350D01*
X66245Y-24309D01*
Y-24288D01*
X66242Y-24273D01*
X66234Y-24237D01*
X66220Y-24186D01*
X66194Y-24131D01*
X66158Y-24069D01*
X66136Y-24040D01*
X66107Y-24011D01*
X66078Y-23982D01*
X66041Y-23953D01*
X66038D01*
X66031Y-23945D01*
X66020Y-23938D01*
X66001Y-23931D01*
X65976Y-23916D01*
X65943Y-23905D01*
X65907Y-23891D01*
X65863Y-23876D01*
X65808Y-23865D01*
X65750Y-23851D01*
X65681Y-23836D01*
X65608Y-23825D01*
X65521Y-23818D01*
X65430Y-23811D01*
X65328Y-23803D01*
D02*
G37*
G36*
X200350Y-177208D02*
X200318D01*
X200285Y-177211D01*
X200241Y-177215D01*
X200186Y-177222D01*
X200132Y-177237D01*
X200070Y-177251D01*
X200012Y-177273D01*
X200019Y-177277D01*
X200037Y-177291D01*
X200070Y-177309D01*
X200110Y-177331D01*
X200161Y-177353D01*
X200216Y-177379D01*
X200277Y-177400D01*
X200343Y-177419D01*
X200259Y-177659D01*
X200256D01*
X200245Y-177655D01*
X200230Y-177652D01*
X200212Y-177644D01*
X200186Y-177637D01*
X200157Y-177626D01*
X200092Y-177601D01*
X200015Y-177564D01*
X199935Y-177524D01*
X199859Y-177477D01*
X199782Y-177419D01*
X199779Y-177422D01*
X199768Y-177429D01*
X199753Y-177448D01*
X199735Y-177470D01*
X199713Y-177499D01*
X199688Y-177531D01*
X199662Y-177571D01*
X199633Y-177619D01*
X199608Y-177673D01*
X199582Y-177735D01*
X199557Y-177801D01*
X199535Y-177870D01*
X199513Y-177950D01*
X199498Y-178034D01*
X199491Y-178125D01*
X199488Y-178223D01*
Y-178227D01*
Y-178238D01*
Y-178252D01*
Y-178274D01*
X199491Y-178303D01*
Y-178332D01*
X199495Y-178369D01*
X199502Y-178405D01*
X199513Y-178489D01*
X199531Y-178580D01*
X199557Y-178671D01*
X199593Y-178758D01*
Y-178762D01*
X199597Y-178769D01*
X199604Y-178780D01*
X199611Y-178795D01*
X199637Y-178838D01*
X199670Y-178889D01*
X199713Y-178947D01*
X199768Y-179006D01*
X199830Y-179064D01*
X199899Y-179115D01*
X199902D01*
X199906Y-179122D01*
X199917Y-179126D01*
X199935Y-179137D01*
X199953Y-179144D01*
X199975Y-179155D01*
X200030Y-179180D01*
X200096Y-179202D01*
X200172Y-179224D01*
X200259Y-179239D01*
X200350Y-179242D01*
X200387D01*
X200412Y-179239D01*
X200445Y-179235D01*
X200481Y-179228D01*
X200521Y-179220D01*
X200565Y-179209D01*
X200616Y-179195D01*
X200663Y-179180D01*
X200714Y-179158D01*
X200769Y-179133D01*
X200820Y-179104D01*
X200871Y-179068D01*
X200922Y-179031D01*
X200969Y-178984D01*
X200973Y-178980D01*
X200980Y-178973D01*
X200991Y-178958D01*
X201005Y-178937D01*
X201027Y-178911D01*
X201045Y-178878D01*
X201067Y-178838D01*
X201089Y-178795D01*
X201115Y-178744D01*
X201136Y-178685D01*
X201155Y-178623D01*
X201173Y-178554D01*
X201191Y-178481D01*
X201202Y-178401D01*
X201209Y-178314D01*
X201213Y-178223D01*
Y-178216D01*
Y-178201D01*
Y-178176D01*
X201209Y-178143D01*
X201206Y-178103D01*
X201198Y-178056D01*
X201191Y-178001D01*
X201184Y-177946D01*
X201155Y-177823D01*
X201136Y-177761D01*
X201111Y-177699D01*
X201085Y-177637D01*
X201053Y-177579D01*
X201016Y-177521D01*
X200973Y-177470D01*
X200969Y-177466D01*
X200962Y-177459D01*
X200947Y-177444D01*
X200929Y-177429D01*
X200904Y-177408D01*
X200874Y-177386D01*
X200842Y-177364D01*
X200802Y-177339D01*
X200762Y-177313D01*
X200714Y-177291D01*
X200663Y-177269D01*
X200609Y-177248D01*
X200547Y-177233D01*
X200485Y-177218D01*
X200419Y-177211D01*
X200350Y-177208D01*
D02*
G37*
G36*
X33328Y-79800D02*
X33215D01*
X33211D01*
X33208D01*
X33190D01*
X33157D01*
X33113Y-79804D01*
X33066D01*
X33008Y-79807D01*
X32946Y-79811D01*
X32877Y-79818D01*
X32738Y-79836D01*
X32669Y-79847D01*
X32604Y-79862D01*
X32542Y-79876D01*
X32484Y-79898D01*
X32432Y-79920D01*
X32389Y-79945D01*
X32385D01*
X32382Y-79953D01*
X32371Y-79960D01*
X32356Y-79971D01*
X32323Y-80004D01*
X32283Y-80044D01*
X32247Y-80098D01*
X32214Y-80160D01*
X32200Y-80193D01*
X32189Y-80229D01*
X32185Y-80269D01*
X32181Y-80309D01*
Y-80331D01*
X32185Y-80346D01*
X32192Y-80386D01*
X32203Y-80433D01*
X32225Y-80488D01*
X32258Y-80546D01*
X32280Y-80575D01*
X32302Y-80604D01*
X32331Y-80630D01*
X32363Y-80655D01*
X32367D01*
X32374Y-80663D01*
X32389Y-80670D01*
X32407Y-80681D01*
X32436Y-80692D01*
X32469Y-80706D01*
X32509Y-80717D01*
X32556Y-80732D01*
X32611Y-80746D01*
X32673Y-80761D01*
X32742Y-80775D01*
X32818Y-80786D01*
X32906Y-80797D01*
X33000Y-80805D01*
X33102Y-80808D01*
X33215Y-80812D01*
X33222D01*
X33241D01*
X33273D01*
X33317Y-80808D01*
X33364D01*
X33423Y-80805D01*
X33485Y-80801D01*
X33550Y-80793D01*
X33692Y-80775D01*
X33761Y-80764D01*
X33827Y-80750D01*
X33889Y-80735D01*
X33947Y-80713D01*
X33998Y-80692D01*
X34041Y-80666D01*
X34045D01*
X34049Y-80659D01*
X34074Y-80641D01*
X34107Y-80608D01*
X34143Y-80568D01*
X34180Y-80513D01*
X34212Y-80451D01*
X34238Y-80382D01*
X34242Y-80346D01*
X34245Y-80306D01*
Y-80284D01*
X34242Y-80269D01*
X34234Y-80233D01*
X34220Y-80182D01*
X34194Y-80127D01*
X34158Y-80066D01*
X34136Y-80036D01*
X34107Y-80007D01*
X34078Y-79978D01*
X34041Y-79949D01*
X34038D01*
X34031Y-79942D01*
X34020Y-79935D01*
X34001Y-79927D01*
X33976Y-79913D01*
X33943Y-79902D01*
X33907Y-79887D01*
X33863Y-79873D01*
X33808Y-79862D01*
X33750Y-79847D01*
X33681Y-79833D01*
X33608Y-79822D01*
X33521Y-79814D01*
X33430Y-79807D01*
X33328Y-79800D01*
D02*
G37*
G36*
X33179Y-83760D02*
X33175D01*
X33160D01*
X33142D01*
X33113Y-83764D01*
X33080D01*
X33044Y-83767D01*
X33000Y-83771D01*
X32957Y-83775D01*
X32858Y-83793D01*
X32757Y-83815D01*
X32662Y-83847D01*
X32614Y-83869D01*
X32574Y-83891D01*
X32571D01*
X32564Y-83899D01*
X32553Y-83906D01*
X32538Y-83913D01*
X32502Y-83942D01*
X32458Y-83978D01*
X32411Y-84026D01*
X32363Y-84080D01*
X32323Y-84142D01*
X32291Y-84208D01*
X32287Y-84215D01*
X32283Y-84233D01*
X32272Y-84266D01*
X32261Y-84313D01*
X32254Y-84372D01*
X32243Y-84444D01*
X32240Y-84488D01*
Y-84535D01*
X32236Y-84583D01*
Y-85165D01*
X34158D01*
Y-84568D01*
X34154Y-84543D01*
X34151Y-84488D01*
X34147Y-84426D01*
X34140Y-84361D01*
X34129Y-84295D01*
X34114Y-84241D01*
X34111Y-84233D01*
X34107Y-84215D01*
X34096Y-84190D01*
X34081Y-84157D01*
X34060Y-84121D01*
X34038Y-84084D01*
X34012Y-84048D01*
X33983Y-84011D01*
X33976Y-84008D01*
X33961Y-83993D01*
X33936Y-83971D01*
X33899Y-83946D01*
X33852Y-83917D01*
X33797Y-83884D01*
X33736Y-83855D01*
X33667Y-83829D01*
X33663D01*
X33656Y-83826D01*
X33645Y-83822D01*
X33630Y-83818D01*
X33612Y-83815D01*
X33586Y-83807D01*
X33561Y-83800D01*
X33532Y-83793D01*
X33459Y-83782D01*
X33375Y-83771D01*
X33281Y-83764D01*
X33179Y-83760D01*
D02*
G37*
%LPD*%
D12*
X145102Y-31299D02*
Y-18701D01*
X132898D02*
X145102D01*
X132898Y-31299D02*
Y-18701D01*
Y-31299D02*
X145102D01*
X131576Y-142482D02*
X144174D01*
X131576Y-154687D02*
Y-142482D01*
Y-154687D02*
X144174D01*
Y-142482D01*
X11323Y-111512D02*
X26677D01*
Y-125488D02*
Y-111512D01*
X11323Y-125488D02*
X26677D01*
X11323D02*
Y-111512D01*
X23728Y-134248D02*
X34752D01*
X23728D02*
Y-127752D01*
X34752D01*
Y-134248D02*
Y-127752D01*
X23988Y-142748D02*
X35012D01*
X23988D02*
Y-136252D01*
X35012D01*
Y-142748D02*
Y-136252D01*
X59512Y-37177D02*
X73488D01*
Y-21823D01*
X59512D02*
X73488D01*
X59512Y-37177D02*
Y-21823D01*
X215728Y-200839D02*
Y-154185D01*
X187382D02*
X215728D01*
X187382Y-200839D02*
Y-154185D01*
Y-200839D02*
X215728D01*
X26350Y-99791D02*
X42650D01*
Y-71209D01*
X26350D02*
X42650D01*
X26350Y-99791D02*
Y-71209D01*
D13*
X92052Y-253134D02*
X97563D01*
X92052D02*
Y-244866D01*
X97563D01*
Y-230102D01*
Y-263960D02*
Y-253134D01*
X185438Y-263960D02*
Y-253134D01*
Y-244866D02*
Y-230102D01*
Y-244866D02*
X190949D01*
Y-253134D02*
Y-244866D01*
X185438Y-253134D02*
X190949D01*
X97563Y-230102D02*
X185438D01*
X97563Y-263960D02*
X185438D01*
M02*
