G04*
G04 #@! TF.GenerationSoftware,Altium Limited,Altium Designer,24.5.2 (23)*
G04*
G04 Layer_Color=8388736*
%FSLAX25Y25*%
%MOIN*%
G70*
G04*
G04 #@! TF.SameCoordinates,D39E80A3-1B6C-4955-BD37-BE89A69CF03F*
G04*
G04*
G04 #@! TF.FilePolarity,Positive*
G04*
G01*
G75*
%ADD12C,0.00787*%
%ADD13C,0.00394*%
%ADD240C,0.00472*%
G36*
X499235Y-196546D02*
X499297Y-196553D01*
X499359Y-196564D01*
X499413Y-196575D01*
X499465Y-196593D01*
X499515Y-196611D01*
X499559Y-196629D01*
X499599Y-196651D01*
X499636Y-196673D01*
X499668Y-196691D01*
X499694Y-196710D01*
X499719Y-196728D01*
X499738Y-196739D01*
X499748Y-196749D01*
X499756Y-196757D01*
X499759Y-196760D01*
X499799Y-196800D01*
X499836Y-196844D01*
X499865Y-196891D01*
X499890Y-196935D01*
X499916Y-196979D01*
X499934Y-197022D01*
X499960Y-197106D01*
X499970Y-197143D01*
X499978Y-197179D01*
X499981Y-197208D01*
X499985Y-197237D01*
X499989Y-197259D01*
Y-197288D01*
X499985Y-197354D01*
X499974Y-197416D01*
X499963Y-197474D01*
X499949Y-197525D01*
X499930Y-197569D01*
X499920Y-197601D01*
X499908Y-197623D01*
X499905Y-197627D01*
Y-197630D01*
X499868Y-197689D01*
X499828Y-197740D01*
X499788Y-197787D01*
X499745Y-197823D01*
X499708Y-197856D01*
X499679Y-197882D01*
X499657Y-197896D01*
X499654Y-197900D01*
X499719D01*
X499785Y-197896D01*
X499843Y-197892D01*
X499901Y-197885D01*
X499952Y-197882D01*
X500000Y-197874D01*
X500043Y-197867D01*
X500083Y-197856D01*
X500120Y-197849D01*
X500149Y-197842D01*
X500174Y-197834D01*
X500196Y-197831D01*
X500211Y-197823D01*
X500222Y-197820D01*
X500229Y-197816D01*
X500233D01*
X500305Y-197780D01*
X500371Y-197743D01*
X500422Y-197703D01*
X500465Y-197667D01*
X500502Y-197634D01*
X500527Y-197609D01*
X500542Y-197590D01*
X500546Y-197583D01*
X500575Y-197539D01*
X500593Y-197496D01*
X500607Y-197452D01*
X500618Y-197408D01*
X500626Y-197376D01*
X500629Y-197346D01*
Y-197321D01*
X500622Y-197256D01*
X500607Y-197194D01*
X500586Y-197143D01*
X500564Y-197095D01*
X500538Y-197059D01*
X500516Y-197034D01*
X500502Y-197019D01*
X500495Y-197012D01*
X500462Y-196986D01*
X500422Y-196961D01*
X500378Y-196939D01*
X500334Y-196924D01*
X500294Y-196910D01*
X500262Y-196899D01*
X500240Y-196895D01*
X500236Y-196891D01*
X500233D01*
X500258Y-196582D01*
X500360Y-196604D01*
X500451Y-196637D01*
X500531Y-196673D01*
X500597Y-196713D01*
X500647Y-196753D01*
X500669Y-196768D01*
X500688Y-196786D01*
X500698Y-196797D01*
X500709Y-196808D01*
X500713Y-196811D01*
X500717Y-196815D01*
X500746Y-196852D01*
X500771Y-196891D01*
X500815Y-196972D01*
X500844Y-197052D01*
X500862Y-197128D01*
X500877Y-197197D01*
X500880Y-197226D01*
Y-197252D01*
X500884Y-197274D01*
Y-197303D01*
X500880Y-197376D01*
X500873Y-197445D01*
X500859Y-197510D01*
X500840Y-197572D01*
X500815Y-197627D01*
X500793Y-197681D01*
X500764Y-197729D01*
X500738Y-197772D01*
X500713Y-197809D01*
X500684Y-197845D01*
X500662Y-197874D01*
X500640Y-197896D01*
X500618Y-197914D01*
X500604Y-197929D01*
X500597Y-197936D01*
X500593Y-197940D01*
X500527Y-197987D01*
X500451Y-198027D01*
X500371Y-198064D01*
X500287Y-198096D01*
X500200Y-198122D01*
X500112Y-198144D01*
X500021Y-198162D01*
X499938Y-198176D01*
X499854Y-198187D01*
X499778Y-198195D01*
X499708Y-198202D01*
X499650Y-198205D01*
X499599D01*
X499563Y-198209D01*
X499548D01*
X499537D01*
X499534D01*
X499530D01*
X499413Y-198205D01*
X499304Y-198198D01*
X499202Y-198187D01*
X499108Y-198169D01*
X499024Y-198151D01*
X498948Y-198133D01*
X498878Y-198111D01*
X498816Y-198085D01*
X498766Y-198064D01*
X498718Y-198042D01*
X498682Y-198023D01*
X498649Y-198002D01*
X498624Y-197987D01*
X498609Y-197976D01*
X498598Y-197969D01*
X498595Y-197965D01*
X498544Y-197918D01*
X498500Y-197867D01*
X498463Y-197816D01*
X498431Y-197765D01*
X498402Y-197711D01*
X498380Y-197660D01*
X498361Y-197609D01*
X498347Y-197558D01*
X498336Y-197514D01*
X498325Y-197470D01*
X498318Y-197434D01*
X498314Y-197401D01*
Y-197372D01*
X498311Y-197354D01*
Y-197336D01*
X498314Y-197252D01*
X498329Y-197175D01*
X498343Y-197106D01*
X498365Y-197044D01*
X498383Y-196997D01*
X498402Y-196961D01*
X498405Y-196946D01*
X498413Y-196935D01*
X498416Y-196932D01*
Y-196928D01*
X498460Y-196866D01*
X498511Y-196808D01*
X498562Y-196760D01*
X498613Y-196720D01*
X498660Y-196688D01*
X498696Y-196666D01*
X498711Y-196659D01*
X498722Y-196651D01*
X498726Y-196648D01*
X498729D01*
X498806Y-196611D01*
X498886Y-196586D01*
X498958Y-196567D01*
X499028Y-196557D01*
X499086Y-196546D01*
X499108D01*
X499130Y-196542D01*
X499148D01*
X499159D01*
X499166D01*
X499170D01*
X499235Y-196546D01*
D02*
G37*
G36*
X500873Y-198948D02*
X499137D01*
X499060D01*
X498995Y-198955D01*
X498940Y-198959D01*
X498897Y-198966D01*
X498864Y-198974D01*
X498838Y-198977D01*
X498824Y-198985D01*
X498820D01*
X498784Y-198999D01*
X498755Y-199017D01*
X498729Y-199039D01*
X498704Y-199057D01*
X498689Y-199079D01*
X498675Y-199094D01*
X498667Y-199105D01*
X498664Y-199108D01*
X498645Y-199145D01*
X498631Y-199181D01*
X498624Y-199217D01*
X498616Y-199250D01*
X498613Y-199283D01*
X498609Y-199305D01*
Y-199327D01*
X498613Y-199385D01*
X498627Y-199440D01*
X498642Y-199483D01*
X498664Y-199523D01*
X498682Y-199552D01*
X498700Y-199574D01*
X498711Y-199589D01*
X498715Y-199592D01*
X498736Y-199611D01*
X498762Y-199625D01*
X498820Y-199647D01*
X498886Y-199669D01*
X498951Y-199680D01*
X499013Y-199691D01*
X499039D01*
X499060Y-199694D01*
X499082Y-199698D01*
X499097D01*
X499104D01*
X499108D01*
X499064Y-200000D01*
X498995D01*
X498933Y-199996D01*
X498871Y-199986D01*
X498816Y-199978D01*
X498766Y-199964D01*
X498722Y-199949D01*
X498678Y-199934D01*
X498642Y-199920D01*
X498609Y-199902D01*
X498580Y-199887D01*
X498555Y-199873D01*
X498536Y-199858D01*
X498522Y-199847D01*
X498507Y-199840D01*
X498503Y-199836D01*
X498500Y-199833D01*
X498467Y-199796D01*
X498438Y-199760D01*
X498413Y-199720D01*
X498391Y-199676D01*
X498358Y-199592D01*
X498336Y-199512D01*
X498321Y-199436D01*
X498318Y-199407D01*
X498314Y-199378D01*
X498311Y-199356D01*
Y-199323D01*
X498314Y-199243D01*
X498325Y-199170D01*
X498340Y-199105D01*
X498358Y-199046D01*
X498373Y-198999D01*
X498387Y-198966D01*
X498398Y-198944D01*
X498402Y-198937D01*
X498438Y-198879D01*
X498482Y-198828D01*
X498525Y-198788D01*
X498565Y-198751D01*
X498605Y-198726D01*
X498634Y-198708D01*
X498656Y-198697D01*
X498660Y-198693D01*
X498664D01*
X498736Y-198668D01*
X498813Y-198646D01*
X498897Y-198631D01*
X498977Y-198624D01*
X499046Y-198617D01*
X499075D01*
X499104Y-198613D01*
X499126D01*
X499141D01*
X499151D01*
X499155D01*
X500873D01*
Y-198948D01*
D02*
G37*
%LPC*%
G36*
X499177Y-196859D02*
X499162D01*
X499155D01*
X499151D01*
X499053Y-196866D01*
X498969Y-196881D01*
X498897Y-196902D01*
X498835Y-196928D01*
X498787Y-196957D01*
X498751Y-196979D01*
X498729Y-196993D01*
X498726Y-197001D01*
X498722D01*
X498693Y-197026D01*
X498671Y-197055D01*
X498631Y-197114D01*
X498605Y-197172D01*
X498584Y-197223D01*
X498573Y-197270D01*
X498569Y-197307D01*
X498565Y-197321D01*
Y-197339D01*
X498569Y-197390D01*
X498576Y-197438D01*
X498591Y-197481D01*
X498605Y-197518D01*
X498616Y-197550D01*
X498631Y-197576D01*
X498638Y-197590D01*
X498642Y-197598D01*
X498675Y-197641D01*
X498707Y-197678D01*
X498747Y-197711D01*
X498780Y-197736D01*
X498813Y-197758D01*
X498838Y-197772D01*
X498857Y-197783D01*
X498864Y-197787D01*
X498918Y-197809D01*
X498973Y-197823D01*
X499024Y-197838D01*
X499071Y-197845D01*
X499111Y-197849D01*
X499144Y-197853D01*
X499162D01*
X499170D01*
X499257Y-197845D01*
X499333Y-197831D01*
X499403Y-197805D01*
X499457Y-197780D01*
X499505Y-197754D01*
X499537Y-197729D01*
X499555Y-197714D01*
X499563Y-197707D01*
X499614Y-197649D01*
X499650Y-197590D01*
X499679Y-197529D01*
X499697Y-197474D01*
X499708Y-197423D01*
X499712Y-197387D01*
X499716Y-197372D01*
Y-197350D01*
X499708Y-197274D01*
X499690Y-197204D01*
X499668Y-197146D01*
X499639Y-197095D01*
X499610Y-197055D01*
X499588Y-197026D01*
X499570Y-197008D01*
X499563Y-197001D01*
X499501Y-196953D01*
X499435Y-196917D01*
X499366Y-196891D01*
X499301Y-196877D01*
X499242Y-196866D01*
X499217Y-196862D01*
X499195D01*
X499177Y-196859D01*
D02*
G37*
%LPD*%
D12*
X472467Y-261794D02*
X524154D01*
X472467D02*
Y-138206D01*
X524154D01*
Y-261794D02*
Y-138206D01*
D13*
X140620Y-245063D02*
Y-248062D01*
X140432Y-248624D01*
X140245Y-248812D01*
X139870Y-248999D01*
X139495D01*
X139120Y-248812D01*
X138933Y-248624D01*
X138745Y-248062D01*
Y-247687D01*
X142007Y-245063D02*
X144068D01*
X142944Y-246563D01*
X143506D01*
X143881Y-246750D01*
X144068Y-246937D01*
X144256Y-247500D01*
Y-247875D01*
X144068Y-248437D01*
X143693Y-248812D01*
X143131Y-248999D01*
X142569D01*
X142007Y-248812D01*
X141819Y-248624D01*
X141632Y-248249D01*
X18968Y-29019D02*
X15969D01*
X15407Y-28832D01*
X15219Y-28644D01*
X15032Y-28269D01*
Y-27895D01*
X15219Y-27520D01*
X15407Y-27332D01*
X15969Y-27145D01*
X16344D01*
X18218Y-30031D02*
X18406Y-30406D01*
X18968Y-30969D01*
X15032D01*
X18218Y-32918D02*
X18406Y-33293D01*
X18968Y-33855D01*
X15032D01*
D240*
X139361Y-88713D02*
Y-87139D01*
Y-87926D01*
X135426D01*
X134639Y-87139D01*
Y-86351D01*
X135426Y-85564D01*
X134639Y-93436D02*
Y-90287D01*
X137787Y-93436D01*
X138574D01*
X139361Y-92649D01*
Y-91074D01*
X138574Y-90287D01*
M02*
