G04*
G04 #@! TF.GenerationSoftware,Altium Limited,Altium Designer,24.5.2 (23)*
G04*
G04 Layer_Color=32896*
%FSLAX25Y25*%
%MOIN*%
G70*
G04*
G04 #@! TF.SameCoordinates,D39E80A3-1B6C-4955-BD37-BE89A69CF03F*
G04*
G04*
G04 #@! TF.FilePolarity,Positive*
G04*
G01*
G75*
%ADD13C,0.00394*%
D13*
X33531Y-199500D02*
X37468D01*
X35500Y-201468D02*
Y-197531D01*
X22282Y-253000D02*
X26219D01*
X24250Y-254969D02*
Y-251031D01*
X27500Y-34468D02*
Y-30531D01*
X25532Y-32500D02*
X29469D01*
X108000Y-183468D02*
Y-179532D01*
X106032Y-181500D02*
X109968D01*
X54031Y-38000D02*
X57968D01*
X56000Y-39968D02*
Y-36031D01*
X59531Y-44354D02*
X63468D01*
X61500Y-46323D02*
Y-42386D01*
X59531Y-50354D02*
X63468D01*
X61500Y-52323D02*
Y-48386D01*
X59531Y-56354D02*
X63468D01*
X61500Y-58323D02*
Y-54386D01*
X59531Y-62854D02*
X63468D01*
X61500Y-64823D02*
Y-60886D01*
X59531Y-68854D02*
X63468D01*
X61500Y-70823D02*
Y-66886D01*
X59531Y-74854D02*
X63468D01*
X61500Y-76823D02*
Y-72886D01*
X59531Y-80854D02*
X63468D01*
X61500Y-82823D02*
Y-78886D01*
X82366Y-109468D02*
Y-105532D01*
X80398Y-107500D02*
X84335D01*
X75500Y-164063D02*
Y-160126D01*
X73532Y-162094D02*
X77469D01*
X75500Y-139469D02*
Y-135531D01*
X73532Y-137500D02*
X77469D01*
X63032Y-227000D02*
X66969D01*
X65000Y-228969D02*
Y-225031D01*
X69032Y-227000D02*
X72969D01*
X71000Y-228969D02*
Y-225031D01*
X59146Y-213354D02*
Y-209417D01*
X57177Y-211386D02*
X61114D01*
X65146Y-213354D02*
Y-209417D01*
X63177Y-211386D02*
X67114D01*
X71146Y-213354D02*
Y-209417D01*
X69177Y-211386D02*
X73114D01*
X77146Y-213354D02*
Y-209417D01*
X75177Y-211386D02*
X79114D01*
X83146Y-213354D02*
Y-209417D01*
X81177Y-211386D02*
X85114D01*
X89146Y-213354D02*
Y-209417D01*
X87177Y-211386D02*
X91114D01*
X95146Y-213354D02*
Y-209417D01*
X93177Y-211386D02*
X97114D01*
X101146Y-213354D02*
Y-209417D01*
X99177Y-211386D02*
X103114D01*
X64366Y-193468D02*
Y-189532D01*
X62398Y-191500D02*
X66335D01*
X16032Y-84500D02*
X19969D01*
X18000Y-86468D02*
Y-82531D01*
X192032Y-135500D02*
X195968D01*
X194000Y-137469D02*
Y-133531D01*
X280031Y-115500D02*
X283968D01*
X282000Y-117469D02*
Y-113531D01*
X262032Y-140000D02*
X265968D01*
X264000Y-141969D02*
Y-138031D01*
X277226Y-143154D02*
Y-139217D01*
X275257Y-141185D02*
X279194D01*
X253532Y-140000D02*
X257469D01*
X255500Y-141969D02*
Y-138031D01*
X496342Y-200000D02*
X500279D01*
X498311Y-201969D02*
Y-198031D01*
X294000Y-206469D02*
Y-202532D01*
X292032Y-204500D02*
X295969D01*
X271500Y-183468D02*
Y-179532D01*
X269531Y-181500D02*
X273468D01*
X271500Y-175469D02*
Y-171531D01*
X269531Y-173500D02*
X273468D01*
X268118Y-195968D02*
X272055D01*
X270087Y-197937D02*
Y-194000D01*
X50500Y-111469D02*
Y-107531D01*
X48531Y-109500D02*
X52469D01*
X192032Y-159500D02*
X195968D01*
X194000Y-161469D02*
Y-157531D01*
X214531Y-136500D02*
X218468D01*
X216500Y-138469D02*
Y-134531D01*
X207031Y-136500D02*
X210968D01*
X209000Y-138469D02*
Y-134531D01*
M02*
