G04*
G04 #@! TF.GenerationSoftware,Altium Limited,Altium Designer,24.5.2 (23)*
G04*
G04 Layer_Color=8388736*
%FSLAX25Y25*%
%MOIN*%
G70*
G04*
G04 #@! TF.SameCoordinates,D39E80A3-1B6C-4955-BD37-BE89A69CF03F*
G04*
G04*
G04 #@! TF.FilePolarity,Negative*
G04*
G01*
G75*
%ADD16R,0.03543X0.03150*%
%ADD17R,0.03150X0.03543*%
G04:AMPARAMS|DCode=18|XSize=53.36mil|YSize=18.73mil|CornerRadius=9.37mil|HoleSize=0mil|Usage=FLASHONLY|Rotation=90.000|XOffset=0mil|YOffset=0mil|HoleType=Round|Shape=RoundedRectangle|*
%AMROUNDEDRECTD18*
21,1,0.05336,0.00000,0,0,90.0*
21,1,0.03462,0.01873,0,0,90.0*
1,1,0.01873,0.00000,0.01731*
1,1,0.01873,0.00000,-0.01731*
1,1,0.01873,0.00000,-0.01731*
1,1,0.01873,0.00000,0.01731*
%
%ADD18ROUNDEDRECTD18*%
%ADD19R,0.01873X0.05336*%
G04:AMPARAMS|DCode=22|XSize=43.31mil|YSize=23.62mil|CornerRadius=2.01mil|HoleSize=0mil|Usage=FLASHONLY|Rotation=0.000|XOffset=0mil|YOffset=0mil|HoleType=Round|Shape=RoundedRectangle|*
%AMROUNDEDRECTD22*
21,1,0.04331,0.01961,0,0,0.0*
21,1,0.03929,0.02362,0,0,0.0*
1,1,0.00402,0.01965,-0.00980*
1,1,0.00402,-0.01965,-0.00980*
1,1,0.00402,-0.01965,0.00980*
1,1,0.00402,0.01965,0.00980*
%
%ADD22ROUNDEDRECTD22*%
%ADD23R,0.02756X0.05118*%
G04:AMPARAMS|DCode=24|XSize=43.31mil|YSize=23.62mil|CornerRadius=2.01mil|HoleSize=0mil|Usage=FLASHONLY|Rotation=90.000|XOffset=0mil|YOffset=0mil|HoleType=Round|Shape=RoundedRectangle|*
%AMROUNDEDRECTD24*
21,1,0.04331,0.01961,0,0,90.0*
21,1,0.03929,0.02362,0,0,90.0*
1,1,0.00402,0.00980,0.01965*
1,1,0.00402,0.00980,-0.01965*
1,1,0.00402,-0.00980,-0.01965*
1,1,0.00402,-0.00980,0.01965*
%
%ADD24ROUNDEDRECTD24*%
%ADD28R,0.27559X0.27559*%
%ADD29R,0.05906X0.09843*%
%ADD30R,0.08898X0.08504*%
%ADD46R,0.07480X0.09449*%
%ADD50R,0.03241X0.03398*%
%ADD51R,0.03556X0.03359*%
%ADD52R,0.03398X0.03241*%
%ADD53R,0.03359X0.03556*%
%ADD54R,0.05524X0.03162*%
%ADD55R,0.02178X0.02375*%
%ADD56R,0.08398X0.10446*%
%ADD57R,0.02965X0.02178*%
%ADD58R,0.02178X0.02965*%
%ADD59R,0.10446X0.08398*%
%ADD60R,0.02375X0.02178*%
%ADD61R,0.04737X0.03162*%
%ADD62R,0.03162X0.03556*%
%ADD63R,0.03359X0.05131*%
%ADD64R,0.04383X0.05603*%
G04:AMPARAMS|DCode=65|XSize=14.57mil|YSize=29.13mil|CornerRadius=4.7mil|HoleSize=0mil|Usage=FLASHONLY|Rotation=270.000|XOffset=0mil|YOffset=0mil|HoleType=Round|Shape=RoundedRectangle|*
%AMROUNDEDRECTD65*
21,1,0.01457,0.01973,0,0,270.0*
21,1,0.00516,0.02913,0,0,270.0*
1,1,0.00941,-0.00986,-0.00258*
1,1,0.00941,-0.00986,0.00258*
1,1,0.00941,0.00986,0.00258*
1,1,0.00941,0.00986,-0.00258*
%
%ADD65ROUNDEDRECTD65*%
G04:AMPARAMS|DCode=66|XSize=14.57mil|YSize=29.13mil|CornerRadius=4.7mil|HoleSize=0mil|Usage=FLASHONLY|Rotation=180.000|XOffset=0mil|YOffset=0mil|HoleType=Round|Shape=RoundedRectangle|*
%AMROUNDEDRECTD66*
21,1,0.01457,0.01973,0,0,180.0*
21,1,0.00516,0.02913,0,0,180.0*
1,1,0.00941,-0.00258,0.00986*
1,1,0.00941,0.00258,0.00986*
1,1,0.00941,0.00258,-0.00986*
1,1,0.00941,-0.00258,-0.00986*
%
%ADD66ROUNDEDRECTD66*%
G04:AMPARAMS|DCode=67|XSize=171.39mil|YSize=171.39mil|CornerRadius=5.63mil|HoleSize=0mil|Usage=FLASHONLY|Rotation=180.000|XOffset=0mil|YOffset=0mil|HoleType=Round|Shape=RoundedRectangle|*
%AMROUNDEDRECTD67*
21,1,0.17139,0.16012,0,0,180.0*
21,1,0.16012,0.17139,0,0,180.0*
1,1,0.01127,-0.08006,0.08006*
1,1,0.01127,0.08006,0.08006*
1,1,0.01127,0.08006,-0.08006*
1,1,0.01127,-0.08006,-0.08006*
%
%ADD67ROUNDEDRECTD67*%
%ADD68R,0.08674X0.14973*%
%ADD69R,0.23635X0.25210*%
%ADD70R,0.02769X0.04737*%
%ADD71R,0.06902X0.08280*%
%ADD72R,0.08280X0.06902*%
%ADD73R,0.03162X0.05918*%
%ADD74C,0.08800*%
%ADD75R,0.10642X0.10642*%
%ADD76C,0.06115*%
%ADD77R,0.06115X0.06115*%
G04:AMPARAMS|DCode=78|XSize=108.39mil|YSize=108.39mil|CornerRadius=29.1mil|HoleSize=0mil|Usage=FLASHONLY|Rotation=0.000|XOffset=0mil|YOffset=0mil|HoleType=Round|Shape=RoundedRectangle|*
%AMROUNDEDRECTD78*
21,1,0.10839,0.05020,0,0,0.0*
21,1,0.05020,0.10839,0,0,0.0*
1,1,0.05820,0.02510,-0.02510*
1,1,0.05820,-0.02510,-0.02510*
1,1,0.05820,-0.02510,0.02510*
1,1,0.05820,0.02510,0.02510*
%
%ADD78ROUNDEDRECTD78*%
%ADD79C,0.10839*%
%ADD80R,0.03241X0.03241*%
%ADD81O,0.04343X0.08674*%
G04:AMPARAMS|DCode=82|XSize=45.4mil|YSize=45.4mil|CornerRadius=13.35mil|HoleSize=0mil|Usage=FLASHONLY|Rotation=270.000|XOffset=0mil|YOffset=0mil|HoleType=Round|Shape=RoundedRectangle|*
%AMROUNDEDRECTD82*
21,1,0.04540,0.01870,0,0,270.0*
21,1,0.01870,0.04540,0,0,270.0*
1,1,0.02670,-0.00935,-0.00935*
1,1,0.02670,-0.00935,0.00935*
1,1,0.02670,0.00935,0.00935*
1,1,0.02670,0.00935,-0.00935*
%
%ADD82ROUNDEDRECTD82*%
%ADD83C,0.04540*%
%ADD84C,0.10249*%
G04:AMPARAMS|DCode=85|XSize=102.49mil|YSize=102.49mil|CornerRadius=27.62mil|HoleSize=0mil|Usage=FLASHONLY|Rotation=270.000|XOffset=0mil|YOffset=0mil|HoleType=Round|Shape=RoundedRectangle|*
%AMROUNDEDRECTD85*
21,1,0.10249,0.04724,0,0,270.0*
21,1,0.04724,0.10249,0,0,270.0*
1,1,0.05524,-0.02362,-0.02362*
1,1,0.05524,-0.02362,0.02362*
1,1,0.05524,0.02362,0.02362*
1,1,0.05524,0.02362,-0.02362*
%
%ADD85ROUNDEDRECTD85*%
%ADD86C,0.20485*%
%ADD87C,0.05512*%
%ADD88R,0.05512X0.05512*%
%ADD89C,0.09068*%
%ADD90R,0.09068X0.09068*%
%ADD91C,0.06265*%
%ADD92C,0.06265*%
%ADD93R,0.06265X0.06265*%
%ADD94C,0.18399*%
G04:AMPARAMS|DCode=95|XSize=70.99mil|YSize=169.42mil|CornerRadius=0mil|HoleSize=0mil|Usage=FLASHONLY|Rotation=45.000|XOffset=0mil|YOffset=0mil|HoleType=Round|Shape=Round|*
%AMOVALD95*
21,1,0.09843,0.07099,0.00000,0.00000,135.0*
1,1,0.07099,0.03480,-0.03480*
1,1,0.07099,-0.03480,0.03480*
%
%ADD95OVALD95*%

%ADD96O,0.07099X0.16942*%
%ADD97O,0.16942X0.07099*%
%ADD98R,0.06312X0.06312*%
%ADD99C,0.06312*%
%ADD100C,0.06200*%
%ADD101C,0.02769*%
D16*
X135063Y-25000D02*
D03*
X142937Y-21260D02*
D03*
Y-28740D02*
D03*
D17*
X137875Y-152522D02*
D03*
X134135Y-144648D02*
D03*
X141615D02*
D03*
D18*
X124500Y-23463D02*
D03*
D19*
Y-31537D02*
D03*
D22*
X13882Y-114760D02*
D03*
Y-118500D02*
D03*
Y-122240D02*
D03*
X24118D02*
D03*
Y-118500D02*
D03*
Y-114760D02*
D03*
D23*
X32980Y-131000D02*
D03*
X25500D02*
D03*
X33240Y-139500D02*
D03*
X25760D02*
D03*
D24*
X62760Y-24382D02*
D03*
X66500D02*
D03*
X70240D02*
D03*
Y-34618D02*
D03*
X66500D02*
D03*
X62760D02*
D03*
D28*
X201555Y-186665D02*
D03*
X98000Y-198500D02*
D03*
D29*
X192500Y-159500D02*
D03*
X210610D02*
D03*
X107055Y-171335D02*
D03*
X88945D02*
D03*
D30*
X34500Y-75854D02*
D03*
Y-95146D02*
D03*
D46*
X451571Y-251000D02*
D03*
X435429D02*
D03*
D50*
X121591Y-154084D02*
D03*
Y-150620D02*
D03*
X417000Y-210268D02*
D03*
Y-213732D02*
D03*
X58000Y-28268D02*
D03*
Y-31732D02*
D03*
X439012Y-195744D02*
D03*
Y-192280D02*
D03*
X434500Y-192268D02*
D03*
Y-195732D02*
D03*
X442512Y-236280D02*
D03*
Y-239744D02*
D03*
X449012Y-236280D02*
D03*
Y-239744D02*
D03*
D51*
X107630Y-159000D02*
D03*
X111370D02*
D03*
X174630Y-219500D02*
D03*
X138370Y-219000D02*
D03*
X134630D02*
D03*
X502370Y-99000D02*
D03*
X498630D02*
D03*
X502370Y-122000D02*
D03*
X498630D02*
D03*
X512130Y-99000D02*
D03*
X515870D02*
D03*
X134370Y-20500D02*
D03*
X130630D02*
D03*
X125870Y-142000D02*
D03*
X122130D02*
D03*
X464087Y-214697D02*
D03*
X460346D02*
D03*
X464087Y-219000D02*
D03*
X460346D02*
D03*
X464087Y-210197D02*
D03*
X460346D02*
D03*
X450815Y-196803D02*
D03*
X454555D02*
D03*
X460346Y-205512D02*
D03*
X464087D02*
D03*
X419882Y-221512D02*
D03*
X416142D02*
D03*
X136745Y-157085D02*
D03*
X133005D02*
D03*
X139745Y-139085D02*
D03*
X136005D02*
D03*
X126000Y-146500D02*
D03*
X122260D02*
D03*
X111370Y-163000D02*
D03*
X107630D02*
D03*
X178370Y-224000D02*
D03*
X174630D02*
D03*
X178370Y-219500D02*
D03*
D52*
X20732Y-110000D02*
D03*
X17268D02*
D03*
X410232Y-221500D02*
D03*
X406768D02*
D03*
X58000Y-100500D02*
D03*
X61465D02*
D03*
X488768Y-122000D02*
D03*
X492232D02*
D03*
X362232Y-81000D02*
D03*
X358768D02*
D03*
X362232Y-76500D02*
D03*
X358768D02*
D03*
X362232Y-72000D02*
D03*
X358768D02*
D03*
X463732Y-196512D02*
D03*
X460268D02*
D03*
X463732Y-201012D02*
D03*
X460268D02*
D03*
X432732Y-230500D02*
D03*
X429268D02*
D03*
X460268Y-227000D02*
D03*
X463732D02*
D03*
D53*
X204500Y-147630D02*
D03*
X113000Y-18000D02*
D03*
Y-14260D02*
D03*
X429500Y-195870D02*
D03*
Y-192130D02*
D03*
X420500Y-227630D02*
D03*
Y-231370D02*
D03*
X432012Y-240382D02*
D03*
Y-236642D02*
D03*
X437512Y-240382D02*
D03*
Y-236642D02*
D03*
X147875Y-147955D02*
D03*
Y-144215D02*
D03*
X130500Y-28870D02*
D03*
Y-25130D02*
D03*
X208500Y-147630D02*
D03*
Y-151370D02*
D03*
X204500D02*
D03*
D54*
X116012Y-154092D02*
D03*
Y-150352D02*
D03*
Y-146612D02*
D03*
X106170D02*
D03*
Y-154092D02*
D03*
D55*
X75504Y-18839D02*
D03*
Y-11161D02*
D03*
Y-13721D02*
D03*
Y-16280D02*
D03*
D56*
X71016Y-15000D02*
D03*
D57*
X63890Y-18839D02*
D03*
Y-16280D02*
D03*
Y-13721D02*
D03*
Y-11161D02*
D03*
D58*
X38839Y-112390D02*
D03*
X36279D02*
D03*
X33720D02*
D03*
X31161D02*
D03*
D59*
X35000Y-119516D02*
D03*
D60*
X33720Y-124004D02*
D03*
X36279D02*
D03*
X38839D02*
D03*
X31161D02*
D03*
D61*
X400882Y-207760D02*
D03*
X400882Y-211500D02*
D03*
X400882Y-215240D02*
D03*
X411118Y-215241D02*
D03*
X411119Y-207761D02*
D03*
D62*
X113000Y-23563D02*
D03*
X109260Y-31437D02*
D03*
X116740D02*
D03*
D63*
X502760Y-114724D02*
D03*
X506500D02*
D03*
X510240D02*
D03*
Y-105276D02*
D03*
X506500D02*
D03*
X502760D02*
D03*
D64*
X370937Y-87500D02*
D03*
X358063D02*
D03*
D65*
X451232Y-224055D02*
D03*
Y-222087D02*
D03*
Y-220118D02*
D03*
Y-218150D02*
D03*
Y-216181D02*
D03*
Y-214213D02*
D03*
Y-212244D02*
D03*
Y-210276D02*
D03*
Y-208307D02*
D03*
Y-206339D02*
D03*
X428398D02*
D03*
Y-208307D02*
D03*
Y-210276D02*
D03*
Y-212244D02*
D03*
Y-214213D02*
D03*
Y-216181D02*
D03*
Y-218150D02*
D03*
Y-220118D02*
D03*
Y-222087D02*
D03*
Y-224055D02*
D03*
D66*
X448673Y-203780D02*
D03*
X446705D02*
D03*
X444736D02*
D03*
X442768D02*
D03*
X440799D02*
D03*
X438831D02*
D03*
X436862D02*
D03*
X434894D02*
D03*
X432925D02*
D03*
X430957D02*
D03*
Y-226614D02*
D03*
X432925D02*
D03*
X434894D02*
D03*
X436862D02*
D03*
X438831D02*
D03*
X440799D02*
D03*
X442768D02*
D03*
X444736D02*
D03*
X446705D02*
D03*
X448673D02*
D03*
D67*
X439815Y-215197D02*
D03*
D68*
X139016Y-169677D02*
D03*
X120984D02*
D03*
D69*
X130000Y-198024D02*
D03*
D70*
X476000Y-189437D02*
D03*
X478559Y-181563D02*
D03*
X473441D02*
D03*
X476000Y-196063D02*
D03*
X473441Y-203937D02*
D03*
X478559D02*
D03*
X473441Y-233937D02*
D03*
X478559D02*
D03*
X476000Y-226063D02*
D03*
X478559Y-211563D02*
D03*
X473441D02*
D03*
X476000Y-219437D02*
D03*
D71*
X111807Y-219500D02*
D03*
X100193D02*
D03*
D72*
X199500Y-216693D02*
D03*
Y-228307D02*
D03*
D73*
X168106Y-215106D02*
D03*
X160626D02*
D03*
X164366Y-223374D02*
D03*
D74*
X14000Y-236500D02*
D03*
D75*
X34000D02*
D03*
D76*
X344000Y-258748D02*
D03*
Y-250874D02*
D03*
Y-243000D02*
D03*
Y-235126D02*
D03*
Y-227252D02*
D03*
D77*
Y-219378D02*
D03*
D78*
X111501Y-249000D02*
D03*
D79*
X131500D02*
D03*
X151500D02*
D03*
X171501D02*
D03*
D80*
X315488Y-259980D02*
D03*
Y-256239D02*
D03*
Y-252500D02*
D03*
Y-248956D02*
D03*
Y-245413D02*
D03*
Y-241869D02*
D03*
Y-238129D02*
D03*
Y-234389D02*
D03*
X321000D02*
D03*
Y-238129D02*
D03*
Y-241869D02*
D03*
Y-245413D02*
D03*
Y-248956D02*
D03*
Y-252500D02*
D03*
Y-256239D02*
D03*
Y-259980D02*
D03*
X286500Y-260024D02*
D03*
Y-256283D02*
D03*
Y-252543D02*
D03*
Y-249000D02*
D03*
Y-245456D02*
D03*
Y-241913D02*
D03*
Y-238173D02*
D03*
Y-234432D02*
D03*
X292012D02*
D03*
Y-238173D02*
D03*
Y-241913D02*
D03*
Y-245456D02*
D03*
Y-249000D02*
D03*
Y-252543D02*
D03*
Y-256283D02*
D03*
Y-260024D02*
D03*
D81*
X310646Y-239311D02*
D03*
Y-255059D02*
D03*
X325842Y-239311D02*
D03*
Y-255059D02*
D03*
X281657Y-255102D02*
D03*
Y-239354D02*
D03*
X296854Y-255102D02*
D03*
Y-239354D02*
D03*
D82*
X134500Y-79500D02*
D03*
D83*
X139500D02*
D03*
X134500Y-84500D02*
D03*
Y-89500D02*
D03*
X139500Y-84500D02*
D03*
Y-89500D02*
D03*
X134500Y-94500D02*
D03*
Y-99500D02*
D03*
X139500Y-94500D02*
D03*
Y-99500D02*
D03*
D84*
X15228Y-45500D02*
D03*
X19772Y-99500D02*
D03*
D85*
X15228Y-15500D02*
D03*
X19772Y-69500D02*
D03*
D86*
X459815Y-90595D02*
D03*
X61500Y-253000D02*
D03*
X89059Y-58095D02*
D03*
D87*
X254067Y-254264D02*
D03*
Y-244421D02*
D03*
Y-234579D02*
D03*
D88*
Y-224736D02*
D03*
D89*
X203000Y-248000D02*
D03*
D90*
X218000D02*
D03*
D91*
X492711Y-216200D02*
D03*
Y-205400D02*
D03*
Y-194600D02*
D03*
Y-183800D02*
D03*
D92*
X503911Y-221600D02*
D03*
Y-210800D02*
D03*
Y-200000D02*
D03*
Y-189200D02*
D03*
D93*
Y-178400D02*
D03*
D94*
X498311Y-150800D02*
D03*
Y-249200D02*
D03*
D95*
X370890Y-251610D02*
D03*
D96*
X363409Y-223658D02*
D03*
X414591Y-235469D02*
D03*
D97*
X398843Y-259091D02*
D03*
X387032Y-207909D02*
D03*
D98*
X148000Y-55500D02*
D03*
D99*
Y-65500D02*
D03*
X138000Y-55500D02*
D03*
Y-65500D02*
D03*
X128000Y-55500D02*
D03*
Y-65500D02*
D03*
D100*
X127059Y-12299D02*
D03*
Y-37894D02*
D03*
D101*
X147000Y-27500D02*
D03*
X78500Y-34500D02*
D03*
X63000Y-29500D02*
D03*
X84000Y-22000D02*
D03*
X61325Y-20498D02*
D03*
X165150Y-199500D02*
D03*
X158850D02*
D03*
X162000Y-202650D02*
D03*
Y-196350D02*
D03*
X447000Y-217894D02*
D03*
Y-212500D02*
D03*
X442512Y-217894D02*
D03*
X432630Y-212500D02*
D03*
X442512Y-222382D02*
D03*
X437118D02*
D03*
Y-208012D02*
D03*
X442512D02*
D03*
Y-212500D02*
D03*
X432630Y-217894D02*
D03*
X437118D02*
D03*
Y-212500D02*
D03*
X228575Y-205500D02*
D03*
X222276D02*
D03*
X225426Y-208649D02*
D03*
Y-202350D02*
D03*
M02*
