G04*
G04 #@! TF.GenerationSoftware,Altium Limited,Altium Designer,24.5.2 (23)*
G04*
G04 Layer_Color=16711935*
%FSLAX25Y25*%
%MOIN*%
G70*
G04*
G04 #@! TF.SameCoordinates,D39E80A3-1B6C-4955-BD37-BE89A69CF03F*
G04*
G04*
G04 #@! TF.FilePolarity,Positive*
G04*
G01*
G75*
%ADD12C,0.00787*%
%ADD239C,0.00197*%
D12*
X24398Y-186016D02*
X46602D01*
X24398Y-212984D02*
Y-186016D01*
Y-212984D02*
X46602D01*
Y-186016D01*
X9959Y-244850D02*
X38541D01*
X9959Y-261150D02*
Y-244850D01*
Y-261150D02*
X38541D01*
Y-244850D01*
X35669Y-44390D02*
Y-20610D01*
X19331D02*
X35669D01*
X19331Y-44390D02*
Y-20610D01*
Y-44390D02*
X35669D01*
X101012Y-189177D02*
Y-173823D01*
Y-189177D02*
X114988D01*
Y-173823D01*
X101012D02*
X114988D01*
X50488Y-34752D02*
X61512D01*
X50488Y-41248D02*
Y-34752D01*
Y-41248D02*
X61512D01*
Y-34752D01*
X55988Y-41106D02*
X67012D01*
X55988Y-47602D02*
Y-41106D01*
Y-47602D02*
X67012D01*
Y-41106D01*
X55988Y-47106D02*
X67012D01*
X55988Y-53602D02*
Y-47106D01*
Y-53602D02*
X67012D01*
Y-47106D01*
X55988Y-53106D02*
X67012D01*
X55988Y-59602D02*
Y-53106D01*
Y-59602D02*
X67012D01*
Y-53106D01*
X55988Y-59606D02*
X67012D01*
X55988Y-66102D02*
Y-59606D01*
Y-66102D02*
X67012D01*
Y-59606D01*
X55988Y-65606D02*
X67012D01*
X55988Y-72102D02*
Y-65606D01*
Y-72102D02*
X67012D01*
Y-65606D01*
X55988Y-71606D02*
X67012D01*
X55988Y-78102D02*
Y-71606D01*
Y-78102D02*
X67012D01*
Y-71606D01*
X55988Y-77606D02*
X67012D01*
X55988Y-84102D02*
Y-77606D01*
Y-84102D02*
X67012D01*
Y-77606D01*
X95850Y-118602D02*
Y-96398D01*
X68882D02*
X95850D01*
X68882Y-118602D02*
Y-96398D01*
Y-118602D02*
X95850D01*
X80913Y-171248D02*
Y-152941D01*
X70087D02*
X80913D01*
X70087Y-171248D02*
Y-152941D01*
Y-171248D02*
X80913D01*
X70087Y-146653D02*
Y-128347D01*
Y-146653D02*
X80913D01*
Y-128347D01*
X70087D02*
X80913D01*
X61752Y-232512D02*
X68248D01*
X61752D02*
Y-221488D01*
X68248D01*
Y-232512D02*
Y-221488D01*
X67752Y-232512D02*
X74248D01*
X67752D02*
Y-221488D01*
X74248D01*
Y-232512D02*
Y-221488D01*
X55898Y-216898D02*
Y-205874D01*
Y-216898D02*
X62394D01*
Y-205874D01*
X55898D02*
X62394D01*
X61898Y-216898D02*
Y-205874D01*
Y-216898D02*
X68394D01*
Y-205874D01*
X61898D02*
X68394D01*
X67898Y-216898D02*
Y-205874D01*
Y-216898D02*
X74394D01*
Y-205874D01*
X67898D02*
X74394D01*
X73898Y-216898D02*
Y-205874D01*
Y-216898D02*
X80394D01*
Y-205874D01*
X73898D02*
X80394D01*
X79898Y-216898D02*
Y-205874D01*
Y-216898D02*
X86394D01*
Y-205874D01*
X79898D02*
X86394D01*
X85898Y-216898D02*
Y-205874D01*
Y-216898D02*
X92394D01*
Y-205874D01*
X85898D02*
X92394D01*
X91898Y-216898D02*
Y-205874D01*
Y-216898D02*
X98394D01*
Y-205874D01*
X91898D02*
X98394D01*
X97898Y-216898D02*
Y-205874D01*
Y-216898D02*
X104394D01*
Y-205874D01*
X97898D02*
X104394D01*
X77850Y-202602D02*
Y-180398D01*
X50882D02*
X77850D01*
X50882Y-202602D02*
Y-180398D01*
Y-202602D02*
X77850D01*
X189669Y-140126D02*
X198331D01*
X189669D02*
Y-130874D01*
X198331D01*
Y-140126D02*
Y-130874D01*
X264874Y-132232D02*
X299126D01*
Y-98768D01*
X264874D02*
X299126D01*
X264874Y-132232D02*
Y-98768D01*
X261035Y-145918D02*
X266965D01*
X261035D02*
Y-134082D01*
X266965D01*
Y-145918D02*
Y-134082D01*
X272895Y-145811D02*
Y-136559D01*
Y-145811D02*
X281557D01*
Y-136559D01*
X272895D02*
X281557D01*
X252535Y-145918D02*
X258465D01*
X252535D02*
Y-134082D01*
X258465D01*
Y-145918D02*
Y-134082D01*
X472467Y-261794D02*
X524154D01*
X472467D02*
Y-138206D01*
X524154D01*
Y-261794D02*
Y-138206D01*
X277268Y-221626D02*
Y-187374D01*
Y-221626D02*
X310732D01*
Y-187374D01*
X277268D02*
X310732D01*
X265582Y-184465D02*
Y-178535D01*
X277418D01*
Y-184465D02*
Y-178535D01*
X265582Y-184465D02*
X277418D01*
X265582Y-176465D02*
Y-170535D01*
X277418D01*
Y-176465D02*
Y-170535D01*
X265582Y-176465D02*
X277418D01*
X265461Y-191638D02*
X274713D01*
X265461Y-200299D02*
Y-191638D01*
Y-200299D02*
X274713D01*
Y-191638D01*
X39398Y-122984D02*
Y-96016D01*
X61602D01*
Y-122984D02*
Y-96016D01*
X39398Y-122984D02*
X61602D01*
X176874Y-142768D02*
X211126D01*
X176874Y-176232D02*
Y-142768D01*
Y-176232D02*
X211126D01*
Y-142768D01*
X213535Y-130582D02*
X219465D01*
Y-142418D02*
Y-130582D01*
X213535Y-142418D02*
X219465D01*
X213535D02*
Y-130582D01*
X206035D02*
X211965D01*
Y-142418D02*
Y-130582D01*
X206035Y-142418D02*
X211965D01*
X206035D02*
Y-130582D01*
D239*
X480Y-115248D02*
Y-53752D01*
Y-115248D02*
X35520D01*
Y-53752D01*
X480D02*
X35520D01*
M02*
