G04*
G04 #@! TF.GenerationSoftware,Altium Limited,Altium Designer,24.5.2 (23)*
G04*
G04 Layer_Color=16711935*
%FSLAX25Y25*%
%MOIN*%
G70*
G04*
G04 #@! TF.SameCoordinates,D39E80A3-1B6C-4955-BD37-BE89A69CF03F*
G04*
G04*
G04 #@! TF.FilePolarity,Negative*
G04*
G01*
G75*
%ADD23R,0.02756X0.05118*%
G04:AMPARAMS|DCode=24|XSize=43.31mil|YSize=23.62mil|CornerRadius=2.01mil|HoleSize=0mil|Usage=FLASHONLY|Rotation=90.000|XOffset=0mil|YOffset=0mil|HoleType=Round|Shape=RoundedRectangle|*
%AMROUNDEDRECTD24*
21,1,0.04331,0.01961,0,0,90.0*
21,1,0.03929,0.02362,0,0,90.0*
1,1,0.00402,0.00980,0.01965*
1,1,0.00402,0.00980,-0.01965*
1,1,0.00402,-0.00980,-0.01965*
1,1,0.00402,-0.00980,0.01965*
%
%ADD24ROUNDEDRECTD24*%
%ADD50R,0.03241X0.03398*%
%ADD51R,0.03556X0.03359*%
%ADD52R,0.03398X0.03241*%
%ADD53R,0.03359X0.03556*%
%ADD55R,0.02178X0.02375*%
%ADD56R,0.08398X0.10446*%
%ADD57R,0.02965X0.02178*%
%ADD71R,0.06902X0.08280*%
%ADD72R,0.08280X0.06902*%
%ADD74C,0.08800*%
%ADD75R,0.10642X0.10642*%
%ADD76C,0.06115*%
%ADD77R,0.06115X0.06115*%
G04:AMPARAMS|DCode=78|XSize=108.39mil|YSize=108.39mil|CornerRadius=29.1mil|HoleSize=0mil|Usage=FLASHONLY|Rotation=0.000|XOffset=0mil|YOffset=0mil|HoleType=Round|Shape=RoundedRectangle|*
%AMROUNDEDRECTD78*
21,1,0.10839,0.05020,0,0,0.0*
21,1,0.05020,0.10839,0,0,0.0*
1,1,0.05820,0.02510,-0.02510*
1,1,0.05820,-0.02510,-0.02510*
1,1,0.05820,-0.02510,0.02510*
1,1,0.05820,0.02510,0.02510*
%
%ADD78ROUNDEDRECTD78*%
%ADD79C,0.10839*%
%ADD80R,0.03241X0.03241*%
%ADD81O,0.04343X0.08674*%
G04:AMPARAMS|DCode=82|XSize=45.4mil|YSize=45.4mil|CornerRadius=13.35mil|HoleSize=0mil|Usage=FLASHONLY|Rotation=270.000|XOffset=0mil|YOffset=0mil|HoleType=Round|Shape=RoundedRectangle|*
%AMROUNDEDRECTD82*
21,1,0.04540,0.01870,0,0,270.0*
21,1,0.01870,0.04540,0,0,270.0*
1,1,0.02670,-0.00935,-0.00935*
1,1,0.02670,-0.00935,0.00935*
1,1,0.02670,0.00935,0.00935*
1,1,0.02670,0.00935,-0.00935*
%
%ADD82ROUNDEDRECTD82*%
%ADD83C,0.04540*%
%ADD84C,0.10249*%
G04:AMPARAMS|DCode=85|XSize=102.49mil|YSize=102.49mil|CornerRadius=27.62mil|HoleSize=0mil|Usage=FLASHONLY|Rotation=270.000|XOffset=0mil|YOffset=0mil|HoleType=Round|Shape=RoundedRectangle|*
%AMROUNDEDRECTD85*
21,1,0.10249,0.04724,0,0,270.0*
21,1,0.04724,0.10249,0,0,270.0*
1,1,0.05524,-0.02362,-0.02362*
1,1,0.05524,-0.02362,0.02362*
1,1,0.05524,0.02362,0.02362*
1,1,0.05524,0.02362,-0.02362*
%
%ADD85ROUNDEDRECTD85*%
%ADD86C,0.20485*%
%ADD87C,0.05512*%
%ADD88R,0.05512X0.05512*%
%ADD89C,0.09068*%
%ADD90R,0.09068X0.09068*%
%ADD91C,0.06265*%
%ADD92C,0.06265*%
%ADD93R,0.06265X0.06265*%
%ADD94C,0.18399*%
G04:AMPARAMS|DCode=95|XSize=70.99mil|YSize=169.42mil|CornerRadius=0mil|HoleSize=0mil|Usage=FLASHONLY|Rotation=45.000|XOffset=0mil|YOffset=0mil|HoleType=Round|Shape=Round|*
%AMOVALD95*
21,1,0.09843,0.07099,0.00000,0.00000,135.0*
1,1,0.07099,0.03480,-0.03480*
1,1,0.07099,-0.03480,0.03480*
%
%ADD95OVALD95*%

%ADD96O,0.07099X0.16942*%
%ADD97O,0.16942X0.07099*%
%ADD98R,0.06312X0.06312*%
%ADD99C,0.06312*%
%ADD100C,0.06200*%
%ADD101C,0.02769*%
%ADD142R,0.01968X0.04331*%
%ADD143R,0.08504X0.08898*%
%ADD144R,0.08583X0.06378*%
%ADD156R,0.04331X0.01968*%
%ADD157R,0.00787X0.00787*%
%ADD158R,0.07087X0.03937*%
%ADD166R,0.05118X0.02756*%
G04:AMPARAMS|DCode=168|XSize=26.38mil|YSize=11.81mil|CornerRadius=1.95mil|HoleSize=0mil|Usage=FLASHONLY|Rotation=90.000|XOffset=0mil|YOffset=0mil|HoleType=Round|Shape=RoundedRectangle|*
%AMROUNDEDRECTD168*
21,1,0.02638,0.00791,0,0,90.0*
21,1,0.02248,0.01181,0,0,90.0*
1,1,0.00390,0.00396,0.01124*
1,1,0.00390,0.00396,-0.01124*
1,1,0.00390,-0.00396,-0.01124*
1,1,0.00390,-0.00396,0.01124*
%
%ADD168ROUNDEDRECTD168*%
%ADD172R,0.06890X0.11811*%
%ADD173R,0.03961X0.04351*%
%ADD175R,0.11811X0.06890*%
%ADD176R,0.04351X0.03961*%
G04:AMPARAMS|DCode=177|XSize=26.38mil|YSize=11.81mil|CornerRadius=1.95mil|HoleSize=0mil|Usage=FLASHONLY|Rotation=180.000|XOffset=0mil|YOffset=0mil|HoleType=Round|Shape=RoundedRectangle|*
%AMROUNDEDRECTD177*
21,1,0.02638,0.00791,0,0,180.0*
21,1,0.02248,0.01181,0,0,180.0*
1,1,0.00390,-0.01124,0.00396*
1,1,0.00390,0.01124,0.00396*
1,1,0.00390,0.01124,-0.00396*
1,1,0.00390,-0.01124,-0.00396*
%
%ADD177ROUNDEDRECTD177*%
%ADD192R,0.07887X0.06115*%
%ADD193R,0.04343X0.06115*%
%ADD194R,0.06706X0.04343*%
%ADD195R,0.04343X0.06706*%
%ADD196R,0.17021X0.18910*%
%ADD197R,0.02965X0.02769*%
%ADD198R,0.03359X0.02769*%
%ADD199R,0.02375X0.05524*%
%ADD200R,0.02690X0.02375*%
%ADD201R,0.06902X0.04737*%
%ADD202R,0.06115X0.04343*%
%ADD203R,0.12217X0.12217*%
%ADD204R,0.03753X0.01587*%
%ADD205R,0.01587X0.03753*%
G04:AMPARAMS|DCode=206|XSize=19.81mil|YSize=37.53mil|CornerRadius=5.95mil|HoleSize=0mil|Usage=FLASHONLY|Rotation=0.000|XOffset=0mil|YOffset=0mil|HoleType=Round|Shape=RoundedRectangle|*
%AMROUNDEDRECTD206*
21,1,0.01981,0.02563,0,0,0.0*
21,1,0.00791,0.03753,0,0,0.0*
1,1,0.01190,0.00396,-0.01282*
1,1,0.01190,-0.00396,-0.01282*
1,1,0.01190,-0.00396,0.01282*
1,1,0.01190,0.00396,0.01282*
%
%ADD206ROUNDEDRECTD206*%
G04:AMPARAMS|DCode=207|XSize=19.81mil|YSize=37.53mil|CornerRadius=5.95mil|HoleSize=0mil|Usage=FLASHONLY|Rotation=90.000|XOffset=0mil|YOffset=0mil|HoleType=Round|Shape=RoundedRectangle|*
%AMROUNDEDRECTD207*
21,1,0.01981,0.02563,0,0,90.0*
21,1,0.00791,0.03753,0,0,90.0*
1,1,0.01190,0.01282,0.00396*
1,1,0.01190,0.01282,-0.00396*
1,1,0.01190,-0.01282,-0.00396*
1,1,0.01190,-0.01282,0.00396*
%
%ADD207ROUNDEDRECTD207*%
G04:AMPARAMS|DCode=208|XSize=90.68mil|YSize=90.68mil|CornerRadius=6.07mil|HoleSize=0mil|Usage=FLASHONLY|Rotation=90.000|XOffset=0mil|YOffset=0mil|HoleType=Round|Shape=RoundedRectangle|*
%AMROUNDEDRECTD208*
21,1,0.09068,0.07854,0,0,90.0*
21,1,0.07854,0.09068,0,0,90.0*
1,1,0.01213,0.03927,0.03927*
1,1,0.01213,0.03927,-0.03927*
1,1,0.01213,-0.03927,-0.03927*
1,1,0.01213,-0.03927,0.03927*
%
%ADD208ROUNDEDRECTD208*%
%ADD209C,0.02800*%
%ADD210R,0.04737X0.05131*%
%ADD211R,0.09855X0.04737*%
%ADD212R,0.03950X0.04737*%
%ADD213R,0.05918X0.03556*%
%ADD214R,0.04343X0.04540*%
G04:AMPARAMS|DCode=215|XSize=33.59mil|YSize=55.24mil|CornerRadius=5.92mil|HoleSize=0mil|Usage=FLASHONLY|Rotation=180.000|XOffset=0mil|YOffset=0mil|HoleType=Round|Shape=RoundedRectangle|*
%AMROUNDEDRECTD215*
21,1,0.03359,0.04341,0,0,180.0*
21,1,0.02175,0.05524,0,0,180.0*
1,1,0.01184,-0.01088,0.02170*
1,1,0.01184,0.01088,0.02170*
1,1,0.01184,0.01088,-0.02170*
1,1,0.01184,-0.01088,-0.02170*
%
%ADD215ROUNDEDRECTD215*%
%ADD216R,0.20091X0.16548*%
%ADD217O,0.03162X0.07887*%
%ADD218O,0.07887X0.03162*%
%ADD219R,0.02769X0.08580*%
%ADD220R,0.16154X0.11706*%
%ADD221R,0.04343X0.04343*%
G36*
X44614Y-208260D02*
Y-210622D01*
X43984D01*
Y-212591D01*
X42016D01*
Y-210622D01*
X38984D01*
Y-212591D01*
X37016D01*
Y-210622D01*
X33984D01*
Y-212591D01*
X32016D01*
Y-208260D01*
X44614D01*
D01*
D02*
G37*
G36*
X44181Y-186409D02*
X41819D01*
Y-189559D01*
X39181D01*
Y-186409D01*
X36819D01*
Y-189559D01*
X34181D01*
Y-186409D01*
X31819D01*
Y-189559D01*
X29181D01*
Y-186409D01*
X26819D01*
Y-204323D01*
X44181D01*
Y-186409D01*
D01*
D02*
G37*
G36*
X55606Y-200614D02*
X53244D01*
Y-199984D01*
X51276D01*
Y-198016D01*
X53244D01*
Y-194984D01*
X51276D01*
Y-193016D01*
X53244D01*
Y-189984D01*
X51276D01*
Y-188016D01*
X55606D01*
Y-200614D01*
D01*
D02*
G37*
G36*
X77457Y-200181D02*
Y-197819D01*
X74307D01*
Y-195181D01*
X77457D01*
Y-192819D01*
X74307D01*
Y-190181D01*
X77457D01*
Y-187819D01*
X74307D01*
Y-185181D01*
X77457D01*
Y-182819D01*
X59543D01*
Y-200181D01*
X77457D01*
D01*
D02*
G37*
G36*
X41819Y-122591D02*
X44181D01*
Y-119441D01*
X46819D01*
Y-122591D01*
X49181D01*
Y-119441D01*
X51819D01*
Y-122591D01*
X54181D01*
Y-119441D01*
X56819D01*
Y-122591D01*
X59181D01*
Y-104677D01*
X41819D01*
Y-122591D01*
D01*
D02*
G37*
G36*
X41386Y-100740D02*
Y-98378D01*
X42016D01*
Y-96409D01*
X43984D01*
Y-98378D01*
X47016D01*
Y-96409D01*
X48984D01*
Y-98378D01*
X52016D01*
Y-96409D01*
X53984D01*
Y-100740D01*
X41386D01*
D01*
D02*
G37*
G36*
X73606Y-116614D02*
X71244D01*
Y-115984D01*
X69276D01*
Y-114016D01*
X71244D01*
Y-110984D01*
X69276D01*
Y-109016D01*
X71244D01*
Y-105984D01*
X69276D01*
Y-104016D01*
X73606D01*
Y-116614D01*
D01*
D02*
G37*
G36*
X95457Y-116181D02*
Y-113819D01*
X92307D01*
Y-111181D01*
X95457D01*
Y-108819D01*
X92307D01*
Y-106181D01*
X95457D01*
Y-103819D01*
X92307D01*
Y-101181D01*
X95457D01*
Y-98819D01*
X77543D01*
Y-116181D01*
X95457D01*
D01*
D02*
G37*
D23*
X59740Y-38000D02*
D03*
X52260D02*
D03*
X65240Y-44354D02*
D03*
X57760D02*
D03*
X65240Y-50354D02*
D03*
X57760D02*
D03*
X65240Y-56354D02*
D03*
X57760D02*
D03*
X65240Y-62854D02*
D03*
X57760D02*
D03*
X65240Y-68854D02*
D03*
X57760D02*
D03*
X65240Y-74854D02*
D03*
X57760D02*
D03*
X65240Y-80854D02*
D03*
X57760D02*
D03*
D24*
X104260Y-176382D02*
D03*
X108000D02*
D03*
X111740D02*
D03*
Y-186618D02*
D03*
X108000D02*
D03*
X104260D02*
D03*
D50*
X28000Y-217000D02*
D03*
Y-220465D02*
D03*
X99500Y-182732D02*
D03*
Y-179268D02*
D03*
X47000Y-39732D02*
D03*
Y-36268D02*
D03*
X102500Y-131000D02*
D03*
Y-127535D02*
D03*
X92000Y-241732D02*
D03*
Y-238268D02*
D03*
X52500Y-210268D02*
D03*
Y-213732D02*
D03*
X296800Y-140965D02*
D03*
Y-137500D02*
D03*
X292600Y-140965D02*
D03*
Y-137500D02*
D03*
X288401Y-140965D02*
D03*
Y-137500D02*
D03*
X301000Y-140965D02*
D03*
Y-137500D02*
D03*
X284201Y-140965D02*
D03*
Y-137500D02*
D03*
X270500Y-141732D02*
D03*
Y-138268D02*
D03*
X345500Y-190768D02*
D03*
Y-194232D02*
D03*
X262000Y-202232D02*
D03*
Y-198768D02*
D03*
X93500Y-78768D02*
D03*
Y-82232D02*
D03*
X73500Y-41232D02*
D03*
Y-37768D02*
D03*
X187798Y-135368D02*
D03*
Y-138833D02*
D03*
X383500Y-171768D02*
D03*
Y-175232D02*
D03*
X91000Y-127732D02*
D03*
Y-124268D02*
D03*
X170298Y-135368D02*
D03*
Y-138833D02*
D03*
X174298Y-135368D02*
D03*
Y-138833D02*
D03*
X183298Y-135368D02*
D03*
Y-138833D02*
D03*
X178798Y-135368D02*
D03*
Y-138833D02*
D03*
X203000Y-134768D02*
D03*
Y-138232D02*
D03*
D51*
X159370Y-33500D02*
D03*
X155630D02*
D03*
X84630Y-77500D02*
D03*
X88370D02*
D03*
X384500Y-198000D02*
D03*
X380760D02*
D03*
X84630Y-83000D02*
D03*
X88370D02*
D03*
X113740Y-131500D02*
D03*
X110000D02*
D03*
X112870Y-145000D02*
D03*
X109130D02*
D03*
X112370Y-158500D02*
D03*
X108630D02*
D03*
X100630Y-168000D02*
D03*
X104370D02*
D03*
X106130Y-164000D02*
D03*
X109870D02*
D03*
X270130Y-154500D02*
D03*
X273870D02*
D03*
X270000Y-150500D02*
D03*
X273740D02*
D03*
X405744Y-84339D02*
D03*
X409484D02*
D03*
X409614Y-89339D02*
D03*
X405874D02*
D03*
X409484Y-79839D02*
D03*
X405744D02*
D03*
X233630Y-103000D02*
D03*
X237370D02*
D03*
X233500Y-106500D02*
D03*
X237240D02*
D03*
X372004Y-193500D02*
D03*
X368264D02*
D03*
X372130Y-198000D02*
D03*
X375870D02*
D03*
X159870Y-93500D02*
D03*
X156130D02*
D03*
X199630Y-125000D02*
D03*
X203370D02*
D03*
X245370Y-41000D02*
D03*
X241630D02*
D03*
X203370Y-128500D02*
D03*
X199630D02*
D03*
D52*
X377268Y-193500D02*
D03*
X380732D02*
D03*
X245232Y-44500D02*
D03*
X241768D02*
D03*
X81286Y-94337D02*
D03*
X84751D02*
D03*
X81298Y-89833D02*
D03*
X84762D02*
D03*
X102232Y-83000D02*
D03*
X98768D02*
D03*
X75732Y-149500D02*
D03*
X72268D02*
D03*
X114768Y-164000D02*
D03*
X118232D02*
D03*
X83268Y-238000D02*
D03*
X86732D02*
D03*
X512732Y-135000D02*
D03*
X509268D02*
D03*
X283732Y-149000D02*
D03*
X280268D02*
D03*
X368402Y-188500D02*
D03*
X371866D02*
D03*
X269768Y-188500D02*
D03*
X273232D02*
D03*
X269585Y-206630D02*
D03*
X273050D02*
D03*
X269585Y-202630D02*
D03*
X273050D02*
D03*
X269585Y-211130D02*
D03*
X273050D02*
D03*
X269585Y-215630D02*
D03*
X273050D02*
D03*
X269585Y-220130D02*
D03*
X273050D02*
D03*
X319732Y-217000D02*
D03*
X316268D02*
D03*
X120965Y-158500D02*
D03*
X117500D02*
D03*
X110268Y-169000D02*
D03*
X113732D02*
D03*
X113472Y-127500D02*
D03*
X110008D02*
D03*
X112732Y-141000D02*
D03*
X109268D02*
D03*
X117232Y-155000D02*
D03*
X113768D02*
D03*
X102232Y-78000D02*
D03*
X98768D02*
D03*
X221268Y-217500D02*
D03*
X224732D02*
D03*
X319965Y-221500D02*
D03*
X316500D02*
D03*
X327500Y-66500D02*
D03*
X324035D02*
D03*
X327732Y-78000D02*
D03*
X324268D02*
D03*
X327232Y-52000D02*
D03*
X323768D02*
D03*
X327500Y-63000D02*
D03*
X324035D02*
D03*
X185768Y-129000D02*
D03*
X189232D02*
D03*
X241535Y-30500D02*
D03*
X245000D02*
D03*
X241768Y-34500D02*
D03*
X245232D02*
D03*
X156268Y-211500D02*
D03*
X159732D02*
D03*
D53*
X93000Y-26370D02*
D03*
Y-22630D02*
D03*
X321500Y-196370D02*
D03*
Y-192630D02*
D03*
X95000Y-124130D02*
D03*
Y-127870D02*
D03*
X98500Y-127630D02*
D03*
Y-131370D02*
D03*
X106000Y-127630D02*
D03*
Y-131370D02*
D03*
X87000Y-247870D02*
D03*
Y-244130D02*
D03*
X82500Y-247870D02*
D03*
Y-244130D02*
D03*
X225418Y-137452D02*
D03*
Y-133712D02*
D03*
X261498Y-189513D02*
D03*
Y-193253D02*
D03*
X257499Y-193253D02*
D03*
Y-189513D02*
D03*
X330500Y-216130D02*
D03*
Y-219870D02*
D03*
Y-207130D02*
D03*
Y-210870D02*
D03*
X78500Y-41870D02*
D03*
Y-38130D02*
D03*
X183500Y-106130D02*
D03*
Y-109870D02*
D03*
X178500Y-106130D02*
D03*
Y-109870D02*
D03*
X223500Y-108870D02*
D03*
Y-105130D02*
D03*
X327500Y-73740D02*
D03*
Y-70000D02*
D03*
Y-59370D02*
D03*
Y-55630D02*
D03*
D55*
X110488Y-194161D02*
D03*
Y-201839D02*
D03*
Y-199279D02*
D03*
Y-196721D02*
D03*
D56*
X106000Y-198000D02*
D03*
D57*
X98874Y-194161D02*
D03*
Y-196721D02*
D03*
Y-199279D02*
D03*
Y-201839D02*
D03*
D71*
X37693Y-19500D02*
D03*
X49307D02*
D03*
X90807Y-230500D02*
D03*
X79193D02*
D03*
X37693Y-29000D02*
D03*
X49307D02*
D03*
D72*
X73500Y-87807D02*
D03*
Y-76193D02*
D03*
X123500Y-190500D02*
D03*
Y-202114D02*
D03*
D74*
X14000Y-236500D02*
D03*
D75*
X34000D02*
D03*
D76*
X344000Y-258748D02*
D03*
Y-250874D02*
D03*
Y-243000D02*
D03*
Y-235126D02*
D03*
Y-227252D02*
D03*
D77*
Y-219378D02*
D03*
D78*
X111501Y-249000D02*
D03*
D79*
X131500D02*
D03*
X151500D02*
D03*
X171501D02*
D03*
D80*
X315488Y-259980D02*
D03*
Y-256239D02*
D03*
Y-252500D02*
D03*
Y-248956D02*
D03*
Y-245413D02*
D03*
Y-241869D02*
D03*
Y-238129D02*
D03*
Y-234389D02*
D03*
X321000D02*
D03*
Y-238129D02*
D03*
Y-241869D02*
D03*
Y-245413D02*
D03*
Y-248956D02*
D03*
Y-252500D02*
D03*
Y-256239D02*
D03*
Y-259980D02*
D03*
X286500Y-260024D02*
D03*
Y-256283D02*
D03*
Y-252543D02*
D03*
Y-249000D02*
D03*
Y-245456D02*
D03*
Y-241913D02*
D03*
Y-238173D02*
D03*
Y-234432D02*
D03*
X292012D02*
D03*
Y-238173D02*
D03*
Y-241913D02*
D03*
Y-245456D02*
D03*
Y-249000D02*
D03*
Y-252543D02*
D03*
Y-256283D02*
D03*
Y-260024D02*
D03*
D81*
X310646Y-239311D02*
D03*
Y-255059D02*
D03*
X325842Y-239311D02*
D03*
Y-255059D02*
D03*
X281657Y-255102D02*
D03*
Y-239354D02*
D03*
X296854Y-255102D02*
D03*
Y-239354D02*
D03*
D82*
X134500Y-79500D02*
D03*
D83*
X139500D02*
D03*
X134500Y-84500D02*
D03*
Y-89500D02*
D03*
X139500Y-84500D02*
D03*
Y-89500D02*
D03*
X134500Y-94500D02*
D03*
Y-99500D02*
D03*
X139500Y-94500D02*
D03*
Y-99500D02*
D03*
D84*
X15228Y-45500D02*
D03*
X19772Y-99500D02*
D03*
D85*
X15228Y-15500D02*
D03*
X19772Y-69500D02*
D03*
D86*
X459815Y-90595D02*
D03*
X61500Y-253000D02*
D03*
X89059Y-58095D02*
D03*
D87*
X254067Y-254264D02*
D03*
Y-244421D02*
D03*
Y-234579D02*
D03*
D88*
Y-224736D02*
D03*
D89*
X203000Y-248000D02*
D03*
D90*
X218000D02*
D03*
D91*
X492711Y-216200D02*
D03*
Y-205400D02*
D03*
Y-194600D02*
D03*
Y-183800D02*
D03*
D92*
X503911Y-221600D02*
D03*
Y-210800D02*
D03*
Y-200000D02*
D03*
Y-189200D02*
D03*
D93*
Y-178400D02*
D03*
D94*
X498311Y-150800D02*
D03*
Y-249200D02*
D03*
D95*
X370890Y-251610D02*
D03*
D96*
X363409Y-223658D02*
D03*
X414591Y-235469D02*
D03*
D97*
X398843Y-259091D02*
D03*
X387032Y-207909D02*
D03*
D98*
X148000Y-55500D02*
D03*
D99*
Y-65500D02*
D03*
X138000Y-55500D02*
D03*
Y-65500D02*
D03*
X128000Y-55500D02*
D03*
Y-65500D02*
D03*
D100*
X127059Y-12299D02*
D03*
Y-37894D02*
D03*
D101*
X147000Y-27500D02*
D03*
X78500Y-34500D02*
D03*
X63000Y-29500D02*
D03*
X84000Y-22000D02*
D03*
X61325Y-20498D02*
D03*
X165150Y-199500D02*
D03*
X158850D02*
D03*
X162000Y-202650D02*
D03*
Y-196350D02*
D03*
X447000Y-217894D02*
D03*
Y-212500D02*
D03*
X442512Y-217894D02*
D03*
X432630Y-212500D02*
D03*
X442512Y-222382D02*
D03*
X437118D02*
D03*
Y-208012D02*
D03*
X442512D02*
D03*
Y-212500D02*
D03*
X432630Y-217894D02*
D03*
X437118D02*
D03*
Y-212500D02*
D03*
X228575Y-205500D02*
D03*
X222276D02*
D03*
X225426Y-208649D02*
D03*
Y-202350D02*
D03*
D142*
X28000Y-210425D02*
D03*
X58000Y-98575D02*
D03*
D143*
X33896Y-253000D02*
D03*
X14604D02*
D03*
D144*
X27500Y-40807D02*
D03*
Y-24193D02*
D03*
D156*
X71441Y-100000D02*
D03*
X53441Y-184000D02*
D03*
D157*
X90126Y-152362D02*
D03*
X82126D02*
D03*
D158*
X75500Y-168000D02*
D03*
Y-156189D02*
D03*
Y-131595D02*
D03*
Y-143405D02*
D03*
D166*
X65000Y-223260D02*
D03*
Y-230740D02*
D03*
X71000Y-223260D02*
D03*
Y-230740D02*
D03*
X59146Y-207646D02*
D03*
Y-215126D02*
D03*
X65146Y-207646D02*
D03*
Y-215126D02*
D03*
X71146Y-207646D02*
D03*
Y-215126D02*
D03*
X77146Y-207646D02*
D03*
Y-215126D02*
D03*
X83146Y-207646D02*
D03*
Y-215126D02*
D03*
X89146Y-207646D02*
D03*
Y-215126D02*
D03*
X95146Y-207646D02*
D03*
Y-215126D02*
D03*
X101146Y-207646D02*
D03*
Y-215126D02*
D03*
D168*
X195968Y-132587D02*
D03*
X194000D02*
D03*
X192032D02*
D03*
Y-138413D02*
D03*
X194000D02*
D03*
X195968D02*
D03*
X275257Y-138272D02*
D03*
X277226D02*
D03*
X279194D02*
D03*
Y-144098D02*
D03*
X277226D02*
D03*
X275257D02*
D03*
D172*
X268713Y-115500D02*
D03*
X295287D02*
D03*
X207287Y-159500D02*
D03*
X180713D02*
D03*
D173*
X264000Y-137242D02*
D03*
Y-142758D02*
D03*
X255500Y-137242D02*
D03*
Y-142758D02*
D03*
X216500Y-133742D02*
D03*
Y-139258D02*
D03*
X209000Y-133742D02*
D03*
Y-139258D02*
D03*
D175*
X294000Y-191213D02*
D03*
Y-217787D02*
D03*
D176*
X274258Y-181500D02*
D03*
X268742D02*
D03*
X274258Y-173500D02*
D03*
X268742D02*
D03*
D177*
X273000Y-194000D02*
D03*
Y-195968D02*
D03*
Y-197937D02*
D03*
X267173D02*
D03*
Y-195968D02*
D03*
Y-194000D02*
D03*
D192*
X109500Y-71669D02*
D03*
Y-55331D02*
D03*
D193*
X128051Y-210000D02*
D03*
X121949D02*
D03*
X57051Y-10500D02*
D03*
X50949D02*
D03*
D194*
X235398Y-78500D02*
D03*
X166500Y-28500D02*
D03*
Y-33500D02*
D03*
Y-38500D02*
D03*
Y-43500D02*
D03*
Y-48500D02*
D03*
Y-53500D02*
D03*
Y-58500D02*
D03*
Y-63500D02*
D03*
Y-68500D02*
D03*
Y-73500D02*
D03*
Y-78500D02*
D03*
Y-83500D02*
D03*
Y-88500D02*
D03*
Y-93500D02*
D03*
X235398D02*
D03*
Y-88500D02*
D03*
Y-83500D02*
D03*
Y-73500D02*
D03*
Y-68500D02*
D03*
Y-63500D02*
D03*
Y-58500D02*
D03*
Y-53500D02*
D03*
Y-48500D02*
D03*
Y-43500D02*
D03*
Y-38500D02*
D03*
Y-33500D02*
D03*
Y-28500D02*
D03*
D195*
X198449Y-98421D02*
D03*
X173449D02*
D03*
X178449D02*
D03*
X183449D02*
D03*
X188449D02*
D03*
X193449D02*
D03*
X203449D02*
D03*
X208449D02*
D03*
X213449D02*
D03*
X218449D02*
D03*
X223449D02*
D03*
X228449D02*
D03*
D196*
X109268Y-230084D02*
D03*
D197*
X100075Y-222584D02*
D03*
Y-227584D02*
D03*
Y-232584D02*
D03*
Y-237584D02*
D03*
D198*
X121925D02*
D03*
Y-232584D02*
D03*
Y-227584D02*
D03*
Y-222584D02*
D03*
D199*
X381559Y-180260D02*
D03*
X376441D02*
D03*
Y-187740D02*
D03*
X379000D02*
D03*
X381559D02*
D03*
D200*
X320598Y-225457D02*
D03*
X315401D02*
D03*
X286657Y-228527D02*
D03*
X291854D02*
D03*
D201*
X86835Y-17701D02*
D03*
X66165D02*
D03*
X86835Y-30299D02*
D03*
X66165D02*
D03*
D202*
X86000Y-125449D02*
D03*
Y-131551D02*
D03*
D203*
X93500Y-150000D02*
D03*
D204*
X85626Y-144488D02*
D03*
Y-146063D02*
D03*
Y-147638D02*
D03*
Y-149213D02*
D03*
Y-150787D02*
D03*
Y-152362D02*
D03*
Y-153937D02*
D03*
Y-155512D02*
D03*
X101374D02*
D03*
Y-153937D02*
D03*
Y-152362D02*
D03*
Y-150787D02*
D03*
Y-149213D02*
D03*
Y-147638D02*
D03*
Y-146063D02*
D03*
Y-144488D02*
D03*
D205*
X87988Y-157874D02*
D03*
X89563D02*
D03*
X91138D02*
D03*
X92713D02*
D03*
X94287D02*
D03*
X95862D02*
D03*
X97437D02*
D03*
X99012D02*
D03*
Y-142126D02*
D03*
X97437D02*
D03*
X95862D02*
D03*
X94287D02*
D03*
X92713D02*
D03*
X91138D02*
D03*
X89563D02*
D03*
X87988D02*
D03*
D206*
X165839Y-206685D02*
D03*
X163279D02*
D03*
X160721D02*
D03*
X158161D02*
D03*
Y-192315D02*
D03*
X160721D02*
D03*
X163279D02*
D03*
X165839D02*
D03*
X229264Y-212685D02*
D03*
X226705D02*
D03*
X224146D02*
D03*
X221587D02*
D03*
Y-198315D02*
D03*
X224146D02*
D03*
X226705D02*
D03*
X229264D02*
D03*
D207*
X154815Y-203339D02*
D03*
Y-200780D02*
D03*
Y-198221D02*
D03*
Y-195661D02*
D03*
X169185D02*
D03*
Y-198221D02*
D03*
Y-200780D02*
D03*
Y-203339D02*
D03*
X218241Y-209338D02*
D03*
Y-206779D02*
D03*
Y-204220D02*
D03*
Y-201661D02*
D03*
X232611D02*
D03*
Y-204220D02*
D03*
Y-206779D02*
D03*
Y-209338D02*
D03*
D208*
X162000Y-199500D02*
D03*
X225426Y-205500D02*
D03*
D209*
X328619Y-45119D02*
D03*
X300619D02*
D03*
D210*
X476130Y-103547D02*
D03*
Y-117878D02*
D03*
D211*
X519933Y-90634D02*
D03*
X491587D02*
D03*
Y-130791D02*
D03*
X519933D02*
D03*
D212*
X508709Y-130004D02*
D03*
X503984D02*
D03*
X508709Y-91421D02*
D03*
X499260Y-130004D02*
D03*
X503984Y-91421D02*
D03*
X499260D02*
D03*
D213*
X351276Y-190260D02*
D03*
Y-194000D02*
D03*
Y-197740D02*
D03*
X360724D02*
D03*
Y-194000D02*
D03*
Y-190260D02*
D03*
D214*
X98701Y-39500D02*
D03*
X86299D02*
D03*
D215*
X327500Y-199500D02*
D03*
X331240D02*
D03*
X334980D02*
D03*
Y-187886D02*
D03*
X331240D02*
D03*
X327500D02*
D03*
D216*
X25500Y-130347D02*
D03*
Y-173653D02*
D03*
D217*
X379642Y-68851D02*
D03*
X375311D02*
D03*
X370980D02*
D03*
X366649D02*
D03*
X362319D02*
D03*
X357988D02*
D03*
X353657D02*
D03*
X349326D02*
D03*
Y-138142D02*
D03*
X353657D02*
D03*
X357988D02*
D03*
X362319D02*
D03*
X366649D02*
D03*
X370980D02*
D03*
X375311D02*
D03*
X379642D02*
D03*
X383972D02*
D03*
Y-68851D02*
D03*
D218*
X335744Y-79678D02*
D03*
Y-84008D02*
D03*
Y-88339D02*
D03*
Y-92670D02*
D03*
Y-97000D02*
D03*
Y-101331D02*
D03*
Y-105662D02*
D03*
Y-109993D02*
D03*
Y-114323D02*
D03*
Y-118654D02*
D03*
Y-122985D02*
D03*
Y-127315D02*
D03*
X397555D02*
D03*
Y-122985D02*
D03*
Y-118654D02*
D03*
Y-114323D02*
D03*
Y-109993D02*
D03*
Y-105662D02*
D03*
Y-101331D02*
D03*
Y-97000D02*
D03*
Y-92670D02*
D03*
Y-88339D02*
D03*
Y-84008D02*
D03*
Y-79678D02*
D03*
D219*
X390744Y-147808D02*
D03*
X395744D02*
D03*
X400744D02*
D03*
X405744D02*
D03*
X390744Y-172871D02*
D03*
X395744D02*
D03*
X400744D02*
D03*
X405744D02*
D03*
D220*
X398244Y-160339D02*
D03*
D221*
X201343Y-53382D02*
D03*
Y-58894D02*
D03*
Y-64406D02*
D03*
X206854D02*
D03*
X212366D02*
D03*
Y-58894D02*
D03*
Y-53382D02*
D03*
X206854D02*
D03*
Y-58894D02*
D03*
M02*
