G04*
G04 #@! TF.GenerationSoftware,Altium Limited,Altium Designer,24.5.2 (23)*
G04*
G04 Layer_Color=16711935*
%FSLAX25Y25*%
%MOIN*%
G70*
G04*
G04 #@! TF.SameCoordinates,D39E80A3-1B6C-4955-BD37-BE89A69CF03F*
G04*
G04*
G04 #@! TF.FilePolarity,Positive*
G04*
G01*
G75*
%ADD12C,0.00787*%
%ADD13C,0.00394*%
D12*
X63004Y-8504D02*
X75996D01*
X63004Y-21496D02*
Y-8504D01*
Y-21496D02*
X75996D01*
Y-8504D01*
X28504Y-124496D02*
X41496D01*
X28504D02*
Y-111504D01*
X41496D01*
Y-124496D02*
Y-111504D01*
D13*
X450150Y-224055D02*
G03*
X450150Y-224055I-787J0D01*
G01*
X332976Y-211701D02*
X350693D01*
X332976Y-266425D02*
Y-211701D01*
Y-266425D02*
X350693D01*
Y-211701D01*
X120509Y-154419D02*
X122674D01*
X120509Y-150285D02*
X122674D01*
X120509Y-154419D02*
Y-150285D01*
X122674Y-154419D02*
Y-150285D01*
X107433Y-160083D02*
Y-157917D01*
X111567Y-160083D02*
Y-157917D01*
X107433D02*
X111567D01*
X107433Y-160083D02*
X111567D01*
X16933Y-111083D02*
X21067D01*
X16933Y-108917D02*
X21067D01*
Y-111083D02*
Y-108917D01*
X16933Y-111083D02*
Y-108917D01*
X107942Y-156061D02*
X114241D01*
X107942D02*
Y-144643D01*
X114241D01*
Y-156061D02*
Y-144643D01*
X110501Y-156061D02*
X114241Y-152321D01*
X138567Y-220083D02*
Y-217917D01*
X134433Y-220083D02*
Y-217917D01*
Y-220083D02*
X138567D01*
X134433Y-217917D02*
X138567D01*
X406433Y-222583D02*
X410567D01*
X406433Y-220417D02*
X410567D01*
Y-222583D02*
Y-220417D01*
X406433Y-222583D02*
Y-220417D01*
X418083Y-214067D02*
Y-209933D01*
X415917Y-214067D02*
Y-209933D01*
X418083D01*
X415917Y-214067D02*
X418083D01*
X57665Y-101583D02*
Y-99417D01*
X61799Y-101583D02*
Y-99417D01*
X57665D02*
X61799D01*
X57665Y-101583D02*
X61799D01*
X59083Y-32067D02*
Y-27933D01*
X56917Y-32067D02*
Y-27933D01*
X59083D01*
X56917Y-32067D02*
X59083D01*
X107291Y-30059D02*
X118709D01*
X107291D02*
Y-24941D01*
X118709Y-30059D02*
Y-24941D01*
X107291D02*
X118709D01*
X500614Y-113287D02*
X512386D01*
X500614Y-106713D02*
X512386D01*
X500614Y-113287D02*
Y-106713D01*
X512386Y-113287D02*
Y-106713D01*
X502567Y-100083D02*
Y-97917D01*
X498433Y-100083D02*
Y-97917D01*
Y-100083D02*
X502567D01*
X498433Y-97917D02*
X502567D01*
X488433Y-123083D02*
Y-120917D01*
X492567Y-123083D02*
Y-120917D01*
X488433D02*
X492567D01*
X488433Y-123083D02*
X492567D01*
X502567D02*
Y-120917D01*
X498433Y-123083D02*
Y-120917D01*
Y-123083D02*
X502567D01*
X498433Y-120917D02*
X502567D01*
X511933Y-100083D02*
Y-97917D01*
X516067Y-100083D02*
Y-97917D01*
X511933D02*
X516067D01*
X511933Y-100083D02*
X516067D01*
X362567Y-82083D02*
Y-79917D01*
X358433Y-82083D02*
Y-79917D01*
Y-82083D02*
X362567D01*
X358433Y-79917D02*
X362567D01*
X359205Y-90650D02*
X369795D01*
X359205D02*
Y-84350D01*
X369795Y-90650D02*
Y-84350D01*
X359205D02*
X369795D01*
X362567Y-77583D02*
Y-75417D01*
X358433Y-77583D02*
Y-75417D01*
Y-77583D02*
X362567D01*
X358433Y-75417D02*
X362567D01*
Y-73083D02*
Y-70917D01*
X358433Y-73083D02*
Y-70917D01*
Y-73083D02*
X362567D01*
X358433Y-70917D02*
X362567D01*
X451921Y-227303D02*
Y-203091D01*
X427709Y-227303D02*
Y-203091D01*
Y-227303D02*
X451921D01*
X427709Y-203091D02*
X451921D01*
X134567Y-21583D02*
Y-19417D01*
X130433Y-21583D02*
Y-19417D01*
Y-21583D02*
X134567D01*
X130433Y-19417D02*
X134567D01*
X121933Y-143083D02*
X126067D01*
X121933Y-140917D02*
X126067D01*
Y-143083D02*
Y-140917D01*
X121933Y-143083D02*
Y-140917D01*
X111917Y-18197D02*
Y-14063D01*
X114083Y-18197D02*
Y-14063D01*
X111917Y-18197D02*
X114083D01*
X111917Y-14063D02*
X114083D01*
X117000Y-166500D02*
X142874D01*
X117000Y-208000D02*
X142874D01*
Y-166500D01*
X117000Y-208000D02*
Y-166500D01*
X192587Y-235992D02*
X227232D01*
X192587Y-264339D02*
Y-235992D01*
Y-264339D02*
X227232D01*
Y-235992D01*
X464283Y-215779D02*
Y-213614D01*
X460150Y-215779D02*
Y-213614D01*
Y-215779D02*
X464283D01*
X460150Y-213614D02*
X464283D01*
Y-220083D02*
Y-217917D01*
X460150Y-220083D02*
Y-217917D01*
Y-220083D02*
X464283D01*
X460150Y-217917D02*
X464283D01*
Y-211280D02*
Y-209114D01*
X460150Y-211280D02*
Y-209114D01*
Y-211280D02*
X464283D01*
X460150Y-209114D02*
X464283D01*
X428417Y-196067D02*
X430583D01*
X428417Y-191933D02*
X430583D01*
X428417Y-196067D02*
Y-191933D01*
X430583Y-196067D02*
Y-191933D01*
X437929Y-196079D02*
Y-191945D01*
X440095Y-196079D02*
Y-191945D01*
X437929Y-196079D02*
X440095D01*
X437929Y-191945D02*
X440095D01*
X433417Y-191933D02*
X435583D01*
X433417Y-196067D02*
X435583D01*
Y-191933D01*
X433417Y-196067D02*
Y-191933D01*
X477378Y-183039D02*
X479937Y-185598D01*
X472063Y-183039D02*
X479937D01*
X472063Y-187961D02*
Y-183039D01*
Y-187961D02*
X479937D01*
Y-183039D01*
X459933Y-195429D02*
X464067D01*
X459933Y-197594D02*
X464067D01*
X459933D02*
Y-195429D01*
X464067Y-197594D02*
Y-195429D01*
X459933Y-199929D02*
X464067D01*
X459933Y-202095D02*
X464067D01*
X459933D02*
Y-199929D01*
X464067Y-202095D02*
Y-199929D01*
X450618Y-197886D02*
Y-195721D01*
X454752Y-197886D02*
Y-195721D01*
X450618D02*
X454752D01*
X450618Y-197886D02*
X454752D01*
X419417Y-227433D02*
X421583D01*
X419417Y-231567D02*
X421583D01*
Y-227433D01*
X419417Y-231567D02*
Y-227433D01*
X433067Y-231583D02*
Y-229417D01*
X428933Y-231583D02*
Y-229417D01*
Y-231583D02*
X433067D01*
X428933Y-229417D02*
X433067D01*
X460150Y-204429D02*
X464283D01*
X460150Y-206594D02*
X464283D01*
X460150D02*
Y-204429D01*
X464283Y-206594D02*
Y-204429D01*
X472063Y-199902D02*
X474622Y-202461D01*
X472063D02*
X479937D01*
Y-197539D01*
X472063D02*
X479937D01*
X472063Y-202461D02*
Y-197539D01*
X420079Y-222594D02*
Y-220429D01*
X415945Y-222594D02*
Y-220429D01*
Y-222594D02*
X420079D01*
X415945Y-220429D02*
X420079D01*
X472063Y-229902D02*
X474622Y-232461D01*
X472063D02*
X479937D01*
Y-227539D01*
X472063D02*
X479937D01*
X472063Y-232461D02*
Y-227539D01*
X477378Y-213039D02*
X479937Y-215598D01*
X472063Y-213039D02*
X479937D01*
X472063Y-217961D02*
Y-213039D01*
Y-217961D02*
X479937D01*
Y-213039D01*
X459933Y-228083D02*
Y-225917D01*
X464067Y-228083D02*
Y-225917D01*
X459933D02*
X464067D01*
X459933Y-228083D02*
X464067D01*
X441429Y-235945D02*
X443595D01*
X441429Y-240079D02*
X443595D01*
Y-235945D01*
X441429Y-240079D02*
Y-235945D01*
X430929Y-240579D02*
X433094D01*
X430929Y-236445D02*
X433094D01*
X430929Y-240579D02*
Y-236445D01*
X433094Y-240579D02*
Y-236445D01*
X436429Y-240579D02*
X438594D01*
X436429Y-236445D02*
X438594D01*
X436429Y-240579D02*
Y-236445D01*
X438594Y-240579D02*
Y-236445D01*
X447929Y-235945D02*
X450095D01*
X447929Y-240079D02*
X450095D01*
Y-235945D01*
X447929Y-240079D02*
Y-235945D01*
X146792Y-148152D02*
X148958D01*
X146792Y-144018D02*
X148958D01*
X146792Y-148152D02*
Y-144018D01*
X148958Y-148152D02*
Y-144018D01*
X132808Y-158167D02*
X136942D01*
X132808Y-156002D02*
X136942D01*
Y-158167D02*
Y-156002D01*
X132808Y-158167D02*
Y-156002D01*
X139942Y-140167D02*
Y-138002D01*
X135808Y-140167D02*
Y-138002D01*
Y-140167D02*
X139942D01*
X135808Y-138002D02*
X139942D01*
X122508Y-70501D02*
X153492D01*
Y-70500D02*
Y-50500D01*
X122508Y-50501D02*
X153492D01*
X122508Y-70500D02*
Y-50500D01*
X129417Y-29067D02*
X131583D01*
X129417Y-24933D02*
X131583D01*
X129417Y-29067D02*
Y-24933D01*
X131583Y-29067D02*
Y-24933D01*
X126197Y-147583D02*
Y-145417D01*
X122063Y-147583D02*
Y-145417D01*
Y-147583D02*
X126197D01*
X122063Y-145417D02*
X126197D01*
X111567Y-164083D02*
Y-161917D01*
X107433Y-164083D02*
Y-161917D01*
Y-164083D02*
X111567D01*
X107433Y-161917D02*
X111567D01*
X112693Y-223043D02*
Y-215957D01*
X99307Y-223043D02*
Y-215957D01*
Y-223043D02*
X112693D01*
X99307Y-215957D02*
X112693D01*
X178567Y-225083D02*
Y-222917D01*
X174433Y-225083D02*
Y-222917D01*
Y-225083D02*
X178567D01*
X174433Y-222917D02*
X178567D01*
Y-220583D02*
Y-218417D01*
X174433Y-220583D02*
Y-218417D01*
Y-220583D02*
X178567D01*
X174433Y-218417D02*
X178567D01*
X207417Y-147433D02*
X209583D01*
X207417Y-151567D02*
X209583D01*
Y-147433D01*
X207417Y-151567D02*
Y-147433D01*
X203417D02*
X205583D01*
X203417Y-151567D02*
X205583D01*
Y-147433D01*
X203417Y-151567D02*
Y-147433D01*
X195957Y-215807D02*
X203043D01*
X195957Y-229193D02*
X203043D01*
Y-215807D01*
X195957Y-229193D02*
Y-215807D01*
X170114Y-221799D02*
Y-216681D01*
X158618Y-221799D02*
X170114D01*
X158618D02*
Y-216681D01*
X170114D01*
X166374D02*
X170114Y-220421D01*
M02*
