G04*
G04 #@! TF.GenerationSoftware,Altium Limited,Altium Designer,24.5.2 (23)*
G04*
G04 Layer_Color=8421504*
%FSLAX25Y25*%
%MOIN*%
G70*
G04*
G04 #@! TF.SameCoordinates,D39E80A3-1B6C-4955-BD37-BE89A69CF03F*
G04*
G04*
G04 #@! TF.FilePolarity,Positive*
G04*
G01*
G75*
%ADD15R,0.04606X0.04606*%
%ADD16R,0.03543X0.03150*%
%ADD17R,0.03150X0.03543*%
G04:AMPARAMS|DCode=18|XSize=53.36mil|YSize=18.73mil|CornerRadius=9.37mil|HoleSize=0mil|Usage=FLASHONLY|Rotation=90.000|XOffset=0mil|YOffset=0mil|HoleType=Round|Shape=RoundedRectangle|*
%AMROUNDEDRECTD18*
21,1,0.05336,0.00000,0,0,90.0*
21,1,0.03462,0.01873,0,0,90.0*
1,1,0.01873,0.00000,0.01731*
1,1,0.01873,0.00000,-0.01731*
1,1,0.01873,0.00000,-0.01731*
1,1,0.01873,0.00000,0.01731*
%
%ADD18ROUNDEDRECTD18*%
%ADD19R,0.01873X0.05336*%
%ADD20R,0.02441X0.02598*%
%ADD21R,0.02756X0.02559*%
G04:AMPARAMS|DCode=22|XSize=43.31mil|YSize=23.62mil|CornerRadius=2.01mil|HoleSize=0mil|Usage=FLASHONLY|Rotation=0.000|XOffset=0mil|YOffset=0mil|HoleType=Round|Shape=RoundedRectangle|*
%AMROUNDEDRECTD22*
21,1,0.04331,0.01961,0,0,0.0*
21,1,0.03929,0.02362,0,0,0.0*
1,1,0.00402,0.01965,-0.00980*
1,1,0.00402,-0.01965,-0.00980*
1,1,0.00402,-0.01965,0.00980*
1,1,0.00402,0.01965,0.00980*
%
%ADD22ROUNDEDRECTD22*%
%ADD23R,0.02756X0.05118*%
G04:AMPARAMS|DCode=24|XSize=43.31mil|YSize=23.62mil|CornerRadius=2.01mil|HoleSize=0mil|Usage=FLASHONLY|Rotation=90.000|XOffset=0mil|YOffset=0mil|HoleType=Round|Shape=RoundedRectangle|*
%AMROUNDEDRECTD24*
21,1,0.04331,0.01961,0,0,90.0*
21,1,0.03929,0.02362,0,0,90.0*
1,1,0.00402,0.00980,0.01965*
1,1,0.00402,0.00980,-0.01965*
1,1,0.00402,-0.00980,-0.01965*
1,1,0.00402,-0.00980,0.01965*
%
%ADD24ROUNDEDRECTD24*%
%ADD25R,0.02598X0.02441*%
%ADD26R,0.02559X0.02756*%
%ADD27R,0.04724X0.02362*%
%ADD28R,0.27559X0.27559*%
%ADD29R,0.05906X0.09843*%
%ADD30R,0.08898X0.08504*%
%ADD31R,0.01378X0.01575*%
%ADD32R,0.07598X0.09646*%
%ADD33R,0.02165X0.01378*%
%ADD34R,0.01378X0.02165*%
%ADD35R,0.09646X0.07598*%
%ADD36R,0.01575X0.01378*%
%ADD37R,0.03937X0.02362*%
%ADD38R,0.01968X0.02362*%
%ADD39R,0.02559X0.04331*%
%ADD40R,0.03583X0.04803*%
G04:AMPARAMS|DCode=41|XSize=9.06mil|YSize=23.62mil|CornerRadius=1.95mil|HoleSize=0mil|Usage=FLASHONLY|Rotation=270.000|XOffset=0mil|YOffset=0mil|HoleType=Round|Shape=RoundedRectangle|*
%AMROUNDEDRECTD41*
21,1,0.00906,0.01973,0,0,270.0*
21,1,0.00516,0.02362,0,0,270.0*
1,1,0.00389,-0.00986,-0.00258*
1,1,0.00389,-0.00986,0.00258*
1,1,0.00389,0.00986,0.00258*
1,1,0.00389,0.00986,-0.00258*
%
%ADD41ROUNDEDRECTD41*%
G04:AMPARAMS|DCode=42|XSize=9.06mil|YSize=23.62mil|CornerRadius=1.95mil|HoleSize=0mil|Usage=FLASHONLY|Rotation=180.000|XOffset=0mil|YOffset=0mil|HoleType=Round|Shape=RoundedRectangle|*
%AMROUNDEDRECTD42*
21,1,0.00906,0.01973,0,0,180.0*
21,1,0.00516,0.02362,0,0,180.0*
1,1,0.00389,-0.00258,0.00986*
1,1,0.00389,0.00258,0.00986*
1,1,0.00389,0.00258,-0.00986*
1,1,0.00389,-0.00258,-0.00986*
%
%ADD42ROUNDEDRECTD42*%
%ADD43R,0.07874X0.14173*%
%ADD44R,0.22835X0.24410*%
%ADD45R,0.01968X0.03937*%
%ADD46R,0.07480X0.09449*%
%ADD47R,0.06102X0.07480*%
%ADD48R,0.07480X0.06102*%
%ADD49R,0.02362X0.05118*%
D15*
X439815Y-209803D02*
D03*
X434421D02*
D03*
X445209D02*
D03*
X439815Y-220590D02*
D03*
X434421D02*
D03*
X445209D02*
D03*
Y-215197D02*
D03*
X434421D02*
D03*
X439815D02*
D03*
D16*
X135063Y-25000D02*
D03*
X142937Y-21260D02*
D03*
Y-28740D02*
D03*
D17*
X137875Y-152522D02*
D03*
X134135Y-144648D02*
D03*
X141615D02*
D03*
D18*
X124500Y-23463D02*
D03*
D19*
Y-31537D02*
D03*
D20*
X121591Y-154084D02*
D03*
Y-150620D02*
D03*
X417000Y-210268D02*
D03*
Y-213732D02*
D03*
X58000Y-28268D02*
D03*
Y-31732D02*
D03*
X439012Y-195744D02*
D03*
Y-192280D02*
D03*
X434500Y-192268D02*
D03*
Y-195732D02*
D03*
X442512Y-236280D02*
D03*
Y-239744D02*
D03*
X449012Y-236280D02*
D03*
Y-239744D02*
D03*
D21*
X107630Y-159000D02*
D03*
X111370D02*
D03*
X174630Y-219500D02*
D03*
X138370Y-219000D02*
D03*
X134630D02*
D03*
X502370Y-99000D02*
D03*
X498630D02*
D03*
X502370Y-122000D02*
D03*
X498630D02*
D03*
X512130Y-99000D02*
D03*
X515870D02*
D03*
X134370Y-20500D02*
D03*
X130630D02*
D03*
X125870Y-142000D02*
D03*
X122130D02*
D03*
X464087Y-214697D02*
D03*
X460346D02*
D03*
X464087Y-219000D02*
D03*
X460346D02*
D03*
X464087Y-210197D02*
D03*
X460346D02*
D03*
X450815Y-196803D02*
D03*
X454555D02*
D03*
X460346Y-205512D02*
D03*
X464087D02*
D03*
X419882Y-221512D02*
D03*
X416142D02*
D03*
X136745Y-157085D02*
D03*
X133005D02*
D03*
X139745Y-139085D02*
D03*
X136005D02*
D03*
X126000Y-146500D02*
D03*
X122260D02*
D03*
X111370Y-163000D02*
D03*
X107630D02*
D03*
X178370Y-224000D02*
D03*
X174630D02*
D03*
X178370Y-219500D02*
D03*
D22*
X13882Y-114760D02*
D03*
Y-118500D02*
D03*
Y-122240D02*
D03*
X24118D02*
D03*
Y-118500D02*
D03*
Y-114760D02*
D03*
D23*
X32980Y-131000D02*
D03*
X25500D02*
D03*
X33240Y-139500D02*
D03*
X25760D02*
D03*
D24*
X62760Y-24382D02*
D03*
X66500D02*
D03*
X70240D02*
D03*
Y-34618D02*
D03*
X66500D02*
D03*
X62760D02*
D03*
D25*
X20732Y-110000D02*
D03*
X17268D02*
D03*
X410232Y-221500D02*
D03*
X406768D02*
D03*
X58000Y-100500D02*
D03*
X61465D02*
D03*
X488768Y-122000D02*
D03*
X492232D02*
D03*
X362232Y-81000D02*
D03*
X358768D02*
D03*
X362232Y-76500D02*
D03*
X358768D02*
D03*
X362232Y-72000D02*
D03*
X358768D02*
D03*
X463732Y-196512D02*
D03*
X460268D02*
D03*
X463732Y-201012D02*
D03*
X460268D02*
D03*
X432732Y-230500D02*
D03*
X429268D02*
D03*
X460268Y-227000D02*
D03*
X463732D02*
D03*
D26*
X204500Y-147630D02*
D03*
X113000Y-18000D02*
D03*
Y-14260D02*
D03*
X429500Y-195870D02*
D03*
Y-192130D02*
D03*
X420500Y-227630D02*
D03*
Y-231370D02*
D03*
X432012Y-240382D02*
D03*
Y-236642D02*
D03*
X437512Y-240382D02*
D03*
Y-236642D02*
D03*
X147875Y-147955D02*
D03*
Y-144215D02*
D03*
X130500Y-28870D02*
D03*
Y-25130D02*
D03*
X208500Y-147630D02*
D03*
Y-151370D02*
D03*
X204500D02*
D03*
D27*
X116012Y-154092D02*
D03*
Y-150352D02*
D03*
Y-146612D02*
D03*
X106170D02*
D03*
Y-154092D02*
D03*
D28*
X201555Y-186665D02*
D03*
X98000Y-198500D02*
D03*
D29*
X192500Y-159500D02*
D03*
X210610D02*
D03*
X107055Y-171335D02*
D03*
X88945D02*
D03*
D30*
X34500Y-75854D02*
D03*
Y-95146D02*
D03*
D31*
X75504Y-18839D02*
D03*
Y-11161D02*
D03*
Y-13721D02*
D03*
Y-16280D02*
D03*
D32*
X71016Y-15000D02*
D03*
D33*
X63890Y-18839D02*
D03*
Y-16280D02*
D03*
Y-13721D02*
D03*
Y-11161D02*
D03*
D34*
X38839Y-112390D02*
D03*
X36279D02*
D03*
X33720D02*
D03*
X31161D02*
D03*
D35*
X35000Y-119516D02*
D03*
D36*
X33720Y-124004D02*
D03*
X36279D02*
D03*
X38839D02*
D03*
X31161D02*
D03*
D37*
X400882Y-207760D02*
D03*
X400882Y-211500D02*
D03*
X400882Y-215240D02*
D03*
X411118Y-215241D02*
D03*
X411119Y-207761D02*
D03*
D38*
X113000Y-23563D02*
D03*
X109260Y-31437D02*
D03*
X116740D02*
D03*
D39*
X502760Y-114724D02*
D03*
X506500D02*
D03*
X510240D02*
D03*
Y-105276D02*
D03*
X506500D02*
D03*
X502760D02*
D03*
D40*
X370937Y-87500D02*
D03*
X358063D02*
D03*
D41*
X451232Y-224055D02*
D03*
Y-222087D02*
D03*
Y-220118D02*
D03*
Y-218150D02*
D03*
Y-216181D02*
D03*
Y-214213D02*
D03*
Y-212244D02*
D03*
Y-210276D02*
D03*
Y-208307D02*
D03*
Y-206339D02*
D03*
X428398D02*
D03*
Y-208307D02*
D03*
Y-210276D02*
D03*
Y-212244D02*
D03*
Y-214213D02*
D03*
Y-216181D02*
D03*
Y-218150D02*
D03*
Y-220118D02*
D03*
Y-222087D02*
D03*
Y-224055D02*
D03*
D42*
X448673Y-203780D02*
D03*
X446705D02*
D03*
X444736D02*
D03*
X442768D02*
D03*
X440799D02*
D03*
X438831D02*
D03*
X436862D02*
D03*
X434894D02*
D03*
X432925D02*
D03*
X430957D02*
D03*
Y-226614D02*
D03*
X432925D02*
D03*
X434894D02*
D03*
X436862D02*
D03*
X438831D02*
D03*
X440799D02*
D03*
X442768D02*
D03*
X444736D02*
D03*
X446705D02*
D03*
X448673D02*
D03*
D43*
X139016Y-169677D02*
D03*
X120984D02*
D03*
D44*
X130000Y-198024D02*
D03*
D45*
X476000Y-189437D02*
D03*
X478559Y-181563D02*
D03*
X473441D02*
D03*
X476000Y-196063D02*
D03*
X473441Y-203937D02*
D03*
X478559D02*
D03*
X473441Y-233937D02*
D03*
X478559D02*
D03*
X476000Y-226063D02*
D03*
X478559Y-211563D02*
D03*
X473441D02*
D03*
X476000Y-219437D02*
D03*
D46*
X451571Y-251000D02*
D03*
X435429D02*
D03*
D47*
X111807Y-219500D02*
D03*
X100193D02*
D03*
D48*
X199500Y-216693D02*
D03*
Y-228307D02*
D03*
D49*
X168106Y-215106D02*
D03*
X160626D02*
D03*
X164366Y-223374D02*
D03*
M02*
