G04*
G04 #@! TF.GenerationSoftware,Altium Limited,Altium Designer,24.5.2 (23)*
G04*
G04 Layer_Color=32768*
%FSLAX25Y25*%
%MOIN*%
G70*
G04*
G04 #@! TF.SameCoordinates,D39E80A3-1B6C-4955-BD37-BE89A69CF03F*
G04*
G04*
G04 #@! TF.FilePolarity,Positive*
G04*
G01*
G75*
%ADD12C,0.00787*%
%ADD239C,0.00197*%
D12*
X145102Y-31299D02*
Y-18701D01*
X132898D02*
X145102D01*
X132898Y-31299D02*
Y-18701D01*
Y-31299D02*
X145102D01*
X131576Y-142482D02*
X144174D01*
X131576Y-154687D02*
Y-142482D01*
Y-154687D02*
X144174D01*
Y-142482D01*
X121055Y-35189D02*
X127945D01*
Y-19811D01*
X121055D02*
X127945D01*
X121055Y-35189D02*
Y-19811D01*
X11323Y-111512D02*
X26677D01*
Y-125488D02*
Y-111512D01*
X11323Y-125488D02*
X26677D01*
X11323D02*
Y-111512D01*
X23728Y-134248D02*
X34752D01*
X23728D02*
Y-127752D01*
X34752D01*
Y-134248D02*
Y-127752D01*
X23988Y-142748D02*
X35012D01*
X23988D02*
Y-136252D01*
X35012D01*
Y-142748D02*
Y-136252D01*
X59512Y-37177D02*
X73488D01*
Y-21823D01*
X59512D02*
X73488D01*
X59512Y-37177D02*
Y-21823D01*
X215728Y-200839D02*
Y-154185D01*
X187382D02*
X215728D01*
X187382Y-200839D02*
Y-154185D01*
Y-200839D02*
X215728D01*
X26350Y-99791D02*
X42650D01*
Y-71209D01*
X26350D02*
X42650D01*
X26350Y-99791D02*
Y-71209D01*
X240287Y-264303D02*
Y-214697D01*
X263713D01*
Y-264303D02*
Y-214697D01*
X240287Y-264303D02*
X263713D01*
X431295Y-258087D02*
X455705D01*
X431295D02*
Y-243913D01*
X455705D01*
Y-258087D02*
Y-243913D01*
X83827Y-212673D02*
X112173D01*
X83827D02*
Y-166020D01*
X112173D01*
Y-212673D02*
Y-166020D01*
D239*
X90871Y-228724D02*
X192130D01*
Y-265338D02*
Y-228724D01*
X90871Y-265338D02*
X192130D01*
X90871D02*
Y-228724D01*
X144776Y-103378D02*
Y-75622D01*
X129224Y-103378D02*
X144776D01*
X129224D02*
Y-75622D01*
X144776D01*
X-520Y248D02*
X34520D01*
X-520Y-61248D02*
Y248D01*
Y-61248D02*
X34520D01*
Y248D01*
M02*
