G04*
G04 #@! TF.GenerationSoftware,Altium Limited,Altium Designer,24.5.2 (23)*
G04*
G04 Layer_Color=8388736*
%FSLAX25Y25*%
%MOIN*%
G70*
G04*
G04 #@! TF.SameCoordinates,D39E80A3-1B6C-4955-BD37-BE89A69CF03F*
G04*
G04*
G04 #@! TF.FilePolarity,Positive*
G04*
G01*
G75*
%ADD12C,0.00787*%
%ADD13C,0.00394*%
D12*
X141756Y-30906D02*
Y-19094D01*
X136244D02*
X141756D01*
X136244Y-30906D02*
Y-19094D01*
Y-30906D02*
X141756D01*
X131970Y-145829D02*
X143781D01*
X131970Y-151340D02*
Y-145829D01*
Y-151340D02*
X143781D01*
Y-145829D01*
X122039Y-30847D02*
X126961D01*
Y-24153D01*
X122039D02*
X126961D01*
X122039Y-30847D02*
Y-24153D01*
X15555Y-112496D02*
X22445D01*
Y-124504D02*
Y-112496D01*
X15555Y-124504D02*
X22445D01*
X15555D02*
Y-112496D01*
X24909Y-133854D02*
X33571D01*
X24909D02*
Y-128146D01*
X33571D01*
Y-133854D02*
Y-128146D01*
X25169Y-142354D02*
X33831D01*
X25169D02*
Y-136646D01*
X33831D01*
Y-142354D02*
Y-136646D01*
X60496Y-32945D02*
X72504D01*
Y-26055D01*
X60496D02*
X72504D01*
X60496Y-32945D02*
Y-26055D01*
X214803Y-193004D02*
Y-168516D01*
X188307D02*
X214803D01*
X188307Y-193004D02*
Y-168516D01*
Y-193004D02*
X214803D01*
X26744Y-94850D02*
X42256D01*
Y-76150D01*
X26744D02*
X42256D01*
X26744Y-94850D02*
Y-76150D01*
X240681Y-263910D02*
Y-215090D01*
X263319D01*
Y-263910D02*
Y-215090D01*
X240681Y-263910D02*
X263319D01*
X433264Y-257693D02*
X453736D01*
X433264D02*
Y-244307D01*
X453736D01*
Y-257693D02*
Y-244307D01*
X84752Y-204839D02*
X111248D01*
X84752D02*
Y-180350D01*
X111248D01*
Y-204839D02*
Y-180350D01*
D13*
X97563Y-263960D02*
X185438D01*
X97563Y-230102D02*
X185438D01*
Y-253134D02*
X190949D01*
Y-244866D01*
X185438D02*
X190949D01*
X185438D02*
Y-230102D01*
Y-263960D02*
Y-253134D01*
X97563Y-263960D02*
Y-253134D01*
Y-244866D02*
Y-230102D01*
X92052Y-244866D02*
X97563D01*
X92052Y-253134D02*
Y-244866D01*
Y-253134D02*
X97563D01*
X33733Y-60461D02*
Y-539D01*
X268D02*
X33733D01*
X268Y-60461D02*
Y-539D01*
Y-60461D02*
X33733D01*
M02*
