G04*
G04 #@! TF.GenerationSoftware,Altium Limited,Altium Designer,24.5.2 (23)*
G04*
G04 Layer_Physical_Order=3*
G04 Layer_Color=16440176*
%FSLAX25Y25*%
%MOIN*%
G70*
G04*
G04 #@! TF.SameCoordinates,D39E80A3-1B6C-4955-BD37-BE89A69CF03F*
G04*
G04*
G04 #@! TF.FilePolarity,Positive*
G04*
G01*
G75*
%ADD87C,0.05512*%
%ADD91C,0.06265*%
%ADD94C,0.18399*%
%ADD117C,0.08000*%
%ADD120R,0.05315X0.05315*%
%ADD123R,0.02441X0.02441*%
%ADD126C,0.03740*%
%ADD127C,0.09449*%
G04:AMPARAMS|DCode=128|XSize=94.49mil|YSize=94.49mil|CornerRadius=23.62mil|HoleSize=0mil|Usage=FLASHONLY|Rotation=270.000|XOffset=0mil|YOffset=0mil|HoleType=Round|Shape=RoundedRectangle|*
%AMROUNDEDRECTD128*
21,1,0.09449,0.04724,0,0,270.0*
21,1,0.04724,0.09449,0,0,270.0*
1,1,0.04724,-0.02362,-0.02362*
1,1,0.04724,-0.02362,0.02362*
1,1,0.04724,0.02362,0.02362*
1,1,0.04724,0.02362,-0.02362*
%
%ADD128ROUNDEDRECTD128*%
%ADD133O,0.06299X0.16142*%
%ADD134O,0.16142X0.06299*%
%ADD137C,0.01968*%
G36*
X4500Y-1313D02*
X4500Y-1313D01*
X140263D01*
X156500Y-24500D01*
X250969Y-24500D01*
X251026Y-48500D01*
X525687Y-48500D01*
X525687Y-262094D01*
X525692Y-262115D01*
X525568Y-263051D01*
X525199Y-263942D01*
X524612Y-264707D01*
X523847Y-265294D01*
X522956Y-265663D01*
X522021Y-265786D01*
X522000Y-265782D01*
X4500D01*
X4492Y-265783D01*
X3674Y-265676D01*
X2905Y-265357D01*
X2244Y-264850D01*
X1737Y-264189D01*
X1419Y-263420D01*
X1311Y-262602D01*
X1313Y-262595D01*
Y-238094D01*
Y-4500D01*
X1311Y-4492D01*
X1419Y-3674D01*
X1737Y-2905D01*
X2244Y-2244D01*
X2905Y-1737D01*
X3674Y-1419D01*
X4492Y-1311D01*
X4500Y-1313D01*
D02*
G37*
%LPC*%
G36*
X70915Y-2350D02*
X70085D01*
X69284Y-2565D01*
X68566Y-2980D01*
X67980Y-3566D01*
X67565Y-4284D01*
X67350Y-5085D01*
Y-5915D01*
X67565Y-6716D01*
X67980Y-7434D01*
X68566Y-8020D01*
X69284Y-8435D01*
X70085Y-8650D01*
X70915D01*
X71716Y-8435D01*
X72434Y-8020D01*
X73020Y-7434D01*
X73435Y-6716D01*
X73650Y-5915D01*
Y-5085D01*
X73435Y-4284D01*
X73020Y-3566D01*
X72434Y-2980D01*
X71716Y-2565D01*
X70915Y-2350D01*
D02*
G37*
G36*
X127518Y-8812D02*
X126600D01*
X125713Y-9049D01*
X124918Y-9509D01*
X124268Y-10158D01*
X123809Y-10953D01*
X123572Y-11840D01*
Y-12758D01*
X123809Y-13645D01*
X124268Y-14441D01*
X124918Y-15090D01*
X125713Y-15549D01*
X126600Y-15787D01*
X127518D01*
X128405Y-15549D01*
X129200Y-15090D01*
X129850Y-14441D01*
X130309Y-13645D01*
X130546Y-12758D01*
Y-11840D01*
X130309Y-10953D01*
X129850Y-10158D01*
X129200Y-9509D01*
X128405Y-9049D01*
X127518Y-8812D01*
D02*
G37*
G36*
X92908Y-15949D02*
X92203D01*
X91552Y-16219D01*
X91054Y-16717D01*
X90784Y-17368D01*
Y-18073D01*
X91054Y-18724D01*
X91552Y-19223D01*
X92203Y-19492D01*
X92908D01*
X93559Y-19223D01*
X94058Y-18724D01*
X94327Y-18073D01*
Y-17368D01*
X94058Y-16717D01*
X93559Y-16219D01*
X92908Y-15949D01*
D02*
G37*
G36*
X17591Y-9961D02*
X12866D01*
X12044Y-10069D01*
X11278Y-10387D01*
X10620Y-10892D01*
X10115Y-11549D01*
X9798Y-12316D01*
X9689Y-13138D01*
Y-17862D01*
X9798Y-18684D01*
X10115Y-19451D01*
X10620Y-20109D01*
X11278Y-20613D01*
X12044Y-20931D01*
X12866Y-21039D01*
X17591D01*
X18413Y-20931D01*
X19179Y-20613D01*
X19837Y-20109D01*
X20342Y-19451D01*
X20659Y-18684D01*
X20767Y-17862D01*
Y-13138D01*
X20659Y-12316D01*
X20342Y-11549D01*
X19837Y-10892D01*
X19179Y-10387D01*
X18413Y-10069D01*
X17591Y-9961D01*
D02*
G37*
G36*
X78415Y-2350D02*
X77585D01*
X76784Y-2565D01*
X76066Y-2980D01*
X75480Y-3566D01*
X75065Y-4284D01*
X74850Y-5085D01*
Y-5915D01*
X75065Y-6716D01*
X75480Y-7434D01*
X76066Y-8020D01*
X76784Y-8435D01*
X77450Y-8613D01*
Y-9021D01*
X77284Y-9065D01*
X76566Y-9480D01*
X75980Y-10066D01*
X75565Y-10784D01*
X75350Y-11585D01*
Y-12415D01*
X75565Y-13216D01*
X75980Y-13934D01*
X76566Y-14520D01*
X77003Y-14773D01*
Y-15227D01*
X76566Y-15480D01*
X75980Y-16066D01*
X75565Y-16784D01*
X75350Y-17585D01*
Y-18415D01*
X75565Y-19216D01*
X75980Y-19934D01*
X76566Y-20520D01*
X77284Y-20935D01*
X78085Y-21150D01*
X78915D01*
X79716Y-20935D01*
X80434Y-20520D01*
X81020Y-19934D01*
X81435Y-19216D01*
X81650Y-18415D01*
Y-17585D01*
X81435Y-16784D01*
X81020Y-16066D01*
X80434Y-15480D01*
X79997Y-15227D01*
Y-14773D01*
X80434Y-14520D01*
X81020Y-13934D01*
X81435Y-13216D01*
X81650Y-12415D01*
Y-11585D01*
X81435Y-10784D01*
X81020Y-10066D01*
X80434Y-9480D01*
X79716Y-9065D01*
X79050Y-8887D01*
Y-8479D01*
X79216Y-8435D01*
X79934Y-8020D01*
X80520Y-7434D01*
X80935Y-6716D01*
X81150Y-5915D01*
Y-5085D01*
X80935Y-4284D01*
X80520Y-3566D01*
X79934Y-2980D01*
X79216Y-2565D01*
X78415Y-2350D01*
D02*
G37*
G36*
X61677Y-18726D02*
X60972D01*
X60321Y-18996D01*
X59823Y-19494D01*
X59553Y-20146D01*
Y-20850D01*
X59823Y-21502D01*
X60321Y-22000D01*
X60972Y-22270D01*
X61677D01*
X62328Y-22000D01*
X62827Y-21502D01*
X63096Y-20850D01*
Y-20146D01*
X62827Y-19494D01*
X62328Y-18996D01*
X61677Y-18726D01*
D02*
G37*
G36*
X113352Y-19010D02*
X112648D01*
X111996Y-19280D01*
X111498Y-19778D01*
X111228Y-20429D01*
Y-21134D01*
X111498Y-21785D01*
X111996Y-22283D01*
X112648Y-22553D01*
X113352D01*
X114004Y-22283D01*
X114502Y-21785D01*
X114772Y-21134D01*
Y-20429D01*
X114502Y-19778D01*
X114004Y-19280D01*
X113352Y-19010D01*
D02*
G37*
G36*
X84352Y-20228D02*
X83648D01*
X82996Y-20498D01*
X82498Y-20996D01*
X82228Y-21648D01*
Y-22352D01*
X82498Y-23004D01*
X82996Y-23502D01*
X83648Y-23772D01*
X84352D01*
X85004Y-23502D01*
X85502Y-23004D01*
X85772Y-22352D01*
Y-21648D01*
X85502Y-20996D01*
X85004Y-20498D01*
X84352Y-20228D01*
D02*
G37*
G36*
X78415Y-22350D02*
X77585D01*
X76784Y-22565D01*
X76066Y-22980D01*
X75480Y-23566D01*
X75065Y-24284D01*
X74850Y-25085D01*
Y-25915D01*
X74939Y-26246D01*
X74845Y-26374D01*
X74610Y-26540D01*
X73903Y-26350D01*
X73074D01*
X72272Y-26565D01*
X71554Y-26980D01*
X70968Y-27566D01*
X70553Y-28284D01*
X70339Y-29085D01*
Y-29915D01*
X70553Y-30716D01*
X70968Y-31434D01*
X71554Y-32020D01*
X72272Y-32435D01*
X73074Y-32650D01*
X73903D01*
X74704Y-32435D01*
X75422Y-32020D01*
X76008Y-31434D01*
X76423Y-30716D01*
X76638Y-29915D01*
Y-29085D01*
X76549Y-28754D01*
X76643Y-28626D01*
X76878Y-28460D01*
X77585Y-28650D01*
X78415D01*
X79216Y-28435D01*
X79934Y-28020D01*
X80520Y-27434D01*
X80935Y-26716D01*
X81150Y-25915D01*
Y-25085D01*
X80935Y-24284D01*
X80520Y-23566D01*
X79934Y-22980D01*
X79216Y-22565D01*
X78415Y-22350D01*
D02*
G37*
G36*
X147352Y-25728D02*
X146648D01*
X145996Y-25998D01*
X145498Y-26496D01*
X145228Y-27148D01*
Y-27852D01*
X145498Y-28504D01*
X145996Y-29002D01*
X146648Y-29272D01*
X147352D01*
X148004Y-29002D01*
X148502Y-28504D01*
X148772Y-27852D01*
Y-27148D01*
X148502Y-26496D01*
X148004Y-25998D01*
X147352Y-25728D01*
D02*
G37*
G36*
X112852Y-26228D02*
X112148D01*
X111496Y-26498D01*
X110998Y-26996D01*
X110728Y-27648D01*
Y-28352D01*
X110998Y-29004D01*
X111496Y-29502D01*
X112148Y-29772D01*
X112852D01*
X113504Y-29502D01*
X114002Y-29004D01*
X114272Y-28352D01*
Y-27648D01*
X114002Y-26996D01*
X113504Y-26498D01*
X112852Y-26228D01*
D02*
G37*
G36*
X105852Y-27728D02*
X105148D01*
X104496Y-27998D01*
X103998Y-28496D01*
X103728Y-29148D01*
Y-29852D01*
X103998Y-30504D01*
X104496Y-31002D01*
X105148Y-31272D01*
X105852D01*
X106504Y-31002D01*
X107002Y-30504D01*
X107272Y-29852D01*
Y-29148D01*
X107002Y-28496D01*
X106504Y-27998D01*
X105852Y-27728D01*
D02*
G37*
G36*
X63352D02*
X62648D01*
X61996Y-27998D01*
X61498Y-28496D01*
X61228Y-29148D01*
Y-29852D01*
X61498Y-30504D01*
X61996Y-31002D01*
X62648Y-31272D01*
X63352D01*
X64004Y-31002D01*
X64502Y-30504D01*
X64772Y-29852D01*
Y-29148D01*
X64502Y-28496D01*
X64004Y-27998D01*
X63352Y-27728D01*
D02*
G37*
G36*
X120352Y-29728D02*
X119648D01*
X118996Y-29998D01*
X118498Y-30496D01*
X118228Y-31148D01*
Y-31852D01*
X118498Y-32504D01*
X118996Y-33002D01*
X119648Y-33272D01*
X120352D01*
X121004Y-33002D01*
X121502Y-32504D01*
X121772Y-31852D01*
Y-31148D01*
X121502Y-30496D01*
X121004Y-29998D01*
X120352Y-29728D01*
D02*
G37*
G36*
X133852Y-31228D02*
X133148D01*
X132496Y-31498D01*
X131998Y-31996D01*
X131728Y-32648D01*
Y-33352D01*
X131998Y-34004D01*
X132496Y-34502D01*
X133148Y-34772D01*
X133852D01*
X134504Y-34502D01*
X135002Y-34004D01*
X135272Y-33352D01*
Y-32648D01*
X135002Y-31996D01*
X134504Y-31498D01*
X133852Y-31228D01*
D02*
G37*
G36*
X78852Y-32728D02*
X78148D01*
X77496Y-32998D01*
X76998Y-33496D01*
X76728Y-34148D01*
Y-34852D01*
X76998Y-35504D01*
X77496Y-36002D01*
X78148Y-36272D01*
X78852D01*
X79504Y-36002D01*
X80002Y-35504D01*
X80272Y-34852D01*
Y-34148D01*
X80002Y-33496D01*
X79504Y-32998D01*
X78852Y-32728D01*
D02*
G37*
G36*
X244360Y-36035D02*
X243655D01*
X243004Y-36304D01*
X242506Y-36803D01*
X242236Y-37454D01*
Y-38159D01*
X242506Y-38810D01*
X243004Y-39308D01*
X243655Y-39578D01*
X244360D01*
X245011Y-39308D01*
X245510Y-38810D01*
X245779Y-38159D01*
Y-37454D01*
X245510Y-36803D01*
X245011Y-36304D01*
X244360Y-36035D01*
D02*
G37*
G36*
X154352Y-36228D02*
X153648D01*
X152996Y-36498D01*
X152498Y-36996D01*
X152228Y-37648D01*
Y-38352D01*
X152498Y-39004D01*
X152996Y-39502D01*
X153648Y-39772D01*
X154352D01*
X155004Y-39502D01*
X155502Y-39004D01*
X155772Y-38352D01*
Y-37648D01*
X155502Y-36996D01*
X155004Y-36498D01*
X154352Y-36228D01*
D02*
G37*
G36*
X161352Y-36728D02*
X160648D01*
X159996Y-36998D01*
X159498Y-37496D01*
X159228Y-38148D01*
Y-38852D01*
X159498Y-39504D01*
X159996Y-40002D01*
X160648Y-40272D01*
X161352D01*
X162004Y-40002D01*
X162502Y-39504D01*
X162772Y-38852D01*
Y-38148D01*
X162502Y-37496D01*
X162004Y-36998D01*
X161352Y-36728D01*
D02*
G37*
G36*
X127518Y-34407D02*
X126600D01*
X125713Y-34645D01*
X124918Y-35104D01*
X124268Y-35753D01*
X123809Y-36548D01*
X123572Y-37435D01*
Y-38354D01*
X123809Y-39241D01*
X124268Y-40036D01*
X124918Y-40685D01*
X125713Y-41144D01*
X126600Y-41382D01*
X127518D01*
X128405Y-41144D01*
X129200Y-40685D01*
X129850Y-40036D01*
X130309Y-39241D01*
X130546Y-38354D01*
Y-37435D01*
X130309Y-36548D01*
X129850Y-35753D01*
X129200Y-35104D01*
X128405Y-34645D01*
X127518Y-34407D01*
D02*
G37*
G36*
X139352Y-41728D02*
X138648D01*
X137996Y-41998D01*
X137498Y-42496D01*
X137228Y-43148D01*
Y-43852D01*
X137498Y-44504D01*
X137996Y-45002D01*
X138648Y-45272D01*
X139352D01*
X140004Y-45002D01*
X140502Y-44504D01*
X140772Y-43852D01*
Y-43148D01*
X140502Y-42496D01*
X140004Y-41998D01*
X139352Y-41728D01*
D02*
G37*
G36*
X229852Y-42728D02*
X229148D01*
X228496Y-42998D01*
X227998Y-43496D01*
X227728Y-44148D01*
Y-44852D01*
X227998Y-45504D01*
X228496Y-46002D01*
X229148Y-46272D01*
X229852D01*
X230504Y-46002D01*
X231002Y-45504D01*
X231272Y-44852D01*
Y-44148D01*
X231002Y-43496D01*
X230504Y-42998D01*
X229852Y-42728D01*
D02*
G37*
G36*
X101852Y-44728D02*
X101148D01*
X100496Y-44998D01*
X99998Y-45496D01*
X99728Y-46148D01*
Y-46852D01*
X99998Y-47504D01*
X100496Y-48002D01*
X101148Y-48272D01*
X101852D01*
X102504Y-48002D01*
X103002Y-47504D01*
X103272Y-46852D01*
Y-46148D01*
X103002Y-45496D01*
X102504Y-44998D01*
X101852Y-44728D01*
D02*
G37*
G36*
X241352Y-46728D02*
X240648D01*
X239996Y-46998D01*
X239498Y-47496D01*
X239228Y-48148D01*
Y-48852D01*
X239498Y-49504D01*
X239996Y-50002D01*
X240648Y-50272D01*
X241352D01*
X242004Y-50002D01*
X242502Y-49504D01*
X242772Y-48852D01*
Y-48148D01*
X242502Y-47496D01*
X242004Y-46998D01*
X241352Y-46728D01*
D02*
G37*
G36*
X181852Y-51728D02*
X181148D01*
X180496Y-51998D01*
X179998Y-52496D01*
X179728Y-53148D01*
Y-53852D01*
X179998Y-54504D01*
X180496Y-55002D01*
X181148Y-55272D01*
X181852D01*
X182504Y-55002D01*
X183002Y-54504D01*
X183272Y-53852D01*
Y-53148D01*
X183002Y-52496D01*
X182504Y-51998D01*
X181852Y-51728D01*
D02*
G37*
G36*
X151543Y-51957D02*
X144457D01*
Y-59043D01*
X151543D01*
Y-51957D01*
D02*
G37*
G36*
X138467D02*
X137533D01*
X136632Y-52198D01*
X135824Y-52665D01*
X135165Y-53324D01*
X134698Y-54132D01*
X134457Y-55033D01*
Y-55967D01*
X134698Y-56868D01*
X135165Y-57676D01*
X135824Y-58335D01*
X136632Y-58802D01*
X137533Y-59043D01*
X138467D01*
X139368Y-58802D01*
X140176Y-58335D01*
X140835Y-57676D01*
X141302Y-56868D01*
X141543Y-55967D01*
Y-55033D01*
X141302Y-54132D01*
X140835Y-53324D01*
X140176Y-52665D01*
X139368Y-52198D01*
X138467Y-51957D01*
D02*
G37*
G36*
X128466D02*
X127533D01*
X126632Y-52198D01*
X125824Y-52665D01*
X125165Y-53324D01*
X124698Y-54132D01*
X124457Y-55033D01*
Y-55967D01*
X124698Y-56868D01*
X125165Y-57676D01*
X125824Y-58335D01*
X126632Y-58802D01*
X127533Y-59043D01*
X128466D01*
X129368Y-58802D01*
X130176Y-58335D01*
X130835Y-57676D01*
X131302Y-56868D01*
X131543Y-55967D01*
Y-55033D01*
X131302Y-54132D01*
X130835Y-53324D01*
X130176Y-52665D01*
X129368Y-52198D01*
X128466Y-51957D01*
D02*
G37*
G36*
X229852Y-56728D02*
X229148D01*
X228496Y-56998D01*
X227998Y-57496D01*
X227728Y-58148D01*
Y-58852D01*
X227998Y-59504D01*
X228496Y-60002D01*
X229148Y-60272D01*
X229852D01*
X230504Y-60002D01*
X231002Y-59504D01*
X231272Y-58852D01*
Y-58148D01*
X231002Y-57496D01*
X230504Y-56998D01*
X229852Y-56728D01*
D02*
G37*
G36*
X247206Y-57013D02*
X246501D01*
X245850Y-57283D01*
X245351Y-57781D01*
X245082Y-58432D01*
Y-59137D01*
X245351Y-59788D01*
X245850Y-60286D01*
X246501Y-60556D01*
X247206D01*
X247857Y-60286D01*
X248355Y-59788D01*
X248625Y-59137D01*
Y-58432D01*
X248355Y-57781D01*
X247857Y-57283D01*
X247206Y-57013D01*
D02*
G37*
G36*
X178352Y-57228D02*
X177648D01*
X176996Y-57498D01*
X176498Y-57996D01*
X176228Y-58648D01*
Y-59352D01*
X176498Y-60004D01*
X176996Y-60502D01*
X177648Y-60772D01*
X178352D01*
X179004Y-60502D01*
X179502Y-60004D01*
X179772Y-59352D01*
Y-58648D01*
X179502Y-57996D01*
X179004Y-57498D01*
X178352Y-57228D01*
D02*
G37*
G36*
X224352Y-57728D02*
X223648D01*
X222996Y-57998D01*
X222498Y-58496D01*
X222228Y-59148D01*
Y-59852D01*
X222498Y-60504D01*
X222996Y-61002D01*
X223648Y-61272D01*
X224352D01*
X225004Y-61002D01*
X225502Y-60504D01*
X225772Y-59852D01*
Y-59148D01*
X225502Y-58496D01*
X225004Y-57998D01*
X224352Y-57728D01*
D02*
G37*
G36*
X219352Y-61728D02*
X218648D01*
X217996Y-61998D01*
X217498Y-62496D01*
X217228Y-63148D01*
Y-63852D01*
X217498Y-64504D01*
X217996Y-65002D01*
X218648Y-65272D01*
X219352D01*
X220004Y-65002D01*
X220502Y-64504D01*
X220772Y-63852D01*
Y-63148D01*
X220502Y-62496D01*
X220004Y-61998D01*
X219352Y-61728D01*
D02*
G37*
G36*
X287852Y-62228D02*
X287148D01*
X286496Y-62498D01*
X285998Y-62996D01*
X285728Y-63648D01*
Y-64352D01*
X285998Y-65004D01*
X286496Y-65502D01*
X287148Y-65772D01*
X287852D01*
X288504Y-65502D01*
X289002Y-65004D01*
X289272Y-64352D01*
Y-63648D01*
X289002Y-62996D01*
X288504Y-62498D01*
X287852Y-62228D01*
D02*
G37*
G36*
X174852D02*
X174148D01*
X173496Y-62498D01*
X172998Y-62996D01*
X172728Y-63648D01*
Y-64352D01*
X172998Y-65004D01*
X173496Y-65502D01*
X174148Y-65772D01*
X174852D01*
X175504Y-65502D01*
X176002Y-65004D01*
X176272Y-64352D01*
Y-63648D01*
X176002Y-62996D01*
X175504Y-62498D01*
X174852Y-62228D01*
D02*
G37*
G36*
X89896Y-47465D02*
X88222D01*
X86570Y-47726D01*
X84979Y-48243D01*
X83488Y-49003D01*
X82134Y-49986D01*
X80951Y-51170D01*
X79967Y-52523D01*
X79208Y-54014D01*
X78691Y-55605D01*
X78429Y-57258D01*
Y-58931D01*
X78691Y-60584D01*
X79208Y-62175D01*
X79967Y-63666D01*
X80951Y-65019D01*
X82134Y-66202D01*
X83488Y-67186D01*
X84979Y-67946D01*
X86570Y-68463D01*
X88222Y-68724D01*
X89896D01*
X91548Y-68463D01*
X93139Y-67946D01*
X94630Y-67186D01*
X95984Y-66202D01*
X97167Y-65019D01*
X98151Y-63666D01*
X98910Y-62175D01*
X99427Y-60584D01*
X99689Y-58931D01*
Y-57258D01*
X99427Y-55605D01*
X98910Y-54014D01*
X98151Y-52523D01*
X97167Y-51170D01*
X95984Y-49986D01*
X94630Y-49003D01*
X93139Y-48243D01*
X91548Y-47726D01*
X89896Y-47465D01*
D02*
G37*
G36*
X148467Y-61957D02*
X147534D01*
X146632Y-62198D01*
X145824Y-62665D01*
X145165Y-63324D01*
X144698Y-64132D01*
X144457Y-65034D01*
Y-65966D01*
X144698Y-66868D01*
X145165Y-67676D01*
X145824Y-68335D01*
X146632Y-68802D01*
X147534Y-69043D01*
X148467D01*
X149368Y-68802D01*
X150176Y-68335D01*
X150835Y-67676D01*
X151302Y-66868D01*
X151543Y-65966D01*
Y-65034D01*
X151302Y-64132D01*
X150835Y-63324D01*
X150176Y-62665D01*
X149368Y-62198D01*
X148467Y-61957D01*
D02*
G37*
G36*
X128466D02*
X127533D01*
X126632Y-62198D01*
X125824Y-62665D01*
X125165Y-63324D01*
X124698Y-64132D01*
X124457Y-65034D01*
Y-65966D01*
X124698Y-66868D01*
X125165Y-67676D01*
X125824Y-68335D01*
X126632Y-68802D01*
X127533Y-69043D01*
X128466D01*
X129368Y-68802D01*
X130176Y-68335D01*
X130835Y-67676D01*
X131302Y-66868D01*
X131543Y-65966D01*
Y-65034D01*
X131302Y-64132D01*
X130835Y-63324D01*
X130176Y-62665D01*
X129368Y-62198D01*
X128466Y-61957D01*
D02*
G37*
G36*
X252815Y-66487D02*
X252110D01*
X251459Y-66757D01*
X250960Y-67256D01*
X250691Y-67907D01*
Y-68612D01*
X250960Y-69263D01*
X251459Y-69761D01*
X252110Y-70031D01*
X252815D01*
X253466Y-69761D01*
X253964Y-69263D01*
X254234Y-68612D01*
Y-67907D01*
X253964Y-67256D01*
X253466Y-66757D01*
X252815Y-66487D01*
D02*
G37*
G36*
X197852Y-70228D02*
X197148D01*
X196496Y-70498D01*
X195998Y-70996D01*
X195728Y-71648D01*
Y-72352D01*
X195998Y-73004D01*
X196496Y-73502D01*
X197148Y-73772D01*
X197852D01*
X198504Y-73502D01*
X199002Y-73004D01*
X199272Y-72352D01*
Y-71648D01*
X199002Y-70996D01*
X198504Y-70498D01*
X197852Y-70228D01*
D02*
G37*
G36*
X246133Y-70338D02*
X245429D01*
X244778Y-70608D01*
X244279Y-71106D01*
X244009Y-71757D01*
Y-72462D01*
X244279Y-73113D01*
X244778Y-73612D01*
X245429Y-73882D01*
X246133D01*
X246785Y-73612D01*
X247283Y-73113D01*
X247553Y-72462D01*
Y-71757D01*
X247283Y-71106D01*
X246785Y-70608D01*
X246133Y-70338D01*
D02*
G37*
G36*
X310852Y-70728D02*
X310148D01*
X309496Y-70998D01*
X308998Y-71496D01*
X308728Y-72148D01*
Y-72852D01*
X308998Y-73504D01*
X309496Y-74002D01*
X310148Y-74272D01*
X310852D01*
X311504Y-74002D01*
X312002Y-73504D01*
X312272Y-72852D01*
Y-72148D01*
X312002Y-71496D01*
X311504Y-70998D01*
X310852Y-70728D01*
D02*
G37*
G36*
X133852Y-71728D02*
X133148D01*
X132496Y-71998D01*
X131998Y-72496D01*
X131728Y-73148D01*
Y-73852D01*
X131998Y-74504D01*
X132496Y-75002D01*
X133148Y-75272D01*
X133852D01*
X134504Y-75002D01*
X135002Y-74504D01*
X135272Y-73852D01*
Y-73148D01*
X135002Y-72496D01*
X134504Y-71998D01*
X133852Y-71728D01*
D02*
G37*
G36*
X120852Y-71782D02*
X120148D01*
X119496Y-72052D01*
X118998Y-72550D01*
X118728Y-73201D01*
Y-73906D01*
X118998Y-74557D01*
X119496Y-75055D01*
X120148Y-75325D01*
X120852D01*
X121504Y-75055D01*
X122002Y-74557D01*
X122272Y-73906D01*
Y-73201D01*
X122002Y-72550D01*
X121504Y-72052D01*
X120852Y-71782D01*
D02*
G37*
G36*
X353852Y-73228D02*
X353148D01*
X352496Y-73498D01*
X351998Y-73996D01*
X351728Y-74648D01*
Y-75352D01*
X351998Y-76004D01*
X352496Y-76502D01*
X353148Y-76772D01*
X353852D01*
X354504Y-76502D01*
X355002Y-76004D01*
X355272Y-75352D01*
Y-74648D01*
X355002Y-73996D01*
X354504Y-73498D01*
X353852Y-73228D01*
D02*
G37*
G36*
X298352Y-74228D02*
X297648D01*
X296996Y-74498D01*
X296498Y-74996D01*
X296228Y-75648D01*
Y-76352D01*
X296498Y-77004D01*
X296996Y-77502D01*
X297648Y-77772D01*
X298352D01*
X299004Y-77502D01*
X299502Y-77004D01*
X299772Y-76352D01*
Y-75648D01*
X299502Y-74996D01*
X299004Y-74498D01*
X298352Y-74228D01*
D02*
G37*
G36*
X160852D02*
X160148D01*
X159496Y-74498D01*
X158998Y-74996D01*
X158728Y-75648D01*
Y-76352D01*
X158998Y-77004D01*
X159496Y-77502D01*
X160148Y-77772D01*
X160852D01*
X161504Y-77502D01*
X162002Y-77004D01*
X162272Y-76352D01*
Y-75648D01*
X162002Y-74996D01*
X161504Y-74498D01*
X160852Y-74228D01*
D02*
G37*
G36*
X353852Y-77228D02*
X353148D01*
X352496Y-77498D01*
X351998Y-77996D01*
X351728Y-78648D01*
Y-79352D01*
X351998Y-80004D01*
X352496Y-80502D01*
X353148Y-80772D01*
X353852D01*
X354504Y-80502D01*
X355002Y-80004D01*
X355272Y-79352D01*
Y-78648D01*
X355002Y-77996D01*
X354504Y-77498D01*
X353852Y-77228D01*
D02*
G37*
G36*
X181852Y-77728D02*
X181148D01*
X180496Y-77998D01*
X179998Y-78496D01*
X179728Y-79148D01*
Y-79852D01*
X179998Y-80504D01*
X180496Y-81002D01*
X181148Y-81272D01*
X181852D01*
X182504Y-81002D01*
X183002Y-80504D01*
X183272Y-79852D01*
Y-79148D01*
X183002Y-78496D01*
X182504Y-77998D01*
X181852Y-77728D01*
D02*
G37*
G36*
X248206Y-78015D02*
X247501D01*
X246850Y-78284D01*
X246352Y-78783D01*
X246082Y-79434D01*
Y-80139D01*
X246352Y-80790D01*
X246850Y-81288D01*
X247501Y-81558D01*
X248206D01*
X248857Y-81288D01*
X249356Y-80790D01*
X249625Y-80139D01*
Y-79434D01*
X249356Y-78783D01*
X248857Y-78284D01*
X248206Y-78015D01*
D02*
G37*
G36*
X413852Y-78228D02*
X413148D01*
X412496Y-78498D01*
X411998Y-78996D01*
X411728Y-79648D01*
Y-80352D01*
X411998Y-81004D01*
X412496Y-81502D01*
X413148Y-81772D01*
X413852D01*
X414504Y-81502D01*
X415002Y-81004D01*
X415272Y-80352D01*
Y-79648D01*
X415002Y-78996D01*
X414504Y-78498D01*
X413852Y-78228D01*
D02*
G37*
G36*
X96352Y-76728D02*
X95648D01*
X94996Y-76998D01*
X94498Y-77496D01*
X94228Y-78148D01*
Y-78852D01*
X94498Y-79504D01*
X94994Y-80000D01*
X94498Y-80496D01*
X94228Y-81148D01*
Y-81852D01*
X94498Y-82504D01*
X94996Y-83002D01*
X95648Y-83272D01*
X96352D01*
X97004Y-83002D01*
X97502Y-82504D01*
X97772Y-81852D01*
Y-81148D01*
X97502Y-80496D01*
X97005Y-80000D01*
X97502Y-79504D01*
X97772Y-78852D01*
Y-78148D01*
X97502Y-77496D01*
X97004Y-76998D01*
X96352Y-76728D01*
D02*
G37*
G36*
X301956Y-81177D02*
X301251D01*
X300600Y-81446D01*
X300102Y-81945D01*
X299832Y-82596D01*
Y-83301D01*
X300102Y-83952D01*
X300600Y-84450D01*
X301251Y-84720D01*
X301956D01*
X302607Y-84450D01*
X303106Y-83952D01*
X303375Y-83301D01*
Y-82596D01*
X303106Y-81945D01*
X302607Y-81446D01*
X301956Y-81177D01*
D02*
G37*
G36*
X353852Y-81728D02*
X353148D01*
X352496Y-81998D01*
X351998Y-82496D01*
X351728Y-83148D01*
Y-83852D01*
X351998Y-84504D01*
X352496Y-85002D01*
X353148Y-85272D01*
X353852D01*
X354504Y-85002D01*
X355002Y-84504D01*
X355272Y-83852D01*
Y-83148D01*
X355002Y-82496D01*
X354504Y-81998D01*
X353852Y-81728D01*
D02*
G37*
G36*
X159865Y-82598D02*
X159160D01*
X158509Y-82868D01*
X158011Y-83366D01*
X157741Y-84017D01*
Y-84722D01*
X158011Y-85373D01*
X158509Y-85872D01*
X159160Y-86142D01*
X159865D01*
X160516Y-85872D01*
X161014Y-85373D01*
X161284Y-84722D01*
Y-84017D01*
X161014Y-83366D01*
X160516Y-82868D01*
X159865Y-82598D01*
D02*
G37*
G36*
X279352Y-82728D02*
X278648D01*
X277996Y-82998D01*
X277498Y-83496D01*
X277228Y-84148D01*
Y-84852D01*
X277498Y-85504D01*
X277996Y-86002D01*
X278648Y-86272D01*
X279352D01*
X280004Y-86002D01*
X280502Y-85504D01*
X280772Y-84852D01*
Y-84148D01*
X280502Y-83496D01*
X280004Y-82998D01*
X279352Y-82728D01*
D02*
G37*
G36*
X320250Y-84013D02*
X319545D01*
X318894Y-84283D01*
X318395Y-84781D01*
X318126Y-85433D01*
Y-86137D01*
X318395Y-86789D01*
X318894Y-87287D01*
X319545Y-87557D01*
X320250D01*
X320901Y-87287D01*
X321399Y-86789D01*
X321669Y-86137D01*
Y-85433D01*
X321399Y-84781D01*
X320901Y-84283D01*
X320250Y-84013D01*
D02*
G37*
G36*
X86352Y-84728D02*
X85648D01*
X84996Y-84998D01*
X84498Y-85496D01*
X84228Y-86148D01*
Y-86852D01*
X84498Y-87504D01*
X84996Y-88002D01*
X85648Y-88272D01*
X86352D01*
X87004Y-88002D01*
X87502Y-87504D01*
X87772Y-86852D01*
Y-86148D01*
X87502Y-85496D01*
X87004Y-84998D01*
X86352Y-84728D01*
D02*
G37*
G36*
X353852Y-85728D02*
X353148D01*
X352496Y-85998D01*
X351998Y-86496D01*
X351728Y-87148D01*
Y-87852D01*
X351998Y-88504D01*
X352496Y-89002D01*
X353148Y-89272D01*
X353852D01*
X354504Y-89002D01*
X355002Y-88504D01*
X355272Y-87852D01*
Y-87148D01*
X355002Y-86496D01*
X354504Y-85998D01*
X353852Y-85728D01*
D02*
G37*
G36*
X174892Y-86181D02*
X174187D01*
X173536Y-86450D01*
X173038Y-86949D01*
X172768Y-87600D01*
Y-88305D01*
X173038Y-88956D01*
X173536Y-89454D01*
X174187Y-89724D01*
X174892D01*
X175543Y-89454D01*
X176042Y-88956D01*
X176311Y-88305D01*
Y-87600D01*
X176042Y-86949D01*
X175543Y-86450D01*
X174892Y-86181D01*
D02*
G37*
G36*
X315852Y-86728D02*
X315148D01*
X314496Y-86998D01*
X313998Y-87496D01*
X313728Y-88148D01*
Y-88852D01*
X313998Y-89504D01*
X314496Y-90002D01*
X315148Y-90272D01*
X315852D01*
X316504Y-90002D01*
X317002Y-89504D01*
X317272Y-88852D01*
Y-88148D01*
X317002Y-87496D01*
X316504Y-86998D01*
X315852Y-86728D01*
D02*
G37*
G36*
X184352D02*
X183648D01*
X182996Y-86998D01*
X182498Y-87496D01*
X182228Y-88148D01*
Y-88852D01*
X182498Y-89504D01*
X182996Y-90002D01*
X183648Y-90272D01*
X184352D01*
X185004Y-90002D01*
X185502Y-89504D01*
X185772Y-88852D01*
Y-88148D01*
X185502Y-87496D01*
X185004Y-86998D01*
X184352Y-86728D01*
D02*
G37*
G36*
X189678Y-87264D02*
X188973D01*
X188322Y-87534D01*
X187823Y-88033D01*
X187554Y-88684D01*
Y-89389D01*
X187823Y-90040D01*
X188322Y-90538D01*
X188973Y-90808D01*
X189678D01*
X190329Y-90538D01*
X190827Y-90040D01*
X191097Y-89389D01*
Y-88684D01*
X190827Y-88033D01*
X190329Y-87534D01*
X189678Y-87264D01*
D02*
G37*
G36*
X178352Y-89228D02*
X177648D01*
X176996Y-89498D01*
X176498Y-89996D01*
X176228Y-90648D01*
Y-91352D01*
X176498Y-92004D01*
X176996Y-92502D01*
X177648Y-92772D01*
X178352D01*
X179004Y-92502D01*
X179502Y-92004D01*
X179772Y-91352D01*
Y-90648D01*
X179502Y-89996D01*
X179004Y-89498D01*
X178352Y-89228D01*
D02*
G37*
G36*
X348342Y-74245D02*
X339878D01*
Y-93733D01*
X348342D01*
Y-74245D01*
D02*
G37*
G36*
X306352Y-90728D02*
X305648D01*
X304996Y-90998D01*
X304498Y-91496D01*
X304228Y-92148D01*
Y-92852D01*
X304498Y-93504D01*
X304996Y-94002D01*
X305648Y-94272D01*
X306352D01*
X307004Y-94002D01*
X307502Y-93504D01*
X307772Y-92852D01*
Y-92148D01*
X307502Y-91496D01*
X307004Y-90998D01*
X306352Y-90728D01*
D02*
G37*
G36*
X274352Y-93728D02*
X273648D01*
X272996Y-93998D01*
X272516Y-94479D01*
X272035Y-93998D01*
X271384Y-93728D01*
X270679D01*
X270028Y-93998D01*
X269530Y-94496D01*
X269260Y-95148D01*
Y-95852D01*
X269530Y-96504D01*
X270028Y-97002D01*
X270679Y-97272D01*
X271384D01*
X272035Y-97002D01*
X272516Y-96521D01*
X272996Y-97002D01*
X273648Y-97272D01*
X274352D01*
X275004Y-97002D01*
X275502Y-96504D01*
X275772Y-95852D01*
Y-95148D01*
X275502Y-94496D01*
X275004Y-93998D01*
X274352Y-93728D01*
D02*
G37*
G36*
X410136Y-92204D02*
X409431D01*
X408780Y-92473D01*
X408281Y-92972D01*
X408012Y-93623D01*
Y-94328D01*
X408281Y-94979D01*
X408780Y-95477D01*
X409431Y-95747D01*
X410136D01*
X410787Y-95477D01*
X411285Y-94979D01*
X411555Y-94328D01*
Y-93623D01*
X411285Y-92972D01*
X410787Y-92473D01*
X410136Y-92204D01*
D02*
G37*
G36*
X61852Y-94228D02*
X61148D01*
X60496Y-94498D01*
X59998Y-94996D01*
X59728Y-95648D01*
Y-96352D01*
X59998Y-97004D01*
X60496Y-97502D01*
X61148Y-97772D01*
X61852D01*
X62504Y-97502D01*
X63002Y-97004D01*
X63272Y-96352D01*
Y-95648D01*
X63002Y-94996D01*
X62504Y-94498D01*
X61852Y-94228D01*
D02*
G37*
G36*
X154852Y-95228D02*
X154148D01*
X153496Y-95498D01*
X152998Y-95996D01*
X152728Y-96648D01*
Y-97352D01*
X152998Y-98004D01*
X153496Y-98502D01*
X154148Y-98772D01*
X154852D01*
X155504Y-98502D01*
X156002Y-98004D01*
X156272Y-97352D01*
Y-96648D01*
X156002Y-95996D01*
X155504Y-95498D01*
X154852Y-95228D01*
D02*
G37*
G36*
X69352D02*
X68648D01*
X67996Y-95498D01*
X67498Y-95996D01*
X67228Y-96648D01*
Y-97352D01*
X67498Y-98004D01*
X67996Y-98502D01*
X68648Y-98772D01*
X69352D01*
X70004Y-98502D01*
X70502Y-98004D01*
X70772Y-97352D01*
Y-96648D01*
X70502Y-95996D01*
X70004Y-95498D01*
X69352Y-95228D01*
D02*
G37*
G36*
X160352Y-95728D02*
X159648D01*
X158996Y-95998D01*
X158498Y-96496D01*
X158228Y-97148D01*
Y-97852D01*
X158498Y-98504D01*
X158996Y-99002D01*
X159648Y-99272D01*
X160352D01*
X161004Y-99002D01*
X161502Y-98504D01*
X161772Y-97852D01*
Y-97148D01*
X161502Y-96496D01*
X161004Y-95998D01*
X160352Y-95728D01*
D02*
G37*
G36*
X482859Y-96536D02*
X482154D01*
X481502Y-96805D01*
X481004Y-97304D01*
X480734Y-97955D01*
Y-98660D01*
X481004Y-99311D01*
X481502Y-99809D01*
X482154Y-100079D01*
X482859D01*
X483510Y-99809D01*
X484008Y-99311D01*
X484278Y-98660D01*
Y-97955D01*
X484008Y-97304D01*
X483510Y-96805D01*
X482859Y-96536D01*
D02*
G37*
G36*
X164852Y-97228D02*
X164148D01*
X163496Y-97498D01*
X162998Y-97996D01*
X162728Y-98648D01*
Y-99352D01*
X162998Y-100004D01*
X163496Y-100502D01*
X164148Y-100772D01*
X164852D01*
X165504Y-100502D01*
X166002Y-100004D01*
X166272Y-99352D01*
Y-98648D01*
X166002Y-97996D01*
X165504Y-97498D01*
X164852Y-97228D01*
D02*
G37*
G36*
X519927Y-97508D02*
X519222D01*
X518571Y-97777D01*
X518073Y-98276D01*
X517803Y-98927D01*
Y-99632D01*
X518073Y-100283D01*
X518571Y-100781D01*
X519222Y-101051D01*
X519927D01*
X520578Y-100781D01*
X521077Y-100283D01*
X521346Y-99632D01*
Y-98927D01*
X521077Y-98276D01*
X520578Y-97777D01*
X519927Y-97508D01*
D02*
G37*
G36*
X460652Y-79965D02*
X458978D01*
X457326Y-80226D01*
X455734Y-80743D01*
X454244Y-81503D01*
X452890Y-82486D01*
X451707Y-83670D01*
X450723Y-85023D01*
X449964Y-86514D01*
X449447Y-88105D01*
X449185Y-89758D01*
Y-91431D01*
X449447Y-93084D01*
X449964Y-94675D01*
X450723Y-96166D01*
X451707Y-97519D01*
X452890Y-98703D01*
X454244Y-99686D01*
X455734Y-100446D01*
X457326Y-100963D01*
X458978Y-101224D01*
X460652D01*
X462304Y-100963D01*
X463895Y-100446D01*
X465386Y-99686D01*
X466740Y-98703D01*
X467923Y-97519D01*
X468906Y-96166D01*
X469666Y-94675D01*
X470183Y-93084D01*
X470445Y-91431D01*
Y-89758D01*
X470183Y-88105D01*
X469666Y-86514D01*
X468906Y-85023D01*
X467923Y-83670D01*
X466740Y-82486D01*
X465386Y-81503D01*
X463895Y-80743D01*
X462304Y-80226D01*
X460652Y-79965D01*
D02*
G37*
G36*
X135435Y-76809D02*
X133565D01*
X132893Y-76942D01*
X132323Y-77323D01*
X131942Y-77893D01*
X131809Y-78565D01*
Y-80435D01*
X131942Y-81107D01*
X132323Y-81677D01*
X132893Y-82057D01*
X133565Y-82191D01*
X135435D01*
X136107Y-82057D01*
X136677Y-81677D01*
X136976Y-81230D01*
X137168Y-81182D01*
X137354Y-81176D01*
X137436Y-81195D01*
X137868Y-81626D01*
X138121Y-81773D01*
Y-82227D01*
X137868Y-82373D01*
X137373Y-82868D01*
X137024Y-83474D01*
X136843Y-84150D01*
Y-84850D01*
X137024Y-85526D01*
X137373Y-86132D01*
X137868Y-86626D01*
X138121Y-86773D01*
Y-87227D01*
X137868Y-87374D01*
X137373Y-87868D01*
X137024Y-88474D01*
X136843Y-89150D01*
Y-89850D01*
X137024Y-90526D01*
X137373Y-91132D01*
X137868Y-91627D01*
X138121Y-91773D01*
Y-92227D01*
X137868Y-92374D01*
X137373Y-92868D01*
X137024Y-93474D01*
X136843Y-94150D01*
Y-94850D01*
X137024Y-95526D01*
X137373Y-96132D01*
X137868Y-96627D01*
X138121Y-96773D01*
Y-97227D01*
X137868Y-97373D01*
X137373Y-97868D01*
X137024Y-98474D01*
X136843Y-99150D01*
Y-99850D01*
X137024Y-100526D01*
X137373Y-101132D01*
X137868Y-101627D01*
X138474Y-101976D01*
X139150Y-102157D01*
X139850D01*
X140526Y-101976D01*
X141132Y-101627D01*
X141627Y-101132D01*
X141976Y-100526D01*
X142157Y-99850D01*
Y-99150D01*
X141976Y-98474D01*
X141627Y-97868D01*
X141132Y-97373D01*
X140878Y-97227D01*
Y-96773D01*
X141132Y-96627D01*
X141627Y-96132D01*
X141976Y-95526D01*
X142157Y-94850D01*
Y-94150D01*
X141976Y-93474D01*
X141627Y-92868D01*
X141132Y-92374D01*
X140878Y-92227D01*
Y-91773D01*
X141132Y-91627D01*
X141627Y-91132D01*
X141976Y-90526D01*
X142157Y-89850D01*
Y-89150D01*
X141976Y-88474D01*
X141627Y-87868D01*
X141132Y-87374D01*
X140878Y-87227D01*
Y-86773D01*
X141132Y-86626D01*
X141627Y-86132D01*
X141976Y-85526D01*
X142157Y-84850D01*
Y-84150D01*
X141976Y-83474D01*
X141627Y-82868D01*
X141132Y-82373D01*
X140878Y-82227D01*
Y-81773D01*
X141132Y-81626D01*
X141627Y-81132D01*
X141976Y-80526D01*
X142157Y-79850D01*
Y-79150D01*
X141976Y-78474D01*
X141627Y-77868D01*
X141132Y-77373D01*
X140526Y-77024D01*
X139850Y-76842D01*
X139150D01*
X138474Y-77024D01*
X137868Y-77373D01*
X137436Y-77805D01*
X137354Y-77824D01*
X137168Y-77818D01*
X136976Y-77770D01*
X136677Y-77323D01*
X136107Y-76942D01*
X135435Y-76809D01*
D02*
G37*
G36*
X505732Y-96644D02*
X505027D01*
X504376Y-96914D01*
X503878Y-97413D01*
X503608Y-98064D01*
Y-98768D01*
X503878Y-99420D01*
X504376Y-99918D01*
X505027Y-100188D01*
X505732D01*
X505782Y-100167D01*
X506152Y-100440D01*
Y-100929D01*
X506422Y-101580D01*
X506920Y-102078D01*
X507571Y-102348D01*
X508276D01*
X508927Y-102078D01*
X509426Y-101580D01*
X509695Y-100929D01*
Y-100224D01*
X509426Y-99573D01*
X508927Y-99074D01*
X508276Y-98805D01*
X507571D01*
X507521Y-98825D01*
X507151Y-98552D01*
Y-98064D01*
X506882Y-97413D01*
X506383Y-96914D01*
X505732Y-96644D01*
D02*
G37*
G36*
X367352Y-99728D02*
X366648D01*
X365996Y-99998D01*
X365498Y-100496D01*
X365228Y-101148D01*
Y-101852D01*
X365498Y-102504D01*
X365996Y-103002D01*
X366648Y-103272D01*
X367352D01*
X368004Y-103002D01*
X368502Y-102504D01*
X368772Y-101852D01*
Y-101148D01*
X368502Y-100496D01*
X368004Y-99998D01*
X367352Y-99728D01*
D02*
G37*
G36*
X326852D02*
X326148D01*
X325496Y-99998D01*
X324998Y-100496D01*
X324728Y-101148D01*
Y-101852D01*
X324998Y-102504D01*
X325496Y-103002D01*
X326148Y-103272D01*
X326852D01*
X327504Y-103002D01*
X328002Y-102504D01*
X328272Y-101852D01*
Y-101148D01*
X328002Y-100496D01*
X327504Y-99998D01*
X326852Y-99728D01*
D02*
G37*
G36*
X495852Y-101228D02*
X495148D01*
X494496Y-101498D01*
X493998Y-101996D01*
X493728Y-102648D01*
Y-103352D01*
X493998Y-104004D01*
X494496Y-104502D01*
X495148Y-104772D01*
X495852D01*
X496504Y-104502D01*
X497002Y-104004D01*
X497272Y-103352D01*
Y-102648D01*
X497002Y-101996D01*
X496504Y-101498D01*
X495852Y-101228D01*
D02*
G37*
G36*
X444852D02*
X444148D01*
X443496Y-101498D01*
X442998Y-101996D01*
X442728Y-102648D01*
Y-103352D01*
X442998Y-104004D01*
X443496Y-104502D01*
X444148Y-104772D01*
X444852D01*
X445504Y-104502D01*
X446002Y-104004D01*
X446272Y-103352D01*
Y-102648D01*
X446002Y-101996D01*
X445504Y-101498D01*
X444852Y-101228D01*
D02*
G37*
G36*
X151852D02*
X151148D01*
X150496Y-101498D01*
X149998Y-101996D01*
X149728Y-102648D01*
Y-103352D01*
X149998Y-104004D01*
X150496Y-104502D01*
X151148Y-104772D01*
X151852D01*
X152504Y-104502D01*
X153002Y-104004D01*
X153272Y-103352D01*
Y-102648D01*
X153002Y-101996D01*
X152504Y-101498D01*
X151852Y-101228D01*
D02*
G37*
G36*
X183875Y-101458D02*
X183170D01*
X182519Y-101728D01*
X182020Y-102226D01*
X181751Y-102877D01*
Y-103582D01*
X182020Y-104233D01*
X182519Y-104731D01*
X183170Y-105001D01*
X183875D01*
X184526Y-104731D01*
X185024Y-104233D01*
X185294Y-103582D01*
Y-102877D01*
X185024Y-102226D01*
X184526Y-101728D01*
X183875Y-101458D01*
D02*
G37*
G36*
X178875D02*
X178170D01*
X177519Y-101728D01*
X177020Y-102226D01*
X176751Y-102877D01*
Y-103582D01*
X177020Y-104233D01*
X177519Y-104731D01*
X178170Y-105001D01*
X178875D01*
X179526Y-104731D01*
X180024Y-104233D01*
X180294Y-103582D01*
Y-102877D01*
X180024Y-102226D01*
X179526Y-101728D01*
X178875Y-101458D01*
D02*
G37*
G36*
X20497Y-93988D02*
X19046D01*
X17644Y-94364D01*
X16387Y-95090D01*
X15361Y-96116D01*
X14636Y-97373D01*
X14260Y-98774D01*
Y-100226D01*
X14636Y-101628D01*
X15361Y-102884D01*
X16387Y-103911D01*
X17644Y-104636D01*
X19046Y-105012D01*
X20497D01*
X21899Y-104636D01*
X23156Y-103911D01*
X24182Y-102884D01*
X24908Y-101628D01*
X25284Y-100226D01*
Y-98774D01*
X24908Y-97373D01*
X24182Y-96116D01*
X23156Y-95090D01*
X21899Y-94364D01*
X20497Y-93988D01*
D02*
G37*
G36*
X241985Y-102268D02*
X241280D01*
X240629Y-102538D01*
X240131Y-103036D01*
X239861Y-103687D01*
Y-104392D01*
X240131Y-105043D01*
X240629Y-105542D01*
X241280Y-105811D01*
X241985D01*
X242636Y-105542D01*
X243134Y-105043D01*
X243404Y-104392D01*
Y-103687D01*
X243134Y-103036D01*
X242636Y-102538D01*
X241985Y-102268D01*
D02*
G37*
G36*
X413852Y-102728D02*
X413148D01*
X412496Y-102998D01*
X411998Y-103496D01*
X411728Y-104148D01*
Y-104852D01*
X411998Y-105504D01*
X412496Y-106002D01*
X413148Y-106272D01*
X413852D01*
X414504Y-106002D01*
X415002Y-105504D01*
X415272Y-104852D01*
Y-104148D01*
X415002Y-103496D01*
X414504Y-102998D01*
X413852Y-102728D01*
D02*
G37*
G36*
X213852D02*
X213148D01*
X212496Y-102998D01*
X211998Y-103496D01*
X211728Y-104148D01*
Y-104852D01*
X211998Y-105504D01*
X212496Y-106002D01*
X213148Y-106272D01*
X213852D01*
X214504Y-106002D01*
X215002Y-105504D01*
X215272Y-104852D01*
Y-104148D01*
X215002Y-103496D01*
X214504Y-102998D01*
X213852Y-102728D01*
D02*
G37*
G36*
X199837Y-103228D02*
X199132D01*
X198481Y-103498D01*
X197982Y-103996D01*
X197713Y-104648D01*
Y-105352D01*
X197982Y-106004D01*
X198481Y-106502D01*
X199132Y-106772D01*
X199837D01*
X200488Y-106502D01*
X200986Y-106004D01*
X201256Y-105352D01*
Y-104648D01*
X200986Y-103996D01*
X200488Y-103498D01*
X199837Y-103228D01*
D02*
G37*
G36*
X171385Y-104083D02*
X170680D01*
X170029Y-104353D01*
X169530Y-104851D01*
X169261Y-105502D01*
Y-106207D01*
X169530Y-106858D01*
X170029Y-107357D01*
X170680Y-107626D01*
X171385D01*
X172036Y-107357D01*
X172534Y-106858D01*
X172804Y-106207D01*
Y-105502D01*
X172534Y-104851D01*
X172036Y-104353D01*
X171385Y-104083D01*
D02*
G37*
G36*
X128352Y-104228D02*
X127648D01*
X126996Y-104498D01*
X126498Y-104996D01*
X126228Y-105648D01*
Y-106352D01*
X126498Y-107004D01*
X126996Y-107502D01*
X127648Y-107772D01*
X128352D01*
X129004Y-107502D01*
X129502Y-107004D01*
X129772Y-106352D01*
Y-105648D01*
X129502Y-104996D01*
X129004Y-104498D01*
X128352Y-104228D01*
D02*
G37*
G36*
X218852Y-105228D02*
X218148D01*
X217496Y-105498D01*
X216998Y-105996D01*
X216728Y-106648D01*
Y-107352D01*
X216998Y-108004D01*
X217496Y-108502D01*
X218148Y-108772D01*
X218852D01*
X219504Y-108502D01*
X220002Y-108004D01*
X220272Y-107352D01*
Y-106648D01*
X220002Y-105996D01*
X219504Y-105498D01*
X218852Y-105228D01*
D02*
G37*
G36*
X372852Y-106228D02*
X372148D01*
X371496Y-106498D01*
X370998Y-106996D01*
X370728Y-107648D01*
Y-108352D01*
X370998Y-109004D01*
X371496Y-109502D01*
X372148Y-109772D01*
X372852D01*
X373504Y-109502D01*
X374002Y-109004D01*
X374272Y-108352D01*
Y-107648D01*
X374002Y-106996D01*
X373504Y-106498D01*
X372852Y-106228D01*
D02*
G37*
G36*
X323352Y-106728D02*
X322648D01*
X321996Y-106998D01*
X321498Y-107496D01*
X321228Y-108148D01*
Y-108852D01*
X321498Y-109504D01*
X321996Y-110002D01*
X322648Y-110272D01*
X323352D01*
X324004Y-110002D01*
X324502Y-109504D01*
X324772Y-108852D01*
Y-108148D01*
X324502Y-107496D01*
X324004Y-106998D01*
X323352Y-106728D01*
D02*
G37*
G36*
X187830D02*
X187126D01*
X186474Y-106998D01*
X185976Y-107496D01*
X185706Y-108148D01*
Y-108852D01*
X185976Y-109504D01*
X186474Y-110002D01*
X187126Y-110272D01*
X187830D01*
X188481Y-110002D01*
X188980Y-109504D01*
X189250Y-108852D01*
Y-108148D01*
X188980Y-107496D01*
X188481Y-106998D01*
X187830Y-106728D01*
D02*
G37*
G36*
X515352Y-107228D02*
X514648D01*
X513996Y-107498D01*
X513498Y-107996D01*
X513228Y-108648D01*
Y-109352D01*
X513498Y-110004D01*
X513996Y-110502D01*
X514648Y-110772D01*
X515352D01*
X516004Y-110502D01*
X516502Y-110004D01*
X516772Y-109352D01*
Y-108648D01*
X516502Y-107996D01*
X516004Y-107498D01*
X515352Y-107228D01*
D02*
G37*
G36*
X420352D02*
X419648D01*
X418996Y-107498D01*
X418498Y-107996D01*
X418228Y-108648D01*
Y-109352D01*
X418498Y-110004D01*
X418996Y-110502D01*
X419648Y-110772D01*
X420352D01*
X421004Y-110502D01*
X421502Y-110004D01*
X421772Y-109352D01*
Y-108648D01*
X421502Y-107996D01*
X421004Y-107498D01*
X420352Y-107228D01*
D02*
G37*
G36*
X235071Y-108541D02*
X234366D01*
X233715Y-108811D01*
X233217Y-109309D01*
X232947Y-109960D01*
Y-110665D01*
X233217Y-111316D01*
X233715Y-111814D01*
X234366Y-112084D01*
X235071D01*
X235722Y-111814D01*
X236221Y-111316D01*
X236490Y-110665D01*
Y-109960D01*
X236221Y-109309D01*
X235722Y-108811D01*
X235071Y-108541D01*
D02*
G37*
G36*
X181345Y-108717D02*
X180640D01*
X179989Y-108987D01*
X179491Y-109485D01*
X179221Y-110136D01*
Y-110841D01*
X179491Y-111492D01*
X179989Y-111990D01*
X180640Y-112260D01*
X181345D01*
X181996Y-111990D01*
X182494Y-111492D01*
X182764Y-110841D01*
Y-110136D01*
X182494Y-109485D01*
X181996Y-108987D01*
X181345Y-108717D01*
D02*
G37*
G36*
X136352Y-108728D02*
X135648D01*
X134996Y-108998D01*
X134498Y-109496D01*
X134228Y-110148D01*
Y-110852D01*
X134498Y-111504D01*
X134996Y-112002D01*
X135648Y-112272D01*
X136352D01*
X137004Y-112002D01*
X137502Y-111504D01*
X137772Y-110852D01*
Y-110148D01*
X137502Y-109496D01*
X137004Y-108998D01*
X136352Y-108728D01*
D02*
G37*
G36*
X197852Y-109228D02*
X197148D01*
X196496Y-109498D01*
X195998Y-109996D01*
X195728Y-110648D01*
Y-111352D01*
X195998Y-112004D01*
X196496Y-112502D01*
X197148Y-112772D01*
X197852D01*
X198504Y-112502D01*
X199002Y-112004D01*
X199272Y-111352D01*
Y-110648D01*
X199002Y-109996D01*
X198504Y-109498D01*
X197852Y-109228D01*
D02*
G37*
G36*
X329852Y-111728D02*
X329148D01*
X328496Y-111998D01*
X327998Y-112496D01*
X327728Y-113148D01*
Y-113852D01*
X327998Y-114504D01*
X328496Y-115002D01*
X329148Y-115272D01*
X329852D01*
X330504Y-115002D01*
X331002Y-114504D01*
X331272Y-113852D01*
Y-113148D01*
X331002Y-112496D01*
X330504Y-111998D01*
X329852Y-111728D01*
D02*
G37*
G36*
X253126Y-111749D02*
X252421D01*
X251770Y-112019D01*
X251271Y-112517D01*
X251002Y-113168D01*
Y-113873D01*
X251271Y-114524D01*
X251770Y-115023D01*
X252421Y-115292D01*
X253126D01*
X253777Y-115023D01*
X254275Y-114524D01*
X254545Y-113873D01*
Y-113168D01*
X254275Y-112517D01*
X253777Y-112019D01*
X253126Y-111749D01*
D02*
G37*
G36*
X242852Y-112228D02*
X242148D01*
X241496Y-112498D01*
X240998Y-112996D01*
X240728Y-113648D01*
Y-114352D01*
X240998Y-115004D01*
X241496Y-115502D01*
X242148Y-115772D01*
X242852D01*
X243504Y-115502D01*
X244002Y-115004D01*
X244272Y-114352D01*
Y-113648D01*
X244002Y-112996D01*
X243504Y-112498D01*
X242852Y-112228D01*
D02*
G37*
G36*
X203352D02*
X202648D01*
X201996Y-112498D01*
X201498Y-112996D01*
X201228Y-113648D01*
Y-114352D01*
X201498Y-115004D01*
X201996Y-115502D01*
X202648Y-115772D01*
X203352D01*
X204004Y-115502D01*
X204502Y-115004D01*
X204772Y-114352D01*
Y-113648D01*
X204502Y-112996D01*
X204004Y-112498D01*
X203352Y-112228D01*
D02*
G37*
G36*
X178852D02*
X178148D01*
X177496Y-112498D01*
X176998Y-112996D01*
X176728Y-113648D01*
Y-114352D01*
X176998Y-115004D01*
X177496Y-115502D01*
X178148Y-115772D01*
X178852D01*
X179504Y-115502D01*
X180002Y-115004D01*
X180272Y-114352D01*
Y-113648D01*
X180002Y-112996D01*
X179504Y-112498D01*
X178852Y-112228D01*
D02*
G37*
G36*
X211352Y-112728D02*
X210648D01*
X209996Y-112998D01*
X209498Y-113496D01*
X209228Y-114148D01*
Y-114852D01*
X209498Y-115504D01*
X209996Y-116002D01*
X210648Y-116272D01*
X211352D01*
X212004Y-116002D01*
X212502Y-115504D01*
X212772Y-114852D01*
Y-114148D01*
X212502Y-113496D01*
X212004Y-112998D01*
X211352Y-112728D01*
D02*
G37*
G36*
X171352Y-113228D02*
X170648D01*
X169996Y-113498D01*
X169498Y-113996D01*
X169228Y-114648D01*
Y-115352D01*
X169498Y-116004D01*
X169996Y-116502D01*
X170648Y-116772D01*
X171352D01*
X172004Y-116502D01*
X172502Y-116004D01*
X172772Y-115352D01*
Y-114648D01*
X172502Y-113996D01*
X172004Y-113498D01*
X171352Y-113228D01*
D02*
G37*
G36*
X116852D02*
X116148D01*
X115496Y-113498D01*
X114998Y-113996D01*
X114728Y-114648D01*
Y-115352D01*
X114998Y-116004D01*
X115496Y-116502D01*
X116148Y-116772D01*
X116852D01*
X117504Y-116502D01*
X118002Y-116004D01*
X118272Y-115352D01*
Y-114648D01*
X118002Y-113996D01*
X117504Y-113498D01*
X116852Y-113228D01*
D02*
G37*
G36*
X262352Y-115728D02*
X261648D01*
X260996Y-115998D01*
X260498Y-116496D01*
X260228Y-117148D01*
Y-117852D01*
X260498Y-118504D01*
X260996Y-119002D01*
X261648Y-119272D01*
X262352D01*
X263004Y-119002D01*
X263502Y-118504D01*
X263772Y-117852D01*
Y-117148D01*
X263502Y-116496D01*
X263004Y-115998D01*
X262352Y-115728D01*
D02*
G37*
G36*
X194352D02*
X193648D01*
X192996Y-115998D01*
X192498Y-116496D01*
X192228Y-117148D01*
Y-117852D01*
X192498Y-118504D01*
X192996Y-119002D01*
X193648Y-119272D01*
X194352D01*
X195004Y-119002D01*
X195502Y-118504D01*
X195772Y-117852D01*
Y-117148D01*
X195502Y-116496D01*
X195004Y-115998D01*
X194352Y-115728D01*
D02*
G37*
G36*
X503112Y-116747D02*
X502407D01*
X501756Y-117017D01*
X501258Y-117515D01*
X500988Y-118167D01*
Y-118871D01*
X501258Y-119523D01*
X501756Y-120021D01*
X502407Y-120291D01*
X503112D01*
X503763Y-120021D01*
X504262Y-119523D01*
X504531Y-118871D01*
Y-118167D01*
X504262Y-117515D01*
X503763Y-117017D01*
X503112Y-116747D01*
D02*
G37*
G36*
X112852Y-117728D02*
X112148D01*
X111496Y-117998D01*
X110998Y-118496D01*
X110728Y-119148D01*
Y-119852D01*
X110998Y-120504D01*
X111496Y-121002D01*
X112148Y-121272D01*
X112852D01*
X113504Y-121002D01*
X114002Y-120504D01*
X114272Y-119852D01*
Y-119148D01*
X114002Y-118496D01*
X113504Y-117998D01*
X112852Y-117728D01*
D02*
G37*
G36*
X86411Y-118344D02*
X85707D01*
X85055Y-118614D01*
X84557Y-119112D01*
X84287Y-119763D01*
Y-120468D01*
X84557Y-121119D01*
X85055Y-121618D01*
X85707Y-121887D01*
X86411D01*
X87063Y-121618D01*
X87561Y-121119D01*
X87831Y-120468D01*
Y-119763D01*
X87561Y-119112D01*
X87063Y-118614D01*
X86411Y-118344D01*
D02*
G37*
G36*
X80453Y-119244D02*
X79748D01*
X79097Y-119514D01*
X78598Y-120012D01*
X78329Y-120663D01*
Y-121368D01*
X78598Y-122019D01*
X79097Y-122518D01*
X79748Y-122787D01*
X80453D01*
X81104Y-122518D01*
X81602Y-122019D01*
X81872Y-121368D01*
Y-120663D01*
X81602Y-120012D01*
X81104Y-119514D01*
X80453Y-119244D01*
D02*
G37*
G36*
X203852Y-119613D02*
X203148D01*
X202496Y-119882D01*
X201998Y-120381D01*
X201728Y-121032D01*
Y-121737D01*
X201998Y-122388D01*
X202496Y-122886D01*
X203148Y-123156D01*
X203852D01*
X204504Y-122886D01*
X205002Y-122388D01*
X205272Y-121737D01*
Y-121032D01*
X205002Y-120381D01*
X204504Y-119882D01*
X203852Y-119613D01*
D02*
G37*
G36*
X495784Y-120228D02*
X495079D01*
X494427Y-120498D01*
X493929Y-120996D01*
X493659Y-121648D01*
Y-122352D01*
X493929Y-123004D01*
X494427Y-123502D01*
X495079Y-123772D01*
X495784D01*
X496435Y-123502D01*
X496933Y-123004D01*
X497203Y-122352D01*
Y-121648D01*
X496933Y-120996D01*
X496435Y-120498D01*
X495784Y-120228D01*
D02*
G37*
G36*
X404852Y-120728D02*
X404148D01*
X403496Y-120998D01*
X402998Y-121496D01*
X402728Y-122148D01*
Y-122852D01*
X402998Y-123504D01*
X403496Y-124002D01*
X404148Y-124272D01*
X404852D01*
X405504Y-124002D01*
X406002Y-123504D01*
X406272Y-122852D01*
Y-122148D01*
X406002Y-121496D01*
X405504Y-120998D01*
X404852Y-120728D01*
D02*
G37*
G36*
X107586Y-121792D02*
X106881D01*
X106230Y-122061D01*
X105731Y-122560D01*
X105462Y-123211D01*
Y-123916D01*
X105731Y-124567D01*
X106230Y-125065D01*
X106881Y-125335D01*
X107586D01*
X108237Y-125065D01*
X108735Y-124567D01*
X109005Y-123916D01*
Y-123211D01*
X108735Y-122560D01*
X108237Y-122061D01*
X107586Y-121792D01*
D02*
G37*
G36*
X302852Y-123228D02*
X302148D01*
X301496Y-123498D01*
X300998Y-123996D01*
X300728Y-124648D01*
Y-125352D01*
X300998Y-126004D01*
X301496Y-126502D01*
X302148Y-126772D01*
X302852D01*
X303504Y-126502D01*
X304002Y-126004D01*
X304272Y-125352D01*
Y-124648D01*
X304002Y-123996D01*
X303504Y-123498D01*
X302852Y-123228D01*
D02*
G37*
G36*
X293352D02*
X292648D01*
X291996Y-123498D01*
X291498Y-123996D01*
X291228Y-124648D01*
Y-125352D01*
X291498Y-126004D01*
X291996Y-126502D01*
X292648Y-126772D01*
X293352D01*
X294004Y-126502D01*
X294502Y-126004D01*
X294772Y-125352D01*
Y-124648D01*
X294502Y-123996D01*
X294004Y-123498D01*
X293352Y-123228D01*
D02*
G37*
G36*
X188352D02*
X187648D01*
X186996Y-123498D01*
X186498Y-123996D01*
X186228Y-124648D01*
Y-125352D01*
X186498Y-126004D01*
X186996Y-126502D01*
X187648Y-126772D01*
X188352D01*
X189004Y-126502D01*
X189502Y-126004D01*
X189772Y-125352D01*
Y-124648D01*
X189502Y-123996D01*
X189004Y-123498D01*
X188352Y-123228D01*
D02*
G37*
G36*
X251352Y-124228D02*
X250648D01*
X249996Y-124498D01*
X249498Y-124996D01*
X249228Y-125648D01*
Y-126352D01*
X249498Y-127004D01*
X249996Y-127502D01*
X250648Y-127772D01*
X251352D01*
X252004Y-127502D01*
X252502Y-127004D01*
X252772Y-126352D01*
Y-125648D01*
X252502Y-124996D01*
X252004Y-124498D01*
X251352Y-124228D01*
D02*
G37*
G36*
X257852Y-124728D02*
X257148D01*
X256496Y-124998D01*
X255998Y-125496D01*
X255728Y-126148D01*
Y-126852D01*
X255998Y-127504D01*
X256496Y-128002D01*
X257148Y-128272D01*
X257852D01*
X258504Y-128002D01*
X259002Y-127504D01*
X259272Y-126852D01*
Y-126148D01*
X259002Y-125496D01*
X258504Y-124998D01*
X257852Y-124728D01*
D02*
G37*
G36*
X226352D02*
X225648D01*
X224996Y-124998D01*
X224498Y-125496D01*
X224228Y-126148D01*
Y-126852D01*
X224498Y-127504D01*
X224996Y-128002D01*
X225648Y-128272D01*
X226352D01*
X227004Y-128002D01*
X227502Y-127504D01*
X227772Y-126852D01*
Y-126148D01*
X227502Y-125496D01*
X227004Y-124998D01*
X226352Y-124728D01*
D02*
G37*
G36*
X354383Y-125721D02*
X353678D01*
X353027Y-125991D01*
X352529Y-126489D01*
X352259Y-127141D01*
Y-127845D01*
X352529Y-128497D01*
X353027Y-128995D01*
X353678Y-129265D01*
X354383D01*
X355034Y-128995D01*
X355532Y-128497D01*
X355802Y-127845D01*
Y-127141D01*
X355532Y-126489D01*
X355034Y-125991D01*
X354383Y-125721D01*
D02*
G37*
G36*
X390852Y-125728D02*
X390148D01*
X389496Y-125998D01*
X388998Y-126496D01*
X388728Y-127148D01*
Y-127852D01*
X388998Y-128504D01*
X389496Y-129002D01*
X390148Y-129272D01*
X390852D01*
X391504Y-129002D01*
X392002Y-128504D01*
X392272Y-127852D01*
Y-127148D01*
X392002Y-126496D01*
X391504Y-125998D01*
X390852Y-125728D01*
D02*
G37*
G36*
X120852Y-126228D02*
X120148D01*
X119496Y-126498D01*
X118998Y-126996D01*
X118728Y-127648D01*
Y-128352D01*
X118998Y-129004D01*
X119496Y-129502D01*
X120148Y-129772D01*
X120852D01*
X121504Y-129502D01*
X122002Y-129004D01*
X122272Y-128352D01*
Y-127648D01*
X122002Y-126996D01*
X121504Y-126498D01*
X120852Y-126228D01*
D02*
G37*
G36*
X194223Y-126375D02*
X193518D01*
X192867Y-126644D01*
X192368Y-127143D01*
X192099Y-127794D01*
Y-128499D01*
X192368Y-129150D01*
X192867Y-129648D01*
X193518Y-129918D01*
X194223D01*
X194874Y-129648D01*
X195372Y-129150D01*
X195642Y-128499D01*
Y-127794D01*
X195372Y-127143D01*
X194874Y-126644D01*
X194223Y-126375D01*
D02*
G37*
G36*
X283852Y-127228D02*
X283148D01*
X282496Y-127498D01*
X281998Y-127996D01*
X281728Y-128648D01*
Y-129352D01*
X281998Y-130004D01*
X282496Y-130502D01*
X283148Y-130772D01*
X283852D01*
X284504Y-130502D01*
X285002Y-130004D01*
X285272Y-129352D01*
Y-128648D01*
X285002Y-127996D01*
X284504Y-127498D01*
X283852Y-127228D01*
D02*
G37*
G36*
X302852Y-128728D02*
X302148D01*
X301496Y-128998D01*
X300998Y-129496D01*
X300728Y-130148D01*
Y-130852D01*
X300998Y-131504D01*
X301496Y-132002D01*
X302148Y-132272D01*
X302852D01*
X303504Y-132002D01*
X304002Y-131504D01*
X304272Y-130852D01*
Y-130148D01*
X304002Y-129496D01*
X303504Y-128998D01*
X302852Y-128728D01*
D02*
G37*
G36*
X293352D02*
X292648D01*
X291996Y-128998D01*
X291498Y-129496D01*
X291228Y-130148D01*
Y-130852D01*
X291498Y-131504D01*
X291996Y-132002D01*
X292648Y-132272D01*
X293352D01*
X294004Y-132002D01*
X294502Y-131504D01*
X294772Y-130852D01*
Y-130148D01*
X294502Y-129496D01*
X294004Y-128998D01*
X293352Y-128728D01*
D02*
G37*
G36*
X276852D02*
X276148D01*
X275496Y-128998D01*
X274998Y-129496D01*
X274728Y-130148D01*
Y-130852D01*
X274998Y-131504D01*
X275496Y-132002D01*
X276148Y-132272D01*
X276852D01*
X277504Y-132002D01*
X278002Y-131504D01*
X278272Y-130852D01*
Y-130148D01*
X278002Y-129496D01*
X277504Y-128998D01*
X276852Y-128728D01*
D02*
G37*
G36*
X260352Y-129228D02*
X259648D01*
X258996Y-129498D01*
X258498Y-129996D01*
X258228Y-130648D01*
Y-131352D01*
X258498Y-132004D01*
X258996Y-132502D01*
X259648Y-132772D01*
X260352D01*
X261004Y-132502D01*
X261502Y-132004D01*
X261772Y-131352D01*
Y-130648D01*
X261502Y-129996D01*
X261004Y-129498D01*
X260352Y-129228D01*
D02*
G37*
G36*
X254352D02*
X253648D01*
X252996Y-129498D01*
X252498Y-129996D01*
X252228Y-130648D01*
Y-131352D01*
X252498Y-132004D01*
X252996Y-132502D01*
X253648Y-132772D01*
X254352D01*
X255004Y-132502D01*
X255502Y-132004D01*
X255772Y-131352D01*
Y-130648D01*
X255502Y-129996D01*
X255004Y-129498D01*
X254352Y-129228D01*
D02*
G37*
G36*
X248852D02*
X248148D01*
X247496Y-129498D01*
X246998Y-129996D01*
X246728Y-130648D01*
Y-131352D01*
X246998Y-132004D01*
X247496Y-132502D01*
X248148Y-132772D01*
X248852D01*
X249504Y-132502D01*
X250002Y-132004D01*
X250272Y-131352D01*
Y-130648D01*
X250002Y-129996D01*
X249504Y-129498D01*
X248852Y-129228D01*
D02*
G37*
G36*
X54915Y-131850D02*
X54085D01*
X53284Y-132065D01*
X52566Y-132480D01*
X51980Y-133066D01*
X51788Y-133397D01*
X51395D01*
X51296Y-133227D01*
X50710Y-132640D01*
X49992Y-132226D01*
X49191Y-132011D01*
X48361D01*
X47560Y-132226D01*
X46842Y-132640D01*
X46255Y-133227D01*
X45871Y-133892D01*
X45688Y-133912D01*
X45456Y-133861D01*
X45435Y-133784D01*
X45020Y-133066D01*
X44434Y-132480D01*
X43716Y-132065D01*
X42915Y-131850D01*
X42085D01*
X41284Y-132065D01*
X40566Y-132480D01*
X39980Y-133066D01*
X39565Y-133784D01*
X39350Y-134585D01*
Y-135415D01*
X39565Y-136216D01*
X39704Y-136457D01*
X39477Y-136850D01*
X39085D01*
X38284Y-137065D01*
X37566Y-137480D01*
X36980Y-138066D01*
X36565Y-138784D01*
X36350Y-139585D01*
Y-140415D01*
X36565Y-141216D01*
X36980Y-141934D01*
X37566Y-142520D01*
X38284Y-142935D01*
X39085Y-143150D01*
X39915D01*
X40716Y-142935D01*
X41434Y-142520D01*
X42020Y-141934D01*
X42053Y-141877D01*
X42447D01*
X42480Y-141934D01*
X43066Y-142520D01*
X43784Y-142935D01*
X44585Y-143150D01*
X45415D01*
X46216Y-142935D01*
X46934Y-142520D01*
X47520Y-141934D01*
X47553Y-141877D01*
X47947D01*
X47980Y-141934D01*
X48566Y-142520D01*
X49284Y-142935D01*
X50085Y-143150D01*
X50915D01*
X51716Y-142935D01*
X52434Y-142520D01*
X53020Y-141934D01*
X53435Y-141216D01*
X53650Y-140415D01*
Y-139585D01*
X53435Y-138784D01*
X53150Y-138290D01*
X53420Y-137971D01*
X54085Y-138150D01*
X54915D01*
X55716Y-137935D01*
X56434Y-137520D01*
X57020Y-136934D01*
X57435Y-136216D01*
X57650Y-135415D01*
Y-134585D01*
X57435Y-133784D01*
X57020Y-133066D01*
X56434Y-132480D01*
X55716Y-132065D01*
X54915Y-131850D01*
D02*
G37*
G36*
X408950Y-131713D02*
X408245D01*
X407594Y-131982D01*
X407096Y-132481D01*
X406826Y-133132D01*
Y-133837D01*
X407096Y-134488D01*
X407594Y-134986D01*
X408245Y-135256D01*
X408950D01*
X409601Y-134986D01*
X410100Y-134488D01*
X410369Y-133837D01*
Y-133132D01*
X410100Y-132481D01*
X409601Y-131982D01*
X408950Y-131713D01*
D02*
G37*
G36*
X92307Y-134755D02*
X91602D01*
X90951Y-135024D01*
X90453Y-135523D01*
X90307Y-135873D01*
X89843Y-135966D01*
X89597Y-135720D01*
X88946Y-135450D01*
X88241D01*
X87590Y-135720D01*
X87092Y-136219D01*
X86822Y-136870D01*
Y-137575D01*
X87092Y-138226D01*
X87590Y-138724D01*
X88241Y-138994D01*
X88946D01*
X89597Y-138724D01*
X90096Y-138226D01*
X90241Y-137875D01*
X90706Y-137783D01*
X90951Y-138028D01*
X91602Y-138298D01*
X92307D01*
X92958Y-138028D01*
X93457Y-137530D01*
X93726Y-136879D01*
Y-136174D01*
X93457Y-135523D01*
X92958Y-135024D01*
X92307Y-134755D01*
D02*
G37*
G36*
X98500Y-133592D02*
X97795D01*
X97144Y-133862D01*
X96646Y-134360D01*
X96376Y-135011D01*
Y-135716D01*
X96646Y-136367D01*
X97144Y-136866D01*
X97795Y-137136D01*
X98500D01*
X99151Y-136866D01*
X99650Y-136367D01*
X99919Y-135716D01*
Y-135011D01*
X99650Y-134360D01*
X99151Y-133862D01*
X98500Y-133592D01*
D02*
G37*
G36*
X434852Y-134228D02*
X434148D01*
X433496Y-134498D01*
X432998Y-134996D01*
X432728Y-135648D01*
Y-136352D01*
X432998Y-137004D01*
X433496Y-137502D01*
X434148Y-137772D01*
X434852D01*
X435504Y-137502D01*
X436002Y-137004D01*
X436272Y-136352D01*
Y-135648D01*
X436002Y-134996D01*
X435504Y-134498D01*
X434852Y-134228D01*
D02*
G37*
G36*
X519956Y-134472D02*
X519251D01*
X518600Y-134741D01*
X518102Y-135240D01*
X517832Y-135891D01*
Y-136596D01*
X518102Y-137247D01*
X518600Y-137745D01*
X519251Y-138015D01*
X519956D01*
X520607Y-137745D01*
X521105Y-137247D01*
X521375Y-136596D01*
Y-135891D01*
X521105Y-135240D01*
X520607Y-134741D01*
X519956Y-134472D01*
D02*
G37*
G36*
X159802Y-136228D02*
X159098D01*
X158446Y-136498D01*
X157948Y-136996D01*
X157678Y-137648D01*
Y-138352D01*
X157948Y-139004D01*
X158446Y-139502D01*
X159098Y-139772D01*
X159802D01*
X160454Y-139502D01*
X160952Y-139004D01*
X161222Y-138352D01*
Y-137648D01*
X160952Y-136996D01*
X160454Y-136498D01*
X159802Y-136228D01*
D02*
G37*
G36*
X316264Y-136998D02*
X315560D01*
X314908Y-137268D01*
X314410Y-137766D01*
X314140Y-138417D01*
Y-139122D01*
X314410Y-139773D01*
X314908Y-140271D01*
X315560Y-140541D01*
X316264D01*
X316915Y-140271D01*
X317414Y-139773D01*
X317684Y-139122D01*
Y-138417D01*
X317414Y-137766D01*
X316915Y-137268D01*
X316264Y-136998D01*
D02*
G37*
G36*
X404454Y-137469D02*
X403749D01*
X403098Y-137739D01*
X402599Y-138237D01*
X402330Y-138888D01*
Y-139593D01*
X402599Y-140244D01*
X403098Y-140743D01*
X403749Y-141012D01*
X404454D01*
X405105Y-140743D01*
X405603Y-140244D01*
X405873Y-139593D01*
Y-138888D01*
X405603Y-138237D01*
X405105Y-137739D01*
X404454Y-137469D01*
D02*
G37*
G36*
X222296Y-138672D02*
X221591D01*
X220940Y-138942D01*
X220442Y-139440D01*
X220172Y-140092D01*
Y-140796D01*
X220442Y-141447D01*
X220940Y-141946D01*
X221591Y-142216D01*
X222296D01*
X222947Y-141946D01*
X223446Y-141447D01*
X223715Y-140796D01*
Y-140092D01*
X223446Y-139440D01*
X222947Y-138942D01*
X222296Y-138672D01*
D02*
G37*
G36*
X187830Y-140589D02*
X187126D01*
X186474Y-140859D01*
X185976Y-141357D01*
X185706Y-142008D01*
Y-142713D01*
X185976Y-143364D01*
X186474Y-143863D01*
X187126Y-144132D01*
X187830D01*
X188481Y-143863D01*
X188980Y-143364D01*
X189250Y-142713D01*
Y-142008D01*
X188980Y-141357D01*
X188481Y-140859D01*
X187830Y-140589D01*
D02*
G37*
G36*
X117352Y-140728D02*
X116648D01*
X115996Y-140998D01*
X115498Y-141496D01*
X115228Y-142148D01*
Y-142852D01*
X115498Y-143504D01*
X115996Y-144002D01*
X116648Y-144272D01*
X117352D01*
X118004Y-144002D01*
X118502Y-143504D01*
X118772Y-142852D01*
Y-142148D01*
X118502Y-141496D01*
X118004Y-140998D01*
X117352Y-140728D01*
D02*
G37*
G36*
X225352Y-141228D02*
X224648D01*
X223996Y-141498D01*
X223498Y-141996D01*
X223228Y-142648D01*
Y-143352D01*
X223498Y-144004D01*
X223996Y-144502D01*
X224648Y-144772D01*
X225352D01*
X226004Y-144502D01*
X226502Y-144004D01*
X226772Y-143352D01*
Y-142648D01*
X226502Y-141996D01*
X226004Y-141498D01*
X225352Y-141228D01*
D02*
G37*
G36*
X375693Y-142279D02*
X374988D01*
X374337Y-142548D01*
X373839Y-143047D01*
X373569Y-143698D01*
Y-144403D01*
X373839Y-145054D01*
X374337Y-145552D01*
X374988Y-145822D01*
X375693D01*
X376344Y-145552D01*
X376843Y-145054D01*
X377112Y-144403D01*
Y-143698D01*
X376843Y-143047D01*
X376344Y-142548D01*
X375693Y-142279D01*
D02*
G37*
G36*
X82651Y-142430D02*
X81946D01*
X81295Y-142700D01*
X80796Y-143198D01*
X80527Y-143849D01*
Y-144554D01*
X80796Y-145205D01*
X81295Y-145704D01*
X81946Y-145973D01*
X82651D01*
X83302Y-145704D01*
X83800Y-145205D01*
X84070Y-144554D01*
Y-143849D01*
X83800Y-143198D01*
X83302Y-142700D01*
X82651Y-142430D01*
D02*
G37*
G36*
X366352Y-143228D02*
X365648D01*
X364996Y-143498D01*
X364498Y-143996D01*
X364228Y-144648D01*
Y-145352D01*
X364498Y-146004D01*
X364996Y-146502D01*
X365648Y-146772D01*
X366352D01*
X367004Y-146502D01*
X367502Y-146004D01*
X367772Y-145352D01*
Y-144648D01*
X367502Y-143996D01*
X367004Y-143498D01*
X366352Y-143228D01*
D02*
G37*
G36*
X221352D02*
X220648D01*
X219996Y-143498D01*
X219498Y-143996D01*
X219228Y-144648D01*
Y-145352D01*
X219498Y-146004D01*
X219996Y-146502D01*
X220648Y-146772D01*
X221352D01*
X222004Y-146502D01*
X222502Y-146004D01*
X222772Y-145352D01*
Y-144648D01*
X222502Y-143996D01*
X222004Y-143498D01*
X221352Y-143228D01*
D02*
G37*
G36*
X212852D02*
X212148D01*
X211496Y-143498D01*
X210998Y-143996D01*
X210728Y-144648D01*
Y-145352D01*
X210998Y-146004D01*
X211496Y-146502D01*
X212148Y-146772D01*
X212852D01*
X213504Y-146502D01*
X214002Y-146004D01*
X214272Y-145352D01*
Y-144648D01*
X214002Y-143996D01*
X213504Y-143498D01*
X212852Y-143228D01*
D02*
G37*
G36*
X354352Y-143728D02*
X353648D01*
X352996Y-143998D01*
X352498Y-144496D01*
X352228Y-145148D01*
Y-145852D01*
X352498Y-146504D01*
X352996Y-147002D01*
X353648Y-147272D01*
X354352D01*
X355004Y-147002D01*
X355502Y-146504D01*
X355772Y-145852D01*
Y-145148D01*
X355502Y-144496D01*
X355004Y-143998D01*
X354352Y-143728D01*
D02*
G37*
G36*
X310852D02*
X310148D01*
X309496Y-143998D01*
X308998Y-144496D01*
X308728Y-145148D01*
Y-145852D01*
X308998Y-146504D01*
X309496Y-147002D01*
X310148Y-147272D01*
X310852D01*
X311504Y-147002D01*
X312002Y-146504D01*
X312272Y-145852D01*
Y-145148D01*
X312002Y-144496D01*
X311504Y-143998D01*
X310852Y-143728D01*
D02*
G37*
G36*
X281889Y-143734D02*
X281184D01*
X280533Y-144003D01*
X280034Y-144502D01*
X279765Y-145153D01*
Y-145858D01*
X280034Y-146509D01*
X280533Y-147007D01*
X281184Y-147277D01*
X281889D01*
X282540Y-147007D01*
X283038Y-146509D01*
X283308Y-145858D01*
Y-145153D01*
X283038Y-144502D01*
X282540Y-144003D01*
X281889Y-143734D01*
D02*
G37*
G36*
X201245Y-143815D02*
X200540D01*
X199889Y-144085D01*
X199391Y-144583D01*
X199121Y-145234D01*
Y-145939D01*
X199391Y-146590D01*
X199889Y-147089D01*
X200540Y-147358D01*
X201245D01*
X201896Y-147089D01*
X202394Y-146590D01*
X202664Y-145939D01*
Y-145234D01*
X202394Y-144583D01*
X201896Y-144085D01*
X201245Y-143815D01*
D02*
G37*
G36*
X182544Y-143926D02*
X181839D01*
X181188Y-144195D01*
X180690Y-144694D01*
X180420Y-145345D01*
Y-146050D01*
X180690Y-146701D01*
X181188Y-147199D01*
X181839Y-147469D01*
X182544D01*
X183195Y-147199D01*
X183694Y-146701D01*
X183963Y-146050D01*
Y-145345D01*
X183694Y-144694D01*
X183195Y-144195D01*
X182544Y-143926D01*
D02*
G37*
G36*
X361352Y-144728D02*
X360648D01*
X359996Y-144998D01*
X359498Y-145496D01*
X359228Y-146148D01*
Y-146852D01*
X359498Y-147504D01*
X359996Y-148002D01*
X360648Y-148272D01*
X361352D01*
X362004Y-148002D01*
X362502Y-147504D01*
X362772Y-146852D01*
Y-146148D01*
X362502Y-145496D01*
X362004Y-144998D01*
X361352Y-144728D01*
D02*
G37*
G36*
X262352Y-145228D02*
X261648D01*
X260996Y-145498D01*
X260498Y-145996D01*
X260228Y-146648D01*
Y-147352D01*
X260498Y-148004D01*
X260996Y-148502D01*
X261648Y-148772D01*
X262352D01*
X263004Y-148502D01*
X263502Y-148004D01*
X263772Y-147352D01*
Y-146648D01*
X263502Y-145996D01*
X263004Y-145498D01*
X262352Y-145228D01*
D02*
G37*
G36*
X277352Y-145728D02*
X276648D01*
X275996Y-145998D01*
X275498Y-146496D01*
X275228Y-147148D01*
Y-147852D01*
X275498Y-148504D01*
X275996Y-149002D01*
X276648Y-149272D01*
X277352D01*
X278004Y-149002D01*
X278502Y-148504D01*
X278772Y-147852D01*
Y-147148D01*
X278502Y-146496D01*
X278004Y-145998D01*
X277352Y-145728D01*
D02*
G37*
G36*
X371114Y-145975D02*
X370410D01*
X369759Y-146245D01*
X369260Y-146744D01*
X368990Y-147395D01*
Y-148100D01*
X369260Y-148751D01*
X369759Y-149249D01*
X370410Y-149519D01*
X371114D01*
X371766Y-149249D01*
X372264Y-148751D01*
X372534Y-148100D01*
Y-147395D01*
X372264Y-146744D01*
X371766Y-146245D01*
X371114Y-145975D01*
D02*
G37*
G36*
X166044Y-146426D02*
X165339D01*
X164688Y-146695D01*
X164190Y-147194D01*
X163920Y-147845D01*
Y-148550D01*
X164190Y-149201D01*
X164688Y-149699D01*
X165339Y-149969D01*
X166044D01*
X166695Y-149699D01*
X167193Y-149201D01*
X167463Y-148550D01*
Y-147845D01*
X167193Y-147194D01*
X166695Y-146695D01*
X166044Y-146426D01*
D02*
G37*
G36*
X125852Y-148228D02*
X125148D01*
X124496Y-148498D01*
X123998Y-148996D01*
X123728Y-149648D01*
Y-150352D01*
X123998Y-151004D01*
X124496Y-151502D01*
X125148Y-151772D01*
X125852D01*
X126504Y-151502D01*
X127002Y-151004D01*
X127272Y-150352D01*
Y-149648D01*
X127002Y-148996D01*
X126504Y-148498D01*
X125852Y-148228D01*
D02*
G37*
G36*
X79848Y-145315D02*
X79143D01*
X78492Y-145585D01*
X77993Y-146083D01*
X77724Y-146735D01*
Y-147440D01*
X77993Y-148091D01*
X78476Y-148574D01*
X77998Y-149052D01*
X77728Y-149703D01*
Y-150408D01*
X77998Y-151059D01*
X78496Y-151558D01*
X79148Y-151827D01*
X79852D01*
X80504Y-151558D01*
X81002Y-151059D01*
X81272Y-150408D01*
Y-149703D01*
X81002Y-149052D01*
X80519Y-148569D01*
X80997Y-148091D01*
X81267Y-147440D01*
Y-146735D01*
X80997Y-146083D01*
X80499Y-145585D01*
X79848Y-145315D01*
D02*
G37*
G36*
X152352Y-149228D02*
X151648D01*
X150996Y-149498D01*
X150498Y-149996D01*
X150228Y-150648D01*
Y-151352D01*
X150498Y-152004D01*
X150996Y-152502D01*
X151648Y-152772D01*
X152352D01*
X153004Y-152502D01*
X153502Y-152004D01*
X153772Y-151352D01*
Y-150648D01*
X153502Y-149996D01*
X153004Y-149498D01*
X152352Y-149228D01*
D02*
G37*
G36*
X277352Y-149728D02*
X276648D01*
X275996Y-149998D01*
X275498Y-150496D01*
X275228Y-151148D01*
Y-151852D01*
X275498Y-152504D01*
X275996Y-153002D01*
X276648Y-153272D01*
X277352D01*
X278004Y-153002D01*
X278502Y-152504D01*
X278772Y-151852D01*
Y-151148D01*
X278502Y-150496D01*
X278004Y-149998D01*
X277352Y-149728D01*
D02*
G37*
G36*
X148526Y-151670D02*
X147821D01*
X147170Y-151940D01*
X146671Y-152438D01*
X146402Y-153089D01*
Y-153794D01*
X146671Y-154445D01*
X147170Y-154944D01*
X147821Y-155213D01*
X148526D01*
X149177Y-154944D01*
X149675Y-154445D01*
X149945Y-153794D01*
Y-153089D01*
X149675Y-152438D01*
X149177Y-151940D01*
X148526Y-151670D01*
D02*
G37*
G36*
X161852Y-151728D02*
X161148D01*
X160496Y-151998D01*
X159998Y-152496D01*
X159728Y-153148D01*
Y-153852D01*
X159998Y-154504D01*
X160496Y-155002D01*
X161148Y-155272D01*
X161852D01*
X162504Y-155002D01*
X163002Y-154504D01*
X163272Y-153852D01*
Y-153148D01*
X163002Y-152496D01*
X162504Y-151998D01*
X161852Y-151728D01*
D02*
G37*
G36*
X82394Y-152788D02*
X81690D01*
X81038Y-153057D01*
X80540Y-153556D01*
X80270Y-154207D01*
Y-154912D01*
X80540Y-155563D01*
X81038Y-156061D01*
X81690Y-156331D01*
X82394D01*
X83046Y-156061D01*
X83544Y-155563D01*
X83814Y-154912D01*
Y-154207D01*
X83544Y-153556D01*
X83046Y-153057D01*
X82394Y-152788D01*
D02*
G37*
G36*
X128852Y-155228D02*
X128148D01*
X127496Y-155498D01*
X126998Y-155996D01*
X126728Y-156648D01*
Y-157352D01*
X126998Y-158004D01*
X127496Y-158502D01*
X128148Y-158772D01*
X128852D01*
X129504Y-158502D01*
X130002Y-158004D01*
X130272Y-157352D01*
Y-156648D01*
X130002Y-155996D01*
X129504Y-155498D01*
X128852Y-155228D01*
D02*
G37*
G36*
X85852Y-157228D02*
X85148D01*
X84496Y-157498D01*
X83998Y-157996D01*
X83728Y-158648D01*
Y-159352D01*
X83998Y-160004D01*
X84496Y-160502D01*
X85148Y-160772D01*
X85852D01*
X86504Y-160502D01*
X87002Y-160004D01*
X87272Y-159352D01*
Y-158648D01*
X87002Y-157996D01*
X86504Y-157498D01*
X85852Y-157228D01*
D02*
G37*
G36*
X246852Y-158228D02*
X246148D01*
X245496Y-158498D01*
X244998Y-158996D01*
X244728Y-159648D01*
Y-160352D01*
X244998Y-161004D01*
X245496Y-161502D01*
X246148Y-161772D01*
X246852D01*
X247504Y-161502D01*
X248002Y-161004D01*
X248272Y-160352D01*
Y-159648D01*
X248002Y-158996D01*
X247504Y-158498D01*
X246852Y-158228D01*
D02*
G37*
G36*
X217352D02*
X216648D01*
X215996Y-158498D01*
X215498Y-158996D01*
X215228Y-159648D01*
Y-160352D01*
X215498Y-161004D01*
X215996Y-161502D01*
X216648Y-161772D01*
X217352D01*
X218004Y-161502D01*
X218502Y-161004D01*
X218772Y-160352D01*
Y-159648D01*
X218502Y-158996D01*
X218004Y-158498D01*
X217352Y-158228D01*
D02*
G37*
G36*
X329852Y-159228D02*
X329148D01*
X328496Y-159498D01*
X327998Y-159996D01*
X327728Y-160648D01*
Y-161352D01*
X327998Y-162004D01*
X328496Y-162502D01*
X329148Y-162772D01*
X329852D01*
X330504Y-162502D01*
X331002Y-162004D01*
X331272Y-161352D01*
Y-160648D01*
X331002Y-159996D01*
X330504Y-159498D01*
X329852Y-159228D01*
D02*
G37*
G36*
X355352Y-164728D02*
X354648D01*
X353996Y-164998D01*
X353498Y-165496D01*
X353228Y-166148D01*
Y-166852D01*
X353498Y-167504D01*
X353996Y-168002D01*
X354648Y-168272D01*
X355352D01*
X356004Y-168002D01*
X356502Y-167504D01*
X356772Y-166852D01*
Y-166148D01*
X356502Y-165496D01*
X356004Y-164998D01*
X355352Y-164728D01*
D02*
G37*
G36*
X320352D02*
X319648D01*
X318996Y-164998D01*
X318498Y-165496D01*
X318228Y-166148D01*
Y-166852D01*
X318498Y-167504D01*
X318996Y-168002D01*
X319648Y-168272D01*
X320352D01*
X321004Y-168002D01*
X321502Y-167504D01*
X321772Y-166852D01*
Y-166148D01*
X321502Y-165496D01*
X321004Y-164998D01*
X320352Y-164728D01*
D02*
G37*
G36*
X98352Y-162228D02*
X97648D01*
X96996Y-162498D01*
X96498Y-162996D01*
X96228Y-163648D01*
Y-164352D01*
X96498Y-165004D01*
X96829Y-165335D01*
X96666Y-165728D01*
X96648D01*
X95996Y-165998D01*
X95498Y-166496D01*
X95228Y-167148D01*
Y-167852D01*
X95498Y-168504D01*
X95899Y-168905D01*
X95875Y-169273D01*
X95837Y-169357D01*
X95496Y-169498D01*
X94998Y-169996D01*
X94728Y-170648D01*
Y-171352D01*
X94998Y-172004D01*
X95496Y-172502D01*
X96148Y-172772D01*
X96852D01*
X97504Y-172502D01*
X98002Y-172004D01*
X98272Y-171352D01*
Y-170648D01*
X98002Y-169996D01*
X97601Y-169595D01*
X97625Y-169227D01*
X97663Y-169143D01*
X98004Y-169002D01*
X98502Y-168504D01*
X98772Y-167852D01*
Y-167148D01*
X98502Y-166496D01*
X98171Y-166165D01*
X98334Y-165772D01*
X98352D01*
X99004Y-165502D01*
X99502Y-165004D01*
X99772Y-164352D01*
Y-163648D01*
X99502Y-162996D01*
X99004Y-162498D01*
X98352Y-162228D01*
D02*
G37*
G36*
X101972Y-169936D02*
X101268D01*
X100617Y-170205D01*
X100118Y-170704D01*
X99848Y-171355D01*
Y-172060D01*
X100118Y-172711D01*
X100617Y-173209D01*
X101268Y-173479D01*
X101972D01*
X102624Y-173209D01*
X103122Y-172711D01*
X103392Y-172060D01*
Y-171355D01*
X103122Y-170704D01*
X102624Y-170205D01*
X101972Y-169936D01*
D02*
G37*
G36*
X420352Y-171728D02*
X419648D01*
X418996Y-171998D01*
X418498Y-172496D01*
X418228Y-173148D01*
Y-173852D01*
X418498Y-174504D01*
X418996Y-175002D01*
X419648Y-175272D01*
X420352D01*
X421004Y-175002D01*
X421502Y-174504D01*
X421772Y-173852D01*
Y-173148D01*
X421502Y-172496D01*
X421004Y-171998D01*
X420352Y-171728D01*
D02*
G37*
G36*
X387352D02*
X386648D01*
X385996Y-171998D01*
X385498Y-172496D01*
X385228Y-173148D01*
Y-173852D01*
X385498Y-174504D01*
X385996Y-175002D01*
X386648Y-175272D01*
X387352D01*
X388004Y-175002D01*
X388502Y-174504D01*
X388772Y-173852D01*
Y-173148D01*
X388502Y-172496D01*
X388004Y-171998D01*
X387352Y-171728D01*
D02*
G37*
G36*
X360736Y-172777D02*
X360032D01*
X359381Y-173047D01*
X358882Y-173545D01*
X358612Y-174196D01*
Y-174901D01*
X358882Y-175552D01*
X359381Y-176051D01*
X360032Y-176320D01*
X360736D01*
X361388Y-176051D01*
X361886Y-175552D01*
X362156Y-174901D01*
Y-174196D01*
X361886Y-173545D01*
X361388Y-173047D01*
X360736Y-172777D01*
D02*
G37*
G36*
X281931Y-168108D02*
X281226D01*
X280575Y-168378D01*
X280076Y-168876D01*
X279807Y-169527D01*
Y-170232D01*
X280076Y-170883D01*
X280575Y-171382D01*
X280915Y-171523D01*
X281007Y-171987D01*
X280998Y-171996D01*
X280728Y-172648D01*
Y-173352D01*
X280455Y-173721D01*
X280075Y-173878D01*
X279576Y-174376D01*
X279307Y-175027D01*
Y-175732D01*
X279576Y-176383D01*
X280075Y-176882D01*
X280726Y-177152D01*
X281431D01*
X282082Y-176882D01*
X282580Y-176383D01*
X282850Y-175732D01*
Y-175027D01*
X283123Y-174659D01*
X283504Y-174502D01*
X284002Y-174004D01*
X284272Y-173352D01*
Y-172648D01*
X284002Y-171996D01*
X283504Y-171498D01*
X283163Y-171357D01*
X283071Y-170893D01*
X283080Y-170883D01*
X283350Y-170232D01*
Y-169527D01*
X283080Y-168876D01*
X282582Y-168378D01*
X281931Y-168108D01*
D02*
G37*
G36*
X129415Y-161850D02*
X128585D01*
X127784Y-162065D01*
X127066Y-162480D01*
X126480Y-163066D01*
X126065Y-163784D01*
X125850Y-164585D01*
Y-165415D01*
X126065Y-166216D01*
X126480Y-166934D01*
X127046Y-167500D01*
X126480Y-168066D01*
X126065Y-168784D01*
X125850Y-169585D01*
Y-170415D01*
X126065Y-171216D01*
X126480Y-171934D01*
X127046Y-172500D01*
X126480Y-173066D01*
X126065Y-173784D01*
X125850Y-174585D01*
Y-175415D01*
X126065Y-176216D01*
X126480Y-176934D01*
X126796Y-177250D01*
X126480Y-177566D01*
X126473Y-177577D01*
X126083Y-177629D01*
X125934Y-177480D01*
X125216Y-177065D01*
X124415Y-176850D01*
X123585D01*
X122784Y-177065D01*
X122066Y-177480D01*
X121500Y-178046D01*
X120934Y-177480D01*
X120216Y-177065D01*
X119415Y-176850D01*
X118585D01*
X117784Y-177065D01*
X117066Y-177480D01*
X116480Y-178066D01*
X116065Y-178784D01*
X115850Y-179585D01*
Y-180415D01*
X116065Y-181216D01*
X116480Y-181934D01*
X117066Y-182520D01*
X117784Y-182935D01*
X118585Y-183150D01*
X119415D01*
X120216Y-182935D01*
X120934Y-182520D01*
X121500Y-181954D01*
X122066Y-182520D01*
X122784Y-182935D01*
X123585Y-183150D01*
X124415D01*
X125216Y-182935D01*
X125934Y-182520D01*
X126472Y-181983D01*
X126663Y-181905D01*
X126917Y-181871D01*
X127066Y-182020D01*
X127784Y-182435D01*
X128585Y-182650D01*
X129415D01*
X130216Y-182435D01*
X130934Y-182020D01*
X131520Y-181434D01*
X131935Y-180716D01*
X132150Y-179915D01*
Y-179085D01*
X131935Y-178284D01*
X131520Y-177566D01*
X131204Y-177250D01*
X131520Y-176934D01*
X131935Y-176216D01*
X132150Y-175415D01*
Y-174585D01*
X131935Y-173784D01*
X131520Y-173066D01*
X130954Y-172500D01*
X131520Y-171934D01*
X131935Y-171216D01*
X132150Y-170415D01*
Y-169585D01*
X131935Y-168784D01*
X131520Y-168066D01*
X130954Y-167500D01*
X131520Y-166934D01*
X131935Y-166216D01*
X132150Y-165415D01*
Y-164585D01*
X131935Y-163784D01*
X131520Y-163066D01*
X130934Y-162480D01*
X130216Y-162065D01*
X129415Y-161850D01*
D02*
G37*
G36*
X473982Y-174921D02*
X473277D01*
X472626Y-175190D01*
X472127Y-175689D01*
X471858Y-176340D01*
Y-177045D01*
X472127Y-177696D01*
X472626Y-178194D01*
X473277Y-178464D01*
X473982D01*
X474633Y-178194D01*
X475131Y-177696D01*
X475401Y-177045D01*
Y-176340D01*
X475131Y-175689D01*
X474633Y-175190D01*
X473982Y-174921D01*
D02*
G37*
G36*
X249852Y-175228D02*
X249148D01*
X248496Y-175498D01*
X247998Y-175996D01*
X247728Y-176648D01*
Y-177352D01*
X247998Y-178004D01*
X248496Y-178502D01*
X249148Y-178772D01*
X249852D01*
X250504Y-178502D01*
X251002Y-178004D01*
X251272Y-177352D01*
Y-176648D01*
X251002Y-175996D01*
X250504Y-175498D01*
X249852Y-175228D01*
D02*
G37*
G36*
X335352Y-175728D02*
X334648D01*
X333996Y-175998D01*
X333498Y-176496D01*
X333228Y-177148D01*
Y-177852D01*
X333498Y-178504D01*
X333996Y-179002D01*
X334648Y-179272D01*
X335352D01*
X336004Y-179002D01*
X336502Y-178504D01*
X336772Y-177852D01*
Y-177148D01*
X336502Y-176496D01*
X336004Y-175998D01*
X335352Y-175728D01*
D02*
G37*
G36*
X366737Y-177513D02*
X366032D01*
X365381Y-177783D01*
X364882Y-178281D01*
X364613Y-178932D01*
Y-179637D01*
X364882Y-180288D01*
X365381Y-180787D01*
X366032Y-181056D01*
X366737D01*
X367388Y-180787D01*
X367886Y-180288D01*
X368156Y-179637D01*
Y-178932D01*
X367886Y-178281D01*
X367388Y-177783D01*
X366737Y-177513D01*
D02*
G37*
G36*
X395968Y-177603D02*
X395264D01*
X394613Y-177872D01*
X394114Y-178371D01*
X393844Y-179022D01*
Y-179727D01*
X394114Y-180378D01*
X394613Y-180876D01*
X395264Y-181146D01*
X395968D01*
X396620Y-180876D01*
X397118Y-180378D01*
X397388Y-179727D01*
Y-179022D01*
X397118Y-178371D01*
X396620Y-177872D01*
X395968Y-177603D01*
D02*
G37*
G36*
X434853Y-177870D02*
X434148D01*
X433497Y-178140D01*
X432999Y-178638D01*
X432729Y-179289D01*
Y-179994D01*
X432999Y-180646D01*
X433497Y-181144D01*
X434148Y-181414D01*
X434853D01*
X435504Y-181144D01*
X436003Y-180646D01*
X436272Y-179994D01*
Y-179289D01*
X436003Y-178638D01*
X435504Y-178140D01*
X434853Y-177870D01*
D02*
G37*
G36*
X507831Y-174480D02*
X499991D01*
Y-182320D01*
X507831D01*
Y-174480D01*
D02*
G37*
G36*
X55352Y-179728D02*
X54648D01*
X53996Y-179998D01*
X53498Y-180496D01*
X53228Y-181148D01*
Y-181852D01*
X53498Y-182504D01*
X53996Y-183002D01*
X54648Y-183272D01*
X55352D01*
X56004Y-183002D01*
X56502Y-182504D01*
X56772Y-181852D01*
Y-181148D01*
X56502Y-180496D01*
X56004Y-179998D01*
X55352Y-179728D01*
D02*
G37*
G36*
X111779Y-180208D02*
X111075D01*
X110424Y-180478D01*
X109925Y-180976D01*
X109655Y-181628D01*
Y-182332D01*
X109925Y-182983D01*
X110424Y-183482D01*
X111075Y-183751D01*
X111779D01*
X112431Y-183482D01*
X112929Y-182983D01*
X113199Y-182332D01*
Y-181628D01*
X112929Y-180976D01*
X112431Y-180478D01*
X111779Y-180208D01*
D02*
G37*
G36*
X359852Y-180728D02*
X359148D01*
X358496Y-180998D01*
X357998Y-181496D01*
X357728Y-182148D01*
Y-182852D01*
X357998Y-183504D01*
X358496Y-184002D01*
X359148Y-184272D01*
X359852D01*
X360504Y-184002D01*
X361002Y-183504D01*
X361272Y-182852D01*
Y-182148D01*
X361002Y-181496D01*
X360504Y-180998D01*
X359852Y-180728D01*
D02*
G37*
G36*
X302352D02*
X301648D01*
X300996Y-180998D01*
X300498Y-181496D01*
X300228Y-182148D01*
Y-182852D01*
X300498Y-183504D01*
X300996Y-184002D01*
X301648Y-184272D01*
X302352D01*
X303004Y-184002D01*
X303502Y-183504D01*
X303772Y-182852D01*
Y-182148D01*
X303502Y-181496D01*
X303004Y-180998D01*
X302352Y-180728D01*
D02*
G37*
G36*
X401156Y-181527D02*
X400451D01*
X399800Y-181797D01*
X399302Y-182295D01*
X399032Y-182946D01*
Y-183651D01*
X399302Y-184302D01*
X399800Y-184801D01*
X400451Y-185070D01*
X401156D01*
X401807Y-184801D01*
X402306Y-184302D01*
X402575Y-183651D01*
Y-182946D01*
X402306Y-182295D01*
X401807Y-181797D01*
X401156Y-181527D01*
D02*
G37*
G36*
X444852Y-181728D02*
X444148D01*
X443496Y-181998D01*
X442998Y-182496D01*
X442728Y-183148D01*
Y-183852D01*
X442998Y-184504D01*
X443496Y-185002D01*
X444148Y-185272D01*
X444852D01*
X445504Y-185002D01*
X446002Y-184504D01*
X446272Y-183852D01*
Y-183148D01*
X446002Y-182496D01*
X445504Y-181998D01*
X444852Y-181728D01*
D02*
G37*
G36*
X371341Y-181829D02*
X370636D01*
X369985Y-182099D01*
X369487Y-182597D01*
X369217Y-183248D01*
Y-183953D01*
X369487Y-184604D01*
X369985Y-185102D01*
X370636Y-185372D01*
X371341D01*
X371992Y-185102D01*
X372491Y-184604D01*
X372760Y-183953D01*
Y-183248D01*
X372491Y-182597D01*
X371992Y-182099D01*
X371341Y-181829D01*
D02*
G37*
G36*
X493227Y-179880D02*
X492195D01*
X491197Y-180147D01*
X490304Y-180663D01*
X489574Y-181393D01*
X489058Y-182287D01*
X488791Y-183284D01*
Y-184316D01*
X489058Y-185313D01*
X489574Y-186207D01*
X490304Y-186937D01*
X491197Y-187453D01*
X492195Y-187720D01*
X493227D01*
X494224Y-187453D01*
X495118Y-186937D01*
X495848Y-186207D01*
X496364Y-185313D01*
X496631Y-184316D01*
Y-183284D01*
X496364Y-182287D01*
X495848Y-181393D01*
X495118Y-180663D01*
X494224Y-180147D01*
X493227Y-179880D01*
D02*
G37*
G36*
X339852Y-184228D02*
X339148D01*
X338496Y-184498D01*
X337998Y-184996D01*
X337728Y-185648D01*
Y-186352D01*
X337998Y-187004D01*
X338496Y-187502D01*
X339148Y-187772D01*
X339852D01*
X340504Y-187502D01*
X341002Y-187004D01*
X341272Y-186352D01*
Y-185648D01*
X341002Y-184996D01*
X340504Y-184498D01*
X339852Y-184228D01*
D02*
G37*
G36*
X227352Y-182228D02*
X226648D01*
X225996Y-182498D01*
X225498Y-182996D01*
X225228Y-183648D01*
Y-184352D01*
X225428Y-184835D01*
X225208Y-185228D01*
X225148D01*
X224496Y-185498D01*
X223998Y-185996D01*
X223728Y-186648D01*
Y-187352D01*
X223998Y-188004D01*
X224496Y-188502D01*
X225148Y-188772D01*
X225852D01*
X226504Y-188502D01*
X227002Y-188004D01*
X227272Y-187352D01*
Y-186648D01*
X227072Y-186165D01*
X227291Y-185772D01*
X227352D01*
X228004Y-185502D01*
X228502Y-185004D01*
X228772Y-184352D01*
Y-183648D01*
X228502Y-182996D01*
X228004Y-182498D01*
X227352Y-182228D01*
D02*
G37*
G36*
X425852Y-186728D02*
X425148D01*
X424496Y-186998D01*
X423998Y-187496D01*
X423728Y-188148D01*
Y-188852D01*
X423998Y-189504D01*
X424496Y-190002D01*
X425148Y-190272D01*
X425852D01*
X426504Y-190002D01*
X427002Y-189504D01*
X427272Y-188852D01*
Y-188148D01*
X427002Y-187496D01*
X426504Y-186998D01*
X425852Y-186728D01*
D02*
G37*
G36*
X280852D02*
X280148D01*
X279496Y-186998D01*
X278998Y-187496D01*
X278728Y-188148D01*
Y-188852D01*
X278998Y-189504D01*
X279496Y-190002D01*
X280148Y-190272D01*
X280852D01*
X281504Y-190002D01*
X282002Y-189504D01*
X282272Y-188852D01*
Y-188148D01*
X282002Y-187496D01*
X281504Y-186998D01*
X280852Y-186728D01*
D02*
G37*
G36*
X163852Y-187413D02*
X163148D01*
X162496Y-187682D01*
X161998Y-188181D01*
X161728Y-188832D01*
Y-189537D01*
X161998Y-190188D01*
X162496Y-190686D01*
X163148Y-190956D01*
X163852D01*
X164504Y-190686D01*
X165002Y-190188D01*
X165272Y-189537D01*
Y-188832D01*
X165002Y-188181D01*
X164504Y-187682D01*
X163852Y-187413D01*
D02*
G37*
G36*
X252852Y-187728D02*
X252148D01*
X251496Y-187998D01*
X250998Y-188496D01*
X250728Y-189148D01*
Y-189852D01*
X250998Y-190504D01*
X251496Y-191002D01*
X252148Y-191272D01*
X252852D01*
X253504Y-191002D01*
X254002Y-190504D01*
X254272Y-189852D01*
Y-189148D01*
X254002Y-188496D01*
X253504Y-187998D01*
X252852Y-187728D01*
D02*
G37*
G36*
X504427Y-185280D02*
X503395D01*
X502397Y-185547D01*
X501504Y-186063D01*
X500774Y-186793D01*
X500258Y-187687D01*
X499991Y-188684D01*
Y-189716D01*
X500258Y-190713D01*
X500774Y-191607D01*
X501504Y-192337D01*
X502397Y-192853D01*
X503395Y-193120D01*
X504427D01*
X505424Y-192853D01*
X506318Y-192337D01*
X507048Y-191607D01*
X507563Y-190713D01*
X507831Y-189716D01*
Y-188684D01*
X507563Y-187687D01*
X507048Y-186793D01*
X506318Y-186063D01*
X505424Y-185547D01*
X504427Y-185280D01*
D02*
G37*
G36*
X175852Y-189728D02*
X175148D01*
X174496Y-189998D01*
X173998Y-190496D01*
X173728Y-191148D01*
Y-191852D01*
X173998Y-192504D01*
X174496Y-193002D01*
X175148Y-193272D01*
X175852D01*
X176504Y-193002D01*
X177002Y-192504D01*
X177272Y-191852D01*
Y-191148D01*
X177002Y-190496D01*
X176504Y-189998D01*
X175852Y-189728D01*
D02*
G37*
G36*
X414781Y-190379D02*
X414077D01*
X413425Y-190649D01*
X412927Y-191147D01*
X412657Y-191798D01*
Y-192503D01*
X412927Y-193154D01*
X413425Y-193652D01*
X414077Y-193922D01*
X414781D01*
X415433Y-193652D01*
X415931Y-193154D01*
X416201Y-192503D01*
Y-191798D01*
X415931Y-191147D01*
X415433Y-190649D01*
X414781Y-190379D01*
D02*
G37*
G36*
X400352Y-191228D02*
X399648D01*
X398996Y-191498D01*
X398498Y-191996D01*
X398228Y-192648D01*
Y-193352D01*
X398498Y-194004D01*
X398996Y-194502D01*
X399648Y-194772D01*
X400352D01*
X401004Y-194502D01*
X401502Y-194004D01*
X401772Y-193352D01*
Y-192648D01*
X401502Y-191996D01*
X401004Y-191498D01*
X400352Y-191228D01*
D02*
G37*
G36*
X304253Y-188613D02*
X303548D01*
X302897Y-188882D01*
X302399Y-189381D01*
X302129Y-190032D01*
Y-190737D01*
X302399Y-191388D01*
X302897Y-191886D01*
X303548Y-192156D01*
X304006D01*
X304272Y-192542D01*
X304228Y-192648D01*
Y-193352D01*
X304498Y-194004D01*
X304996Y-194502D01*
X305648Y-194772D01*
X306352D01*
X307004Y-194502D01*
X307502Y-194004D01*
X307772Y-193352D01*
Y-192648D01*
X307502Y-191996D01*
X307004Y-191498D01*
X306352Y-191228D01*
X305895D01*
X305628Y-190843D01*
X305672Y-190737D01*
Y-190032D01*
X305403Y-189381D01*
X304904Y-188882D01*
X304253Y-188613D01*
D02*
G37*
G36*
X280074Y-191819D02*
X279369D01*
X278718Y-192089D01*
X278220Y-192587D01*
X277950Y-193238D01*
Y-193943D01*
X278220Y-194594D01*
X278718Y-195093D01*
X279369Y-195362D01*
X280074D01*
X280725Y-195093D01*
X281224Y-194594D01*
X281493Y-193943D01*
Y-193238D01*
X281224Y-192587D01*
X280725Y-192089D01*
X280074Y-191819D01*
D02*
G37*
G36*
X229796Y-193102D02*
X229092D01*
X228440Y-193371D01*
X227942Y-193870D01*
X227672Y-194521D01*
Y-195226D01*
X227942Y-195877D01*
X228440Y-196375D01*
X229092Y-196645D01*
X229796D01*
X230447Y-196375D01*
X230946Y-195877D01*
X231216Y-195226D01*
Y-194521D01*
X230946Y-193870D01*
X230447Y-193371D01*
X229796Y-193102D01*
D02*
G37*
G36*
X404352Y-193728D02*
X403648D01*
X402996Y-193998D01*
X402498Y-194496D01*
X402228Y-195148D01*
Y-195852D01*
X402498Y-196504D01*
X402996Y-197002D01*
X403648Y-197272D01*
X404352D01*
X405004Y-197002D01*
X405502Y-196504D01*
X405772Y-195852D01*
Y-195148D01*
X405502Y-194496D01*
X405004Y-193998D01*
X404352Y-193728D01*
D02*
G37*
G36*
X393684Y-194228D02*
X392979D01*
X392328Y-194497D01*
X391830Y-194996D01*
X391560Y-195647D01*
Y-196352D01*
X391830Y-197003D01*
X392328Y-197501D01*
X392979Y-197771D01*
X393684D01*
X394335Y-197501D01*
X394833Y-197003D01*
X395103Y-196352D01*
Y-195647D01*
X394833Y-194996D01*
X394335Y-194497D01*
X393684Y-194228D01*
D02*
G37*
G36*
X389352Y-194228D02*
X388648D01*
X387996Y-194498D01*
X387498Y-194996D01*
X387228Y-195648D01*
Y-196352D01*
X387498Y-197004D01*
X387996Y-197502D01*
X388648Y-197772D01*
X389352D01*
X390004Y-197502D01*
X390502Y-197004D01*
X390772Y-196352D01*
Y-195648D01*
X390502Y-194996D01*
X390004Y-194498D01*
X389352Y-194228D01*
D02*
G37*
G36*
X144852Y-194728D02*
X144148D01*
X143496Y-194998D01*
X142998Y-195496D01*
X142728Y-196148D01*
Y-196852D01*
X142998Y-197504D01*
X143496Y-198002D01*
X144148Y-198272D01*
X144852D01*
X145504Y-198002D01*
X146002Y-197504D01*
X146272Y-196852D01*
Y-196148D01*
X146002Y-195496D01*
X145504Y-194998D01*
X144852Y-194728D01*
D02*
G37*
G36*
X256352Y-196228D02*
X255648D01*
X254996Y-196498D01*
X254498Y-196996D01*
X254228Y-197648D01*
Y-198352D01*
X254498Y-199004D01*
X254996Y-199502D01*
X255648Y-199772D01*
X256352D01*
X257004Y-199502D01*
X257502Y-199004D01*
X257772Y-198352D01*
Y-197648D01*
X257502Y-196996D01*
X257004Y-196498D01*
X256352Y-196228D01*
D02*
G37*
G36*
X148692Y-196403D02*
X147987D01*
X147336Y-196673D01*
X146837Y-197171D01*
X146568Y-197823D01*
Y-198527D01*
X146837Y-199179D01*
X147336Y-199677D01*
X147987Y-199947D01*
X148692D01*
X149343Y-199677D01*
X149841Y-199179D01*
X150111Y-198527D01*
Y-197823D01*
X149841Y-197171D01*
X149343Y-196673D01*
X148692Y-196403D01*
D02*
G37*
G36*
X422852Y-196728D02*
X422148D01*
X421496Y-196998D01*
X420998Y-197496D01*
X420728Y-198148D01*
Y-198852D01*
X420998Y-199504D01*
X421496Y-200002D01*
X422148Y-200272D01*
X422852D01*
X423504Y-200002D01*
X424002Y-199504D01*
X424272Y-198852D01*
Y-198148D01*
X424002Y-197496D01*
X423504Y-196998D01*
X422852Y-196728D01*
D02*
G37*
G36*
X298352D02*
X297648D01*
X296996Y-196998D01*
X296498Y-197496D01*
X296228Y-198148D01*
Y-198852D01*
X296498Y-199504D01*
X296996Y-200002D01*
X297648Y-200272D01*
X298352D01*
X299004Y-200002D01*
X299502Y-199504D01*
X299772Y-198852D01*
Y-198148D01*
X299502Y-197496D01*
X299004Y-196998D01*
X298352Y-196728D01*
D02*
G37*
G36*
X182852D02*
X182148D01*
X181496Y-196998D01*
X180998Y-197496D01*
X180728Y-198148D01*
Y-198852D01*
X180998Y-199504D01*
X181496Y-200002D01*
X182148Y-200272D01*
X182852D01*
X183504Y-200002D01*
X184002Y-199504D01*
X184272Y-198852D01*
Y-198148D01*
X184002Y-197496D01*
X183504Y-196998D01*
X182852Y-196728D01*
D02*
G37*
G36*
X436352Y-197063D02*
X435648D01*
X434996Y-197333D01*
X434498Y-197831D01*
X434228Y-198482D01*
Y-199187D01*
X434498Y-199838D01*
X434996Y-200337D01*
X435648Y-200606D01*
X436352D01*
X437004Y-200337D01*
X437502Y-199838D01*
X437772Y-199187D01*
Y-198482D01*
X437502Y-197831D01*
X437004Y-197333D01*
X436352Y-197063D01*
D02*
G37*
G36*
X240352Y-197728D02*
X239648D01*
X238996Y-197998D01*
X238498Y-198496D01*
X238228Y-199148D01*
Y-199852D01*
X238498Y-200504D01*
X238996Y-201002D01*
X239648Y-201272D01*
X240352D01*
X241004Y-201002D01*
X241502Y-200504D01*
X241772Y-199852D01*
Y-199148D01*
X241502Y-198496D01*
X241004Y-197998D01*
X240352Y-197728D01*
D02*
G37*
G36*
X151905Y-199101D02*
X151200D01*
X150549Y-199371D01*
X150051Y-199869D01*
X149781Y-200520D01*
Y-201225D01*
X150051Y-201876D01*
X150549Y-202374D01*
X151200Y-202644D01*
X151905D01*
X152556Y-202374D01*
X153055Y-201876D01*
X153324Y-201225D01*
Y-200520D01*
X153055Y-199869D01*
X152556Y-199371D01*
X151905Y-199101D01*
D02*
G37*
G36*
X173352Y-199228D02*
X172648D01*
X171996Y-199498D01*
X171498Y-199996D01*
X171228Y-200648D01*
Y-201352D01*
X171498Y-202004D01*
X171996Y-202502D01*
X172648Y-202772D01*
X173352D01*
X174004Y-202502D01*
X174502Y-202004D01*
X174772Y-201352D01*
Y-200648D01*
X174502Y-199996D01*
X174004Y-199498D01*
X173352Y-199228D01*
D02*
G37*
G36*
X450064Y-199542D02*
X449359D01*
X448708Y-199812D01*
X448210Y-200310D01*
X447940Y-200961D01*
Y-201666D01*
X448210Y-202317D01*
X448708Y-202816D01*
X449359Y-203085D01*
X450064D01*
X450715Y-202816D01*
X451214Y-202317D01*
X451483Y-201666D01*
Y-200961D01*
X451214Y-200310D01*
X450715Y-199812D01*
X450064Y-199542D01*
D02*
G37*
G36*
X307352Y-200228D02*
X306648D01*
X305996Y-200498D01*
X305498Y-200996D01*
X305228Y-201648D01*
Y-202352D01*
X305498Y-203004D01*
X305996Y-203502D01*
X306648Y-203772D01*
X307352D01*
X308004Y-203502D01*
X308502Y-203004D01*
X308772Y-202352D01*
Y-201648D01*
X308502Y-200996D01*
X308004Y-200498D01*
X307352Y-200228D01*
D02*
G37*
G36*
X504427Y-196080D02*
X503395D01*
X502397Y-196347D01*
X501504Y-196863D01*
X500774Y-197593D01*
X500258Y-198487D01*
X499991Y-199484D01*
Y-200516D01*
X500258Y-201513D01*
X500774Y-202407D01*
X501504Y-203137D01*
X502397Y-203653D01*
X503395Y-203920D01*
X504427D01*
X505424Y-203653D01*
X506318Y-203137D01*
X507048Y-202407D01*
X507563Y-201513D01*
X507831Y-200516D01*
Y-199484D01*
X507563Y-198487D01*
X507048Y-197593D01*
X506318Y-196863D01*
X505424Y-196347D01*
X504427Y-196080D01*
D02*
G37*
G36*
X258852Y-200444D02*
X258148D01*
X257496Y-200714D01*
X256998Y-201212D01*
X256728Y-201863D01*
Y-202568D01*
X256998Y-203219D01*
X257496Y-203718D01*
X258148Y-203987D01*
X258852D01*
X259504Y-203718D01*
X260002Y-203219D01*
X260272Y-202568D01*
Y-201863D01*
X260002Y-201212D01*
X259504Y-200714D01*
X258852Y-200444D01*
D02*
G37*
G36*
X339852Y-201228D02*
X339148D01*
X338496Y-201498D01*
X337998Y-201996D01*
X337728Y-202648D01*
Y-203352D01*
X337998Y-204004D01*
X338496Y-204502D01*
X339148Y-204772D01*
X339852D01*
X340504Y-204502D01*
X341002Y-204004D01*
X341272Y-203352D01*
Y-202648D01*
X341002Y-201996D01*
X340504Y-201498D01*
X339852Y-201228D01*
D02*
G37*
G36*
X143852D02*
X143148D01*
X142496Y-201498D01*
X141998Y-201996D01*
X141728Y-202648D01*
Y-203352D01*
X141998Y-204004D01*
X142496Y-204502D01*
X143148Y-204772D01*
X143852D01*
X144504Y-204502D01*
X145002Y-204004D01*
X145272Y-203352D01*
Y-202648D01*
X145002Y-201996D01*
X144504Y-201498D01*
X143852Y-201228D01*
D02*
G37*
G36*
X287352Y-202728D02*
X286648D01*
X285996Y-202998D01*
X285498Y-203496D01*
X285228Y-204148D01*
Y-204852D01*
X285498Y-205504D01*
X285996Y-206002D01*
X286648Y-206272D01*
X287352D01*
X288004Y-206002D01*
X288502Y-205504D01*
X288772Y-204852D01*
Y-204148D01*
X288502Y-203496D01*
X288004Y-202998D01*
X287352Y-202728D01*
D02*
G37*
G36*
X197352Y-203728D02*
X196648D01*
X195996Y-203998D01*
X195498Y-204496D01*
X195228Y-205148D01*
Y-205852D01*
X195498Y-206504D01*
X195996Y-207002D01*
X196648Y-207272D01*
X197352D01*
X198004Y-207002D01*
X198502Y-206504D01*
X198772Y-205852D01*
Y-205148D01*
X198502Y-204496D01*
X198004Y-203998D01*
X197352Y-203728D01*
D02*
G37*
G36*
X155383Y-203964D02*
X154678D01*
X154027Y-204234D01*
X153529Y-204732D01*
X153259Y-205383D01*
Y-206088D01*
X153529Y-206739D01*
X154027Y-207237D01*
X154678Y-207507D01*
X155383D01*
X156034Y-207237D01*
X156533Y-206739D01*
X156802Y-206088D01*
Y-205383D01*
X156533Y-204732D01*
X156034Y-204234D01*
X155383Y-203964D01*
D02*
G37*
G36*
X169852Y-204144D02*
X169148D01*
X168496Y-204414D01*
X167998Y-204912D01*
X167728Y-205563D01*
Y-206268D01*
X167998Y-206919D01*
X168496Y-207418D01*
X169148Y-207687D01*
X169852D01*
X170504Y-207418D01*
X171002Y-206919D01*
X171272Y-206268D01*
Y-205563D01*
X171002Y-204912D01*
X170504Y-204414D01*
X169852Y-204144D01*
D02*
G37*
G36*
X416852Y-204228D02*
X416148D01*
X415496Y-204498D01*
X414998Y-204996D01*
X414728Y-205648D01*
Y-206352D01*
X414998Y-207004D01*
X415496Y-207502D01*
X416148Y-207772D01*
X416852D01*
X417504Y-207502D01*
X418002Y-207004D01*
X418272Y-206352D01*
Y-205648D01*
X418002Y-204996D01*
X417504Y-204498D01*
X416852Y-204228D01*
D02*
G37*
G36*
X237352D02*
X236648D01*
X235996Y-204498D01*
X235498Y-204996D01*
X235228Y-205648D01*
Y-206352D01*
X235498Y-207004D01*
X235996Y-207502D01*
X236648Y-207772D01*
X237352D01*
X238004Y-207502D01*
X238502Y-207004D01*
X238772Y-206352D01*
Y-205648D01*
X238502Y-204996D01*
X238004Y-204498D01*
X237352Y-204228D01*
D02*
G37*
G36*
X277352Y-204728D02*
X276648D01*
X275996Y-204998D01*
X275498Y-205496D01*
X275228Y-206148D01*
Y-206852D01*
X275498Y-207504D01*
X275996Y-208002D01*
X276648Y-208272D01*
X277352D01*
X278004Y-208002D01*
X278502Y-207504D01*
X278772Y-206852D01*
Y-206148D01*
X278502Y-205496D01*
X278004Y-204998D01*
X277352Y-204728D01*
D02*
G37*
G36*
X252852D02*
X252148D01*
X251496Y-204998D01*
X250998Y-205496D01*
X250728Y-206148D01*
Y-206852D01*
X250998Y-207504D01*
X251496Y-208002D01*
X252148Y-208272D01*
X252852D01*
X253504Y-208002D01*
X254002Y-207504D01*
X254272Y-206852D01*
Y-206148D01*
X254002Y-205496D01*
X253504Y-204998D01*
X252852Y-204728D01*
D02*
G37*
G36*
X335352Y-205015D02*
X334648D01*
X333996Y-205285D01*
X333498Y-205783D01*
X333228Y-206434D01*
Y-207139D01*
X333498Y-207790D01*
X333996Y-208289D01*
X334648Y-208559D01*
X335352D01*
X336004Y-208289D01*
X336502Y-207790D01*
X336772Y-207139D01*
Y-206434D01*
X336502Y-205783D01*
X336004Y-205285D01*
X335352Y-205015D01*
D02*
G37*
G36*
X115415Y-187350D02*
X114585D01*
X113784Y-187565D01*
X113066Y-187980D01*
X112480Y-188566D01*
X112065Y-189284D01*
X111850Y-190085D01*
Y-190915D01*
X112065Y-191716D01*
X112480Y-192434D01*
X113046Y-193000D01*
X112480Y-193566D01*
X112065Y-194284D01*
X111850Y-195085D01*
Y-195915D01*
X112065Y-196716D01*
X112480Y-197434D01*
X113046Y-198000D01*
X112480Y-198566D01*
X112065Y-199284D01*
X111850Y-200085D01*
Y-200915D01*
X112065Y-201716D01*
X112480Y-202434D01*
X113046Y-203000D01*
X112480Y-203566D01*
X112065Y-204284D01*
X111850Y-205085D01*
Y-205915D01*
X112065Y-206716D01*
X112480Y-207434D01*
X113066Y-208020D01*
X113784Y-208435D01*
X114585Y-208650D01*
X115415D01*
X116216Y-208435D01*
X116934Y-208020D01*
X117520Y-207434D01*
X117935Y-206716D01*
X118150Y-205915D01*
Y-205085D01*
X117935Y-204284D01*
X117520Y-203566D01*
X116954Y-203000D01*
X117520Y-202434D01*
X117935Y-201716D01*
X118150Y-200915D01*
Y-200085D01*
X117935Y-199284D01*
X117520Y-198566D01*
X116954Y-198000D01*
X117520Y-197434D01*
X117935Y-196716D01*
X118150Y-195915D01*
Y-195085D01*
X117935Y-194284D01*
X117520Y-193566D01*
X116954Y-193000D01*
X117520Y-192434D01*
X117935Y-191716D01*
X118150Y-190915D01*
Y-190085D01*
X117935Y-189284D01*
X117520Y-188566D01*
X116934Y-187980D01*
X116216Y-187565D01*
X115415Y-187350D01*
D02*
G37*
G36*
X360852Y-205228D02*
X360148D01*
X359496Y-205498D01*
X358998Y-205996D01*
X358728Y-206648D01*
Y-207352D01*
X358998Y-208004D01*
X359496Y-208502D01*
X360148Y-208772D01*
X360852D01*
X361504Y-208502D01*
X362002Y-208004D01*
X362272Y-207352D01*
Y-206648D01*
X362002Y-205996D01*
X361504Y-205498D01*
X360852Y-205228D01*
D02*
G37*
G36*
X215005Y-201812D02*
X214300D01*
X213649Y-202081D01*
X213150Y-202580D01*
X212881Y-203231D01*
Y-203936D01*
X213150Y-204587D01*
X213595Y-205031D01*
X213596Y-205457D01*
X213496Y-205498D01*
X212998Y-205996D01*
X212728Y-206648D01*
Y-207352D01*
X212998Y-208004D01*
X213496Y-208502D01*
X214148Y-208772D01*
X214852D01*
X215504Y-208502D01*
X216002Y-208004D01*
X216272Y-207352D01*
Y-206648D01*
X216002Y-205996D01*
X215558Y-205552D01*
X215557Y-205126D01*
X215656Y-205085D01*
X216154Y-204587D01*
X216424Y-203936D01*
Y-203231D01*
X216154Y-202580D01*
X215656Y-202081D01*
X215005Y-201812D01*
D02*
G37*
G36*
X493227Y-201480D02*
X492195D01*
X491197Y-201747D01*
X490304Y-202263D01*
X489574Y-202993D01*
X489058Y-203887D01*
X488791Y-204884D01*
Y-205916D01*
X489058Y-206913D01*
X489574Y-207807D01*
X490304Y-208537D01*
X491197Y-209053D01*
X492195Y-209320D01*
X493227D01*
X494224Y-209053D01*
X495118Y-208537D01*
X495848Y-207807D01*
X496364Y-206913D01*
X496631Y-205916D01*
Y-204884D01*
X496364Y-203887D01*
X495848Y-202993D01*
X495118Y-202263D01*
X494224Y-201747D01*
X493227Y-201480D01*
D02*
G37*
G36*
X476060Y-206540D02*
X475355D01*
X474704Y-206810D01*
X474206Y-207308D01*
X473936Y-207959D01*
Y-208664D01*
X474206Y-209315D01*
X474704Y-209814D01*
X475355Y-210084D01*
X476060D01*
X476711Y-209814D01*
X477210Y-209315D01*
X477480Y-208664D01*
Y-207959D01*
X477210Y-207308D01*
X476711Y-206810D01*
X476060Y-206540D01*
D02*
G37*
G36*
X147852Y-207228D02*
X147148D01*
X146496Y-207498D01*
X145998Y-207996D01*
X145728Y-208648D01*
Y-209352D01*
X145998Y-210004D01*
X146496Y-210502D01*
X147148Y-210772D01*
X147852D01*
X148504Y-210502D01*
X149002Y-210004D01*
X149272Y-209352D01*
Y-208648D01*
X149002Y-207996D01*
X148504Y-207498D01*
X147852Y-207228D01*
D02*
G37*
G36*
X420352Y-207728D02*
X419648D01*
X418996Y-207998D01*
X418498Y-208496D01*
X418228Y-209148D01*
Y-209852D01*
X418498Y-210504D01*
X418996Y-211002D01*
X419648Y-211272D01*
X420352D01*
X421004Y-211002D01*
X421502Y-210504D01*
X421772Y-209852D01*
Y-209148D01*
X421502Y-208496D01*
X421004Y-207998D01*
X420352Y-207728D01*
D02*
G37*
G36*
X391953Y-203938D02*
X382110D01*
X381083Y-204074D01*
X380125Y-204470D01*
X379302Y-205101D01*
X378671Y-205924D01*
X378275Y-206881D01*
X378139Y-207909D01*
X378275Y-208937D01*
X378671Y-209895D01*
X379302Y-210717D01*
X380125Y-211348D01*
X381083Y-211745D01*
X382110Y-211880D01*
X391953D01*
X392981Y-211745D01*
X393938Y-211348D01*
X394761Y-210717D01*
X395392Y-209895D01*
X395788Y-208937D01*
X395924Y-207909D01*
X395788Y-206881D01*
X395392Y-205924D01*
X394761Y-205101D01*
X393938Y-204470D01*
X392981Y-204074D01*
X391953Y-203938D01*
D02*
G37*
G36*
X425852Y-210228D02*
X425148D01*
X424496Y-210498D01*
X423998Y-210996D01*
X423728Y-211648D01*
Y-212182D01*
X423402Y-212446D01*
X423365Y-212457D01*
X422947Y-212284D01*
X422242D01*
X421591Y-212554D01*
X421093Y-213052D01*
X420823Y-213703D01*
Y-214408D01*
X421065Y-214993D01*
X421060Y-215226D01*
X421017Y-215439D01*
X420972Y-215457D01*
X420474Y-215955D01*
X420204Y-216607D01*
Y-217312D01*
X420474Y-217963D01*
X420972Y-218461D01*
X421624Y-218731D01*
X422328D01*
X422980Y-218461D01*
X423210Y-218230D01*
X423498Y-218004D01*
X423725Y-218230D01*
X423996Y-218502D01*
X424648Y-218772D01*
X425352D01*
X426004Y-218502D01*
X426502Y-218004D01*
X426772Y-217352D01*
Y-216648D01*
X426502Y-215996D01*
X426004Y-215498D01*
X425352Y-215228D01*
X424648D01*
X424369Y-215344D01*
X424170Y-215137D01*
X424111Y-215024D01*
X424366Y-214408D01*
Y-213874D01*
X424692Y-213610D01*
X424730Y-213599D01*
X425148Y-213772D01*
X425852D01*
X426504Y-213502D01*
X427002Y-213004D01*
X427272Y-212352D01*
Y-211648D01*
X427002Y-210996D01*
X426504Y-210498D01*
X425852Y-210228D01*
D02*
G37*
G36*
X355352Y-209228D02*
X354648D01*
X353996Y-209498D01*
X353498Y-209996D01*
X353228Y-210648D01*
Y-211352D01*
X353498Y-212004D01*
X353996Y-212502D01*
X354648Y-212772D01*
X355352D01*
X356004Y-212502D01*
X356502Y-212004D01*
X356772Y-211352D01*
Y-210648D01*
X356502Y-209996D01*
X356004Y-209498D01*
X355352Y-209228D01*
D02*
G37*
G36*
X277852D02*
X277148D01*
X276496Y-209498D01*
X275998Y-209996D01*
X275728Y-210648D01*
Y-211352D01*
X275998Y-212004D01*
X276496Y-212502D01*
X277148Y-212772D01*
X277852D01*
X278504Y-212502D01*
X279002Y-212004D01*
X279272Y-211352D01*
Y-210648D01*
X279002Y-209996D01*
X278504Y-209498D01*
X277852Y-209228D01*
D02*
G37*
G36*
X144457Y-210088D02*
X143753D01*
X143101Y-210357D01*
X142603Y-210856D01*
X142333Y-211507D01*
Y-212212D01*
X142603Y-212863D01*
X143101Y-213361D01*
X143753Y-213631D01*
X144457D01*
X145108Y-213361D01*
X145607Y-212863D01*
X145877Y-212212D01*
Y-211507D01*
X145607Y-210856D01*
X145108Y-210357D01*
X144457Y-210088D01*
D02*
G37*
G36*
X406852Y-210228D02*
X406148D01*
X405496Y-210498D01*
X404998Y-210996D01*
X404728Y-211648D01*
Y-212352D01*
X404998Y-213004D01*
X405496Y-213502D01*
X406148Y-213772D01*
X406852D01*
X407504Y-213502D01*
X408002Y-213004D01*
X408272Y-212352D01*
Y-211648D01*
X408002Y-210996D01*
X407504Y-210498D01*
X406852Y-210228D01*
D02*
G37*
G36*
X138352Y-210728D02*
X137648D01*
X136996Y-210998D01*
X136498Y-211496D01*
X136228Y-212148D01*
Y-212852D01*
X136498Y-213504D01*
X136996Y-214002D01*
X137648Y-214272D01*
X138352D01*
X139004Y-214002D01*
X139502Y-213504D01*
X139772Y-212852D01*
Y-212148D01*
X139502Y-211496D01*
X139004Y-210998D01*
X138352Y-210728D01*
D02*
G37*
G36*
X504427Y-206880D02*
X503395D01*
X502397Y-207147D01*
X501504Y-207663D01*
X500774Y-208393D01*
X500258Y-209287D01*
X499991Y-210284D01*
Y-211316D01*
X500258Y-212313D01*
X500774Y-213207D01*
X501504Y-213937D01*
X502397Y-214453D01*
X503395Y-214720D01*
X504427D01*
X505424Y-214453D01*
X506318Y-213937D01*
X507048Y-213207D01*
X507563Y-212313D01*
X507831Y-211316D01*
Y-210284D01*
X507563Y-209287D01*
X507048Y-208393D01*
X506318Y-207663D01*
X505424Y-207147D01*
X504427Y-206880D01*
D02*
G37*
G36*
X307352Y-211728D02*
X306648D01*
X305996Y-211998D01*
X305498Y-212496D01*
X305228Y-213148D01*
Y-213852D01*
X305498Y-214504D01*
X305996Y-215002D01*
X306648Y-215272D01*
X307352D01*
X308004Y-215002D01*
X308502Y-214504D01*
X308772Y-213852D01*
Y-213148D01*
X308502Y-212496D01*
X308004Y-211998D01*
X307352Y-211728D01*
D02*
G37*
G36*
X277852Y-213728D02*
X277148D01*
X276496Y-213998D01*
X275998Y-214496D01*
X275728Y-215148D01*
Y-215852D01*
X275998Y-216504D01*
X276496Y-217002D01*
X277148Y-217272D01*
X277852D01*
X278504Y-217002D01*
X279002Y-216504D01*
X279272Y-215852D01*
Y-215148D01*
X279002Y-214496D01*
X278504Y-213998D01*
X277852Y-213728D01*
D02*
G37*
G36*
X176251D02*
X175546D01*
X174894Y-213998D01*
X174396Y-214496D01*
X174126Y-215148D01*
Y-215852D01*
X174396Y-216504D01*
X174894Y-217002D01*
X175546Y-217272D01*
X176251D01*
X176902Y-217002D01*
X177400Y-216504D01*
X177670Y-215852D01*
Y-215148D01*
X177400Y-214496D01*
X176902Y-213998D01*
X176251Y-213728D01*
D02*
G37*
G36*
X32352Y-214728D02*
X31648D01*
X30996Y-214998D01*
X30498Y-215496D01*
X30228Y-216148D01*
Y-216852D01*
X30498Y-217504D01*
X30996Y-218002D01*
X31648Y-218272D01*
X32352D01*
X33004Y-218002D01*
X33502Y-217504D01*
X33772Y-216852D01*
Y-216148D01*
X33502Y-215496D01*
X33004Y-214998D01*
X32352Y-214728D01*
D02*
G37*
G36*
X218352Y-215728D02*
X217648D01*
X216996Y-215998D01*
X216498Y-216496D01*
X216228Y-217148D01*
Y-217852D01*
X216498Y-218504D01*
X216996Y-219002D01*
X217648Y-219272D01*
X218352D01*
X219004Y-219002D01*
X219502Y-218504D01*
X219772Y-217852D01*
Y-217148D01*
X219502Y-216496D01*
X219004Y-215998D01*
X218352Y-215728D01*
D02*
G37*
G36*
X191852D02*
X191148D01*
X190496Y-215998D01*
X189998Y-216496D01*
X189728Y-217148D01*
Y-217852D01*
X189998Y-218504D01*
X190496Y-219002D01*
X191148Y-219272D01*
X191852D01*
X192504Y-219002D01*
X193002Y-218504D01*
X193272Y-217852D01*
Y-217148D01*
X193002Y-216496D01*
X192504Y-215998D01*
X191852Y-215728D01*
D02*
G37*
G36*
X418352Y-216228D02*
X417648D01*
X416996Y-216498D01*
X416498Y-216996D01*
X416228Y-217648D01*
Y-218352D01*
X416498Y-219004D01*
X416996Y-219502D01*
X417648Y-219772D01*
X418352D01*
X419004Y-219502D01*
X419502Y-219004D01*
X419772Y-218352D01*
Y-217648D01*
X419502Y-216996D01*
X419004Y-216498D01*
X418352Y-216228D01*
D02*
G37*
G36*
X493227Y-212280D02*
X492195D01*
X491197Y-212547D01*
X490304Y-213063D01*
X489574Y-213793D01*
X489058Y-214687D01*
X488791Y-215684D01*
Y-216716D01*
X489058Y-217713D01*
X489574Y-218607D01*
X490304Y-219337D01*
X491197Y-219853D01*
X492195Y-220120D01*
X493227D01*
X494224Y-219853D01*
X495118Y-219337D01*
X495848Y-218607D01*
X496364Y-217713D01*
X496631Y-216716D01*
Y-215684D01*
X496364Y-214687D01*
X495848Y-213793D01*
X495118Y-213063D01*
X494224Y-212547D01*
X493227Y-212280D01*
D02*
G37*
G36*
X113200Y-216879D02*
X112495D01*
X111844Y-217149D01*
X111345Y-217648D01*
X111076Y-218299D01*
Y-219004D01*
X111345Y-219655D01*
X111844Y-220153D01*
X112495Y-220423D01*
X113200D01*
X113851Y-220153D01*
X114349Y-219655D01*
X114619Y-219004D01*
Y-218299D01*
X114349Y-217648D01*
X113851Y-217149D01*
X113200Y-216879D01*
D02*
G37*
G36*
X155434Y-217813D02*
X154729D01*
X154078Y-218082D01*
X153580Y-218581D01*
X153310Y-219232D01*
Y-219937D01*
X153580Y-220588D01*
X154078Y-221086D01*
X154729Y-221356D01*
X155434D01*
X156085Y-221086D01*
X156583Y-220588D01*
X156853Y-219937D01*
Y-219232D01*
X156583Y-218581D01*
X156085Y-218082D01*
X155434Y-217813D01*
D02*
G37*
G36*
X277852Y-218728D02*
X277148D01*
X276496Y-218998D01*
X275998Y-219496D01*
X275728Y-220148D01*
Y-220852D01*
X275998Y-221504D01*
X276496Y-222002D01*
X277148Y-222272D01*
X277852D01*
X278504Y-222002D01*
X279002Y-221504D01*
X279272Y-220852D01*
Y-220148D01*
X279002Y-219496D01*
X278504Y-218998D01*
X277852Y-218728D01*
D02*
G37*
G36*
X396352Y-217728D02*
X395648D01*
X394996Y-217998D01*
X394498Y-218496D01*
X394228Y-219148D01*
Y-219852D01*
X394498Y-220504D01*
X394996Y-221002D01*
X395648Y-221272D01*
X396352D01*
X397004Y-221002D01*
X397116Y-220889D01*
X397450Y-221112D01*
X397228Y-221648D01*
Y-222352D01*
X397498Y-223004D01*
X397996Y-223502D01*
X398648Y-223772D01*
X399352D01*
X400004Y-223502D01*
X400502Y-223004D01*
X400772Y-222352D01*
Y-221648D01*
X400502Y-220996D01*
X400004Y-220498D01*
X399352Y-220228D01*
X398648D01*
X397996Y-220498D01*
X397884Y-220611D01*
X397550Y-220388D01*
X397772Y-219852D01*
Y-219148D01*
X397502Y-218496D01*
X397004Y-217998D01*
X396352Y-217728D01*
D02*
G37*
G36*
X305352Y-221728D02*
X304648D01*
X303996Y-221998D01*
X303498Y-222496D01*
X303228Y-223148D01*
Y-223852D01*
X303498Y-224504D01*
X303996Y-225002D01*
X304648Y-225272D01*
X305352D01*
X306004Y-225002D01*
X306502Y-224504D01*
X306772Y-223852D01*
Y-223148D01*
X306502Y-222496D01*
X306004Y-221998D01*
X305352Y-221728D01*
D02*
G37*
G36*
X269352D02*
X268648D01*
X267996Y-221998D01*
X267498Y-222496D01*
X267228Y-223148D01*
Y-223852D01*
X267498Y-224504D01*
X267996Y-225002D01*
X268648Y-225272D01*
X269352D01*
X270004Y-225002D01*
X270502Y-224504D01*
X270772Y-223852D01*
Y-223148D01*
X270502Y-222496D01*
X270004Y-221998D01*
X269352Y-221728D01*
D02*
G37*
G36*
X504427Y-217680D02*
X503395D01*
X502397Y-217947D01*
X501504Y-218463D01*
X500774Y-219193D01*
X500258Y-220087D01*
X499991Y-221084D01*
Y-222116D01*
X500258Y-223113D01*
X500774Y-224007D01*
X501504Y-224737D01*
X502397Y-225253D01*
X503395Y-225520D01*
X504427D01*
X505424Y-225253D01*
X506318Y-224737D01*
X507048Y-224007D01*
X507563Y-223113D01*
X507831Y-222116D01*
Y-221084D01*
X507563Y-220087D01*
X507048Y-219193D01*
X506318Y-218463D01*
X505424Y-217947D01*
X504427Y-217680D01*
D02*
G37*
G36*
X417352Y-223228D02*
X416648D01*
X415996Y-223498D01*
X415498Y-223996D01*
X415228Y-224648D01*
Y-225352D01*
X415498Y-226004D01*
X415996Y-226502D01*
X416648Y-226772D01*
X417352D01*
X418004Y-226502D01*
X418502Y-226004D01*
X418772Y-225352D01*
Y-224648D01*
X418502Y-223996D01*
X418004Y-223498D01*
X417352Y-223228D01*
D02*
G37*
G36*
X257610Y-221193D02*
X250524D01*
Y-228279D01*
X257610D01*
Y-221193D01*
D02*
G37*
G36*
X191852Y-225228D02*
X191148D01*
X190496Y-225498D01*
X189998Y-225996D01*
X189728Y-226648D01*
Y-227352D01*
X189998Y-228004D01*
X190496Y-228502D01*
X191148Y-228772D01*
X191852D01*
X192504Y-228502D01*
X193002Y-228004D01*
X193272Y-227352D01*
Y-226648D01*
X193002Y-225996D01*
X192504Y-225498D01*
X191852Y-225228D01*
D02*
G37*
G36*
X182852D02*
X182148D01*
X181496Y-225498D01*
X180998Y-225996D01*
X180728Y-226648D01*
Y-227352D01*
X180998Y-228004D01*
X181496Y-228502D01*
X182148Y-228772D01*
X182852D01*
X183504Y-228502D01*
X184002Y-228004D01*
X184272Y-227352D01*
Y-226648D01*
X184002Y-225996D01*
X183504Y-225498D01*
X182852Y-225228D01*
D02*
G37*
G36*
X344454Y-223807D02*
X343547D01*
X342670Y-224042D01*
X341885Y-224495D01*
X341243Y-225137D01*
X340790Y-225922D01*
X340555Y-226798D01*
Y-227706D01*
X340790Y-228582D01*
X341243Y-229367D01*
X341885Y-230009D01*
X342670Y-230462D01*
X343547Y-230697D01*
X344454D01*
X345330Y-230462D01*
X346115Y-230009D01*
X346757Y-229367D01*
X347210Y-228582D01*
X347445Y-227706D01*
Y-226798D01*
X347210Y-225922D01*
X346757Y-225137D01*
X346115Y-224495D01*
X345330Y-224042D01*
X344454Y-223807D01*
D02*
G37*
G36*
X425852Y-228728D02*
X425148D01*
X424496Y-228998D01*
X423998Y-229496D01*
X423728Y-230148D01*
Y-230852D01*
X423998Y-231504D01*
X424496Y-232002D01*
X425148Y-232272D01*
X425852D01*
X426504Y-232002D01*
X427002Y-231504D01*
X427272Y-230852D01*
Y-230148D01*
X427002Y-229496D01*
X426504Y-228998D01*
X425852Y-228728D01*
D02*
G37*
G36*
X363409Y-214766D02*
X362382Y-214901D01*
X361424Y-215298D01*
X360601Y-215929D01*
X359970Y-216751D01*
X359574Y-217709D01*
X359438Y-218737D01*
Y-228579D01*
X359574Y-229607D01*
X359970Y-230564D01*
X360601Y-231387D01*
X361424Y-232018D01*
X362382Y-232415D01*
X363409Y-232550D01*
X364437Y-232415D01*
X365395Y-232018D01*
X366217Y-231387D01*
X366848Y-230564D01*
X367245Y-229607D01*
X367380Y-228579D01*
Y-218737D01*
X367245Y-217709D01*
X366848Y-216751D01*
X366217Y-215929D01*
X365395Y-215298D01*
X364437Y-214901D01*
X363409Y-214766D01*
D02*
G37*
G36*
X152056Y-229435D02*
X151351D01*
X150699Y-229705D01*
X150201Y-230204D01*
X149931Y-230855D01*
Y-231559D01*
X150201Y-232211D01*
X150699Y-232709D01*
X151351Y-232979D01*
X152056D01*
X152707Y-232709D01*
X153205Y-232211D01*
X153475Y-231559D01*
Y-230855D01*
X153205Y-230204D01*
X152707Y-229705D01*
X152056Y-229435D01*
D02*
G37*
G36*
X449852Y-229728D02*
X449148D01*
X448496Y-229998D01*
X447998Y-230496D01*
X447728Y-231148D01*
Y-231852D01*
X447998Y-232504D01*
X448496Y-233002D01*
X449148Y-233272D01*
X449852D01*
X450504Y-233002D01*
X451002Y-232504D01*
X451272Y-231852D01*
Y-231148D01*
X451002Y-230496D01*
X450504Y-229998D01*
X449852Y-229728D01*
D02*
G37*
G36*
X325842Y-234564D02*
X325174Y-234652D01*
X324552Y-234910D01*
X324017Y-235320D01*
X323607Y-235855D01*
X323401Y-236351D01*
X323008Y-236272D01*
Y-236121D01*
X318992D01*
Y-240137D01*
Y-243877D01*
Y-247421D01*
Y-250964D01*
Y-254508D01*
Y-258247D01*
X323008D01*
Y-258097D01*
X323401Y-258018D01*
X323607Y-258514D01*
X324017Y-259049D01*
X324552Y-259459D01*
X325174Y-259717D01*
X325842Y-259805D01*
X326510Y-259717D01*
X327133Y-259459D01*
X327667Y-259049D01*
X328078Y-258514D01*
X328336Y-257892D01*
X328424Y-257224D01*
Y-252893D01*
X328336Y-252225D01*
X328078Y-251603D01*
X327667Y-251068D01*
X327133Y-250658D01*
X326510Y-250400D01*
X325842Y-250312D01*
X325174Y-250400D01*
X324552Y-250658D01*
X324017Y-251068D01*
X323607Y-251603D01*
X323401Y-252099D01*
X323008Y-252020D01*
Y-247421D01*
Y-242349D01*
X323401Y-242270D01*
X323607Y-242766D01*
X324017Y-243301D01*
X324552Y-243711D01*
X325174Y-243969D01*
X325842Y-244057D01*
X326510Y-243969D01*
X327133Y-243711D01*
X327667Y-243301D01*
X328078Y-242766D01*
X328336Y-242144D01*
X328424Y-241476D01*
Y-237145D01*
X328336Y-236477D01*
X328078Y-235855D01*
X327667Y-235320D01*
X327133Y-234910D01*
X326510Y-234652D01*
X325842Y-234564D01*
D02*
G37*
G36*
X125173Y-232827D02*
X124468D01*
X123817Y-233097D01*
X123319Y-233595D01*
X123049Y-234246D01*
Y-234951D01*
X123319Y-235602D01*
X123817Y-236101D01*
X124468Y-236370D01*
X125173D01*
X125824Y-236101D01*
X126322Y-235602D01*
X126592Y-234951D01*
Y-234246D01*
X126322Y-233595D01*
X125824Y-233097D01*
X125173Y-232827D01*
D02*
G37*
G36*
X296854Y-234608D02*
X296186Y-234696D01*
X295564Y-234953D01*
X295029Y-235364D01*
X294619Y-235898D01*
X294413Y-236395D01*
X294019Y-236316D01*
Y-236165D01*
X290004D01*
Y-240180D01*
Y-243920D01*
Y-247464D01*
Y-251008D01*
Y-254551D01*
Y-258291D01*
X294019D01*
Y-258140D01*
X294413Y-258061D01*
X294619Y-258558D01*
X295029Y-259092D01*
X295564Y-259503D01*
X296186Y-259760D01*
X296854Y-259848D01*
X297522Y-259760D01*
X298145Y-259503D01*
X298679Y-259092D01*
X299090Y-258558D01*
X299347Y-257935D01*
X299435Y-257267D01*
Y-252937D01*
X299347Y-252269D01*
X299090Y-251646D01*
X298679Y-251112D01*
X298145Y-250701D01*
X297522Y-250444D01*
X296854Y-250356D01*
X296186Y-250444D01*
X295564Y-250701D01*
X295029Y-251112D01*
X294619Y-251646D01*
X294413Y-252143D01*
X294019Y-252064D01*
Y-247464D01*
Y-242392D01*
X294413Y-242313D01*
X294619Y-242810D01*
X295029Y-243344D01*
X295564Y-243755D01*
X296186Y-244012D01*
X296854Y-244100D01*
X297522Y-244012D01*
X298145Y-243755D01*
X298679Y-243344D01*
X299090Y-242810D01*
X299347Y-242187D01*
X299435Y-241519D01*
Y-237189D01*
X299347Y-236521D01*
X299090Y-235898D01*
X298679Y-235364D01*
X298145Y-234953D01*
X297522Y-234696D01*
X296854Y-234608D01*
D02*
G37*
G36*
X403352Y-233228D02*
X402648D01*
X401996Y-233498D01*
X401498Y-233996D01*
X401228Y-234648D01*
Y-235352D01*
X401498Y-236004D01*
X401996Y-236502D01*
X402648Y-236772D01*
X403352D01*
X404004Y-236502D01*
X404502Y-236004D01*
X404772Y-235352D01*
Y-234648D01*
X404502Y-233996D01*
X404004Y-233498D01*
X403352Y-233228D01*
D02*
G37*
G36*
X344454Y-231681D02*
X343547D01*
X342670Y-231916D01*
X341885Y-232369D01*
X341243Y-233011D01*
X340790Y-233796D01*
X340555Y-234672D01*
Y-235579D01*
X340790Y-236456D01*
X341243Y-237241D01*
X341885Y-237883D01*
X342670Y-238336D01*
X343547Y-238571D01*
X344454D01*
X345330Y-238336D01*
X346115Y-237883D01*
X346757Y-237241D01*
X347210Y-236456D01*
X347445Y-235579D01*
Y-234672D01*
X347210Y-233796D01*
X346757Y-233011D01*
X346115Y-232369D01*
X345330Y-231916D01*
X344454Y-231681D01*
D02*
G37*
G36*
X478890Y-236620D02*
X478186D01*
X477534Y-236890D01*
X477036Y-237388D01*
X476766Y-238039D01*
Y-238744D01*
X477036Y-239395D01*
X477534Y-239894D01*
X478186Y-240164D01*
X478890D01*
X479541Y-239894D01*
X480040Y-239395D01*
X480310Y-238744D01*
Y-238039D01*
X480040Y-237388D01*
X479541Y-236890D01*
X478890Y-236620D01*
D02*
G37*
G36*
X39709Y-230791D02*
X28291D01*
Y-242209D01*
X39709D01*
Y-230791D01*
D02*
G37*
G36*
X235352Y-242728D02*
X234648D01*
X233996Y-242998D01*
X233498Y-243496D01*
X233228Y-244148D01*
Y-244852D01*
X233498Y-245504D01*
X233996Y-246002D01*
X234648Y-246272D01*
X235352D01*
X236004Y-246002D01*
X236502Y-245504D01*
X236772Y-244852D01*
Y-244148D01*
X236502Y-243496D01*
X236004Y-242998D01*
X235352Y-242728D01*
D02*
G37*
G36*
X344454Y-239555D02*
X343547D01*
X342670Y-239790D01*
X341885Y-240243D01*
X341243Y-240885D01*
X340790Y-241670D01*
X340555Y-242547D01*
Y-243454D01*
X340790Y-244330D01*
X341243Y-245115D01*
X341885Y-245757D01*
X342670Y-246210D01*
X343547Y-246445D01*
X344454D01*
X345330Y-246210D01*
X346115Y-245757D01*
X346757Y-245115D01*
X347210Y-244330D01*
X347445Y-243454D01*
Y-242547D01*
X347210Y-241670D01*
X346757Y-240885D01*
X346115Y-240243D01*
X345330Y-239790D01*
X344454Y-239555D01*
D02*
G37*
G36*
X254533Y-240878D02*
X253601D01*
X252699Y-241119D01*
X251891Y-241586D01*
X251232Y-242246D01*
X250765Y-243054D01*
X250524Y-243955D01*
Y-244888D01*
X250765Y-245789D01*
X251232Y-246597D01*
X251891Y-247257D01*
X252699Y-247723D01*
X253601Y-247965D01*
X254533D01*
X255435Y-247723D01*
X256243Y-247257D01*
X256902Y-246597D01*
X257369Y-245789D01*
X257610Y-244888D01*
Y-243955D01*
X257369Y-243054D01*
X256902Y-242246D01*
X256243Y-241586D01*
X255435Y-241119D01*
X254533Y-240878D01*
D02*
G37*
G36*
X90852Y-246228D02*
X90148D01*
X89496Y-246498D01*
X88998Y-246996D01*
X88728Y-247648D01*
Y-248352D01*
X88998Y-249004D01*
X89496Y-249502D01*
X90148Y-249772D01*
X90852D01*
X91504Y-249502D01*
X92002Y-249004D01*
X92272Y-248352D01*
Y-247648D01*
X92002Y-246996D01*
X91504Y-246498D01*
X90852Y-246228D01*
D02*
G37*
G36*
X79352D02*
X78648D01*
X77996Y-246498D01*
X77498Y-246996D01*
X77228Y-247648D01*
Y-248352D01*
X77498Y-249004D01*
X77996Y-249502D01*
X78648Y-249772D01*
X79352D01*
X80004Y-249502D01*
X80502Y-249004D01*
X80772Y-248352D01*
Y-247648D01*
X80502Y-246996D01*
X80004Y-246498D01*
X79352Y-246228D01*
D02*
G37*
G36*
X310646Y-234564D02*
X309978Y-234652D01*
X309355Y-234910D01*
X308821Y-235320D01*
X308410Y-235855D01*
X308152Y-236477D01*
X308065Y-237145D01*
Y-241476D01*
X308152Y-242144D01*
X308410Y-242766D01*
X308821Y-243301D01*
X309355Y-243711D01*
X309978Y-243969D01*
X310646Y-244057D01*
X311314Y-243969D01*
X311936Y-243711D01*
X312471Y-243301D01*
X312881Y-242766D01*
X313087Y-242270D01*
X313480Y-242348D01*
Y-247421D01*
Y-252021D01*
X313087Y-252099D01*
X312881Y-251603D01*
X312471Y-251068D01*
X311936Y-250658D01*
X311314Y-250400D01*
X310646Y-250312D01*
X309978Y-250400D01*
X309355Y-250658D01*
X308821Y-251068D01*
X308410Y-251603D01*
X308152Y-252225D01*
X308065Y-252893D01*
Y-257224D01*
X308152Y-257892D01*
X308410Y-258514D01*
X308821Y-259049D01*
X309355Y-259459D01*
X309978Y-259717D01*
X310646Y-259805D01*
X311314Y-259717D01*
X311936Y-259459D01*
X312471Y-259049D01*
X312881Y-258514D01*
X313087Y-258018D01*
X313480Y-258096D01*
Y-258247D01*
X317496D01*
Y-254508D01*
Y-250964D01*
Y-247421D01*
Y-243877D01*
Y-240137D01*
Y-236121D01*
X313480D01*
Y-236273D01*
X313087Y-236351D01*
X312881Y-235855D01*
X312471Y-235320D01*
X311936Y-234910D01*
X311314Y-234652D01*
X310646Y-234564D01*
D02*
G37*
G36*
X281657Y-234608D02*
X280989Y-234696D01*
X280367Y-234953D01*
X279832Y-235364D01*
X279422Y-235898D01*
X279164Y-236521D01*
X279076Y-237189D01*
Y-241519D01*
X279164Y-242187D01*
X279422Y-242810D01*
X279832Y-243344D01*
X280367Y-243755D01*
X280989Y-244012D01*
X281657Y-244100D01*
X282325Y-244012D01*
X282948Y-243755D01*
X283483Y-243344D01*
X283893Y-242810D01*
X284098Y-242314D01*
X284492Y-242392D01*
Y-247464D01*
Y-252064D01*
X284098Y-252142D01*
X283893Y-251646D01*
X283483Y-251112D01*
X282948Y-250701D01*
X282325Y-250444D01*
X281657Y-250356D01*
X280989Y-250444D01*
X280367Y-250701D01*
X279832Y-251112D01*
X279422Y-251646D01*
X279164Y-252269D01*
X279076Y-252937D01*
Y-257267D01*
X279164Y-257935D01*
X279422Y-258558D01*
X279832Y-259092D01*
X280367Y-259503D01*
X280989Y-259760D01*
X281657Y-259848D01*
X282325Y-259760D01*
X282948Y-259503D01*
X283483Y-259092D01*
X283893Y-258558D01*
X284098Y-258062D01*
X284492Y-258140D01*
Y-258291D01*
X288508D01*
Y-254551D01*
Y-251008D01*
Y-247464D01*
Y-243920D01*
Y-240180D01*
Y-236165D01*
X284492D01*
Y-236316D01*
X284098Y-236394D01*
X283893Y-235898D01*
X283483Y-235364D01*
X282948Y-234953D01*
X282325Y-234696D01*
X281657Y-234608D01*
D02*
G37*
G36*
X222921Y-243079D02*
X213079D01*
Y-252921D01*
X222921D01*
Y-243079D01*
D02*
G37*
G36*
X203648D02*
X202352D01*
X201100Y-243414D01*
X199978Y-244062D01*
X199062Y-244978D01*
X198414Y-246100D01*
X198079Y-247352D01*
Y-248648D01*
X198414Y-249900D01*
X199062Y-251022D01*
X199978Y-251938D01*
X201100Y-252586D01*
X202352Y-252921D01*
X203648D01*
X204900Y-252586D01*
X206022Y-251938D01*
X206938Y-251022D01*
X207586Y-249900D01*
X207921Y-248648D01*
Y-247352D01*
X207586Y-246100D01*
X206938Y-244978D01*
X206022Y-244062D01*
X204900Y-243414D01*
X203648Y-243079D01*
D02*
G37*
G36*
X344454Y-247429D02*
X343547D01*
X342670Y-247664D01*
X341885Y-248117D01*
X341243Y-248759D01*
X340790Y-249544D01*
X340555Y-250420D01*
Y-251327D01*
X340790Y-252204D01*
X341243Y-252989D01*
X341885Y-253631D01*
X342670Y-254084D01*
X343547Y-254319D01*
X344454D01*
X345330Y-254084D01*
X346115Y-253631D01*
X346757Y-252989D01*
X347210Y-252204D01*
X347445Y-251327D01*
Y-250420D01*
X347210Y-249544D01*
X346757Y-248759D01*
X346115Y-248117D01*
X345330Y-247664D01*
X344454Y-247429D01*
D02*
G37*
G36*
X172073Y-243193D02*
X170929D01*
X169807Y-243416D01*
X168750Y-243853D01*
X167799Y-244489D01*
X166990Y-245298D01*
X166354Y-246249D01*
X165917Y-247306D01*
X165693Y-248428D01*
Y-249571D01*
X165917Y-250693D01*
X166354Y-251750D01*
X166990Y-252701D01*
X167799Y-253510D01*
X168750Y-254146D01*
X169807Y-254584D01*
X170929Y-254807D01*
X172073D01*
X173194Y-254584D01*
X174251Y-254146D01*
X175202Y-253510D01*
X176011Y-252701D01*
X176647Y-251750D01*
X177084Y-250693D01*
X177308Y-249571D01*
Y-248428D01*
X177084Y-247306D01*
X176647Y-246249D01*
X176011Y-245298D01*
X175202Y-244489D01*
X174251Y-243853D01*
X173194Y-243416D01*
X172073Y-243193D01*
D02*
G37*
G36*
X152073D02*
X150928D01*
X149807Y-243416D01*
X148750Y-243853D01*
X147799Y-244489D01*
X146990Y-245298D01*
X146354Y-246249D01*
X145917Y-247306D01*
X145693Y-248428D01*
Y-249571D01*
X145917Y-250693D01*
X146354Y-251750D01*
X146990Y-252701D01*
X147799Y-253510D01*
X148750Y-254146D01*
X149807Y-254584D01*
X150928Y-254807D01*
X152073D01*
X153194Y-254584D01*
X154251Y-254146D01*
X155202Y-253510D01*
X156011Y-252701D01*
X156647Y-251750D01*
X157084Y-250693D01*
X157308Y-249571D01*
Y-248428D01*
X157084Y-247306D01*
X156647Y-246249D01*
X156011Y-245298D01*
X155202Y-244489D01*
X154251Y-243853D01*
X153194Y-243416D01*
X152073Y-243193D01*
D02*
G37*
G36*
X132072D02*
X130929D01*
X129807Y-243416D01*
X128750Y-243853D01*
X127799Y-244489D01*
X126990Y-245298D01*
X126354Y-246249D01*
X125917Y-247306D01*
X125693Y-248428D01*
Y-249571D01*
X125917Y-250693D01*
X126354Y-251750D01*
X126990Y-252701D01*
X127799Y-253510D01*
X128750Y-254146D01*
X129807Y-254584D01*
X130929Y-254807D01*
X132072D01*
X133194Y-254584D01*
X134251Y-254146D01*
X135202Y-253510D01*
X136011Y-252701D01*
X136647Y-251750D01*
X137084Y-250693D01*
X137308Y-249571D01*
Y-248428D01*
X137084Y-247306D01*
X136647Y-246249D01*
X136011Y-245298D01*
X135202Y-244489D01*
X134251Y-243853D01*
X133194Y-243416D01*
X132072Y-243193D01*
D02*
G37*
G36*
X114010Y-243164D02*
X108991D01*
X108130Y-243277D01*
X107328Y-243610D01*
X106639Y-244138D01*
X106111Y-244827D01*
X105778Y-245629D01*
X105665Y-246490D01*
Y-251509D01*
X105778Y-252370D01*
X106111Y-253172D01*
X106639Y-253861D01*
X107328Y-254390D01*
X108130Y-254722D01*
X108991Y-254835D01*
X114010D01*
X114871Y-254722D01*
X115673Y-254390D01*
X116362Y-253861D01*
X116891Y-253172D01*
X117223Y-252370D01*
X117336Y-251509D01*
Y-246490D01*
X117223Y-245629D01*
X116891Y-244827D01*
X116362Y-244138D01*
X115673Y-243610D01*
X114871Y-243277D01*
X114010Y-243164D01*
D02*
G37*
G36*
X331852Y-251728D02*
X331148D01*
X330496Y-251998D01*
X329998Y-252496D01*
X329728Y-253148D01*
Y-253852D01*
X329998Y-254504D01*
X330496Y-255002D01*
X331148Y-255272D01*
X331852D01*
X332504Y-255002D01*
X333002Y-254504D01*
X333272Y-253852D01*
Y-253148D01*
X333002Y-252496D01*
X332504Y-251998D01*
X331852Y-251728D01*
D02*
G37*
G36*
X254533Y-250721D02*
X253601D01*
X252699Y-250962D01*
X251891Y-251428D01*
X251232Y-252088D01*
X250765Y-252896D01*
X250524Y-253797D01*
Y-254730D01*
X250765Y-255631D01*
X251232Y-256439D01*
X251891Y-257099D01*
X252699Y-257566D01*
X253601Y-257807D01*
X254533D01*
X255435Y-257566D01*
X256243Y-257099D01*
X256902Y-256439D01*
X257369Y-255631D01*
X257610Y-254730D01*
Y-253797D01*
X257369Y-252896D01*
X256902Y-252088D01*
X256243Y-251428D01*
X255435Y-250962D01*
X254533Y-250721D01*
D02*
G37*
G36*
X367410Y-244160D02*
X366382Y-244295D01*
X365424Y-244691D01*
X364602Y-245323D01*
X363971Y-246145D01*
X363574Y-247103D01*
X363439Y-248130D01*
X363574Y-249158D01*
X363971Y-250116D01*
X364602Y-250938D01*
X371562Y-257898D01*
X372384Y-258529D01*
X373342Y-258926D01*
X374370Y-259061D01*
X375397Y-258926D01*
X376355Y-258529D01*
X377178Y-257898D01*
X377809Y-257076D01*
X378205Y-256118D01*
X378341Y-255090D01*
X378205Y-254062D01*
X377809Y-253105D01*
X377178Y-252282D01*
X370218Y-245323D01*
X369395Y-244691D01*
X368438Y-244295D01*
X367410Y-244160D01*
D02*
G37*
G36*
X344454Y-255303D02*
X343547D01*
X342670Y-255538D01*
X341885Y-255991D01*
X341243Y-256633D01*
X340790Y-257418D01*
X340555Y-258295D01*
Y-259202D01*
X340790Y-260078D01*
X341243Y-260863D01*
X341885Y-261505D01*
X342670Y-261958D01*
X343547Y-262193D01*
X344454D01*
X345330Y-261958D01*
X346115Y-261505D01*
X346757Y-260863D01*
X347210Y-260078D01*
X347445Y-259202D01*
Y-258295D01*
X347210Y-257418D01*
X346757Y-256633D01*
X346115Y-255991D01*
X345330Y-255538D01*
X344454Y-255303D01*
D02*
G37*
G36*
X62337Y-242370D02*
X60663D01*
X59011Y-242632D01*
X57420Y-243149D01*
X55929Y-243909D01*
X54575Y-244892D01*
X53392Y-246075D01*
X52408Y-247429D01*
X51649Y-248920D01*
X51132Y-250511D01*
X50870Y-252163D01*
Y-253837D01*
X51132Y-255489D01*
X51649Y-257081D01*
X52408Y-258571D01*
X53392Y-259925D01*
X54575Y-261108D01*
X55929Y-262091D01*
X57420Y-262851D01*
X59011Y-263368D01*
X60663Y-263630D01*
X62337D01*
X63989Y-263368D01*
X65580Y-262851D01*
X67071Y-262091D01*
X68425Y-261108D01*
X69608Y-259925D01*
X70591Y-258571D01*
X71351Y-257081D01*
X71868Y-255489D01*
X72130Y-253837D01*
Y-252163D01*
X71868Y-250511D01*
X71351Y-248920D01*
X70591Y-247429D01*
X69608Y-246075D01*
X68425Y-244892D01*
X67071Y-243909D01*
X65580Y-243149D01*
X63989Y-242632D01*
X62337Y-242370D01*
D02*
G37*
%LPD*%
D87*
X254067Y-234579D02*
D03*
X138000Y-65500D02*
D03*
D91*
X492711Y-194600D02*
D03*
D94*
X498311Y-150800D02*
D03*
Y-249200D02*
D03*
D117*
X14000Y-236500D02*
D03*
D120*
X344000Y-219378D02*
D03*
D123*
X315488Y-259980D02*
D03*
Y-234389D02*
D03*
X321000D02*
D03*
Y-259980D02*
D03*
X286500Y-260024D02*
D03*
Y-234432D02*
D03*
X292012D02*
D03*
Y-260024D02*
D03*
D126*
X134500Y-84500D02*
D03*
Y-89500D02*
D03*
Y-94500D02*
D03*
Y-99500D02*
D03*
D127*
X15228Y-45500D02*
D03*
D128*
X19772Y-69500D02*
D03*
D133*
X414591Y-235469D02*
D03*
D134*
X398843Y-259091D02*
D03*
D137*
X511909Y-64981D02*
D03*
X517814Y-76792D02*
D03*
Y-147658D02*
D03*
X511909Y-159469D02*
D03*
X517814Y-171280D02*
D03*
X511909Y-183091D02*
D03*
X517814Y-194902D02*
D03*
X511909Y-206713D02*
D03*
X517814Y-218524D02*
D03*
X511909Y-230335D02*
D03*
X517814Y-242146D02*
D03*
X511909Y-253957D02*
D03*
X500098Y-64981D02*
D03*
X506003Y-76792D02*
D03*
Y-171280D02*
D03*
Y-194902D02*
D03*
X500098Y-206713D02*
D03*
Y-230335D02*
D03*
X488287Y-64981D02*
D03*
X494192Y-76792D02*
D03*
X488287Y-112225D02*
D03*
Y-159469D02*
D03*
X494192Y-171280D02*
D03*
X488287Y-230335D02*
D03*
Y-253957D02*
D03*
X476476Y-64981D02*
D03*
X482381Y-76792D02*
D03*
X476476Y-88603D02*
D03*
Y-112225D02*
D03*
X482381Y-147658D02*
D03*
X476476Y-159469D02*
D03*
X482381Y-171280D02*
D03*
Y-242146D02*
D03*
X476476Y-253957D02*
D03*
X464665Y-64981D02*
D03*
X470570Y-76792D02*
D03*
Y-100414D02*
D03*
X464665Y-112225D02*
D03*
X470570Y-147658D02*
D03*
X464665Y-159469D02*
D03*
X470570Y-171280D02*
D03*
X464665Y-183091D02*
D03*
Y-230335D02*
D03*
X470570Y-242146D02*
D03*
X464665Y-253957D02*
D03*
X452854Y-64981D02*
D03*
X458759Y-76792D02*
D03*
X452854Y-112225D02*
D03*
X458759Y-147658D02*
D03*
X452854Y-159469D02*
D03*
X458759Y-171280D02*
D03*
X452854Y-183091D02*
D03*
Y-230335D02*
D03*
X458759Y-242146D02*
D03*
X441043Y-64981D02*
D03*
X446948Y-76792D02*
D03*
X441043Y-88603D02*
D03*
X446948Y-100414D02*
D03*
X441043Y-112225D02*
D03*
X446948Y-147658D02*
D03*
X441043Y-159469D02*
D03*
X446948Y-171280D02*
D03*
X441043Y-253957D02*
D03*
X429232Y-64981D02*
D03*
X435137Y-76792D02*
D03*
X429232Y-88603D02*
D03*
X435137Y-100414D02*
D03*
X429232Y-112225D02*
D03*
Y-135847D02*
D03*
Y-159469D02*
D03*
Y-253957D02*
D03*
X417421Y-64981D02*
D03*
X423326Y-76792D02*
D03*
X417421Y-88603D02*
D03*
X423326Y-100414D02*
D03*
X417421Y-112225D02*
D03*
Y-135847D02*
D03*
X423326Y-147658D02*
D03*
X417421Y-159469D02*
D03*
X423326Y-171280D02*
D03*
Y-242146D02*
D03*
X417421Y-253957D02*
D03*
X405610Y-64981D02*
D03*
X411515Y-100414D02*
D03*
X405610Y-112225D02*
D03*
X411515Y-147658D02*
D03*
Y-171280D02*
D03*
X405610Y-253957D02*
D03*
X399704Y-53170D02*
D03*
X393799Y-64981D02*
D03*
Y-230335D02*
D03*
X399704Y-242146D02*
D03*
X393799Y-253957D02*
D03*
X387893Y-53170D02*
D03*
Y-76792D02*
D03*
X381988Y-88603D02*
D03*
Y-112225D02*
D03*
X387893Y-124036D02*
D03*
Y-147658D02*
D03*
X381988Y-159469D02*
D03*
X387893Y-218524D02*
D03*
X381988Y-230335D02*
D03*
X387893Y-242146D02*
D03*
X381988Y-253957D02*
D03*
X376082Y-53170D02*
D03*
Y-76792D02*
D03*
X370177Y-112225D02*
D03*
X376082Y-124036D02*
D03*
Y-147658D02*
D03*
Y-171280D02*
D03*
Y-218524D02*
D03*
X370177Y-230335D02*
D03*
X376082Y-242146D02*
D03*
X364271Y-124036D02*
D03*
Y-147658D02*
D03*
X358366Y-159469D02*
D03*
X364271Y-171280D02*
D03*
X358366Y-230335D02*
D03*
X364271Y-242146D02*
D03*
X358366Y-253957D02*
D03*
X346554Y-112225D02*
D03*
X352460Y-124036D02*
D03*
X346554Y-159469D02*
D03*
X352460Y-171280D02*
D03*
Y-242146D02*
D03*
X334743Y-135847D02*
D03*
X340649Y-147658D02*
D03*
X334743Y-159469D02*
D03*
X340649Y-171280D02*
D03*
Y-194902D02*
D03*
X322933Y-88603D02*
D03*
X328838Y-124036D02*
D03*
X322933Y-135847D02*
D03*
X328838Y-147658D02*
D03*
X311121Y-64981D02*
D03*
X317027Y-147658D02*
D03*
Y-171280D02*
D03*
X299310Y-64981D02*
D03*
X305216Y-76792D02*
D03*
X293405Y-147658D02*
D03*
Y-171280D02*
D03*
X275688Y-230335D02*
D03*
Y-253957D02*
D03*
X263877D02*
D03*
X257972Y-147658D02*
D03*
Y-171280D02*
D03*
X252066Y-183091D02*
D03*
Y-230335D02*
D03*
X246161Y-53170D02*
D03*
X240255Y-135847D02*
D03*
X246161Y-147658D02*
D03*
Y-171280D02*
D03*
X240255Y-183091D02*
D03*
Y-230335D02*
D03*
X246161Y-242146D02*
D03*
X240255Y-253957D02*
D03*
X228444D02*
D03*
X222539Y-194902D02*
D03*
X216633Y-253957D02*
D03*
X210728Y-124036D02*
D03*
X204822Y-206713D02*
D03*
Y-253957D02*
D03*
X193011Y-64981D02*
D03*
Y-253957D02*
D03*
X187106Y-29548D02*
D03*
Y-53170D02*
D03*
Y-242146D02*
D03*
X181200Y-253957D02*
D03*
X175295Y-124036D02*
D03*
Y-171280D02*
D03*
X157578Y-64981D02*
D03*
X163484Y-242146D02*
D03*
X157578Y-253957D02*
D03*
X145767Y-17737D02*
D03*
Y-41359D02*
D03*
Y-112225D02*
D03*
Y-135847D02*
D03*
X151673Y-218524D02*
D03*
X145767Y-253957D02*
D03*
X139862Y-124036D02*
D03*
X133956Y-135847D02*
D03*
X139862Y-242146D02*
D03*
X122145Y-17737D02*
D03*
Y-64981D02*
D03*
X128051Y-124036D02*
D03*
X122145Y-135847D02*
D03*
Y-253957D02*
D03*
X116240Y-53170D02*
D03*
X110334Y-64981D02*
D03*
X116240Y-76792D02*
D03*
X110334Y-88603D02*
D03*
X116240Y-100414D02*
D03*
X110334Y-112225D02*
D03*
X98523Y-64981D02*
D03*
Y-88603D02*
D03*
X104429Y-100414D02*
D03*
X98523Y-112225D02*
D03*
X104429Y-242146D02*
D03*
X98523Y-253957D02*
D03*
X86712D02*
D03*
X74901Y-64981D02*
D03*
X80807Y-76792D02*
D03*
X74901Y-135847D02*
D03*
X80807Y-194902D02*
D03*
Y-218524D02*
D03*
X74901Y-253957D02*
D03*
X63090Y-88603D02*
D03*
X68995Y-147658D02*
D03*
Y-218524D02*
D03*
X51279Y-64981D02*
D03*
Y-88603D02*
D03*
X57184Y-147658D02*
D03*
Y-218524D02*
D03*
Y-242146D02*
D03*
X45373Y-53170D02*
D03*
X39468Y-64981D02*
D03*
X45373Y-76792D02*
D03*
Y-147658D02*
D03*
Y-218524D02*
D03*
X33562Y-53170D02*
D03*
X27657Y-64981D02*
D03*
Y-112225D02*
D03*
X33562Y-147658D02*
D03*
X21751Y-53170D02*
D03*
Y-76792D02*
D03*
Y-147658D02*
D03*
X15846Y-206713D02*
D03*
X21751Y-218524D02*
D03*
X15846Y-230335D02*
D03*
X21751Y-242146D02*
D03*
X4035Y-41359D02*
D03*
X9940Y-53170D02*
D03*
X4035Y-64981D02*
D03*
X9940Y-76792D02*
D03*
X4035Y-88603D02*
D03*
X9940Y-100414D02*
D03*
X4035Y-112225D02*
D03*
Y-135847D02*
D03*
X9940Y-147658D02*
D03*
X4035Y-159469D02*
D03*
Y-183091D02*
D03*
X9940Y-194902D02*
D03*
X4035Y-206713D02*
D03*
X9940Y-218524D02*
D03*
X4035Y-230335D02*
D03*
X9940Y-242146D02*
D03*
X4035Y-253957D02*
D03*
X165150Y-199500D02*
D03*
X158850D02*
D03*
X162000Y-202650D02*
D03*
Y-196350D02*
D03*
X210984Y-30067D02*
D03*
X249000Y-36500D02*
D03*
Y-30000D02*
D03*
Y-33500D02*
D03*
X245080Y-26337D02*
D03*
X331063Y-57626D02*
D03*
X318829Y-69181D02*
D03*
X447000Y-217894D02*
D03*
Y-212500D02*
D03*
X442512Y-217894D02*
D03*
X432630Y-212500D02*
D03*
X442512Y-222382D02*
D03*
X437118D02*
D03*
Y-208012D02*
D03*
X442512D02*
D03*
Y-212500D02*
D03*
X432630Y-217894D02*
D03*
X437118D02*
D03*
Y-212500D02*
D03*
X315315Y-73374D02*
D03*
X518000Y-54000D02*
D03*
X248188Y-54677D02*
D03*
X252500Y-55500D02*
D03*
X256076Y-56345D02*
D03*
X260000Y-57500D02*
D03*
X264000Y-56500D02*
D03*
X311500Y-57500D02*
D03*
X291252Y-57000D02*
D03*
X279441D02*
D03*
X287315D02*
D03*
X271567D02*
D03*
X307000D02*
D03*
X303063D02*
D03*
X275504D02*
D03*
X299126D02*
D03*
X267630D02*
D03*
X295189D02*
D03*
X283378D02*
D03*
X259500Y-54000D02*
D03*
X257500Y-52000D02*
D03*
X254500D02*
D03*
X251500D02*
D03*
X249000Y-49500D02*
D03*
Y-46000D02*
D03*
Y-42500D02*
D03*
Y-39500D02*
D03*
X149500Y-23000D02*
D03*
X147500Y-19500D02*
D03*
X143500Y-13500D02*
D03*
X141500Y-11000D02*
D03*
X139500Y-8000D02*
D03*
X137255Y-5295D02*
D03*
X140756Y-5225D02*
D03*
X142500Y-8000D02*
D03*
X145000Y-11000D02*
D03*
X147000Y-14000D02*
D03*
X149000Y-17000D02*
D03*
X150500Y-20000D02*
D03*
X153000Y-22500D02*
D03*
X154500Y-25500D02*
D03*
X160000Y-29000D02*
D03*
X249080Y-26337D02*
D03*
X171080Y-28337D02*
D03*
X173580Y-29837D02*
D03*
X177080D02*
D03*
X180580D02*
D03*
X184537Y-29710D02*
D03*
X191080Y-28837D02*
D03*
X177080Y-26337D02*
D03*
X180080D02*
D03*
X183080D02*
D03*
X186080D02*
D03*
X69689Y-152000D02*
D03*
X482638Y-53689D02*
D03*
X317284D02*
D03*
X315315Y-57626D02*
D03*
X285787Y-53689D02*
D03*
X297598D02*
D03*
X441299Y-57626D02*
D03*
X370433D02*
D03*
X173583Y-26130D02*
D03*
X360591Y-53689D02*
D03*
X433425Y-57626D02*
D03*
X384213Y-53689D02*
D03*
X262509Y-53345D02*
D03*
X411772Y-53689D02*
D03*
X209016Y-26130D02*
D03*
X522008Y-53689D02*
D03*
X342874Y-57626D02*
D03*
X480669D02*
D03*
X335000Y-73374D02*
D03*
X366496Y-57626D02*
D03*
X220827Y-26130D02*
D03*
X500354Y-57626D02*
D03*
X368465Y-53689D02*
D03*
X394055Y-57626D02*
D03*
X270039Y-53689D02*
D03*
X502323D02*
D03*
X455079D02*
D03*
X319252Y-73374D02*
D03*
X207047Y-30067D02*
D03*
X468858Y-57626D02*
D03*
X358622D02*
D03*
X161772Y-26130D02*
D03*
X212953D02*
D03*
X462953Y-53689D02*
D03*
X451142D02*
D03*
X470827D02*
D03*
X520040Y-57626D02*
D03*
X419646Y-53689D02*
D03*
X354685Y-57626D02*
D03*
X445236D02*
D03*
X390118D02*
D03*
X378307D02*
D03*
X459016Y-53689D02*
D03*
X382244Y-57626D02*
D03*
X431457Y-53689D02*
D03*
X195236Y-30067D02*
D03*
X222795D02*
D03*
X447205Y-53689D02*
D03*
X512165Y-57626D02*
D03*
X425551D02*
D03*
X506260Y-53689D02*
D03*
X331063Y-73374D02*
D03*
X484606Y-57626D02*
D03*
X199173Y-30067D02*
D03*
X266102Y-53689D02*
D03*
X216890Y-26130D02*
D03*
X197205D02*
D03*
X313347Y-53689D02*
D03*
X508228Y-57626D02*
D03*
X364528Y-53689D02*
D03*
X189331Y-26130D02*
D03*
X205079Y-34004D02*
D03*
X437362Y-57626D02*
D03*
X486575Y-53689D02*
D03*
X386181Y-57626D02*
D03*
X333032Y-53689D02*
D03*
X516103Y-57626D02*
D03*
X193268Y-26130D02*
D03*
X301535Y-53689D02*
D03*
X356654D02*
D03*
X214921Y-30067D02*
D03*
X374370Y-57626D02*
D03*
X331063Y-65500D02*
D03*
X277913Y-53689D02*
D03*
X305472D02*
D03*
X224764Y-26130D02*
D03*
X476732Y-57626D02*
D03*
X443268Y-53689D02*
D03*
X205079Y-26130D02*
D03*
X403898Y-53689D02*
D03*
X335000Y-57626D02*
D03*
X212953Y-34004D02*
D03*
X189331D02*
D03*
X464921Y-57626D02*
D03*
X453110D02*
D03*
X350748D02*
D03*
X209016Y-34004D02*
D03*
X457047Y-57626D02*
D03*
X372402Y-53689D02*
D03*
X228701Y-26130D02*
D03*
X392087Y-53689D02*
D03*
X460984Y-57626D02*
D03*
X504291D02*
D03*
X315315Y-65500D02*
D03*
X201142Y-26130D02*
D03*
X338937Y-57626D02*
D03*
X413740D02*
D03*
X309409Y-53689D02*
D03*
X514134D02*
D03*
X273976D02*
D03*
X344843D02*
D03*
X289724D02*
D03*
X423583D02*
D03*
X397992Y-57626D02*
D03*
X216890Y-34004D02*
D03*
X510197Y-53689D02*
D03*
X427520D02*
D03*
X494449D02*
D03*
X417677Y-57626D02*
D03*
X352717Y-53689D02*
D03*
X474764D02*
D03*
X203110Y-30067D02*
D03*
X157834Y-26130D02*
D03*
X401929Y-57626D02*
D03*
X435394Y-53689D02*
D03*
X362559Y-57626D02*
D03*
X415709Y-53689D02*
D03*
X407835D02*
D03*
X496417Y-57626D02*
D03*
X224764Y-34004D02*
D03*
X348780Y-53689D02*
D03*
X281850D02*
D03*
X220827Y-34004D02*
D03*
X488543Y-57626D02*
D03*
X319252Y-65500D02*
D03*
X317284Y-61563D02*
D03*
X409803Y-57626D02*
D03*
X333032Y-61563D02*
D03*
X293661Y-53689D02*
D03*
X336968Y-61563D02*
D03*
X319252Y-57626D02*
D03*
X449173D02*
D03*
X240512Y-26130D02*
D03*
X405866Y-57626D02*
D03*
X421614D02*
D03*
X490512Y-53689D02*
D03*
X396024D02*
D03*
X346811Y-57626D02*
D03*
X478701Y-53689D02*
D03*
X336968D02*
D03*
X429488Y-57626D02*
D03*
X226732Y-30067D02*
D03*
X340905Y-53689D02*
D03*
X498386D02*
D03*
X335000Y-65500D02*
D03*
X466890Y-53689D02*
D03*
X492480Y-57626D02*
D03*
X380276Y-53689D02*
D03*
X201142Y-34004D02*
D03*
X472795Y-57626D02*
D03*
X218858Y-30067D02*
D03*
X439331Y-53689D02*
D03*
X319329Y-77681D02*
D03*
X320329Y-53681D02*
D03*
X228575Y-205500D02*
D03*
X222276D02*
D03*
X225426Y-208649D02*
D03*
Y-202350D02*
D03*
M02*
