G04*
G04 #@! TF.GenerationSoftware,Altium Limited,Altium Designer,24.5.2 (23)*
G04*
G04 Layer_Color=8421504*
%FSLAX25Y25*%
%MOIN*%
G70*
G04*
G04 #@! TF.SameCoordinates,EB8EEFDD-4660-4ED9-91F6-AAD8B6263AC5*
G04*
G04*
G04 #@! TF.FilePolarity,Positive*
G04*
G01*
G75*
%ADD15R,0.04606X0.04606*%
%ADD16R,0.02598X0.02441*%
%ADD17R,0.03937X0.02362*%
%ADD18R,0.02441X0.02598*%
%ADD19R,0.07087X0.08268*%
%ADD20C,0.05979*%
%ADD21R,0.01654X0.02756*%
%ADD22R,0.02362X0.04528*%
%ADD23R,0.02559X0.02756*%
%ADD24R,0.02433X0.07182*%
G04:AMPARAMS|DCode=25|XSize=71.82mil|YSize=24.33mil|CornerRadius=12.17mil|HoleSize=0mil|Usage=FLASHONLY|Rotation=90.000|XOffset=0mil|YOffset=0mil|HoleType=Round|Shape=RoundedRectangle|*
%AMROUNDEDRECTD25*
21,1,0.07182,0.00000,0,0,90.0*
21,1,0.04749,0.02433,0,0,90.0*
1,1,0.02433,0.00000,0.02375*
1,1,0.02433,0.00000,-0.02375*
1,1,0.02433,0.00000,-0.02375*
1,1,0.02433,0.00000,0.02375*
%
%ADD25ROUNDEDRECTD25*%
%ADD26R,0.01968X0.02362*%
%ADD27R,0.02756X0.02559*%
%ADD28R,0.02559X0.04331*%
%ADD29R,0.03583X0.04803*%
G04:AMPARAMS|DCode=30|XSize=9.06mil|YSize=23.62mil|CornerRadius=1.95mil|HoleSize=0mil|Usage=FLASHONLY|Rotation=270.000|XOffset=0mil|YOffset=0mil|HoleType=Round|Shape=RoundedRectangle|*
%AMROUNDEDRECTD30*
21,1,0.00906,0.01973,0,0,270.0*
21,1,0.00516,0.02362,0,0,270.0*
1,1,0.00389,-0.00986,-0.00258*
1,1,0.00389,-0.00986,0.00258*
1,1,0.00389,0.00986,0.00258*
1,1,0.00389,0.00986,-0.00258*
%
%ADD30ROUNDEDRECTD30*%
G04:AMPARAMS|DCode=31|XSize=9.06mil|YSize=23.62mil|CornerRadius=1.95mil|HoleSize=0mil|Usage=FLASHONLY|Rotation=180.000|XOffset=0mil|YOffset=0mil|HoleType=Round|Shape=RoundedRectangle|*
%AMROUNDEDRECTD31*
21,1,0.00906,0.01973,0,0,180.0*
21,1,0.00516,0.02362,0,0,180.0*
1,1,0.00389,-0.00258,0.00986*
1,1,0.00389,0.00258,0.00986*
1,1,0.00389,0.00258,-0.00986*
1,1,0.00389,-0.00258,-0.00986*
%
%ADD31ROUNDEDRECTD31*%
%ADD32R,0.03543X0.02756*%
%ADD33R,0.07874X0.14173*%
%ADD34R,0.22835X0.24410*%
%ADD35R,0.05315X0.03543*%
%ADD36R,0.01968X0.03937*%
%ADD37R,0.07480X0.09449*%
%ADD38R,0.02756X0.03543*%
%ADD39R,0.06102X0.07480*%
%ADD40R,0.05118X0.02362*%
%ADD41R,0.05906X0.09843*%
%ADD42R,0.27559X0.27559*%
%ADD43R,0.07480X0.06102*%
%ADD44R,0.02362X0.05118*%
G36*
X64165Y-19075D02*
X54835D01*
Y-10216D01*
X56488D01*
Y-12342D01*
X57394D01*
Y-10216D01*
X59047D01*
Y-12342D01*
X59953D01*
Y-10216D01*
X61606D01*
Y-12342D01*
X62512D01*
Y-10216D01*
X64165D01*
Y-19075D01*
D02*
G37*
G36*
X78665D02*
X69335D01*
Y-10216D01*
X70988D01*
Y-12342D01*
X71894D01*
Y-10216D01*
X73547D01*
Y-12342D01*
X74453D01*
Y-10216D01*
X76106D01*
Y-12342D01*
X77012D01*
Y-10216D01*
X78665D01*
Y-19075D01*
D02*
G37*
D15*
X439815Y-209803D02*
D03*
X434421D02*
D03*
X445209D02*
D03*
X439815Y-220590D02*
D03*
X434421D02*
D03*
X445209D02*
D03*
Y-215197D02*
D03*
X434421D02*
D03*
X439815D02*
D03*
D16*
X410232Y-221500D02*
D03*
X406768D02*
D03*
X58000Y-100500D02*
D03*
X61465D02*
D03*
X488768Y-122000D02*
D03*
X492232D02*
D03*
X362232Y-81000D02*
D03*
X358768D02*
D03*
X362232Y-76500D02*
D03*
X358768D02*
D03*
X362232Y-72000D02*
D03*
X358768D02*
D03*
X463732Y-196512D02*
D03*
X460268D02*
D03*
X463732Y-201012D02*
D03*
X460268D02*
D03*
X432732Y-230500D02*
D03*
X429268D02*
D03*
X460268Y-227000D02*
D03*
X463732D02*
D03*
D17*
X400882Y-207760D02*
D03*
X400882Y-211500D02*
D03*
X400882Y-215240D02*
D03*
X411118Y-215241D02*
D03*
X411119Y-207761D02*
D03*
D18*
X417000Y-210268D02*
D03*
Y-213732D02*
D03*
X67000Y-29535D02*
D03*
Y-33000D02*
D03*
X439012Y-195744D02*
D03*
Y-192280D02*
D03*
X434500Y-192268D02*
D03*
Y-195732D02*
D03*
X442512Y-236280D02*
D03*
Y-239744D02*
D03*
X449012Y-236280D02*
D03*
Y-239744D02*
D03*
D19*
X58000Y-50161D02*
D03*
Y-32839D02*
D03*
D20*
X72657Y-15753D02*
D03*
X58157D02*
D03*
D21*
X70161Y-23405D02*
D03*
X72720D02*
D03*
X75279D02*
D03*
X77839D02*
D03*
X63339D02*
D03*
X60780D02*
D03*
X58220D02*
D03*
X55661D02*
D03*
D22*
X81260Y-31882D02*
D03*
X85000D02*
D03*
X88740D02*
D03*
Y-42118D02*
D03*
X85000D02*
D03*
X81260D02*
D03*
D23*
X88500Y-20500D02*
D03*
Y-24240D02*
D03*
X113000Y-18000D02*
D03*
Y-14260D02*
D03*
X429500Y-195870D02*
D03*
Y-192130D02*
D03*
X420500Y-227630D02*
D03*
Y-231370D02*
D03*
X432012Y-240382D02*
D03*
Y-236642D02*
D03*
X437512Y-240382D02*
D03*
Y-236642D02*
D03*
X147875Y-147955D02*
D03*
Y-144215D02*
D03*
X130500Y-28870D02*
D03*
Y-25130D02*
D03*
X232000Y-234630D02*
D03*
Y-238370D02*
D03*
X107000Y-160370D02*
D03*
Y-156630D02*
D03*
X111500D02*
D03*
Y-160370D02*
D03*
X232000Y-227130D02*
D03*
Y-230870D02*
D03*
X227500D02*
D03*
Y-227130D02*
D03*
X71500Y-33138D02*
D03*
Y-29398D02*
D03*
X72000Y-42870D02*
D03*
Y-39130D02*
D03*
Y-50870D02*
D03*
Y-47130D02*
D03*
D24*
X95260Y-35780D02*
D03*
D25*
X102740D02*
D03*
X99000Y-28220D02*
D03*
D26*
X113000Y-23563D02*
D03*
X109260Y-31437D02*
D03*
X116740D02*
D03*
D27*
X101370Y-43000D02*
D03*
X97630D02*
D03*
X502370Y-99000D02*
D03*
X498630D02*
D03*
X502370Y-122000D02*
D03*
X498630D02*
D03*
X512130Y-99000D02*
D03*
X515870D02*
D03*
X147130Y-27500D02*
D03*
X150870D02*
D03*
X107630Y-152500D02*
D03*
X111370D02*
D03*
X464087Y-214697D02*
D03*
X460346D02*
D03*
X464087Y-219000D02*
D03*
X460346D02*
D03*
X464087Y-210197D02*
D03*
X460346D02*
D03*
X450815Y-196803D02*
D03*
X454555D02*
D03*
X460346Y-205512D02*
D03*
X464087D02*
D03*
X419882Y-221512D02*
D03*
X416142D02*
D03*
X136745Y-157085D02*
D03*
X133005D02*
D03*
X139745Y-139085D02*
D03*
X136005D02*
D03*
X178370Y-224000D02*
D03*
X174630D02*
D03*
Y-219500D02*
D03*
X178370D02*
D03*
D28*
X502760Y-114724D02*
D03*
X506500D02*
D03*
X510240D02*
D03*
Y-105276D02*
D03*
X506500D02*
D03*
X502760D02*
D03*
D29*
X370937Y-87500D02*
D03*
X358063D02*
D03*
D30*
X451232Y-224055D02*
D03*
Y-222087D02*
D03*
Y-220118D02*
D03*
Y-218150D02*
D03*
Y-216181D02*
D03*
Y-214213D02*
D03*
Y-212244D02*
D03*
Y-210276D02*
D03*
Y-208307D02*
D03*
Y-206339D02*
D03*
X428398D02*
D03*
Y-208307D02*
D03*
Y-210276D02*
D03*
Y-212244D02*
D03*
Y-214213D02*
D03*
Y-216181D02*
D03*
Y-218150D02*
D03*
Y-220118D02*
D03*
Y-222087D02*
D03*
Y-224055D02*
D03*
D31*
X448673Y-203780D02*
D03*
X446705D02*
D03*
X444736D02*
D03*
X442768D02*
D03*
X440799D02*
D03*
X438831D02*
D03*
X436862D02*
D03*
X434894D02*
D03*
X432925D02*
D03*
X430957D02*
D03*
Y-226614D02*
D03*
X432925D02*
D03*
X434894D02*
D03*
X436862D02*
D03*
X438831D02*
D03*
X440799D02*
D03*
X442768D02*
D03*
X444736D02*
D03*
X446705D02*
D03*
X448673D02*
D03*
D32*
X135260Y-25000D02*
D03*
X142740Y-22441D02*
D03*
Y-27559D02*
D03*
D33*
X139016Y-169677D02*
D03*
X120984D02*
D03*
D34*
X130000Y-198024D02*
D03*
D35*
X65000Y-146949D02*
D03*
Y-153051D02*
D03*
D36*
X476000Y-189437D02*
D03*
X478559Y-181563D02*
D03*
X473441D02*
D03*
X476000Y-196063D02*
D03*
X473441Y-203937D02*
D03*
X478559D02*
D03*
X473441Y-233937D02*
D03*
X478559D02*
D03*
X476000Y-226063D02*
D03*
X478559Y-211563D02*
D03*
X473441D02*
D03*
X476000Y-219437D02*
D03*
D37*
X451571Y-251000D02*
D03*
X435429D02*
D03*
D38*
X140434Y-144844D02*
D03*
X135316D02*
D03*
X137875Y-152325D02*
D03*
D39*
X111807Y-219500D02*
D03*
X100193D02*
D03*
X142307Y-219000D02*
D03*
X130693D02*
D03*
D40*
X220000Y-230500D02*
D03*
Y-223020D02*
D03*
X211732Y-226760D02*
D03*
D41*
X107055Y-171335D02*
D03*
X88945D02*
D03*
D42*
X98000Y-198500D02*
D03*
D43*
X199500Y-216693D02*
D03*
Y-228307D02*
D03*
X46500Y-46307D02*
D03*
Y-34693D02*
D03*
D44*
X168106Y-215106D02*
D03*
X160626D02*
D03*
X164366Y-223374D02*
D03*
M02*
