G04*
G04 #@! TF.GenerationSoftware,Altium Limited,Altium Designer,24.5.2 (23)*
G04*
G04 Layer_Color=128*
%FSLAX25Y25*%
%MOIN*%
G70*
G04*
G04 #@! TF.SameCoordinates,EB8EEFDD-4660-4ED9-91F6-AAD8B6263AC5*
G04*
G04*
G04 #@! TF.FilePolarity,Positive*
G04*
G01*
G75*
%ADD16R,0.02598X0.02441*%
%ADD18R,0.02441X0.02598*%
%ADD23R,0.02559X0.02756*%
%ADD27R,0.02756X0.02559*%
%ADD35R,0.05315X0.03543*%
%ADD39R,0.06102X0.07480*%
%ADD43R,0.07480X0.06102*%
%ADD126R,0.01890X0.01575*%
%ADD127R,0.06102X0.03937*%
%ADD128R,0.02756X0.05118*%
%ADD132R,0.00787X0.00787*%
%ADD133R,0.07087X0.03937*%
%ADD134R,0.11417X0.11417*%
%ADD135R,0.02953X0.00787*%
%ADD136R,0.00787X0.02953*%
G04:AMPARAMS|DCode=137|XSize=11.81mil|YSize=29.53mil|CornerRadius=1.95mil|HoleSize=0mil|Usage=FLASHONLY|Rotation=0.000|XOffset=0mil|YOffset=0mil|HoleType=Round|Shape=RoundedRectangle|*
%AMROUNDEDRECTD137*
21,1,0.01181,0.02563,0,0,0.0*
21,1,0.00791,0.02953,0,0,0.0*
1,1,0.00390,0.00396,-0.01282*
1,1,0.00390,-0.00396,-0.01282*
1,1,0.00390,-0.00396,0.01282*
1,1,0.00390,0.00396,0.01282*
%
%ADD137ROUNDEDRECTD137*%
G04:AMPARAMS|DCode=138|XSize=11.81mil|YSize=29.53mil|CornerRadius=1.95mil|HoleSize=0mil|Usage=FLASHONLY|Rotation=90.000|XOffset=0mil|YOffset=0mil|HoleType=Round|Shape=RoundedRectangle|*
%AMROUNDEDRECTD138*
21,1,0.01181,0.02563,0,0,90.0*
21,1,0.00791,0.02953,0,0,90.0*
1,1,0.00390,0.01282,0.00396*
1,1,0.00390,0.01282,-0.00396*
1,1,0.00390,-0.01282,-0.00396*
1,1,0.00390,-0.01282,0.00396*
%
%ADD138ROUNDEDRECTD138*%
%ADD140R,0.05118X0.02756*%
%ADD141C,0.02000*%
G04:AMPARAMS|DCode=142|XSize=26.38mil|YSize=11.81mil|CornerRadius=1.95mil|HoleSize=0mil|Usage=FLASHONLY|Rotation=90.000|XOffset=0mil|YOffset=0mil|HoleType=Round|Shape=RoundedRectangle|*
%AMROUNDEDRECTD142*
21,1,0.02638,0.00791,0,0,90.0*
21,1,0.02248,0.01181,0,0,90.0*
1,1,0.00390,0.00396,0.01124*
1,1,0.00390,0.00396,-0.01124*
1,1,0.00390,-0.00396,-0.01124*
1,1,0.00390,-0.00396,0.01124*
%
%ADD142ROUNDEDRECTD142*%
%ADD143R,0.03937X0.04331*%
%ADD144R,0.09055X0.03937*%
%ADD145R,0.03150X0.03937*%
%ADD146R,0.06890X0.11811*%
%ADD147R,0.03961X0.04351*%
%ADD148R,0.03543X0.03740*%
%ADD149R,0.03543X0.05315*%
%ADD150R,0.11811X0.06890*%
%ADD151R,0.04351X0.03961*%
G04:AMPARAMS|DCode=152|XSize=26.38mil|YSize=11.81mil|CornerRadius=1.95mil|HoleSize=0mil|Usage=FLASHONLY|Rotation=180.000|XOffset=0mil|YOffset=0mil|HoleType=Round|Shape=RoundedRectangle|*
%AMROUNDEDRECTD152*
21,1,0.02638,0.00791,0,0,180.0*
21,1,0.02248,0.01181,0,0,180.0*
1,1,0.00390,-0.01124,0.00396*
1,1,0.00390,0.01124,0.00396*
1,1,0.00390,0.01124,-0.00396*
1,1,0.00390,-0.01124,-0.00396*
%
%ADD152ROUNDEDRECTD152*%
G04:AMPARAMS|DCode=153|XSize=25.59mil|YSize=47.24mil|CornerRadius=1.92mil|HoleSize=0mil|Usage=FLASHONLY|Rotation=180.000|XOffset=0mil|YOffset=0mil|HoleType=Round|Shape=RoundedRectangle|*
%AMROUNDEDRECTD153*
21,1,0.02559,0.04341,0,0,180.0*
21,1,0.02175,0.04724,0,0,180.0*
1,1,0.00384,-0.01088,0.02170*
1,1,0.00384,0.01088,0.02170*
1,1,0.00384,0.01088,-0.02170*
1,1,0.00384,-0.01088,-0.02170*
%
%ADD153ROUNDEDRECTD153*%
%ADD157R,0.19291X0.15748*%
%ADD158O,0.02362X0.07087*%
%ADD159O,0.07087X0.02362*%
%ADD160R,0.01417X0.00984*%
%ADD161R,0.01968X0.07780*%
%ADD163R,0.03543X0.03543*%
%ADD164R,0.05906X0.03543*%
%ADD165R,0.03543X0.05906*%
G04:AMPARAMS|DCode=198|XSize=36.97mil|YSize=36.97mil|CornerRadius=2.03mil|HoleSize=0mil|Usage=FLASHONLY|Rotation=90.000|XOffset=0mil|YOffset=0mil|HoleType=Round|Shape=RoundedRectangle|*
%AMROUNDEDRECTD198*
21,1,0.03697,0.03290,0,0,90.0*
21,1,0.03290,0.03697,0,0,90.0*
1,1,0.00407,0.01645,0.01645*
1,1,0.00407,0.01645,-0.01645*
1,1,0.00407,-0.01645,-0.01645*
1,1,0.00407,-0.01645,0.01645*
%
%ADD198ROUNDEDRECTD198*%
%ADD199R,0.02953X0.01968*%
%ADD200R,0.05906X0.05906*%
%ADD201R,0.05906X0.05906*%
%ADD202R,0.01772X0.03543*%
%ADD203R,0.01772X0.03543*%
%ADD204R,0.01378X0.01575*%
%ADD205R,0.01772X0.01575*%
%ADD206R,0.01575X0.01772*%
%ADD207R,0.01575X0.01378*%
%ADD208R,0.03543X0.01772*%
%ADD209R,0.03543X0.01772*%
%ADD210R,0.05906X0.05906*%
%ADD211R,0.01968X0.02953*%
%ADD212R,0.04331X0.04685*%
D16*
X245232Y-44500D02*
D03*
X241768D02*
D03*
X38579Y-35000D02*
D03*
X35114D02*
D03*
X81286Y-94337D02*
D03*
X84751D02*
D03*
X81298Y-89833D02*
D03*
X84762D02*
D03*
X102232Y-83000D02*
D03*
X98768D02*
D03*
X75732Y-149500D02*
D03*
X72268D02*
D03*
X114768Y-164000D02*
D03*
X118232D02*
D03*
X83268Y-238000D02*
D03*
X86732D02*
D03*
X512732Y-135000D02*
D03*
X509268D02*
D03*
X283732Y-149000D02*
D03*
X280268D02*
D03*
X368402Y-188500D02*
D03*
X371866D02*
D03*
X269768Y-188500D02*
D03*
X273232D02*
D03*
X269585Y-206630D02*
D03*
X273050D02*
D03*
X269585Y-202630D02*
D03*
X273050D02*
D03*
X269585Y-211130D02*
D03*
X273050D02*
D03*
X269585Y-215630D02*
D03*
X273050D02*
D03*
X269585Y-220130D02*
D03*
X273050D02*
D03*
X319732Y-217000D02*
D03*
X316268D02*
D03*
X120965Y-158500D02*
D03*
X117500D02*
D03*
X110268Y-169000D02*
D03*
X113732D02*
D03*
X113472Y-127500D02*
D03*
X110008D02*
D03*
X112732Y-141000D02*
D03*
X109268D02*
D03*
X117232Y-155000D02*
D03*
X113768D02*
D03*
X102232Y-78000D02*
D03*
X98768D02*
D03*
X221268Y-217500D02*
D03*
X224732D02*
D03*
X319965Y-221500D02*
D03*
X316500D02*
D03*
X327500Y-66500D02*
D03*
X324035D02*
D03*
X327732Y-78000D02*
D03*
X324268D02*
D03*
X327232Y-52000D02*
D03*
X323768D02*
D03*
X327500Y-63000D02*
D03*
X324035D02*
D03*
X185768Y-129000D02*
D03*
X189232D02*
D03*
X241535Y-30500D02*
D03*
X245000D02*
D03*
X241768Y-34500D02*
D03*
X245232D02*
D03*
X156268Y-211500D02*
D03*
X159732D02*
D03*
D18*
X102500Y-131000D02*
D03*
Y-127535D02*
D03*
X92000Y-241732D02*
D03*
Y-238268D02*
D03*
X52500Y-210268D02*
D03*
Y-213732D02*
D03*
X296800Y-140965D02*
D03*
Y-137500D02*
D03*
X292600Y-140965D02*
D03*
Y-137500D02*
D03*
X288401Y-140965D02*
D03*
Y-137500D02*
D03*
X301000Y-140965D02*
D03*
Y-137500D02*
D03*
X284201Y-140965D02*
D03*
Y-137500D02*
D03*
X270500Y-141732D02*
D03*
Y-138268D02*
D03*
X345500Y-190768D02*
D03*
Y-194232D02*
D03*
X262000Y-202232D02*
D03*
Y-198768D02*
D03*
X28000Y-220465D02*
D03*
Y-217000D02*
D03*
X93500Y-78768D02*
D03*
Y-82232D02*
D03*
X73500Y-41232D02*
D03*
Y-37768D02*
D03*
X187798Y-135368D02*
D03*
Y-138833D02*
D03*
X383500Y-171768D02*
D03*
Y-175232D02*
D03*
X91000Y-127732D02*
D03*
Y-124268D02*
D03*
X170298Y-135368D02*
D03*
Y-138833D02*
D03*
X174298Y-135368D02*
D03*
Y-138833D02*
D03*
X183298Y-135368D02*
D03*
Y-138833D02*
D03*
X178798Y-135368D02*
D03*
Y-138833D02*
D03*
X203000Y-134768D02*
D03*
Y-138232D02*
D03*
D23*
X95000Y-124130D02*
D03*
Y-127870D02*
D03*
X98500Y-127630D02*
D03*
Y-131370D02*
D03*
X106000Y-127630D02*
D03*
Y-131370D02*
D03*
X87000Y-247870D02*
D03*
Y-244130D02*
D03*
X82500Y-247870D02*
D03*
Y-244130D02*
D03*
X225418Y-137452D02*
D03*
Y-133712D02*
D03*
X261498Y-189513D02*
D03*
Y-193253D02*
D03*
X257499Y-193253D02*
D03*
Y-189513D02*
D03*
X330500Y-216130D02*
D03*
Y-219870D02*
D03*
Y-207130D02*
D03*
Y-210870D02*
D03*
X327500Y-181370D02*
D03*
Y-177630D02*
D03*
X78500Y-41870D02*
D03*
Y-38130D02*
D03*
X183500Y-106130D02*
D03*
Y-109870D02*
D03*
X178500Y-106130D02*
D03*
Y-109870D02*
D03*
X223500Y-108870D02*
D03*
Y-105130D02*
D03*
X327500Y-73740D02*
D03*
Y-70000D02*
D03*
Y-59370D02*
D03*
Y-55630D02*
D03*
D27*
X84630Y-83000D02*
D03*
X88370D02*
D03*
X113740Y-131500D02*
D03*
X110000D02*
D03*
X112870Y-145000D02*
D03*
X109130D02*
D03*
X112370Y-158500D02*
D03*
X108630D02*
D03*
X100630Y-168000D02*
D03*
X104370D02*
D03*
X106130Y-164000D02*
D03*
X109870D02*
D03*
X270130Y-154500D02*
D03*
X273870D02*
D03*
X270000Y-150500D02*
D03*
X273740D02*
D03*
X405744Y-84339D02*
D03*
X409484D02*
D03*
X409614Y-89339D02*
D03*
X405874D02*
D03*
X409484Y-79839D02*
D03*
X405744D02*
D03*
X233630Y-103000D02*
D03*
X237370D02*
D03*
X233500Y-106500D02*
D03*
X237240D02*
D03*
X372004Y-193500D02*
D03*
X368264D02*
D03*
X88370Y-77500D02*
D03*
X84630D02*
D03*
X372004Y-198000D02*
D03*
X368264D02*
D03*
X159870Y-93500D02*
D03*
X156130D02*
D03*
X199630Y-125000D02*
D03*
X203370D02*
D03*
X245370Y-41000D02*
D03*
X241630D02*
D03*
X203370Y-128500D02*
D03*
X199630D02*
D03*
D35*
X86000Y-125449D02*
D03*
Y-131551D02*
D03*
D39*
X90807Y-230500D02*
D03*
X79193D02*
D03*
D43*
X73500Y-87807D02*
D03*
Y-76193D02*
D03*
X123500Y-206807D02*
D03*
Y-195193D02*
D03*
X40347Y-17193D02*
D03*
Y-28807D02*
D03*
X30847Y-17193D02*
D03*
Y-28807D02*
D03*
X318000Y-210807D02*
D03*
Y-199193D02*
D03*
D126*
X320598Y-225457D02*
D03*
X315401D02*
D03*
X286657Y-228527D02*
D03*
X291854D02*
D03*
D127*
X86835Y-17701D02*
D03*
X66165D02*
D03*
X86835Y-30299D02*
D03*
X66165D02*
D03*
D128*
X58335Y-32795D02*
D03*
X50854D02*
D03*
X65240Y-44354D02*
D03*
X57760D02*
D03*
X65240Y-50354D02*
D03*
X57760D02*
D03*
X65240Y-56354D02*
D03*
X57760D02*
D03*
X65240Y-62854D02*
D03*
X57760D02*
D03*
X65240Y-68854D02*
D03*
X57760D02*
D03*
X65240Y-74854D02*
D03*
X57760D02*
D03*
X65240Y-80854D02*
D03*
X57760D02*
D03*
D132*
X90126Y-152362D02*
D03*
X82126D02*
D03*
D133*
X75500Y-168000D02*
D03*
Y-156189D02*
D03*
Y-131595D02*
D03*
Y-143405D02*
D03*
D134*
X93500Y-150000D02*
D03*
D135*
X85626Y-144488D02*
D03*
Y-146063D02*
D03*
Y-147638D02*
D03*
Y-149213D02*
D03*
Y-150787D02*
D03*
Y-152362D02*
D03*
Y-153937D02*
D03*
Y-155512D02*
D03*
X101374D02*
D03*
Y-153937D02*
D03*
Y-152362D02*
D03*
Y-150787D02*
D03*
Y-149213D02*
D03*
Y-147638D02*
D03*
Y-146063D02*
D03*
Y-144488D02*
D03*
D136*
X87988Y-157874D02*
D03*
X89563D02*
D03*
X91138D02*
D03*
X92713D02*
D03*
X94287D02*
D03*
X95862D02*
D03*
X97437D02*
D03*
X99012D02*
D03*
Y-142126D02*
D03*
X97437D02*
D03*
X95862D02*
D03*
X94287D02*
D03*
X92713D02*
D03*
X91138D02*
D03*
X89563D02*
D03*
X87988D02*
D03*
D137*
X165839Y-206685D02*
D03*
X163279D02*
D03*
X160721D02*
D03*
X158161D02*
D03*
Y-192315D02*
D03*
X160721D02*
D03*
X163279D02*
D03*
X165839D02*
D03*
X229264Y-212685D02*
D03*
X226705D02*
D03*
X224146D02*
D03*
X221587D02*
D03*
Y-198315D02*
D03*
X224146D02*
D03*
X226705D02*
D03*
X229264D02*
D03*
D138*
X154815Y-203339D02*
D03*
Y-200780D02*
D03*
Y-198221D02*
D03*
Y-195661D02*
D03*
X169185D02*
D03*
Y-198221D02*
D03*
Y-200780D02*
D03*
Y-203339D02*
D03*
X218241Y-209338D02*
D03*
Y-206779D02*
D03*
Y-204220D02*
D03*
Y-201661D02*
D03*
X232611D02*
D03*
Y-204220D02*
D03*
Y-206779D02*
D03*
Y-209338D02*
D03*
D140*
X65000Y-223260D02*
D03*
Y-230740D02*
D03*
X71000Y-223260D02*
D03*
Y-230740D02*
D03*
X59146Y-207646D02*
D03*
Y-215126D02*
D03*
X65146Y-207646D02*
D03*
Y-215126D02*
D03*
X71146Y-207646D02*
D03*
Y-215126D02*
D03*
X77146Y-207646D02*
D03*
Y-215126D02*
D03*
X83146Y-207646D02*
D03*
Y-215126D02*
D03*
X89146Y-207646D02*
D03*
Y-215126D02*
D03*
X95146Y-207646D02*
D03*
Y-215126D02*
D03*
X101146Y-207646D02*
D03*
Y-215126D02*
D03*
X351276Y-190260D02*
D03*
Y-194000D02*
D03*
Y-197740D02*
D03*
X360724D02*
D03*
Y-194000D02*
D03*
Y-190260D02*
D03*
D141*
X328619Y-45119D02*
D03*
X300619D02*
D03*
D142*
X195968Y-132587D02*
D03*
X194000D02*
D03*
X192032D02*
D03*
Y-138413D02*
D03*
X194000D02*
D03*
X195968D02*
D03*
X275257Y-138272D02*
D03*
X277226D02*
D03*
X279194D02*
D03*
Y-144098D02*
D03*
X277226D02*
D03*
X275257D02*
D03*
D143*
X476130Y-103547D02*
D03*
Y-117878D02*
D03*
D144*
X519933Y-90634D02*
D03*
X491587D02*
D03*
Y-130791D02*
D03*
X519933D02*
D03*
D145*
X508709Y-130004D02*
D03*
X503984D02*
D03*
X508709Y-91421D02*
D03*
X499260Y-130004D02*
D03*
X503984Y-91421D02*
D03*
X499260D02*
D03*
D146*
X268713Y-115500D02*
D03*
X295287D02*
D03*
X207287Y-159500D02*
D03*
X180713D02*
D03*
D147*
X264000Y-137242D02*
D03*
Y-142758D02*
D03*
X255500Y-137242D02*
D03*
Y-142758D02*
D03*
X216500Y-133742D02*
D03*
Y-139258D02*
D03*
X209000Y-133742D02*
D03*
Y-139258D02*
D03*
D148*
X98701Y-39500D02*
D03*
X86299D02*
D03*
D149*
X57051Y-17000D02*
D03*
X50949D02*
D03*
D150*
X294000Y-191213D02*
D03*
Y-217787D02*
D03*
D151*
X274258Y-181500D02*
D03*
X268742D02*
D03*
X274258Y-173500D02*
D03*
X268742D02*
D03*
D152*
X273000Y-194000D02*
D03*
Y-195968D02*
D03*
Y-197937D02*
D03*
X267173D02*
D03*
Y-195968D02*
D03*
Y-194000D02*
D03*
D153*
X327500Y-199500D02*
D03*
X331240D02*
D03*
X334980D02*
D03*
Y-187886D02*
D03*
X331240D02*
D03*
X327500D02*
D03*
D157*
X25500Y-130347D02*
D03*
Y-173653D02*
D03*
D158*
X379642Y-68851D02*
D03*
X375311D02*
D03*
X370980D02*
D03*
X366649D02*
D03*
X362319D02*
D03*
X357988D02*
D03*
X353657D02*
D03*
X349326D02*
D03*
Y-138142D02*
D03*
X353657D02*
D03*
X357988D02*
D03*
X362319D02*
D03*
X366649D02*
D03*
X370980D02*
D03*
X375311D02*
D03*
X379642D02*
D03*
X383972D02*
D03*
Y-68851D02*
D03*
D159*
X335744Y-79678D02*
D03*
Y-84008D02*
D03*
Y-88339D02*
D03*
Y-92670D02*
D03*
Y-97000D02*
D03*
Y-101331D02*
D03*
Y-105662D02*
D03*
Y-109993D02*
D03*
Y-114323D02*
D03*
Y-118654D02*
D03*
Y-122985D02*
D03*
Y-127315D02*
D03*
X397555D02*
D03*
Y-122985D02*
D03*
Y-118654D02*
D03*
Y-114323D02*
D03*
Y-109993D02*
D03*
Y-105662D02*
D03*
Y-101331D02*
D03*
Y-97000D02*
D03*
Y-92670D02*
D03*
Y-88339D02*
D03*
Y-84008D02*
D03*
Y-79678D02*
D03*
D160*
X333154Y-249000D02*
D03*
X329847D02*
D03*
X333153Y-245457D02*
D03*
X329846D02*
D03*
D161*
X390744Y-147808D02*
D03*
X395744D02*
D03*
X400744D02*
D03*
X405744D02*
D03*
X390744Y-172871D02*
D03*
X395744D02*
D03*
X400744D02*
D03*
X405744D02*
D03*
D163*
X201343Y-53382D02*
D03*
Y-58894D02*
D03*
Y-64406D02*
D03*
X206854D02*
D03*
X212366D02*
D03*
Y-58894D02*
D03*
Y-53382D02*
D03*
X206854D02*
D03*
Y-58894D02*
D03*
D164*
X166500Y-28500D02*
D03*
Y-33500D02*
D03*
Y-38500D02*
D03*
Y-43500D02*
D03*
Y-48500D02*
D03*
Y-53500D02*
D03*
Y-58500D02*
D03*
Y-63500D02*
D03*
Y-68500D02*
D03*
Y-73500D02*
D03*
Y-78500D02*
D03*
Y-83500D02*
D03*
Y-88500D02*
D03*
Y-93500D02*
D03*
X235398D02*
D03*
Y-88500D02*
D03*
Y-83500D02*
D03*
Y-78500D02*
D03*
Y-73500D02*
D03*
Y-68500D02*
D03*
Y-63500D02*
D03*
Y-58500D02*
D03*
Y-53500D02*
D03*
Y-48500D02*
D03*
Y-43500D02*
D03*
Y-38500D02*
D03*
Y-33500D02*
D03*
Y-28500D02*
D03*
D165*
X173449Y-98421D02*
D03*
X178449D02*
D03*
X183449D02*
D03*
X188449D02*
D03*
X193449D02*
D03*
X198449D02*
D03*
X203449D02*
D03*
X208449D02*
D03*
X213449D02*
D03*
X218449D02*
D03*
X223449D02*
D03*
X228449D02*
D03*
D198*
X164242Y-197258D02*
D03*
Y-201742D02*
D03*
X159758D02*
D03*
Y-197258D02*
D03*
X227668Y-203258D02*
D03*
Y-207742D02*
D03*
X223183D02*
D03*
Y-203258D02*
D03*
D199*
X93803Y-115000D02*
D03*
Y-110000D02*
D03*
Y-105000D02*
D03*
Y-100000D02*
D03*
X75803Y-199000D02*
D03*
Y-194000D02*
D03*
Y-189000D02*
D03*
Y-184000D02*
D03*
X99563Y-222000D02*
D03*
Y-227000D02*
D03*
Y-232000D02*
D03*
Y-237000D02*
D03*
D200*
X81579Y-110846D02*
D03*
X88272D02*
D03*
X63579Y-194846D02*
D03*
X70272D02*
D03*
X111787Y-226153D02*
D03*
X105095D02*
D03*
D201*
X81579Y-104154D02*
D03*
X88272D02*
D03*
X63579Y-188154D02*
D03*
X70272D02*
D03*
X111787Y-232846D02*
D03*
X105095D02*
D03*
D202*
X72543Y-114646D02*
D03*
X72543Y-110315D02*
D03*
X54543Y-198646D02*
D03*
X54543Y-194315D02*
D03*
X120823Y-222354D02*
D03*
X120823Y-226685D02*
D03*
D203*
X72543Y-105984D02*
D03*
X54543Y-189984D02*
D03*
X120823Y-231016D02*
D03*
D204*
X70182Y-114997D02*
D03*
Y-109997D02*
D03*
Y-104997D02*
D03*
Y-99997D02*
D03*
X52181Y-198997D02*
D03*
Y-193997D02*
D03*
Y-188997D02*
D03*
Y-183997D02*
D03*
X123179Y-222000D02*
D03*
Y-227000D02*
D03*
Y-232000D02*
D03*
Y-237000D02*
D03*
D205*
X72543Y-100000D02*
D03*
X54543Y-184000D02*
D03*
X120823Y-237000D02*
D03*
D206*
X58000Y-99677D02*
D03*
X28000Y-209323D02*
D03*
D207*
X58000Y-97309D02*
D03*
X53000D02*
D03*
X48000D02*
D03*
X43000D02*
D03*
X27997Y-211684D02*
D03*
X32997D02*
D03*
X37997D02*
D03*
X42997D02*
D03*
D208*
X52016Y-99677D02*
D03*
X33984Y-209323D02*
D03*
D209*
X47685Y-99677D02*
D03*
X43354Y-99677D02*
D03*
X38315Y-209323D02*
D03*
X42646Y-209323D02*
D03*
D210*
X53847Y-115405D02*
D03*
X47153D02*
D03*
X53847Y-108713D02*
D03*
X47153D02*
D03*
X32154Y-193595D02*
D03*
X38846D02*
D03*
X32154Y-200287D02*
D03*
X38846D02*
D03*
D211*
X58000Y-120937D02*
D03*
X53000D02*
D03*
X48000D02*
D03*
X43000D02*
D03*
X28000Y-188063D02*
D03*
X33000D02*
D03*
X38000D02*
D03*
X43000D02*
D03*
D212*
X393118Y-157613D02*
D03*
X398235Y-157610D02*
D03*
X403355Y-157613D02*
D03*
X393118Y-163085D02*
D03*
X398235Y-163083D02*
D03*
X403355Y-163085D02*
D03*
M02*
