G04*
G04 #@! TF.GenerationSoftware,Altium Limited,Altium Designer,24.5.2 (23)*
G04*
G04 Layer_Color=8388736*
%FSLAX25Y25*%
%MOIN*%
G70*
G04*
G04 #@! TF.SameCoordinates,EB8EEFDD-4660-4ED9-91F6-AAD8B6263AC5*
G04*
G04*
G04 #@! TF.FilePolarity,Negative*
G04*
G01*
G75*
%ADD19R,0.07087X0.08268*%
%ADD24R,0.02433X0.07182*%
G04:AMPARAMS|DCode=25|XSize=71.82mil|YSize=24.33mil|CornerRadius=12.17mil|HoleSize=0mil|Usage=FLASHONLY|Rotation=90.000|XOffset=0mil|YOffset=0mil|HoleType=Round|Shape=RoundedRectangle|*
%AMROUNDEDRECTD25*
21,1,0.07182,0.00000,0,0,90.0*
21,1,0.04749,0.02433,0,0,90.0*
1,1,0.02433,0.00000,0.02375*
1,1,0.02433,0.00000,-0.02375*
1,1,0.02433,0.00000,-0.02375*
1,1,0.02433,0.00000,0.02375*
%
%ADD25ROUNDEDRECTD25*%
%ADD37R,0.07480X0.09449*%
%ADD41R,0.05906X0.09843*%
%ADD42R,0.27559X0.27559*%
%ADD45R,0.03398X0.03241*%
%ADD46R,0.04737X0.03162*%
%ADD47R,0.03241X0.03398*%
%ADD48C,0.06779*%
%ADD49R,0.02454X0.03556*%
%ADD50R,0.03162X0.05328*%
%ADD51R,0.03359X0.03556*%
%ADD52R,0.03162X0.03556*%
%ADD53R,0.03556X0.03359*%
%ADD54R,0.03359X0.05131*%
%ADD55R,0.04383X0.05603*%
G04:AMPARAMS|DCode=56|XSize=14.57mil|YSize=29.13mil|CornerRadius=4.7mil|HoleSize=0mil|Usage=FLASHONLY|Rotation=270.000|XOffset=0mil|YOffset=0mil|HoleType=Round|Shape=RoundedRectangle|*
%AMROUNDEDRECTD56*
21,1,0.01457,0.01973,0,0,270.0*
21,1,0.00516,0.02913,0,0,270.0*
1,1,0.00941,-0.00986,-0.00258*
1,1,0.00941,-0.00986,0.00258*
1,1,0.00941,0.00986,0.00258*
1,1,0.00941,0.00986,-0.00258*
%
%ADD56ROUNDEDRECTD56*%
G04:AMPARAMS|DCode=57|XSize=14.57mil|YSize=29.13mil|CornerRadius=4.7mil|HoleSize=0mil|Usage=FLASHONLY|Rotation=180.000|XOffset=0mil|YOffset=0mil|HoleType=Round|Shape=RoundedRectangle|*
%AMROUNDEDRECTD57*
21,1,0.01457,0.01973,0,0,180.0*
21,1,0.00516,0.02913,0,0,180.0*
1,1,0.00941,-0.00258,0.00986*
1,1,0.00941,0.00258,0.00986*
1,1,0.00941,0.00258,-0.00986*
1,1,0.00941,-0.00258,-0.00986*
%
%ADD57ROUNDEDRECTD57*%
G04:AMPARAMS|DCode=58|XSize=171.39mil|YSize=171.39mil|CornerRadius=5.63mil|HoleSize=0mil|Usage=FLASHONLY|Rotation=180.000|XOffset=0mil|YOffset=0mil|HoleType=Round|Shape=RoundedRectangle|*
%AMROUNDEDRECTD58*
21,1,0.17139,0.16012,0,0,180.0*
21,1,0.16012,0.17139,0,0,180.0*
1,1,0.01127,-0.08006,0.08006*
1,1,0.01127,0.08006,0.08006*
1,1,0.01127,0.08006,-0.08006*
1,1,0.01127,-0.08006,-0.08006*
%
%ADD58ROUNDEDRECTD58*%
%ADD59R,0.04343X0.03556*%
%ADD60R,0.08674X0.14973*%
%ADD61R,0.23635X0.25210*%
%ADD62R,0.06115X0.04343*%
%ADD63R,0.02769X0.04737*%
%ADD64R,0.03556X0.04343*%
%ADD65R,0.06902X0.08280*%
%ADD66R,0.05918X0.03162*%
%ADD67R,0.08280X0.06902*%
%ADD68R,0.03162X0.05918*%
%ADD69R,0.03241X0.03241*%
%ADD70O,0.04343X0.08674*%
G04:AMPARAMS|DCode=71|XSize=45.4mil|YSize=45.4mil|CornerRadius=13.35mil|HoleSize=0mil|Usage=FLASHONLY|Rotation=270.000|XOffset=0mil|YOffset=0mil|HoleType=Round|Shape=RoundedRectangle|*
%AMROUNDEDRECTD71*
21,1,0.04540,0.01870,0,0,270.0*
21,1,0.01870,0.04540,0,0,270.0*
1,1,0.02670,-0.00935,-0.00935*
1,1,0.02670,-0.00935,0.00935*
1,1,0.02670,0.00935,0.00935*
1,1,0.02670,0.00935,-0.00935*
%
%ADD71ROUNDEDRECTD71*%
%ADD72C,0.04540*%
%ADD73C,0.10249*%
G04:AMPARAMS|DCode=74|XSize=102.49mil|YSize=102.49mil|CornerRadius=27.62mil|HoleSize=0mil|Usage=FLASHONLY|Rotation=270.000|XOffset=0mil|YOffset=0mil|HoleType=Round|Shape=RoundedRectangle|*
%AMROUNDEDRECTD74*
21,1,0.10249,0.04724,0,0,270.0*
21,1,0.04724,0.10249,0,0,270.0*
1,1,0.05524,-0.02362,-0.02362*
1,1,0.05524,-0.02362,0.02362*
1,1,0.05524,0.02362,0.02362*
1,1,0.05524,0.02362,-0.02362*
%
%ADD74ROUNDEDRECTD74*%
%ADD75C,0.20485*%
%ADD76R,0.05512X0.05512*%
%ADD77C,0.05512*%
%ADD78R,0.10642X0.10642*%
%ADD79C,0.08800*%
%ADD80C,0.11824*%
%ADD81C,0.09068*%
%ADD82R,0.09068X0.09068*%
%ADD83C,0.06265*%
%ADD84C,0.06265*%
%ADD85R,0.06265X0.06265*%
%ADD86C,0.18399*%
G04:AMPARAMS|DCode=87|XSize=70.99mil|YSize=169.42mil|CornerRadius=0mil|HoleSize=0mil|Usage=FLASHONLY|Rotation=45.000|XOffset=0mil|YOffset=0mil|HoleType=Round|Shape=Round|*
%AMOVALD87*
21,1,0.09843,0.07099,0.00000,0.00000,135.0*
1,1,0.07099,0.03480,-0.03480*
1,1,0.07099,-0.03480,0.03480*
%
%ADD87OVALD87*%

%ADD88O,0.07099X0.16942*%
%ADD89O,0.16942X0.07099*%
%ADD90R,0.06312X0.06312*%
%ADD91C,0.06312*%
%ADD92C,0.06200*%
%ADD93C,0.02769*%
G36*
X64218Y-9819D02*
X64269Y-9829D01*
X64319Y-9846D01*
X64366Y-9869D01*
X64409Y-9899D01*
X64449Y-9933D01*
X64483Y-9973D01*
X64512Y-10016D01*
X64536Y-10063D01*
X64552Y-10113D01*
X64563Y-10164D01*
X64566Y-10216D01*
Y-19075D01*
X64563Y-19127D01*
X64552Y-19179D01*
X64536Y-19228D01*
X64512Y-19275D01*
X64483Y-19319D01*
X64449Y-19358D01*
X64409Y-19393D01*
X64366Y-19422D01*
X64319Y-19445D01*
X64269Y-19462D01*
X64218Y-19472D01*
X64165Y-19476D01*
X54835D01*
X54782Y-19472D01*
X54731Y-19462D01*
X54681Y-19445D01*
X54634Y-19422D01*
X54591Y-19393D01*
X54551Y-19358D01*
X54517Y-19319D01*
X54488Y-19275D01*
X54464Y-19228D01*
X54447Y-19179D01*
X54437Y-19127D01*
X54434Y-19075D01*
Y-10216D01*
X54437Y-10164D01*
X54447Y-10113D01*
X54464Y-10063D01*
X54488Y-10016D01*
X54517Y-9973D01*
X54551Y-9933D01*
X54591Y-9899D01*
X54634Y-9869D01*
X54681Y-9846D01*
X54731Y-9829D01*
X54782Y-9819D01*
X54835Y-9816D01*
X56488D01*
X56541Y-9819D01*
X56592Y-9829D01*
X56642Y-9846D01*
X56689Y-9869D01*
X56732Y-9899D01*
X56772Y-9933D01*
X56806Y-9973D01*
X56835Y-10016D01*
X56858Y-10063D01*
X56875Y-10113D01*
X56886Y-10164D01*
X56889Y-10216D01*
Y-11942D01*
X56993D01*
Y-10216D01*
X56996Y-10164D01*
X57007Y-10113D01*
X57023Y-10063D01*
X57047Y-10016D01*
X57076Y-9973D01*
X57110Y-9933D01*
X57150Y-9899D01*
X57193Y-9869D01*
X57240Y-9846D01*
X57290Y-9829D01*
X57341Y-9819D01*
X57394Y-9816D01*
X59047D01*
X59100Y-9819D01*
X59151Y-9829D01*
X59201Y-9846D01*
X59248Y-9869D01*
X59291Y-9899D01*
X59331Y-9933D01*
X59365Y-9973D01*
X59394Y-10016D01*
X59418Y-10063D01*
X59434Y-10113D01*
X59445Y-10164D01*
X59448Y-10216D01*
Y-11942D01*
X59552D01*
Y-10216D01*
X59555Y-10164D01*
X59566Y-10113D01*
X59582Y-10063D01*
X59606Y-10016D01*
X59635Y-9973D01*
X59669Y-9933D01*
X59709Y-9899D01*
X59752Y-9869D01*
X59799Y-9846D01*
X59849Y-9829D01*
X59900Y-9819D01*
X59953Y-9816D01*
X61606D01*
X61659Y-9819D01*
X61710Y-9829D01*
X61760Y-9846D01*
X61807Y-9869D01*
X61850Y-9899D01*
X61890Y-9933D01*
X61924Y-9973D01*
X61953Y-10016D01*
X61977Y-10063D01*
X61993Y-10113D01*
X62004Y-10164D01*
X62007Y-10216D01*
Y-11942D01*
X62111D01*
Y-10216D01*
X62114Y-10164D01*
X62125Y-10113D01*
X62141Y-10063D01*
X62165Y-10016D01*
X62194Y-9973D01*
X62228Y-9933D01*
X62268Y-9899D01*
X62311Y-9869D01*
X62358Y-9846D01*
X62408Y-9829D01*
X62459Y-9819D01*
X62512Y-9816D01*
X64165D01*
X64218Y-9819D01*
D02*
G37*
G36*
X78718D02*
X78769Y-9829D01*
X78819Y-9846D01*
X78866Y-9869D01*
X78909Y-9899D01*
X78949Y-9933D01*
X78983Y-9973D01*
X79013Y-10016D01*
X79036Y-10063D01*
X79053Y-10113D01*
X79063Y-10164D01*
X79066Y-10216D01*
Y-19075D01*
X79063Y-19127D01*
X79053Y-19179D01*
X79036Y-19228D01*
X79013Y-19275D01*
X78983Y-19319D01*
X78949Y-19358D01*
X78909Y-19393D01*
X78866Y-19422D01*
X78819Y-19445D01*
X78769Y-19462D01*
X78718Y-19472D01*
X78665Y-19476D01*
X69335D01*
X69282Y-19472D01*
X69231Y-19462D01*
X69181Y-19445D01*
X69134Y-19422D01*
X69091Y-19393D01*
X69051Y-19358D01*
X69017Y-19319D01*
X68988Y-19275D01*
X68964Y-19228D01*
X68947Y-19179D01*
X68937Y-19127D01*
X68934Y-19075D01*
Y-10216D01*
X68937Y-10164D01*
X68947Y-10113D01*
X68964Y-10063D01*
X68988Y-10016D01*
X69017Y-9973D01*
X69051Y-9933D01*
X69091Y-9899D01*
X69134Y-9869D01*
X69181Y-9846D01*
X69231Y-9829D01*
X69282Y-9819D01*
X69335Y-9816D01*
X70988D01*
X71040Y-9819D01*
X71092Y-9829D01*
X71142Y-9846D01*
X71189Y-9869D01*
X71232Y-9899D01*
X71272Y-9933D01*
X71306Y-9973D01*
X71335Y-10016D01*
X71359Y-10063D01*
X71375Y-10113D01*
X71386Y-10164D01*
X71389Y-10216D01*
Y-11942D01*
X71493D01*
Y-10216D01*
X71496Y-10164D01*
X71507Y-10113D01*
X71523Y-10063D01*
X71547Y-10016D01*
X71576Y-9973D01*
X71610Y-9933D01*
X71650Y-9899D01*
X71693Y-9869D01*
X71740Y-9846D01*
X71790Y-9829D01*
X71841Y-9819D01*
X71894Y-9816D01*
X73547D01*
X73599Y-9819D01*
X73651Y-9829D01*
X73701Y-9846D01*
X73748Y-9869D01*
X73791Y-9899D01*
X73831Y-9933D01*
X73865Y-9973D01*
X73894Y-10016D01*
X73918Y-10063D01*
X73934Y-10113D01*
X73945Y-10164D01*
X73948Y-10216D01*
Y-11942D01*
X74052D01*
Y-10216D01*
X74055Y-10164D01*
X74066Y-10113D01*
X74082Y-10063D01*
X74106Y-10016D01*
X74135Y-9973D01*
X74169Y-9933D01*
X74209Y-9899D01*
X74252Y-9869D01*
X74299Y-9846D01*
X74349Y-9829D01*
X74400Y-9819D01*
X74453Y-9816D01*
X76106D01*
X76159Y-9819D01*
X76210Y-9829D01*
X76260Y-9846D01*
X76307Y-9869D01*
X76350Y-9899D01*
X76390Y-9933D01*
X76424Y-9973D01*
X76453Y-10016D01*
X76477Y-10063D01*
X76494Y-10113D01*
X76504Y-10164D01*
X76507Y-10216D01*
Y-11942D01*
X76611D01*
Y-10216D01*
X76614Y-10164D01*
X76625Y-10113D01*
X76641Y-10063D01*
X76665Y-10016D01*
X76694Y-9973D01*
X76728Y-9933D01*
X76768Y-9899D01*
X76811Y-9869D01*
X76858Y-9846D01*
X76908Y-9829D01*
X76960Y-9819D01*
X77012Y-9816D01*
X78665D01*
X78718Y-9819D01*
D02*
G37*
D19*
X58000Y-50161D02*
D03*
Y-32839D02*
D03*
D24*
X95260Y-35780D02*
D03*
D25*
X102740D02*
D03*
X99000Y-28220D02*
D03*
D37*
X451571Y-251000D02*
D03*
X435429D02*
D03*
D41*
X107055Y-171335D02*
D03*
X88945D02*
D03*
D42*
X98000Y-198500D02*
D03*
D45*
X410232Y-221500D02*
D03*
X406768D02*
D03*
X58000Y-100500D02*
D03*
X61465D02*
D03*
X488768Y-122000D02*
D03*
X492232D02*
D03*
X362232Y-81000D02*
D03*
X358768D02*
D03*
X362232Y-76500D02*
D03*
X358768D02*
D03*
X362232Y-72000D02*
D03*
X358768D02*
D03*
X463732Y-196512D02*
D03*
X460268D02*
D03*
X463732Y-201012D02*
D03*
X460268D02*
D03*
X432732Y-230500D02*
D03*
X429268D02*
D03*
X460268Y-227000D02*
D03*
X463732D02*
D03*
D46*
X400882Y-207760D02*
D03*
X400882Y-211500D02*
D03*
X400882Y-215240D02*
D03*
X411118Y-215241D02*
D03*
X411119Y-207761D02*
D03*
D47*
X417000Y-210268D02*
D03*
Y-213732D02*
D03*
X67000Y-29535D02*
D03*
Y-33000D02*
D03*
X439012Y-195744D02*
D03*
Y-192280D02*
D03*
X434500Y-192268D02*
D03*
Y-195732D02*
D03*
X442512Y-236280D02*
D03*
Y-239744D02*
D03*
X449012Y-236280D02*
D03*
Y-239744D02*
D03*
D48*
X72657Y-15753D02*
D03*
X58157D02*
D03*
D49*
X70161Y-23405D02*
D03*
X72720D02*
D03*
X75279D02*
D03*
X77839D02*
D03*
X63339D02*
D03*
X60780D02*
D03*
X58220D02*
D03*
X55661D02*
D03*
D50*
X81260Y-31882D02*
D03*
X85000D02*
D03*
X88740D02*
D03*
Y-42118D02*
D03*
X85000D02*
D03*
X81260D02*
D03*
D51*
X88500Y-20500D02*
D03*
Y-24240D02*
D03*
X113000Y-18000D02*
D03*
Y-14260D02*
D03*
X429500Y-195870D02*
D03*
Y-192130D02*
D03*
X420500Y-227630D02*
D03*
Y-231370D02*
D03*
X432012Y-240382D02*
D03*
Y-236642D02*
D03*
X437512Y-240382D02*
D03*
Y-236642D02*
D03*
X147875Y-147955D02*
D03*
Y-144215D02*
D03*
X130500Y-28870D02*
D03*
Y-25130D02*
D03*
X232000Y-234630D02*
D03*
Y-238370D02*
D03*
X107000Y-160370D02*
D03*
Y-156630D02*
D03*
X111500D02*
D03*
Y-160370D02*
D03*
X232000Y-227130D02*
D03*
Y-230870D02*
D03*
X227500D02*
D03*
Y-227130D02*
D03*
X71500Y-33138D02*
D03*
Y-29398D02*
D03*
X72000Y-42870D02*
D03*
Y-39130D02*
D03*
Y-50870D02*
D03*
Y-47130D02*
D03*
D52*
X113000Y-23563D02*
D03*
X109260Y-31437D02*
D03*
X116740D02*
D03*
D53*
X101370Y-43000D02*
D03*
X97630D02*
D03*
X502370Y-99000D02*
D03*
X498630D02*
D03*
X502370Y-122000D02*
D03*
X498630D02*
D03*
X512130Y-99000D02*
D03*
X515870D02*
D03*
X147130Y-27500D02*
D03*
X150870D02*
D03*
X107630Y-152500D02*
D03*
X111370D02*
D03*
X464087Y-214697D02*
D03*
X460346D02*
D03*
X464087Y-219000D02*
D03*
X460346D02*
D03*
X464087Y-210197D02*
D03*
X460346D02*
D03*
X450815Y-196803D02*
D03*
X454555D02*
D03*
X460346Y-205512D02*
D03*
X464087D02*
D03*
X419882Y-221512D02*
D03*
X416142D02*
D03*
X136745Y-157085D02*
D03*
X133005D02*
D03*
X139745Y-139085D02*
D03*
X136005D02*
D03*
X178370Y-224000D02*
D03*
X174630D02*
D03*
Y-219500D02*
D03*
X178370D02*
D03*
D54*
X502760Y-114724D02*
D03*
X506500D02*
D03*
X510240D02*
D03*
Y-105276D02*
D03*
X506500D02*
D03*
X502760D02*
D03*
D55*
X370937Y-87500D02*
D03*
X358063D02*
D03*
D56*
X451232Y-224055D02*
D03*
Y-222087D02*
D03*
Y-220118D02*
D03*
Y-218150D02*
D03*
Y-216181D02*
D03*
Y-214213D02*
D03*
Y-212244D02*
D03*
Y-210276D02*
D03*
Y-208307D02*
D03*
Y-206339D02*
D03*
X428398D02*
D03*
Y-208307D02*
D03*
Y-210276D02*
D03*
Y-212244D02*
D03*
Y-214213D02*
D03*
Y-216181D02*
D03*
Y-218150D02*
D03*
Y-220118D02*
D03*
Y-222087D02*
D03*
Y-224055D02*
D03*
D57*
X448673Y-203780D02*
D03*
X446705D02*
D03*
X444736D02*
D03*
X442768D02*
D03*
X440799D02*
D03*
X438831D02*
D03*
X436862D02*
D03*
X434894D02*
D03*
X432925D02*
D03*
X430957D02*
D03*
Y-226614D02*
D03*
X432925D02*
D03*
X434894D02*
D03*
X436862D02*
D03*
X438831D02*
D03*
X440799D02*
D03*
X442768D02*
D03*
X444736D02*
D03*
X446705D02*
D03*
X448673D02*
D03*
D58*
X439815Y-215197D02*
D03*
D59*
X135260Y-25000D02*
D03*
X142740Y-22441D02*
D03*
Y-27559D02*
D03*
D60*
X139016Y-169677D02*
D03*
X120984D02*
D03*
D61*
X130000Y-198024D02*
D03*
D62*
X65000Y-146949D02*
D03*
Y-153051D02*
D03*
D63*
X476000Y-189437D02*
D03*
X478559Y-181563D02*
D03*
X473441D02*
D03*
X476000Y-196063D02*
D03*
X473441Y-203937D02*
D03*
X478559D02*
D03*
X473441Y-233937D02*
D03*
X478559D02*
D03*
X476000Y-226063D02*
D03*
X478559Y-211563D02*
D03*
X473441D02*
D03*
X476000Y-219437D02*
D03*
D64*
X140434Y-144844D02*
D03*
X135316D02*
D03*
X137875Y-152325D02*
D03*
D65*
X111807Y-219500D02*
D03*
X100193D02*
D03*
X142307Y-219000D02*
D03*
X130693D02*
D03*
D66*
X220000Y-230500D02*
D03*
Y-223020D02*
D03*
X211732Y-226760D02*
D03*
D67*
X199500Y-216693D02*
D03*
Y-228307D02*
D03*
X46500Y-46307D02*
D03*
Y-34693D02*
D03*
D68*
X168106Y-215106D02*
D03*
X160626D02*
D03*
X164366Y-223374D02*
D03*
D69*
X315488Y-259980D02*
D03*
Y-256239D02*
D03*
Y-252500D02*
D03*
Y-248956D02*
D03*
Y-245413D02*
D03*
Y-241869D02*
D03*
Y-238129D02*
D03*
Y-234389D02*
D03*
X321000D02*
D03*
Y-238129D02*
D03*
Y-241869D02*
D03*
Y-245413D02*
D03*
Y-248956D02*
D03*
Y-252500D02*
D03*
Y-256239D02*
D03*
Y-259980D02*
D03*
X286500Y-260024D02*
D03*
Y-256283D02*
D03*
Y-252543D02*
D03*
Y-249000D02*
D03*
Y-245456D02*
D03*
Y-241913D02*
D03*
Y-238173D02*
D03*
Y-234432D02*
D03*
X292012D02*
D03*
Y-238173D02*
D03*
Y-241913D02*
D03*
Y-245456D02*
D03*
Y-249000D02*
D03*
Y-252543D02*
D03*
Y-256283D02*
D03*
Y-260024D02*
D03*
D70*
X310646Y-239311D02*
D03*
Y-255059D02*
D03*
X325842Y-239311D02*
D03*
Y-255059D02*
D03*
X281657Y-255102D02*
D03*
Y-239354D02*
D03*
X296854Y-255102D02*
D03*
Y-239354D02*
D03*
D71*
X134500Y-79500D02*
D03*
D72*
X139500D02*
D03*
X134500Y-84500D02*
D03*
Y-89500D02*
D03*
X139500Y-84500D02*
D03*
Y-89500D02*
D03*
X134500Y-94500D02*
D03*
Y-99500D02*
D03*
X139500Y-94500D02*
D03*
Y-99500D02*
D03*
D73*
X15228Y-45500D02*
D03*
X16228Y-69500D02*
D03*
D74*
X15228Y-15500D02*
D03*
X16228Y-99500D02*
D03*
D75*
X459815Y-90595D02*
D03*
X61500Y-253000D02*
D03*
X89059Y-58095D02*
D03*
D76*
X345500Y-224972D02*
D03*
X254067Y-224736D02*
D03*
D77*
X345500Y-234815D02*
D03*
Y-244657D02*
D03*
Y-254500D02*
D03*
X254067Y-254264D02*
D03*
Y-244421D02*
D03*
Y-234579D02*
D03*
D78*
X34000Y-236500D02*
D03*
D79*
X14000D02*
D03*
D80*
X171501Y-249000D02*
D03*
X151501D02*
D03*
X131500D02*
D03*
X111501D02*
D03*
D81*
X203000Y-248000D02*
D03*
D82*
X218000D02*
D03*
D83*
X492711Y-216200D02*
D03*
Y-205400D02*
D03*
Y-194600D02*
D03*
Y-183800D02*
D03*
D84*
X503911Y-221600D02*
D03*
Y-210800D02*
D03*
Y-200000D02*
D03*
Y-189200D02*
D03*
D85*
Y-178400D02*
D03*
D86*
X498311Y-150800D02*
D03*
Y-249200D02*
D03*
D87*
X370890Y-251610D02*
D03*
D88*
X363409Y-223658D02*
D03*
X414591Y-235469D02*
D03*
D89*
X398843Y-259091D02*
D03*
X387032Y-207909D02*
D03*
D90*
X148000Y-55500D02*
D03*
D91*
Y-65500D02*
D03*
X138000Y-55500D02*
D03*
Y-65500D02*
D03*
X128000Y-55500D02*
D03*
Y-65500D02*
D03*
D92*
X127059Y-12299D02*
D03*
Y-37894D02*
D03*
D93*
X339500Y-203000D02*
D03*
X240000Y-199500D02*
D03*
X355000Y-211000D02*
D03*
X335000Y-206787D02*
D03*
X360500Y-207000D02*
D03*
X365000Y-200158D02*
D03*
X360384Y-174549D02*
D03*
X366384Y-179285D02*
D03*
X165150Y-199500D02*
D03*
X158850D02*
D03*
X162000Y-202650D02*
D03*
Y-196350D02*
D03*
X112500Y-119500D02*
D03*
X91955Y-136526D02*
D03*
X93785Y-138864D02*
D03*
X96000Y-90500D02*
D03*
X104578Y-154724D02*
D03*
X86000Y-86500D02*
D03*
X203500Y-121384D02*
D03*
X194000Y-117500D02*
D03*
X226000Y-126500D02*
D03*
X244008Y-37806D02*
D03*
X241000Y-48500D02*
D03*
X124820Y-234599D02*
D03*
X79500Y-150056D02*
D03*
X271031Y-95500D02*
D03*
X274000D02*
D03*
X163500Y-189184D02*
D03*
X101500Y-46500D02*
D03*
X190998Y-105998D02*
D03*
X258500Y-202216D02*
D03*
X281536Y-145505D02*
D03*
X422595Y-214056D02*
D03*
X281078Y-175380D02*
D03*
X281578Y-169880D02*
D03*
X282500Y-173000D02*
D03*
X159450Y-138000D02*
D03*
X302000Y-192000D02*
D03*
X303881Y-211684D02*
D03*
X237000Y-206000D02*
D03*
X219000Y-63500D02*
D03*
X217000Y-160000D02*
D03*
X246500D02*
D03*
X329500Y-161000D02*
D03*
X331500Y-253500D02*
D03*
X339500Y-186000D02*
D03*
X225500Y-187000D02*
D03*
X221944Y-140444D02*
D03*
X225000Y-143000D02*
D03*
X224000Y-59500D02*
D03*
X246853Y-58784D02*
D03*
X249500Y-177000D02*
D03*
X252462Y-68259D02*
D03*
X252773Y-113521D02*
D03*
X329500Y-113500D02*
D03*
X307000Y-213500D02*
D03*
X359500Y-182500D02*
D03*
X302000D02*
D03*
X302500Y-130500D02*
D03*
X301604Y-82948D02*
D03*
X211000Y-114500D02*
D03*
X242500Y-114000D02*
D03*
X229444Y-194873D02*
D03*
X172472Y-187984D02*
D03*
X115500Y-186000D02*
D03*
X143500Y-203000D02*
D03*
X151553Y-200872D02*
D03*
X110521Y-180212D02*
D03*
X97000Y-167500D02*
D03*
X101620Y-171707D02*
D03*
X81002Y-184004D02*
D03*
X227000Y-184000D02*
D03*
X355000Y-166500D02*
D03*
X320000D02*
D03*
X319897Y-85785D02*
D03*
X247854Y-79786D02*
D03*
X306000Y-193000D02*
D03*
X298000Y-198500D02*
D03*
X307000Y-202000D02*
D03*
X335000Y-177500D02*
D03*
X151703Y-231207D02*
D03*
X227500Y-223000D02*
D03*
X390500Y-127500D02*
D03*
X354030Y-127493D02*
D03*
X354000Y-145500D02*
D03*
X310500D02*
D03*
Y-72500D02*
D03*
X245781Y-72110D02*
D03*
X393332Y-195999D02*
D03*
X396000Y-219500D02*
D03*
X408598Y-133484D02*
D03*
X315912Y-138770D02*
D03*
X315500Y-88500D02*
D03*
X184000D02*
D03*
X189325Y-89036D02*
D03*
X199484Y-105000D02*
D03*
X197500Y-72000D02*
D03*
X252500Y-206500D02*
D03*
X311500Y-207000D02*
D03*
X214652Y-203583D02*
D03*
X214500Y-207000D02*
D03*
X229500Y-44500D02*
D03*
X175500Y-191500D02*
D03*
X175898Y-215500D02*
D03*
X182500Y-198500D02*
D03*
Y-227000D02*
D03*
X191500D02*
D03*
X147500Y-209000D02*
D03*
X144105Y-211859D02*
D03*
X155031Y-205735D02*
D03*
X169500Y-205916D02*
D03*
X155082Y-219584D02*
D03*
X173000Y-201000D02*
D03*
X143500Y-188500D02*
D03*
X241633Y-104040D02*
D03*
X161000Y-38500D02*
D03*
X187478Y-108500D02*
D03*
X197500Y-111000D02*
D03*
X180992Y-110489D02*
D03*
X178500Y-114000D02*
D03*
X413500Y-80000D02*
D03*
Y-104500D02*
D03*
X372500Y-108000D02*
D03*
X323000Y-108500D02*
D03*
X218500Y-107000D02*
D03*
X213500Y-104500D02*
D03*
X326500Y-101500D02*
D03*
X367000D02*
D03*
X409783Y-93975D02*
D03*
X276500Y-130500D02*
D03*
X269000Y-223500D02*
D03*
X449500Y-231500D02*
D03*
X420000Y-209500D02*
D03*
X414429Y-192150D02*
D03*
X425500Y-230500D02*
D03*
X417000Y-225000D02*
D03*
X421976Y-216959D02*
D03*
X399000Y-222000D02*
D03*
X425000Y-217000D02*
D03*
X418000Y-218000D02*
D03*
X305000Y-223500D02*
D03*
X277500Y-220500D02*
D03*
X218000Y-217500D02*
D03*
X154500Y-97000D02*
D03*
X92556Y-17721D02*
D03*
X92500Y-21000D02*
D03*
X105500Y-29500D02*
D03*
Y-43000D02*
D03*
X475708Y-208312D02*
D03*
X473630Y-176692D02*
D03*
X478538Y-238392D02*
D03*
X403000Y-235000D02*
D03*
X252500Y-189500D02*
D03*
X256000Y-198000D02*
D03*
X277000Y-151500D02*
D03*
X279722Y-193591D02*
D03*
X277000Y-206500D02*
D03*
X277500Y-211000D02*
D03*
Y-215500D02*
D03*
X404000Y-195500D02*
D03*
X449712Y-201314D02*
D03*
X436000Y-198835D02*
D03*
X182192Y-145697D02*
D03*
X165691Y-148197D02*
D03*
X262000Y-147000D02*
D03*
Y-117500D02*
D03*
X200892Y-145587D02*
D03*
X188000Y-125000D02*
D03*
X187478Y-142361D02*
D03*
X185500Y-223500D02*
D03*
X152000Y-151000D02*
D03*
X149000Y-103000D02*
D03*
X154000Y-38000D02*
D03*
X148173Y-153442D02*
D03*
X124403Y-150097D02*
D03*
X148339Y-198175D02*
D03*
X495500Y-103000D02*
D03*
X444500D02*
D03*
Y-183500D02*
D03*
X434501Y-179642D02*
D03*
X434500Y-136000D02*
D03*
X519603Y-136243D02*
D03*
X361000Y-146500D02*
D03*
X366000Y-145000D02*
D03*
X395616Y-179374D02*
D03*
X519575Y-99279D02*
D03*
X507924Y-100576D02*
D03*
X400804Y-183299D02*
D03*
X370989Y-183601D02*
D03*
X370762Y-147747D02*
D03*
X375341Y-144050D02*
D03*
X404101Y-139241D02*
D03*
X404500Y-122500D02*
D03*
X495431Y-122000D02*
D03*
X482506Y-98307D02*
D03*
X420000Y-109000D02*
D03*
X515000D02*
D03*
X502760Y-118519D02*
D03*
X505380Y-98416D02*
D03*
X387000Y-173500D02*
D03*
X420000D02*
D03*
X353500Y-87500D02*
D03*
Y-83500D02*
D03*
Y-79000D02*
D03*
Y-75000D02*
D03*
X293000Y-125000D02*
D03*
Y-130500D02*
D03*
X302500Y-125000D02*
D03*
X279000Y-84500D02*
D03*
X260000Y-131000D02*
D03*
X251000Y-126000D02*
D03*
X248500Y-131000D02*
D03*
X254000D02*
D03*
X257500Y-126500D02*
D03*
X283500Y-129000D02*
D03*
X277000Y-147500D02*
D03*
X221000Y-145000D02*
D03*
X212500D02*
D03*
X161500Y-153500D02*
D03*
X98148Y-135364D02*
D03*
X117000Y-145500D02*
D03*
X123500Y-132000D02*
D03*
X171032Y-105855D02*
D03*
X171000Y-115000D02*
D03*
X116500D02*
D03*
X149000Y-132000D02*
D03*
X178522Y-103229D02*
D03*
X183522D02*
D03*
X82298Y-144202D02*
D03*
X406500Y-212000D02*
D03*
X193870Y-128146D02*
D03*
X120500Y-128000D02*
D03*
Y-73500D02*
D03*
X133500D02*
D03*
Y-33000D02*
D03*
X113000Y-20782D02*
D03*
X136000Y-110500D02*
D03*
X229500Y-58500D02*
D03*
X287500Y-64000D02*
D03*
X287000Y-204500D02*
D03*
X400000Y-193000D02*
D03*
X416500Y-206000D02*
D03*
X447000Y-217894D02*
D03*
Y-212500D02*
D03*
X442512Y-217894D02*
D03*
X432630Y-212500D02*
D03*
X442512Y-222382D02*
D03*
X437118D02*
D03*
Y-208012D02*
D03*
X442512D02*
D03*
Y-212500D02*
D03*
X432630Y-217894D02*
D03*
X437118D02*
D03*
Y-212500D02*
D03*
X306000Y-92500D02*
D03*
X425500Y-212000D02*
D03*
Y-188500D02*
D03*
X280500D02*
D03*
X159512Y-84370D02*
D03*
X422500Y-198500D02*
D03*
X298000Y-76000D02*
D03*
X160500D02*
D03*
X178000Y-91000D02*
D03*
X174540Y-87952D02*
D03*
X181500Y-79500D02*
D03*
Y-53500D02*
D03*
X178000Y-59000D02*
D03*
X174500Y-64000D02*
D03*
X197000Y-205500D02*
D03*
X144500Y-196500D02*
D03*
X235000Y-244500D02*
D03*
X234719Y-110312D02*
D03*
X203000Y-114000D02*
D03*
X160000Y-97500D02*
D03*
X164500Y-99000D02*
D03*
X155000Y-29000D02*
D03*
X112500Y-28000D02*
D03*
X96000Y-81500D02*
D03*
X120000Y-31500D02*
D03*
X65868Y-24094D02*
D03*
X128000Y-106000D02*
D03*
X139000Y-43500D02*
D03*
X82042Y-154559D02*
D03*
X138000Y-212500D02*
D03*
X81002Y-195504D02*
D03*
Y-192504D02*
D03*
Y-189504D02*
D03*
X80900Y-186601D02*
D03*
X70000Y-155000D02*
D03*
X67500Y-156500D02*
D03*
X64270Y-156785D02*
D03*
X61500Y-157000D02*
D03*
Y-143000D02*
D03*
X64270Y-143215D02*
D03*
X67500Y-143500D02*
D03*
X70000Y-145500D02*
D03*
X69000Y-97000D02*
D03*
X71500Y-94000D02*
D03*
X74000Y-96500D02*
D03*
X69500Y-86500D02*
D03*
X69340Y-89598D02*
D03*
X69500Y-92000D02*
D03*
X76000Y-98500D02*
D03*
X96500Y-171000D02*
D03*
X79000Y-248000D02*
D03*
X90500D02*
D03*
X98000Y-164000D02*
D03*
X88594Y-137222D02*
D03*
X96000Y-78500D02*
D03*
X86059Y-121429D02*
D03*
X80100Y-123873D02*
D03*
X104000Y-90000D02*
D03*
X79495Y-147087D02*
D03*
X106000Y-124500D02*
D03*
X55000Y-181500D02*
D03*
X85500Y-159000D02*
D03*
X128088Y-165010D02*
D03*
X127588Y-177010D02*
D03*
X119088Y-180010D02*
D03*
X123088D02*
D03*
X127088Y-179510D02*
D03*
X127588Y-162510D02*
D03*
X130088Y-177010D02*
D03*
Y-173510D02*
D03*
Y-170510D02*
D03*
Y-167010D02*
D03*
Y-163510D02*
D03*
X32000Y-216500D02*
D03*
X69689Y-152000D02*
D03*
X61500Y-96000D02*
D03*
X92500Y-42551D02*
D03*
X47000Y-52500D02*
D03*
X90905Y-37000D02*
D03*
X66500D02*
D03*
X228575Y-205500D02*
D03*
X222276D02*
D03*
X225426Y-208649D02*
D03*
Y-202350D02*
D03*
M02*
