G04*
G04 #@! TF.GenerationSoftware,Altium Limited,Altium Designer,24.5.2 (23)*
G04*
G04 Layer_Color=8388736*
%FSLAX25Y25*%
%MOIN*%
G70*
G04*
G04 #@! TF.SameCoordinates,EB8EEFDD-4660-4ED9-91F6-AAD8B6263AC5*
G04*
G04*
G04 #@! TF.FilePolarity,Positive*
G04*
G01*
G75*
%ADD12C,0.00787*%
%ADD213C,0.00394*%
%ADD217C,0.00472*%
G36*
X77604Y-15518D02*
X77633Y-15522D01*
X77666Y-15526D01*
X77702Y-15529D01*
X77738Y-15540D01*
X77826Y-15562D01*
X77913Y-15595D01*
X77957Y-15617D01*
X78000Y-15642D01*
X78040Y-15675D01*
X78080Y-15708D01*
X78084Y-15711D01*
X78088Y-15715D01*
X78099Y-15726D01*
X78113Y-15740D01*
X78128Y-15762D01*
X78146Y-15784D01*
X78182Y-15839D01*
X78219Y-15908D01*
X78251Y-15988D01*
X78277Y-16079D01*
X78281Y-16126D01*
X78284Y-16177D01*
Y-16181D01*
Y-16184D01*
Y-16206D01*
X78281Y-16239D01*
X78273Y-16279D01*
X78262Y-16330D01*
X78244Y-16381D01*
X78222Y-16432D01*
X78190Y-16483D01*
X78186Y-16490D01*
X78171Y-16505D01*
X78150Y-16527D01*
X78120Y-16556D01*
X78080Y-16589D01*
X78033Y-16621D01*
X77978Y-16654D01*
X77913Y-16683D01*
X77917D01*
X77924Y-16687D01*
X77935Y-16691D01*
X77949Y-16698D01*
X77993Y-16716D01*
X78044Y-16741D01*
X78099Y-16778D01*
X78157Y-16818D01*
X78211Y-16869D01*
X78262Y-16927D01*
Y-16931D01*
X78266Y-16934D01*
X78281Y-16956D01*
X78303Y-16993D01*
X78324Y-17040D01*
X78346Y-17098D01*
X78368Y-17167D01*
X78382Y-17244D01*
X78386Y-17327D01*
Y-17331D01*
Y-17342D01*
Y-17360D01*
X78382Y-17382D01*
X78379Y-17408D01*
X78375Y-17440D01*
X78368Y-17477D01*
X78357Y-17517D01*
X78332Y-17601D01*
X78313Y-17648D01*
X78288Y-17692D01*
X78262Y-17739D01*
X78233Y-17783D01*
X78197Y-17826D01*
X78157Y-17870D01*
X78153Y-17874D01*
X78146Y-17881D01*
X78135Y-17892D01*
X78117Y-17903D01*
X78091Y-17921D01*
X78066Y-17939D01*
X78033Y-17957D01*
X77997Y-17979D01*
X77957Y-18001D01*
X77909Y-18019D01*
X77858Y-18037D01*
X77807Y-18056D01*
X77749Y-18066D01*
X77687Y-18077D01*
X77625Y-18085D01*
X77556Y-18088D01*
X77520D01*
X77494Y-18085D01*
X77462Y-18081D01*
X77425Y-18077D01*
X77385Y-18070D01*
X77342Y-18059D01*
X77243Y-18034D01*
X77192Y-18015D01*
X77145Y-17997D01*
X77094Y-17972D01*
X77043Y-17943D01*
X76996Y-17910D01*
X76952Y-17870D01*
X76948Y-17866D01*
X76941Y-17859D01*
X76930Y-17848D01*
X76916Y-17830D01*
X76901Y-17808D01*
X76879Y-17783D01*
X76861Y-17753D01*
X76839Y-17717D01*
X76817Y-17681D01*
X76799Y-17637D01*
X76763Y-17546D01*
X76748Y-17491D01*
X76737Y-17437D01*
X76730Y-17378D01*
X76726Y-17320D01*
Y-17317D01*
Y-17309D01*
Y-17295D01*
X76730Y-17280D01*
Y-17258D01*
X76734Y-17233D01*
X76741Y-17175D01*
X76755Y-17109D01*
X76777Y-17044D01*
X76810Y-16974D01*
X76850Y-16909D01*
Y-16905D01*
X76857Y-16902D01*
X76872Y-16883D01*
X76901Y-16854D01*
X76941Y-16818D01*
X76992Y-16781D01*
X77054Y-16741D01*
X77123Y-16709D01*
X77207Y-16683D01*
X77203D01*
X77200Y-16680D01*
X77189Y-16676D01*
X77174Y-16669D01*
X77141Y-16654D01*
X77098Y-16632D01*
X77050Y-16603D01*
X77003Y-16567D01*
X76959Y-16527D01*
X76919Y-16483D01*
X76916Y-16476D01*
X76905Y-16461D01*
X76890Y-16432D01*
X76876Y-16396D01*
X76857Y-16348D01*
X76843Y-16294D01*
X76832Y-16232D01*
X76828Y-16166D01*
Y-16163D01*
Y-16155D01*
Y-16141D01*
X76832Y-16119D01*
X76836Y-16097D01*
X76839Y-16068D01*
X76854Y-16006D01*
X76876Y-15933D01*
X76912Y-15857D01*
X76934Y-15817D01*
X76959Y-15777D01*
X76992Y-15740D01*
X77025Y-15704D01*
X77029Y-15700D01*
X77036Y-15697D01*
X77047Y-15686D01*
X77061Y-15675D01*
X77079Y-15660D01*
X77105Y-15646D01*
X77134Y-15628D01*
X77163Y-15609D01*
X77200Y-15591D01*
X77240Y-15573D01*
X77283Y-15558D01*
X77331Y-15544D01*
X77433Y-15522D01*
X77491Y-15518D01*
X77549Y-15515D01*
X77582D01*
X77604Y-15518D01*
D02*
G37*
G36*
X75263Y-15486D02*
X75296D01*
X75329Y-15489D01*
X75372Y-15497D01*
X75416Y-15504D01*
X75511Y-15522D01*
X75620Y-15551D01*
X75725Y-15595D01*
X75780Y-15620D01*
X75835Y-15649D01*
X75838Y-15653D01*
X75845Y-15657D01*
X75860Y-15668D01*
X75882Y-15679D01*
X75904Y-15697D01*
X75933Y-15719D01*
X75995Y-15770D01*
X76060Y-15835D01*
X76133Y-15915D01*
X76202Y-16010D01*
X76260Y-16115D01*
Y-16119D01*
X76268Y-16130D01*
X76275Y-16145D01*
X76282Y-16166D01*
X76297Y-16195D01*
X76308Y-16228D01*
X76322Y-16268D01*
X76337Y-16312D01*
X76348Y-16359D01*
X76362Y-16410D01*
X76377Y-16465D01*
X76388Y-16523D01*
X76402Y-16650D01*
X76410Y-16785D01*
Y-16789D01*
Y-16800D01*
Y-16814D01*
Y-16836D01*
X76406Y-16865D01*
Y-16898D01*
X76402Y-16934D01*
X76399Y-16971D01*
X76388Y-17058D01*
X76370Y-17153D01*
X76348Y-17251D01*
X76315Y-17346D01*
Y-17349D01*
X76311Y-17357D01*
X76304Y-17371D01*
X76297Y-17386D01*
X76286Y-17408D01*
X76275Y-17433D01*
X76246Y-17491D01*
X76206Y-17560D01*
X76155Y-17633D01*
X76097Y-17706D01*
X76031Y-17779D01*
X76035D01*
X76042Y-17786D01*
X76053Y-17793D01*
X76071Y-17804D01*
X76089Y-17819D01*
X76115Y-17833D01*
X76169Y-17866D01*
X76235Y-17906D01*
X76308Y-17946D01*
X76384Y-17979D01*
X76457Y-18012D01*
X76359Y-18241D01*
X76355D01*
X76348Y-18237D01*
X76333Y-18230D01*
X76311Y-18223D01*
X76286Y-18212D01*
X76257Y-18197D01*
X76224Y-18183D01*
X76188Y-18165D01*
X76108Y-18121D01*
X76016Y-18070D01*
X75918Y-18004D01*
X75816Y-17932D01*
X75813D01*
X75805Y-17939D01*
X75787Y-17946D01*
X75769Y-17957D01*
X75740Y-17968D01*
X75711Y-17983D01*
X75674Y-17994D01*
X75634Y-18008D01*
X75591Y-18023D01*
X75543Y-18037D01*
X75438Y-18063D01*
X75321Y-18081D01*
X75259Y-18085D01*
X75197Y-18088D01*
X75165D01*
X75139Y-18085D01*
X75110D01*
X75074Y-18081D01*
X75034Y-18074D01*
X74990Y-18066D01*
X74895Y-18048D01*
X74790Y-18019D01*
X74681Y-17979D01*
X74630Y-17954D01*
X74575Y-17924D01*
X74572Y-17921D01*
X74564Y-17917D01*
X74550Y-17906D01*
X74531Y-17895D01*
X74506Y-17877D01*
X74480Y-17855D01*
X74419Y-17804D01*
X74349Y-17739D01*
X74280Y-17659D01*
X74211Y-17568D01*
X74149Y-17462D01*
Y-17458D01*
X74142Y-17448D01*
X74135Y-17433D01*
X74127Y-17411D01*
X74116Y-17382D01*
X74102Y-17349D01*
X74087Y-17309D01*
X74076Y-17266D01*
X74062Y-17218D01*
X74047Y-17167D01*
X74036Y-17113D01*
X74022Y-17051D01*
X74007Y-16923D01*
X74000Y-16789D01*
Y-16785D01*
Y-16771D01*
Y-16752D01*
X74004Y-16727D01*
Y-16694D01*
X74007Y-16654D01*
X74011Y-16610D01*
X74018Y-16563D01*
X74036Y-16457D01*
X74062Y-16345D01*
X74098Y-16225D01*
X74149Y-16108D01*
X74153Y-16104D01*
X74156Y-16093D01*
X74164Y-16079D01*
X74178Y-16057D01*
X74193Y-16032D01*
X74211Y-16003D01*
X74262Y-15933D01*
X74320Y-15861D01*
X74397Y-15784D01*
X74480Y-15708D01*
X74579Y-15642D01*
X74582Y-15639D01*
X74593Y-15635D01*
X74608Y-15628D01*
X74630Y-15617D01*
X74655Y-15606D01*
X74684Y-15591D01*
X74721Y-15577D01*
X74761Y-15562D01*
X74808Y-15548D01*
X74855Y-15533D01*
X74961Y-15507D01*
X75077Y-15489D01*
X75139Y-15482D01*
X75238D01*
X75263Y-15486D01*
D02*
G37*
G36*
X499235Y-196546D02*
X499297Y-196553D01*
X499359Y-196564D01*
X499413Y-196575D01*
X499465Y-196593D01*
X499515Y-196611D01*
X499559Y-196629D01*
X499599Y-196651D01*
X499636Y-196673D01*
X499668Y-196691D01*
X499694Y-196710D01*
X499719Y-196728D01*
X499738Y-196739D01*
X499748Y-196749D01*
X499756Y-196757D01*
X499759Y-196760D01*
X499799Y-196800D01*
X499836Y-196844D01*
X499865Y-196891D01*
X499890Y-196935D01*
X499916Y-196979D01*
X499934Y-197022D01*
X499960Y-197106D01*
X499970Y-197143D01*
X499978Y-197179D01*
X499981Y-197208D01*
X499985Y-197237D01*
X499989Y-197259D01*
Y-197288D01*
X499985Y-197354D01*
X499974Y-197416D01*
X499963Y-197474D01*
X499949Y-197525D01*
X499930Y-197569D01*
X499920Y-197601D01*
X499908Y-197623D01*
X499905Y-197627D01*
Y-197630D01*
X499868Y-197689D01*
X499828Y-197740D01*
X499788Y-197787D01*
X499745Y-197823D01*
X499708Y-197856D01*
X499679Y-197882D01*
X499657Y-197896D01*
X499654Y-197900D01*
X499719D01*
X499785Y-197896D01*
X499843Y-197892D01*
X499901Y-197885D01*
X499952Y-197882D01*
X500000Y-197874D01*
X500043Y-197867D01*
X500083Y-197856D01*
X500120Y-197849D01*
X500149Y-197842D01*
X500174Y-197834D01*
X500196Y-197831D01*
X500211Y-197823D01*
X500222Y-197820D01*
X500229Y-197816D01*
X500233D01*
X500305Y-197780D01*
X500371Y-197743D01*
X500422Y-197703D01*
X500465Y-197667D01*
X500502Y-197634D01*
X500527Y-197609D01*
X500542Y-197590D01*
X500546Y-197583D01*
X500575Y-197539D01*
X500593Y-197496D01*
X500607Y-197452D01*
X500618Y-197408D01*
X500626Y-197376D01*
X500629Y-197346D01*
Y-197321D01*
X500622Y-197256D01*
X500607Y-197194D01*
X500586Y-197143D01*
X500564Y-197095D01*
X500538Y-197059D01*
X500516Y-197034D01*
X500502Y-197019D01*
X500495Y-197012D01*
X500462Y-196986D01*
X500422Y-196961D01*
X500378Y-196939D01*
X500334Y-196924D01*
X500294Y-196910D01*
X500262Y-196899D01*
X500240Y-196895D01*
X500236Y-196891D01*
X500233D01*
X500258Y-196582D01*
X500360Y-196604D01*
X500451Y-196637D01*
X500531Y-196673D01*
X500597Y-196713D01*
X500647Y-196753D01*
X500669Y-196768D01*
X500688Y-196786D01*
X500698Y-196797D01*
X500709Y-196808D01*
X500713Y-196811D01*
X500717Y-196815D01*
X500746Y-196852D01*
X500771Y-196891D01*
X500815Y-196972D01*
X500844Y-197052D01*
X500862Y-197128D01*
X500877Y-197197D01*
X500880Y-197226D01*
Y-197252D01*
X500884Y-197274D01*
Y-197303D01*
X500880Y-197376D01*
X500873Y-197445D01*
X500859Y-197510D01*
X500840Y-197572D01*
X500815Y-197627D01*
X500793Y-197681D01*
X500764Y-197729D01*
X500738Y-197772D01*
X500713Y-197809D01*
X500684Y-197845D01*
X500662Y-197874D01*
X500640Y-197896D01*
X500618Y-197914D01*
X500604Y-197929D01*
X500597Y-197936D01*
X500593Y-197940D01*
X500527Y-197987D01*
X500451Y-198027D01*
X500371Y-198064D01*
X500287Y-198096D01*
X500200Y-198122D01*
X500112Y-198144D01*
X500021Y-198162D01*
X499938Y-198176D01*
X499854Y-198187D01*
X499778Y-198195D01*
X499708Y-198202D01*
X499650Y-198205D01*
X499599D01*
X499563Y-198209D01*
X499548D01*
X499537D01*
X499534D01*
X499530D01*
X499413Y-198205D01*
X499304Y-198198D01*
X499202Y-198187D01*
X499108Y-198169D01*
X499024Y-198151D01*
X498948Y-198133D01*
X498878Y-198111D01*
X498816Y-198085D01*
X498766Y-198064D01*
X498718Y-198042D01*
X498682Y-198023D01*
X498649Y-198002D01*
X498624Y-197987D01*
X498609Y-197976D01*
X498598Y-197969D01*
X498595Y-197965D01*
X498544Y-197918D01*
X498500Y-197867D01*
X498463Y-197816D01*
X498431Y-197765D01*
X498402Y-197711D01*
X498380Y-197660D01*
X498361Y-197609D01*
X498347Y-197558D01*
X498336Y-197514D01*
X498325Y-197470D01*
X498318Y-197434D01*
X498314Y-197401D01*
Y-197372D01*
X498311Y-197354D01*
Y-197336D01*
X498314Y-197252D01*
X498329Y-197175D01*
X498343Y-197106D01*
X498365Y-197044D01*
X498383Y-196997D01*
X498402Y-196961D01*
X498405Y-196946D01*
X498413Y-196935D01*
X498416Y-196932D01*
Y-196928D01*
X498460Y-196866D01*
X498511Y-196808D01*
X498562Y-196760D01*
X498613Y-196720D01*
X498660Y-196688D01*
X498696Y-196666D01*
X498711Y-196659D01*
X498722Y-196651D01*
X498726Y-196648D01*
X498729D01*
X498806Y-196611D01*
X498886Y-196586D01*
X498958Y-196567D01*
X499028Y-196557D01*
X499086Y-196546D01*
X499108D01*
X499130Y-196542D01*
X499148D01*
X499159D01*
X499166D01*
X499170D01*
X499235Y-196546D01*
D02*
G37*
G36*
X500873Y-198948D02*
X499137D01*
X499060D01*
X498995Y-198955D01*
X498940Y-198959D01*
X498897Y-198966D01*
X498864Y-198974D01*
X498838Y-198977D01*
X498824Y-198985D01*
X498820D01*
X498784Y-198999D01*
X498755Y-199017D01*
X498729Y-199039D01*
X498704Y-199057D01*
X498689Y-199079D01*
X498675Y-199094D01*
X498667Y-199105D01*
X498664Y-199108D01*
X498645Y-199145D01*
X498631Y-199181D01*
X498624Y-199217D01*
X498616Y-199250D01*
X498613Y-199283D01*
X498609Y-199305D01*
Y-199327D01*
X498613Y-199385D01*
X498627Y-199440D01*
X498642Y-199483D01*
X498664Y-199523D01*
X498682Y-199552D01*
X498700Y-199574D01*
X498711Y-199589D01*
X498715Y-199592D01*
X498736Y-199611D01*
X498762Y-199625D01*
X498820Y-199647D01*
X498886Y-199669D01*
X498951Y-199680D01*
X499013Y-199691D01*
X499039D01*
X499060Y-199694D01*
X499082Y-199698D01*
X499097D01*
X499104D01*
X499108D01*
X499064Y-200000D01*
X498995D01*
X498933Y-199996D01*
X498871Y-199986D01*
X498816Y-199978D01*
X498766Y-199964D01*
X498722Y-199949D01*
X498678Y-199934D01*
X498642Y-199920D01*
X498609Y-199902D01*
X498580Y-199887D01*
X498555Y-199873D01*
X498536Y-199858D01*
X498522Y-199847D01*
X498507Y-199840D01*
X498503Y-199836D01*
X498500Y-199833D01*
X498467Y-199796D01*
X498438Y-199760D01*
X498413Y-199720D01*
X498391Y-199676D01*
X498358Y-199592D01*
X498336Y-199512D01*
X498321Y-199436D01*
X498318Y-199407D01*
X498314Y-199378D01*
X498311Y-199356D01*
Y-199323D01*
X498314Y-199243D01*
X498325Y-199170D01*
X498340Y-199105D01*
X498358Y-199046D01*
X498373Y-198999D01*
X498387Y-198966D01*
X498398Y-198944D01*
X498402Y-198937D01*
X498438Y-198879D01*
X498482Y-198828D01*
X498525Y-198788D01*
X498565Y-198751D01*
X498605Y-198726D01*
X498634Y-198708D01*
X498656Y-198697D01*
X498660Y-198693D01*
X498664D01*
X498736Y-198668D01*
X498813Y-198646D01*
X498897Y-198631D01*
X498977Y-198624D01*
X499046Y-198617D01*
X499075D01*
X499104Y-198613D01*
X499126D01*
X499141D01*
X499151D01*
X499155D01*
X500873D01*
Y-198948D01*
D02*
G37*
G36*
X63882Y-15802D02*
X63879Y-15806D01*
X63872Y-15813D01*
X63857Y-15828D01*
X63842Y-15850D01*
X63821Y-15875D01*
X63792Y-15904D01*
X63762Y-15941D01*
X63730Y-15984D01*
X63697Y-16028D01*
X63657Y-16079D01*
X63617Y-16137D01*
X63577Y-16195D01*
X63533Y-16261D01*
X63489Y-16330D01*
X63446Y-16407D01*
X63402Y-16483D01*
X63398Y-16487D01*
X63391Y-16501D01*
X63380Y-16523D01*
X63362Y-16556D01*
X63344Y-16596D01*
X63322Y-16639D01*
X63297Y-16691D01*
X63271Y-16749D01*
X63242Y-16814D01*
X63209Y-16880D01*
X63180Y-16953D01*
X63151Y-17029D01*
X63093Y-17186D01*
X63038Y-17353D01*
Y-17357D01*
X63034Y-17368D01*
X63031Y-17386D01*
X63024Y-17408D01*
X63016Y-17437D01*
X63009Y-17473D01*
X62998Y-17513D01*
X62991Y-17557D01*
X62980Y-17608D01*
X62969Y-17662D01*
X62951Y-17779D01*
X62932Y-17906D01*
X62922Y-18045D01*
X62605D01*
Y-18041D01*
Y-18030D01*
Y-18015D01*
X62608Y-17994D01*
Y-17965D01*
X62612Y-17928D01*
X62616Y-17888D01*
X62620Y-17844D01*
X62627Y-17793D01*
X62634Y-17742D01*
X62645Y-17681D01*
X62656Y-17619D01*
X62667Y-17553D01*
X62681Y-17480D01*
X62718Y-17331D01*
Y-17327D01*
X62721Y-17313D01*
X62729Y-17291D01*
X62740Y-17258D01*
X62751Y-17222D01*
X62765Y-17178D01*
X62780Y-17127D01*
X62801Y-17073D01*
X62823Y-17011D01*
X62845Y-16949D01*
X62900Y-16811D01*
X62965Y-16665D01*
X63038Y-16519D01*
X63042Y-16516D01*
X63049Y-16501D01*
X63060Y-16483D01*
X63074Y-16454D01*
X63093Y-16421D01*
X63118Y-16381D01*
X63144Y-16337D01*
X63173Y-16290D01*
X63242Y-16184D01*
X63315Y-16075D01*
X63398Y-15962D01*
X63486Y-15857D01*
X62252D01*
Y-15558D01*
X63882D01*
Y-15802D01*
D02*
G37*
G36*
X60763Y-15486D02*
X60796D01*
X60829Y-15489D01*
X60872Y-15497D01*
X60916Y-15504D01*
X61011Y-15522D01*
X61120Y-15551D01*
X61225Y-15595D01*
X61280Y-15620D01*
X61335Y-15649D01*
X61338Y-15653D01*
X61345Y-15657D01*
X61360Y-15668D01*
X61382Y-15679D01*
X61404Y-15697D01*
X61433Y-15719D01*
X61495Y-15770D01*
X61560Y-15835D01*
X61633Y-15915D01*
X61702Y-16010D01*
X61760Y-16115D01*
Y-16119D01*
X61768Y-16130D01*
X61775Y-16145D01*
X61782Y-16166D01*
X61797Y-16195D01*
X61808Y-16228D01*
X61822Y-16268D01*
X61837Y-16312D01*
X61848Y-16359D01*
X61862Y-16410D01*
X61877Y-16465D01*
X61888Y-16523D01*
X61902Y-16650D01*
X61910Y-16785D01*
Y-16789D01*
Y-16800D01*
Y-16814D01*
Y-16836D01*
X61906Y-16865D01*
Y-16898D01*
X61902Y-16934D01*
X61899Y-16971D01*
X61888Y-17058D01*
X61870Y-17153D01*
X61848Y-17251D01*
X61815Y-17346D01*
Y-17349D01*
X61811Y-17357D01*
X61804Y-17371D01*
X61797Y-17386D01*
X61786Y-17408D01*
X61775Y-17433D01*
X61746Y-17491D01*
X61706Y-17560D01*
X61655Y-17633D01*
X61597Y-17706D01*
X61531Y-17779D01*
X61535D01*
X61542Y-17786D01*
X61553Y-17793D01*
X61571Y-17804D01*
X61589Y-17819D01*
X61615Y-17833D01*
X61669Y-17866D01*
X61735Y-17906D01*
X61808Y-17946D01*
X61884Y-17979D01*
X61957Y-18012D01*
X61859Y-18241D01*
X61855D01*
X61848Y-18237D01*
X61833Y-18230D01*
X61811Y-18223D01*
X61786Y-18212D01*
X61757Y-18197D01*
X61724Y-18183D01*
X61688Y-18165D01*
X61607Y-18121D01*
X61516Y-18070D01*
X61418Y-18004D01*
X61316Y-17932D01*
X61313D01*
X61305Y-17939D01*
X61287Y-17946D01*
X61269Y-17957D01*
X61240Y-17968D01*
X61211Y-17983D01*
X61174Y-17994D01*
X61134Y-18008D01*
X61091Y-18023D01*
X61043Y-18037D01*
X60938Y-18063D01*
X60821Y-18081D01*
X60759Y-18085D01*
X60698Y-18088D01*
X60665D01*
X60639Y-18085D01*
X60610D01*
X60574Y-18081D01*
X60534Y-18074D01*
X60490Y-18066D01*
X60395Y-18048D01*
X60290Y-18019D01*
X60181Y-17979D01*
X60130Y-17954D01*
X60075Y-17924D01*
X60071Y-17921D01*
X60064Y-17917D01*
X60050Y-17906D01*
X60031Y-17895D01*
X60006Y-17877D01*
X59980Y-17855D01*
X59919Y-17804D01*
X59849Y-17739D01*
X59780Y-17659D01*
X59711Y-17568D01*
X59649Y-17462D01*
Y-17458D01*
X59642Y-17448D01*
X59635Y-17433D01*
X59627Y-17411D01*
X59617Y-17382D01*
X59602Y-17349D01*
X59587Y-17309D01*
X59576Y-17266D01*
X59562Y-17218D01*
X59547Y-17167D01*
X59536Y-17113D01*
X59522Y-17051D01*
X59507Y-16923D01*
X59500Y-16789D01*
Y-16785D01*
Y-16771D01*
Y-16752D01*
X59504Y-16727D01*
Y-16694D01*
X59507Y-16654D01*
X59511Y-16610D01*
X59518Y-16563D01*
X59536Y-16457D01*
X59562Y-16345D01*
X59598Y-16225D01*
X59649Y-16108D01*
X59653Y-16104D01*
X59657Y-16093D01*
X59664Y-16079D01*
X59678Y-16057D01*
X59693Y-16032D01*
X59711Y-16003D01*
X59762Y-15933D01*
X59820Y-15861D01*
X59897Y-15784D01*
X59980Y-15708D01*
X60079Y-15642D01*
X60082Y-15639D01*
X60093Y-15635D01*
X60108Y-15628D01*
X60130Y-15617D01*
X60155Y-15606D01*
X60184Y-15591D01*
X60221Y-15577D01*
X60261Y-15562D01*
X60308Y-15548D01*
X60355Y-15533D01*
X60461Y-15507D01*
X60577Y-15489D01*
X60639Y-15482D01*
X60738D01*
X60763Y-15486D01*
D02*
G37*
%LPC*%
G36*
X77556Y-15770D02*
X77527D01*
X77494Y-15777D01*
X77451Y-15784D01*
X77403Y-15799D01*
X77352Y-15817D01*
X77305Y-15846D01*
X77258Y-15886D01*
X77254Y-15890D01*
X77240Y-15904D01*
X77221Y-15930D01*
X77203Y-15962D01*
X77181Y-16003D01*
X77163Y-16050D01*
X77149Y-16101D01*
X77145Y-16159D01*
Y-16163D01*
Y-16166D01*
X77149Y-16188D01*
X77152Y-16221D01*
X77160Y-16261D01*
X77174Y-16308D01*
X77192Y-16356D01*
X77221Y-16407D01*
X77258Y-16450D01*
X77261Y-16454D01*
X77280Y-16468D01*
X77305Y-16487D01*
X77338Y-16505D01*
X77381Y-16527D01*
X77433Y-16545D01*
X77491Y-16559D01*
X77556Y-16563D01*
X77564D01*
X77585Y-16559D01*
X77618Y-16556D01*
X77662Y-16548D01*
X77709Y-16534D01*
X77757Y-16516D01*
X77807Y-16487D01*
X77851Y-16450D01*
X77855Y-16447D01*
X77869Y-16428D01*
X77887Y-16407D01*
X77909Y-16374D01*
X77931Y-16334D01*
X77949Y-16286D01*
X77964Y-16232D01*
X77968Y-16174D01*
Y-16170D01*
Y-16166D01*
Y-16145D01*
X77960Y-16112D01*
X77953Y-16072D01*
X77938Y-16028D01*
X77917Y-15981D01*
X77887Y-15933D01*
X77847Y-15886D01*
X77844Y-15882D01*
X77826Y-15868D01*
X77800Y-15850D01*
X77767Y-15828D01*
X77724Y-15806D01*
X77676Y-15788D01*
X77618Y-15773D01*
X77556Y-15770D01*
D02*
G37*
G36*
X77545Y-16814D02*
X77523D01*
X77509Y-16818D01*
X77469Y-16822D01*
X77418Y-16832D01*
X77360Y-16851D01*
X77302Y-16876D01*
X77240Y-16913D01*
X77185Y-16960D01*
X77178Y-16967D01*
X77163Y-16985D01*
X77141Y-17018D01*
X77116Y-17058D01*
X77087Y-17113D01*
X77065Y-17175D01*
X77050Y-17244D01*
X77043Y-17320D01*
Y-17327D01*
Y-17342D01*
X77047Y-17368D01*
X77050Y-17400D01*
X77058Y-17440D01*
X77069Y-17484D01*
X77083Y-17528D01*
X77101Y-17575D01*
X77105Y-17579D01*
X77112Y-17597D01*
X77127Y-17619D01*
X77149Y-17644D01*
X77174Y-17677D01*
X77207Y-17710D01*
X77243Y-17739D01*
X77287Y-17768D01*
X77294Y-17772D01*
X77309Y-17779D01*
X77334Y-17790D01*
X77367Y-17801D01*
X77407Y-17812D01*
X77454Y-17822D01*
X77505Y-17830D01*
X77556Y-17833D01*
X77578D01*
X77593Y-17830D01*
X77636Y-17826D01*
X77687Y-17815D01*
X77745Y-17797D01*
X77807Y-17775D01*
X77866Y-17739D01*
X77924Y-17692D01*
X77931Y-17684D01*
X77946Y-17666D01*
X77971Y-17633D01*
X77997Y-17593D01*
X78022Y-17542D01*
X78048Y-17480D01*
X78062Y-17408D01*
X78070Y-17331D01*
Y-17327D01*
Y-17320D01*
Y-17309D01*
X78066Y-17295D01*
X78062Y-17255D01*
X78051Y-17200D01*
X78033Y-17145D01*
X78008Y-17084D01*
X77971Y-17022D01*
X77920Y-16963D01*
X77913Y-16956D01*
X77895Y-16942D01*
X77862Y-16916D01*
X77818Y-16887D01*
X77764Y-16862D01*
X77698Y-16836D01*
X77625Y-16822D01*
X77545Y-16814D01*
D02*
G37*
G36*
X75205Y-15770D02*
X75168D01*
X75143Y-15773D01*
X75110Y-15777D01*
X75074Y-15784D01*
X75034Y-15791D01*
X74990Y-15802D01*
X74939Y-15817D01*
X74892Y-15831D01*
X74841Y-15853D01*
X74786Y-15879D01*
X74735Y-15908D01*
X74684Y-15944D01*
X74633Y-15981D01*
X74586Y-16028D01*
X74582Y-16032D01*
X74575Y-16039D01*
X74564Y-16053D01*
X74550Y-16075D01*
X74528Y-16101D01*
X74510Y-16134D01*
X74488Y-16174D01*
X74466Y-16217D01*
X74440Y-16268D01*
X74419Y-16327D01*
X74400Y-16388D01*
X74382Y-16457D01*
X74364Y-16530D01*
X74353Y-16610D01*
X74346Y-16698D01*
X74342Y-16789D01*
Y-16796D01*
Y-16811D01*
Y-16836D01*
X74346Y-16869D01*
X74349Y-16909D01*
X74357Y-16956D01*
X74364Y-17011D01*
X74371Y-17065D01*
X74400Y-17189D01*
X74419Y-17251D01*
X74444Y-17313D01*
X74470Y-17375D01*
X74502Y-17433D01*
X74539Y-17491D01*
X74582Y-17542D01*
X74586Y-17546D01*
X74593Y-17553D01*
X74608Y-17568D01*
X74626Y-17582D01*
X74651Y-17604D01*
X74681Y-17626D01*
X74713Y-17648D01*
X74753Y-17673D01*
X74793Y-17699D01*
X74841Y-17721D01*
X74892Y-17742D01*
X74946Y-17764D01*
X75008Y-17779D01*
X75070Y-17793D01*
X75136Y-17801D01*
X75205Y-17804D01*
X75238D01*
X75270Y-17801D01*
X75314Y-17797D01*
X75369Y-17790D01*
X75423Y-17775D01*
X75485Y-17761D01*
X75543Y-17739D01*
X75536Y-17735D01*
X75518Y-17721D01*
X75485Y-17702D01*
X75445Y-17681D01*
X75394Y-17659D01*
X75340Y-17633D01*
X75278Y-17611D01*
X75212Y-17593D01*
X75296Y-17353D01*
X75300D01*
X75310Y-17357D01*
X75325Y-17360D01*
X75343Y-17368D01*
X75369Y-17375D01*
X75398Y-17386D01*
X75463Y-17411D01*
X75540Y-17448D01*
X75620Y-17488D01*
X75696Y-17535D01*
X75773Y-17593D01*
X75776Y-17590D01*
X75787Y-17582D01*
X75802Y-17564D01*
X75820Y-17542D01*
X75842Y-17513D01*
X75867Y-17480D01*
X75893Y-17440D01*
X75922Y-17393D01*
X75947Y-17338D01*
X75973Y-17277D01*
X75998Y-17211D01*
X76020Y-17142D01*
X76042Y-17062D01*
X76057Y-16978D01*
X76064Y-16887D01*
X76068Y-16789D01*
Y-16785D01*
Y-16774D01*
Y-16760D01*
Y-16738D01*
X76064Y-16709D01*
Y-16680D01*
X76060Y-16643D01*
X76053Y-16607D01*
X76042Y-16523D01*
X76024Y-16432D01*
X75998Y-16341D01*
X75962Y-16254D01*
Y-16250D01*
X75958Y-16243D01*
X75951Y-16232D01*
X75944Y-16217D01*
X75918Y-16174D01*
X75885Y-16123D01*
X75842Y-16064D01*
X75787Y-16006D01*
X75725Y-15948D01*
X75656Y-15897D01*
X75652D01*
X75649Y-15890D01*
X75638Y-15886D01*
X75620Y-15875D01*
X75602Y-15868D01*
X75580Y-15857D01*
X75525Y-15831D01*
X75460Y-15810D01*
X75383Y-15788D01*
X75296Y-15773D01*
X75205Y-15770D01*
D02*
G37*
G36*
X499177Y-196859D02*
X499162D01*
X499155D01*
X499151D01*
X499053Y-196866D01*
X498969Y-196881D01*
X498897Y-196902D01*
X498835Y-196928D01*
X498787Y-196957D01*
X498751Y-196979D01*
X498729Y-196993D01*
X498726Y-197001D01*
X498722D01*
X498693Y-197026D01*
X498671Y-197055D01*
X498631Y-197114D01*
X498605Y-197172D01*
X498584Y-197223D01*
X498573Y-197270D01*
X498569Y-197307D01*
X498565Y-197321D01*
Y-197339D01*
X498569Y-197390D01*
X498576Y-197438D01*
X498591Y-197481D01*
X498605Y-197518D01*
X498616Y-197550D01*
X498631Y-197576D01*
X498638Y-197590D01*
X498642Y-197598D01*
X498675Y-197641D01*
X498707Y-197678D01*
X498747Y-197711D01*
X498780Y-197736D01*
X498813Y-197758D01*
X498838Y-197772D01*
X498857Y-197783D01*
X498864Y-197787D01*
X498918Y-197809D01*
X498973Y-197823D01*
X499024Y-197838D01*
X499071Y-197845D01*
X499111Y-197849D01*
X499144Y-197853D01*
X499162D01*
X499170D01*
X499257Y-197845D01*
X499333Y-197831D01*
X499403Y-197805D01*
X499457Y-197780D01*
X499505Y-197754D01*
X499537Y-197729D01*
X499555Y-197714D01*
X499563Y-197707D01*
X499614Y-197649D01*
X499650Y-197590D01*
X499679Y-197529D01*
X499697Y-197474D01*
X499708Y-197423D01*
X499712Y-197387D01*
X499716Y-197372D01*
Y-197350D01*
X499708Y-197274D01*
X499690Y-197204D01*
X499668Y-197146D01*
X499639Y-197095D01*
X499610Y-197055D01*
X499588Y-197026D01*
X499570Y-197008D01*
X499563Y-197001D01*
X499501Y-196953D01*
X499435Y-196917D01*
X499366Y-196891D01*
X499301Y-196877D01*
X499242Y-196866D01*
X499217Y-196862D01*
X499195D01*
X499177Y-196859D01*
D02*
G37*
G36*
X60705Y-15770D02*
X60668D01*
X60643Y-15773D01*
X60610Y-15777D01*
X60574Y-15784D01*
X60534Y-15791D01*
X60490Y-15802D01*
X60439Y-15817D01*
X60392Y-15831D01*
X60341Y-15853D01*
X60286Y-15879D01*
X60235Y-15908D01*
X60184Y-15944D01*
X60133Y-15981D01*
X60086Y-16028D01*
X60082Y-16032D01*
X60075Y-16039D01*
X60064Y-16053D01*
X60050Y-16075D01*
X60028Y-16101D01*
X60010Y-16134D01*
X59988Y-16174D01*
X59966Y-16217D01*
X59940Y-16268D01*
X59919Y-16327D01*
X59900Y-16388D01*
X59882Y-16457D01*
X59864Y-16530D01*
X59853Y-16610D01*
X59846Y-16698D01*
X59842Y-16789D01*
Y-16796D01*
Y-16811D01*
Y-16836D01*
X59846Y-16869D01*
X59849Y-16909D01*
X59857Y-16956D01*
X59864Y-17011D01*
X59871Y-17065D01*
X59900Y-17189D01*
X59919Y-17251D01*
X59944Y-17313D01*
X59970Y-17375D01*
X60002Y-17433D01*
X60039Y-17491D01*
X60082Y-17542D01*
X60086Y-17546D01*
X60093Y-17553D01*
X60108Y-17568D01*
X60126Y-17582D01*
X60151Y-17604D01*
X60181Y-17626D01*
X60213Y-17648D01*
X60254Y-17673D01*
X60294Y-17699D01*
X60341Y-17721D01*
X60392Y-17742D01*
X60446Y-17764D01*
X60508Y-17779D01*
X60570Y-17793D01*
X60636Y-17801D01*
X60705Y-17804D01*
X60738D01*
X60770Y-17801D01*
X60814Y-17797D01*
X60869Y-17790D01*
X60923Y-17775D01*
X60985Y-17761D01*
X61043Y-17739D01*
X61036Y-17735D01*
X61018Y-17721D01*
X60985Y-17702D01*
X60945Y-17681D01*
X60894Y-17659D01*
X60839Y-17633D01*
X60778Y-17611D01*
X60712Y-17593D01*
X60796Y-17353D01*
X60799D01*
X60810Y-17357D01*
X60825Y-17360D01*
X60843Y-17368D01*
X60869Y-17375D01*
X60898Y-17386D01*
X60963Y-17411D01*
X61040Y-17448D01*
X61120Y-17488D01*
X61196Y-17535D01*
X61273Y-17593D01*
X61276Y-17590D01*
X61287Y-17582D01*
X61302Y-17564D01*
X61320Y-17542D01*
X61342Y-17513D01*
X61367Y-17480D01*
X61393Y-17440D01*
X61422Y-17393D01*
X61447Y-17338D01*
X61473Y-17277D01*
X61498Y-17211D01*
X61520Y-17142D01*
X61542Y-17062D01*
X61557Y-16978D01*
X61564Y-16887D01*
X61567Y-16789D01*
Y-16785D01*
Y-16774D01*
Y-16760D01*
Y-16738D01*
X61564Y-16709D01*
Y-16680D01*
X61560Y-16643D01*
X61553Y-16607D01*
X61542Y-16523D01*
X61524Y-16432D01*
X61498Y-16341D01*
X61462Y-16254D01*
Y-16250D01*
X61458Y-16243D01*
X61451Y-16232D01*
X61444Y-16217D01*
X61418Y-16174D01*
X61386Y-16123D01*
X61342Y-16064D01*
X61287Y-16006D01*
X61225Y-15948D01*
X61156Y-15897D01*
X61152D01*
X61149Y-15890D01*
X61138Y-15886D01*
X61120Y-15875D01*
X61102Y-15868D01*
X61080Y-15857D01*
X61025Y-15831D01*
X60960Y-15810D01*
X60883Y-15788D01*
X60796Y-15773D01*
X60705Y-15770D01*
D02*
G37*
%LPD*%
D12*
X472467Y-261794D02*
X524154D01*
X472467D02*
Y-138206D01*
X524154D01*
Y-261794D02*
Y-138206D01*
D213*
X18968Y-29019D02*
X15969D01*
X15407Y-28832D01*
X15219Y-28644D01*
X15032Y-28269D01*
Y-27895D01*
X15219Y-27520D01*
X15407Y-27332D01*
X15969Y-27145D01*
X16344D01*
X18218Y-30031D02*
X18406Y-30406D01*
X18968Y-30969D01*
X15032D01*
X18218Y-32918D02*
X18406Y-33293D01*
X18968Y-33855D01*
X15032D01*
D217*
X139361Y-88713D02*
Y-87139D01*
Y-87926D01*
X135426D01*
X134639Y-87139D01*
Y-86351D01*
X135426Y-85564D01*
X134639Y-93436D02*
Y-90287D01*
X137787Y-93436D01*
X138574D01*
X139361Y-92649D01*
Y-91074D01*
X138574Y-90287D01*
M02*
