G04*
G04 #@! TF.GenerationSoftware,Altium Limited,Altium Designer,24.5.2 (23)*
G04*
G04 Layer_Color=32768*
%FSLAX25Y25*%
%MOIN*%
G70*
G04*
G04 #@! TF.SameCoordinates,EB8EEFDD-4660-4ED9-91F6-AAD8B6263AC5*
G04*
G04*
G04 #@! TF.FilePolarity,Positive*
G04*
G01*
G75*
%ADD12C,0.00787*%
%ADD216C,0.00197*%
D12*
X52114Y-54689D02*
Y-28311D01*
X63886D01*
Y-54689D02*
Y-28311D01*
X52114Y-54689D02*
X63886D01*
X91323Y-41340D02*
Y-22660D01*
X106677D01*
Y-41340D02*
Y-22660D01*
X91323Y-41340D02*
X106677D01*
X331720Y-264539D02*
X355146D01*
Y-214933D01*
X331720D02*
X355146D01*
X331720Y-264539D02*
Y-214933D01*
X240287Y-264303D02*
Y-214697D01*
X263713D01*
Y-264303D02*
Y-214697D01*
X240287Y-264303D02*
X263713D01*
X431295Y-258087D02*
X455705D01*
X431295D02*
Y-243913D01*
X455705D01*
Y-258087D02*
Y-243913D01*
X83827Y-212673D02*
X112173D01*
X83827D02*
Y-166020D01*
X112173D01*
Y-212673D02*
Y-166020D01*
D216*
X144776Y-103378D02*
Y-75622D01*
X129224Y-103378D02*
X144776D01*
X129224D02*
Y-75622D01*
X144776D01*
X67012Y-9823D02*
X80988D01*
Y-25177D02*
Y-9823D01*
X67012Y-25177D02*
X80988D01*
X67012D02*
Y-9823D01*
X-520Y248D02*
X34520D01*
X-520Y-61248D02*
Y248D01*
Y-61248D02*
X34520D01*
Y248D01*
X52512Y-25177D02*
Y-9823D01*
Y-25177D02*
X66488D01*
Y-9823D01*
X52512D02*
X66488D01*
M02*
