G04*
G04 #@! TF.GenerationSoftware,Altium Limited,Altium Designer,24.5.2 (23)*
G04*
G04 Layer_Color=8388736*
%FSLAX25Y25*%
%MOIN*%
G70*
G04*
G04 #@! TF.SameCoordinates,EB8EEFDD-4660-4ED9-91F6-AAD8B6263AC5*
G04*
G04*
G04 #@! TF.FilePolarity,Positive*
G04*
G01*
G75*
%ADD12C,0.00787*%
%ADD213C,0.00394*%
D12*
X315638Y-227031D02*
Y-223882D01*
X320362D01*
Y-227031D02*
Y-223882D01*
X315638Y-227031D02*
X320362D01*
X477410Y-129905D02*
Y-91520D01*
Y-129905D02*
X525839D01*
Y-91520D01*
X477410D02*
X525839D01*
X291618Y-230102D02*
Y-226952D01*
X286893Y-230102D02*
X291618D01*
X286893D02*
Y-226952D01*
X291618D01*
D213*
X167020Y-205405D02*
G03*
X167020Y-205405I-1181J0D01*
G01*
X393618Y-151776D02*
G03*
X393618Y-151776I-1969J0D01*
G01*
X230445Y-211405D02*
G03*
X230445Y-211405I-1181J0D01*
G01*
X245567Y-45583D02*
Y-43417D01*
X241433Y-45583D02*
Y-43417D01*
X245567D01*
X241433Y-45583D02*
X245567D01*
X67642Y-32858D02*
X85358D01*
X67642D02*
Y-15142D01*
X85358D01*
Y-32858D02*
Y-15142D01*
X38913Y-36083D02*
Y-33917D01*
X34780Y-36083D02*
Y-33917D01*
X38913D01*
X34780Y-36083D02*
X38913D01*
X69957Y-88693D02*
X77043D01*
X69957Y-75307D02*
X77043D01*
Y-88693D02*
Y-75307D01*
X69957Y-88693D02*
Y-75307D01*
X80951Y-95420D02*
X85085D01*
X80951Y-93255D02*
X85085D01*
X80951Y-95420D02*
Y-93255D01*
X85085Y-95420D02*
Y-93255D01*
X80963Y-90916D02*
X85097D01*
X80963Y-88751D02*
X85097D01*
X80963Y-90916D02*
Y-88751D01*
X85097Y-90916D02*
Y-88751D01*
X84433Y-84083D02*
X88567D01*
X84433Y-81917D02*
X88567D01*
X84433Y-84083D02*
Y-81917D01*
X88567Y-84083D02*
Y-81917D01*
X98433D02*
X102567D01*
X98433Y-84083D02*
X102567D01*
Y-81917D01*
X98433Y-84083D02*
Y-81917D01*
X71933Y-148417D02*
X76067D01*
X71933Y-150583D02*
X76067D01*
Y-148417D01*
X71933Y-150583D02*
Y-148417D01*
X83146Y-132732D02*
Y-124268D01*
X88854Y-132732D02*
Y-124268D01*
X83146D02*
X88854D01*
X83146Y-132732D02*
X88854D01*
X93917Y-128067D02*
Y-123933D01*
X96083Y-128067D02*
Y-123933D01*
X93917D02*
X96083D01*
X93917Y-128067D02*
X96083D01*
X97417Y-131567D02*
Y-127433D01*
X99583Y-131567D02*
Y-127433D01*
X97417D02*
X99583D01*
X97417Y-131567D02*
X99583D01*
X103583Y-131335D02*
Y-127201D01*
X101417Y-131335D02*
Y-127201D01*
Y-131335D02*
X103583D01*
X101417Y-127201D02*
X103583D01*
X104917Y-131567D02*
Y-127433D01*
X107083Y-131567D02*
Y-127433D01*
X104917D02*
X107083D01*
X104917Y-131567D02*
X107083D01*
X109803Y-130417D02*
X113937D01*
X109803Y-132583D02*
X113937D01*
Y-130417D01*
X109803Y-132583D02*
Y-130417D01*
X85626Y-143701D02*
X87201Y-142126D01*
X85626D02*
X101374D01*
Y-157874D02*
Y-142126D01*
X85626Y-157874D02*
X101374D01*
X85626D02*
Y-142126D01*
X108933Y-143917D02*
X113067D01*
X108933Y-146083D02*
X113067D01*
Y-143917D01*
X108933Y-146083D02*
Y-143917D01*
X108433Y-157417D02*
X112567D01*
X108433Y-159583D02*
X112567D01*
Y-157417D01*
X108433Y-159583D02*
Y-157417D01*
X100433Y-169083D02*
X104567D01*
X100433Y-166917D02*
X104567D01*
X100433Y-169083D02*
Y-166917D01*
X104567Y-169083D02*
Y-166917D01*
X105933Y-165083D02*
X110067D01*
X105933Y-162917D02*
X110067D01*
X105933Y-165083D02*
Y-162917D01*
X110067Y-165083D02*
Y-162917D01*
X114433Y-165083D02*
X118567D01*
X114433Y-162917D02*
X118567D01*
X114433Y-165083D02*
Y-162917D01*
X118567Y-165083D02*
Y-162917D01*
X119957Y-207693D02*
X127043D01*
X119957Y-194307D02*
X127043D01*
Y-207693D02*
Y-194307D01*
X119957Y-207693D02*
Y-194307D01*
X153831Y-207669D02*
X170169D01*
X153831Y-191331D02*
X170169D01*
Y-207669D02*
Y-191331D01*
X153831Y-207669D02*
Y-191331D01*
X78307Y-226957D02*
X91693D01*
X78307Y-234043D02*
X91693D01*
Y-226957D01*
X78307Y-234043D02*
Y-226957D01*
X85917Y-248067D02*
X88083D01*
X85917Y-243933D02*
X88083D01*
Y-248067D02*
Y-243933D01*
X85917Y-248067D02*
Y-243933D01*
X81417Y-248067D02*
X83583D01*
X81417Y-243933D02*
X83583D01*
Y-248067D02*
Y-243933D01*
X81417Y-248067D02*
Y-243933D01*
X82933Y-239083D02*
Y-236917D01*
X87067Y-239083D02*
Y-236917D01*
X82933Y-239083D02*
X87067D01*
X82933Y-236917D02*
X87067D01*
X90917Y-242067D02*
X93083D01*
X90917Y-237933D02*
X93083D01*
Y-242067D02*
Y-237933D01*
X90917Y-242067D02*
Y-237933D01*
X51417Y-214067D02*
Y-209933D01*
X53583Y-214067D02*
Y-209933D01*
X51417D02*
X53583D01*
X51417Y-214067D02*
X53583D01*
X513067Y-136083D02*
Y-133917D01*
X508933Y-136083D02*
Y-133917D01*
X513067D01*
X508933Y-136083D02*
X513067D01*
X295718Y-141299D02*
X297883D01*
X295718Y-137165D02*
X297883D01*
Y-141299D02*
Y-137165D01*
X295718Y-141299D02*
Y-137165D01*
X291518Y-141299D02*
X293683D01*
X291518Y-137165D02*
X293683D01*
Y-141299D02*
Y-137165D01*
X291518Y-141299D02*
Y-137165D01*
X287318Y-141299D02*
X289483D01*
X287318Y-137165D02*
X289483D01*
Y-141299D02*
Y-137165D01*
X287318Y-141299D02*
Y-137165D01*
X299917Y-141299D02*
X302083D01*
X299917Y-137165D02*
X302083D01*
Y-141299D02*
Y-137165D01*
X299917Y-141299D02*
Y-137165D01*
X284067Y-150083D02*
Y-147917D01*
X279933Y-150083D02*
Y-147917D01*
X284067D01*
X279933Y-150083D02*
X284067D01*
X283118Y-141299D02*
X285284D01*
X283118Y-137165D02*
X285284D01*
Y-141299D02*
Y-137165D01*
X283118Y-141299D02*
Y-137165D01*
X269417Y-142067D02*
X271583D01*
X269417Y-137933D02*
X271583D01*
Y-142067D02*
Y-137933D01*
X269417Y-142067D02*
Y-137933D01*
X269933Y-155583D02*
X274067D01*
X269933Y-153417D02*
X274067D01*
X269933Y-155583D02*
Y-153417D01*
X274067Y-155583D02*
Y-153417D01*
X269803Y-151583D02*
Y-149417D01*
X273937Y-151583D02*
Y-149417D01*
X269803Y-151583D02*
X273937D01*
X269803Y-149417D02*
X273937D01*
X405547Y-85422D02*
X409681D01*
X405547Y-83256D02*
X409681D01*
X405547Y-85422D02*
Y-83256D01*
X409681Y-85422D02*
Y-83256D01*
X405677Y-88257D02*
X409811D01*
X405677Y-90422D02*
X409811D01*
Y-88257D01*
X405677Y-90422D02*
Y-88257D01*
X405547Y-78756D02*
X409681D01*
X405547Y-80922D02*
X409681D01*
Y-78756D01*
X405547Y-80922D02*
Y-78756D01*
X233433Y-104083D02*
Y-101917D01*
X237567Y-104083D02*
Y-101917D01*
X233433Y-104083D02*
X237567D01*
X233433Y-101917D02*
X237567D01*
X352555Y-200004D02*
X359445D01*
X352555Y-187996D02*
X359445D01*
X352555Y-200004D02*
Y-187996D01*
X359445Y-200004D02*
Y-187996D01*
X233303Y-107583D02*
Y-105417D01*
X237437Y-107583D02*
Y-105417D01*
X233303Y-107583D02*
X237437D01*
X233303Y-105417D02*
X237437D01*
X87185Y-42551D02*
Y-36449D01*
Y-42551D02*
X97815D01*
X87185Y-36449D02*
X97815D01*
Y-42551D02*
Y-36449D01*
X224336Y-137649D02*
X226501D01*
X224336Y-133515D02*
X226501D01*
Y-137649D02*
Y-133515D01*
X224336Y-137649D02*
Y-133515D01*
X372201Y-194583D02*
Y-192417D01*
X368067Y-194583D02*
Y-192417D01*
X372201D01*
X368067Y-194583D02*
X372201D01*
X368067Y-189583D02*
Y-187417D01*
X372201Y-189583D02*
Y-187417D01*
X368067Y-189583D02*
X372201D01*
X368067Y-187417D02*
X372201D01*
X344417Y-190433D02*
X346583D01*
X344417Y-194567D02*
X346583D01*
X344417D02*
Y-190433D01*
X346583Y-194567D02*
Y-190433D01*
X49768Y-14146D02*
X58232D01*
X49768Y-19854D02*
X58232D01*
Y-14146D01*
X49768Y-19854D02*
Y-14146D01*
X36803Y-16307D02*
X43890D01*
X36803Y-29693D02*
X43890D01*
X36803D02*
Y-16307D01*
X43890Y-29693D02*
Y-16307D01*
X27303D02*
X34390D01*
X27303Y-29693D02*
X34390D01*
X27303D02*
Y-16307D01*
X34390Y-29693D02*
Y-16307D01*
X269433Y-189583D02*
Y-187417D01*
X273567Y-189583D02*
Y-187417D01*
X269433Y-189583D02*
X273567D01*
X269433Y-187417D02*
X273567D01*
X269251Y-207712D02*
Y-205547D01*
X273384Y-207712D02*
Y-205547D01*
X269251Y-207712D02*
X273384D01*
X269251Y-205547D02*
X273384D01*
X314457Y-211693D02*
X321543D01*
X314457Y-198307D02*
X321543D01*
Y-211693D02*
Y-198307D01*
X314457Y-211693D02*
Y-198307D01*
X269251Y-203712D02*
Y-201547D01*
X273384Y-203712D02*
Y-201547D01*
X269251Y-203712D02*
X273384D01*
X269251Y-201547D02*
X273384D01*
X260917Y-202567D02*
X263083D01*
X260917Y-198433D02*
X263083D01*
Y-202567D02*
Y-198433D01*
X260917Y-202567D02*
Y-198433D01*
X269251Y-212212D02*
Y-210047D01*
X273384Y-212212D02*
Y-210047D01*
X269251Y-212212D02*
X273384D01*
X269251Y-210047D02*
X273384D01*
X260416Y-189316D02*
X262581D01*
X260416Y-193450D02*
X262581D01*
X260416D02*
Y-189316D01*
X262581Y-193450D02*
Y-189316D01*
X269251Y-216712D02*
Y-214547D01*
X273384Y-216712D02*
Y-214547D01*
X269251Y-216712D02*
X273384D01*
X269251Y-214547D02*
X273384D01*
X269251Y-221212D02*
Y-219047D01*
X273384Y-221212D02*
Y-219047D01*
X269251Y-221212D02*
X273384D01*
X269251Y-219047D02*
X273384D01*
X256416Y-193450D02*
X258581D01*
X256416Y-189316D02*
X258581D01*
Y-193450D02*
Y-189316D01*
X256416Y-193450D02*
Y-189316D01*
X337244Y-197138D02*
Y-190248D01*
X325236Y-197138D02*
Y-190248D01*
Y-197138D02*
X337244D01*
X325236Y-190248D02*
X337244D01*
X88567Y-78583D02*
Y-76417D01*
X84433Y-78583D02*
Y-76417D01*
X88567D01*
X84433Y-78583D02*
X88567D01*
X329417Y-220067D02*
Y-215933D01*
X331583Y-220067D02*
Y-215933D01*
X329417D02*
X331583D01*
X329417Y-220067D02*
X331583D01*
X329417Y-211067D02*
Y-206933D01*
X331583Y-211067D02*
Y-206933D01*
X329417D02*
X331583D01*
X329417Y-211067D02*
X331583D01*
X328583Y-181567D02*
Y-177433D01*
X326417Y-181567D02*
Y-177433D01*
Y-181567D02*
X328583D01*
X326417Y-177433D02*
X328583D01*
X26917Y-220799D02*
X29083D01*
X26917Y-216665D02*
X29083D01*
Y-220799D02*
Y-216665D01*
X26917Y-220799D02*
Y-216665D01*
X315933Y-215917D02*
X320067D01*
X315933Y-218083D02*
X320067D01*
Y-215917D01*
X315933Y-218083D02*
Y-215917D01*
X894Y-178575D02*
Y-125425D01*
Y-178575D02*
X50106D01*
Y-125425D01*
X894D02*
X50106D01*
X117165Y-157417D02*
X121299D01*
X117165Y-159583D02*
X121299D01*
Y-157417D01*
X117165Y-159583D02*
Y-157417D01*
X109933Y-170083D02*
X114067D01*
X109933Y-167917D02*
X114067D01*
X109933Y-170083D02*
Y-167917D01*
X114067Y-170083D02*
Y-167917D01*
X109673Y-126417D02*
X113807D01*
X109673Y-128583D02*
X113807D01*
Y-126417D01*
X109673Y-128583D02*
Y-126417D01*
X108933Y-139917D02*
X113067D01*
X108933Y-142083D02*
X113067D01*
Y-139917D01*
X108933Y-142083D02*
Y-139917D01*
X113433Y-153917D02*
X117567D01*
X113433Y-156083D02*
X117567D01*
Y-153917D01*
X113433Y-156083D02*
Y-153917D01*
X98433Y-76917D02*
X102567D01*
X98433Y-79083D02*
X102567D01*
Y-76917D01*
X98433Y-79083D02*
Y-76917D01*
X92417Y-82567D02*
Y-78433D01*
X94583Y-82567D02*
Y-78433D01*
X92417D02*
X94583D01*
X92417Y-82567D02*
X94583D01*
X220933Y-218583D02*
X225067D01*
X220933Y-216417D02*
X225067D01*
X220933Y-218583D02*
Y-216417D01*
X225067Y-218583D02*
Y-216417D01*
X372201Y-199083D02*
Y-196917D01*
X368067Y-199083D02*
Y-196917D01*
X372201D01*
X368067Y-199083D02*
X372201D01*
X77417Y-42067D02*
X79583D01*
X77417Y-37933D02*
X79583D01*
Y-42067D02*
Y-37933D01*
X77417Y-42067D02*
Y-37933D01*
X329925Y-250181D02*
X333075D01*
X329925D02*
Y-247819D01*
X333075D01*
Y-250181D02*
Y-247819D01*
X329925Y-246638D02*
X333075D01*
X329925D02*
Y-244275D01*
X333075D01*
Y-246638D02*
Y-244275D01*
X316165Y-220417D02*
X320299D01*
X316165Y-222583D02*
X320299D01*
Y-220417D01*
X316165Y-222583D02*
Y-220417D01*
X323701Y-65417D02*
X327835D01*
X323701Y-67583D02*
X327835D01*
Y-65417D01*
X323701Y-67583D02*
Y-65417D01*
X182417Y-110067D02*
Y-105933D01*
X184583Y-110067D02*
Y-105933D01*
X182417D02*
X184583D01*
X182417Y-110067D02*
X184583D01*
X177417D02*
Y-105933D01*
X179583Y-110067D02*
Y-105933D01*
X177417D02*
X179583D01*
X177417Y-110067D02*
X179583D01*
X323933Y-76917D02*
X328067D01*
X323933Y-79083D02*
X328067D01*
Y-76917D01*
X323933Y-79083D02*
Y-76917D01*
X222417Y-109067D02*
X224583D01*
X222417Y-104933D02*
X224583D01*
Y-109067D02*
Y-104933D01*
X222417Y-109067D02*
Y-104933D01*
X72417Y-41567D02*
X74583D01*
X72417Y-37433D02*
X74583D01*
Y-41567D02*
Y-37433D01*
X72417Y-41567D02*
Y-37433D01*
X328583Y-73937D02*
Y-69803D01*
X326417Y-73937D02*
Y-69803D01*
Y-73937D02*
X328583D01*
X326417Y-69803D02*
X328583D01*
X323433Y-50917D02*
X327567D01*
X323433Y-53083D02*
X327567D01*
Y-50917D01*
X323433Y-53083D02*
Y-50917D01*
X323701Y-61917D02*
X327835D01*
X323701Y-64083D02*
X327835D01*
Y-61917D01*
X323701Y-64083D02*
Y-61917D01*
X328583Y-59567D02*
Y-55433D01*
X326417Y-59567D02*
Y-55433D01*
Y-59567D02*
X328583D01*
X326417Y-55433D02*
X328583D01*
X160067Y-94583D02*
Y-92417D01*
X155933Y-94583D02*
Y-92417D01*
X160067D01*
X155933Y-94583D02*
X160067D01*
X188880Y-139167D02*
Y-135033D01*
X186715Y-139167D02*
Y-135033D01*
Y-139167D02*
X188880D01*
X186715Y-135033D02*
X188880D01*
X185433Y-130083D02*
Y-127917D01*
X189567Y-130083D02*
Y-127917D01*
X185433Y-130083D02*
X189567D01*
X185433Y-127917D02*
X189567D01*
X199433Y-126083D02*
Y-123917D01*
X203567Y-126083D02*
Y-123917D01*
X199433Y-126083D02*
X203567D01*
X199433Y-123917D02*
X203567D01*
X382417Y-175567D02*
Y-171433D01*
X384583Y-175567D02*
Y-171433D01*
X382417D02*
X384583D01*
X382417Y-175567D02*
X384583D01*
X388106Y-148233D02*
X408382D01*
X388106Y-172445D02*
X408382D01*
X388106D02*
Y-148233D01*
X408382Y-172445D02*
Y-148233D01*
X89917Y-128067D02*
X92083D01*
X89917Y-123933D02*
X92083D01*
Y-128067D02*
Y-123933D01*
X89917Y-128067D02*
Y-123933D01*
X241433Y-39917D02*
X245567D01*
X241433Y-42083D02*
X245567D01*
Y-39917D01*
X241433Y-42083D02*
Y-39917D01*
X236382Y-99405D02*
Y988D01*
X165516Y-99405D02*
X236382D01*
X165516D02*
Y988D01*
X236382D01*
X241201Y-31583D02*
X245335D01*
X241201Y-29417D02*
X245335D01*
X241201Y-31583D02*
Y-29417D01*
X245335Y-31583D02*
Y-29417D01*
X241433Y-35583D02*
X245567D01*
X241433Y-33417D02*
X245567D01*
X241433Y-35583D02*
Y-33417D01*
X245567Y-35583D02*
Y-33417D01*
X155933Y-212583D02*
X160067D01*
X155933Y-210417D02*
X160067D01*
X155933Y-212583D02*
Y-210417D01*
X160067Y-212583D02*
Y-210417D01*
X171380Y-139167D02*
Y-135033D01*
X169215Y-139167D02*
Y-135033D01*
Y-139167D02*
X171380D01*
X169215Y-135033D02*
X171380D01*
X175380Y-139167D02*
Y-135033D01*
X173215Y-139167D02*
Y-135033D01*
Y-139167D02*
X175380D01*
X173215Y-135033D02*
X175380D01*
X182215D02*
X184380D01*
X182215Y-139167D02*
X184380D01*
X182215D02*
Y-135033D01*
X184380Y-139167D02*
Y-135033D01*
X179880Y-139167D02*
Y-135033D01*
X177715Y-139167D02*
Y-135033D01*
Y-139167D02*
X179880D01*
X177715Y-135033D02*
X179880D01*
X201917Y-134433D02*
X204083D01*
X201917Y-138567D02*
X204083D01*
X201917D02*
Y-134433D01*
X204083Y-138567D02*
Y-134433D01*
X203567Y-129583D02*
Y-127417D01*
X199433Y-129583D02*
Y-127417D01*
X203567D01*
X199433Y-129583D02*
X203567D01*
X217256Y-213669D02*
X233595D01*
X217256Y-197330D02*
X233595D01*
Y-213669D02*
Y-197330D01*
X217256Y-213669D02*
Y-197330D01*
M02*
