G04*
G04 #@! TF.GenerationSoftware,Altium Limited,Altium Designer,24.5.2 (23)*
G04*
G04 Layer_Color=16711935*
%FSLAX25Y25*%
%MOIN*%
G70*
G04*
G04 #@! TF.SameCoordinates,EB8EEFDD-4660-4ED9-91F6-AAD8B6263AC5*
G04*
G04*
G04 #@! TF.FilePolarity,Positive*
G04*
G01*
G75*
%ADD12C,0.00787*%
G36*
X342261Y-234331D02*
X342305D01*
X342352Y-234334D01*
X342403Y-234338D01*
X342519Y-234349D01*
X342640Y-234367D01*
X342756Y-234389D01*
X342811Y-234404D01*
X342865Y-234422D01*
X342869D01*
X342876Y-234425D01*
X342891Y-234433D01*
X342909Y-234440D01*
X342934Y-234447D01*
X342960Y-234462D01*
X343022Y-234491D01*
X343087Y-234527D01*
X343160Y-234575D01*
X343226Y-234629D01*
X343287Y-234695D01*
Y-234699D01*
X343295Y-234702D01*
X343302Y-234713D01*
X343309Y-234728D01*
X343320Y-234746D01*
X343335Y-234764D01*
X343360Y-234819D01*
X343386Y-234884D01*
X343411Y-234961D01*
X343426Y-235052D01*
X343433Y-235150D01*
Y-235186D01*
X343429Y-235212D01*
X343426Y-235241D01*
X343419Y-235277D01*
X343411Y-235317D01*
X343400Y-235361D01*
X343386Y-235405D01*
X343371Y-235452D01*
X343349Y-235499D01*
X343324Y-235547D01*
X343295Y-235594D01*
X343258Y-235641D01*
X343218Y-235685D01*
X343175Y-235725D01*
X343171Y-235729D01*
X343160Y-235736D01*
X343142Y-235747D01*
X343113Y-235765D01*
X343080Y-235783D01*
X343036Y-235801D01*
X342985Y-235827D01*
X342927Y-235849D01*
X342862Y-235871D01*
X342785Y-235892D01*
X342702Y-235914D01*
X342607Y-235932D01*
X342505Y-235951D01*
X342396Y-235962D01*
X342276Y-235969D01*
X342148Y-235972D01*
X342145D01*
X342130D01*
X342105D01*
X342075D01*
X342035Y-235969D01*
X341992D01*
X341944Y-235965D01*
X341890Y-235962D01*
X341777Y-235951D01*
X341657Y-235932D01*
X341537Y-235911D01*
X341482Y-235896D01*
X341427Y-235881D01*
X341424D01*
X341417Y-235878D01*
X341402Y-235871D01*
X341384Y-235863D01*
X341358Y-235856D01*
X341333Y-235841D01*
X341271Y-235812D01*
X341205Y-235776D01*
X341136Y-235729D01*
X341067Y-235674D01*
X341009Y-235609D01*
Y-235605D01*
X341002Y-235601D01*
X340994Y-235590D01*
X340987Y-235576D01*
X340972Y-235558D01*
X340962Y-235536D01*
X340932Y-235481D01*
X340907Y-235416D01*
X340881Y-235339D01*
X340867Y-235248D01*
X340860Y-235150D01*
Y-235117D01*
X340863Y-235077D01*
X340871Y-235030D01*
X340881Y-234975D01*
X340896Y-234917D01*
X340914Y-234855D01*
X340943Y-234797D01*
Y-234793D01*
X340947Y-234789D01*
X340958Y-234771D01*
X340976Y-234742D01*
X341002Y-234706D01*
X341038Y-234666D01*
X341078Y-234622D01*
X341125Y-234582D01*
X341180Y-234542D01*
X341187Y-234538D01*
X341205Y-234524D01*
X341238Y-234509D01*
X341285Y-234484D01*
X341340Y-234462D01*
X341402Y-234433D01*
X341475Y-234407D01*
X341555Y-234385D01*
X341559D01*
X341566Y-234382D01*
X341577Y-234378D01*
X341595Y-234374D01*
X341617Y-234371D01*
X341642Y-234367D01*
X341675Y-234360D01*
X341711Y-234356D01*
X341751Y-234349D01*
X341795Y-234345D01*
X341846Y-234342D01*
X341897Y-234334D01*
X341955Y-234331D01*
X342014D01*
X342079Y-234327D01*
X342148D01*
X342152D01*
X342166D01*
X342192D01*
X342221D01*
X342261Y-234331D01*
D02*
G37*
G36*
X343389Y-237075D02*
X341420D01*
X341424Y-237079D01*
X341438Y-237097D01*
X341460Y-237119D01*
X341486Y-237156D01*
X341518Y-237196D01*
X341555Y-237246D01*
X341595Y-237305D01*
X341635Y-237370D01*
Y-237374D01*
X341639Y-237378D01*
X341653Y-237399D01*
X341671Y-237436D01*
X341693Y-237479D01*
X341719Y-237530D01*
X341744Y-237585D01*
X341770Y-237640D01*
X341792Y-237694D01*
X341493D01*
Y-237691D01*
X341486Y-237683D01*
X341482Y-237669D01*
X341471Y-237651D01*
X341460Y-237629D01*
X341446Y-237603D01*
X341409Y-237541D01*
X341369Y-237469D01*
X341318Y-237396D01*
X341260Y-237319D01*
X341198Y-237243D01*
X341195Y-237239D01*
X341191Y-237236D01*
X341180Y-237225D01*
X341169Y-237210D01*
X341133Y-237177D01*
X341089Y-237134D01*
X341038Y-237090D01*
X340980Y-237043D01*
X340921Y-237003D01*
X340860Y-236966D01*
Y-236766D01*
X343389D01*
Y-237075D01*
D02*
G37*
G36*
X342669Y-238353D02*
X342698D01*
X342767Y-238360D01*
X342847Y-238368D01*
X342931Y-238382D01*
X343007Y-238404D01*
X343080Y-238429D01*
X343084D01*
X343087Y-238433D01*
X343109Y-238444D01*
X343138Y-238462D01*
X343178Y-238488D01*
X343218Y-238524D01*
X343262Y-238564D01*
X343306Y-238615D01*
X343342Y-238673D01*
X343346Y-238681D01*
X343357Y-238703D01*
X343371Y-238735D01*
X343386Y-238783D01*
X343404Y-238841D01*
X343419Y-238906D01*
X343429Y-238979D01*
X343433Y-239059D01*
Y-239092D01*
X343429Y-239114D01*
X343426Y-239143D01*
X343422Y-239172D01*
X343408Y-239248D01*
X343386Y-239329D01*
X343353Y-239412D01*
X343331Y-239456D01*
X343306Y-239496D01*
X343277Y-239532D01*
X343244Y-239569D01*
X343240Y-239573D01*
X343237Y-239576D01*
X343222Y-239583D01*
X343207Y-239594D01*
X343189Y-239609D01*
X343164Y-239623D01*
X343135Y-239638D01*
X343102Y-239656D01*
X343066Y-239671D01*
X343022Y-239685D01*
X342978Y-239700D01*
X342927Y-239714D01*
X342873Y-239722D01*
X342811Y-239733D01*
X342749Y-239736D01*
X342680D01*
X342636Y-239434D01*
X342640D01*
X342647D01*
X342661D01*
X342683Y-239430D01*
X342705Y-239427D01*
X342731D01*
X342793Y-239416D01*
X342858Y-239405D01*
X342923Y-239383D01*
X342982Y-239361D01*
X343007Y-239347D01*
X343029Y-239329D01*
X343033Y-239325D01*
X343044Y-239310D01*
X343062Y-239288D01*
X343080Y-239259D01*
X343102Y-239219D01*
X343116Y-239176D01*
X343131Y-239121D01*
X343135Y-239063D01*
Y-239041D01*
X343131Y-239019D01*
X343127Y-238986D01*
X343120Y-238954D01*
X343113Y-238917D01*
X343098Y-238881D01*
X343080Y-238844D01*
X343076Y-238841D01*
X343069Y-238830D01*
X343055Y-238815D01*
X343040Y-238793D01*
X343015Y-238775D01*
X342989Y-238754D01*
X342960Y-238735D01*
X342923Y-238721D01*
X342920D01*
X342905Y-238713D01*
X342880Y-238710D01*
X342847Y-238703D01*
X342803Y-238695D01*
X342749Y-238692D01*
X342683Y-238684D01*
X342607D01*
X340871D01*
Y-238349D01*
X342589D01*
X342592D01*
X342603D01*
X342618D01*
X342640D01*
X342669Y-238353D01*
D02*
G37*
%LPC*%
G36*
X342261Y-234644D02*
X342148D01*
X342145D01*
X342141D01*
X342123D01*
X342090D01*
X342046Y-234648D01*
X341999D01*
X341941Y-234651D01*
X341879Y-234655D01*
X341810Y-234662D01*
X341671Y-234680D01*
X341602Y-234691D01*
X341537Y-234706D01*
X341475Y-234720D01*
X341417Y-234742D01*
X341366Y-234764D01*
X341322Y-234789D01*
X341318D01*
X341315Y-234797D01*
X341304Y-234804D01*
X341289Y-234815D01*
X341256Y-234848D01*
X341216Y-234888D01*
X341180Y-234942D01*
X341147Y-235004D01*
X341133Y-235037D01*
X341122Y-235073D01*
X341118Y-235114D01*
X341114Y-235154D01*
Y-235175D01*
X341118Y-235190D01*
X341125Y-235230D01*
X341136Y-235277D01*
X341158Y-235332D01*
X341191Y-235390D01*
X341213Y-235419D01*
X341235Y-235448D01*
X341264Y-235474D01*
X341296Y-235499D01*
X341300D01*
X341307Y-235507D01*
X341322Y-235514D01*
X341340Y-235525D01*
X341369Y-235536D01*
X341402Y-235550D01*
X341442Y-235561D01*
X341489Y-235576D01*
X341544Y-235590D01*
X341606Y-235605D01*
X341675Y-235619D01*
X341751Y-235630D01*
X341839Y-235641D01*
X341933Y-235648D01*
X342035Y-235652D01*
X342148Y-235656D01*
X342156D01*
X342174D01*
X342206D01*
X342250Y-235652D01*
X342297D01*
X342356Y-235648D01*
X342418Y-235645D01*
X342483Y-235638D01*
X342625Y-235619D01*
X342694Y-235609D01*
X342760Y-235594D01*
X342822Y-235579D01*
X342880Y-235558D01*
X342931Y-235536D01*
X342974Y-235510D01*
X342978D01*
X342982Y-235503D01*
X343007Y-235485D01*
X343040Y-235452D01*
X343076Y-235412D01*
X343113Y-235357D01*
X343146Y-235296D01*
X343171Y-235226D01*
X343175Y-235190D01*
X343178Y-235150D01*
Y-235128D01*
X343175Y-235114D01*
X343167Y-235077D01*
X343153Y-235026D01*
X343127Y-234971D01*
X343091Y-234910D01*
X343069Y-234880D01*
X343040Y-234851D01*
X343011Y-234822D01*
X342974Y-234793D01*
X342971D01*
X342964Y-234786D01*
X342953Y-234779D01*
X342934Y-234771D01*
X342909Y-234757D01*
X342876Y-234746D01*
X342840Y-234731D01*
X342796Y-234717D01*
X342741Y-234706D01*
X342683Y-234691D01*
X342614Y-234677D01*
X342541Y-234666D01*
X342454Y-234659D01*
X342363Y-234651D01*
X342261Y-234644D01*
D02*
G37*
%LPD*%
D12*
X331720Y-264539D02*
X355146D01*
Y-214933D01*
X331720D02*
X355146D01*
X331720Y-264539D02*
Y-214933D01*
M02*
