G04*
G04 #@! TF.GenerationSoftware,Altium Limited,Altium Designer,24.5.2 (23)*
G04*
G04 Layer_Physical_Order=1*
G04 Layer_Color=255*
%FSLAX25Y25*%
%MOIN*%
G70*
G04*
G04 #@! TF.SameCoordinates,EB8EEFDD-4660-4ED9-91F6-AAD8B6263AC5*
G04*
G04*
G04 #@! TF.FilePolarity,Positive*
G04*
G01*
G75*
%ADD10C,0.01000*%
%ADD12C,0.00787*%
%ADD13C,0.00500*%
%ADD16R,0.02598X0.02441*%
%ADD17R,0.03937X0.02362*%
%ADD18R,0.02441X0.02598*%
%ADD19R,0.07087X0.08268*%
%ADD20C,0.05979*%
%ADD21R,0.01654X0.02756*%
%ADD22R,0.02362X0.04528*%
%ADD23R,0.02559X0.02756*%
%ADD24R,0.02433X0.07182*%
G04:AMPARAMS|DCode=25|XSize=71.82mil|YSize=24.33mil|CornerRadius=12.17mil|HoleSize=0mil|Usage=FLASHONLY|Rotation=90.000|XOffset=0mil|YOffset=0mil|HoleType=Round|Shape=RoundedRectangle|*
%AMROUNDEDRECTD25*
21,1,0.07182,0.00000,0,0,90.0*
21,1,0.04749,0.02433,0,0,90.0*
1,1,0.02433,0.00000,0.02375*
1,1,0.02433,0.00000,-0.02375*
1,1,0.02433,0.00000,-0.02375*
1,1,0.02433,0.00000,0.02375*
%
%ADD25ROUNDEDRECTD25*%
%ADD27R,0.02756X0.02559*%
%ADD28R,0.02559X0.04331*%
%ADD29R,0.03583X0.04803*%
G04:AMPARAMS|DCode=30|XSize=9.06mil|YSize=23.62mil|CornerRadius=1.95mil|HoleSize=0mil|Usage=FLASHONLY|Rotation=270.000|XOffset=0mil|YOffset=0mil|HoleType=Round|Shape=RoundedRectangle|*
%AMROUNDEDRECTD30*
21,1,0.00906,0.01973,0,0,270.0*
21,1,0.00516,0.02362,0,0,270.0*
1,1,0.00389,-0.00986,-0.00258*
1,1,0.00389,-0.00986,0.00258*
1,1,0.00389,0.00986,0.00258*
1,1,0.00389,0.00986,-0.00258*
%
%ADD30ROUNDEDRECTD30*%
G04:AMPARAMS|DCode=31|XSize=9.06mil|YSize=23.62mil|CornerRadius=1.95mil|HoleSize=0mil|Usage=FLASHONLY|Rotation=180.000|XOffset=0mil|YOffset=0mil|HoleType=Round|Shape=RoundedRectangle|*
%AMROUNDEDRECTD31*
21,1,0.00906,0.01973,0,0,180.0*
21,1,0.00516,0.02362,0,0,180.0*
1,1,0.00389,-0.00258,0.00986*
1,1,0.00389,0.00258,0.00986*
1,1,0.00389,0.00258,-0.00986*
1,1,0.00389,-0.00258,-0.00986*
%
%ADD31ROUNDEDRECTD31*%
%ADD32R,0.03543X0.02756*%
%ADD33R,0.07874X0.14173*%
%ADD34R,0.22835X0.24410*%
%ADD35R,0.05315X0.03543*%
%ADD36R,0.01968X0.03937*%
%ADD37R,0.07480X0.09449*%
%ADD38R,0.02756X0.03543*%
%ADD39R,0.06102X0.07480*%
%ADD40R,0.05118X0.02362*%
%ADD41R,0.05906X0.09843*%
%ADD42R,0.27559X0.27559*%
%ADD43R,0.07480X0.06102*%
%ADD44R,0.02362X0.05118*%
%ADD76R,0.05512X0.05512*%
%ADD77C,0.05512*%
%ADD83C,0.06265*%
%ADD84C,0.06265*%
%ADD85R,0.06265X0.06265*%
%ADD86C,0.18399*%
%ADD94R,0.02362X0.02756*%
G04:AMPARAMS|DCode=95|XSize=163.39mil|YSize=163.39mil|CornerRadius=1.63mil|HoleSize=0mil|Usage=FLASHONLY|Rotation=180.000|XOffset=0mil|YOffset=0mil|HoleType=Round|Shape=RoundedRectangle|*
%AMROUNDEDRECTD95*
21,1,0.16339,0.16012,0,0,180.0*
21,1,0.16012,0.16339,0,0,180.0*
1,1,0.00327,-0.08006,0.08006*
1,1,0.00327,0.08006,0.08006*
1,1,0.00327,0.08006,-0.08006*
1,1,0.00327,-0.08006,-0.08006*
%
%ADD95ROUNDEDRECTD95*%
%ADD96C,0.00800*%
%ADD97C,0.00600*%
%ADD98C,0.01181*%
%ADD99C,0.01378*%
%ADD100C,0.00765*%
%ADD101C,0.02500*%
%ADD102C,0.10000*%
%ADD103C,0.01200*%
%ADD104C,0.05000*%
%ADD105C,0.01500*%
%ADD106C,0.02000*%
%ADD107C,0.01968*%
%ADD108R,0.02441X0.02441*%
%ADD109O,0.03543X0.07874*%
G04:AMPARAMS|DCode=110|XSize=37.4mil|YSize=37.4mil|CornerRadius=9.35mil|HoleSize=0mil|Usage=FLASHONLY|Rotation=270.000|XOffset=0mil|YOffset=0mil|HoleType=Round|Shape=RoundedRectangle|*
%AMROUNDEDRECTD110*
21,1,0.03740,0.01870,0,0,270.0*
21,1,0.01870,0.03740,0,0,270.0*
1,1,0.01870,-0.00935,-0.00935*
1,1,0.01870,-0.00935,0.00935*
1,1,0.01870,0.00935,0.00935*
1,1,0.01870,0.00935,-0.00935*
%
%ADD110ROUNDEDRECTD110*%
%ADD111C,0.03740*%
%ADD112C,0.09449*%
G04:AMPARAMS|DCode=113|XSize=94.49mil|YSize=94.49mil|CornerRadius=23.62mil|HoleSize=0mil|Usage=FLASHONLY|Rotation=270.000|XOffset=0mil|YOffset=0mil|HoleType=Round|Shape=RoundedRectangle|*
%AMROUNDEDRECTD113*
21,1,0.09449,0.04724,0,0,270.0*
21,1,0.04724,0.09449,0,0,270.0*
1,1,0.04724,-0.02362,-0.02362*
1,1,0.04724,-0.02362,0.02362*
1,1,0.04724,0.02362,0.02362*
1,1,0.04724,0.02362,-0.02362*
%
%ADD113ROUNDEDRECTD113*%
%ADD114C,0.19685*%
%ADD115R,0.09843X0.09843*%
%ADD116C,0.08000*%
%ADD117C,0.11024*%
%ADD118C,0.08268*%
%ADD119R,0.08268X0.08268*%
G04:AMPARAMS|DCode=120|XSize=62.99mil|YSize=161.42mil|CornerRadius=0mil|HoleSize=0mil|Usage=FLASHONLY|Rotation=45.000|XOffset=0mil|YOffset=0mil|HoleType=Round|Shape=Round|*
%AMOVALD120*
21,1,0.09843,0.06299,0.00000,0.00000,135.0*
1,1,0.06299,0.03480,-0.03480*
1,1,0.06299,-0.03480,0.03480*
%
%ADD120OVALD120*%

%ADD121O,0.06299X0.16142*%
%ADD122O,0.16142X0.06299*%
%ADD123R,0.05512X0.05512*%
%ADD124C,0.05400*%
%ADD125C,0.01968*%
G36*
X80000Y-20000D02*
X67500D01*
Y-3500D01*
X80000D01*
Y-20000D01*
D02*
G37*
G36*
X66932Y-20568D02*
X67193Y-20742D01*
X67500Y-20803D01*
X76500D01*
Y-21240D01*
X76224D01*
Y-25571D01*
X76500D01*
Y-28500D01*
X73893Y-31107D01*
X73567Y-30972D01*
Y-30972D01*
X69433D01*
Y-31500D01*
X69008D01*
Y-30913D01*
X64992D01*
Y-31508D01*
X64000Y-32500D01*
Y-36500D01*
X61500Y-39000D01*
X42500D01*
X41000Y-37500D01*
Y-26500D01*
X46197Y-21303D01*
X61724D01*
Y-25571D01*
X64839D01*
X64864Y-25596D01*
X65516Y-25866D01*
X66220D01*
X66872Y-25596D01*
X67370Y-25098D01*
X67640Y-24447D01*
Y-23742D01*
X67370Y-23091D01*
X66872Y-22593D01*
X66220Y-22323D01*
X65516D01*
X65280Y-22420D01*
X64953Y-22202D01*
Y-21240D01*
X64953Y-21240D01*
X64953D01*
X64883Y-20858D01*
X64893Y-20829D01*
X64907Y-20807D01*
X64919Y-20749D01*
X65000Y-20500D01*
X66887D01*
X66932Y-20568D01*
D02*
G37*
G36*
X156500Y-24500D02*
X250968Y-24500D01*
X251025Y-48500D01*
X525687Y-48500D01*
X525687Y-262094D01*
X525692Y-262115D01*
X525568Y-263051D01*
X525199Y-263942D01*
X524612Y-264707D01*
X523847Y-265294D01*
X522956Y-265663D01*
X522021Y-265786D01*
X522000Y-265782D01*
X4500D01*
X4492Y-265783D01*
X3674Y-265676D01*
X2905Y-265357D01*
X2244Y-264850D01*
X1737Y-264189D01*
X1419Y-263420D01*
X1311Y-262602D01*
X1313Y-262595D01*
Y-238094D01*
Y-106803D01*
X20000D01*
X20307Y-106742D01*
X20568Y-106568D01*
X20568Y-106568D01*
X24568Y-102568D01*
X24742Y-102307D01*
X24803Y-102000D01*
Y-24332D01*
X27832Y-21303D01*
X44547D01*
X44698Y-21667D01*
X40432Y-25932D01*
X40258Y-26193D01*
X40197Y-26500D01*
Y-37500D01*
X40258Y-37807D01*
X40432Y-38068D01*
X41932Y-39568D01*
X42193Y-39742D01*
X42500Y-39803D01*
X61500D01*
X61807Y-39742D01*
X62068Y-39568D01*
X62068Y-39568D01*
X64335Y-37301D01*
X64489Y-37321D01*
X64761Y-37431D01*
X64998Y-38004D01*
X65496Y-38502D01*
X66148Y-38772D01*
X66852D01*
X67504Y-38502D01*
X68002Y-38004D01*
X68272Y-37352D01*
Y-36648D01*
X68002Y-35996D01*
X67769Y-35763D01*
Y-35087D01*
X69008D01*
Y-34190D01*
X69433D01*
Y-35303D01*
X71202D01*
X71353Y-35667D01*
X71207Y-35813D01*
X70964Y-36177D01*
X70878Y-36606D01*
X70816Y-36965D01*
X69933D01*
Y-41295D01*
Y-45035D01*
Y-49295D01*
X74067D01*
Y-45035D01*
Y-41295D01*
Y-36965D01*
X74067D01*
X74212Y-36631D01*
X78632Y-32212D01*
X78632Y-32212D01*
X78875Y-31848D01*
X78960Y-31419D01*
Y-25571D01*
X79453D01*
Y-21240D01*
X77303D01*
Y-20803D01*
X80000D01*
X80307Y-20742D01*
X80568Y-20568D01*
X80742Y-20307D01*
X80803Y-20000D01*
Y-3500D01*
X80742Y-3193D01*
X80568Y-2932D01*
X80307Y-2758D01*
X80000Y-2697D01*
X67500D01*
X67193Y-2758D01*
X66932Y-2932D01*
X66758Y-3193D01*
X66697Y-3500D01*
Y-19697D01*
X65000D01*
X64968Y-19320D01*
Y-1313D01*
X140263D01*
X156500Y-24500D01*
D02*
G37*
G36*
X4500Y-1313D02*
X4500Y-1313D01*
X64165D01*
Y-10216D01*
Y-19075D01*
Y-20500D01*
X27500D01*
X24000Y-24000D01*
Y-102000D01*
X20000Y-106000D01*
X1313D01*
Y-4500D01*
X1311Y-4492D01*
X1419Y-3674D01*
X1737Y-2905D01*
X2244Y-2244D01*
X2905Y-1737D01*
X3674Y-1419D01*
X4492Y-1311D01*
X4500Y-1313D01*
D02*
G37*
%LPC*%
G36*
X49352Y-26228D02*
X48648D01*
X47996Y-26498D01*
X47498Y-26996D01*
X47228Y-27648D01*
Y-28352D01*
X47498Y-29004D01*
X47996Y-29502D01*
X48648Y-29772D01*
X49352D01*
X50004Y-29502D01*
X50502Y-29004D01*
X50772Y-28352D01*
Y-27648D01*
X50502Y-26996D01*
X50004Y-26498D01*
X49352Y-26228D01*
D02*
G37*
G36*
X92908Y-15949D02*
X92203D01*
X91552Y-16219D01*
X91054Y-16717D01*
X90784Y-17368D01*
Y-18031D01*
X90711Y-18134D01*
X90466Y-18335D01*
X86433D01*
Y-22665D01*
Y-26406D01*
X87248D01*
Y-27063D01*
X87203Y-27109D01*
X86984D01*
X86555Y-27194D01*
X86191Y-27438D01*
X86191Y-27438D01*
X85379Y-28250D01*
X85136Y-28614D01*
X85092Y-28831D01*
X83031D01*
Y-34933D01*
X89122D01*
X89582Y-35392D01*
Y-35818D01*
X89404Y-35996D01*
X89134Y-36648D01*
Y-37352D01*
X89404Y-38004D01*
X89902Y-38502D01*
X90316Y-38673D01*
X90237Y-39067D01*
X79291D01*
Y-45169D01*
X90709D01*
Y-44335D01*
X92500D01*
X92563Y-44323D01*
X92852D01*
X93119Y-44212D01*
X93183Y-44200D01*
X93237Y-44164D01*
X93504Y-44053D01*
X93708Y-43849D01*
X93762Y-43813D01*
X93798Y-43759D01*
X94002Y-43555D01*
X94112Y-43288D01*
X94148Y-43234D01*
X94161Y-43170D01*
X94272Y-42904D01*
Y-42615D01*
X94284Y-42551D01*
X94272Y-42488D01*
Y-42199D01*
X94161Y-41932D01*
X94148Y-41868D01*
X94112Y-41815D01*
X94002Y-41548D01*
X93798Y-41343D01*
X93762Y-41289D01*
X93708Y-41254D01*
X93504Y-41049D01*
X93237Y-40939D01*
X93183Y-40903D01*
X93119Y-40890D01*
X92852Y-40780D01*
X92563D01*
X92500Y-40767D01*
X90709D01*
Y-39165D01*
X90709Y-39067D01*
X90946Y-38772D01*
X91258D01*
X91909Y-38502D01*
X92407Y-38004D01*
X92677Y-37352D01*
Y-36648D01*
X92407Y-35996D01*
X91909Y-35498D01*
X91880Y-35486D01*
Y-34983D01*
X91880Y-34983D01*
X91795Y-34554D01*
X91552Y-34190D01*
X91552Y-34190D01*
X90709Y-33347D01*
Y-28831D01*
X89168D01*
X89017Y-28467D01*
X89163Y-28321D01*
X89163Y-28321D01*
X89406Y-27957D01*
X89492Y-27528D01*
X89492Y-27528D01*
Y-26406D01*
X90567D01*
Y-25622D01*
X96621D01*
X96957Y-25845D01*
Y-30594D01*
X97039Y-31008D01*
X96716Y-31402D01*
X93256D01*
Y-40159D01*
X94138D01*
Y-40728D01*
X94138Y-40728D01*
X94224Y-41157D01*
X94467Y-41521D01*
X95464Y-42519D01*
Y-45067D01*
X96865D01*
Y-45630D01*
X96923Y-45922D01*
X97089Y-46171D01*
X103235Y-52317D01*
Y-88399D01*
X102996Y-88498D01*
X102498Y-88996D01*
X102228Y-89648D01*
Y-90352D01*
X102498Y-91004D01*
X102996Y-91502D01*
X103648Y-91772D01*
X104352D01*
X105004Y-91502D01*
X105502Y-91004D01*
X105772Y-90352D01*
Y-89648D01*
X105502Y-88996D01*
X105004Y-88498D01*
X104765Y-88399D01*
Y-52000D01*
X104707Y-51707D01*
X104541Y-51459D01*
X101717Y-48635D01*
X101893Y-48255D01*
X102504Y-48002D01*
X103002Y-47504D01*
X103272Y-46852D01*
Y-46148D01*
X103002Y-45496D01*
X102936Y-45431D01*
X103087Y-45067D01*
X103535D01*
Y-43918D01*
X103963D01*
X103998Y-44004D01*
X104496Y-44502D01*
X105148Y-44772D01*
X105852D01*
X106504Y-44502D01*
X107002Y-44004D01*
X107272Y-43352D01*
Y-42648D01*
X107002Y-41996D01*
X106504Y-41498D01*
X105852Y-41228D01*
X105148D01*
X104496Y-41498D01*
X103998Y-41996D01*
X103963Y-42082D01*
X103535D01*
Y-40933D01*
X97051D01*
X96670Y-40552D01*
X96833Y-40159D01*
X97264D01*
Y-32257D01*
X97657Y-32107D01*
X98218Y-32482D01*
X99000Y-32637D01*
X99782Y-32482D01*
X100445Y-32039D01*
X100888Y-31376D01*
X101043Y-30594D01*
Y-25845D01*
X100888Y-25063D01*
X100445Y-24400D01*
X99782Y-23958D01*
X99000Y-23802D01*
X98340Y-23933D01*
X98114Y-23707D01*
X97750Y-23464D01*
X97321Y-23378D01*
X97321Y-23379D01*
X90567D01*
Y-22284D01*
X91272D01*
X91292Y-22298D01*
X91496Y-22502D01*
X91763Y-22613D01*
X91817Y-22648D01*
X91881Y-22661D01*
X92148Y-22772D01*
X92436D01*
X92500Y-22784D01*
X92563Y-22772D01*
X92852D01*
X93119Y-22661D01*
X93183Y-22648D01*
X93237Y-22613D01*
X93504Y-22502D01*
X93708Y-22298D01*
X93762Y-22262D01*
X93798Y-22208D01*
X94002Y-22004D01*
X94112Y-21737D01*
X94148Y-21683D01*
X94161Y-21619D01*
X94272Y-21352D01*
Y-21064D01*
X94284Y-21000D01*
X94272Y-20936D01*
Y-20648D01*
X94161Y-20381D01*
X94148Y-20317D01*
X94112Y-20263D01*
X94002Y-19996D01*
X93798Y-19792D01*
X93762Y-19738D01*
X93507Y-19484D01*
X93559Y-19223D01*
X94058Y-18724D01*
X94327Y-18073D01*
Y-17368D01*
X94058Y-16717D01*
X93559Y-16219D01*
X92908Y-15949D01*
D02*
G37*
G36*
X115067Y-15835D02*
X110933D01*
Y-20165D01*
X111052D01*
X111228Y-20429D01*
Y-21134D01*
X111052Y-21398D01*
X111031D01*
Y-25728D01*
X114969D01*
Y-21398D01*
X114948D01*
X114772Y-21134D01*
Y-20429D01*
X114948Y-20165D01*
X115067D01*
Y-15835D01*
D02*
G37*
G36*
X112852Y-26228D02*
X112148D01*
X111496Y-26498D01*
X110998Y-26996D01*
X110728Y-27648D01*
Y-28352D01*
X110946Y-28878D01*
X110784Y-29207D01*
X110715Y-29272D01*
X108392D01*
X108195Y-29075D01*
X107898Y-28876D01*
X107546Y-28806D01*
X107130D01*
X107002Y-28496D01*
X106504Y-27998D01*
X105852Y-27728D01*
X105148D01*
X104496Y-27998D01*
X103998Y-28496D01*
X103728Y-29148D01*
Y-29852D01*
X103998Y-30504D01*
X104496Y-31002D01*
X105148Y-31272D01*
X105852D01*
X106504Y-31002D01*
X106864Y-30641D01*
X107166D01*
X107291Y-30766D01*
Y-33602D01*
X111189D01*
X111228Y-33602D01*
X111582Y-33698D01*
Y-117963D01*
X111496Y-117998D01*
X110998Y-118496D01*
X110728Y-119148D01*
Y-119852D01*
X110998Y-120504D01*
X111496Y-121002D01*
X112148Y-121272D01*
X112852D01*
X113504Y-121002D01*
X114002Y-120504D01*
X114272Y-119852D01*
Y-119148D01*
X114002Y-118496D01*
X113504Y-117998D01*
X113418Y-117963D01*
Y-29537D01*
X113504Y-29502D01*
X114002Y-29004D01*
X114272Y-28352D01*
Y-27648D01*
X114002Y-26996D01*
X113504Y-26498D01*
X112852Y-26228D01*
D02*
G37*
G36*
X145299Y-25394D02*
X140181D01*
Y-29724D01*
X145299D01*
Y-29567D01*
X153035D01*
X153035Y-29567D01*
Y-29567D01*
X153376Y-29709D01*
X153498Y-30004D01*
X153996Y-30502D01*
X154648Y-30772D01*
X155352D01*
X156004Y-30502D01*
X156502Y-30004D01*
X156772Y-29352D01*
Y-28648D01*
X156502Y-27996D01*
X156004Y-27498D01*
X155352Y-27228D01*
X154648D01*
X154077Y-27465D01*
X154063Y-27462D01*
X153035D01*
Y-25433D01*
X145299D01*
Y-25394D01*
D02*
G37*
G36*
X118709Y-29272D02*
X114772D01*
Y-33602D01*
X118709D01*
Y-33229D01*
X119102Y-33046D01*
X119648Y-33272D01*
X120352D01*
X121004Y-33002D01*
X121502Y-32504D01*
X121772Y-31852D01*
Y-31148D01*
X121502Y-30496D01*
X121004Y-29998D01*
X120352Y-29728D01*
X119648D01*
X119102Y-29954D01*
X118709Y-29771D01*
Y-29272D01*
D02*
G37*
G36*
X161352Y-36728D02*
X160648D01*
X159996Y-36998D01*
X159498Y-37496D01*
X159228Y-38148D01*
Y-38852D01*
X159498Y-39504D01*
X159996Y-40002D01*
X160648Y-40272D01*
X161352D01*
X162004Y-40002D01*
X162502Y-39504D01*
X162772Y-38852D01*
Y-38148D01*
X162502Y-37496D01*
X162004Y-36998D01*
X161352Y-36728D01*
D02*
G37*
G36*
X229852Y-42728D02*
X229148D01*
X228496Y-42998D01*
X227998Y-43496D01*
X227728Y-44148D01*
Y-44852D01*
X227998Y-45504D01*
X228496Y-46002D01*
X229148Y-46272D01*
X229852D01*
X230504Y-46002D01*
X231002Y-45504D01*
X231272Y-44852D01*
Y-44148D01*
X231002Y-43496D01*
X230504Y-42998D01*
X229852Y-42728D01*
D02*
G37*
G36*
X241352Y-46728D02*
X240648D01*
X239996Y-46998D01*
X239498Y-47496D01*
X239228Y-48148D01*
Y-48852D01*
X239498Y-49504D01*
X239996Y-50002D01*
X240648Y-50272D01*
X241352D01*
X242004Y-50002D01*
X242502Y-49504D01*
X242772Y-48852D01*
Y-48148D01*
X242502Y-47496D01*
X242004Y-46998D01*
X241352Y-46728D01*
D02*
G37*
G36*
X51028Y-42469D02*
X41972D01*
Y-50146D01*
X43974D01*
Y-52500D01*
X44077Y-53283D01*
X44379Y-54013D01*
X44860Y-54640D01*
X45487Y-55120D01*
X46217Y-55423D01*
X47000Y-55526D01*
X47783Y-55423D01*
X48513Y-55120D01*
X49140Y-54640D01*
X49621Y-54013D01*
X49923Y-53283D01*
X50026Y-52500D01*
Y-50146D01*
X51028D01*
Y-42469D01*
D02*
G37*
G36*
X151543Y-51957D02*
X144457D01*
Y-59043D01*
X151543D01*
Y-51957D01*
D02*
G37*
G36*
X127518Y-8812D02*
X126600D01*
X125713Y-9049D01*
X124918Y-9509D01*
X124268Y-10158D01*
X123809Y-10953D01*
X123572Y-11840D01*
Y-12758D01*
X123809Y-13645D01*
X124268Y-14441D01*
X124918Y-15090D01*
X125275Y-15296D01*
Y-21591D01*
X125411Y-22273D01*
X125797Y-22852D01*
X128433Y-25488D01*
Y-27295D01*
Y-31035D01*
X128686D01*
Y-32959D01*
X127238Y-34407D01*
X126600D01*
X125713Y-34645D01*
X124918Y-35104D01*
X124268Y-35753D01*
X123809Y-36548D01*
X123572Y-37435D01*
Y-38354D01*
X123809Y-39241D01*
X124268Y-40036D01*
X124918Y-40685D01*
X125713Y-41144D01*
X126600Y-41382D01*
X127518D01*
X128405Y-41144D01*
X129200Y-40685D01*
X129850Y-40036D01*
X130309Y-39241D01*
X130546Y-38354D01*
Y-37435D01*
X130309Y-36548D01*
X130248Y-36444D01*
X131732Y-34960D01*
X131732Y-34960D01*
X131893Y-34719D01*
X132353Y-34645D01*
X132589Y-34833D01*
Y-71960D01*
X132496Y-71998D01*
X131998Y-72496D01*
X131728Y-73148D01*
Y-73852D01*
X131998Y-74504D01*
X132496Y-75002D01*
X133148Y-75272D01*
X133852D01*
X134504Y-75002D01*
X135002Y-74504D01*
X135272Y-73852D01*
Y-73148D01*
X135002Y-72496D01*
X134504Y-71998D01*
X134411Y-71960D01*
Y-57158D01*
X134805Y-57052D01*
X135165Y-57676D01*
X135824Y-58335D01*
X136632Y-58802D01*
X137533Y-59043D01*
X138467D01*
X139368Y-58802D01*
X140176Y-58335D01*
X140835Y-57676D01*
X141302Y-56868D01*
X141543Y-55967D01*
Y-55033D01*
X141302Y-54132D01*
X140835Y-53324D01*
X140176Y-52665D01*
X139368Y-52198D01*
X138918Y-52078D01*
Y-45272D01*
X139352D01*
X140004Y-45002D01*
X140502Y-44504D01*
X140772Y-43852D01*
Y-43148D01*
X140502Y-42496D01*
X140004Y-41998D01*
X139352Y-41728D01*
X138648D01*
X137996Y-41998D01*
X137498Y-42496D01*
X137228Y-43148D01*
Y-43852D01*
X137275Y-43965D01*
X137152Y-44149D01*
X137082Y-44500D01*
Y-52078D01*
X136632Y-52198D01*
X135824Y-52665D01*
X135165Y-53324D01*
X134805Y-53948D01*
X134411Y-53842D01*
Y-34540D01*
X134504Y-34502D01*
X135002Y-34004D01*
X135272Y-33352D01*
Y-32648D01*
X135002Y-31996D01*
X134504Y-31498D01*
X133852Y-31228D01*
X133148D01*
X132990Y-31294D01*
X132568Y-31042D01*
X132567Y-31035D01*
X132567D01*
Y-27504D01*
X132701Y-27165D01*
X137819D01*
Y-22835D01*
X132701D01*
Y-22835D01*
X132567Y-22965D01*
X130956D01*
X128843Y-20852D01*
Y-15296D01*
X129200Y-15090D01*
X129850Y-14441D01*
X130309Y-13645D01*
X130546Y-12758D01*
Y-11840D01*
X130309Y-10953D01*
X129850Y-10158D01*
X129200Y-9509D01*
X128405Y-9049D01*
X127518Y-8812D01*
D02*
G37*
G36*
X128466Y-51957D02*
X127533D01*
X126632Y-52198D01*
X125824Y-52665D01*
X125165Y-53324D01*
X124698Y-54132D01*
X124457Y-55033D01*
Y-55967D01*
X124698Y-56868D01*
X125165Y-57676D01*
X125824Y-58335D01*
X126632Y-58802D01*
X127533Y-59043D01*
X128466D01*
X129368Y-58802D01*
X130176Y-58335D01*
X130835Y-57676D01*
X131302Y-56868D01*
X131543Y-55967D01*
Y-55033D01*
X131302Y-54132D01*
X130835Y-53324D01*
X130176Y-52665D01*
X129368Y-52198D01*
X128466Y-51957D01*
D02*
G37*
G36*
X229852Y-56728D02*
X229148D01*
X228496Y-56998D01*
X227998Y-57496D01*
X227728Y-58148D01*
Y-58852D01*
X227998Y-59504D01*
X228496Y-60002D01*
X229148Y-60272D01*
X229852D01*
X230504Y-60002D01*
X231002Y-59504D01*
X231272Y-58852D01*
Y-58148D01*
X231002Y-57496D01*
X230504Y-56998D01*
X229852Y-56728D01*
D02*
G37*
G36*
X154000Y-36216D02*
X153937Y-36228D01*
X153648D01*
X153381Y-36339D01*
X153317Y-36351D01*
X153263Y-36388D01*
X152996Y-36498D01*
X152792Y-36702D01*
X152738Y-36738D01*
X152702Y-36792D01*
X152498Y-36996D01*
X152387Y-37263D01*
X152351Y-37317D01*
X152339Y-37381D01*
X152228Y-37648D01*
Y-37936D01*
X152216Y-38000D01*
X152228Y-38063D01*
Y-38352D01*
X152339Y-38619D01*
X152351Y-38683D01*
X152387Y-38737D01*
X152498Y-39004D01*
X152702Y-39208D01*
X152716Y-39228D01*
Y-63297D01*
X152296Y-63716D01*
X151061D01*
X150835Y-63324D01*
X150176Y-62665D01*
X149368Y-62198D01*
X148467Y-61957D01*
X147534D01*
X146632Y-62198D01*
X145824Y-62665D01*
X145165Y-63324D01*
X144698Y-64132D01*
X144457Y-65034D01*
Y-65910D01*
X133858Y-76509D01*
X133658Y-76809D01*
X133565D01*
X132893Y-76942D01*
X132323Y-77323D01*
X131942Y-77893D01*
X131809Y-78565D01*
Y-80435D01*
X131942Y-81107D01*
X132323Y-81677D01*
X132893Y-82057D01*
X133565Y-82191D01*
X135435D01*
X136107Y-82057D01*
X136677Y-81677D01*
X136976Y-81230D01*
X137168Y-81182D01*
X137354Y-81176D01*
X137436Y-81195D01*
X137868Y-81626D01*
X138121Y-81773D01*
Y-82227D01*
X137868Y-82373D01*
X137373Y-82868D01*
X137024Y-83474D01*
X136843Y-84150D01*
Y-84850D01*
X137024Y-85526D01*
X137373Y-86132D01*
X137868Y-86626D01*
X138121Y-86773D01*
Y-87227D01*
X137868Y-87374D01*
X137373Y-87868D01*
X137024Y-88474D01*
X136843Y-89150D01*
Y-89850D01*
X137024Y-90526D01*
X137373Y-91132D01*
X137868Y-91627D01*
X138121Y-91773D01*
Y-92227D01*
X137868Y-92374D01*
X137373Y-92868D01*
X137024Y-93474D01*
X136843Y-94150D01*
Y-94850D01*
X137024Y-95526D01*
X137373Y-96132D01*
X137868Y-96627D01*
X138121Y-96773D01*
Y-97227D01*
X137868Y-97373D01*
X137373Y-97868D01*
X137024Y-98474D01*
X136843Y-99150D01*
Y-99850D01*
X137024Y-100526D01*
X137373Y-101132D01*
X137868Y-101627D01*
X138474Y-101976D01*
X139150Y-102157D01*
X139850D01*
X140526Y-101976D01*
X141132Y-101627D01*
X141627Y-101132D01*
X141976Y-100526D01*
X142157Y-99850D01*
Y-99150D01*
X141976Y-98474D01*
X141627Y-97868D01*
X141132Y-97373D01*
X140878Y-97227D01*
Y-96773D01*
X141132Y-96627D01*
X141627Y-96132D01*
X141976Y-95526D01*
X142157Y-94850D01*
Y-94150D01*
X141976Y-93474D01*
X141627Y-92868D01*
X141132Y-92374D01*
X140878Y-92227D01*
Y-91773D01*
X141132Y-91627D01*
X141627Y-91132D01*
X141976Y-90526D01*
X142157Y-89850D01*
Y-89150D01*
X141976Y-88474D01*
X141627Y-87868D01*
X141132Y-87374D01*
X140878Y-87227D01*
Y-86773D01*
X141132Y-86626D01*
X141627Y-86132D01*
X141976Y-85526D01*
X142157Y-84850D01*
Y-84150D01*
X141976Y-83474D01*
X141627Y-82868D01*
X141132Y-82373D01*
X140878Y-82227D01*
Y-81773D01*
X141132Y-81626D01*
X141627Y-81132D01*
X141976Y-80526D01*
X142157Y-79850D01*
Y-79150D01*
X141976Y-78474D01*
X141627Y-77868D01*
X141132Y-77373D01*
X140526Y-77024D01*
X139850Y-76842D01*
X139150D01*
X139120Y-76851D01*
X138916Y-76498D01*
X146619Y-68794D01*
X146632Y-68802D01*
X147534Y-69043D01*
X148467D01*
X149368Y-68802D01*
X150176Y-68335D01*
X150835Y-67676D01*
X151061Y-67284D01*
X152716D01*
Y-97000D01*
X152728Y-97063D01*
Y-97352D01*
X152839Y-97619D01*
X152851Y-97683D01*
X152887Y-97737D01*
X152998Y-98004D01*
X153202Y-98208D01*
X153238Y-98262D01*
X157666Y-102689D01*
Y-138000D01*
X157678Y-138064D01*
Y-138352D01*
X157789Y-138619D01*
X157801Y-138683D01*
X157837Y-138737D01*
X157948Y-139004D01*
X158152Y-139208D01*
X158188Y-139262D01*
X158242Y-139298D01*
X158446Y-139502D01*
X158713Y-139612D01*
X158767Y-139648D01*
X158831Y-139661D01*
X159098Y-139772D01*
X159387D01*
X159450Y-139784D01*
X159513Y-139772D01*
X159802D01*
X160069Y-139661D01*
X160133Y-139648D01*
X160187Y-139612D01*
X160454Y-139502D01*
X160658Y-139298D01*
X160712Y-139262D01*
X160748Y-139208D01*
X160952Y-139004D01*
X161063Y-138737D01*
X161099Y-138683D01*
X161111Y-138619D01*
X161222Y-138352D01*
Y-138064D01*
X161234Y-138000D01*
Y-101950D01*
X161234Y-101950D01*
X161099Y-101267D01*
X160712Y-100688D01*
X160712Y-100688D01*
X159689Y-99665D01*
X159852Y-99272D01*
X160352D01*
X161004Y-99002D01*
X161502Y-98504D01*
X161772Y-97852D01*
Y-97148D01*
X161502Y-96496D01*
X161004Y-95998D01*
X160352Y-95728D01*
X159648D01*
X158996Y-95998D01*
X158498Y-96496D01*
X158228Y-97148D01*
Y-97648D01*
X157835Y-97811D01*
X156284Y-96261D01*
Y-64035D01*
Y-38500D01*
X156284Y-38500D01*
X156149Y-37817D01*
X155762Y-37238D01*
X155762Y-37238D01*
X155262Y-36738D01*
X155208Y-36702D01*
X155004Y-36498D01*
X154737Y-36388D01*
X154683Y-36351D01*
X154619Y-36339D01*
X154352Y-36228D01*
X154063D01*
X154000Y-36216D01*
D02*
G37*
G36*
X219352Y-61728D02*
X218648D01*
X217996Y-61998D01*
X217498Y-62496D01*
X217228Y-63148D01*
Y-63852D01*
X217264Y-63938D01*
X215867Y-65335D01*
X215668Y-65633D01*
X215598Y-65984D01*
Y-103907D01*
X215204Y-103985D01*
X215002Y-103496D01*
X214504Y-102998D01*
X213852Y-102728D01*
X213148D01*
X212496Y-102998D01*
X211998Y-103496D01*
X211728Y-104148D01*
Y-104852D01*
X211998Y-105504D01*
X212496Y-106002D01*
X213148Y-106272D01*
X213852D01*
X214504Y-106002D01*
X215002Y-105504D01*
X215204Y-105015D01*
X215598Y-105093D01*
Y-112592D01*
X215668Y-112943D01*
X215867Y-113241D01*
X216082Y-113456D01*
Y-158463D01*
X215996Y-158498D01*
X215498Y-158996D01*
X215228Y-159648D01*
Y-160352D01*
X215498Y-161004D01*
X215996Y-161502D01*
X216648Y-161772D01*
X217352D01*
X218004Y-161502D01*
X218502Y-161004D01*
X218772Y-160352D01*
Y-159648D01*
X218502Y-158996D01*
X218004Y-158498D01*
X217918Y-158463D01*
Y-113076D01*
X217848Y-112725D01*
X217649Y-112427D01*
X217433Y-112212D01*
Y-108902D01*
X217827Y-108639D01*
X218148Y-108772D01*
X218852D01*
X219504Y-108502D01*
X220002Y-108004D01*
X220272Y-107352D01*
Y-106648D01*
X220002Y-105996D01*
X219504Y-105498D01*
X218852Y-105228D01*
X218148D01*
X217827Y-105361D01*
X217433Y-105098D01*
Y-66364D01*
X218562Y-65236D01*
X218648Y-65272D01*
X219352D01*
X220004Y-65002D01*
X220502Y-64504D01*
X220772Y-63852D01*
Y-63148D01*
X220502Y-62496D01*
X220004Y-61998D01*
X219352Y-61728D01*
D02*
G37*
G36*
X89896Y-47465D02*
X88222D01*
X86570Y-47726D01*
X84979Y-48243D01*
X83488Y-49003D01*
X82134Y-49986D01*
X80951Y-51170D01*
X79967Y-52523D01*
X79208Y-54014D01*
X78691Y-55605D01*
X78429Y-57258D01*
Y-58931D01*
X78691Y-60584D01*
X79208Y-62175D01*
X79967Y-63666D01*
X80951Y-65019D01*
X82134Y-66202D01*
X83488Y-67186D01*
X84979Y-67946D01*
X86570Y-68463D01*
X88222Y-68724D01*
X89896D01*
X91548Y-68463D01*
X93139Y-67946D01*
X94630Y-67186D01*
X95984Y-66202D01*
X97167Y-65019D01*
X98151Y-63666D01*
X98910Y-62175D01*
X99427Y-60584D01*
X99689Y-58931D01*
Y-57258D01*
X99427Y-55605D01*
X98910Y-54014D01*
X98151Y-52523D01*
X97167Y-51170D01*
X95984Y-49986D01*
X94630Y-49003D01*
X93139Y-48243D01*
X91548Y-47726D01*
X89896Y-47465D01*
D02*
G37*
G36*
X246133Y-70338D02*
X245429D01*
X244778Y-70608D01*
X244279Y-71106D01*
X244009Y-71757D01*
Y-72462D01*
X244279Y-73113D01*
X244778Y-73612D01*
X245429Y-73882D01*
X246133D01*
X246785Y-73612D01*
X247283Y-73113D01*
X247553Y-72462D01*
Y-71757D01*
X247283Y-71106D01*
X246785Y-70608D01*
X246133Y-70338D01*
D02*
G37*
G36*
X160852Y-74228D02*
X160148D01*
X159496Y-74498D01*
X158998Y-74996D01*
X158728Y-75648D01*
Y-76352D01*
X158998Y-77004D01*
X159496Y-77502D01*
X160148Y-77772D01*
X160852D01*
X161504Y-77502D01*
X162002Y-77004D01*
X162272Y-76352D01*
Y-75648D01*
X162002Y-74996D01*
X161504Y-74498D01*
X160852Y-74228D01*
D02*
G37*
G36*
X181852Y-51728D02*
X181148D01*
X180496Y-51998D01*
X179998Y-52496D01*
X179728Y-53148D01*
Y-53852D01*
X179998Y-54504D01*
X180496Y-55002D01*
X180582Y-55037D01*
Y-77962D01*
X180496Y-77998D01*
X179998Y-78496D01*
X179728Y-79148D01*
Y-79852D01*
X179998Y-80504D01*
X180496Y-81002D01*
X181148Y-81272D01*
X181852D01*
X182504Y-81002D01*
X183002Y-80504D01*
X183272Y-79852D01*
Y-79148D01*
X183002Y-78496D01*
X182504Y-77998D01*
X182418Y-77962D01*
Y-55037D01*
X182504Y-55002D01*
X183002Y-54504D01*
X183272Y-53852D01*
Y-53148D01*
X183002Y-52496D01*
X182504Y-51998D01*
X181852Y-51728D01*
D02*
G37*
G36*
X159865Y-82598D02*
X159160D01*
X158509Y-82868D01*
X158011Y-83366D01*
X157741Y-84017D01*
Y-84722D01*
X158011Y-85373D01*
X158509Y-85872D01*
X159160Y-86142D01*
X159865D01*
X160516Y-85872D01*
X161014Y-85373D01*
X161284Y-84722D01*
Y-84017D01*
X161014Y-83366D01*
X160516Y-82868D01*
X159865Y-82598D01*
D02*
G37*
G36*
X174852Y-62228D02*
X174148D01*
X173496Y-62498D01*
X172998Y-62996D01*
X172728Y-63648D01*
Y-64352D01*
X172998Y-65004D01*
X173496Y-65502D01*
X173582Y-65538D01*
Y-86431D01*
X173536Y-86450D01*
X173038Y-86949D01*
X172768Y-87600D01*
Y-88305D01*
X173038Y-88956D01*
X173536Y-89454D01*
X174187Y-89724D01*
X174892D01*
X175543Y-89454D01*
X176042Y-88956D01*
X176311Y-88305D01*
Y-87600D01*
X176042Y-86949D01*
X175543Y-86450D01*
X175418Y-86398D01*
Y-65538D01*
X175504Y-65502D01*
X176002Y-65004D01*
X176272Y-64352D01*
Y-63648D01*
X176002Y-62996D01*
X175504Y-62498D01*
X174852Y-62228D01*
D02*
G37*
G36*
X184352Y-86728D02*
X183648D01*
X182996Y-86998D01*
X182498Y-87496D01*
X182228Y-88148D01*
Y-88852D01*
X182498Y-89504D01*
X182996Y-90002D01*
X183648Y-90272D01*
X184352D01*
X185004Y-90002D01*
X185502Y-89504D01*
X185772Y-88852D01*
Y-88148D01*
X185502Y-87496D01*
X185004Y-86998D01*
X184352Y-86728D01*
D02*
G37*
G36*
X189678Y-87264D02*
X188973D01*
X188322Y-87534D01*
X187823Y-88033D01*
X187554Y-88684D01*
Y-89389D01*
X187823Y-90040D01*
X188322Y-90538D01*
X188973Y-90808D01*
X189678D01*
X190329Y-90538D01*
X190827Y-90040D01*
X191097Y-89389D01*
Y-88684D01*
X190827Y-88033D01*
X190329Y-87534D01*
X189678Y-87264D01*
D02*
G37*
G36*
X178352Y-57228D02*
X177648D01*
X176996Y-57498D01*
X176498Y-57996D01*
X176228Y-58648D01*
Y-59352D01*
X176498Y-60004D01*
X176996Y-60502D01*
X177082Y-60537D01*
Y-89463D01*
X176996Y-89498D01*
X176498Y-89996D01*
X176228Y-90648D01*
Y-91352D01*
X176498Y-92004D01*
X176996Y-92502D01*
X177648Y-92772D01*
X178352D01*
X179004Y-92502D01*
X179502Y-92004D01*
X179772Y-91352D01*
Y-90648D01*
X179502Y-89996D01*
X179004Y-89498D01*
X178918Y-89463D01*
Y-60537D01*
X179004Y-60502D01*
X179502Y-60004D01*
X179772Y-59352D01*
Y-58648D01*
X179502Y-57996D01*
X179004Y-57498D01*
X178352Y-57228D01*
D02*
G37*
G36*
X352500Y-69197D02*
X352193Y-69258D01*
X351932Y-69432D01*
X351932Y-69432D01*
X350682Y-70682D01*
X350508Y-70943D01*
X350447Y-71250D01*
Y-89750D01*
X350447Y-89750D01*
X350508Y-90057D01*
X350682Y-90318D01*
X350682Y-90318D01*
X352932Y-92568D01*
X353193Y-92742D01*
X353500Y-92803D01*
X359500D01*
X359807Y-92742D01*
X360068Y-92568D01*
X360068Y-92568D01*
X361068Y-91568D01*
X361242Y-91307D01*
X361303Y-91000D01*
Y-83008D01*
X361242Y-82701D01*
X361068Y-82440D01*
X360948Y-82361D01*
Y-79640D01*
X361068Y-79560D01*
X361242Y-79299D01*
X361303Y-78992D01*
Y-78508D01*
X361242Y-78201D01*
X361068Y-77940D01*
X360948Y-77860D01*
Y-75139D01*
X361068Y-75060D01*
X361242Y-74799D01*
X361303Y-74492D01*
Y-74008D01*
X361242Y-73701D01*
X361068Y-73440D01*
X360948Y-73361D01*
Y-70000D01*
X360887Y-69693D01*
X360713Y-69432D01*
X360453Y-69258D01*
X360146Y-69197D01*
X352500D01*
X352500Y-69197D01*
D02*
G37*
G36*
X348342Y-74245D02*
X339878D01*
Y-93733D01*
X348342D01*
Y-74245D01*
D02*
G37*
G36*
X274352Y-93728D02*
X273648D01*
X272996Y-93998D01*
X272516Y-94479D01*
X272035Y-93998D01*
X271384Y-93728D01*
X270679D01*
X270028Y-93998D01*
X269530Y-94496D01*
X269260Y-95148D01*
Y-95852D01*
X269530Y-96504D01*
X270028Y-97002D01*
X270132Y-97045D01*
Y-123398D01*
X270200Y-123742D01*
X270395Y-124034D01*
X271252Y-124891D01*
Y-151718D01*
X263364Y-159606D01*
X263169Y-159898D01*
X263100Y-160242D01*
Y-232788D01*
X263169Y-233133D01*
X263364Y-233425D01*
X278436Y-248497D01*
X278728Y-248692D01*
X279072Y-248760D01*
X283853D01*
X283988Y-248895D01*
X284280Y-249090D01*
X284492Y-249132D01*
Y-252064D01*
X284098Y-252142D01*
X283893Y-251646D01*
X283483Y-251112D01*
X282948Y-250701D01*
X282325Y-250444D01*
X281657Y-250356D01*
X280989Y-250444D01*
X280367Y-250701D01*
X279832Y-251112D01*
X279422Y-251646D01*
X279164Y-252269D01*
X279076Y-252937D01*
Y-257267D01*
X279164Y-257935D01*
X279422Y-258558D01*
X279832Y-259092D01*
X280367Y-259503D01*
X280989Y-259760D01*
X281657Y-259848D01*
X282325Y-259760D01*
X282948Y-259503D01*
X283483Y-259092D01*
X283893Y-258558D01*
X284098Y-258062D01*
X284492Y-258140D01*
Y-258291D01*
X288508D01*
Y-257812D01*
X290004D01*
Y-258291D01*
X294019D01*
Y-258140D01*
X294413Y-258061D01*
X294619Y-258558D01*
X295029Y-259092D01*
X295564Y-259503D01*
X296186Y-259760D01*
X296854Y-259848D01*
X297522Y-259760D01*
X298145Y-259503D01*
X298679Y-259092D01*
X299090Y-258558D01*
X299347Y-257935D01*
X299435Y-257267D01*
Y-252937D01*
X299347Y-252269D01*
X299090Y-251646D01*
X298679Y-251112D01*
X298145Y-250701D01*
X297522Y-250444D01*
X296854Y-250356D01*
X296186Y-250444D01*
X295564Y-250701D01*
X295029Y-251112D01*
X294619Y-251646D01*
X294413Y-252143D01*
X294019Y-252064D01*
Y-247464D01*
Y-242392D01*
X294413Y-242313D01*
X294619Y-242810D01*
X295029Y-243344D01*
X295564Y-243755D01*
X296186Y-244012D01*
X296854Y-244100D01*
X297522Y-244012D01*
X298145Y-243755D01*
X298679Y-243344D01*
X299090Y-242810D01*
X299347Y-242187D01*
X299435Y-241519D01*
Y-237189D01*
X299347Y-236521D01*
X299090Y-235898D01*
X298679Y-235364D01*
X298145Y-234953D01*
X297522Y-234696D01*
X296854Y-234608D01*
X296186Y-234696D01*
X295564Y-234953D01*
X295029Y-235364D01*
X294619Y-235898D01*
X294413Y-236395D01*
X294019Y-236316D01*
Y-236165D01*
X290004D01*
Y-236643D01*
X288508D01*
Y-236165D01*
X284492D01*
Y-236316D01*
X284098Y-236394D01*
X283893Y-235898D01*
X283483Y-235364D01*
X282948Y-234953D01*
X282325Y-234696D01*
X281657Y-234608D01*
X280989Y-234696D01*
X280367Y-234953D01*
X279832Y-235364D01*
X279422Y-235898D01*
X279164Y-236521D01*
X279076Y-237189D01*
Y-241519D01*
X279164Y-242187D01*
X279422Y-242810D01*
X279832Y-243344D01*
X280367Y-243755D01*
X280989Y-244012D01*
X281657Y-244100D01*
X282325Y-244012D01*
X282948Y-243755D01*
X283483Y-243344D01*
X283893Y-242810D01*
X284098Y-242314D01*
X284492Y-242392D01*
Y-245324D01*
X284280Y-245366D01*
X283988Y-245561D01*
X283853Y-245696D01*
X279968D01*
X266164Y-231892D01*
Y-161139D01*
X274053Y-153250D01*
X274248Y-152959D01*
X274316Y-152614D01*
Y-97272D01*
X274352D01*
X275004Y-97002D01*
X275502Y-96504D01*
X275772Y-95852D01*
Y-95148D01*
X275502Y-94496D01*
X275004Y-93998D01*
X274352Y-93728D01*
D02*
G37*
G36*
X410136Y-92204D02*
X409431D01*
X408780Y-92473D01*
X408281Y-92972D01*
X408012Y-93623D01*
Y-94328D01*
X408281Y-94979D01*
X408780Y-95477D01*
X409431Y-95747D01*
X410136D01*
X410787Y-95477D01*
X411285Y-94979D01*
X411555Y-94328D01*
Y-93623D01*
X411285Y-92972D01*
X410787Y-92473D01*
X410136Y-92204D01*
D02*
G37*
G36*
X482859Y-96536D02*
X482154D01*
X481502Y-96805D01*
X481004Y-97304D01*
X480734Y-97955D01*
Y-98660D01*
X481004Y-99311D01*
X481502Y-99809D01*
X482154Y-100079D01*
X482859D01*
X483510Y-99809D01*
X484008Y-99311D01*
X484278Y-98660D01*
Y-97955D01*
X484008Y-97304D01*
X483510Y-96805D01*
X482859Y-96536D01*
D02*
G37*
G36*
X86352Y-84728D02*
X85648D01*
X84996Y-84998D01*
X84498Y-85496D01*
X84228Y-86148D01*
Y-86852D01*
X84498Y-87504D01*
X84996Y-88002D01*
X85082Y-88038D01*
Y-119916D01*
X85055Y-119927D01*
X84811Y-120171D01*
X84418Y-120008D01*
Y-111500D01*
X84348Y-111149D01*
X84149Y-110851D01*
X70736Y-97438D01*
X70772Y-97352D01*
Y-96648D01*
X70502Y-95996D01*
X70389Y-95884D01*
X70612Y-95550D01*
X71148Y-95772D01*
X71852D01*
X72019Y-95703D01*
X72297Y-95981D01*
X72228Y-96148D01*
Y-96852D01*
X72498Y-97504D01*
X72996Y-98002D01*
X73648Y-98272D01*
X74228D01*
Y-98852D01*
X74498Y-99504D01*
X74996Y-100002D01*
X75648Y-100272D01*
X76352D01*
X77004Y-100002D01*
X77502Y-99504D01*
X77772Y-98852D01*
Y-98148D01*
X77502Y-97496D01*
X77004Y-96998D01*
X76352Y-96728D01*
X75772D01*
Y-96148D01*
X75502Y-95496D01*
X75004Y-94998D01*
X74352Y-94728D01*
X73648D01*
X73481Y-94797D01*
X73203Y-94519D01*
X73272Y-94352D01*
Y-93648D01*
X73002Y-92996D01*
X72504Y-92498D01*
X71852Y-92228D01*
X71272D01*
Y-91648D01*
X71002Y-90996D01*
X70725Y-90719D01*
X70842Y-90602D01*
X71112Y-89951D01*
Y-89246D01*
X70842Y-88595D01*
X70625Y-88378D01*
X70504Y-88002D01*
X70634Y-87872D01*
X71002Y-87504D01*
X71272Y-86852D01*
Y-86148D01*
X71002Y-85496D01*
X70504Y-84998D01*
X69852Y-84728D01*
X69148D01*
X68496Y-84998D01*
X67998Y-85496D01*
X67728Y-86148D01*
Y-86852D01*
X67998Y-87504D01*
X68215Y-87721D01*
X68337Y-88096D01*
X68207Y-88226D01*
X67838Y-88595D01*
X67569Y-89246D01*
Y-89951D01*
X67838Y-90602D01*
X68116Y-90879D01*
X67998Y-90996D01*
X67728Y-91648D01*
Y-92352D01*
X67998Y-93004D01*
X68496Y-93502D01*
X69148Y-93772D01*
X69728D01*
Y-94352D01*
X69998Y-95004D01*
X70111Y-95116D01*
X69888Y-95450D01*
X69352Y-95228D01*
X68648D01*
X67996Y-95498D01*
X67498Y-95996D01*
X67228Y-96648D01*
Y-97352D01*
X67498Y-98004D01*
X67996Y-98502D01*
X68648Y-98772D01*
X69352D01*
X69438Y-98736D01*
X82582Y-111880D01*
Y-127032D01*
X81650Y-127965D01*
X81451Y-128263D01*
X81381Y-128614D01*
Y-142664D01*
X81295Y-142700D01*
X80796Y-143198D01*
X80654Y-143543D01*
X80260Y-143464D01*
Y-125645D01*
X80453D01*
X81104Y-125375D01*
X81602Y-124876D01*
X81872Y-124225D01*
Y-123520D01*
X81602Y-122869D01*
X81104Y-122371D01*
X80453Y-122101D01*
X79748D01*
X79097Y-122371D01*
X78598Y-122869D01*
X78329Y-123520D01*
Y-124225D01*
X78598Y-124876D01*
X78731Y-125009D01*
Y-145486D01*
X78492Y-145585D01*
X77993Y-146083D01*
X77820Y-146501D01*
X77360Y-146598D01*
X62382Y-131620D01*
Y-102508D01*
X63551D01*
Y-98492D01*
X62418D01*
Y-97537D01*
X62504Y-97502D01*
X63002Y-97004D01*
X63272Y-96352D01*
Y-95648D01*
X63002Y-94996D01*
X62504Y-94498D01*
X61852Y-94228D01*
X61148D01*
X60496Y-94498D01*
X59998Y-94996D01*
X59728Y-95648D01*
Y-96352D01*
X59998Y-97004D01*
X60496Y-97502D01*
X60582Y-97537D01*
Y-98492D01*
X59378D01*
Y-102508D01*
X60547D01*
Y-132000D01*
X60617Y-132351D01*
X60816Y-132649D01*
X67500Y-139333D01*
X67349Y-139697D01*
X61500D01*
X61193Y-139758D01*
X60932Y-139932D01*
X60932Y-139932D01*
X58432Y-142432D01*
X58258Y-142693D01*
X58197Y-143000D01*
Y-146500D01*
X58258Y-146807D01*
X58432Y-147068D01*
X61365Y-150000D01*
X58432Y-152932D01*
X58258Y-153193D01*
X58197Y-153500D01*
Y-157000D01*
X58258Y-157307D01*
X58432Y-157568D01*
X58432Y-157568D01*
X60932Y-160068D01*
X61193Y-160242D01*
X61500Y-160303D01*
X68000D01*
X68307Y-160242D01*
X68568Y-160068D01*
X73068Y-155568D01*
X73074Y-155559D01*
X73082Y-155553D01*
X73160Y-155429D01*
X73242Y-155307D01*
X73244Y-155297D01*
X73249Y-155288D01*
X73274Y-155144D01*
X73303Y-155000D01*
X73301Y-154990D01*
X73303Y-154980D01*
X73270Y-154836D01*
X73242Y-154693D01*
X73236Y-154684D01*
X73234Y-154674D01*
X72331Y-152642D01*
X72243Y-152518D01*
X72158Y-152393D01*
X72153Y-152391D01*
X72150Y-152386D01*
X72022Y-152305D01*
X71895Y-152223D01*
X71890Y-152222D01*
X71885Y-152219D01*
X71736Y-152193D01*
X71587Y-152166D01*
X71193Y-152171D01*
X71045Y-152202D01*
X70896Y-152232D01*
X70892Y-152235D01*
X70887Y-152236D01*
X70762Y-152322D01*
X70636Y-152406D01*
X70633Y-152410D01*
X70628Y-152413D01*
X70596Y-152463D01*
X70238Y-152821D01*
X69882Y-152969D01*
X69496D01*
X69140Y-152821D01*
X68868Y-152549D01*
X68720Y-152193D01*
Y-151807D01*
X68868Y-151451D01*
X68887Y-151431D01*
X69061Y-151171D01*
X69123Y-150864D01*
X69089Y-150697D01*
X69320Y-150318D01*
X69336Y-150303D01*
X70500D01*
X70644Y-150274D01*
X70788Y-150249D01*
X70797Y-150244D01*
X70807Y-150242D01*
X70929Y-150160D01*
X71053Y-150082D01*
X71059Y-150074D01*
X71068Y-150068D01*
X71149Y-149946D01*
X71234Y-149826D01*
X73142Y-145532D01*
X73586Y-145430D01*
X73602Y-145435D01*
X77770Y-149603D01*
X77728Y-149703D01*
Y-150408D01*
X77998Y-151059D01*
X78496Y-151558D01*
X79148Y-151827D01*
X79852D01*
X80504Y-151558D01*
X81002Y-151059D01*
X81272Y-150408D01*
Y-149703D01*
X81002Y-149052D01*
X80519Y-148569D01*
X80997Y-148091D01*
X81267Y-147440D01*
Y-146735D01*
X80997Y-146083D01*
X80499Y-145585D01*
X80260Y-145486D01*
Y-144939D01*
X80654Y-144861D01*
X80796Y-145205D01*
X81295Y-145704D01*
X81946Y-145973D01*
X82651D01*
X83302Y-145704D01*
X83800Y-145205D01*
X84070Y-144554D01*
Y-143849D01*
X83800Y-143198D01*
X83302Y-142700D01*
X83216Y-142664D01*
Y-128994D01*
X84149Y-128061D01*
X84348Y-127763D01*
X84418Y-127412D01*
Y-122850D01*
X84811Y-122687D01*
X85055Y-122931D01*
X85707Y-123201D01*
X86411D01*
X87063Y-122931D01*
X87561Y-122433D01*
X87831Y-121781D01*
Y-121077D01*
X87561Y-120425D01*
X87063Y-119927D01*
X86918Y-119867D01*
Y-88038D01*
X87004Y-88002D01*
X87502Y-87504D01*
X87772Y-86852D01*
Y-86148D01*
X87502Y-85496D01*
X87004Y-84998D01*
X86352Y-84728D01*
D02*
G37*
G36*
X367352Y-99728D02*
X366648D01*
X365996Y-99998D01*
X365498Y-100496D01*
X365462Y-100582D01*
X328038D01*
X328002Y-100496D01*
X327504Y-99998D01*
X326852Y-99728D01*
X326148D01*
X325496Y-99998D01*
X324998Y-100496D01*
X324728Y-101148D01*
Y-101852D01*
X324998Y-102504D01*
X325496Y-103002D01*
X326148Y-103272D01*
X326852D01*
X327504Y-103002D01*
X328002Y-102504D01*
X328038Y-102418D01*
X365462D01*
X365498Y-102504D01*
X365996Y-103002D01*
X366648Y-103272D01*
X367352D01*
X368004Y-103002D01*
X368502Y-102504D01*
X368772Y-101852D01*
Y-101148D01*
X368502Y-100496D01*
X368004Y-99998D01*
X367352Y-99728D01*
D02*
G37*
G36*
X460652Y-79965D02*
X458978D01*
X457326Y-80226D01*
X455734Y-80743D01*
X454244Y-81503D01*
X452890Y-82486D01*
X451707Y-83670D01*
X450723Y-85023D01*
X449964Y-86514D01*
X449447Y-88105D01*
X449185Y-89758D01*
Y-91431D01*
X449447Y-93084D01*
X449964Y-94675D01*
X450723Y-96166D01*
X451707Y-97519D01*
X452890Y-98703D01*
X454244Y-99686D01*
X455734Y-100446D01*
X457326Y-100963D01*
X458978Y-101224D01*
X460652D01*
X462304Y-100963D01*
X463895Y-100446D01*
X465386Y-99686D01*
X466740Y-98703D01*
X467923Y-97519D01*
X468906Y-96166D01*
X469666Y-94675D01*
X470183Y-93084D01*
X470445Y-91431D01*
Y-89758D01*
X470183Y-88105D01*
X469666Y-86514D01*
X468906Y-85023D01*
X467923Y-83670D01*
X466740Y-82486D01*
X465386Y-81503D01*
X463895Y-80743D01*
X462304Y-80226D01*
X460652Y-79965D01*
D02*
G37*
G36*
X183875Y-101458D02*
X183170D01*
X182519Y-101728D01*
X182020Y-102226D01*
X181751Y-102877D01*
Y-103582D01*
X182020Y-104233D01*
X182519Y-104731D01*
X183170Y-105001D01*
X183875D01*
X184526Y-104731D01*
X185024Y-104233D01*
X185294Y-103582D01*
Y-102877D01*
X185024Y-102226D01*
X184526Y-101728D01*
X183875Y-101458D01*
D02*
G37*
G36*
X178875D02*
X178170D01*
X177519Y-101728D01*
X177020Y-102226D01*
X176751Y-102877D01*
Y-103582D01*
X177020Y-104233D01*
X177519Y-104731D01*
X178170Y-105001D01*
X178875D01*
X179526Y-104731D01*
X180024Y-104233D01*
X180294Y-103582D01*
Y-102877D01*
X180024Y-102226D01*
X179526Y-101728D01*
X178875Y-101458D01*
D02*
G37*
G36*
X244360Y-36035D02*
X243655D01*
X243004Y-36304D01*
X242506Y-36803D01*
X242236Y-37454D01*
Y-38159D01*
X242506Y-38810D01*
X243004Y-39308D01*
X243090Y-39344D01*
Y-44125D01*
X243160Y-44477D01*
X243359Y-44774D01*
X243369Y-44784D01*
Y-50027D01*
X240984Y-52412D01*
X240785Y-52710D01*
X240715Y-53061D01*
Y-102502D01*
X240629Y-102538D01*
X240131Y-103036D01*
X239861Y-103687D01*
Y-104392D01*
X240131Y-105043D01*
X240629Y-105542D01*
X241280Y-105811D01*
X241985D01*
X242636Y-105542D01*
X243134Y-105043D01*
X243404Y-104392D01*
Y-103687D01*
X243134Y-103036D01*
X242636Y-102538D01*
X242550Y-102502D01*
Y-53441D01*
X244936Y-51056D01*
X245134Y-50758D01*
X245204Y-50407D01*
Y-44404D01*
X245134Y-44053D01*
X244936Y-43755D01*
X244925Y-43745D01*
Y-39344D01*
X245011Y-39308D01*
X245510Y-38810D01*
X245779Y-38159D01*
Y-37454D01*
X245510Y-36803D01*
X245011Y-36304D01*
X244360Y-36035D01*
D02*
G37*
G36*
X413852Y-78228D02*
X413148D01*
X412496Y-78498D01*
X411998Y-78996D01*
X411728Y-79648D01*
Y-80352D01*
X411998Y-81004D01*
X412496Y-81502D01*
X412582Y-81537D01*
Y-102963D01*
X412496Y-102998D01*
X411998Y-103496D01*
X411728Y-104148D01*
Y-104852D01*
X411998Y-105504D01*
X412496Y-106002D01*
X413148Y-106272D01*
X413852D01*
X414504Y-106002D01*
X415002Y-105504D01*
X415272Y-104852D01*
Y-104148D01*
X415002Y-103496D01*
X414504Y-102998D01*
X414418Y-102963D01*
Y-81537D01*
X414504Y-81502D01*
X415002Y-81004D01*
X415272Y-80352D01*
Y-79648D01*
X415002Y-78996D01*
X414504Y-78498D01*
X413852Y-78228D01*
D02*
G37*
G36*
X197852Y-70228D02*
X197148D01*
X196496Y-70498D01*
X195998Y-70996D01*
X195728Y-71648D01*
Y-72352D01*
X195998Y-73004D01*
X196496Y-73502D01*
X196582Y-73537D01*
Y-109462D01*
X196496Y-109498D01*
X195998Y-109996D01*
X195728Y-110648D01*
Y-111352D01*
X195998Y-112004D01*
X196496Y-112502D01*
X197148Y-112772D01*
X197852D01*
X198504Y-112502D01*
X199002Y-112004D01*
X199272Y-111352D01*
Y-110648D01*
X199002Y-109996D01*
X198504Y-109498D01*
X198418Y-109462D01*
Y-106902D01*
X198811Y-106639D01*
X199132Y-106772D01*
X199837D01*
X200488Y-106502D01*
X200986Y-106004D01*
X201256Y-105352D01*
Y-104648D01*
X200986Y-103996D01*
X200488Y-103498D01*
X199837Y-103228D01*
X199132D01*
X198811Y-103361D01*
X198418Y-103098D01*
Y-73537D01*
X198504Y-73502D01*
X199002Y-73004D01*
X199272Y-72352D01*
Y-71648D01*
X199002Y-70996D01*
X198504Y-70498D01*
X197852Y-70228D01*
D02*
G37*
G36*
X372852Y-106228D02*
X372148D01*
X371496Y-106498D01*
X370998Y-106996D01*
X370755Y-107582D01*
X324537D01*
X324502Y-107496D01*
X324004Y-106998D01*
X323352Y-106728D01*
X322648D01*
X321996Y-106998D01*
X321498Y-107496D01*
X321228Y-108148D01*
Y-108852D01*
X321498Y-109504D01*
X321996Y-110002D01*
X322648Y-110272D01*
X323352D01*
X324004Y-110002D01*
X324502Y-109504D01*
X324537Y-109418D01*
X371412D01*
X371496Y-109502D01*
X372148Y-109772D01*
X372852D01*
X373504Y-109502D01*
X374002Y-109004D01*
X374272Y-108352D01*
Y-107648D01*
X374002Y-106996D01*
X373504Y-106498D01*
X372852Y-106228D01*
D02*
G37*
G36*
X188000Y-104089D02*
X187651Y-104158D01*
X187356Y-104356D01*
X184856Y-106856D01*
X184658Y-107151D01*
X184589Y-107500D01*
Y-197884D01*
X184195Y-197963D01*
X184002Y-197496D01*
X183504Y-196998D01*
X182852Y-196728D01*
X182148D01*
X181496Y-196998D01*
X180998Y-197496D01*
X180728Y-198148D01*
Y-198852D01*
X180998Y-199504D01*
X181414Y-199919D01*
Y-201331D01*
X181484Y-201682D01*
X181582Y-201830D01*
Y-225463D01*
X181496Y-225498D01*
X180998Y-225996D01*
X180728Y-226648D01*
Y-227352D01*
X180998Y-228004D01*
X181496Y-228502D01*
X182148Y-228772D01*
X182852D01*
X183504Y-228502D01*
X184002Y-228004D01*
X184272Y-227352D01*
Y-226648D01*
X184002Y-225996D01*
X183504Y-225498D01*
X183418Y-225463D01*
Y-224131D01*
X183811Y-224053D01*
X183998Y-224504D01*
X184496Y-225002D01*
X185148Y-225272D01*
X185852D01*
X186504Y-225002D01*
X187002Y-224504D01*
X187272Y-223852D01*
Y-223148D01*
X187002Y-222496D01*
X186504Y-221998D01*
X186411Y-221960D01*
Y-144263D01*
X186805Y-144000D01*
X187126Y-144132D01*
X187830D01*
X188481Y-143863D01*
X188980Y-143364D01*
X189250Y-142713D01*
Y-142008D01*
X188980Y-141357D01*
X188481Y-140859D01*
X187830Y-140589D01*
X187126D01*
X186805Y-140722D01*
X186411Y-140459D01*
Y-126473D01*
X186805Y-126310D01*
X186996Y-126502D01*
X187648Y-126772D01*
X188199D01*
X188963Y-127536D01*
Y-132075D01*
X188963Y-132075D01*
X189048Y-132501D01*
X189289Y-132862D01*
X199888Y-143461D01*
Y-144086D01*
X199391Y-144583D01*
X199121Y-145234D01*
Y-145939D01*
X199391Y-146590D01*
X199889Y-147089D01*
X200540Y-147358D01*
X201245D01*
X201896Y-147089D01*
X202394Y-146590D01*
X202664Y-145939D01*
Y-145234D01*
X202394Y-144583D01*
X202112Y-144301D01*
Y-143000D01*
X202027Y-142575D01*
X201786Y-142214D01*
X201786Y-142214D01*
X191187Y-131615D01*
Y-127075D01*
X191103Y-126650D01*
X190862Y-126289D01*
X190862Y-126289D01*
X189772Y-125199D01*
Y-124648D01*
X189502Y-123996D01*
X189004Y-123498D01*
X188352Y-123228D01*
X187648D01*
X186996Y-123498D01*
X186805Y-123690D01*
X186411Y-123527D01*
Y-110402D01*
X186805Y-110139D01*
X187126Y-110272D01*
X187830D01*
X188481Y-110002D01*
X188980Y-109504D01*
X189250Y-108852D01*
Y-108148D01*
X188980Y-107496D01*
X188481Y-106998D01*
X188033Y-106812D01*
X187924Y-106365D01*
X188189Y-106099D01*
X189226D01*
Y-106350D01*
X189496Y-107001D01*
X189994Y-107500D01*
X190645Y-107770D01*
X191350D01*
X192001Y-107500D01*
X192500Y-107001D01*
X192770Y-106350D01*
Y-105645D01*
X192500Y-104994D01*
X192001Y-104496D01*
X191350Y-104226D01*
X190645D01*
X190270Y-104382D01*
X190217Y-104346D01*
X189868Y-104277D01*
X188526D01*
X188349Y-104158D01*
X188000Y-104089D01*
D02*
G37*
G36*
X128466Y-61957D02*
X127533D01*
X126632Y-62198D01*
X125824Y-62665D01*
X125165Y-63324D01*
X124698Y-64132D01*
X124457Y-65034D01*
Y-65966D01*
X124698Y-66868D01*
X125165Y-67676D01*
X125824Y-68335D01*
X126632Y-68802D01*
X127082Y-68922D01*
Y-104463D01*
X126996Y-104498D01*
X126498Y-104996D01*
X126228Y-105648D01*
Y-106352D01*
X126498Y-107004D01*
X126996Y-107502D01*
X127648Y-107772D01*
X128352D01*
X129004Y-107502D01*
X129502Y-107004D01*
X129772Y-106352D01*
Y-105648D01*
X129502Y-104996D01*
X129004Y-104498D01*
X128918Y-104463D01*
Y-68922D01*
X129368Y-68802D01*
X130176Y-68335D01*
X130835Y-67676D01*
X131302Y-66868D01*
X131543Y-65966D01*
Y-65034D01*
X131302Y-64132D01*
X130835Y-63324D01*
X130176Y-62665D01*
X129368Y-62198D01*
X128466Y-61957D01*
D02*
G37*
G36*
X247206Y-57013D02*
X246501D01*
X245850Y-57283D01*
X245351Y-57781D01*
X245082Y-58432D01*
Y-59137D01*
X245351Y-59788D01*
X245850Y-60286D01*
X246501Y-60556D01*
X247206D01*
X247243Y-60541D01*
X248920Y-62218D01*
Y-77884D01*
X248527Y-78147D01*
X248206Y-78015D01*
X247501D01*
X246850Y-78284D01*
X246352Y-78783D01*
X246082Y-79434D01*
Y-80139D01*
X246352Y-80790D01*
X246850Y-81288D01*
X247501Y-81558D01*
X248206D01*
X248527Y-81425D01*
X248920Y-81688D01*
Y-103046D01*
X248367Y-103599D01*
X248168Y-103897D01*
X248098Y-104248D01*
Y-128710D01*
X248125Y-128844D01*
X248139Y-129088D01*
X247880Y-129339D01*
X247496Y-129498D01*
X246998Y-129996D01*
X246728Y-130648D01*
Y-131352D01*
X246998Y-132004D01*
X247496Y-132502D01*
X248148Y-132772D01*
X248852D01*
X249173Y-132639D01*
X249567Y-132902D01*
Y-152559D01*
X248851Y-153274D01*
X248652Y-153572D01*
X248582Y-153923D01*
Y-159369D01*
X248189Y-159447D01*
X248002Y-158996D01*
X247504Y-158498D01*
X246852Y-158228D01*
X246148D01*
X245496Y-158498D01*
X244998Y-158996D01*
X244728Y-159648D01*
Y-160352D01*
X244998Y-161004D01*
X245496Y-161502D01*
X246148Y-161772D01*
X246852D01*
X247504Y-161502D01*
X248002Y-161004D01*
X248189Y-160553D01*
X248582Y-160631D01*
Y-175462D01*
X248496Y-175498D01*
X247998Y-175996D01*
X247728Y-176648D01*
Y-177352D01*
X247998Y-178004D01*
X248496Y-178502D01*
X249148Y-178772D01*
X249852D01*
X250504Y-178502D01*
X251002Y-178004D01*
X251272Y-177352D01*
Y-176648D01*
X251002Y-175996D01*
X250504Y-175498D01*
X250418Y-175462D01*
Y-154303D01*
X251133Y-153588D01*
X251332Y-153290D01*
X251402Y-152939D01*
Y-130178D01*
X251332Y-129827D01*
X251133Y-129529D01*
X249933Y-128330D01*
Y-127902D01*
X250327Y-127639D01*
X250648Y-127772D01*
X251352D01*
X252004Y-127502D01*
X252502Y-127004D01*
X252772Y-126352D01*
Y-125648D01*
X252502Y-124996D01*
X252004Y-124498D01*
X251352Y-124228D01*
X250648D01*
X250327Y-124361D01*
X249933Y-124098D01*
Y-104628D01*
X250487Y-104075D01*
X250686Y-103777D01*
X250756Y-103426D01*
Y-69614D01*
X251149Y-69451D01*
X251459Y-69761D01*
X251958Y-69968D01*
Y-111941D01*
X251770Y-112019D01*
X251271Y-112517D01*
X251002Y-113168D01*
Y-113873D01*
X251271Y-114524D01*
X251770Y-115023D01*
X252421Y-115292D01*
X253126D01*
X253777Y-115023D01*
X254275Y-114524D01*
X254545Y-113873D01*
Y-113168D01*
X254275Y-112517D01*
X253777Y-112019D01*
X253589Y-111941D01*
Y-69638D01*
X253964Y-69263D01*
X254234Y-68612D01*
Y-67907D01*
X253964Y-67256D01*
X253466Y-66757D01*
X252815Y-66487D01*
X252110D01*
X251459Y-66757D01*
X251149Y-67067D01*
X250756Y-66904D01*
Y-61838D01*
X250686Y-61487D01*
X250487Y-61189D01*
X248569Y-59272D01*
X248625Y-59137D01*
Y-58432D01*
X248355Y-57781D01*
X247857Y-57283D01*
X247206Y-57013D01*
D02*
G37*
G36*
X203352Y-112228D02*
X202648D01*
X201996Y-112498D01*
X201498Y-112996D01*
X201228Y-113648D01*
Y-114352D01*
X201498Y-115004D01*
X201996Y-115502D01*
X202648Y-115772D01*
X203352D01*
X204004Y-115502D01*
X204502Y-115004D01*
X204772Y-114352D01*
Y-113648D01*
X204502Y-112996D01*
X204004Y-112498D01*
X203352Y-112228D01*
D02*
G37*
G36*
X211352Y-112728D02*
X210648D01*
X209996Y-112998D01*
X209498Y-113496D01*
X209228Y-114148D01*
Y-114852D01*
X209498Y-115504D01*
X209996Y-116002D01*
X210648Y-116272D01*
X211352D01*
X212004Y-116002D01*
X212502Y-115504D01*
X212772Y-114852D01*
Y-114148D01*
X212502Y-113496D01*
X212004Y-112998D01*
X211352Y-112728D01*
D02*
G37*
G36*
X171385Y-104083D02*
X170680D01*
X170029Y-104353D01*
X169530Y-104851D01*
X169261Y-105502D01*
Y-106207D01*
X169530Y-106858D01*
X170029Y-107357D01*
X170082Y-107379D01*
Y-113462D01*
X169996Y-113498D01*
X169498Y-113996D01*
X169228Y-114648D01*
Y-115352D01*
X169498Y-116004D01*
X169996Y-116502D01*
X170648Y-116772D01*
X171352D01*
X172004Y-116502D01*
X172502Y-116004D01*
X172772Y-115352D01*
Y-114648D01*
X172502Y-113996D01*
X172004Y-113498D01*
X171918Y-113462D01*
Y-107406D01*
X172036Y-107357D01*
X172534Y-106858D01*
X172804Y-106207D01*
Y-105502D01*
X172534Y-104851D01*
X172036Y-104353D01*
X171385Y-104083D01*
D02*
G37*
G36*
X512307Y-111772D02*
X508173D01*
Y-117677D01*
X512307D01*
Y-111772D01*
D02*
G37*
G36*
X504827D02*
X500693D01*
Y-117677D01*
X500837D01*
X501055Y-118005D01*
X500988Y-118167D01*
Y-118871D01*
X501258Y-119523D01*
X501305Y-119569D01*
X501154Y-119933D01*
X496465D01*
Y-120084D01*
X496071Y-120347D01*
X495784Y-120228D01*
X495079D01*
X494713Y-120380D01*
X494319Y-120117D01*
Y-119992D01*
X490146D01*
Y-124008D01*
X494319D01*
Y-123883D01*
X494713Y-123620D01*
X495079Y-123772D01*
X495784D01*
X496071Y-123653D01*
X496465Y-123916D01*
Y-124067D01*
X504535D01*
Y-119933D01*
X504366D01*
X504215Y-119569D01*
X504262Y-119523D01*
X504531Y-118871D01*
Y-118167D01*
X504464Y-118005D01*
X504683Y-117677D01*
X504827D01*
Y-111772D01*
D02*
G37*
G36*
X203852Y-119613D02*
X203148D01*
X202496Y-119882D01*
X201998Y-120381D01*
X201728Y-121032D01*
Y-121737D01*
X201998Y-122388D01*
X202496Y-122886D01*
X203148Y-123156D01*
X203852D01*
X204504Y-122886D01*
X205002Y-122388D01*
X205272Y-121737D01*
Y-121032D01*
X205002Y-120381D01*
X204504Y-119882D01*
X203852Y-119613D01*
D02*
G37*
G36*
X106352Y-122728D02*
X105648D01*
X104996Y-122998D01*
X104498Y-123496D01*
X104228Y-124148D01*
Y-124852D01*
X104498Y-125504D01*
X104996Y-126002D01*
X105648Y-126272D01*
X106352D01*
X107004Y-126002D01*
X107502Y-125504D01*
X107772Y-124852D01*
Y-124148D01*
X107502Y-123496D01*
X107004Y-122998D01*
X106352Y-122728D01*
D02*
G37*
G36*
X301956Y-81177D02*
X301251D01*
X300600Y-81446D01*
X300102Y-81945D01*
X299832Y-82596D01*
Y-83301D01*
X300102Y-83952D01*
X300600Y-84450D01*
X300686Y-84486D01*
Y-106369D01*
X299867Y-107188D01*
X299668Y-107486D01*
X299598Y-107837D01*
Y-132016D01*
X299668Y-132367D01*
X299867Y-132665D01*
X301082Y-133880D01*
Y-180963D01*
X300996Y-180998D01*
X300498Y-181496D01*
X300228Y-182148D01*
Y-182852D01*
X300498Y-183504D01*
X300996Y-184002D01*
X301648Y-184272D01*
X302352D01*
X303004Y-184002D01*
X303502Y-183504D01*
X303772Y-182852D01*
Y-182148D01*
X303502Y-181496D01*
X303004Y-180998D01*
X302918Y-180963D01*
Y-133500D01*
X302848Y-133149D01*
X302649Y-132851D01*
X302463Y-132665D01*
X302626Y-132272D01*
X302852D01*
X303504Y-132002D01*
X304002Y-131504D01*
X304272Y-130852D01*
Y-130148D01*
X304002Y-129496D01*
X303504Y-128998D01*
X302852Y-128728D01*
X302148D01*
X301827Y-128861D01*
X301433Y-128598D01*
Y-126902D01*
X301827Y-126639D01*
X302148Y-126772D01*
X302852D01*
X303504Y-126502D01*
X304002Y-126004D01*
X304272Y-125352D01*
Y-124648D01*
X304002Y-123996D01*
X303504Y-123498D01*
X302852Y-123228D01*
X302148D01*
X301827Y-123361D01*
X301433Y-123098D01*
Y-108217D01*
X302253Y-107398D01*
X302451Y-107100D01*
X302521Y-106749D01*
Y-84486D01*
X302607Y-84450D01*
X303106Y-83952D01*
X303375Y-83301D01*
Y-82596D01*
X303106Y-81945D01*
X302607Y-81446D01*
X301956Y-81177D01*
D02*
G37*
G36*
X293352Y-123228D02*
X292648D01*
X291996Y-123498D01*
X291498Y-123996D01*
X291228Y-124648D01*
Y-125352D01*
X291498Y-126004D01*
X291996Y-126502D01*
X292648Y-126772D01*
X293352D01*
X294004Y-126502D01*
X294502Y-126004D01*
X294772Y-125352D01*
Y-124648D01*
X294502Y-123996D01*
X294004Y-123498D01*
X293352Y-123228D01*
D02*
G37*
G36*
X257852Y-124728D02*
X257148D01*
X256496Y-124998D01*
X255998Y-125496D01*
X255728Y-126148D01*
Y-126852D01*
X255998Y-127504D01*
X256496Y-128002D01*
X257148Y-128272D01*
X257852D01*
X258504Y-128002D01*
X259002Y-127504D01*
X259272Y-126852D01*
Y-126148D01*
X259002Y-125496D01*
X258504Y-124998D01*
X257852Y-124728D01*
D02*
G37*
G36*
X224352Y-57728D02*
X223648D01*
X222996Y-57998D01*
X222498Y-58496D01*
X222228Y-59148D01*
Y-59852D01*
X222498Y-60504D01*
X222996Y-61002D01*
X223082Y-61037D01*
Y-98942D01*
X222918Y-99106D01*
X222719Y-99404D01*
X222649Y-99755D01*
Y-138464D01*
X222322Y-138683D01*
X222296Y-138672D01*
X221591D01*
X220940Y-138942D01*
X220442Y-139440D01*
X220172Y-140092D01*
Y-140796D01*
X220442Y-141447D01*
X220940Y-141946D01*
X221591Y-142216D01*
X222098D01*
Y-143111D01*
X221704Y-143374D01*
X221352Y-143228D01*
X220648D01*
X219996Y-143498D01*
X219498Y-143996D01*
X219228Y-144648D01*
Y-145352D01*
X219498Y-146004D01*
X219996Y-146502D01*
X220648Y-146772D01*
X221352D01*
X221704Y-146626D01*
X222098Y-146889D01*
Y-185016D01*
X222168Y-185367D01*
X222367Y-185665D01*
X223728Y-187026D01*
Y-187352D01*
X223998Y-188004D01*
X224496Y-188502D01*
X225148Y-188772D01*
X225852D01*
X226504Y-188502D01*
X227002Y-188004D01*
X227272Y-187352D01*
Y-186648D01*
X227072Y-186165D01*
X227291Y-185772D01*
X227352D01*
X228004Y-185502D01*
X228502Y-185004D01*
X228772Y-184352D01*
Y-183648D01*
X228502Y-182996D01*
X228004Y-182498D01*
X227352Y-182228D01*
X226648D01*
X225996Y-182498D01*
X225498Y-182996D01*
X225228Y-183648D01*
Y-184352D01*
X225428Y-184835D01*
X225208Y-185228D01*
X225148D01*
X224708Y-185410D01*
X223933Y-184636D01*
Y-144902D01*
X224327Y-144639D01*
X224648Y-144772D01*
X225352D01*
X226004Y-144502D01*
X226502Y-144004D01*
X226772Y-143352D01*
Y-142648D01*
X226502Y-141996D01*
X226004Y-141498D01*
X225352Y-141228D01*
X224846D01*
Y-139622D01*
X224776Y-139271D01*
X224577Y-138973D01*
X224484Y-138880D01*
Y-128047D01*
X224878Y-127884D01*
X224996Y-128002D01*
X225648Y-128272D01*
X226352D01*
X227004Y-128002D01*
X227502Y-127504D01*
X227772Y-126852D01*
Y-126148D01*
X227502Y-125496D01*
X227004Y-124998D01*
X226352Y-124728D01*
X225648D01*
X224996Y-124998D01*
X224878Y-125117D01*
X224484Y-124953D01*
Y-100135D01*
X224649Y-99971D01*
X224848Y-99673D01*
X224918Y-99322D01*
Y-61037D01*
X225004Y-61002D01*
X225502Y-60504D01*
X225772Y-59852D01*
Y-59148D01*
X225502Y-58496D01*
X225004Y-57998D01*
X224352Y-57728D01*
D02*
G37*
G36*
X279352Y-82728D02*
X278648D01*
X277996Y-82998D01*
X277498Y-83496D01*
X277228Y-84148D01*
Y-84852D01*
X277498Y-85504D01*
X277996Y-86002D01*
X278082Y-86037D01*
Y-129020D01*
X277689Y-129183D01*
X277504Y-128998D01*
X276852Y-128728D01*
X276148D01*
X275496Y-128998D01*
X274998Y-129496D01*
X274728Y-130148D01*
Y-130852D01*
X274998Y-131504D01*
X275496Y-132002D01*
X276148Y-132272D01*
X276852D01*
X277504Y-132002D01*
X277689Y-131817D01*
X278082Y-131980D01*
Y-145605D01*
X277689Y-145868D01*
X277352Y-145728D01*
X276648D01*
X275996Y-145998D01*
X275498Y-146496D01*
X275228Y-147148D01*
Y-147852D01*
X275498Y-148504D01*
X275996Y-149002D01*
X276648Y-149272D01*
X277352D01*
X277533Y-149197D01*
X277896Y-149440D01*
Y-149560D01*
X277533Y-149803D01*
X277352Y-149728D01*
X276648D01*
X275996Y-149998D01*
X275498Y-150496D01*
X275228Y-151148D01*
Y-151852D01*
X275498Y-152504D01*
X275996Y-153002D01*
X276648Y-153272D01*
X277352D01*
X277689Y-153132D01*
X278082Y-153395D01*
Y-187000D01*
X278152Y-187351D01*
X278351Y-187649D01*
X278764Y-188062D01*
X278728Y-188148D01*
Y-188852D01*
X278998Y-189504D01*
X279496Y-190002D01*
X280148Y-190272D01*
X280852D01*
X281504Y-190002D01*
X282002Y-189504D01*
X282272Y-188852D01*
Y-188148D01*
X282002Y-187496D01*
X281504Y-186998D01*
X280852Y-186728D01*
X280148D01*
X279918Y-186398D01*
Y-177239D01*
X280311Y-176980D01*
X280726Y-177152D01*
X281431D01*
X282082Y-176882D01*
X282580Y-176383D01*
X282850Y-175732D01*
Y-175027D01*
X283123Y-174659D01*
X283504Y-174502D01*
X284002Y-174004D01*
X284272Y-173352D01*
Y-172648D01*
X284002Y-171996D01*
X283504Y-171498D01*
X283163Y-171357D01*
X283071Y-170893D01*
X283080Y-170883D01*
X283350Y-170232D01*
Y-169527D01*
X283080Y-168876D01*
X282582Y-168378D01*
X281931Y-168108D01*
X281226D01*
X280575Y-168378D01*
X280311Y-168641D01*
X279918Y-168478D01*
Y-146949D01*
X280311Y-146786D01*
X280533Y-147007D01*
X281184Y-147277D01*
X281889D01*
X282540Y-147007D01*
X283038Y-146509D01*
X283308Y-145858D01*
Y-145153D01*
X283038Y-144502D01*
X282540Y-144003D01*
X281889Y-143734D01*
X281184D01*
X280533Y-144003D01*
X280311Y-144225D01*
X279918Y-144062D01*
Y-86037D01*
X280004Y-86002D01*
X280502Y-85504D01*
X280772Y-84852D01*
Y-84148D01*
X280502Y-83496D01*
X280004Y-82998D01*
X279352Y-82728D01*
D02*
G37*
G36*
X262352Y-115728D02*
X261648D01*
X260996Y-115998D01*
X260498Y-116496D01*
X260228Y-117148D01*
Y-117852D01*
X260498Y-118504D01*
X260996Y-119002D01*
X261089Y-119040D01*
Y-129107D01*
X260695Y-129370D01*
X260352Y-129228D01*
X259648D01*
X258996Y-129498D01*
X258498Y-129996D01*
X258228Y-130648D01*
Y-131352D01*
X258498Y-132004D01*
X258996Y-132502D01*
X259648Y-132772D01*
X260352D01*
X260695Y-132630D01*
X261089Y-132893D01*
Y-145460D01*
X260996Y-145498D01*
X260498Y-145996D01*
X260228Y-146648D01*
Y-147352D01*
X260267Y-147445D01*
X255356Y-152356D01*
X255158Y-152651D01*
X255089Y-153000D01*
Y-196460D01*
X254996Y-196498D01*
X254498Y-196996D01*
X254228Y-197648D01*
Y-198352D01*
X254498Y-199004D01*
X254996Y-199502D01*
X255648Y-199772D01*
X256352D01*
X257004Y-199502D01*
X257502Y-199004D01*
X257772Y-198352D01*
Y-197648D01*
X257502Y-196996D01*
X257004Y-196498D01*
X256911Y-196460D01*
Y-153377D01*
X261555Y-148733D01*
X261648Y-148772D01*
X262352D01*
X263004Y-148502D01*
X263502Y-148004D01*
X263772Y-147352D01*
Y-146648D01*
X263502Y-145996D01*
X263004Y-145498D01*
X262911Y-145460D01*
Y-119040D01*
X263004Y-119002D01*
X263502Y-118504D01*
X263772Y-117852D01*
Y-117148D01*
X263502Y-116496D01*
X263004Y-115998D01*
X262352Y-115728D01*
D02*
G37*
G36*
X120852Y-71728D02*
X120148D01*
X119496Y-71998D01*
X118998Y-72496D01*
X118728Y-73148D01*
Y-73852D01*
X118998Y-74504D01*
X119496Y-75002D01*
X119589Y-75040D01*
Y-126460D01*
X119496Y-126498D01*
X118998Y-126996D01*
X118728Y-127648D01*
Y-128352D01*
X118998Y-129004D01*
X119496Y-129502D01*
X120148Y-129772D01*
X120852D01*
X121504Y-129502D01*
X122002Y-129004D01*
X122272Y-128352D01*
Y-127648D01*
X122002Y-126996D01*
X121504Y-126498D01*
X121411Y-126460D01*
Y-75040D01*
X121504Y-75002D01*
X122002Y-74504D01*
X122272Y-73852D01*
Y-73148D01*
X122002Y-72496D01*
X121504Y-71998D01*
X120852Y-71728D01*
D02*
G37*
G36*
X194352Y-115728D02*
X193648D01*
X192996Y-115998D01*
X192498Y-116496D01*
X192228Y-117148D01*
Y-117852D01*
X192498Y-118504D01*
X192996Y-119002D01*
X193024Y-119013D01*
Y-126579D01*
X192867Y-126644D01*
X192368Y-127143D01*
X192099Y-127794D01*
Y-128499D01*
X192368Y-129150D01*
X192867Y-129648D01*
X193518Y-129918D01*
X194223D01*
X194874Y-129648D01*
X195372Y-129150D01*
X195642Y-128499D01*
Y-127794D01*
X195372Y-127143D01*
X194874Y-126644D01*
X194846Y-126633D01*
Y-119067D01*
X195004Y-119002D01*
X195502Y-118504D01*
X195772Y-117852D01*
Y-117148D01*
X195502Y-116496D01*
X195004Y-115998D01*
X194352Y-115728D01*
D02*
G37*
G36*
X283852Y-127228D02*
X283148D01*
X282496Y-127498D01*
X281998Y-127996D01*
X281728Y-128648D01*
Y-129352D01*
X281998Y-130004D01*
X282496Y-130502D01*
X283148Y-130772D01*
X283852D01*
X284504Y-130502D01*
X285002Y-130004D01*
X285272Y-129352D01*
Y-128648D01*
X285002Y-127996D01*
X284504Y-127498D01*
X283852Y-127228D01*
D02*
G37*
G36*
X293352Y-128728D02*
X292648D01*
X291996Y-128998D01*
X291498Y-129496D01*
X291228Y-130148D01*
Y-130852D01*
X291498Y-131504D01*
X291996Y-132002D01*
X292648Y-132272D01*
X293352D01*
X294004Y-132002D01*
X294502Y-131504D01*
X294772Y-130852D01*
Y-130148D01*
X294502Y-129496D01*
X294004Y-128998D01*
X293352Y-128728D01*
D02*
G37*
G36*
X254352Y-129228D02*
X253648D01*
X252996Y-129498D01*
X252498Y-129996D01*
X252228Y-130648D01*
Y-131352D01*
X252498Y-132004D01*
X252996Y-132502D01*
X253648Y-132772D01*
X254352D01*
X255004Y-132502D01*
X255502Y-132004D01*
X255772Y-131352D01*
Y-130648D01*
X255502Y-129996D01*
X255004Y-129498D01*
X254352Y-129228D01*
D02*
G37*
G36*
X149352Y-101228D02*
X148648D01*
X147996Y-101498D01*
X147498Y-101996D01*
X147228Y-102648D01*
Y-103352D01*
X147498Y-104004D01*
X147996Y-104502D01*
X148082Y-104537D01*
Y-130463D01*
X147996Y-130498D01*
X147498Y-130996D01*
X147228Y-131648D01*
Y-132352D01*
X147498Y-133004D01*
X147996Y-133502D01*
X148648Y-133772D01*
X149352D01*
X150004Y-133502D01*
X150502Y-133004D01*
X150772Y-132352D01*
Y-131648D01*
X150502Y-130996D01*
X150004Y-130498D01*
X149918Y-130463D01*
Y-104537D01*
X150004Y-104502D01*
X150502Y-104004D01*
X150772Y-103352D01*
Y-102648D01*
X150502Y-101996D01*
X150004Y-101498D01*
X149352Y-101228D01*
D02*
G37*
G36*
X96352Y-76728D02*
X95648D01*
X94996Y-76998D01*
X94498Y-77496D01*
X94228Y-78148D01*
Y-78852D01*
X94498Y-79504D01*
X94994Y-80000D01*
X94498Y-80496D01*
X94228Y-81148D01*
Y-81852D01*
X94498Y-82504D01*
X94859Y-82864D01*
Y-84343D01*
X90851Y-88351D01*
X90652Y-88649D01*
X90582Y-89000D01*
Y-133936D01*
X89032Y-135486D01*
X88946Y-135450D01*
X88241D01*
X87590Y-135720D01*
X87092Y-136219D01*
X86822Y-136870D01*
Y-137575D01*
X87092Y-138226D01*
X87590Y-138724D01*
X88241Y-138994D01*
X88946D01*
X89597Y-138724D01*
X90096Y-138226D01*
X90241Y-137875D01*
X90706Y-137783D01*
X90951Y-138028D01*
X91602Y-138298D01*
X91870D01*
X92013Y-138511D01*
Y-139216D01*
X92283Y-139867D01*
X92781Y-140366D01*
X93432Y-140635D01*
X94137D01*
X94788Y-140366D01*
X95287Y-139867D01*
X95556Y-139216D01*
Y-138511D01*
X95457Y-138272D01*
X96541Y-137189D01*
X96689Y-136967D01*
X96726Y-136937D01*
X97126Y-136848D01*
X97144Y-136866D01*
X97795Y-137136D01*
X98500D01*
X98586Y-137100D01*
X101082Y-139596D01*
Y-170012D01*
X100617Y-170205D01*
X100118Y-170704D01*
X99848Y-171355D01*
Y-172060D01*
X100118Y-172711D01*
X100617Y-173209D01*
X101268Y-173479D01*
X101972D01*
X102624Y-173209D01*
X102921Y-172912D01*
X103315Y-173075D01*
Y-177043D01*
X110795D01*
Y-165626D01*
X107911D01*
Y-162535D01*
X109067D01*
Y-162535D01*
X109433D01*
Y-162535D01*
X113567D01*
Y-158205D01*
X109433D01*
Y-158205D01*
X109067Y-158138D01*
Y-154567D01*
X109795D01*
Y-150433D01*
X105465D01*
Y-152820D01*
X105137Y-153039D01*
X104930Y-152953D01*
X104225D01*
X103574Y-153223D01*
X103311Y-153485D01*
X102918Y-153322D01*
Y-139216D01*
X102848Y-138865D01*
X102649Y-138567D01*
X99884Y-135802D01*
X99919Y-135716D01*
Y-135011D01*
X99650Y-134360D01*
X99151Y-133862D01*
X98500Y-133592D01*
X97795D01*
X97144Y-133862D01*
X97128Y-133878D01*
X96765Y-133727D01*
Y-92101D01*
X97004Y-92002D01*
X97502Y-91504D01*
X97772Y-90852D01*
Y-90148D01*
X97502Y-89496D01*
X97004Y-88998D01*
X96352Y-88728D01*
X95648D01*
X95094Y-88958D01*
X94871Y-88624D01*
X98633Y-84862D01*
X98832Y-84564D01*
X98902Y-84213D01*
Y-80484D01*
X98832Y-80133D01*
X98633Y-79835D01*
X97736Y-78938D01*
X97772Y-78852D01*
Y-78148D01*
X97502Y-77496D01*
X97004Y-76998D01*
X96352Y-76728D01*
D02*
G37*
G36*
X505732Y-96644D02*
X505027D01*
X504376Y-96914D01*
X504357Y-96933D01*
X496465D01*
Y-100463D01*
X495699Y-101228D01*
X495148D01*
X494496Y-101498D01*
X493998Y-101996D01*
X493728Y-102648D01*
Y-103352D01*
X493998Y-104004D01*
X494496Y-104502D01*
X495148Y-104772D01*
X495852D01*
X496504Y-104502D01*
X497002Y-104004D01*
X497272Y-103352D01*
Y-102801D01*
X498629Y-101444D01*
X498870Y-101083D01*
X498873Y-101067D01*
X501842D01*
Y-102323D01*
X500693D01*
Y-108228D01*
X512307D01*
Y-108055D01*
X512701Y-107999D01*
X513264Y-108562D01*
X513228Y-108648D01*
Y-109352D01*
X513498Y-110004D01*
X513996Y-110502D01*
X514648Y-110772D01*
X515352D01*
X516004Y-110502D01*
X516502Y-110004D01*
X516772Y-109352D01*
Y-108648D01*
X516502Y-107996D01*
X516004Y-107498D01*
X515352Y-107228D01*
X514648D01*
X514562Y-107264D01*
X513690Y-106392D01*
X513392Y-106193D01*
X513041Y-106123D01*
X512307D01*
Y-102323D01*
X509239D01*
X509076Y-101929D01*
X509426Y-101580D01*
X509593Y-101175D01*
X509965Y-101067D01*
Y-101067D01*
X509965Y-101067D01*
X518035D01*
Y-101067D01*
X518429Y-100926D01*
X518555Y-101013D01*
Y-134786D01*
X518102Y-135240D01*
X517832Y-135891D01*
Y-136596D01*
X518102Y-137247D01*
X518600Y-137745D01*
X519251Y-138015D01*
X519956D01*
X520607Y-137745D01*
X521105Y-137247D01*
X521375Y-136596D01*
Y-135891D01*
X521105Y-135240D01*
X520607Y-134741D01*
X520594Y-134736D01*
Y-100765D01*
X521077Y-100283D01*
X521346Y-99632D01*
Y-98927D01*
X521077Y-98276D01*
X520578Y-97777D01*
X519927Y-97508D01*
X519222D01*
X518571Y-97777D01*
X518429Y-97920D01*
X518035Y-97834D01*
Y-96933D01*
X509965D01*
Y-98962D01*
X508656D01*
X508276Y-98805D01*
X507571D01*
X507521Y-98825D01*
X507151Y-98552D01*
Y-98064D01*
X506882Y-97413D01*
X506383Y-96914D01*
X505732Y-96644D01*
D02*
G37*
G36*
X315852Y-86728D02*
X315148D01*
X314496Y-86998D01*
X313998Y-87496D01*
X313728Y-88148D01*
Y-88852D01*
X313998Y-89504D01*
X314496Y-90002D01*
X314582Y-90038D01*
Y-137594D01*
X314410Y-137766D01*
X314140Y-138417D01*
Y-139122D01*
X314410Y-139773D01*
X314908Y-140271D01*
X315560Y-140541D01*
X316264D01*
X316915Y-140271D01*
X317414Y-139773D01*
X317684Y-139122D01*
Y-138417D01*
X317414Y-137766D01*
X316915Y-137268D01*
X316418Y-137062D01*
Y-90038D01*
X316504Y-90002D01*
X317002Y-89504D01*
X317272Y-88852D01*
Y-88148D01*
X317002Y-87496D01*
X316504Y-86998D01*
X315852Y-86728D01*
D02*
G37*
G36*
X404852Y-120728D02*
X404148D01*
X403496Y-120998D01*
X402998Y-121496D01*
X402728Y-122148D01*
Y-122852D01*
X402998Y-123504D01*
X403388Y-123894D01*
Y-137619D01*
X403098Y-137739D01*
X402599Y-138237D01*
X402330Y-138888D01*
Y-139593D01*
X402599Y-140244D01*
X403098Y-140743D01*
X403749Y-141012D01*
X404454D01*
X405105Y-140743D01*
X405603Y-140244D01*
X405873Y-139593D01*
Y-138888D01*
X405612Y-138258D01*
Y-123894D01*
X406002Y-123504D01*
X406272Y-122852D01*
Y-122148D01*
X406002Y-121496D01*
X405504Y-120998D01*
X404852Y-120728D01*
D02*
G37*
G36*
X375693Y-142279D02*
X374988D01*
X374337Y-142548D01*
X373839Y-143047D01*
X373569Y-143698D01*
Y-144403D01*
X373839Y-145054D01*
X374337Y-145552D01*
X374988Y-145822D01*
X375693D01*
X376344Y-145552D01*
X376843Y-145054D01*
X377112Y-144403D01*
Y-143698D01*
X376843Y-143047D01*
X376344Y-142548D01*
X375693Y-142279D01*
D02*
G37*
G36*
X136352Y-108728D02*
X135648D01*
X134996Y-108998D01*
X134498Y-109496D01*
X134228Y-110148D01*
Y-110852D01*
X134498Y-111504D01*
X134996Y-112002D01*
X135094Y-112042D01*
Y-137018D01*
X133840D01*
Y-141152D01*
X139523D01*
Y-142285D01*
X138269D01*
Y-147404D01*
X142600D01*
Y-145756D01*
X145808D01*
Y-146380D01*
X149942D01*
Y-142049D01*
X145808D01*
Y-143933D01*
X142600D01*
Y-142285D01*
X141346D01*
Y-141152D01*
X141911D01*
Y-137018D01*
X136916D01*
Y-112038D01*
X137004Y-112002D01*
X137502Y-111504D01*
X137772Y-110852D01*
Y-110148D01*
X137502Y-109496D01*
X137004Y-108998D01*
X136352Y-108728D01*
D02*
G37*
G36*
X212852Y-143228D02*
X212148D01*
X211496Y-143498D01*
X210998Y-143996D01*
X210728Y-144648D01*
Y-145352D01*
X210998Y-146004D01*
X211496Y-146502D01*
X212148Y-146772D01*
X212852D01*
X213504Y-146502D01*
X214002Y-146004D01*
X214272Y-145352D01*
Y-144648D01*
X214002Y-143996D01*
X213504Y-143498D01*
X212852Y-143228D01*
D02*
G37*
G36*
X354383Y-125721D02*
X353678D01*
X353027Y-125991D01*
X352529Y-126489D01*
X352259Y-127141D01*
Y-127845D01*
X352529Y-128497D01*
X353027Y-128995D01*
X353082Y-129018D01*
Y-143963D01*
X352996Y-143998D01*
X352498Y-144496D01*
X352228Y-145148D01*
Y-145852D01*
X352498Y-146504D01*
X352996Y-147002D01*
X353648Y-147272D01*
X354352D01*
X355004Y-147002D01*
X355502Y-146504D01*
X355772Y-145852D01*
Y-145148D01*
X355502Y-144496D01*
X355004Y-143998D01*
X354918Y-143963D01*
Y-129043D01*
X355034Y-128995D01*
X355532Y-128497D01*
X355802Y-127845D01*
Y-127141D01*
X355532Y-126489D01*
X355034Y-125991D01*
X354383Y-125721D01*
D02*
G37*
G36*
X310852Y-70728D02*
X310148D01*
X309496Y-70998D01*
X308998Y-71496D01*
X308728Y-72148D01*
Y-72852D01*
X308998Y-73504D01*
X309496Y-74002D01*
X309582Y-74037D01*
Y-143963D01*
X309496Y-143998D01*
X308998Y-144496D01*
X308728Y-145148D01*
Y-145852D01*
X308998Y-146504D01*
X309496Y-147002D01*
X310148Y-147272D01*
X310852D01*
X311504Y-147002D01*
X312002Y-146504D01*
X312272Y-145852D01*
Y-145148D01*
X312002Y-144496D01*
X311504Y-143998D01*
X311418Y-143963D01*
Y-74037D01*
X311504Y-74002D01*
X312002Y-73504D01*
X312272Y-72852D01*
Y-72148D01*
X312002Y-71496D01*
X311504Y-70998D01*
X310852Y-70728D01*
D02*
G37*
G36*
X116852Y-113228D02*
X116148D01*
X115496Y-113498D01*
X114998Y-113996D01*
X114728Y-114648D01*
Y-115352D01*
X114998Y-116004D01*
X115496Y-116502D01*
X116082Y-116745D01*
Y-143963D01*
X115996Y-143998D01*
X115498Y-144496D01*
X115228Y-145148D01*
Y-145852D01*
X115498Y-146504D01*
X115996Y-147002D01*
X116648Y-147272D01*
X117352D01*
X118004Y-147002D01*
X118502Y-146504D01*
X118772Y-145852D01*
Y-145148D01*
X118502Y-144496D01*
X118004Y-143998D01*
X117918Y-143963D01*
Y-116088D01*
X118002Y-116004D01*
X118272Y-115352D01*
Y-114648D01*
X118002Y-113996D01*
X117504Y-113498D01*
X116852Y-113228D01*
D02*
G37*
G36*
X181345Y-108717D02*
X180640D01*
X179989Y-108987D01*
X179491Y-109485D01*
X179221Y-110136D01*
Y-110841D01*
X179491Y-111492D01*
X179989Y-111990D01*
X180640Y-112260D01*
X181274D01*
Y-144160D01*
X181188Y-144195D01*
X180690Y-144694D01*
X180420Y-145345D01*
Y-146050D01*
X180690Y-146701D01*
X181188Y-147199D01*
X181839Y-147469D01*
X182544D01*
X183195Y-147199D01*
X183694Y-146701D01*
X183963Y-146050D01*
Y-145345D01*
X183694Y-144694D01*
X183195Y-144195D01*
X183109Y-144160D01*
Y-111062D01*
X183039Y-110710D01*
X182840Y-110413D01*
X182764Y-110336D01*
Y-110136D01*
X182494Y-109485D01*
X181996Y-108987D01*
X181345Y-108717D01*
D02*
G37*
G36*
X123852Y-130228D02*
X123148D01*
X122496Y-130498D01*
X121998Y-130996D01*
X121728Y-131648D01*
Y-132352D01*
X121998Y-133004D01*
X122496Y-133502D01*
X123148Y-133772D01*
X123485D01*
Y-148559D01*
X123399Y-148595D01*
X122901Y-149093D01*
X122631Y-149744D01*
Y-150449D01*
X122901Y-151101D01*
X123399Y-151599D01*
X124051Y-151869D01*
X124756D01*
X125407Y-151599D01*
X125905Y-151101D01*
X126175Y-150449D01*
Y-149744D01*
X125905Y-149093D01*
X125407Y-148595D01*
X125321Y-148559D01*
Y-133219D01*
X125251Y-132868D01*
X125132Y-132690D01*
X125272Y-132352D01*
Y-131648D01*
X125002Y-130996D01*
X124504Y-130498D01*
X123852Y-130228D01*
D02*
G37*
G36*
X164852Y-97228D02*
X164148D01*
X163496Y-97498D01*
X162998Y-97996D01*
X162728Y-98648D01*
Y-99352D01*
X162998Y-100004D01*
X163496Y-100502D01*
X163582Y-100538D01*
Y-141120D01*
X160851Y-143851D01*
X160652Y-144149D01*
X160582Y-144500D01*
Y-151962D01*
X160496Y-151998D01*
X159998Y-152496D01*
X159728Y-153148D01*
Y-153852D01*
X159998Y-154504D01*
X160496Y-155002D01*
X161148Y-155272D01*
X161852D01*
X162504Y-155002D01*
X163002Y-154504D01*
X163272Y-153852D01*
Y-153148D01*
X163002Y-152496D01*
X162504Y-151998D01*
X162418Y-151962D01*
Y-144880D01*
X165149Y-142149D01*
X165348Y-141851D01*
X165418Y-141500D01*
Y-100538D01*
X165504Y-100502D01*
X166002Y-100004D01*
X166272Y-99352D01*
Y-98648D01*
X166002Y-97996D01*
X165504Y-97498D01*
X164852Y-97228D01*
D02*
G37*
G36*
X82394Y-152788D02*
X81690D01*
X81038Y-153057D01*
X80540Y-153556D01*
X80529Y-153582D01*
X76000D01*
X75649Y-153652D01*
X75351Y-153851D01*
X31351Y-197851D01*
X31152Y-198149D01*
X31082Y-198500D01*
Y-214963D01*
X30996Y-214998D01*
X30498Y-215496D01*
X30228Y-216148D01*
Y-216852D01*
X30498Y-217504D01*
X30996Y-218002D01*
X31648Y-218272D01*
X32352D01*
X33004Y-218002D01*
X33502Y-217504D01*
X33772Y-216852D01*
Y-216148D01*
X33502Y-215496D01*
X33004Y-214998D01*
X32918Y-214963D01*
Y-198880D01*
X76380Y-155418D01*
X80480D01*
X80540Y-155563D01*
X81038Y-156061D01*
X81690Y-156331D01*
X82394D01*
X83046Y-156061D01*
X83544Y-155563D01*
X83814Y-154912D01*
Y-154207D01*
X83544Y-153556D01*
X83046Y-153057D01*
X82394Y-152788D01*
D02*
G37*
G36*
X85852Y-157228D02*
X85148D01*
X84496Y-157498D01*
X83998Y-157996D01*
X83728Y-158648D01*
Y-159352D01*
X83764Y-159438D01*
X62620Y-180582D01*
X56537D01*
X56502Y-180496D01*
X56004Y-179998D01*
X55352Y-179728D01*
X54648D01*
X53996Y-179998D01*
X53498Y-180496D01*
X53228Y-181148D01*
Y-181852D01*
X53498Y-182504D01*
X53996Y-183002D01*
X54648Y-183272D01*
X55352D01*
X56004Y-183002D01*
X56502Y-182504D01*
X56537Y-182418D01*
X63000D01*
X63351Y-182348D01*
X63649Y-182149D01*
X85062Y-160736D01*
X85148Y-160772D01*
X85852D01*
X86504Y-160502D01*
X87002Y-160004D01*
X87272Y-159352D01*
Y-158648D01*
X87002Y-157996D01*
X86504Y-157498D01*
X85852Y-157228D01*
D02*
G37*
G36*
X320250Y-84013D02*
X319545D01*
X318894Y-84283D01*
X318395Y-84781D01*
X318126Y-85433D01*
Y-86137D01*
X318395Y-86789D01*
X318894Y-87287D01*
X318980Y-87323D01*
Y-165015D01*
X318498Y-165496D01*
X318228Y-166148D01*
Y-166852D01*
X318498Y-167504D01*
X318996Y-168002D01*
X319648Y-168272D01*
X320352D01*
X321004Y-168002D01*
X321502Y-167504D01*
X321772Y-166852D01*
Y-166148D01*
X321502Y-165496D01*
X321004Y-164998D01*
X320815Y-164920D01*
Y-87323D01*
X320901Y-87287D01*
X321399Y-86789D01*
X321669Y-86137D01*
Y-85433D01*
X321399Y-84781D01*
X320901Y-84283D01*
X320250Y-84013D01*
D02*
G37*
G36*
X361352Y-144728D02*
X360648D01*
X359996Y-144998D01*
X359498Y-145496D01*
X359228Y-146148D01*
Y-146852D01*
X359498Y-147504D01*
X359996Y-148002D01*
X360082Y-148038D01*
Y-171584D01*
X359951Y-171716D01*
X359811Y-171925D01*
X359417Y-171832D01*
Y-170000D01*
X359348Y-169649D01*
X359149Y-169351D01*
X356736Y-166938D01*
X356772Y-166852D01*
Y-166148D01*
X356502Y-165496D01*
X356004Y-164998D01*
X355352Y-164728D01*
X354648D01*
X353996Y-164998D01*
X353498Y-165496D01*
X353228Y-166148D01*
Y-166852D01*
X353498Y-167504D01*
X353996Y-168002D01*
X354648Y-168272D01*
X355352D01*
X355438Y-168236D01*
X357582Y-170380D01*
Y-178835D01*
X357652Y-179186D01*
X357851Y-179484D01*
X358860Y-180493D01*
X358783Y-180879D01*
X358496Y-180998D01*
X357998Y-181496D01*
X357728Y-182148D01*
Y-182852D01*
X357998Y-183504D01*
X358496Y-184002D01*
X359148Y-184272D01*
X359852D01*
X360504Y-184002D01*
X361002Y-183504D01*
X361121Y-183217D01*
X361507Y-183140D01*
X364082Y-185715D01*
Y-198620D01*
X363996Y-198656D01*
X363498Y-199154D01*
X363228Y-199805D01*
Y-200510D01*
X363498Y-201162D01*
X363996Y-201660D01*
X364648Y-201930D01*
X365352D01*
X366004Y-201660D01*
X366502Y-201162D01*
X366772Y-200510D01*
Y-199805D01*
X366502Y-199154D01*
X366004Y-198656D01*
X365918Y-198620D01*
Y-185335D01*
X365848Y-184984D01*
X365649Y-184686D01*
X359417Y-178455D01*
Y-176420D01*
X359745Y-176202D01*
X360032Y-176320D01*
X360736D01*
X361388Y-176051D01*
X361886Y-175552D01*
X362156Y-174901D01*
Y-174196D01*
X361886Y-173545D01*
X361518Y-173177D01*
Y-172745D01*
X361649Y-172613D01*
X361848Y-172316D01*
X361918Y-171965D01*
Y-148038D01*
X362004Y-148002D01*
X362502Y-147504D01*
X362772Y-146852D01*
Y-146148D01*
X362502Y-145496D01*
X362004Y-144998D01*
X361352Y-144728D01*
D02*
G37*
G36*
X98352Y-162228D02*
X97648D01*
X96996Y-162498D01*
X96498Y-162996D01*
X96228Y-163648D01*
Y-164352D01*
X96498Y-165004D01*
X96829Y-165335D01*
X96666Y-165728D01*
X96648D01*
X95996Y-165998D01*
X95498Y-166496D01*
X95228Y-167148D01*
Y-167852D01*
X95498Y-168504D01*
X95899Y-168905D01*
X95875Y-169273D01*
X95837Y-169357D01*
X95496Y-169498D01*
X94998Y-169996D01*
X94728Y-170648D01*
Y-171352D01*
X94998Y-172004D01*
X95496Y-172502D01*
X96148Y-172772D01*
X96852D01*
X97504Y-172502D01*
X98002Y-172004D01*
X98272Y-171352D01*
Y-170648D01*
X98002Y-169996D01*
X97601Y-169595D01*
X97625Y-169227D01*
X97663Y-169143D01*
X98004Y-169002D01*
X98502Y-168504D01*
X98772Y-167852D01*
Y-167148D01*
X98502Y-166496D01*
X98171Y-166165D01*
X98334Y-165772D01*
X98352D01*
X99004Y-165502D01*
X99502Y-165004D01*
X99772Y-164352D01*
Y-163648D01*
X99502Y-162996D01*
X99004Y-162498D01*
X98352Y-162228D01*
D02*
G37*
G36*
X420352Y-107228D02*
X419648D01*
X418996Y-107498D01*
X418498Y-107996D01*
X418228Y-108648D01*
Y-109352D01*
X418498Y-110004D01*
X418996Y-110502D01*
X419082Y-110538D01*
Y-171962D01*
X418996Y-171998D01*
X418498Y-172496D01*
X418228Y-173148D01*
Y-173852D01*
X418498Y-174504D01*
X418996Y-175002D01*
X419648Y-175272D01*
X420352D01*
X421004Y-175002D01*
X421502Y-174504D01*
X421772Y-173852D01*
Y-173148D01*
X421502Y-172496D01*
X421004Y-171998D01*
X420918Y-171962D01*
Y-110538D01*
X421004Y-110502D01*
X421502Y-110004D01*
X421772Y-109352D01*
Y-108648D01*
X421502Y-107996D01*
X421004Y-107498D01*
X420352Y-107228D01*
D02*
G37*
G36*
X387352Y-171728D02*
X386648D01*
X385996Y-171998D01*
X385498Y-172496D01*
X385228Y-173148D01*
Y-173852D01*
X385498Y-174504D01*
X385996Y-175002D01*
X386648Y-175272D01*
X387352D01*
X388004Y-175002D01*
X388502Y-174504D01*
X388772Y-173852D01*
Y-173148D01*
X388502Y-172496D01*
X388004Y-171998D01*
X387352Y-171728D01*
D02*
G37*
G36*
X140041Y-149766D02*
X135710D01*
Y-154884D01*
X135372Y-155018D01*
X130840D01*
Y-157863D01*
X128006Y-160697D01*
X117000D01*
X116693Y-160758D01*
X116432Y-160932D01*
X116258Y-161193D01*
X116197Y-161500D01*
Y-182000D01*
X116258Y-182307D01*
X116432Y-182568D01*
X116693Y-182742D01*
X117000Y-182803D01*
X132000D01*
X132307Y-182742D01*
X132568Y-182568D01*
X132742Y-182307D01*
X132803Y-182000D01*
Y-161500D01*
X132742Y-161193D01*
X132568Y-160932D01*
X132307Y-160758D01*
X132000Y-160697D01*
X131097D01*
X130947Y-160333D01*
X132128Y-159152D01*
X135834D01*
Y-161803D01*
X134291D01*
Y-177551D01*
X143740D01*
Y-161803D01*
X137656D01*
Y-159152D01*
X138911D01*
Y-155018D01*
X139249Y-154884D01*
X140041D01*
Y-149766D01*
D02*
G37*
G36*
X366352Y-143228D02*
X365648D01*
X364996Y-143498D01*
X364498Y-143996D01*
X364228Y-144648D01*
Y-145352D01*
X364498Y-146004D01*
X364996Y-146502D01*
X365365Y-146654D01*
Y-177799D01*
X364882Y-178281D01*
X364613Y-178932D01*
Y-179637D01*
X364882Y-180288D01*
X365381Y-180787D01*
X366032Y-181056D01*
X366737D01*
X367388Y-180787D01*
X367886Y-180288D01*
X368156Y-179637D01*
Y-178932D01*
X367886Y-178281D01*
X367404Y-177799D01*
Y-146102D01*
X367502Y-146004D01*
X367772Y-145352D01*
Y-144648D01*
X367502Y-143996D01*
X367004Y-143498D01*
X366352Y-143228D01*
D02*
G37*
G36*
X390852Y-125728D02*
X390148D01*
X389496Y-125998D01*
X388998Y-126496D01*
X388728Y-127148D01*
Y-127852D01*
X388998Y-128504D01*
X389496Y-129002D01*
X390148Y-129272D01*
X390852D01*
X390938Y-129236D01*
X392414Y-130712D01*
Y-194462D01*
X392328Y-194497D01*
X391830Y-194996D01*
X391560Y-195647D01*
Y-196352D01*
X391830Y-197003D01*
X392328Y-197501D01*
X392979Y-197771D01*
X393684D01*
X394335Y-197501D01*
X394833Y-197003D01*
X395103Y-196352D01*
Y-195647D01*
X394833Y-194996D01*
X394335Y-194497D01*
X394249Y-194462D01*
Y-181027D01*
X394643Y-180889D01*
X395264Y-181146D01*
X395968D01*
X396620Y-180876D01*
X397118Y-180378D01*
X397388Y-179727D01*
Y-179022D01*
X397118Y-178371D01*
X396620Y-177872D01*
X395968Y-177603D01*
X395264D01*
X394643Y-177860D01*
X394249Y-177721D01*
Y-130332D01*
X394179Y-129980D01*
X393980Y-129683D01*
X392236Y-127938D01*
X392272Y-127852D01*
Y-127148D01*
X392002Y-126496D01*
X391504Y-125998D01*
X390852Y-125728D01*
D02*
G37*
G36*
X434852Y-134228D02*
X434148D01*
X433496Y-134498D01*
X432998Y-134996D01*
X432728Y-135648D01*
Y-136352D01*
X432998Y-137004D01*
X433480Y-137486D01*
Y-178157D01*
X432999Y-178638D01*
X432729Y-179289D01*
Y-179994D01*
X432999Y-180646D01*
X433497Y-181144D01*
X434148Y-181414D01*
X434853D01*
X435504Y-181144D01*
X436003Y-180646D01*
X436272Y-179994D01*
Y-179289D01*
X436003Y-178638D01*
X435520Y-178155D01*
Y-137486D01*
X436002Y-137004D01*
X436272Y-136352D01*
Y-135648D01*
X436002Y-134996D01*
X435504Y-134498D01*
X434852Y-134228D01*
D02*
G37*
G36*
X507831Y-174480D02*
X499991D01*
Y-182320D01*
X507831D01*
Y-174480D01*
D02*
G37*
G36*
X473982Y-174921D02*
X473277D01*
X472626Y-175190D01*
X472127Y-175689D01*
X471858Y-176340D01*
Y-177045D01*
X472127Y-177696D01*
X472618Y-178186D01*
Y-178807D01*
X471669D01*
Y-184319D01*
X475213D01*
Y-178807D01*
X474453D01*
Y-178269D01*
X474633Y-178194D01*
X475131Y-177696D01*
X475401Y-177045D01*
Y-176340D01*
X475131Y-175689D01*
X474633Y-175190D01*
X473982Y-174921D01*
D02*
G37*
G36*
X401156Y-181527D02*
X400451D01*
X399800Y-181797D01*
X399302Y-182295D01*
X399032Y-182946D01*
Y-183651D01*
X399302Y-184302D01*
X399800Y-184801D01*
X400451Y-185070D01*
X401156D01*
X401807Y-184801D01*
X402306Y-184302D01*
X402575Y-183651D01*
Y-182946D01*
X402306Y-182295D01*
X401807Y-181797D01*
X401156Y-181527D01*
D02*
G37*
G36*
X444852Y-101228D02*
X444148D01*
X443496Y-101498D01*
X442998Y-101996D01*
X442728Y-102648D01*
Y-103352D01*
X442998Y-104004D01*
X443388Y-104394D01*
Y-182106D01*
X442998Y-182496D01*
X442728Y-183148D01*
Y-183852D01*
X442998Y-184504D01*
X443496Y-185002D01*
X444148Y-185272D01*
X444852D01*
X445504Y-185002D01*
X446002Y-184504D01*
X446272Y-183852D01*
Y-183148D01*
X446002Y-182496D01*
X445612Y-182106D01*
Y-104394D01*
X446002Y-104004D01*
X446272Y-103352D01*
Y-102648D01*
X446002Y-101996D01*
X445504Y-101498D01*
X444852Y-101228D01*
D02*
G37*
G36*
X371114Y-145975D02*
X370410D01*
X369759Y-146245D01*
X369260Y-146744D01*
X368990Y-147395D01*
Y-148100D01*
X369260Y-148751D01*
X369650Y-149141D01*
Y-182434D01*
X369487Y-182597D01*
X369217Y-183248D01*
Y-183953D01*
X369487Y-184604D01*
X369985Y-185102D01*
X370636Y-185372D01*
X371341D01*
X371992Y-185102D01*
X372491Y-184604D01*
X372760Y-183953D01*
Y-183248D01*
X372491Y-182597D01*
X371992Y-182099D01*
X371874Y-182050D01*
Y-149141D01*
X372264Y-148751D01*
X372534Y-148100D01*
Y-147395D01*
X372264Y-146744D01*
X371766Y-146245D01*
X371114Y-145975D01*
D02*
G37*
G36*
X493227Y-179880D02*
X492195D01*
X491197Y-180147D01*
X490304Y-180663D01*
X489574Y-181393D01*
X489058Y-182287D01*
X488791Y-183284D01*
Y-184316D01*
X489058Y-185313D01*
X489574Y-186207D01*
X490304Y-186937D01*
X491030Y-187356D01*
X490924Y-187750D01*
X477772D01*
Y-186681D01*
X474228D01*
Y-190895D01*
X474041Y-191082D01*
X448530D01*
X448179Y-191152D01*
X447881Y-191351D01*
X443951Y-195281D01*
X443752Y-195579D01*
X443682Y-195930D01*
Y-198520D01*
X442952Y-199250D01*
X442886Y-199263D01*
X442588Y-199462D01*
X440203Y-201847D01*
X440194Y-201861D01*
X440158Y-201868D01*
X439833Y-202085D01*
X439616Y-202410D01*
X439540Y-202793D01*
Y-204766D01*
X439616Y-205149D01*
X439833Y-205474D01*
X440158Y-205691D01*
X440541Y-205767D01*
X441057D01*
X441440Y-205691D01*
X441765Y-205474D01*
X441802D01*
X442126Y-205691D01*
X442510Y-205767D01*
X443026D01*
X443409Y-205691D01*
X443734Y-205474D01*
X443951Y-205149D01*
X444027Y-204766D01*
Y-202793D01*
X443993Y-202622D01*
X444342Y-202272D01*
X444409Y-202259D01*
X444706Y-202060D01*
X446549Y-200217D01*
X446748Y-199920D01*
X446818Y-199568D01*
Y-196849D01*
X448286Y-195380D01*
X448650Y-195531D01*
Y-198870D01*
X452660D01*
Y-200432D01*
X451847Y-201244D01*
X451483Y-201094D01*
Y-200961D01*
X451214Y-200310D01*
X450715Y-199812D01*
X450064Y-199542D01*
X449359D01*
X448708Y-199812D01*
X448210Y-200310D01*
X447940Y-200961D01*
Y-201330D01*
X447878Y-201423D01*
X447808Y-201774D01*
Y-202017D01*
X447707Y-202085D01*
X447490Y-202410D01*
X447414Y-202793D01*
Y-204766D01*
X447490Y-205149D01*
X447707Y-205474D01*
X448032Y-205691D01*
X448415Y-205767D01*
X448905D01*
X448939Y-205774D01*
X449237Y-206073D01*
X449244Y-206106D01*
Y-206597D01*
X449321Y-206980D01*
X449538Y-207305D01*
Y-207341D01*
X449321Y-207666D01*
X449244Y-208049D01*
Y-208565D01*
X449321Y-208948D01*
X449538Y-209273D01*
X449863Y-209490D01*
X450246Y-209566D01*
X452219D01*
X452602Y-209490D01*
X452927Y-209273D01*
X453032Y-209115D01*
X453097Y-209102D01*
X453395Y-208903D01*
X457787Y-204510D01*
X458181Y-204673D01*
Y-206379D01*
X453314Y-211246D01*
X452927Y-211278D01*
X452602Y-211061D01*
X452219Y-210985D01*
X450246D01*
X449863Y-211061D01*
X449538Y-211278D01*
X449321Y-211603D01*
X449244Y-211986D01*
Y-212502D01*
X449321Y-212885D01*
X449336Y-212908D01*
X449527Y-213228D01*
X449336Y-213549D01*
X449321Y-213571D01*
X449244Y-213954D01*
Y-214471D01*
X449321Y-214854D01*
X449336Y-214876D01*
X449527Y-215197D01*
X449336Y-215517D01*
X449321Y-215540D01*
X449244Y-215923D01*
Y-216439D01*
X449321Y-216822D01*
X449538Y-217147D01*
Y-217183D01*
X449321Y-217508D01*
X449244Y-217892D01*
Y-218408D01*
X449321Y-218791D01*
X449538Y-219116D01*
X449863Y-219333D01*
X450246Y-219409D01*
X452219D01*
X452602Y-219333D01*
X452861Y-219159D01*
X454351Y-220649D01*
X454540Y-220775D01*
X454421Y-221169D01*
X452959D01*
X452927Y-221121D01*
X452602Y-220903D01*
X452219Y-220827D01*
X450246D01*
X449863Y-220903D01*
X449538Y-221121D01*
X449321Y-221445D01*
X449244Y-221829D01*
Y-222345D01*
X449321Y-222728D01*
X449336Y-222750D01*
X449527Y-223071D01*
X449336Y-223391D01*
X449321Y-223414D01*
X449244Y-223797D01*
Y-224313D01*
X449321Y-224696D01*
X449538Y-225021D01*
X449863Y-225238D01*
X450246Y-225314D01*
X452219D01*
X452602Y-225238D01*
X452927Y-225021D01*
X452959Y-224973D01*
X461260D01*
X461646Y-224992D01*
Y-229008D01*
X465819D01*
Y-226418D01*
X470865D01*
X472116Y-227669D01*
X472152Y-227851D01*
X472351Y-228149D01*
X472957Y-228754D01*
X472980Y-228874D01*
X473179Y-229172D01*
X473875Y-229868D01*
X474173Y-230067D01*
X474524Y-230136D01*
X477476D01*
X477827Y-230067D01*
X478125Y-229868D01*
X478821Y-229172D01*
X479019Y-228874D01*
X479089Y-228523D01*
Y-228356D01*
X479807Y-227638D01*
X480006Y-227341D01*
X480018Y-227280D01*
X481380Y-225918D01*
X497000D01*
X497351Y-225848D01*
X497649Y-225649D01*
X498809Y-224489D01*
X501301Y-226982D01*
X501599Y-227181D01*
X501950Y-227250D01*
X505871D01*
X506222Y-227181D01*
X506520Y-226981D01*
X509292Y-224209D01*
X509491Y-223911D01*
X509561Y-223560D01*
Y-219640D01*
X509491Y-219288D01*
X509292Y-218991D01*
X506520Y-216218D01*
X506222Y-216020D01*
X505871Y-215950D01*
X501301D01*
X500949Y-216020D01*
X500652Y-216218D01*
X499788Y-217082D01*
X498918D01*
Y-214796D01*
X498848Y-214445D01*
X498649Y-214147D01*
X495320Y-210819D01*
X495022Y-210619D01*
X494671Y-210550D01*
X490750D01*
X490399Y-210619D01*
X490101Y-210819D01*
X487329Y-213591D01*
X487130Y-213889D01*
X487060Y-214240D01*
Y-218160D01*
X487066Y-218189D01*
X486743Y-218582D01*
X479089D01*
Y-216977D01*
X479019Y-216625D01*
X478821Y-216328D01*
X478125Y-215632D01*
X477827Y-215433D01*
X477476Y-215364D01*
X474524D01*
X474173Y-215433D01*
X473875Y-215632D01*
X473179Y-216328D01*
X472981Y-216625D01*
X472911Y-216977D01*
Y-218962D01*
X466252D01*
Y-216933D01*
X466252Y-216933D01*
Y-216764D01*
X466252D01*
X466252Y-216539D01*
Y-212630D01*
X466252Y-212630D01*
Y-212264D01*
X466252D01*
X466252Y-212236D01*
Y-208130D01*
X459790D01*
X459595Y-207736D01*
X459716Y-207579D01*
X466252D01*
Y-203445D01*
X461264D01*
Y-203020D01*
X462354D01*
Y-199004D01*
X459882D01*
X459673Y-198610D01*
X459734Y-198520D01*
X462354D01*
Y-194504D01*
X462614Y-194218D01*
X473841D01*
X474228Y-194605D01*
Y-198819D01*
X477772D01*
Y-195412D01*
X483314D01*
X483665Y-195342D01*
X483963Y-195143D01*
X488189Y-190918D01*
X493702D01*
X500629Y-197845D01*
X500258Y-198487D01*
X499991Y-199484D01*
Y-200516D01*
X500258Y-201513D01*
X500774Y-202407D01*
X501504Y-203137D01*
X502397Y-203653D01*
X503395Y-203920D01*
X504427D01*
X505424Y-203653D01*
X506318Y-203137D01*
X507048Y-202407D01*
X507563Y-201513D01*
X507831Y-200516D01*
Y-199484D01*
X507563Y-198487D01*
X507048Y-197593D01*
X506318Y-196863D01*
X505424Y-196347D01*
X504427Y-196080D01*
X503395D01*
X502397Y-196347D01*
X501972Y-196593D01*
X499041Y-193661D01*
X499204Y-193268D01*
X500761D01*
X501112Y-193198D01*
X501409Y-192999D01*
X501864Y-192545D01*
X502397Y-192853D01*
X503395Y-193120D01*
X504427D01*
X505424Y-192853D01*
X506318Y-192337D01*
X507048Y-191607D01*
X507563Y-190713D01*
X507831Y-189716D01*
Y-188684D01*
X507563Y-187687D01*
X507048Y-186793D01*
X506318Y-186063D01*
X505424Y-185547D01*
X504427Y-185280D01*
X503395D01*
X502397Y-185547D01*
X501504Y-186063D01*
X500774Y-186793D01*
X500258Y-187687D01*
X499991Y-188684D01*
Y-189716D01*
X500258Y-190713D01*
X500466Y-191074D01*
X500218Y-191432D01*
X499380D01*
X495966Y-188019D01*
X495669Y-187820D01*
X495317Y-187750D01*
X494497D01*
X494392Y-187356D01*
X495118Y-186937D01*
X495848Y-186207D01*
X496364Y-185313D01*
X496631Y-184316D01*
Y-183284D01*
X496364Y-182287D01*
X495848Y-181393D01*
X495118Y-180663D01*
X494224Y-180147D01*
X493227Y-179880D01*
D02*
G37*
G36*
X339852Y-184228D02*
X339148D01*
X338496Y-184498D01*
X337998Y-184996D01*
X337728Y-185648D01*
Y-186352D01*
X337998Y-187004D01*
X338496Y-187502D01*
X339148Y-187772D01*
X339852D01*
X340504Y-187502D01*
X341002Y-187004D01*
X341272Y-186352D01*
Y-185648D01*
X341002Y-184996D01*
X340504Y-184498D01*
X339852Y-184228D01*
D02*
G37*
G36*
X425852Y-186728D02*
X425148D01*
X424496Y-186998D01*
X423998Y-187496D01*
X423728Y-188148D01*
Y-188852D01*
X423998Y-189504D01*
X424496Y-190002D01*
X425148Y-190272D01*
X425852D01*
X426504Y-190002D01*
X427002Y-189504D01*
X427272Y-188852D01*
Y-188148D01*
X427002Y-187496D01*
X426504Y-186998D01*
X425852Y-186728D01*
D02*
G37*
G36*
X142205Y-185031D02*
X117795D01*
Y-211016D01*
X125145D01*
Y-219000D01*
Y-227915D01*
X125335Y-229351D01*
X125757Y-230371D01*
Y-232715D01*
X125430Y-232933D01*
X125173Y-232827D01*
X124468D01*
X123817Y-233097D01*
X123319Y-233595D01*
X123049Y-234246D01*
Y-234951D01*
X123319Y-235602D01*
X123817Y-236101D01*
X124468Y-236370D01*
X125173D01*
X125430Y-236264D01*
X125757Y-236483D01*
Y-246405D01*
X125443Y-247162D01*
X125201Y-248379D01*
Y-249620D01*
X125443Y-250837D01*
X125918Y-251983D01*
X126608Y-253015D01*
X127485Y-253892D01*
X128517Y-254582D01*
X129663Y-255057D01*
X130880Y-255299D01*
X132121D01*
X133338Y-255057D01*
X134484Y-254582D01*
X135516Y-253892D01*
X136393Y-253015D01*
X137083Y-251983D01*
X137558Y-250837D01*
X137800Y-249620D01*
Y-248379D01*
X137558Y-247162D01*
X137083Y-246016D01*
X136852Y-245671D01*
Y-228527D01*
X136663Y-227091D01*
X136240Y-226070D01*
Y-219000D01*
Y-213803D01*
X136634Y-213640D01*
X136996Y-214002D01*
X137648Y-214272D01*
X138158D01*
X138403Y-214430D01*
X138469Y-214635D01*
Y-215013D01*
X138384Y-215077D01*
X137503Y-216226D01*
X136949Y-217564D01*
X136760Y-219000D01*
X136949Y-220436D01*
X137503Y-221774D01*
X138384Y-222923D01*
X138469Y-223007D01*
Y-223528D01*
X138989D01*
X146036Y-230575D01*
X145953Y-231207D01*
Y-245964D01*
X145918Y-246016D01*
X145443Y-247162D01*
X145201Y-248379D01*
Y-249620D01*
X145443Y-250837D01*
X145918Y-251983D01*
X146608Y-253015D01*
X147485Y-253892D01*
X148517Y-254582D01*
X149663Y-255057D01*
X150880Y-255299D01*
X152121D01*
X153338Y-255057D01*
X154484Y-254582D01*
X155516Y-253892D01*
X156394Y-253015D01*
X157083Y-251983D01*
X157558Y-250837D01*
X157800Y-249620D01*
Y-248379D01*
X157558Y-247162D01*
X157083Y-246016D01*
X157048Y-245964D01*
Y-231207D01*
X156859Y-229771D01*
X156830Y-229700D01*
X156859Y-229629D01*
X157048Y-228193D01*
X156859Y-226758D01*
X156305Y-225420D01*
X155423Y-224271D01*
X146230Y-215077D01*
X146146Y-215013D01*
Y-214472D01*
X145441D01*
X145081Y-214196D01*
X144918Y-214128D01*
Y-213440D01*
X145108Y-213361D01*
X145607Y-212863D01*
X145877Y-212212D01*
Y-212001D01*
X146270Y-211738D01*
X146717Y-211923D01*
X147500Y-212026D01*
X148283Y-211923D01*
X149013Y-211620D01*
X149640Y-211140D01*
X150120Y-210513D01*
X150423Y-209783D01*
X150526Y-209000D01*
X150423Y-208217D01*
X150120Y-207487D01*
X149640Y-206860D01*
X148368Y-205589D01*
X147741Y-205108D01*
X147011Y-204806D01*
X146228Y-204702D01*
X144860D01*
X144697Y-204309D01*
X145002Y-204004D01*
X145272Y-203352D01*
Y-202648D01*
X145002Y-201996D01*
X144504Y-201498D01*
X143852Y-201228D01*
X143148D01*
X142598Y-201456D01*
X142205Y-201275D01*
Y-190225D01*
X142598Y-190044D01*
X143148Y-190272D01*
X143852D01*
X144504Y-190002D01*
X145002Y-189504D01*
X145272Y-188852D01*
Y-188148D01*
X145002Y-187496D01*
X144504Y-186998D01*
X143852Y-186728D01*
X143148D01*
X142598Y-186956D01*
X142205Y-186775D01*
Y-185031D01*
D02*
G37*
G36*
X178852Y-112228D02*
X178148D01*
X177496Y-112498D01*
X176998Y-112996D01*
X176728Y-113648D01*
Y-114352D01*
X176998Y-115004D01*
X177496Y-115502D01*
X177582Y-115538D01*
Y-190869D01*
X177189Y-190947D01*
X177002Y-190496D01*
X176504Y-189998D01*
X175852Y-189728D01*
X175148D01*
X174496Y-189998D01*
X173998Y-190496D01*
X173783Y-191015D01*
X173390Y-190937D01*
Y-189522D01*
X173476Y-189486D01*
X173974Y-188988D01*
X174244Y-188337D01*
Y-187632D01*
X173974Y-186981D01*
X173476Y-186482D01*
X172824Y-186213D01*
X172120D01*
X171468Y-186482D01*
X170970Y-186981D01*
X170700Y-187632D01*
Y-188337D01*
X170970Y-188988D01*
X171468Y-189486D01*
X171554Y-189522D01*
Y-199212D01*
X171484Y-199318D01*
X171414Y-199669D01*
Y-200015D01*
X171439Y-200140D01*
X171228Y-200648D01*
Y-201352D01*
X171498Y-202004D01*
X171996Y-202502D01*
X172648Y-202772D01*
X173352D01*
X174004Y-202502D01*
X174195Y-202310D01*
X174589Y-202473D01*
Y-203188D01*
X174658Y-203537D01*
X174856Y-203832D01*
X174987Y-203963D01*
Y-213960D01*
X174894Y-213998D01*
X174396Y-214496D01*
X174126Y-215148D01*
Y-215852D01*
X174396Y-216504D01*
X174894Y-217002D01*
X174985Y-217039D01*
X174907Y-217433D01*
X173861D01*
X170885Y-214458D01*
X170587Y-214259D01*
X170236Y-214189D01*
X170075D01*
Y-211760D01*
X166138D01*
Y-218453D01*
X170075D01*
Y-216757D01*
X170439Y-216606D01*
X172465Y-218632D01*
Y-221567D01*
X172465D01*
Y-221933D01*
X172465D01*
Y-226067D01*
X176795D01*
Y-221933D01*
X176795D01*
X176862Y-221567D01*
X180535D01*
Y-217433D01*
X179418D01*
Y-115538D01*
X179504Y-115502D01*
X180002Y-115004D01*
X180272Y-114352D01*
Y-113648D01*
X180002Y-112996D01*
X179504Y-112498D01*
X178852Y-112228D01*
D02*
G37*
G36*
X163852Y-187413D02*
X163148D01*
X162496Y-187682D01*
X161998Y-188181D01*
X161728Y-188832D01*
Y-189537D01*
X161998Y-190188D01*
X162496Y-190686D01*
X163148Y-190956D01*
X163852D01*
X164504Y-190686D01*
X165002Y-190188D01*
X165272Y-189537D01*
Y-188832D01*
X165002Y-188181D01*
X164504Y-187682D01*
X163852Y-187413D01*
D02*
G37*
G36*
X431567Y-189965D02*
X427433D01*
Y-191212D01*
X415958D01*
X415931Y-191147D01*
X415433Y-190649D01*
X414781Y-190379D01*
X414077D01*
X413425Y-190649D01*
X412927Y-191147D01*
X412657Y-191798D01*
Y-192503D01*
X412927Y-193154D01*
X413425Y-193652D01*
X414077Y-193922D01*
X414781D01*
X415433Y-193652D01*
X415931Y-193154D01*
X415975Y-193048D01*
X427433D01*
Y-198035D01*
X428582D01*
Y-201594D01*
X428652Y-201946D01*
X428851Y-202243D01*
X429697Y-203089D01*
Y-204740D01*
X429690Y-204773D01*
X429391Y-205072D01*
X429358Y-205079D01*
X427411D01*
X427028Y-205155D01*
X426703Y-205373D01*
X426486Y-205697D01*
X426410Y-206081D01*
Y-206597D01*
X426486Y-206980D01*
X426497Y-206996D01*
X426286Y-207389D01*
X423187D01*
X421149Y-205351D01*
X420851Y-205152D01*
X420500Y-205082D01*
X418038D01*
X418002Y-204996D01*
X417504Y-204498D01*
X416852Y-204228D01*
X416148D01*
X415496Y-204498D01*
X414998Y-204996D01*
X414728Y-205648D01*
Y-206352D01*
X414998Y-207004D01*
X415496Y-207502D01*
X416148Y-207772D01*
X416852D01*
X417504Y-207502D01*
X418002Y-207004D01*
X418038Y-206918D01*
X420120D01*
X420612Y-207410D01*
X420389Y-207744D01*
X420352Y-207728D01*
X419648D01*
X418996Y-207998D01*
X418813Y-208181D01*
X414992D01*
Y-208704D01*
X414598Y-208867D01*
X413874Y-208143D01*
Y-205792D01*
X408363D01*
Y-209729D01*
X412288D01*
X413620Y-211061D01*
X413984Y-211304D01*
X414413Y-211389D01*
X414413Y-211389D01*
X414992D01*
Y-212354D01*
X419008D01*
Y-211386D01*
X419421Y-211304D01*
X419537Y-211226D01*
X419648Y-211272D01*
X420352D01*
X421004Y-211002D01*
X421502Y-210504D01*
X421772Y-209852D01*
Y-209148D01*
X421757Y-209111D01*
X422090Y-208888D01*
X422158Y-208956D01*
X422456Y-209155D01*
X422807Y-209225D01*
X426286D01*
X426497Y-209618D01*
X426486Y-209634D01*
X426410Y-210017D01*
Y-210105D01*
X426083Y-210324D01*
X425852Y-210228D01*
X425148D01*
X424496Y-210498D01*
X423998Y-210996D01*
X423728Y-211648D01*
Y-212182D01*
X423402Y-212446D01*
X423365Y-212457D01*
X422947Y-212284D01*
X422242D01*
X421591Y-212554D01*
X421093Y-213052D01*
X420823Y-213703D01*
Y-214408D01*
X421093Y-215059D01*
X421032Y-215366D01*
X420953Y-215476D01*
X420474Y-215955D01*
X420204Y-216607D01*
Y-217082D01*
X419537D01*
X419502Y-216996D01*
X419004Y-216498D01*
X418352Y-216228D01*
X417648D01*
X416996Y-216498D01*
X416498Y-216996D01*
X416228Y-217648D01*
Y-218352D01*
X416498Y-219004D01*
X416576Y-219081D01*
X416425Y-219445D01*
X413976D01*
Y-223579D01*
X414747D01*
Y-224277D01*
X414864Y-224862D01*
X415195Y-225358D01*
X415256Y-225419D01*
X415498Y-226004D01*
X415996Y-226502D01*
X416648Y-226772D01*
X417352D01*
X418004Y-226502D01*
X418069Y-226436D01*
X418433Y-226587D01*
Y-229795D01*
Y-233535D01*
X422567D01*
Y-229795D01*
Y-226762D01*
X424357Y-224973D01*
X426671D01*
X426703Y-225021D01*
X427028Y-225238D01*
X427411Y-225314D01*
X429114D01*
X429233Y-225708D01*
X428919Y-225919D01*
X428485Y-226352D01*
X428154Y-226848D01*
X428038Y-227433D01*
Y-228492D01*
X427181D01*
Y-228971D01*
X426437D01*
X425852Y-228728D01*
X425148D01*
X424496Y-228998D01*
X423998Y-229496D01*
X423728Y-230148D01*
Y-230852D01*
X423998Y-231504D01*
X424496Y-232002D01*
X425148Y-232272D01*
X425852D01*
X426437Y-232029D01*
X427181D01*
Y-232508D01*
X431354D01*
Y-228574D01*
X431598Y-228526D01*
X431923Y-228309D01*
X432140Y-227984D01*
X432216Y-227601D01*
Y-225628D01*
X432140Y-225245D01*
X431923Y-224920D01*
X431598Y-224703D01*
X431215Y-224626D01*
X430724D01*
X430691Y-224619D01*
X430393Y-224320D01*
X430385Y-224287D01*
Y-223797D01*
X430309Y-223414D01*
X430294Y-223391D01*
X430103Y-223071D01*
X430294Y-222750D01*
X430309Y-222728D01*
X430385Y-222345D01*
Y-221829D01*
X430309Y-221445D01*
X430092Y-221121D01*
Y-221084D01*
X430309Y-220759D01*
X430385Y-220376D01*
Y-219860D01*
X430309Y-219477D01*
X430294Y-219454D01*
X430103Y-219134D01*
X430294Y-218813D01*
X430309Y-218791D01*
X430385Y-218408D01*
Y-217892D01*
X430309Y-217508D01*
X430092Y-217183D01*
Y-217147D01*
X430309Y-216822D01*
X430385Y-216439D01*
Y-215923D01*
X430309Y-215540D01*
X430294Y-215517D01*
X430103Y-215197D01*
X430294Y-214876D01*
X430309Y-214854D01*
X430385Y-214471D01*
Y-213954D01*
X430309Y-213571D01*
X430294Y-213549D01*
X430103Y-213228D01*
X430294Y-212908D01*
X430309Y-212885D01*
X430385Y-212502D01*
Y-211986D01*
X430309Y-211603D01*
X430092Y-211278D01*
Y-211242D01*
X430309Y-210917D01*
X430385Y-210534D01*
Y-210017D01*
X430309Y-209634D01*
X430294Y-209612D01*
X430103Y-209291D01*
X430294Y-208971D01*
X430309Y-208948D01*
X430385Y-208565D01*
Y-208049D01*
X430309Y-207666D01*
X430092Y-207341D01*
Y-207305D01*
X430309Y-206980D01*
X430385Y-206597D01*
Y-206106D01*
X430393Y-206073D01*
X430691Y-205774D01*
X430724Y-205767D01*
X431215D01*
X431598Y-205691D01*
X431923Y-205474D01*
X432140Y-205149D01*
X432216Y-204766D01*
Y-202793D01*
X432140Y-202410D01*
X431923Y-202085D01*
X431598Y-201868D01*
X431215Y-201792D01*
X430995D01*
X430418Y-201214D01*
Y-198035D01*
X431567D01*
Y-194295D01*
Y-189965D01*
D02*
G37*
G36*
X408950Y-131713D02*
X408245D01*
X407594Y-131982D01*
X407096Y-132481D01*
X406826Y-133132D01*
Y-133837D01*
X407096Y-134488D01*
X407594Y-134986D01*
X407680Y-135022D01*
Y-171313D01*
X405851Y-173142D01*
X405652Y-173440D01*
X405582Y-173791D01*
Y-194020D01*
X405189Y-194183D01*
X405004Y-193998D01*
X404352Y-193728D01*
X403648D01*
X402996Y-193998D01*
X402498Y-194496D01*
X402228Y-195148D01*
Y-195852D01*
X402498Y-196504D01*
X402879Y-196884D01*
Y-204178D01*
X401458Y-205598D01*
X401329Y-205791D01*
X398127D01*
Y-209728D01*
X402052D01*
X402436Y-210112D01*
X402436Y-210112D01*
X402545Y-210185D01*
X402729Y-210369D01*
Y-212631D01*
X402416Y-212944D01*
X402306Y-213017D01*
X402306Y-213017D01*
X402052Y-213271D01*
X398126D01*
Y-217208D01*
X400331D01*
X400339Y-217220D01*
X401216Y-218097D01*
Y-235000D01*
X401228Y-235064D01*
Y-235352D01*
X401339Y-235619D01*
X401351Y-235683D01*
X401388Y-235737D01*
X401498Y-236004D01*
X401702Y-236208D01*
X401738Y-236262D01*
X401792Y-236298D01*
X401996Y-236502D01*
X402263Y-236613D01*
X402317Y-236649D01*
X402381Y-236661D01*
X402648Y-236772D01*
X402937D01*
X403000Y-236784D01*
X403063Y-236772D01*
X403352D01*
X403619Y-236661D01*
X403683Y-236649D01*
X403737Y-236613D01*
X404004Y-236502D01*
X404208Y-236298D01*
X404262Y-236262D01*
X404298Y-236208D01*
X404502Y-236004D01*
X404612Y-235737D01*
X404648Y-235683D01*
X404661Y-235619D01*
X404772Y-235352D01*
Y-235064D01*
X404784Y-235000D01*
Y-217358D01*
X404648Y-216675D01*
X404262Y-216096D01*
X403638Y-215472D01*
Y-214858D01*
X403818Y-214677D01*
X403929Y-214603D01*
X404644Y-213888D01*
X404644Y-213888D01*
X404887Y-213524D01*
X404899Y-213462D01*
X405327Y-213332D01*
X405496Y-213502D01*
X406148Y-213772D01*
X406852D01*
X407504Y-213502D01*
X408002Y-213004D01*
X408272Y-212352D01*
Y-211648D01*
X408002Y-210996D01*
X407504Y-210498D01*
X407418Y-210462D01*
Y-174171D01*
X409246Y-172342D01*
X409445Y-172045D01*
X409515Y-171693D01*
Y-135022D01*
X409601Y-134986D01*
X410100Y-134488D01*
X410369Y-133837D01*
Y-133132D01*
X410100Y-132481D01*
X409601Y-131982D01*
X408950Y-131713D01*
D02*
G37*
G36*
X400352Y-191228D02*
X399648D01*
X398996Y-191498D01*
X398498Y-191996D01*
X398228Y-192648D01*
Y-193352D01*
X398498Y-194004D01*
X398996Y-194502D01*
X399648Y-194772D01*
X400352D01*
X401004Y-194502D01*
X401502Y-194004D01*
X401772Y-193352D01*
Y-192648D01*
X401502Y-191996D01*
X401004Y-191498D01*
X400352Y-191228D01*
D02*
G37*
G36*
X306352Y-90728D02*
X305648D01*
X304996Y-90998D01*
X304498Y-91496D01*
X304228Y-92148D01*
Y-92852D01*
X304498Y-93504D01*
X304996Y-94002D01*
X305082Y-94037D01*
Y-191463D01*
X304996Y-191498D01*
X304498Y-191996D01*
X304228Y-192648D01*
Y-193352D01*
X304498Y-194004D01*
X304996Y-194502D01*
X305648Y-194772D01*
X306352D01*
X307004Y-194502D01*
X307502Y-194004D01*
X307772Y-193352D01*
Y-192648D01*
X307502Y-191996D01*
X307004Y-191498D01*
X306918Y-191463D01*
Y-94037D01*
X307004Y-94002D01*
X307502Y-93504D01*
X307772Y-92852D01*
Y-92148D01*
X307502Y-91496D01*
X307004Y-90998D01*
X306352Y-90728D01*
D02*
G37*
G36*
X280074Y-191819D02*
X279369D01*
X278718Y-192089D01*
X278220Y-192587D01*
X277950Y-193238D01*
Y-193943D01*
X278220Y-194594D01*
X278718Y-195093D01*
X279369Y-195362D01*
X280074D01*
X280725Y-195093D01*
X281224Y-194594D01*
X281493Y-193943D01*
Y-193238D01*
X281224Y-192587D01*
X280725Y-192089D01*
X280074Y-191819D01*
D02*
G37*
G36*
X229796Y-193102D02*
X229092D01*
X228440Y-193371D01*
X227942Y-193870D01*
X227672Y-194521D01*
Y-195226D01*
X227942Y-195877D01*
X228440Y-196375D01*
X229092Y-196645D01*
X229796D01*
X230447Y-196375D01*
X230946Y-195877D01*
X231216Y-195226D01*
Y-194521D01*
X230946Y-193870D01*
X230447Y-193371D01*
X229796Y-193102D01*
D02*
G37*
G36*
X81354Y-182233D02*
X80650D01*
X79998Y-182502D01*
X79500Y-183001D01*
X79230Y-183652D01*
Y-184357D01*
X79500Y-185008D01*
X79744Y-185252D01*
X79398Y-185597D01*
X79129Y-186249D01*
Y-186953D01*
X79398Y-187604D01*
X79619Y-187825D01*
X79619Y-188382D01*
X79500Y-188501D01*
X79230Y-189152D01*
Y-189857D01*
X79500Y-190508D01*
X79997Y-191004D01*
X79500Y-191501D01*
X79230Y-192152D01*
Y-192857D01*
X79500Y-193508D01*
X79997Y-194004D01*
X79500Y-194501D01*
X79230Y-195152D01*
Y-195857D01*
X79500Y-196508D01*
X79998Y-197006D01*
X80650Y-197276D01*
X81354D01*
X82006Y-197006D01*
X82504Y-196508D01*
X82774Y-195857D01*
Y-195152D01*
X82504Y-194501D01*
X82008Y-194004D01*
X82504Y-193508D01*
X82774Y-192857D01*
Y-192152D01*
X82504Y-191501D01*
X82008Y-191004D01*
X82504Y-190508D01*
X82774Y-189857D01*
Y-189152D01*
X82504Y-188501D01*
X82283Y-188280D01*
X82283Y-187724D01*
X82402Y-187604D01*
X82672Y-186953D01*
Y-186249D01*
X82402Y-185597D01*
X82158Y-185353D01*
X82504Y-185008D01*
X82774Y-184357D01*
Y-183652D01*
X82504Y-183001D01*
X82006Y-182502D01*
X81354Y-182233D01*
D02*
G37*
G36*
X242852Y-112228D02*
X242148D01*
X241496Y-112498D01*
X240998Y-112996D01*
X240728Y-113648D01*
Y-114352D01*
X240998Y-115004D01*
X241388Y-115394D01*
Y-197868D01*
X241024Y-198019D01*
X241004Y-197998D01*
X240352Y-197728D01*
X239648D01*
X238996Y-197998D01*
X238498Y-198496D01*
X238228Y-199148D01*
Y-199852D01*
X238498Y-200504D01*
X238996Y-201002D01*
X239648Y-201272D01*
X240352D01*
X241004Y-201002D01*
X241024Y-200981D01*
X241388Y-201132D01*
Y-250000D01*
X241388Y-250000D01*
X241473Y-250426D01*
X241714Y-250786D01*
X245977Y-255050D01*
X245977Y-255050D01*
X246338Y-255291D01*
X246764Y-255376D01*
X246764Y-255376D01*
X250697D01*
X250765Y-255631D01*
X251232Y-256439D01*
X251891Y-257099D01*
X252699Y-257566D01*
X253601Y-257807D01*
X254533D01*
X255435Y-257566D01*
X256243Y-257099D01*
X256902Y-256439D01*
X257369Y-255631D01*
X257610Y-254730D01*
Y-253797D01*
X257369Y-252896D01*
X256902Y-252088D01*
X256243Y-251428D01*
X255435Y-250962D01*
X254533Y-250721D01*
X253601D01*
X252699Y-250962D01*
X251891Y-251428D01*
X251232Y-252088D01*
X250765Y-252896D01*
X250697Y-253152D01*
X247224D01*
X243612Y-249539D01*
Y-115394D01*
X244002Y-115004D01*
X244272Y-114352D01*
Y-113648D01*
X244002Y-112996D01*
X243504Y-112498D01*
X242852Y-112228D01*
D02*
G37*
G36*
X144852Y-194728D02*
X144148D01*
X143496Y-194998D01*
X142998Y-195496D01*
X142728Y-196148D01*
Y-196852D01*
X142998Y-197504D01*
X143496Y-198002D01*
X144148Y-198272D01*
X144852D01*
X145504Y-198002D01*
X146002Y-197504D01*
X146272Y-196852D01*
Y-196148D01*
X146002Y-195496D01*
X145504Y-194998D01*
X144852Y-194728D01*
D02*
G37*
G36*
X148526Y-151670D02*
X147821D01*
X147170Y-151940D01*
X146671Y-152438D01*
X146402Y-153089D01*
Y-153794D01*
X146671Y-154445D01*
X147170Y-154944D01*
X147524Y-155090D01*
Y-196595D01*
X147336Y-196673D01*
X146837Y-197171D01*
X146568Y-197823D01*
Y-198527D01*
X146837Y-199179D01*
X147336Y-199677D01*
X147987Y-199947D01*
X148692D01*
X149343Y-199677D01*
X149841Y-199179D01*
X150111Y-198527D01*
Y-197823D01*
X149841Y-197171D01*
X149343Y-196673D01*
X149155Y-196595D01*
Y-154953D01*
X149177Y-154944D01*
X149675Y-154445D01*
X149945Y-153794D01*
Y-153089D01*
X149675Y-152438D01*
X149177Y-151940D01*
X148526Y-151670D01*
D02*
G37*
G36*
X422852Y-196728D02*
X422148D01*
X421496Y-196998D01*
X420998Y-197496D01*
X420728Y-198148D01*
Y-198852D01*
X420998Y-199504D01*
X421496Y-200002D01*
X422148Y-200272D01*
X422852D01*
X423504Y-200002D01*
X424002Y-199504D01*
X424272Y-198852D01*
Y-198148D01*
X424002Y-197496D01*
X423504Y-196998D01*
X422852Y-196728D01*
D02*
G37*
G36*
X298352Y-74228D02*
X297648D01*
X296996Y-74498D01*
X296498Y-74996D01*
X296228Y-75648D01*
Y-76352D01*
X296498Y-77004D01*
X296996Y-77502D01*
X297082Y-77538D01*
Y-196962D01*
X296996Y-196998D01*
X296498Y-197496D01*
X296228Y-198148D01*
Y-198852D01*
X296498Y-199504D01*
X296996Y-200002D01*
X297648Y-200272D01*
X298352D01*
X299004Y-200002D01*
X299502Y-199504D01*
X299772Y-198852D01*
Y-198148D01*
X299502Y-197496D01*
X299004Y-196998D01*
X298918Y-196962D01*
Y-77538D01*
X299004Y-77502D01*
X299502Y-77004D01*
X299772Y-76352D01*
Y-75648D01*
X299502Y-74996D01*
X299004Y-74498D01*
X298352Y-74228D01*
D02*
G37*
G36*
X152352Y-149228D02*
X151648D01*
X150996Y-149498D01*
X150498Y-149996D01*
X150228Y-150648D01*
Y-151352D01*
X150498Y-152004D01*
X150996Y-152502D01*
X151082Y-152538D01*
Y-199150D01*
X150549Y-199371D01*
X150051Y-199869D01*
X149781Y-200520D01*
Y-201225D01*
X150051Y-201876D01*
X150549Y-202374D01*
X151200Y-202644D01*
X151905D01*
X152556Y-202374D01*
X153055Y-201876D01*
X153324Y-201225D01*
Y-200520D01*
X153055Y-199869D01*
X152918Y-199732D01*
Y-152538D01*
X153004Y-152502D01*
X153502Y-152004D01*
X153772Y-151352D01*
Y-150648D01*
X153502Y-149996D01*
X153004Y-149498D01*
X152352Y-149228D01*
D02*
G37*
G36*
X258852Y-200444D02*
X258148D01*
X257496Y-200714D01*
X256998Y-201212D01*
X256728Y-201863D01*
Y-202568D01*
X256998Y-203219D01*
X257496Y-203718D01*
X258148Y-203987D01*
X258852D01*
X259504Y-203718D01*
X260002Y-203219D01*
X260272Y-202568D01*
Y-201863D01*
X260002Y-201212D01*
X259504Y-200714D01*
X258852Y-200444D01*
D02*
G37*
G36*
X339852Y-201228D02*
X339148D01*
X338496Y-201498D01*
X337998Y-201996D01*
X337728Y-202648D01*
Y-203352D01*
X337998Y-204004D01*
X338496Y-204502D01*
X339148Y-204772D01*
X339852D01*
X340504Y-204502D01*
X341002Y-204004D01*
X341272Y-203352D01*
Y-202648D01*
X341002Y-201996D01*
X340504Y-201498D01*
X339852Y-201228D01*
D02*
G37*
G36*
X436508Y-193646D02*
X432492D01*
Y-197819D01*
X434077D01*
X434340Y-198213D01*
X434228Y-198482D01*
Y-199187D01*
X434487Y-199811D01*
Y-201821D01*
X434252Y-201868D01*
X433927Y-202085D01*
X433710Y-202410D01*
X433634Y-202793D01*
Y-204766D01*
X433710Y-205149D01*
X433927Y-205474D01*
X434252Y-205691D01*
X434636Y-205767D01*
X435152D01*
X435208Y-205756D01*
X435421Y-205898D01*
X436000Y-206013D01*
X436579Y-205898D01*
X436775Y-205767D01*
X437120D01*
X437503Y-205691D01*
X437828Y-205474D01*
X438045Y-205149D01*
X438122Y-204766D01*
Y-202793D01*
X438045Y-202410D01*
X437828Y-202085D01*
X437513Y-201875D01*
Y-199811D01*
X437760Y-199215D01*
X439144Y-197831D01*
X441020D01*
Y-193658D01*
X437004D01*
Y-195332D01*
X436638Y-195534D01*
X436508Y-195456D01*
Y-193646D01*
D02*
G37*
G36*
X287852Y-62228D02*
X287148D01*
X286496Y-62498D01*
X285998Y-62996D01*
X285728Y-63648D01*
Y-64352D01*
X285998Y-65004D01*
X286082Y-65088D01*
Y-202962D01*
X285996Y-202998D01*
X285498Y-203496D01*
X285228Y-204148D01*
Y-204852D01*
X285498Y-205504D01*
X285996Y-206002D01*
X286648Y-206272D01*
X287352D01*
X288004Y-206002D01*
X288502Y-205504D01*
X288772Y-204852D01*
Y-204148D01*
X288502Y-203496D01*
X288004Y-202998D01*
X287918Y-202962D01*
Y-65745D01*
X288504Y-65502D01*
X289002Y-65004D01*
X289272Y-64352D01*
Y-63648D01*
X289002Y-62996D01*
X288504Y-62498D01*
X287852Y-62228D01*
D02*
G37*
G36*
X480331Y-201181D02*
X476787D01*
Y-205935D01*
X476146Y-206576D01*
X476060Y-206540D01*
X475355D01*
X474704Y-206810D01*
X474206Y-207308D01*
X473936Y-207959D01*
Y-208664D01*
X473572Y-208807D01*
X471669D01*
Y-214319D01*
X475213D01*
Y-210447D01*
X475355Y-210084D01*
X476060D01*
X476711Y-209814D01*
X477210Y-209315D01*
X477480Y-208664D01*
Y-207959D01*
X477444Y-207874D01*
X478624Y-206694D01*
X478624Y-206693D01*
X480331D01*
Y-201181D01*
D02*
G37*
G36*
X166044Y-146426D02*
X165339D01*
X164688Y-146695D01*
X164190Y-147194D01*
X163920Y-147845D01*
Y-148550D01*
X164190Y-149201D01*
X164417Y-149428D01*
Y-171383D01*
X154099Y-181701D01*
X153823Y-182115D01*
X153726Y-182603D01*
Y-204535D01*
X153529Y-204732D01*
X153259Y-205383D01*
Y-206088D01*
X153529Y-206739D01*
X154027Y-207237D01*
X154678Y-207507D01*
X155383D01*
X156034Y-207237D01*
X156533Y-206739D01*
X156802Y-206088D01*
Y-205383D01*
X156533Y-204732D01*
X156274Y-204474D01*
Y-183130D01*
X166593Y-172812D01*
X166869Y-172399D01*
X166966Y-171911D01*
Y-149428D01*
X167193Y-149201D01*
X167463Y-148550D01*
Y-147845D01*
X167193Y-147194D01*
X166695Y-146695D01*
X166044Y-146426D01*
D02*
G37*
G36*
X169852Y-204144D02*
X169148D01*
X168496Y-204414D01*
X167998Y-204912D01*
X167728Y-205563D01*
Y-206268D01*
X167998Y-206919D01*
X168496Y-207418D01*
X169148Y-207687D01*
X169852D01*
X170504Y-207418D01*
X171002Y-206919D01*
X171272Y-206268D01*
Y-205563D01*
X171002Y-204912D01*
X170504Y-204414D01*
X169852Y-204144D01*
D02*
G37*
G36*
X235071Y-108541D02*
X234366D01*
X233715Y-108811D01*
X233217Y-109309D01*
X232947Y-109960D01*
Y-110665D01*
X233217Y-111316D01*
X233715Y-111814D01*
X233801Y-111850D01*
Y-228705D01*
X229933D01*
Y-228705D01*
X229567Y-228638D01*
Y-224965D01*
X228411D01*
Y-224540D01*
X228504Y-224502D01*
X229002Y-224004D01*
X229272Y-223352D01*
Y-222648D01*
X229002Y-221996D01*
X228504Y-221498D01*
X227852Y-221228D01*
X227148D01*
X226496Y-221498D01*
X225998Y-221996D01*
X225728Y-222648D01*
Y-223352D01*
X225998Y-224004D01*
X226496Y-224502D01*
X226589Y-224540D01*
Y-224965D01*
X225433D01*
Y-229582D01*
X223346D01*
Y-228532D01*
X216653D01*
Y-232469D01*
X223346D01*
Y-231418D01*
X225433D01*
Y-233035D01*
X229567D01*
X229567Y-233035D01*
X229933Y-233102D01*
Y-236795D01*
X233801D01*
Y-243193D01*
X233498Y-243496D01*
X233228Y-244148D01*
Y-244852D01*
X233498Y-245504D01*
X233996Y-246002D01*
X234648Y-246272D01*
X235352D01*
X236004Y-246002D01*
X236502Y-245504D01*
X236772Y-244852D01*
Y-244148D01*
X236502Y-243496D01*
X236004Y-242998D01*
X235636Y-242846D01*
Y-235000D01*
Y-207656D01*
X236030Y-207516D01*
X236648Y-207772D01*
X237352D01*
X238004Y-207502D01*
X238502Y-207004D01*
X238772Y-206352D01*
Y-205648D01*
X238502Y-204996D01*
X238004Y-204498D01*
X237352Y-204228D01*
X236648D01*
X236030Y-204484D01*
X235636Y-204344D01*
Y-111850D01*
X235722Y-111814D01*
X236221Y-111316D01*
X236490Y-110665D01*
Y-109960D01*
X236221Y-109309D01*
X235722Y-108811D01*
X235071Y-108541D01*
D02*
G37*
G36*
X277352Y-204728D02*
X276648D01*
X275996Y-204998D01*
X275498Y-205496D01*
X275228Y-206148D01*
Y-206852D01*
X275498Y-207504D01*
X275996Y-208002D01*
X276648Y-208272D01*
X277352D01*
X278004Y-208002D01*
X278502Y-207504D01*
X278772Y-206852D01*
Y-206148D01*
X278502Y-205496D01*
X278004Y-204998D01*
X277352Y-204728D01*
D02*
G37*
G36*
X252852Y-187728D02*
X252148D01*
X251496Y-187998D01*
X250998Y-188496D01*
X250728Y-189148D01*
Y-189852D01*
X250998Y-190504D01*
X251378Y-190884D01*
Y-205116D01*
X250998Y-205496D01*
X250728Y-206148D01*
Y-206852D01*
X250998Y-207504D01*
X251496Y-208002D01*
X252148Y-208272D01*
X252852D01*
X253504Y-208002D01*
X254002Y-207504D01*
X254272Y-206852D01*
Y-206148D01*
X254002Y-205496D01*
X253622Y-205116D01*
Y-190884D01*
X254002Y-190504D01*
X254272Y-189852D01*
Y-189148D01*
X254002Y-188496D01*
X253504Y-187998D01*
X252852Y-187728D01*
D02*
G37*
G36*
X335352Y-175728D02*
X334648D01*
X333996Y-175998D01*
X333498Y-176496D01*
X333228Y-177148D01*
Y-177852D01*
X333498Y-178504D01*
X333996Y-179002D01*
X334082Y-179037D01*
Y-205249D01*
X333996Y-205285D01*
X333498Y-205783D01*
X333228Y-206434D01*
Y-207139D01*
X333498Y-207790D01*
X333996Y-208289D01*
X334648Y-208559D01*
X335352D01*
X336004Y-208289D01*
X336502Y-207790D01*
X336772Y-207139D01*
Y-206434D01*
X336502Y-205783D01*
X336004Y-205285D01*
X335918Y-205249D01*
Y-179037D01*
X336004Y-179002D01*
X336502Y-178504D01*
X336772Y-177852D01*
Y-177148D01*
X336502Y-176496D01*
X336004Y-175998D01*
X335352Y-175728D01*
D02*
G37*
G36*
X360852Y-205228D02*
X360148D01*
X359496Y-205498D01*
X358998Y-205996D01*
X358728Y-206648D01*
Y-207352D01*
X358998Y-208004D01*
X359496Y-208502D01*
X360148Y-208772D01*
X360852D01*
X361504Y-208502D01*
X362002Y-208004D01*
X362272Y-207352D01*
Y-206648D01*
X362002Y-205996D01*
X361504Y-205498D01*
X360852Y-205228D01*
D02*
G37*
G36*
X215005Y-201812D02*
X214300D01*
X213649Y-202081D01*
X213150Y-202580D01*
X212881Y-203231D01*
Y-203936D01*
X213150Y-204587D01*
X213595Y-205031D01*
X213596Y-205457D01*
X213496Y-205498D01*
X212998Y-205996D01*
X212728Y-206648D01*
Y-207352D01*
X212998Y-208004D01*
X213496Y-208502D01*
X214148Y-208772D01*
X214852D01*
X215504Y-208502D01*
X216002Y-208004D01*
X216272Y-207352D01*
Y-206648D01*
X216002Y-205996D01*
X215558Y-205552D01*
X215557Y-205126D01*
X215656Y-205085D01*
X216154Y-204587D01*
X216424Y-203936D01*
Y-203231D01*
X216154Y-202580D01*
X215656Y-202081D01*
X215005Y-201812D01*
D02*
G37*
G36*
X493227Y-201480D02*
X492195D01*
X491197Y-201747D01*
X490304Y-202263D01*
X489574Y-202993D01*
X489058Y-203887D01*
X488791Y-204884D01*
Y-205916D01*
X489058Y-206913D01*
X489574Y-207807D01*
X490304Y-208537D01*
X491197Y-209053D01*
X492195Y-209320D01*
X493227D01*
X494224Y-209053D01*
X495118Y-208537D01*
X495848Y-207807D01*
X496364Y-206913D01*
X496631Y-205916D01*
Y-204884D01*
X496364Y-203887D01*
X495848Y-202993D01*
X495118Y-202263D01*
X494224Y-201747D01*
X493227Y-201480D01*
D02*
G37*
G36*
X391953Y-203938D02*
X382110D01*
X381083Y-204074D01*
X380125Y-204470D01*
X379302Y-205101D01*
X378671Y-205924D01*
X378275Y-206881D01*
X378139Y-207909D01*
X378275Y-208937D01*
X378671Y-209895D01*
X379302Y-210717D01*
X380125Y-211348D01*
X381083Y-211745D01*
X382110Y-211880D01*
X391953D01*
X392981Y-211745D01*
X393938Y-211348D01*
X394761Y-210717D01*
X395392Y-209895D01*
X395788Y-208937D01*
X395924Y-207909D01*
X395788Y-206881D01*
X395392Y-205924D01*
X394761Y-205101D01*
X393938Y-204470D01*
X392981Y-204074D01*
X391953Y-203938D01*
D02*
G37*
G36*
X355352Y-209228D02*
X354648D01*
X353996Y-209498D01*
X353498Y-209996D01*
X353228Y-210648D01*
Y-211352D01*
X353498Y-212004D01*
X353996Y-212502D01*
X354648Y-212772D01*
X355352D01*
X356004Y-212502D01*
X356502Y-212004D01*
X356772Y-211352D01*
Y-210648D01*
X356502Y-209996D01*
X356004Y-209498D01*
X355352Y-209228D01*
D02*
G37*
G36*
X277852D02*
X277148D01*
X276496Y-209498D01*
X275998Y-209996D01*
X275728Y-210648D01*
Y-211352D01*
X275998Y-212004D01*
X276496Y-212502D01*
X277148Y-212772D01*
X277852D01*
X278504Y-212502D01*
X279002Y-212004D01*
X279272Y-211352D01*
Y-210648D01*
X279002Y-209996D01*
X278504Y-209498D01*
X277852Y-209228D01*
D02*
G37*
G36*
X504427Y-206880D02*
X503395D01*
X502397Y-207147D01*
X501504Y-207663D01*
X500774Y-208393D01*
X500258Y-209287D01*
X499991Y-210284D01*
Y-211316D01*
X500258Y-212313D01*
X500774Y-213207D01*
X501504Y-213937D01*
X502397Y-214453D01*
X503395Y-214720D01*
X504427D01*
X505424Y-214453D01*
X506318Y-213937D01*
X507048Y-213207D01*
X507563Y-212313D01*
X507831Y-211316D01*
Y-210284D01*
X507563Y-209287D01*
X507048Y-208393D01*
X506318Y-207663D01*
X505424Y-207147D01*
X504427Y-206880D01*
D02*
G37*
G36*
X277852Y-213728D02*
X277148D01*
X276496Y-213998D01*
X275998Y-214496D01*
X275728Y-215148D01*
Y-215852D01*
X275998Y-216504D01*
X276496Y-217002D01*
X277148Y-217272D01*
X277852D01*
X278504Y-217002D01*
X279002Y-216504D01*
X279272Y-215852D01*
Y-215148D01*
X279002Y-214496D01*
X278504Y-213998D01*
X277852Y-213728D01*
D02*
G37*
G36*
X218352Y-215728D02*
X217648D01*
X216996Y-215998D01*
X216498Y-216496D01*
X216228Y-217148D01*
Y-217852D01*
X216498Y-218504D01*
X216996Y-219002D01*
X217648Y-219272D01*
X218352D01*
X219004Y-219002D01*
X219502Y-218504D01*
X219772Y-217852D01*
Y-217148D01*
X219502Y-216496D01*
X219004Y-215998D01*
X218352Y-215728D01*
D02*
G37*
G36*
X197000Y-202474D02*
X196217Y-202577D01*
X195487Y-202880D01*
X194860Y-203360D01*
X194379Y-203987D01*
X194077Y-204717D01*
X193974Y-205500D01*
Y-214193D01*
X194077Y-214976D01*
X194379Y-215706D01*
X194860Y-216333D01*
X194973Y-216445D01*
Y-220532D01*
X204028D01*
Y-212854D01*
X200026D01*
Y-205500D01*
X199923Y-204717D01*
X199620Y-203987D01*
X199140Y-203360D01*
X198513Y-202880D01*
X197783Y-202577D01*
X197000Y-202474D01*
D02*
G37*
G36*
X155434Y-217813D02*
X154729D01*
X154078Y-218082D01*
X153580Y-218581D01*
X153310Y-219232D01*
Y-219937D01*
X153580Y-220588D01*
X154078Y-221086D01*
X154729Y-221356D01*
X155434D01*
X156085Y-221086D01*
X156583Y-220588D01*
X156853Y-219937D01*
Y-219232D01*
X156583Y-218581D01*
X156085Y-218082D01*
X155434Y-217813D01*
D02*
G37*
G36*
X413874Y-213272D02*
X408362D01*
Y-217209D01*
X408703D01*
Y-219492D01*
X408146D01*
Y-223508D01*
X412319D01*
Y-219492D01*
X411762D01*
Y-217209D01*
X413874D01*
Y-213272D01*
D02*
G37*
G36*
X396352Y-217728D02*
X395648D01*
X394996Y-217998D01*
X394498Y-218496D01*
X394228Y-219148D01*
Y-219852D01*
X394498Y-220504D01*
X394996Y-221002D01*
X395648Y-221272D01*
X396352D01*
X397004Y-221002D01*
X397116Y-220889D01*
X397450Y-221112D01*
X397228Y-221648D01*
Y-222352D01*
X397498Y-223004D01*
X397996Y-223502D01*
X398648Y-223772D01*
X399352D01*
X400004Y-223502D01*
X400502Y-223004D01*
X400772Y-222352D01*
Y-221648D01*
X400502Y-220996D01*
X400004Y-220498D01*
X399352Y-220228D01*
X398648D01*
X397996Y-220498D01*
X397884Y-220611D01*
X397550Y-220388D01*
X397772Y-219852D01*
Y-219148D01*
X397502Y-218496D01*
X397004Y-217998D01*
X396352Y-217728D01*
D02*
G37*
G36*
X204028Y-224468D02*
X194973D01*
Y-226082D01*
X193037D01*
X193002Y-225996D01*
X192504Y-225498D01*
X191852Y-225228D01*
X191148D01*
X190496Y-225498D01*
X189998Y-225996D01*
X189728Y-226648D01*
Y-227352D01*
X189998Y-228004D01*
X190496Y-228502D01*
X191148Y-228772D01*
X191852D01*
X192504Y-228502D01*
X193002Y-228004D01*
X193037Y-227918D01*
X194973D01*
Y-232146D01*
X196474D01*
Y-238858D01*
X196577Y-239641D01*
X196879Y-240371D01*
X197360Y-240998D01*
X199349Y-242986D01*
Y-244691D01*
X199062Y-244978D01*
X198414Y-246100D01*
X198079Y-247352D01*
Y-248648D01*
X198414Y-249900D01*
X199062Y-251022D01*
X199978Y-251938D01*
X201100Y-252586D01*
X202352Y-252921D01*
X203648D01*
X204900Y-252586D01*
X206022Y-251938D01*
X206938Y-251022D01*
X207586Y-249900D01*
X207921Y-248648D01*
Y-247352D01*
X207586Y-246100D01*
X206938Y-244978D01*
X206022Y-244062D01*
X205401Y-243703D01*
Y-241733D01*
X205298Y-240950D01*
X204995Y-240220D01*
X204514Y-239593D01*
X204514Y-239593D01*
X202526Y-237605D01*
Y-232146D01*
X204028D01*
Y-224468D01*
D02*
G37*
G36*
X257610Y-221193D02*
X250524D01*
Y-228279D01*
X257610D01*
Y-221193D01*
D02*
G37*
G36*
X363409Y-214766D02*
X362382Y-214901D01*
X361424Y-215298D01*
X360601Y-215929D01*
X359970Y-216751D01*
X359574Y-217709D01*
X359438Y-218737D01*
Y-228579D01*
X359574Y-229607D01*
X359970Y-230564D01*
X360601Y-231387D01*
X361424Y-232018D01*
X362382Y-232415D01*
X363409Y-232550D01*
X364437Y-232415D01*
X365395Y-232018D01*
X366217Y-231387D01*
X366848Y-230564D01*
X367245Y-229607D01*
X367380Y-228579D01*
Y-218737D01*
X367245Y-217709D01*
X366848Y-216751D01*
X366217Y-215929D01*
X365395Y-215298D01*
X364437Y-214901D01*
X363409Y-214766D01*
D02*
G37*
G36*
X446183Y-223582D02*
X435500D01*
X435149Y-223652D01*
X434851Y-223851D01*
X434298Y-224405D01*
X434099Y-224702D01*
X434075Y-224821D01*
X433927Y-224920D01*
X433710Y-225245D01*
X433634Y-225628D01*
Y-227601D01*
X433710Y-227984D01*
X433927Y-228309D01*
X434252Y-228526D01*
X434636Y-228602D01*
X435152D01*
X435535Y-228526D01*
X435551Y-228515D01*
X435945Y-228726D01*
Y-231313D01*
X432781Y-234476D01*
X429945D01*
Y-238807D01*
Y-242547D01*
X434079D01*
Y-238807D01*
Y-235774D01*
X435051Y-234802D01*
X435445Y-234965D01*
Y-238807D01*
Y-242547D01*
X439579D01*
Y-238807D01*
Y-234576D01*
X439678Y-234426D01*
X439748Y-234075D01*
Y-228341D01*
X439797Y-228309D01*
X440014Y-227984D01*
X440090Y-227601D01*
Y-225628D01*
X440263Y-225418D01*
X441336D01*
X441508Y-225628D01*
Y-227601D01*
X441584Y-227984D01*
X441802Y-228309D01*
X441850Y-228341D01*
Y-230768D01*
X441920Y-231119D01*
X442119Y-231417D01*
X444082Y-233380D01*
Y-237610D01*
X444035Y-237657D01*
X440504D01*
Y-241831D01*
X441299D01*
Y-242608D01*
X438419Y-245488D01*
X430902D01*
Y-256512D01*
X439957D01*
Y-247380D01*
X443369Y-243968D01*
X443369Y-243967D01*
X443632Y-243574D01*
X443724Y-243110D01*
X443724Y-243110D01*
Y-241831D01*
X444520D01*
Y-239677D01*
X444794Y-239494D01*
X445516Y-238772D01*
X445775Y-238741D01*
X445937Y-238753D01*
X446023Y-238788D01*
X446651Y-239415D01*
X446948Y-239614D01*
X447004Y-239625D01*
Y-241831D01*
X448094D01*
Y-245488D01*
X447043D01*
Y-256512D01*
X456098D01*
Y-245488D01*
X449929D01*
Y-241831D01*
X451020D01*
Y-237657D01*
X447522D01*
Y-234869D01*
X447649Y-234741D01*
X447848Y-234444D01*
X447918Y-234092D01*
Y-232980D01*
X448311Y-232817D01*
X448496Y-233002D01*
X449148Y-233272D01*
X449852D01*
X450504Y-233002D01*
X451002Y-232504D01*
X451272Y-231852D01*
Y-231148D01*
X451002Y-230496D01*
X450504Y-229998D01*
X449852Y-229728D01*
X449148D01*
X449062Y-229764D01*
X447665Y-228367D01*
X447671Y-228309D01*
X447888Y-227984D01*
X447964Y-227601D01*
Y-225628D01*
X447888Y-225245D01*
X447671Y-224920D01*
X447543Y-224834D01*
X447500Y-224618D01*
X447301Y-224320D01*
X446832Y-223851D01*
X446534Y-223652D01*
X446183Y-223582D01*
D02*
G37*
G36*
X329852Y-159228D02*
X329148D01*
X328496Y-159498D01*
X327998Y-159996D01*
X327728Y-160648D01*
Y-161352D01*
X327998Y-162004D01*
X328496Y-162502D01*
X328582Y-162538D01*
Y-236044D01*
X328189Y-236122D01*
X328078Y-235855D01*
X327667Y-235320D01*
X327133Y-234910D01*
X326510Y-234652D01*
X325842Y-234564D01*
X325174Y-234652D01*
X324552Y-234910D01*
X324017Y-235320D01*
X323607Y-235855D01*
X323401Y-236351D01*
X323008Y-236272D01*
Y-236121D01*
X319095D01*
Y-213780D01*
X319033Y-213467D01*
X318856Y-213203D01*
X318856Y-213203D01*
X313194Y-207540D01*
X313272Y-207352D01*
Y-206648D01*
X313002Y-205996D01*
X312504Y-205498D01*
X311852Y-205228D01*
X311148D01*
X310496Y-205498D01*
X309998Y-205996D01*
X309728Y-206648D01*
Y-207352D01*
X309998Y-208004D01*
X310496Y-208502D01*
X311148Y-208772D01*
X311852D01*
X312040Y-208694D01*
X317464Y-214117D01*
Y-236121D01*
X313480D01*
Y-236273D01*
X313087Y-236351D01*
X312881Y-235855D01*
X312471Y-235320D01*
X311936Y-234910D01*
X311314Y-234652D01*
X310646Y-234564D01*
X309978Y-234652D01*
X309355Y-234910D01*
X308821Y-235320D01*
X308410Y-235855D01*
X308209Y-236340D01*
X307816Y-236261D01*
Y-215080D01*
X308004Y-215002D01*
X308502Y-214504D01*
X308772Y-213852D01*
Y-213148D01*
X308502Y-212496D01*
X308004Y-211998D01*
X307816Y-211920D01*
Y-203580D01*
X308004Y-203502D01*
X308502Y-203004D01*
X308772Y-202352D01*
Y-201648D01*
X308502Y-200996D01*
X308004Y-200498D01*
X307352Y-200228D01*
X306648D01*
X305996Y-200498D01*
X305498Y-200996D01*
X305228Y-201648D01*
Y-202352D01*
X305498Y-203004D01*
X305996Y-203502D01*
X306184Y-203580D01*
Y-211609D01*
X306046Y-211720D01*
X305670Y-211541D01*
X305653Y-211518D01*
Y-211331D01*
X305383Y-210680D01*
X304885Y-210182D01*
X304233Y-209912D01*
X303723D01*
X303418Y-209607D01*
Y-193088D01*
X303502Y-193004D01*
X303772Y-192352D01*
Y-191648D01*
X303502Y-190996D01*
X303004Y-190498D01*
X302352Y-190228D01*
X301648D01*
X300996Y-190498D01*
X300498Y-190996D01*
X300228Y-191648D01*
Y-192352D01*
X300498Y-193004D01*
X300996Y-193502D01*
X301582Y-193745D01*
Y-209987D01*
X301652Y-210338D01*
X301851Y-210635D01*
X302238Y-211022D01*
X302109Y-211331D01*
Y-212036D01*
X302379Y-212687D01*
X302877Y-213186D01*
X303529Y-213455D01*
X304233D01*
X304835Y-213206D01*
X305051Y-213289D01*
X305228Y-213399D01*
Y-213852D01*
X305498Y-214504D01*
X305996Y-215002D01*
X306184Y-215080D01*
Y-221664D01*
X305791Y-221910D01*
X305352Y-221728D01*
X304648D01*
X304063Y-221971D01*
X279049D01*
X278899Y-221607D01*
X279002Y-221504D01*
X279272Y-220852D01*
Y-220148D01*
X279002Y-219496D01*
X278504Y-218998D01*
X277852Y-218728D01*
X277148D01*
X276496Y-218998D01*
X275998Y-219496D01*
X275728Y-220148D01*
Y-220852D01*
X275998Y-221504D01*
X276101Y-221607D01*
X275951Y-221971D01*
X269937D01*
X269352Y-221728D01*
X268648D01*
X267996Y-221998D01*
X267498Y-222496D01*
X267228Y-223148D01*
Y-223852D01*
X267498Y-224504D01*
X267996Y-225002D01*
X268648Y-225272D01*
X269352D01*
X269937Y-225029D01*
X304063D01*
X304648Y-225272D01*
X305352D01*
X305791Y-225090D01*
X306184Y-225336D01*
Y-242457D01*
X306184Y-242457D01*
X306246Y-242769D01*
X306423Y-243034D01*
X308714Y-245324D01*
X308714Y-245324D01*
X308978Y-245501D01*
X309291Y-245563D01*
X309291Y-245563D01*
X313480D01*
Y-247421D01*
Y-252021D01*
X313087Y-252099D01*
X312881Y-251603D01*
X312471Y-251068D01*
X311936Y-250658D01*
X311314Y-250400D01*
X310646Y-250312D01*
X309978Y-250400D01*
X309355Y-250658D01*
X308821Y-251068D01*
X308410Y-251603D01*
X308152Y-252225D01*
X308065Y-252893D01*
Y-257224D01*
X308152Y-257892D01*
X308410Y-258514D01*
X308821Y-259049D01*
X309355Y-259459D01*
X309978Y-259717D01*
X310646Y-259805D01*
X311314Y-259717D01*
X311936Y-259459D01*
X312471Y-259049D01*
X312881Y-258514D01*
X313087Y-258018D01*
X313480Y-258096D01*
Y-258247D01*
X317496D01*
Y-254508D01*
Y-249764D01*
X317768Y-249710D01*
X318033Y-249533D01*
X318599Y-248968D01*
X318992Y-249131D01*
Y-250964D01*
Y-254508D01*
Y-258247D01*
X323008D01*
Y-258097D01*
X323401Y-258018D01*
X323607Y-258514D01*
X324017Y-259049D01*
X324552Y-259459D01*
X325174Y-259717D01*
X325842Y-259805D01*
X326510Y-259717D01*
X327133Y-259459D01*
X327667Y-259049D01*
X328078Y-258514D01*
X328336Y-257892D01*
X328424Y-257224D01*
Y-252893D01*
X328336Y-252225D01*
X328078Y-251603D01*
X327667Y-251068D01*
X327133Y-250658D01*
X326510Y-250400D01*
X325842Y-250312D01*
X325174Y-250400D01*
X324552Y-250658D01*
X324017Y-251068D01*
X323607Y-251603D01*
X323401Y-252099D01*
X323008Y-252020D01*
Y-247421D01*
Y-242349D01*
X323401Y-242270D01*
X323607Y-242766D01*
X324017Y-243301D01*
X324552Y-243711D01*
X325174Y-243969D01*
X325842Y-244057D01*
X326510Y-243969D01*
X327133Y-243711D01*
X327667Y-243301D01*
X328078Y-242766D01*
X328189Y-242499D01*
X328582Y-242577D01*
Y-251500D01*
X328652Y-251851D01*
X328851Y-252149D01*
X329764Y-253062D01*
X329728Y-253148D01*
Y-253852D01*
X329998Y-254504D01*
X330496Y-255002D01*
X331148Y-255272D01*
X331852D01*
X332504Y-255002D01*
X333002Y-254504D01*
X333272Y-253852D01*
Y-253148D01*
X333002Y-252496D01*
X332504Y-251998D01*
X331852Y-251728D01*
X331148D01*
X331062Y-251764D01*
X330418Y-251120D01*
Y-162538D01*
X330504Y-162502D01*
X331002Y-162004D01*
X331272Y-161352D01*
Y-160648D01*
X331002Y-159996D01*
X330504Y-159498D01*
X329852Y-159228D01*
D02*
G37*
G36*
X345967Y-231272D02*
X345034D01*
X344132Y-231513D01*
X343324Y-231980D01*
X342665Y-232639D01*
X342198Y-233447D01*
X341957Y-234349D01*
Y-235281D01*
X342198Y-236183D01*
X342665Y-236991D01*
X343324Y-237650D01*
X344132Y-238117D01*
X345034Y-238358D01*
X345967D01*
X346868Y-238117D01*
X347676Y-237650D01*
X348335Y-236991D01*
X348802Y-236183D01*
X349043Y-235281D01*
Y-234349D01*
X348802Y-233447D01*
X348335Y-232639D01*
X347676Y-231980D01*
X346868Y-231513D01*
X345967Y-231272D01*
D02*
G37*
G36*
X480331Y-231181D02*
X476787D01*
Y-236693D01*
X477175D01*
X477338Y-237087D01*
X477036Y-237388D01*
X476766Y-238039D01*
Y-238744D01*
X477036Y-239395D01*
X477534Y-239894D01*
X478186Y-240164D01*
X478890D01*
X479541Y-239894D01*
X480040Y-239395D01*
X480310Y-238744D01*
Y-238039D01*
X480040Y-237388D01*
X479738Y-237087D01*
X479901Y-236693D01*
X480331D01*
Y-231181D01*
D02*
G37*
G36*
X329852Y-111728D02*
X329148D01*
X328496Y-111998D01*
X327998Y-112496D01*
X327728Y-113148D01*
Y-113852D01*
X327998Y-114504D01*
X328480Y-114986D01*
X328495Y-115061D01*
X328672Y-115325D01*
X348184Y-134838D01*
Y-208500D01*
X348184Y-208500D01*
X348246Y-208812D01*
X348423Y-209077D01*
X350684Y-211338D01*
Y-238320D01*
X347363Y-241641D01*
X346868Y-241356D01*
X345967Y-241114D01*
X345034D01*
X344132Y-241356D01*
X343324Y-241822D01*
X342665Y-242482D01*
X342198Y-243290D01*
X341957Y-244191D01*
Y-245124D01*
X342198Y-246025D01*
X342665Y-246833D01*
X343324Y-247493D01*
X344132Y-247959D01*
X345034Y-248201D01*
X345967D01*
X346868Y-247959D01*
X347676Y-247493D01*
X348335Y-246833D01*
X348802Y-246025D01*
X349043Y-245124D01*
Y-244191D01*
X348802Y-243290D01*
X348516Y-242795D01*
X352077Y-239234D01*
X352077Y-239234D01*
X352254Y-238970D01*
X352316Y-238657D01*
Y-211000D01*
X352254Y-210688D01*
X352077Y-210423D01*
X352077Y-210423D01*
X349816Y-208162D01*
Y-134500D01*
X349816Y-134500D01*
X349754Y-134188D01*
X349577Y-133923D01*
X330579Y-114926D01*
X331002Y-114504D01*
X331272Y-113852D01*
Y-113148D01*
X331002Y-112496D01*
X330504Y-111998D01*
X329852Y-111728D01*
D02*
G37*
G36*
X39709Y-230791D02*
X28291D01*
Y-242209D01*
X39709D01*
Y-230791D01*
D02*
G37*
G36*
X254533Y-240878D02*
X253601D01*
X252699Y-241119D01*
X251891Y-241586D01*
X251232Y-242246D01*
X250765Y-243054D01*
X250524Y-243955D01*
Y-244888D01*
X250765Y-245789D01*
X251232Y-246597D01*
X251891Y-247257D01*
X252699Y-247723D01*
X253601Y-247965D01*
X254533D01*
X255435Y-247723D01*
X256243Y-247257D01*
X256902Y-246597D01*
X257369Y-245789D01*
X257610Y-244888D01*
Y-243955D01*
X257369Y-243054D01*
X256902Y-242246D01*
X256243Y-241586D01*
X255435Y-241119D01*
X254533Y-240878D01*
D02*
G37*
G36*
X90852Y-246228D02*
X90148D01*
X89496Y-246498D01*
X88998Y-246996D01*
X88728Y-247648D01*
Y-248352D01*
X88998Y-249004D01*
X89496Y-249502D01*
X90148Y-249772D01*
X90852D01*
X91504Y-249502D01*
X92002Y-249004D01*
X92272Y-248352D01*
Y-247648D01*
X92002Y-246996D01*
X91504Y-246498D01*
X90852Y-246228D01*
D02*
G37*
G36*
X79352D02*
X78648D01*
X77996Y-246498D01*
X77498Y-246996D01*
X77228Y-247648D01*
Y-248352D01*
X77498Y-249004D01*
X77996Y-249502D01*
X78648Y-249772D01*
X79352D01*
X80004Y-249502D01*
X80502Y-249004D01*
X80772Y-248352D01*
Y-247648D01*
X80502Y-246996D01*
X80004Y-246498D01*
X79352Y-246228D01*
D02*
G37*
G36*
X211732Y-223734D02*
X210949Y-223837D01*
X210219Y-224139D01*
X209593Y-224620D01*
X209461Y-224791D01*
X208386D01*
Y-228728D01*
X208706D01*
Y-241732D01*
X208809Y-242515D01*
X209112Y-243245D01*
X209593Y-243872D01*
X213079Y-247358D01*
Y-252921D01*
X222921D01*
Y-243079D01*
X217358D01*
X214758Y-240479D01*
Y-228728D01*
X215079D01*
Y-224791D01*
X214003D01*
X213872Y-224620D01*
X213245Y-224139D01*
X212515Y-223837D01*
X211732Y-223734D01*
D02*
G37*
G36*
X166335Y-220028D02*
X162398D01*
Y-221103D01*
X162226Y-221234D01*
X161746Y-221861D01*
X161443Y-222591D01*
X161340Y-223374D01*
X161400Y-223830D01*
X161077Y-224077D01*
X160196Y-225226D01*
X159642Y-226564D01*
X159452Y-228000D01*
X159642Y-229436D01*
X160196Y-230774D01*
X161077Y-231923D01*
X165757Y-236603D01*
Y-246405D01*
X165444Y-247162D01*
X165201Y-248379D01*
Y-249620D01*
X165444Y-250837D01*
X165918Y-251983D01*
X166608Y-253015D01*
X167485Y-253892D01*
X168517Y-254582D01*
X169663Y-255057D01*
X170880Y-255299D01*
X172121D01*
X173338Y-255057D01*
X174484Y-254582D01*
X175516Y-253892D01*
X176393Y-253015D01*
X177083Y-251983D01*
X177558Y-250837D01*
X177800Y-249620D01*
Y-248379D01*
X177558Y-247162D01*
X177083Y-246016D01*
X176852Y-245671D01*
Y-234305D01*
X176663Y-232869D01*
X176109Y-231531D01*
X175227Y-230382D01*
X175227Y-230382D01*
X168923Y-224077D01*
X168019Y-223384D01*
X167923Y-222650D01*
X167621Y-221920D01*
X167140Y-221293D01*
X167081Y-221234D01*
X166454Y-220754D01*
X166335Y-220704D01*
Y-220028D01*
D02*
G37*
G36*
X110873Y-178441D02*
X110168D01*
X109517Y-178710D01*
X109019Y-179209D01*
X108749Y-179860D01*
Y-180565D01*
X109019Y-181216D01*
X109517Y-181714D01*
X109603Y-181750D01*
Y-183933D01*
X83433D01*
Y-213067D01*
X94646D01*
Y-219500D01*
X94835Y-220936D01*
X95389Y-222274D01*
X96270Y-223423D01*
X96354Y-223487D01*
Y-224028D01*
X97059D01*
X97419Y-224304D01*
X98757Y-224858D01*
X100193Y-225047D01*
X101629Y-224858D01*
X102967Y-224304D01*
X103327Y-224028D01*
X104032D01*
Y-223487D01*
X104116Y-223423D01*
X104997Y-222274D01*
X105551Y-220936D01*
X105559Y-220875D01*
X105953Y-220901D01*
Y-245964D01*
X105918Y-246016D01*
X105443Y-247162D01*
X105201Y-248379D01*
Y-249620D01*
X105443Y-250837D01*
X105918Y-251983D01*
X106608Y-253015D01*
X107485Y-253892D01*
X108517Y-254582D01*
X109663Y-255057D01*
X110880Y-255299D01*
X112121D01*
X113338Y-255057D01*
X114484Y-254582D01*
X115516Y-253892D01*
X116393Y-253015D01*
X117083Y-251983D01*
X117558Y-250837D01*
X117800Y-249620D01*
Y-248379D01*
X117558Y-247162D01*
X117083Y-246016D01*
X117048Y-245964D01*
Y-221220D01*
X117166Y-220936D01*
X117355Y-219500D01*
X117166Y-218064D01*
X116611Y-216726D01*
X115730Y-215577D01*
X115646Y-215513D01*
Y-214972D01*
X115376D01*
Y-213422D01*
X116149Y-212649D01*
X116348Y-212351D01*
X116418Y-212000D01*
Y-187538D01*
X116504Y-187502D01*
X117002Y-187004D01*
X117272Y-186352D01*
Y-185648D01*
X117002Y-184996D01*
X116504Y-184498D01*
X115852Y-184228D01*
X115148D01*
X114496Y-184498D01*
X113998Y-184996D01*
X113728Y-185648D01*
Y-186352D01*
X113998Y-187004D01*
X114496Y-187502D01*
X114582Y-187538D01*
Y-211620D01*
X113809Y-212393D01*
X113610Y-212691D01*
X113541Y-213042D01*
Y-213894D01*
X113147Y-214129D01*
X111807Y-213952D01*
X110371Y-214142D01*
X109033Y-214696D01*
X108673Y-214972D01*
X107968D01*
Y-215513D01*
X107884Y-215577D01*
X107578Y-215884D01*
X106696Y-217033D01*
X106142Y-218371D01*
X106134Y-218431D01*
X105740Y-218406D01*
Y-213067D01*
X112567D01*
Y-183933D01*
X111438D01*
Y-181750D01*
X111524Y-181714D01*
X112023Y-181216D01*
X112293Y-180565D01*
Y-179860D01*
X112023Y-179209D01*
X111524Y-178710D01*
X110873Y-178441D01*
D02*
G37*
G36*
X345967Y-250957D02*
X345034D01*
X344132Y-251198D01*
X343324Y-251665D01*
X342665Y-252324D01*
X342198Y-253132D01*
X341957Y-254033D01*
Y-254966D01*
X342198Y-255868D01*
X342665Y-256676D01*
X343324Y-257335D01*
X344132Y-257802D01*
X345034Y-258043D01*
X345967D01*
X346868Y-257802D01*
X347676Y-257335D01*
X348335Y-256676D01*
X348802Y-255868D01*
X349043Y-254966D01*
Y-254033D01*
X348802Y-253132D01*
X348335Y-252324D01*
X347676Y-251665D01*
X346868Y-251198D01*
X345967Y-250957D01*
D02*
G37*
G36*
X62337Y-242370D02*
X60663D01*
X59011Y-242632D01*
X57420Y-243149D01*
X55929Y-243909D01*
X54575Y-244892D01*
X53392Y-246075D01*
X52408Y-247429D01*
X51649Y-248920D01*
X51132Y-250511D01*
X50870Y-252163D01*
Y-253837D01*
X51132Y-255489D01*
X51649Y-257081D01*
X52408Y-258571D01*
X53392Y-259925D01*
X54575Y-261108D01*
X55929Y-262091D01*
X57420Y-262851D01*
X59011Y-263368D01*
X60663Y-263630D01*
X62337D01*
X63989Y-263368D01*
X65580Y-262851D01*
X67071Y-262091D01*
X68425Y-261108D01*
X69608Y-259925D01*
X70591Y-258571D01*
X71351Y-257081D01*
X71868Y-255489D01*
X72130Y-253837D01*
Y-252163D01*
X71868Y-250511D01*
X71351Y-248920D01*
X70591Y-247429D01*
X69608Y-246075D01*
X68425Y-244892D01*
X67071Y-243909D01*
X65580Y-243149D01*
X63989Y-242632D01*
X62337Y-242370D01*
D02*
G37*
%LPD*%
G36*
X360146Y-74008D02*
X360500D01*
Y-74492D01*
X360146D01*
Y-78508D01*
X360500D01*
Y-78992D01*
X360146D01*
Y-83008D01*
X360500D01*
Y-91000D01*
X359500Y-92000D01*
X353500D01*
X351250Y-89750D01*
Y-71250D01*
X352500Y-70000D01*
X360146D01*
Y-74008D01*
D02*
G37*
G36*
X72500Y-145000D02*
X70500Y-149500D01*
X62000D01*
X59000Y-146500D01*
Y-143000D01*
X61500Y-140500D01*
X68000D01*
X72500Y-145000D01*
D02*
G37*
G36*
X68320Y-150864D02*
X68187Y-150996D01*
X67917Y-151648D01*
Y-152352D01*
X68187Y-153004D01*
X68685Y-153502D01*
X69337Y-153772D01*
X70041D01*
X70692Y-153502D01*
X71191Y-153004D01*
X71203Y-152973D01*
X71597Y-152968D01*
X72500Y-155000D01*
X68000Y-159500D01*
X61500D01*
X59000Y-157000D01*
Y-153500D01*
X62000Y-150500D01*
X68169D01*
X68320Y-150864D01*
D02*
G37*
G36*
X132000Y-182000D02*
X117000D01*
Y-161500D01*
X132000D01*
Y-182000D01*
D02*
G37*
%LPC*%
G36*
X15954Y-39988D02*
X14503D01*
X13101Y-40364D01*
X11844Y-41089D01*
X10818Y-42116D01*
X10092Y-43372D01*
X9717Y-44774D01*
Y-46226D01*
X10092Y-47627D01*
X10818Y-48884D01*
X11844Y-49911D01*
X13101Y-50636D01*
X14503Y-51012D01*
X15954D01*
X17356Y-50636D01*
X18613Y-49911D01*
X19639Y-48884D01*
X20365Y-47627D01*
X20740Y-46226D01*
Y-44774D01*
X20365Y-43372D01*
X19639Y-42116D01*
X18613Y-41089D01*
X17356Y-40364D01*
X15954Y-39988D01*
D02*
G37*
G36*
X16954Y-63988D02*
X15503D01*
X14101Y-64364D01*
X12844Y-65089D01*
X11818Y-66116D01*
X11092Y-67373D01*
X10717Y-68774D01*
Y-70226D01*
X11092Y-71627D01*
X11818Y-72884D01*
X12844Y-73910D01*
X14101Y-74636D01*
X15503Y-75012D01*
X16954D01*
X18356Y-74636D01*
X19613Y-73910D01*
X20639Y-72884D01*
X21364Y-71627D01*
X21740Y-70226D01*
Y-68774D01*
X21364Y-67373D01*
X20639Y-66116D01*
X19613Y-65089D01*
X18356Y-64364D01*
X16954Y-63988D01*
D02*
G37*
%LPD*%
G36*
X17046Y-41112D02*
X18120Y-41732D01*
X18996Y-42609D01*
X19616Y-43682D01*
X19937Y-44880D01*
Y-46120D01*
X19616Y-47318D01*
X18996Y-48391D01*
X18120Y-49268D01*
X17046Y-49888D01*
X15848Y-50209D01*
X14608D01*
X13411Y-49888D01*
X12337Y-49268D01*
X11460Y-48391D01*
X10840Y-47318D01*
X10519Y-46120D01*
Y-44880D01*
X10840Y-43682D01*
X11460Y-42609D01*
X12337Y-41732D01*
X13411Y-41112D01*
X14608Y-40791D01*
X15848D01*
X17046Y-41112D01*
D02*
G37*
G36*
X18046Y-65112D02*
X19120Y-65732D01*
X19996Y-66609D01*
X20616Y-67682D01*
X20937Y-68880D01*
Y-70120D01*
X20616Y-71318D01*
X19996Y-72391D01*
X19120Y-73268D01*
X18046Y-73888D01*
X16848Y-74209D01*
X15608D01*
X14411Y-73888D01*
X13337Y-73268D01*
X12460Y-72391D01*
X11840Y-71318D01*
X11519Y-70120D01*
Y-68880D01*
X11840Y-67682D01*
X12460Y-66609D01*
X13337Y-65732D01*
X14411Y-65112D01*
X15608Y-64791D01*
X16848D01*
X18046Y-65112D01*
D02*
G37*
D10*
X366000Y-145262D02*
Y-145000D01*
X366384Y-179285D02*
Y-145646D01*
X366000Y-145262D02*
X366384Y-145646D01*
X434000Y-179500D02*
X434500Y-179000D01*
X434359Y-179500D02*
X434501Y-179642D01*
X434000Y-179500D02*
X434359D01*
X434500Y-179000D02*
Y-136000D01*
X519500Y-136140D02*
X519603Y-136243D01*
X519500Y-136140D02*
Y-136000D01*
X519575Y-135925D01*
Y-99279D01*
X519295Y-99000D02*
X519575Y-99279D01*
X515870Y-99000D02*
X519295D01*
D12*
X127588Y-162403D02*
X132907Y-157085D01*
X127588Y-162510D02*
Y-162403D01*
X132907Y-157085D02*
X133005D01*
X193935Y-117565D02*
X194000Y-117500D01*
X193935Y-128081D02*
Y-117565D01*
X190678Y-105998D02*
X190998D01*
X189868Y-105188D02*
X190678Y-105998D01*
X188188Y-105188D02*
X189868D01*
X188000Y-105000D02*
X188188Y-105188D01*
X256000Y-198000D02*
Y-153000D01*
X262000Y-147000D01*
X227500Y-227130D02*
Y-223000D01*
X227500Y-223000D01*
X175500Y-203188D02*
Y-191500D01*
X175898Y-215500D02*
Y-203586D01*
X175500Y-203188D02*
X175898Y-203586D01*
X185500Y-107500D02*
X188000Y-105000D01*
X185500Y-223500D02*
Y-107500D01*
X262000Y-147000D02*
Y-117500D01*
X193870Y-128146D02*
X193935Y-128081D01*
X107000Y-171280D02*
Y-160370D01*
Y-171280D02*
X107055Y-171335D01*
X113000Y-20782D02*
Y-18000D01*
Y-23563D02*
Y-20782D01*
X120500Y-128000D02*
Y-73500D01*
X133500D02*
Y-33000D01*
X136000Y-110500D02*
X136005Y-110505D01*
Y-139085D02*
Y-110505D01*
X140434Y-144844D02*
X147245D01*
X147875Y-144215D01*
X140434Y-144844D02*
Y-139774D01*
X139745Y-139085D02*
X140434Y-139774D01*
X136745Y-167407D02*
Y-157085D01*
Y-167407D02*
X139016Y-169677D01*
X137730Y-156100D02*
X137875Y-155955D01*
X136745Y-157085D02*
X136844D01*
X137730Y-156199D01*
Y-156100D01*
X137875Y-155955D02*
Y-152325D01*
X107000Y-160370D02*
X111500D01*
D13*
X96000Y-136648D02*
Y-90500D01*
X93785Y-138864D02*
X96000Y-136648D01*
X79727Y-123500D02*
X80100Y-123873D01*
X79500Y-123500D02*
X79727D01*
X79495Y-123505D02*
X79500Y-123500D01*
X79495Y-147087D02*
Y-123505D01*
X97630Y-45630D02*
Y-43000D01*
Y-45630D02*
X104000Y-52000D01*
Y-90000D02*
Y-52000D01*
D16*
X410232Y-221500D02*
D03*
X406768D02*
D03*
X58000Y-100500D02*
D03*
X61465D02*
D03*
X488768Y-122000D02*
D03*
X492232D02*
D03*
X362232Y-81000D02*
D03*
X358768D02*
D03*
X362232Y-76500D02*
D03*
X358768D02*
D03*
X362232Y-72000D02*
D03*
X358768D02*
D03*
X463732Y-196512D02*
D03*
X460268D02*
D03*
X463732Y-201012D02*
D03*
X460268D02*
D03*
X432732Y-230500D02*
D03*
X429268D02*
D03*
X460268Y-227000D02*
D03*
X463732D02*
D03*
D17*
X400882Y-207760D02*
D03*
X400882Y-211500D02*
D03*
X400882Y-215240D02*
D03*
X411118Y-215241D02*
D03*
X411119Y-207761D02*
D03*
D18*
X417000Y-210268D02*
D03*
Y-213732D02*
D03*
X67000Y-29535D02*
D03*
Y-33000D02*
D03*
X439012Y-195744D02*
D03*
Y-192280D02*
D03*
X434500Y-192268D02*
D03*
Y-195732D02*
D03*
X442512Y-236280D02*
D03*
Y-239744D02*
D03*
X449012Y-236280D02*
D03*
Y-239744D02*
D03*
D19*
X58000Y-50161D02*
D03*
Y-32839D02*
D03*
D20*
X72657Y-15753D02*
D03*
X58157D02*
D03*
D21*
X70161Y-23405D02*
D03*
X72720D02*
D03*
X75279D02*
D03*
X77839D02*
D03*
X63339D02*
D03*
X60780D02*
D03*
X58220D02*
D03*
X55661D02*
D03*
D22*
X81260Y-31882D02*
D03*
X85000D02*
D03*
X88740D02*
D03*
Y-42118D02*
D03*
X85000D02*
D03*
X81260D02*
D03*
D23*
X88500Y-20500D02*
D03*
Y-24240D02*
D03*
X113000Y-18000D02*
D03*
Y-14260D02*
D03*
X429500Y-195870D02*
D03*
Y-192130D02*
D03*
X420500Y-227630D02*
D03*
Y-231370D02*
D03*
X432012Y-240382D02*
D03*
Y-236642D02*
D03*
X437512Y-240382D02*
D03*
Y-236642D02*
D03*
X147875Y-147955D02*
D03*
Y-144215D02*
D03*
X130500Y-28870D02*
D03*
Y-25130D02*
D03*
X232000Y-234630D02*
D03*
Y-238370D02*
D03*
X107000Y-160370D02*
D03*
Y-156630D02*
D03*
X111500D02*
D03*
Y-160370D02*
D03*
X232000Y-227130D02*
D03*
Y-230870D02*
D03*
X227500D02*
D03*
Y-227130D02*
D03*
X71500Y-33138D02*
D03*
Y-29398D02*
D03*
X72000Y-42870D02*
D03*
Y-39130D02*
D03*
Y-50870D02*
D03*
Y-47130D02*
D03*
D24*
X95260Y-35780D02*
D03*
D25*
X102740D02*
D03*
X99000Y-28220D02*
D03*
D27*
X101370Y-43000D02*
D03*
X97630D02*
D03*
X502370Y-99000D02*
D03*
X498630D02*
D03*
X502370Y-122000D02*
D03*
X498630D02*
D03*
X512130Y-99000D02*
D03*
X515870D02*
D03*
X147130Y-27500D02*
D03*
X150870D02*
D03*
X107630Y-152500D02*
D03*
X111370D02*
D03*
X464087Y-214697D02*
D03*
X460346D02*
D03*
X464087Y-219000D02*
D03*
X460346D02*
D03*
X464087Y-210197D02*
D03*
X460346D02*
D03*
X450815Y-196803D02*
D03*
X454555D02*
D03*
X460346Y-205512D02*
D03*
X464087D02*
D03*
X419882Y-221512D02*
D03*
X416142D02*
D03*
X136745Y-157085D02*
D03*
X133005D02*
D03*
X139745Y-139085D02*
D03*
X136005D02*
D03*
X178370Y-224000D02*
D03*
X174630D02*
D03*
Y-219500D02*
D03*
X178370D02*
D03*
D28*
X502760Y-114724D02*
D03*
X506500D02*
D03*
X510240D02*
D03*
Y-105276D02*
D03*
X506500D02*
D03*
X502760D02*
D03*
D29*
X370937Y-87500D02*
D03*
X358063D02*
D03*
D30*
X451232Y-224055D02*
D03*
Y-222087D02*
D03*
Y-220118D02*
D03*
Y-218150D02*
D03*
Y-216181D02*
D03*
Y-214213D02*
D03*
Y-212244D02*
D03*
Y-210276D02*
D03*
Y-208307D02*
D03*
Y-206339D02*
D03*
X428398D02*
D03*
Y-208307D02*
D03*
Y-210276D02*
D03*
Y-212244D02*
D03*
Y-214213D02*
D03*
Y-216181D02*
D03*
Y-218150D02*
D03*
Y-220118D02*
D03*
Y-222087D02*
D03*
Y-224055D02*
D03*
D31*
X448673Y-203780D02*
D03*
X446705D02*
D03*
X444736D02*
D03*
X442768D02*
D03*
X440799D02*
D03*
X438831D02*
D03*
X436862D02*
D03*
X434894D02*
D03*
X432925D02*
D03*
X430957D02*
D03*
Y-226614D02*
D03*
X432925D02*
D03*
X434894D02*
D03*
X436862D02*
D03*
X438831D02*
D03*
X440799D02*
D03*
X442768D02*
D03*
X444736D02*
D03*
X446705D02*
D03*
X448673D02*
D03*
D32*
X135260Y-25000D02*
D03*
X142740Y-22441D02*
D03*
Y-27559D02*
D03*
D33*
X139016Y-169677D02*
D03*
X120984D02*
D03*
D34*
X130000Y-198024D02*
D03*
D35*
X65000Y-146949D02*
D03*
Y-153051D02*
D03*
D36*
X476000Y-189437D02*
D03*
X478559Y-181563D02*
D03*
X473441D02*
D03*
X476000Y-196063D02*
D03*
X473441Y-203937D02*
D03*
X478559D02*
D03*
X473441Y-233937D02*
D03*
X478559D02*
D03*
X476000Y-226063D02*
D03*
X478559Y-211563D02*
D03*
X473441D02*
D03*
X476000Y-219437D02*
D03*
D37*
X451571Y-251000D02*
D03*
X435429D02*
D03*
D38*
X140434Y-144844D02*
D03*
X135316D02*
D03*
X137875Y-152325D02*
D03*
D39*
X111807Y-219500D02*
D03*
X100193D02*
D03*
X142307Y-219000D02*
D03*
X130693D02*
D03*
D40*
X220000Y-230500D02*
D03*
Y-223020D02*
D03*
X211732Y-226760D02*
D03*
D41*
X107055Y-171335D02*
D03*
X88945D02*
D03*
D42*
X98000Y-198500D02*
D03*
D43*
X199500Y-216693D02*
D03*
Y-228307D02*
D03*
X46500Y-46307D02*
D03*
Y-34693D02*
D03*
D44*
X168106Y-215106D02*
D03*
X160626D02*
D03*
X164366Y-223374D02*
D03*
D76*
X345500Y-224972D02*
D03*
X254067Y-224736D02*
D03*
D77*
X345500Y-234815D02*
D03*
Y-244657D02*
D03*
Y-254500D02*
D03*
X254067Y-254264D02*
D03*
Y-244421D02*
D03*
Y-234579D02*
D03*
X148000Y-65500D02*
D03*
X138000Y-55500D02*
D03*
Y-65500D02*
D03*
X128000Y-55500D02*
D03*
Y-65500D02*
D03*
D83*
X492711Y-216200D02*
D03*
Y-205400D02*
D03*
Y-194600D02*
D03*
Y-183800D02*
D03*
D84*
X503911Y-221600D02*
D03*
Y-210800D02*
D03*
Y-200000D02*
D03*
Y-189200D02*
D03*
D85*
Y-178400D02*
D03*
D86*
X498311Y-150800D02*
D03*
Y-249200D02*
D03*
D94*
X113000Y-23563D02*
D03*
X109260Y-31437D02*
D03*
X116740D02*
D03*
D95*
X439815Y-215197D02*
D03*
D96*
X478559Y-238059D02*
X479000Y-238500D01*
X335000Y-206787D02*
Y-177500D01*
X365000Y-200158D02*
Y-185335D01*
X358500Y-178835D02*
X365000Y-185335D01*
X360600Y-172364D02*
X361000Y-171965D01*
X360384Y-174549D02*
X360600Y-174333D01*
Y-172364D01*
X358500Y-178835D02*
Y-170000D01*
X361000Y-171965D02*
Y-146500D01*
X355000Y-166500D02*
X358500Y-170000D01*
X300516Y-132016D02*
X302000Y-133500D01*
Y-182500D02*
Y-133500D01*
X300516Y-132016D02*
Y-107837D01*
X116500Y-115316D02*
X117000Y-115816D01*
X116500Y-115316D02*
Y-115000D01*
X117000Y-145500D02*
Y-115816D01*
X112500Y-119500D02*
Y-28000D01*
X91500Y-134316D02*
Y-89000D01*
X92700Y-89497D02*
X97984Y-84213D01*
X91500Y-89000D02*
X95776Y-84724D01*
X91955Y-136210D02*
X92700Y-135465D01*
Y-89497D01*
X88594Y-137222D02*
X91500Y-134316D01*
X91955Y-136526D02*
Y-136210D01*
X95776Y-84724D02*
Y-81724D01*
X97984Y-84213D02*
Y-80484D01*
X104578Y-154724D02*
X104894D01*
X105669Y-155500D01*
X107630D01*
X107000Y-156630D02*
X107630Y-156000D01*
X107630Y-155500D02*
X107630Y-155500D01*
Y-156000D02*
Y-155500D01*
X101707Y-171707D02*
X102000Y-172000D01*
X107630Y-155500D02*
Y-152500D01*
X101620Y-171707D02*
X101707D01*
X102000Y-172000D02*
Y-139216D01*
X98148Y-135364D02*
X102000Y-139216D01*
X444145Y-238845D02*
X445000Y-237990D01*
X442768Y-230768D02*
X445000Y-233000D01*
X442768Y-230768D02*
Y-226614D01*
X445000Y-237990D02*
Y-233000D01*
X443332Y-238845D02*
X444145D01*
X442512Y-239744D02*
Y-239665D01*
X443332Y-238845D01*
X438831Y-234075D02*
Y-226614D01*
X437512Y-236642D02*
X438265Y-235888D01*
Y-234641D02*
X438831Y-234075D01*
X438265Y-235888D02*
Y-234641D01*
X446604Y-238071D02*
Y-234489D01*
X447000Y-234092D01*
Y-231500D01*
X444736Y-229236D02*
X447000Y-231500D01*
X447299Y-238766D02*
X447723D01*
X447801Y-238845D01*
X448191D02*
X449012Y-239665D01*
X446604Y-238071D02*
X447299Y-238766D01*
X447801Y-238845D02*
X448191D01*
X86000Y-121370D02*
Y-86500D01*
Y-121370D02*
X86059Y-121429D01*
X83500Y-127412D02*
Y-111500D01*
X69000Y-97000D02*
X83500Y-111500D01*
X114458Y-216849D02*
Y-213042D01*
X115500Y-212000D01*
Y-186000D01*
X244287Y-50407D02*
Y-44404D01*
X244008Y-44125D02*
Y-37806D01*
Y-44125D02*
X244287Y-44404D01*
X241633Y-53061D02*
X244287Y-50407D01*
X79500Y-150056D02*
Y-150036D01*
X61465Y-132000D02*
X79500Y-150036D01*
X451285Y-208254D02*
X452746D01*
X457500Y-203500D01*
Y-199201D01*
X451232Y-208307D02*
X451285Y-208254D01*
X487809Y-190000D02*
X494082D01*
X503911Y-199829D01*
X499000Y-192350D02*
X500761D01*
X495317Y-188667D02*
X499000Y-192350D01*
X483314Y-194494D02*
X487809Y-190000D01*
X443237Y-200111D02*
X443389D01*
X440852Y-202496D02*
X443237Y-200111D01*
X440852Y-203727D02*
Y-202496D01*
X443906Y-201411D02*
X444058D01*
X442820Y-203727D02*
Y-202496D01*
X445900Y-199568D02*
Y-196469D01*
X442768Y-203780D02*
X442820Y-203727D01*
Y-202496D02*
X443906Y-201411D01*
X444058D02*
X445900Y-199568D01*
X444600Y-198900D02*
Y-195930D01*
X443389Y-200111D02*
X444600Y-198900D01*
X440799Y-203780D02*
X440852Y-203727D01*
X445900Y-196469D02*
X449069Y-193300D01*
X474221D02*
X476000Y-195079D01*
X449069Y-193300D02*
X474221D01*
X474421Y-192000D02*
X476000Y-190421D01*
X448530Y-192000D02*
X474421D01*
X444600Y-195930D02*
X448530Y-192000D01*
X476000Y-189437D02*
Y-189252D01*
Y-190421D02*
Y-189437D01*
X473360Y-219880D02*
X473828Y-219411D01*
Y-216977D01*
X474524Y-216281D01*
X478172Y-219031D02*
Y-216977D01*
X478640Y-219500D02*
X487718D01*
X464966Y-219880D02*
X473360D01*
X474524Y-216281D02*
X477476D01*
X478172Y-216977D01*
Y-219031D02*
X478640Y-219500D01*
X477979Y-222400D02*
X494262D01*
X478055Y-224495D02*
X478850Y-223700D01*
X494262Y-222400D02*
X495152Y-221510D01*
X476000Y-220421D02*
X477979Y-222400D01*
X495152Y-221510D02*
Y-219886D01*
X494800Y-223700D02*
X496900Y-221600D01*
X478850Y-223700D02*
X494800D01*
X471245Y-225500D02*
X473000Y-227255D01*
X465311Y-225500D02*
X471245D01*
X463811Y-227000D02*
X465311Y-225500D01*
X473828Y-228523D02*
X474524Y-229219D01*
X478172Y-227976D02*
X479158Y-226989D01*
X473000Y-227500D02*
X473828Y-228328D01*
X478172Y-228523D02*
Y-227976D01*
X473828Y-228523D02*
Y-228328D01*
X474524Y-229219D02*
X477476D01*
X478172Y-228523D01*
X479158Y-226989D02*
Y-226842D01*
X481000Y-225000D01*
X497000D01*
X446705Y-228705D02*
X449500Y-231500D01*
X446705Y-228705D02*
Y-226614D01*
X446652Y-226561D02*
X446705Y-226614D01*
X434946Y-226561D02*
Y-225054D01*
X434894Y-226614D02*
X434946Y-226561D01*
Y-225054D02*
X435500Y-224500D01*
X446183D02*
X446652Y-224969D01*
Y-226561D02*
Y-224969D01*
X435500Y-224500D02*
X446183D01*
X432012Y-236543D02*
X436862Y-231693D01*
X422752Y-214213D02*
X428398D01*
X422595Y-214056D02*
X422752Y-214213D01*
X161500Y-144500D02*
X164500Y-141500D01*
X161500Y-153500D02*
Y-144500D01*
X164500Y-141500D02*
Y-99000D01*
X302031Y-192000D02*
X302500Y-192469D01*
Y-209987D02*
Y-192469D01*
X302000Y-192000D02*
X302031D01*
X302500Y-209987D02*
X303881Y-211368D01*
Y-211684D02*
Y-211368D01*
X216516Y-65984D02*
X219000Y-63500D01*
X216516Y-112592D02*
Y-65984D01*
Y-112592D02*
X217000Y-113076D01*
Y-160000D02*
Y-113076D01*
X246500Y-58500D02*
X249838Y-61838D01*
X249500Y-153923D02*
X250484Y-152939D01*
X249500Y-177000D02*
Y-153923D01*
X329500Y-251500D02*
Y-161000D01*
Y-251500D02*
X331500Y-253500D01*
X225000Y-187000D02*
X225500D01*
X223016Y-185016D02*
Y-142178D01*
X223928Y-141266D01*
X223016Y-185016D02*
X225000Y-187000D01*
X223928Y-141266D02*
Y-139622D01*
X223567Y-139260D02*
X223928Y-139622D01*
X223567Y-139260D02*
Y-99755D01*
X224000Y-99322D01*
Y-59500D01*
X246569Y-58500D02*
X246853Y-58784D01*
X246500Y-58500D02*
X246569D01*
X249016Y-104248D02*
X249838Y-103426D01*
Y-61838D01*
X249016Y-128710D02*
Y-104248D01*
Y-128710D02*
X250484Y-130178D01*
Y-152939D02*
Y-130178D01*
X300516Y-107837D02*
X301604Y-106749D01*
Y-82948D01*
X172472Y-199528D02*
Y-187984D01*
X152000Y-200000D02*
Y-151000D01*
X151500Y-200820D02*
X151553Y-200872D01*
X151500Y-200820D02*
Y-200500D01*
X152000Y-200000D01*
X111807Y-219500D02*
X114458Y-216849D01*
X110521Y-185979D02*
Y-180212D01*
X98000Y-198500D02*
X110521Y-185979D01*
X319897Y-166397D02*
X320000Y-166500D01*
X319897Y-166397D02*
Y-85785D01*
X306000Y-193000D02*
Y-92500D01*
X298000Y-198500D02*
Y-76000D01*
X232000Y-234630D02*
X232370Y-235000D01*
X234719D01*
Y-110312D01*
X354000Y-145500D02*
Y-127000D01*
X390500Y-127500D02*
X393332Y-130332D01*
Y-195999D02*
Y-130332D01*
X354030Y-127493D02*
Y-127030D01*
X354000Y-127000D02*
X354030Y-127030D01*
X310500Y-145500D02*
Y-72500D01*
X315500Y-139000D02*
Y-88500D01*
X406500Y-173791D02*
X408598Y-171693D01*
Y-133484D01*
X406500Y-212000D02*
Y-173791D01*
X315730Y-138770D02*
X315912D01*
X315500Y-139000D02*
X315730Y-138770D01*
X197500Y-111000D02*
Y-72000D01*
X182331Y-201331D02*
Y-198669D01*
Y-201331D02*
X182500Y-201500D01*
X182331Y-198669D02*
X182500Y-198500D01*
Y-227000D02*
Y-201500D01*
X191500Y-227000D02*
X198193D01*
X199500Y-228307D01*
X144000Y-217307D02*
Y-211964D01*
X142307Y-219000D02*
X144000Y-217307D01*
Y-211964D02*
X144105Y-211859D01*
X173000Y-201000D02*
Y-200684D01*
X172331Y-200015D02*
X173000Y-200684D01*
X172331Y-200015D02*
Y-199669D01*
X172472Y-199528D01*
X130000Y-198024D02*
X139524Y-188500D01*
X143500D01*
X241633Y-104040D02*
Y-53061D01*
X181000Y-109870D02*
X182192Y-111062D01*
Y-145697D02*
Y-111062D01*
X180992Y-110489D02*
X181000Y-110481D01*
Y-109870D01*
X178370Y-219500D02*
X178500Y-219370D01*
Y-114000D01*
X413500Y-104500D02*
Y-80000D01*
X372000Y-108500D02*
X372500Y-108000D01*
X323000Y-108500D02*
X372000D01*
X326500Y-101500D02*
X367000D01*
X414450Y-192130D02*
X429500D01*
X420211Y-218000D02*
X422395Y-220184D01*
X422000Y-217000D02*
Y-216983D01*
X421976Y-216959D02*
X422000Y-216983D01*
X425000Y-217000D02*
X425819Y-216181D01*
X422000Y-217000D02*
X423984Y-218984D01*
X418000Y-218000D02*
X420211D01*
X105724Y-29724D02*
X107546D01*
X105500Y-29500D02*
X105724Y-29724D01*
X107546D02*
X108282Y-30459D01*
X101370Y-43000D02*
X105500D01*
X475708Y-208312D02*
X477975Y-206045D01*
X473441Y-210579D02*
X475708Y-208312D01*
X500761Y-192350D02*
X503911Y-189200D01*
X476584Y-188667D02*
X495317D01*
X503911Y-200000D02*
Y-199829D01*
X473535Y-181469D02*
Y-176787D01*
X473630Y-176692D01*
X473441Y-181563D02*
X473535Y-181469D01*
X478538Y-238392D02*
X478646Y-238500D01*
X479000D01*
X478559Y-238059D02*
Y-233937D01*
X448726Y-203727D02*
Y-201774D01*
X448673Y-203780D02*
X448726Y-203727D01*
X149000Y-132000D02*
Y-103000D01*
X123500Y-132316D02*
Y-132000D01*
X124403Y-150097D02*
Y-133219D01*
X123500Y-132316D02*
X124403Y-133219D01*
X507924Y-100576D02*
X508621Y-99879D01*
X507379Y-101120D02*
X507924Y-100576D01*
X507379Y-104396D02*
Y-101120D01*
X506500Y-105276D02*
X507379Y-104396D01*
X511250Y-99879D02*
X512130Y-99000D01*
X508621Y-99879D02*
X511250D01*
X420000Y-173500D02*
Y-109000D01*
X510240Y-106161D02*
X511120Y-107041D01*
X513041D02*
X515000Y-109000D01*
X510240Y-106161D02*
Y-105276D01*
X511120Y-107041D02*
X513041D01*
X502760Y-118519D02*
Y-114724D01*
Y-121610D02*
Y-118519D01*
X502370Y-122000D02*
X502760Y-121610D01*
X505084Y-98416D02*
X505380D01*
X504500Y-99000D02*
X505084Y-98416D01*
X502370Y-99000D02*
X504500D01*
X502760Y-105276D02*
Y-99390D01*
X502370Y-99000D02*
X502760Y-99390D01*
X279000Y-187000D02*
Y-84500D01*
Y-187000D02*
X280500Y-188500D01*
X171000Y-105887D02*
X171032Y-105855D01*
X171000Y-115000D02*
Y-105887D01*
X82298Y-128614D02*
X83500Y-127412D01*
X82298Y-144202D02*
Y-128614D01*
X428345Y-220171D02*
X428398Y-220118D01*
X427345Y-220171D02*
X428345D01*
X427332Y-220184D02*
X427345Y-220171D01*
X422395Y-220184D02*
X427332D01*
X427669Y-218150D02*
X428398D01*
X423984Y-218984D02*
X426835D01*
X427669Y-218150D01*
X142740Y-27559D02*
X142799Y-27500D01*
X147130D01*
X287000Y-64500D02*
X287500Y-64000D01*
X287000Y-204500D02*
Y-64500D01*
X416500Y-206000D02*
X420500D01*
X422807Y-208307D02*
X428398D01*
X420500Y-206000D02*
X422807Y-208307D01*
X429500Y-201594D02*
Y-195870D01*
X430957Y-203780D02*
Y-203051D01*
X429500Y-201594D02*
X430957Y-203051D01*
X451232Y-203157D02*
X453577Y-200812D01*
X451232Y-206339D02*
Y-203157D01*
X453577Y-200812D02*
Y-197683D01*
X454457Y-196803D01*
X454555D01*
X477975Y-206045D02*
Y-204521D01*
X473441Y-211563D02*
Y-210579D01*
X477975Y-204521D02*
X478559Y-203937D01*
X457500Y-199201D02*
X460189Y-196512D01*
X460268D01*
X460346Y-205512D02*
Y-201091D01*
X460268Y-201012D02*
X460346Y-201091D01*
X453613Y-212244D02*
X459369Y-206489D01*
Y-206391D02*
X460248Y-205512D01*
X460346D01*
X451232Y-212244D02*
X453613D01*
X459369Y-206489D02*
Y-206391D01*
X456232Y-214213D02*
X460248Y-210197D01*
X460346D01*
X451232Y-214213D02*
X456232D01*
X460248Y-214697D02*
X460346D01*
X451232Y-216181D02*
X458764D01*
X460248Y-214697D01*
X476000Y-195079D02*
X476584Y-194494D01*
X476000Y-196063D02*
Y-195079D01*
X476000Y-189252D02*
X476584Y-188667D01*
X476584Y-194494D02*
X483314D01*
X463732Y-227000D02*
X463811D01*
X473000Y-227500D02*
Y-227255D01*
X497000Y-225000D02*
X498477Y-223523D01*
X499140D02*
X501950Y-226333D01*
X498477Y-223523D02*
X499140D01*
X496900Y-221600D02*
X503911D01*
X492711Y-217446D02*
Y-216200D01*
Y-217446D02*
X495152Y-219886D01*
X501950Y-226333D02*
X505871D01*
Y-216867D02*
X508643Y-219640D01*
Y-223560D02*
Y-219640D01*
X505871Y-226333D02*
X508643Y-223560D01*
X500168Y-218000D02*
X501301Y-216867D01*
X498000Y-217531D02*
Y-214796D01*
Y-217531D02*
X498469Y-218000D01*
X500168D01*
X501301Y-216867D02*
X505871D01*
X494671Y-211467D02*
X498000Y-214796D01*
X487978Y-218160D02*
X488186Y-218369D01*
X487978Y-218160D02*
Y-214240D01*
X490750Y-211467D01*
X487718Y-219500D02*
X488186Y-219031D01*
Y-218369D01*
X490750Y-211467D02*
X494671D01*
X464087Y-219000D02*
X464966Y-219880D01*
X455000Y-220000D02*
X457124D01*
X459467Y-219880D02*
X460346Y-219000D01*
X457244Y-219880D02*
X459467D01*
X457124Y-220000D02*
X457244Y-219880D01*
X451232Y-218150D02*
X453150D01*
X455000Y-220000D01*
X476000Y-226063D02*
Y-225079D01*
X476584Y-224495D01*
X476000Y-220421D02*
Y-219437D01*
X476584Y-224495D02*
X478055D01*
X451232Y-224055D02*
X474976D01*
X476000Y-225079D01*
X451232Y-222087D02*
X474335D01*
X476000Y-220421D01*
X436862Y-231693D02*
Y-226614D01*
X437118Y-217894D02*
X439815Y-215197D01*
X432925Y-222087D02*
X437118Y-217894D01*
X432925Y-226614D02*
Y-222087D01*
X442512Y-217894D02*
X448673Y-224055D01*
X439815Y-215197D02*
X442512Y-217894D01*
X448673Y-226614D02*
Y-224055D01*
X444736Y-229236D02*
Y-226614D01*
X449012Y-248441D02*
Y-239665D01*
Y-248441D02*
X451571Y-251000D01*
X432012Y-236642D02*
Y-236543D01*
X420500Y-227630D02*
Y-227532D01*
X423976Y-224055D02*
X428398D01*
X420500Y-227532D02*
X423976Y-224055D01*
X420457Y-222087D02*
X428398D01*
X419882Y-221512D02*
X420457Y-222087D01*
X425819Y-216181D02*
X428398D01*
X425500Y-212000D02*
X427425D01*
X427669Y-212244D02*
X428398D01*
X427425Y-212000D02*
X427669Y-212244D01*
X220000Y-230500D02*
X231630D01*
X232000Y-230870D01*
X234719Y-244219D02*
X235000Y-244500D01*
X234719Y-244219D02*
Y-235000D01*
X173652Y-218620D02*
X174630Y-219598D01*
Y-224000D02*
Y-219598D01*
X168106Y-215106D02*
X170236D01*
X173652Y-218522D01*
Y-218620D02*
Y-218522D01*
X150870Y-27500D02*
X151750Y-28379D01*
X154063D01*
X154684Y-29000D01*
X155000D01*
X150870Y-27500D02*
X151370Y-27000D01*
X95776Y-81724D02*
X96000Y-81500D01*
X119937Y-31437D02*
X120000Y-31500D01*
X116740Y-31437D02*
X119937D01*
X108479Y-30459D02*
X109260Y-31240D01*
X108282Y-30459D02*
X108479D01*
X109260Y-31437D02*
Y-31240D01*
X128000Y-106000D02*
Y-65500D01*
X138000Y-44500D02*
X139000Y-43500D01*
X138000Y-55500D02*
Y-44500D01*
X96000Y-78500D02*
X97984Y-80484D01*
X61465Y-132000D02*
Y-100500D01*
X76000Y-154500D02*
X81983D01*
X82042Y-154559D01*
X178000Y-91000D02*
Y-59000D01*
X181500Y-79500D02*
Y-53500D01*
X174500Y-88000D02*
Y-64000D01*
X32000Y-198500D02*
X76000Y-154500D01*
X32000Y-216500D02*
Y-198500D01*
X55000Y-181500D02*
X63000D01*
X85500Y-159000D01*
X61500Y-100465D02*
Y-96000D01*
D97*
X345500Y-244657D02*
X351500Y-238657D01*
Y-211000D01*
X349000Y-208500D02*
X351500Y-211000D01*
X349000Y-208500D02*
Y-134500D01*
X252773Y-68727D02*
X253000Y-68500D01*
X252462Y-68259D02*
X252759D01*
X253000Y-68500D01*
X252773Y-113521D02*
Y-68727D01*
X329248Y-114749D02*
X349000Y-134500D01*
X329248Y-113751D02*
X329500Y-113500D01*
X329248Y-114749D02*
Y-113751D01*
X307000Y-213500D02*
Y-202000D01*
Y-242457D02*
Y-213500D01*
Y-242457D02*
X309291Y-244747D01*
X314823D01*
X315488Y-245413D01*
X311500Y-207000D02*
X318280Y-213780D01*
Y-247115D02*
Y-213780D01*
X148339Y-198175D02*
Y-153608D01*
X148173Y-153442D02*
X148339Y-153608D01*
X317456Y-248956D02*
X318280Y-248133D01*
Y-247115D02*
X319158Y-246236D01*
X320177D02*
X321000Y-245413D01*
X315488Y-248956D02*
X317456D01*
X318280Y-248133D02*
Y-247115D01*
X319158Y-246236D02*
X320177D01*
D98*
X370762Y-183762D02*
X370989Y-183989D01*
Y-183601D01*
X370762Y-183762D02*
Y-147747D01*
X242500Y-250000D02*
Y-114000D01*
Y-250000D02*
X246764Y-254264D01*
X254067D01*
X201000Y-145500D02*
Y-143000D01*
X200892Y-145587D02*
X200979Y-145500D01*
X201000D01*
X190075Y-132075D02*
X201000Y-143000D01*
X190075Y-132075D02*
Y-127075D01*
X188000Y-125000D02*
X190075Y-127075D01*
X498531Y-99000D02*
X498630D01*
X497843Y-99689D02*
X498531Y-99000D01*
X497843Y-100657D02*
Y-99689D01*
X495500Y-103000D02*
X497843Y-100657D01*
X444500Y-183500D02*
Y-103000D01*
X404101Y-139399D02*
X404500Y-139000D01*
X495431Y-122000D02*
X498630D01*
X492232D02*
X495431D01*
X404500Y-139000D02*
Y-122500D01*
X404101Y-139399D02*
Y-139241D01*
X492000Y-122000D02*
X492232D01*
D99*
X438658Y-246965D02*
X442512Y-243110D01*
Y-239744D01*
X435429Y-250016D02*
X438480Y-246965D01*
X435429Y-251000D02*
Y-250016D01*
X438480Y-246965D02*
X438658D01*
D100*
X289447Y-247876D02*
X291028Y-246294D01*
X291174D01*
X292012Y-245456D01*
X286500Y-249000D02*
X288468D01*
X289447Y-248021D01*
Y-247876D01*
X273417Y-96409D02*
X274000Y-95826D01*
X271031Y-123398D02*
X272152Y-124518D01*
X271031Y-123398D02*
Y-95500D01*
X274000Y-95826D02*
Y-95500D01*
X273417Y-152614D02*
Y-96409D01*
X272152Y-152090D02*
Y-124518D01*
X265265Y-160766D02*
X273417Y-152614D01*
X265265Y-232265D02*
X279596Y-246596D01*
X264000Y-232788D02*
X279072Y-247860D01*
X284225D01*
X285759Y-246197D02*
X286500Y-245456D01*
X284624Y-246197D02*
X285759D01*
X279596Y-246596D02*
X284225D01*
X284624Y-246197D01*
X285759Y-248259D02*
X286500Y-249000D01*
X284624Y-248259D02*
X285759D01*
X284225Y-247860D02*
X284624Y-248259D01*
X265265Y-232265D02*
Y-160766D01*
X264000Y-232788D02*
Y-160242D01*
X272152Y-152090D01*
D101*
X154500Y-97000D02*
X159450Y-101950D01*
Y-138000D02*
Y-101950D01*
X154500Y-97000D02*
Y-64035D01*
X88500Y-20500D02*
X92000D01*
X92500Y-21000D01*
X401532Y-215240D02*
X401601Y-215309D01*
Y-215958D02*
X403000Y-217358D01*
Y-235000D02*
Y-217358D01*
X400882Y-215240D02*
X401532D01*
X401601Y-215958D02*
Y-215309D01*
X147390Y-65500D02*
X148000D01*
X134500Y-79500D02*
X135120Y-78880D01*
Y-77770D01*
X147390Y-65500D01*
X153035D02*
X154500Y-64035D01*
Y-38500D01*
X148000Y-65500D02*
X153035D01*
X154000Y-38000D02*
X154500Y-38500D01*
X130500Y-25032D02*
X130531Y-25000D01*
X135260D01*
X130500Y-25130D02*
Y-25032D01*
X130470Y-28900D02*
X130500Y-28870D01*
X130470Y-33698D02*
Y-28900D01*
X127059Y-37110D02*
X130470Y-33698D01*
X127059Y-37894D02*
Y-37110D01*
Y-21591D02*
Y-12299D01*
Y-21591D02*
X130500Y-25032D01*
X72000Y-47130D02*
Y-42870D01*
X81260Y-42118D02*
X85000D01*
X88740Y-42482D02*
X88809Y-42551D01*
X88740Y-42482D02*
Y-42118D01*
X88809Y-42551D02*
X92500D01*
D102*
X151501Y-249000D02*
Y-231207D01*
X142307Y-219000D02*
X151501Y-228193D01*
X171305Y-248804D02*
Y-234305D01*
X165000Y-228000D02*
X171305Y-234305D01*
Y-248804D02*
X171501Y-249000D01*
X131305Y-248804D02*
Y-228527D01*
Y-248804D02*
X131500Y-249000D01*
X130693Y-227915D02*
X131305Y-228527D01*
X130693Y-227915D02*
Y-219000D01*
Y-198716D01*
X98000Y-198500D02*
X100193Y-200693D01*
Y-219500D02*
Y-200693D01*
X111501Y-249000D02*
Y-219807D01*
X111807Y-219500D01*
D103*
X252500Y-206500D02*
Y-189500D01*
X411906Y-207761D02*
X414413Y-210268D01*
X411119Y-207761D02*
X411906D01*
X414413Y-210268D02*
X417000D01*
X418992D01*
X419759Y-209500D01*
X420000D01*
X430809Y-227000D02*
X430957Y-226853D01*
X430000Y-227000D02*
X430809D01*
X430957Y-226853D02*
Y-226614D01*
X404000Y-204642D02*
Y-195500D01*
X400882Y-207760D02*
X401670D01*
X402251Y-207179D01*
Y-206391D01*
X404000Y-204642D01*
X403265Y-209319D02*
X403851Y-209905D01*
Y-213095D02*
Y-209905D01*
X403229Y-209319D02*
X403265D01*
X403136Y-213810D02*
X403851Y-213095D01*
X403099Y-213810D02*
X403136D01*
X401670Y-207760D02*
X403229Y-209319D01*
X401669Y-215240D02*
X403099Y-213810D01*
X65774Y-24000D02*
X65868Y-24094D01*
X63565Y-24000D02*
X65774D01*
X63339Y-23773D02*
Y-23405D01*
Y-23773D02*
X63565Y-24000D01*
X72703Y-35903D02*
X73354D01*
X72000Y-36606D02*
X72703Y-35903D01*
X72000Y-39130D02*
Y-36606D01*
X73354Y-35903D02*
X77839Y-31419D01*
X95260Y-40728D02*
Y-35780D01*
Y-40728D02*
X97531Y-43000D01*
X97630D01*
X99000Y-28220D02*
Y-26179D01*
X88370Y-24500D02*
X97321D01*
X99000Y-26179D01*
X85000Y-30799D02*
X86172Y-29628D01*
X88370Y-27528D02*
Y-24500D01*
X85000Y-31882D02*
Y-30799D01*
X86172Y-29628D02*
Y-29043D01*
X86984Y-28231D01*
X87667D01*
X88370Y-27528D01*
X77839Y-31419D02*
Y-23405D01*
X88740Y-32965D02*
X90759Y-34983D01*
Y-36853D02*
X90905Y-37000D01*
X88740Y-32965D02*
Y-31882D01*
X90759Y-36853D02*
Y-34983D01*
X67000Y-33000D02*
X67069Y-33069D01*
X71431D01*
X71500Y-33138D01*
X66647Y-36853D02*
Y-33353D01*
X66500Y-37000D02*
X66647Y-36853D01*
Y-33353D02*
X67000Y-33000D01*
D104*
X130693Y-199504D02*
Y-198716D01*
X146228Y-207728D02*
X147500Y-209000D01*
X130693Y-199504D02*
X138917Y-207728D01*
X146228D01*
X130000Y-198024D02*
X130693Y-198716D01*
X198260Y-216142D02*
X198811Y-216693D01*
X198260Y-216142D02*
Y-215453D01*
X197000Y-214193D02*
X198260Y-215453D01*
X197000Y-214193D02*
Y-205500D01*
X198811Y-216693D02*
X199500D01*
X202375Y-247375D02*
Y-241733D01*
X199500Y-238858D02*
X202375Y-241733D01*
X199500Y-238858D02*
Y-228307D01*
X202375Y-247375D02*
X203000Y-248000D01*
X211732Y-241732D02*
X218000Y-248000D01*
X211732Y-241732D02*
Y-226760D01*
X164366Y-223374D02*
X164941D01*
X165000Y-228000D02*
Y-223433D01*
X164941Y-223374D02*
X165000Y-223433D01*
X47000Y-52500D02*
Y-46807D01*
X46500Y-46307D02*
X47000Y-46807D01*
D105*
X155000Y-205766D02*
Y-182603D01*
Y-205766D02*
X155031Y-205735D01*
X155000Y-182603D02*
X165691Y-171911D01*
Y-148197D01*
D106*
X269000Y-223500D02*
X305000D01*
X410232Y-215422D02*
X410413Y-215241D01*
X411118D01*
X410232Y-221500D02*
Y-215422D01*
X416277Y-224277D02*
Y-221647D01*
X416142Y-221512D02*
X416277Y-221647D01*
Y-224277D02*
X417000Y-225000D01*
X429567Y-230279D02*
Y-227433D01*
X430000Y-227000D01*
X429268Y-230500D02*
X429347D01*
X429567Y-230279D01*
X425500Y-230500D02*
X429268D01*
X286500Y-256283D02*
X292012D01*
X286500Y-238173D02*
X292012D01*
D107*
X436000Y-204500D02*
Y-198835D01*
X436917Y-197917D02*
X439012Y-195823D01*
X436000Y-198835D02*
X436917Y-197917D01*
X434500Y-195811D02*
X436606Y-197917D01*
X436917D01*
X434500Y-195811D02*
Y-195732D01*
X439012Y-195823D02*
Y-195744D01*
D108*
X315488Y-259980D02*
D03*
Y-256239D02*
D03*
Y-252500D02*
D03*
Y-248956D02*
D03*
Y-245413D02*
D03*
Y-241869D02*
D03*
Y-238129D02*
D03*
Y-234389D02*
D03*
X321000D02*
D03*
Y-238129D02*
D03*
Y-241869D02*
D03*
Y-245413D02*
D03*
Y-248956D02*
D03*
Y-252500D02*
D03*
Y-256239D02*
D03*
Y-259980D02*
D03*
X286500Y-260024D02*
D03*
Y-256283D02*
D03*
Y-252543D02*
D03*
Y-249000D02*
D03*
Y-245456D02*
D03*
Y-241913D02*
D03*
Y-238173D02*
D03*
Y-234432D02*
D03*
X292012D02*
D03*
Y-238173D02*
D03*
Y-241913D02*
D03*
Y-245456D02*
D03*
Y-249000D02*
D03*
Y-252543D02*
D03*
Y-256283D02*
D03*
Y-260024D02*
D03*
D109*
X310646Y-239311D02*
D03*
Y-255059D02*
D03*
X325842Y-239311D02*
D03*
Y-255059D02*
D03*
X281657Y-255102D02*
D03*
Y-239354D02*
D03*
X296854Y-255102D02*
D03*
Y-239354D02*
D03*
D110*
X134500Y-79500D02*
D03*
D111*
X139500D02*
D03*
X134500Y-84500D02*
D03*
Y-89500D02*
D03*
X139500Y-84500D02*
D03*
Y-89500D02*
D03*
X134500Y-94500D02*
D03*
Y-99500D02*
D03*
X139500Y-94500D02*
D03*
Y-99500D02*
D03*
D112*
X15228Y-45500D02*
D03*
X16228Y-69500D02*
D03*
D113*
X15228Y-15500D02*
D03*
X16228Y-99500D02*
D03*
D114*
X459815Y-90595D02*
D03*
X61500Y-253000D02*
D03*
X89059Y-58095D02*
D03*
D115*
X34000Y-236500D02*
D03*
D116*
X14000D02*
D03*
D117*
X171501Y-249000D02*
D03*
X151501D02*
D03*
X131500D02*
D03*
X111501D02*
D03*
D118*
X203000Y-248000D02*
D03*
D119*
X218000D02*
D03*
D120*
X370890Y-251610D02*
D03*
D121*
X363409Y-223658D02*
D03*
X414591Y-235469D02*
D03*
D122*
X398843Y-259091D02*
D03*
X387032Y-207909D02*
D03*
D123*
X148000Y-55500D02*
D03*
D124*
X127059Y-12299D02*
D03*
Y-37894D02*
D03*
D125*
X339500Y-203000D02*
D03*
X240000Y-199500D02*
D03*
X355000Y-211000D02*
D03*
X335000Y-206787D02*
D03*
X360500Y-207000D02*
D03*
X365000Y-200158D02*
D03*
X360384Y-174549D02*
D03*
X366384Y-179285D02*
D03*
X165150Y-199500D02*
D03*
X158850D02*
D03*
X162000Y-202650D02*
D03*
Y-196350D02*
D03*
X49000Y-28000D02*
D03*
X36500Y-38500D02*
D03*
X54000Y-44000D02*
D03*
X71500Y-58000D02*
D03*
X81000Y-27000D02*
D03*
X254063Y-147755D02*
D03*
X227641Y-104511D02*
D03*
X239500Y-110500D02*
D03*
X196000Y-54000D02*
D03*
Y-60500D02*
D03*
X217500Y-54000D02*
D03*
X212500Y-69500D02*
D03*
X207000Y-70000D02*
D03*
X82053Y-169437D02*
D03*
X95500Y-242000D02*
D03*
X88500Y-218500D02*
D03*
X58000Y-224000D02*
D03*
X76542Y-223244D02*
D03*
X75000Y-219000D02*
D03*
X62500Y-218500D02*
D03*
X54000Y-80500D02*
D03*
Y-73000D02*
D03*
Y-68000D02*
D03*
Y-61500D02*
D03*
Y-57000D02*
D03*
X89000Y-121000D02*
D03*
X99000Y-121500D02*
D03*
X125000Y-158500D02*
D03*
X178000Y-228000D02*
D03*
X237342Y-228683D02*
D03*
X231000Y-242500D02*
D03*
X228500Y-217000D02*
D03*
X261500Y-174000D02*
D03*
X261540Y-184870D02*
D03*
X261500Y-181000D02*
D03*
X276500Y-198500D02*
D03*
X261500Y-211000D02*
D03*
X331500Y-180500D02*
D03*
X327000Y-220000D02*
D03*
X312000Y-226000D02*
D03*
X312500Y-220500D02*
D03*
Y-217000D02*
D03*
X393000Y-213500D02*
D03*
X434500Y-188500D02*
D03*
X439000Y-188000D02*
D03*
X432500Y-200000D02*
D03*
X439052Y-200751D02*
D03*
X428500Y-234000D02*
D03*
X441000Y-233000D02*
D03*
X452500Y-236000D02*
D03*
X457000Y-227000D02*
D03*
X469500Y-234500D02*
D03*
X482432Y-209858D02*
D03*
X467500Y-197000D02*
D03*
X467660Y-201137D02*
D03*
X469000Y-204000D02*
D03*
X478500Y-177500D02*
D03*
X499000Y-125500D02*
D03*
X492500Y-126000D02*
D03*
X516500Y-126500D02*
D03*
X506000Y-119500D02*
D03*
X487000Y-86000D02*
D03*
X494416Y-86046D02*
D03*
X522500Y-85500D02*
D03*
X523000Y-125000D02*
D03*
X484000Y-131500D02*
D03*
X322819Y-55956D02*
D03*
X323319Y-59456D02*
D03*
X331557Y-69535D02*
D03*
X323319Y-69956D02*
D03*
Y-73956D02*
D03*
X321819Y-81956D02*
D03*
X325319Y-84456D02*
D03*
X328819Y-88456D02*
D03*
X328742Y-92302D02*
D03*
X328819Y-122956D02*
D03*
X291819Y-144956D02*
D03*
X295819D02*
D03*
X187819Y-132456D02*
D03*
X174319Y-131456D02*
D03*
X170319D02*
D03*
X207319Y-127456D02*
D03*
X200319Y-131956D02*
D03*
X210319Y-129956D02*
D03*
X214984Y-129965D02*
D03*
X114819Y-124456D02*
D03*
X114319Y-134956D02*
D03*
X112500Y-119500D02*
D03*
X102319Y-123456D02*
D03*
X87819Y-164956D02*
D03*
X83819Y-178956D02*
D03*
Y-165456D02*
D03*
X80819Y-173956D02*
D03*
X93384Y-218524D02*
D03*
X88819Y-179956D02*
D03*
X97759Y-10506D02*
D03*
X111819Y-10456D02*
D03*
X105819Y-5956D02*
D03*
X91819Y-6456D02*
D03*
X109913Y-37923D02*
D03*
X109319Y-40456D02*
D03*
X75319Y-43956D02*
D03*
X88819Y-94956D02*
D03*
Y-90956D02*
D03*
X91955Y-136526D02*
D03*
X93785Y-138864D02*
D03*
X89319Y-87956D02*
D03*
X91819Y-85456D02*
D03*
X96000Y-90500D02*
D03*
X210984Y-30067D02*
D03*
X511909Y-64981D02*
D03*
X517814Y-76792D02*
D03*
Y-147658D02*
D03*
X511909Y-159469D02*
D03*
X517814Y-171280D02*
D03*
X511909Y-183091D02*
D03*
X517814Y-194902D02*
D03*
X511909Y-206713D02*
D03*
X517814Y-218524D02*
D03*
X511909Y-230335D02*
D03*
X517814Y-242146D02*
D03*
X511909Y-253957D02*
D03*
X500098Y-64981D02*
D03*
X506003Y-76792D02*
D03*
Y-171280D02*
D03*
Y-194902D02*
D03*
X500098Y-206713D02*
D03*
Y-230335D02*
D03*
X488287Y-64981D02*
D03*
X494192Y-76792D02*
D03*
X488287Y-112225D02*
D03*
Y-159469D02*
D03*
X494192Y-171280D02*
D03*
X488287Y-230335D02*
D03*
Y-253957D02*
D03*
X476476Y-64981D02*
D03*
X482381Y-76792D02*
D03*
X476476Y-88603D02*
D03*
Y-112225D02*
D03*
X482381Y-147658D02*
D03*
X476476Y-159469D02*
D03*
X482381Y-171280D02*
D03*
Y-242146D02*
D03*
X476476Y-253957D02*
D03*
X464665Y-64981D02*
D03*
X470570Y-76792D02*
D03*
Y-100414D02*
D03*
X464665Y-112225D02*
D03*
X470570Y-147658D02*
D03*
X464665Y-159469D02*
D03*
X470570Y-171280D02*
D03*
X464665Y-183091D02*
D03*
Y-230335D02*
D03*
X470570Y-242146D02*
D03*
X464665Y-253957D02*
D03*
X452854Y-64981D02*
D03*
X458759Y-76792D02*
D03*
X452854Y-112225D02*
D03*
X458759Y-147658D02*
D03*
X452854Y-159469D02*
D03*
X458759Y-171280D02*
D03*
X452854Y-183091D02*
D03*
Y-230335D02*
D03*
X458759Y-242146D02*
D03*
X441043Y-64981D02*
D03*
X446948Y-76792D02*
D03*
X441043Y-88603D02*
D03*
X446948Y-100414D02*
D03*
X441043Y-112225D02*
D03*
X446948Y-147658D02*
D03*
X441043Y-159469D02*
D03*
X446948Y-171280D02*
D03*
X441043Y-253957D02*
D03*
X429232Y-64981D02*
D03*
X435137Y-76792D02*
D03*
X429232Y-88603D02*
D03*
X435137Y-100414D02*
D03*
X429232Y-112225D02*
D03*
Y-135847D02*
D03*
Y-159469D02*
D03*
Y-253957D02*
D03*
X417421Y-64981D02*
D03*
X423326Y-76792D02*
D03*
X417421Y-88603D02*
D03*
X423326Y-100414D02*
D03*
X417421Y-112225D02*
D03*
Y-135847D02*
D03*
X423326Y-147658D02*
D03*
X417421Y-159469D02*
D03*
X423326Y-171280D02*
D03*
Y-242146D02*
D03*
X417421Y-253957D02*
D03*
X405610Y-64981D02*
D03*
X411515Y-100414D02*
D03*
X405610Y-112225D02*
D03*
X411515Y-147658D02*
D03*
Y-171280D02*
D03*
X405610Y-253957D02*
D03*
X393799Y-64981D02*
D03*
Y-230335D02*
D03*
X399704Y-242146D02*
D03*
X393799Y-253957D02*
D03*
X387893Y-76792D02*
D03*
X381988Y-88603D02*
D03*
Y-112225D02*
D03*
X387893Y-124036D02*
D03*
Y-147658D02*
D03*
X381988Y-159469D02*
D03*
X387893Y-194902D02*
D03*
Y-218524D02*
D03*
X381988Y-230335D02*
D03*
X387893Y-242146D02*
D03*
X381988Y-253957D02*
D03*
X376082Y-76792D02*
D03*
X370177Y-112225D02*
D03*
X376082Y-124036D02*
D03*
Y-147658D02*
D03*
Y-171280D02*
D03*
Y-194902D02*
D03*
Y-218524D02*
D03*
X370177Y-230335D02*
D03*
X376082Y-242146D02*
D03*
X364271Y-124036D02*
D03*
X358366Y-159469D02*
D03*
Y-230335D02*
D03*
X364271Y-242146D02*
D03*
X358366Y-253957D02*
D03*
X352460Y-124036D02*
D03*
X346554Y-159469D02*
D03*
X352460Y-171280D02*
D03*
X346554Y-230335D02*
D03*
X352460Y-242146D02*
D03*
X334743Y-135847D02*
D03*
X340649Y-147658D02*
D03*
X334743Y-159469D02*
D03*
X340649Y-171280D02*
D03*
Y-242146D02*
D03*
X322933Y-88603D02*
D03*
Y-135847D02*
D03*
X328838Y-147658D02*
D03*
X311121Y-64981D02*
D03*
X317027Y-147658D02*
D03*
Y-171280D02*
D03*
X299310Y-64981D02*
D03*
X305216Y-76792D02*
D03*
X293405Y-147658D02*
D03*
Y-171280D02*
D03*
X263877Y-253957D02*
D03*
X257972Y-147658D02*
D03*
X252066Y-183091D02*
D03*
Y-230335D02*
D03*
X246161Y-53170D02*
D03*
X240255Y-183091D02*
D03*
Y-230335D02*
D03*
X246161Y-242146D02*
D03*
X240255Y-253957D02*
D03*
X228444D02*
D03*
X222539Y-194902D02*
D03*
X216633Y-253957D02*
D03*
X210728Y-124036D02*
D03*
Y-194902D02*
D03*
X204822Y-206713D02*
D03*
Y-253957D02*
D03*
X193011Y-64981D02*
D03*
Y-253957D02*
D03*
X187106Y-53170D02*
D03*
Y-242146D02*
D03*
X181200Y-253957D02*
D03*
X175295Y-124036D02*
D03*
X157578Y-64981D02*
D03*
X163484Y-242146D02*
D03*
X157578Y-253957D02*
D03*
X145767Y-41359D02*
D03*
X151673Y-100414D02*
D03*
X145767Y-112225D02*
D03*
X151673Y-124036D02*
D03*
X145767Y-135847D02*
D03*
X151673Y-147658D02*
D03*
Y-218524D02*
D03*
X145767Y-253957D02*
D03*
X133956Y-17737D02*
D03*
X139862Y-124036D02*
D03*
X133956Y-135847D02*
D03*
X139862Y-242146D02*
D03*
X122145Y-17737D02*
D03*
Y-41359D02*
D03*
Y-64981D02*
D03*
X128051Y-124036D02*
D03*
X122145Y-135847D02*
D03*
X128051Y-147658D02*
D03*
X122145Y-253957D02*
D03*
X116240Y-53170D02*
D03*
X110334Y-64981D02*
D03*
X116240Y-76792D02*
D03*
X110334Y-88603D02*
D03*
X116240Y-100414D02*
D03*
X110334Y-112225D02*
D03*
Y-135847D02*
D03*
X98523Y-64981D02*
D03*
Y-88603D02*
D03*
X104429Y-100414D02*
D03*
X98523Y-112225D02*
D03*
X104429Y-242146D02*
D03*
X98523Y-253957D02*
D03*
X86712D02*
D03*
X74901Y-64981D02*
D03*
X80807Y-76792D02*
D03*
Y-218524D02*
D03*
X74901Y-253957D02*
D03*
X68995Y-218524D02*
D03*
X51279Y-41359D02*
D03*
Y-64981D02*
D03*
Y-88603D02*
D03*
X57184Y-147658D02*
D03*
Y-218524D02*
D03*
Y-242146D02*
D03*
X39468Y-41359D02*
D03*
Y-64981D02*
D03*
Y-88603D02*
D03*
X45373Y-147658D02*
D03*
Y-218524D02*
D03*
X39468Y-253957D02*
D03*
X33562Y-53170D02*
D03*
Y-76792D02*
D03*
Y-100414D02*
D03*
X27657Y-112225D02*
D03*
X33562Y-147658D02*
D03*
X27657Y-253957D02*
D03*
X15846Y-112225D02*
D03*
X21751Y-147658D02*
D03*
X15846Y-206713D02*
D03*
X21751Y-218524D02*
D03*
X15846Y-230335D02*
D03*
X21751Y-242146D02*
D03*
X15846Y-253957D02*
D03*
X4035Y-112225D02*
D03*
Y-135847D02*
D03*
X9940Y-147658D02*
D03*
X4035Y-159469D02*
D03*
Y-183091D02*
D03*
X9940Y-194902D02*
D03*
X4035Y-206713D02*
D03*
X9940Y-218524D02*
D03*
X4035Y-230335D02*
D03*
X9940Y-242146D02*
D03*
X4035Y-253957D02*
D03*
X104578Y-154724D02*
D03*
X86000Y-86500D02*
D03*
X203500Y-121384D02*
D03*
X194000Y-117500D02*
D03*
X226000Y-126500D02*
D03*
X244008Y-37806D02*
D03*
X241000Y-48500D02*
D03*
X249000Y-36500D02*
D03*
Y-30000D02*
D03*
Y-33500D02*
D03*
X245080Y-26337D02*
D03*
X124820Y-234599D02*
D03*
X79500Y-150056D02*
D03*
X271031Y-95500D02*
D03*
X274000D02*
D03*
X163500Y-189184D02*
D03*
X101500Y-46500D02*
D03*
X190998Y-105998D02*
D03*
X258500Y-202216D02*
D03*
X281536Y-145505D02*
D03*
X422595Y-214056D02*
D03*
X281078Y-175380D02*
D03*
X281578Y-169880D02*
D03*
X282500Y-173000D02*
D03*
X159450Y-138000D02*
D03*
X331063Y-57626D02*
D03*
X318829Y-69181D02*
D03*
X302000Y-192000D02*
D03*
X303881Y-211684D02*
D03*
X237000Y-206000D02*
D03*
X219000Y-63500D02*
D03*
X217000Y-160000D02*
D03*
X246500D02*
D03*
X329500Y-161000D02*
D03*
X331500Y-253500D02*
D03*
X339500Y-186000D02*
D03*
X225500Y-187000D02*
D03*
X221944Y-140444D02*
D03*
X225000Y-143000D02*
D03*
X224000Y-59500D02*
D03*
X246853Y-58784D02*
D03*
X249500Y-177000D02*
D03*
X252462Y-68259D02*
D03*
X252773Y-113521D02*
D03*
X329500Y-113500D02*
D03*
X307000Y-213500D02*
D03*
X359500Y-182500D02*
D03*
X302000D02*
D03*
X302500Y-130500D02*
D03*
X301604Y-82948D02*
D03*
X211000Y-114500D02*
D03*
X242500Y-114000D02*
D03*
X229444Y-194873D02*
D03*
X172472Y-187984D02*
D03*
X115500Y-186000D02*
D03*
X143500Y-203000D02*
D03*
X151553Y-200872D02*
D03*
X110521Y-180212D02*
D03*
X97000Y-167500D02*
D03*
X101620Y-171707D02*
D03*
X81002Y-184004D02*
D03*
X227000Y-184000D02*
D03*
X355000Y-166500D02*
D03*
X320000D02*
D03*
X319897Y-85785D02*
D03*
X247854Y-79786D02*
D03*
X306000Y-193000D02*
D03*
X298000Y-198500D02*
D03*
X307000Y-202000D02*
D03*
X335000Y-177500D02*
D03*
X151703Y-231207D02*
D03*
X227500Y-223000D02*
D03*
X390500Y-127500D02*
D03*
X354030Y-127493D02*
D03*
X354000Y-145500D02*
D03*
X310500D02*
D03*
Y-72500D02*
D03*
X245781Y-72110D02*
D03*
X393332Y-195999D02*
D03*
X396000Y-219500D02*
D03*
X408598Y-133484D02*
D03*
X315912Y-138770D02*
D03*
X315500Y-88500D02*
D03*
X184000D02*
D03*
X189325Y-89036D02*
D03*
X199484Y-105000D02*
D03*
X197500Y-72000D02*
D03*
X252500Y-206500D02*
D03*
X311500Y-207000D02*
D03*
X214652Y-203583D02*
D03*
X214500Y-207000D02*
D03*
X229500Y-44500D02*
D03*
X175500Y-191500D02*
D03*
X175898Y-215500D02*
D03*
X182500Y-198500D02*
D03*
Y-227000D02*
D03*
X191500D02*
D03*
X147500Y-209000D02*
D03*
X144105Y-211859D02*
D03*
X155031Y-205735D02*
D03*
X169500Y-205916D02*
D03*
X155082Y-219584D02*
D03*
X173000Y-201000D02*
D03*
X143500Y-188500D02*
D03*
X241633Y-104040D02*
D03*
X161000Y-38500D02*
D03*
X187478Y-108500D02*
D03*
X197500Y-111000D02*
D03*
X180992Y-110489D02*
D03*
X178500Y-114000D02*
D03*
X413500Y-80000D02*
D03*
Y-104500D02*
D03*
X372500Y-108000D02*
D03*
X323000Y-108500D02*
D03*
X218500Y-107000D02*
D03*
X213500Y-104500D02*
D03*
X326500Y-101500D02*
D03*
X367000D02*
D03*
X409783Y-93975D02*
D03*
X276500Y-130500D02*
D03*
X269000Y-223500D02*
D03*
X449500Y-231500D02*
D03*
X420000Y-209500D02*
D03*
X414429Y-192150D02*
D03*
X425500Y-230500D02*
D03*
X417000Y-225000D02*
D03*
X421976Y-216959D02*
D03*
X399000Y-222000D02*
D03*
X425000Y-217000D02*
D03*
X418000Y-218000D02*
D03*
X305000Y-223500D02*
D03*
X277500Y-220500D02*
D03*
X218000Y-217500D02*
D03*
X154500Y-97000D02*
D03*
X92556Y-17721D02*
D03*
X92500Y-21000D02*
D03*
X105500Y-29500D02*
D03*
Y-43000D02*
D03*
X475708Y-208312D02*
D03*
X473630Y-176692D02*
D03*
X478538Y-238392D02*
D03*
X403000Y-235000D02*
D03*
X252500Y-189500D02*
D03*
X256000Y-198000D02*
D03*
X277000Y-151500D02*
D03*
X279722Y-193591D02*
D03*
X277000Y-206500D02*
D03*
X277500Y-211000D02*
D03*
Y-215500D02*
D03*
X404000Y-195500D02*
D03*
X449712Y-201314D02*
D03*
X436000Y-198835D02*
D03*
X182192Y-145697D02*
D03*
X165691Y-148197D02*
D03*
X262000Y-147000D02*
D03*
Y-117500D02*
D03*
X200892Y-145587D02*
D03*
X188000Y-125000D02*
D03*
X187478Y-142361D02*
D03*
X185500Y-223500D02*
D03*
X152000Y-151000D02*
D03*
X149000Y-103000D02*
D03*
X154000Y-38000D02*
D03*
X148173Y-153442D02*
D03*
X124403Y-150097D02*
D03*
X148339Y-198175D02*
D03*
X495500Y-103000D02*
D03*
X444500D02*
D03*
Y-183500D02*
D03*
X434501Y-179642D02*
D03*
X434500Y-136000D02*
D03*
X519603Y-136243D02*
D03*
X361000Y-146500D02*
D03*
X366000Y-145000D02*
D03*
X395616Y-179374D02*
D03*
X519575Y-99279D02*
D03*
X507924Y-100576D02*
D03*
X400804Y-183299D02*
D03*
X370989Y-183601D02*
D03*
X370762Y-147747D02*
D03*
X375341Y-144050D02*
D03*
X404101Y-139241D02*
D03*
X404500Y-122500D02*
D03*
X495431Y-122000D02*
D03*
X482506Y-98307D02*
D03*
X420000Y-109000D02*
D03*
X515000D02*
D03*
X502760Y-118519D02*
D03*
X505380Y-98416D02*
D03*
X387000Y-173500D02*
D03*
X420000D02*
D03*
X353500Y-87500D02*
D03*
Y-83500D02*
D03*
Y-79000D02*
D03*
Y-75000D02*
D03*
X293000Y-125000D02*
D03*
Y-130500D02*
D03*
X302500Y-125000D02*
D03*
X279000Y-84500D02*
D03*
X260000Y-131000D02*
D03*
X251000Y-126000D02*
D03*
X248500Y-131000D02*
D03*
X254000D02*
D03*
X257500Y-126500D02*
D03*
X283500Y-129000D02*
D03*
X277000Y-147500D02*
D03*
X221000Y-145000D02*
D03*
X212500D02*
D03*
X161500Y-153500D02*
D03*
X98148Y-135364D02*
D03*
X117000Y-145500D02*
D03*
X123500Y-132000D02*
D03*
X171032Y-105855D02*
D03*
X171000Y-115000D02*
D03*
X116500D02*
D03*
X149000Y-132000D02*
D03*
X178522Y-103229D02*
D03*
X183522D02*
D03*
X82298Y-144202D02*
D03*
X406500Y-212000D02*
D03*
X193870Y-128146D02*
D03*
X120500Y-128000D02*
D03*
Y-73500D02*
D03*
X133500D02*
D03*
Y-33000D02*
D03*
X113000Y-20782D02*
D03*
X136000Y-110500D02*
D03*
X229500Y-58500D02*
D03*
X287500Y-64000D02*
D03*
X287000Y-204500D02*
D03*
X400000Y-193000D02*
D03*
X416500Y-206000D02*
D03*
X447000Y-217894D02*
D03*
Y-212500D02*
D03*
X442512Y-217894D02*
D03*
X432630Y-212500D02*
D03*
X442512Y-222382D02*
D03*
X437118D02*
D03*
Y-208012D02*
D03*
X442512D02*
D03*
Y-212500D02*
D03*
X432630Y-217894D02*
D03*
X437118D02*
D03*
Y-212500D02*
D03*
X306000Y-92500D02*
D03*
X315315Y-73374D02*
D03*
X425500Y-212000D02*
D03*
Y-188500D02*
D03*
X280500D02*
D03*
X159512Y-84370D02*
D03*
X422500Y-198500D02*
D03*
X298000Y-76000D02*
D03*
X160500D02*
D03*
X178000Y-91000D02*
D03*
X174540Y-87952D02*
D03*
X181500Y-79500D02*
D03*
Y-53500D02*
D03*
X178000Y-59000D02*
D03*
X174500Y-64000D02*
D03*
X197000Y-205500D02*
D03*
X144500Y-196500D02*
D03*
X235000Y-244500D02*
D03*
X234719Y-110312D02*
D03*
X203000Y-114000D02*
D03*
X160000Y-97500D02*
D03*
X164500Y-99000D02*
D03*
X518000Y-54000D02*
D03*
X248188Y-54677D02*
D03*
X252500Y-55500D02*
D03*
X256076Y-56345D02*
D03*
X260000Y-57500D02*
D03*
X264000Y-56500D02*
D03*
X311500Y-57500D02*
D03*
X291252Y-57000D02*
D03*
X279441D02*
D03*
X287315D02*
D03*
X271567D02*
D03*
X307000D02*
D03*
X303063D02*
D03*
X275504D02*
D03*
X299126D02*
D03*
X267630D02*
D03*
X295189D02*
D03*
X283378D02*
D03*
X259500Y-54000D02*
D03*
X257500Y-52000D02*
D03*
X254500D02*
D03*
X251500D02*
D03*
X249000Y-49500D02*
D03*
Y-46000D02*
D03*
Y-42500D02*
D03*
Y-39500D02*
D03*
X149500Y-23000D02*
D03*
X147500Y-19500D02*
D03*
X146000Y-17000D02*
D03*
X143500Y-13500D02*
D03*
X141500Y-11000D02*
D03*
X139500Y-8000D02*
D03*
X137255Y-5295D02*
D03*
X140756Y-5225D02*
D03*
X142500Y-8000D02*
D03*
X145000Y-11000D02*
D03*
X147000Y-14000D02*
D03*
X149000Y-17000D02*
D03*
X150500Y-20000D02*
D03*
X153000Y-22500D02*
D03*
X154500Y-25500D02*
D03*
X155000Y-29000D02*
D03*
X160000D02*
D03*
X249080Y-26337D02*
D03*
X171080Y-28337D02*
D03*
X173580Y-29837D02*
D03*
X177080D02*
D03*
X180580D02*
D03*
X184537Y-29710D02*
D03*
X187580Y-29337D02*
D03*
X191080Y-28837D02*
D03*
X177080Y-26337D02*
D03*
X180080D02*
D03*
X183080D02*
D03*
X186080D02*
D03*
X112500Y-28000D02*
D03*
X96000Y-81500D02*
D03*
X120000Y-31500D02*
D03*
X65868Y-24094D02*
D03*
X128000Y-106000D02*
D03*
X139000Y-43500D02*
D03*
X82042Y-154559D02*
D03*
X138000Y-212500D02*
D03*
X81002Y-195504D02*
D03*
Y-192504D02*
D03*
Y-189504D02*
D03*
X80900Y-186601D02*
D03*
X70000Y-155000D02*
D03*
X67500Y-156500D02*
D03*
X64270Y-156785D02*
D03*
X61500Y-157000D02*
D03*
Y-143000D02*
D03*
X64270Y-143215D02*
D03*
X67500Y-143500D02*
D03*
X70000Y-145500D02*
D03*
X69000Y-97000D02*
D03*
X71500Y-94000D02*
D03*
X74000Y-96500D02*
D03*
X69500Y-86500D02*
D03*
X69340Y-89598D02*
D03*
X69500Y-92000D02*
D03*
X76000Y-98500D02*
D03*
X96500Y-171000D02*
D03*
X79000Y-248000D02*
D03*
X90500D02*
D03*
X98000Y-164000D02*
D03*
X88594Y-137222D02*
D03*
X96000Y-78500D02*
D03*
X86059Y-121429D02*
D03*
X80100Y-123873D02*
D03*
X104000Y-90000D02*
D03*
X79495Y-147087D02*
D03*
X106000Y-124500D02*
D03*
X55000Y-181500D02*
D03*
X85500Y-159000D02*
D03*
X128088Y-165010D02*
D03*
X127588Y-177010D02*
D03*
X119088Y-180010D02*
D03*
X123088D02*
D03*
X127088Y-179510D02*
D03*
X127588Y-162510D02*
D03*
X130088Y-177010D02*
D03*
Y-173510D02*
D03*
Y-170510D02*
D03*
Y-167010D02*
D03*
Y-163510D02*
D03*
X32000Y-216500D02*
D03*
X69689Y-152000D02*
D03*
X61500Y-96000D02*
D03*
X92500Y-42551D02*
D03*
X47000Y-52500D02*
D03*
X90905Y-37000D02*
D03*
X66500D02*
D03*
X76500Y-8500D02*
D03*
X73500D02*
D03*
X70500D02*
D03*
X69000Y-6000D02*
D03*
X72000D02*
D03*
X75000D02*
D03*
X78000Y-6142D02*
D03*
X482638Y-53689D02*
D03*
X317284D02*
D03*
X315315Y-57626D02*
D03*
X285787Y-53689D02*
D03*
X297598D02*
D03*
X441299Y-57626D02*
D03*
X370433D02*
D03*
X173583Y-26130D02*
D03*
X360591Y-53689D02*
D03*
X433425Y-57626D02*
D03*
X384213Y-53689D02*
D03*
X262509Y-53345D02*
D03*
X411772Y-53689D02*
D03*
X209016Y-26130D02*
D03*
X522008Y-53689D02*
D03*
X342874Y-57626D02*
D03*
X480669D02*
D03*
X335000Y-73374D02*
D03*
X366496Y-57626D02*
D03*
X220827Y-26130D02*
D03*
X500354Y-57626D02*
D03*
X368465Y-53689D02*
D03*
X394055Y-57626D02*
D03*
X270039Y-53689D02*
D03*
X502323D02*
D03*
X455079D02*
D03*
X319252Y-73374D02*
D03*
X376339Y-53689D02*
D03*
X207047Y-30067D02*
D03*
X468858Y-57626D02*
D03*
X358622D02*
D03*
X161772Y-26130D02*
D03*
X212953D02*
D03*
X462953Y-53689D02*
D03*
X451142D02*
D03*
X470827D02*
D03*
X520040Y-57626D02*
D03*
X419646Y-53689D02*
D03*
X354685Y-57626D02*
D03*
X445236D02*
D03*
X390118D02*
D03*
X378307D02*
D03*
X459016Y-53689D02*
D03*
X382244Y-57626D02*
D03*
X431457Y-53689D02*
D03*
X195236Y-30067D02*
D03*
X222795D02*
D03*
X447205Y-53689D02*
D03*
X512165Y-57626D02*
D03*
X425551D02*
D03*
X506260Y-53689D02*
D03*
X331063Y-73374D02*
D03*
X484606Y-57626D02*
D03*
X199173Y-30067D02*
D03*
X266102Y-53689D02*
D03*
X216890Y-26130D02*
D03*
X197205D02*
D03*
X313347Y-53689D02*
D03*
X508228Y-57626D02*
D03*
X364528Y-53689D02*
D03*
X189331Y-26130D02*
D03*
X205079Y-34004D02*
D03*
X437362Y-57626D02*
D03*
X486575Y-53689D02*
D03*
X386181Y-57626D02*
D03*
X333032Y-53689D02*
D03*
X516103Y-57626D02*
D03*
X193268Y-26130D02*
D03*
X301535Y-53689D02*
D03*
X356654D02*
D03*
X214921Y-30067D02*
D03*
X374370Y-57626D02*
D03*
X331063Y-65500D02*
D03*
X277913Y-53689D02*
D03*
X305472D02*
D03*
X224764Y-26130D02*
D03*
X476732Y-57626D02*
D03*
X443268Y-53689D02*
D03*
X205079Y-26130D02*
D03*
X403898Y-53689D02*
D03*
X335000Y-57626D02*
D03*
X212953Y-34004D02*
D03*
X189331D02*
D03*
X464921Y-57626D02*
D03*
X453110D02*
D03*
X350748D02*
D03*
X209016Y-34004D02*
D03*
X457047Y-57626D02*
D03*
X372402Y-53689D02*
D03*
X228701Y-26130D02*
D03*
X392087Y-53689D02*
D03*
X460984Y-57626D02*
D03*
X504291D02*
D03*
X315315Y-65500D02*
D03*
X201142Y-26130D02*
D03*
X338937Y-57626D02*
D03*
X413740D02*
D03*
X309409Y-53689D02*
D03*
X514134D02*
D03*
X273976D02*
D03*
X344843D02*
D03*
X289724D02*
D03*
X423583D02*
D03*
X397992Y-57626D02*
D03*
X216890Y-34004D02*
D03*
X510197Y-53689D02*
D03*
X427520D02*
D03*
X494449D02*
D03*
X417677Y-57626D02*
D03*
X352717Y-53689D02*
D03*
X474764D02*
D03*
X203110Y-30067D02*
D03*
X157834Y-26130D02*
D03*
X388150Y-53689D02*
D03*
X401929Y-57626D02*
D03*
X435394Y-53689D02*
D03*
X362559Y-57626D02*
D03*
X415709Y-53689D02*
D03*
X407835D02*
D03*
X496417Y-57626D02*
D03*
X224764Y-34004D02*
D03*
X348780Y-53689D02*
D03*
X281850D02*
D03*
X220827Y-34004D02*
D03*
X488543Y-57626D02*
D03*
X319252Y-65500D02*
D03*
X317284Y-61563D02*
D03*
X409803Y-57626D02*
D03*
X333032Y-61563D02*
D03*
X293661Y-53689D02*
D03*
X336968Y-61563D02*
D03*
X319252Y-57626D02*
D03*
X449173D02*
D03*
X240512Y-26130D02*
D03*
X405866Y-57626D02*
D03*
X421614D02*
D03*
X490512Y-53689D02*
D03*
X399961D02*
D03*
X396024D02*
D03*
X346811Y-57626D02*
D03*
X478701Y-53689D02*
D03*
X336968D02*
D03*
X429488Y-57626D02*
D03*
X226732Y-30067D02*
D03*
X340905Y-53689D02*
D03*
X498386D02*
D03*
X335000Y-65500D02*
D03*
X466890Y-53689D02*
D03*
X492480Y-57626D02*
D03*
X380276Y-53689D02*
D03*
X201142Y-34004D02*
D03*
X472795Y-57626D02*
D03*
X218858Y-30067D02*
D03*
X439331Y-53689D02*
D03*
X319329Y-77681D02*
D03*
X320329Y-53681D02*
D03*
X228575Y-205500D02*
D03*
X222276D02*
D03*
X225426Y-208649D02*
D03*
Y-202350D02*
D03*
M02*
