G04*
G04 #@! TF.GenerationSoftware,Altium Limited,Altium Designer,24.5.2 (23)*
G04*
G04 Layer_Color=16711935*
%FSLAX25Y25*%
%MOIN*%
G70*
G04*
G04 #@! TF.SameCoordinates,EB8EEFDD-4660-4ED9-91F6-AAD8B6263AC5*
G04*
G04*
G04 #@! TF.FilePolarity,Positive*
G04*
G01*
G75*
%ADD97C,0.00600*%
%ADD215C,0.00236*%
D97*
X163999Y-206800D02*
X160667D01*
X160000Y-206134D01*
Y-204801D01*
X160667Y-204134D01*
X163999D01*
Y-202801D02*
Y-200135D01*
X163332D01*
X160667Y-202801D01*
X160000D01*
X447115Y-217196D02*
Y-213863D01*
X446449Y-213197D01*
X445116D01*
X444449Y-213863D01*
Y-217196D01*
X441117Y-213197D02*
Y-217196D01*
X443116Y-215196D01*
X440450D01*
X227424Y-212800D02*
X224092D01*
X223426Y-212133D01*
Y-210801D01*
X224092Y-210134D01*
X227424D01*
X226758Y-208801D02*
X227424Y-208135D01*
Y-206802D01*
X226758Y-206135D01*
X226091D01*
X225425Y-206802D01*
X224759Y-206135D01*
X224092D01*
X223426Y-206802D01*
Y-208135D01*
X224092Y-208801D01*
X224759D01*
X225425Y-208135D01*
X226091Y-208801D01*
X226758D01*
X225425Y-208135D02*
Y-206802D01*
D215*
X330166Y-191193D02*
X331478D01*
X331740Y-191455D01*
Y-191980D01*
X331478Y-192243D01*
X330166D01*
X331740Y-193817D02*
Y-192767D01*
X330691Y-193817D01*
X330428D01*
X330166Y-193554D01*
Y-193030D01*
X330428Y-192767D01*
M02*
