G04*
G04 #@! TF.GenerationSoftware,Altium Limited,Altium Designer,24.5.2 (23)*
G04*
G04 Layer_Color=12632256*
%FSLAX25Y25*%
%MOIN*%
G70*
G04*
G04 #@! TF.SameCoordinates,EB8EEFDD-4660-4ED9-91F6-AAD8B6263AC5*
G04*
G04*
G04 #@! TF.FilePolarity,Positive*
G04*
G01*
G75*
%ADD76R,0.05512X0.05512*%
%ADD77C,0.05512*%
%ADD83C,0.06265*%
%ADD84C,0.06265*%
%ADD85R,0.06265X0.06265*%
%ADD86C,0.18399*%
%ADD108R,0.02441X0.02441*%
%ADD109O,0.03543X0.07874*%
G04:AMPARAMS|DCode=110|XSize=37.4mil|YSize=37.4mil|CornerRadius=9.35mil|HoleSize=0mil|Usage=FLASHONLY|Rotation=270.000|XOffset=0mil|YOffset=0mil|HoleType=Round|Shape=RoundedRectangle|*
%AMROUNDEDRECTD110*
21,1,0.03740,0.01870,0,0,270.0*
21,1,0.01870,0.03740,0,0,270.0*
1,1,0.01870,-0.00935,-0.00935*
1,1,0.01870,-0.00935,0.00935*
1,1,0.01870,0.00935,0.00935*
1,1,0.01870,0.00935,-0.00935*
%
%ADD110ROUNDEDRECTD110*%
%ADD111C,0.03740*%
%ADD112C,0.09449*%
G04:AMPARAMS|DCode=113|XSize=94.49mil|YSize=94.49mil|CornerRadius=23.62mil|HoleSize=0mil|Usage=FLASHONLY|Rotation=270.000|XOffset=0mil|YOffset=0mil|HoleType=Round|Shape=RoundedRectangle|*
%AMROUNDEDRECTD113*
21,1,0.09449,0.04724,0,0,270.0*
21,1,0.04724,0.09449,0,0,270.0*
1,1,0.04724,-0.02362,-0.02362*
1,1,0.04724,-0.02362,0.02362*
1,1,0.04724,0.02362,0.02362*
1,1,0.04724,0.02362,-0.02362*
%
%ADD113ROUNDEDRECTD113*%
%ADD114C,0.19685*%
%ADD115R,0.09843X0.09843*%
%ADD116C,0.08000*%
%ADD117C,0.11024*%
%ADD118C,0.08268*%
%ADD119R,0.08268X0.08268*%
G04:AMPARAMS|DCode=120|XSize=62.99mil|YSize=161.42mil|CornerRadius=0mil|HoleSize=0mil|Usage=FLASHONLY|Rotation=45.000|XOffset=0mil|YOffset=0mil|HoleType=Round|Shape=Round|*
%AMOVALD120*
21,1,0.09843,0.06299,0.00000,0.00000,135.0*
1,1,0.06299,0.03480,-0.03480*
1,1,0.06299,-0.03480,0.03480*
%
%ADD120OVALD120*%

%ADD121O,0.06299X0.16142*%
%ADD122O,0.16142X0.06299*%
%ADD123R,0.05512X0.05512*%
%ADD124C,0.05400*%
D76*
X345500Y-224972D02*
D03*
X254067Y-224736D02*
D03*
D77*
X345500Y-234815D02*
D03*
Y-244657D02*
D03*
Y-254500D02*
D03*
X254067Y-254264D02*
D03*
Y-244421D02*
D03*
Y-234579D02*
D03*
X148000Y-65500D02*
D03*
X138000Y-55500D02*
D03*
Y-65500D02*
D03*
X128000Y-55500D02*
D03*
Y-65500D02*
D03*
D83*
X492711Y-216200D02*
D03*
Y-205400D02*
D03*
Y-194600D02*
D03*
Y-183800D02*
D03*
D84*
X503911Y-221600D02*
D03*
Y-210800D02*
D03*
Y-200000D02*
D03*
Y-189200D02*
D03*
D85*
Y-178400D02*
D03*
D86*
X498311Y-150800D02*
D03*
Y-249200D02*
D03*
D108*
X315488Y-259980D02*
D03*
Y-256239D02*
D03*
Y-252500D02*
D03*
Y-248956D02*
D03*
Y-245413D02*
D03*
Y-241869D02*
D03*
Y-238129D02*
D03*
Y-234389D02*
D03*
X321000D02*
D03*
Y-238129D02*
D03*
Y-241869D02*
D03*
Y-245413D02*
D03*
Y-248956D02*
D03*
Y-252500D02*
D03*
Y-256239D02*
D03*
Y-259980D02*
D03*
X286500Y-260024D02*
D03*
Y-256283D02*
D03*
Y-252543D02*
D03*
Y-249000D02*
D03*
Y-245456D02*
D03*
Y-241913D02*
D03*
Y-238173D02*
D03*
Y-234432D02*
D03*
X292012D02*
D03*
Y-238173D02*
D03*
Y-241913D02*
D03*
Y-245456D02*
D03*
Y-249000D02*
D03*
Y-252543D02*
D03*
Y-256283D02*
D03*
Y-260024D02*
D03*
D109*
X310646Y-239311D02*
D03*
Y-255059D02*
D03*
X325842Y-239311D02*
D03*
Y-255059D02*
D03*
X281657Y-255102D02*
D03*
Y-239354D02*
D03*
X296854Y-255102D02*
D03*
Y-239354D02*
D03*
D110*
X134500Y-79500D02*
D03*
D111*
X139500D02*
D03*
X134500Y-84500D02*
D03*
Y-89500D02*
D03*
X139500Y-84500D02*
D03*
Y-89500D02*
D03*
X134500Y-94500D02*
D03*
Y-99500D02*
D03*
X139500Y-94500D02*
D03*
Y-99500D02*
D03*
D112*
X15228Y-45500D02*
D03*
X16228Y-69500D02*
D03*
D113*
X15228Y-15500D02*
D03*
X16228Y-99500D02*
D03*
D114*
X459815Y-90595D02*
D03*
X61500Y-253000D02*
D03*
X89059Y-58095D02*
D03*
D115*
X34000Y-236500D02*
D03*
D116*
X14000D02*
D03*
D117*
X171501Y-249000D02*
D03*
X151501D02*
D03*
X131500D02*
D03*
X111501D02*
D03*
D118*
X203000Y-248000D02*
D03*
D119*
X218000D02*
D03*
D120*
X370890Y-251610D02*
D03*
D121*
X363409Y-223658D02*
D03*
X414591Y-235469D02*
D03*
D122*
X398843Y-259091D02*
D03*
X387032Y-207909D02*
D03*
D123*
X148000Y-55500D02*
D03*
D124*
X127059Y-12299D02*
D03*
Y-37894D02*
D03*
M02*
