G04*
G04 #@! TF.GenerationSoftware,Altium Limited,Altium Designer,24.5.2 (23)*
G04*
G04 Layer_Color=0*
%FSLAX25Y25*%
%MOIN*%
G70*
G04*
G04 #@! TF.SameCoordinates,EB8EEFDD-4660-4ED9-91F6-AAD8B6263AC5*
G04*
G04*
G04 #@! TF.FilePolarity,Positive*
G04*
G01*
G75*
%ADD213C,0.00394*%
%ADD216C,0.00197*%
D213*
X312488Y-229000D02*
Y-221913D01*
X323512D01*
Y-229000D02*
Y-221913D01*
X312488Y-229000D02*
X323512D01*
X242417Y-44500D02*
X244583D01*
X243500Y-45583D02*
Y-43417D01*
X59177Y-11205D02*
X93823D01*
X59177Y-36795D02*
Y-11205D01*
Y-36795D02*
X93823D01*
Y-11205D01*
X35764Y-35000D02*
X37929D01*
X36847Y-36083D02*
Y-33917D01*
X73500Y-83969D02*
Y-80032D01*
X71531Y-82000D02*
X75468D01*
X83018Y-95420D02*
Y-93255D01*
X81936Y-94337D02*
X84101D01*
X83030Y-90916D02*
Y-88751D01*
X81947Y-89833D02*
X84113D01*
X86500Y-84083D02*
Y-81917D01*
X85417Y-83000D02*
X87583D01*
X100500Y-84083D02*
Y-81917D01*
X99417Y-83000D02*
X101583D01*
X74000Y-150583D02*
Y-148417D01*
X72917Y-149500D02*
X75083D01*
X84031Y-128500D02*
X87968D01*
X86000Y-130468D02*
Y-126532D01*
X93917Y-126000D02*
X96083D01*
X95000Y-127083D02*
Y-124917D01*
X97417Y-129500D02*
X99583D01*
X98500Y-130583D02*
Y-128417D01*
X101417Y-129268D02*
X103583D01*
X102500Y-130350D02*
Y-128185D01*
X104917Y-129500D02*
X107083D01*
X106000Y-130583D02*
Y-128417D01*
X111870Y-132583D02*
Y-130417D01*
X110787Y-131500D02*
X112953D01*
X111000Y-146083D02*
Y-143917D01*
X109917Y-145000D02*
X112083D01*
X110500Y-159583D02*
Y-157417D01*
X109417Y-158500D02*
X111583D01*
X102500Y-169083D02*
Y-166917D01*
X101417Y-168000D02*
X103583D01*
X108000Y-165083D02*
Y-162917D01*
X106917Y-164000D02*
X109083D01*
X116500Y-165083D02*
Y-162917D01*
X115417Y-164000D02*
X117583D01*
X123500Y-202969D02*
Y-199031D01*
X121531Y-201000D02*
X125469D01*
X162000Y-201468D02*
Y-197531D01*
X160031Y-199500D02*
X163969D01*
X85000Y-232469D02*
Y-228532D01*
X83031Y-230500D02*
X86968D01*
X87000Y-247083D02*
Y-244917D01*
X85917Y-246000D02*
X88083D01*
X82500Y-247083D02*
Y-244917D01*
X81417Y-246000D02*
X83583D01*
X83917Y-238000D02*
X86083D01*
X85000Y-239083D02*
Y-236917D01*
X92000Y-241083D02*
Y-238917D01*
X90917Y-240000D02*
X93083D01*
X51417Y-212000D02*
X53583D01*
X52500Y-213083D02*
Y-210917D01*
X472193Y-136303D02*
Y-86697D01*
Y-136303D02*
X527807D01*
Y-86697D01*
X472193D02*
X527807D01*
X472193Y-136303D02*
Y-86697D01*
Y-136303D02*
X527807D01*
Y-86697D01*
X472193D02*
X527807D01*
X509917Y-135000D02*
X512083D01*
X511000Y-136083D02*
Y-133917D01*
X296800Y-140315D02*
Y-138150D01*
X295718Y-139232D02*
X297883D01*
X292600Y-140315D02*
Y-138150D01*
X291518Y-139232D02*
X293683D01*
X288401Y-140315D02*
Y-138150D01*
X287318Y-139232D02*
X289483D01*
X301000Y-140315D02*
Y-138150D01*
X299917Y-139232D02*
X302083D01*
X280917Y-149000D02*
X283083D01*
X282000Y-150083D02*
Y-147917D01*
X284201Y-140315D02*
Y-138150D01*
X283118Y-139232D02*
X285284D01*
X270500Y-141083D02*
Y-138917D01*
X269417Y-140000D02*
X271583D01*
X272000Y-155583D02*
Y-153417D01*
X270917Y-154500D02*
X273083D01*
X270787Y-150500D02*
X272953D01*
X271870Y-151583D02*
Y-149417D01*
X407614Y-85422D02*
Y-83256D01*
X406531Y-84339D02*
X408697D01*
X407744Y-90422D02*
Y-88257D01*
X406661Y-89339D02*
X408826D01*
X407614Y-80922D02*
Y-78756D01*
X406531Y-79839D02*
X408697D01*
X234417Y-103000D02*
X236583D01*
X235500Y-104083D02*
Y-101917D01*
X356000Y-195968D02*
Y-192032D01*
X354031Y-194000D02*
X357968D01*
X234287Y-106500D02*
X236453D01*
X235370Y-107583D02*
Y-105417D01*
X92500Y-41469D02*
Y-37532D01*
X90531Y-39500D02*
X94468D01*
X225418Y-136664D02*
Y-134499D01*
X224336Y-135582D02*
X226501D01*
X294767Y-232070D02*
Y-224984D01*
X283744Y-232070D02*
X294767D01*
X283744D02*
Y-224984D01*
X294767D01*
X369051Y-193500D02*
X371217D01*
X370134Y-194583D02*
Y-192417D01*
X369051Y-188500D02*
X371217D01*
X370134Y-189583D02*
Y-187417D01*
X345500Y-193583D02*
Y-191417D01*
X344417Y-192500D02*
X346583D01*
X54000Y-18969D02*
Y-15032D01*
X52031Y-17000D02*
X55968D01*
X40347Y-24969D02*
Y-21032D01*
X38378Y-23000D02*
X42315D01*
X30847Y-24969D02*
Y-21032D01*
X28878Y-23000D02*
X32815D01*
X270417Y-188500D02*
X272583D01*
X271500Y-189583D02*
Y-187417D01*
X270235Y-206630D02*
X272400D01*
X271318Y-207712D02*
Y-205547D01*
X318000Y-206968D02*
Y-203031D01*
X316032Y-205000D02*
X319969D01*
X270235Y-202630D02*
X272400D01*
X271318Y-203712D02*
Y-201547D01*
X262000Y-201583D02*
Y-199417D01*
X260917Y-200500D02*
X263083D01*
X270235Y-211130D02*
X272400D01*
X271318Y-212212D02*
Y-210047D01*
X261498Y-192465D02*
Y-190300D01*
X260416Y-191383D02*
X262581D01*
X270235Y-215630D02*
X272400D01*
X271318Y-216712D02*
Y-214547D01*
X270235Y-220130D02*
X272400D01*
X271318Y-221212D02*
Y-219047D01*
X257499Y-192465D02*
Y-190300D01*
X256416Y-191383D02*
X258581D01*
X329272Y-193693D02*
X333209D01*
X331240Y-195661D02*
Y-191724D01*
X85417Y-77500D02*
X87583D01*
X86500Y-78583D02*
Y-76417D01*
X329417Y-218000D02*
X331583D01*
X330500Y-219083D02*
Y-216917D01*
X329417Y-209000D02*
X331583D01*
X330500Y-210083D02*
Y-207917D01*
X326417Y-179500D02*
X328583D01*
X327500Y-180583D02*
Y-178417D01*
X28000Y-219815D02*
Y-217650D01*
X26917Y-218732D02*
X29083D01*
X318000Y-218083D02*
Y-215917D01*
X316917Y-217000D02*
X319083D01*
X119232Y-159583D02*
Y-157417D01*
X118150Y-158500D02*
X120315D01*
X112000Y-170083D02*
Y-167917D01*
X110917Y-169000D02*
X113083D01*
X111740Y-128583D02*
Y-126417D01*
X110658Y-127500D02*
X112823D01*
X111000Y-142083D02*
Y-139917D01*
X109917Y-141000D02*
X112083D01*
X115500Y-156083D02*
Y-153917D01*
X114417Y-155000D02*
X116583D01*
X100500Y-79083D02*
Y-76917D01*
X99417Y-78000D02*
X101583D01*
X92417Y-80500D02*
X94583D01*
X93500Y-81583D02*
Y-79417D01*
X223000Y-218583D02*
Y-216417D01*
X221917Y-217500D02*
X224083D01*
X369051Y-198000D02*
X371217D01*
X370134Y-199083D02*
Y-196917D01*
X78500Y-41083D02*
Y-38917D01*
X77417Y-40000D02*
X79583D01*
X330516Y-249000D02*
X332484D01*
X331500Y-249984D02*
Y-248016D01*
X330516Y-245457D02*
X332484D01*
X331500Y-246441D02*
Y-244472D01*
X318232Y-222583D02*
Y-220417D01*
X317150Y-221500D02*
X319315D01*
X325768Y-67583D02*
Y-65417D01*
X324685Y-66500D02*
X326850D01*
X182417Y-108000D02*
X184583D01*
X183500Y-109083D02*
Y-106917D01*
X177417Y-108000D02*
X179583D01*
X178500Y-109083D02*
Y-106917D01*
X326000Y-79083D02*
Y-76917D01*
X324917Y-78000D02*
X327083D01*
X223500Y-108083D02*
Y-105917D01*
X222417Y-107000D02*
X224583D01*
X73500Y-40583D02*
Y-38417D01*
X72417Y-39500D02*
X74583D01*
X326417Y-71870D02*
X328583D01*
X327500Y-72953D02*
Y-70787D01*
X325500Y-53083D02*
Y-50917D01*
X324417Y-52000D02*
X326583D01*
X325768Y-64083D02*
Y-61917D01*
X324685Y-63000D02*
X326850D01*
X326417Y-57500D02*
X328583D01*
X327500Y-58583D02*
Y-56417D01*
X156917Y-93500D02*
X159083D01*
X158000Y-94583D02*
Y-92417D01*
X186715Y-137100D02*
X188880D01*
X187798Y-138183D02*
Y-136018D01*
X186417Y-129000D02*
X188583D01*
X187500Y-130083D02*
Y-127917D01*
X200417Y-125000D02*
X202583D01*
X201500Y-126083D02*
Y-123917D01*
X382417Y-173500D02*
X384583D01*
X383500Y-174583D02*
Y-172417D01*
X398244Y-162308D02*
Y-158371D01*
X396275Y-160339D02*
X400212D01*
X91000Y-127083D02*
Y-124917D01*
X89917Y-126000D02*
X92083D01*
X243500Y-42083D02*
Y-39917D01*
X242417Y-41000D02*
X244583D01*
X242287Y-105311D02*
Y4925D01*
X159610Y-105311D02*
X242287D01*
X159610D02*
Y4925D01*
X242287D01*
X243268Y-31583D02*
Y-29417D01*
X242185Y-30500D02*
X244350D01*
X243500Y-35583D02*
Y-33417D01*
X242417Y-34500D02*
X244583D01*
X158000Y-212583D02*
Y-210417D01*
X156917Y-211500D02*
X159083D01*
X169215Y-137100D02*
X171380D01*
X170298Y-138183D02*
Y-136018D01*
X173215Y-137100D02*
X175380D01*
X174298Y-138183D02*
Y-136018D01*
X183298Y-138183D02*
Y-136018D01*
X182215Y-137100D02*
X184380D01*
X177715D02*
X179880D01*
X178798Y-138183D02*
Y-136018D01*
X203000Y-137583D02*
Y-135417D01*
X201917Y-136500D02*
X204083D01*
X200417Y-128500D02*
X202583D01*
X201500Y-129583D02*
Y-127417D01*
X225426Y-207468D02*
Y-203531D01*
X223457Y-205500D02*
X227394D01*
D216*
X247240Y-46468D02*
Y-42531D01*
X239760Y-46468D02*
Y-42531D01*
X247240D01*
X239760Y-46468D02*
X247240D01*
X40587Y-36968D02*
Y-33031D01*
X33106Y-36968D02*
Y-33031D01*
X40587D01*
X33106Y-36968D02*
X40587D01*
X67791Y-92827D02*
X79209D01*
X67791Y-71173D02*
X79209D01*
Y-92827D02*
Y-71173D01*
X67791Y-92827D02*
Y-71173D01*
X79278Y-96306D02*
X86759D01*
X79278Y-92369D02*
X86759D01*
X79278Y-96306D02*
Y-92369D01*
X86759Y-96306D02*
Y-92369D01*
X79290Y-91802D02*
X86770D01*
X79290Y-87865D02*
X86770D01*
X79290Y-91802D02*
Y-87865D01*
X86770Y-91802D02*
Y-87865D01*
X82366Y-85165D02*
X90634D01*
X82366Y-80835D02*
X90634D01*
X82366Y-85165D02*
Y-80835D01*
X90634Y-85165D02*
Y-80835D01*
X96760Y-81032D02*
X104240D01*
X96760Y-84969D02*
X104240D01*
Y-81032D01*
X96760Y-84969D02*
Y-81032D01*
X70260Y-147531D02*
X77740D01*
X70260Y-151469D02*
X77740D01*
Y-147531D01*
X70260Y-151469D02*
Y-147531D01*
X82653Y-133815D02*
Y-123185D01*
X89346Y-133815D02*
Y-123185D01*
X82653D02*
X89346D01*
X82653Y-133815D02*
X89346D01*
X92835Y-130134D02*
Y-121866D01*
X97165Y-130134D02*
Y-121866D01*
X92835D02*
X97165D01*
X92835Y-130134D02*
X97165D01*
X96335Y-133634D02*
Y-125366D01*
X100665Y-133634D02*
Y-125366D01*
X96335D02*
X100665D01*
X96335Y-133634D02*
X100665D01*
X104469Y-133008D02*
Y-125528D01*
X100531Y-133008D02*
Y-125528D01*
Y-133008D02*
X104469D01*
X100531Y-125528D02*
X104469D01*
X103835Y-133634D02*
Y-125366D01*
X108165Y-133634D02*
Y-125366D01*
X103835D02*
X108165D01*
X103835Y-133634D02*
X108165D01*
X107736Y-129335D02*
X116004D01*
X107736Y-133665D02*
X116004D01*
Y-129335D01*
X107736Y-133665D02*
Y-129335D01*
X83165Y-139665D02*
X103835D01*
Y-160335D02*
Y-139665D01*
X83165Y-160335D02*
X103835D01*
X83165D02*
Y-139665D01*
X106866Y-142835D02*
X115134D01*
X106866Y-147165D02*
X115134D01*
Y-142835D01*
X106866Y-147165D02*
Y-142835D01*
X106366Y-156335D02*
X114634D01*
X106366Y-160665D02*
X114634D01*
Y-156335D01*
X106366Y-160665D02*
Y-156335D01*
X98366Y-170165D02*
X106634D01*
X98366Y-165835D02*
X106634D01*
X98366Y-170165D02*
Y-165835D01*
X106634Y-170165D02*
Y-165835D01*
X103866Y-166165D02*
X112134D01*
X103866Y-161835D02*
X112134D01*
X103866Y-166165D02*
Y-161835D01*
X112134Y-166165D02*
Y-161835D01*
X112760Y-165969D02*
X120240D01*
X112760Y-162031D02*
X120240D01*
X112760Y-165969D02*
Y-162031D01*
X120240Y-165969D02*
Y-162031D01*
X117791Y-211827D02*
X129209D01*
X117791Y-190173D02*
X129209D01*
Y-211827D02*
Y-190173D01*
X117791Y-211827D02*
Y-190173D01*
X152945Y-190445D02*
X171055D01*
X152945Y-208555D02*
Y-190445D01*
Y-208555D02*
X171055D01*
Y-190445D01*
X74173Y-224791D02*
X95827D01*
X74173Y-236209D02*
X95827D01*
Y-224791D01*
X74173Y-236209D02*
Y-224791D01*
X84835Y-250134D02*
X89165D01*
X84835Y-241866D02*
X89165D01*
Y-250134D02*
Y-241866D01*
X84835Y-250134D02*
Y-241866D01*
X80335Y-250134D02*
X84665D01*
X80335Y-241866D02*
X84665D01*
Y-250134D02*
Y-241866D01*
X80335Y-250134D02*
Y-241866D01*
X81260Y-239968D02*
Y-236032D01*
X88740Y-239968D02*
Y-236032D01*
X81260Y-239968D02*
X88740D01*
X81260Y-236032D02*
X88740D01*
X90031Y-243740D02*
X93968D01*
X90031Y-236260D02*
X93968D01*
Y-243740D02*
Y-236260D01*
X90031Y-243740D02*
Y-236260D01*
X50532Y-215740D02*
Y-208260D01*
X54469Y-215740D02*
Y-208260D01*
X50532D02*
X54469D01*
X50532Y-215740D02*
X54469D01*
X514740Y-136969D02*
Y-133031D01*
X507260Y-136969D02*
Y-133031D01*
X514740D01*
X507260Y-136969D02*
X514740D01*
X294832Y-142972D02*
X298769D01*
X294832Y-135492D02*
X298769D01*
Y-142972D02*
Y-135492D01*
X294832Y-142972D02*
Y-135492D01*
X290632Y-142972D02*
X294569D01*
X290632Y-135492D02*
X294569D01*
Y-142972D02*
Y-135492D01*
X290632Y-142972D02*
Y-135492D01*
X286432Y-142972D02*
X290369D01*
X286432Y-135492D02*
X290369D01*
Y-142972D02*
Y-135492D01*
X286432Y-142972D02*
Y-135492D01*
X299031Y-142972D02*
X302969D01*
X299031Y-135492D02*
X302969D01*
Y-142972D02*
Y-135492D01*
X299031Y-142972D02*
Y-135492D01*
X285740Y-150969D02*
Y-147031D01*
X278260Y-150969D02*
Y-147031D01*
X285740D01*
X278260Y-150969D02*
X285740D01*
X282232Y-142972D02*
X286169D01*
X282232Y-135492D02*
X286169D01*
Y-142972D02*
Y-135492D01*
X282232Y-142972D02*
Y-135492D01*
X268531Y-143740D02*
X272468D01*
X268531Y-136260D02*
X272468D01*
Y-143740D02*
Y-136260D01*
X268531Y-143740D02*
Y-136260D01*
X267866Y-156665D02*
X276134D01*
X267866Y-152335D02*
X276134D01*
X267866Y-156665D02*
Y-152335D01*
X276134Y-156665D02*
Y-152335D01*
X267736Y-152665D02*
Y-148335D01*
X276004Y-152665D02*
Y-148335D01*
X267736Y-152665D02*
X276004D01*
X267736Y-148335D02*
X276004D01*
X403480Y-86505D02*
X411748D01*
X403480Y-82174D02*
X411748D01*
X403480Y-86505D02*
Y-82174D01*
X411748Y-86505D02*
Y-82174D01*
X403610Y-87174D02*
X411878D01*
X403610Y-91505D02*
X411878D01*
Y-87174D01*
X403610Y-91505D02*
Y-87174D01*
X403480Y-77674D02*
X411748D01*
X403480Y-82004D02*
X411748D01*
Y-77674D01*
X403480Y-82004D02*
Y-77674D01*
X231366Y-105165D02*
Y-100835D01*
X239634Y-105165D02*
Y-100835D01*
X231366Y-105165D02*
X239634D01*
X231366Y-100835D02*
X239634D01*
X346748Y-202071D02*
X365252D01*
X346748Y-185929D02*
X365252D01*
X346748Y-202071D02*
Y-185929D01*
X365252Y-202071D02*
Y-185929D01*
X231236Y-108665D02*
Y-104335D01*
X239504Y-108665D02*
Y-104335D01*
X231236Y-108665D02*
X239504D01*
X231236Y-104335D02*
X239504D01*
X84134Y-42945D02*
X100866D01*
X84134Y-36055D02*
X100866D01*
X84134Y-42945D02*
Y-36055D01*
X100866Y-42945D02*
Y-36055D01*
X223253Y-139716D02*
X227584D01*
X223253Y-131448D02*
X227584D01*
Y-139716D02*
Y-131448D01*
X223253Y-139716D02*
Y-131448D01*
X374268Y-195665D02*
Y-191335D01*
X366000Y-195665D02*
Y-191335D01*
X374268D01*
X366000Y-195665D02*
X374268D01*
X366394Y-190469D02*
Y-186531D01*
X373874Y-190469D02*
Y-186531D01*
X366394Y-190469D02*
X373874D01*
X366394Y-186531D02*
X373874D01*
X343531Y-188760D02*
X347468D01*
X343531Y-196240D02*
X347468D01*
X343531D02*
Y-188760D01*
X347468Y-196240D02*
Y-188760D01*
X48685Y-13654D02*
X59315D01*
X48685Y-20346D02*
X59315D01*
Y-13654D01*
X48685Y-20346D02*
Y-13654D01*
X34638Y-12173D02*
X46055D01*
X34638Y-33827D02*
X46055D01*
X34638D02*
Y-12173D01*
X46055Y-33827D02*
Y-12173D01*
X25138D02*
X36555D01*
X25138Y-33827D02*
X36555D01*
X25138D02*
Y-12173D01*
X36555Y-33827D02*
Y-12173D01*
X267760Y-190469D02*
Y-186531D01*
X275240Y-190469D02*
Y-186531D01*
X267760Y-190469D02*
X275240D01*
X267760Y-186531D02*
X275240D01*
X267578Y-208598D02*
Y-204661D01*
X275058Y-208598D02*
Y-204661D01*
X267578Y-208598D02*
X275058D01*
X267578Y-204661D02*
X275058D01*
X312291Y-215827D02*
X323709D01*
X312291Y-194173D02*
X323709D01*
Y-215827D02*
Y-194173D01*
X312291Y-215827D02*
Y-194173D01*
X267578Y-204598D02*
Y-200661D01*
X275058Y-204598D02*
Y-200661D01*
X267578Y-204598D02*
X275058D01*
X267578Y-200661D02*
X275058D01*
X260032Y-204240D02*
X263968D01*
X260032Y-196760D02*
X263968D01*
Y-204240D02*
Y-196760D01*
X260032Y-204240D02*
Y-196760D01*
X267578Y-213098D02*
Y-209161D01*
X275058Y-213098D02*
Y-209161D01*
X267578Y-213098D02*
X275058D01*
X267578Y-209161D02*
X275058D01*
X259333Y-187249D02*
X263664D01*
X259333Y-195517D02*
X263664D01*
X259333D02*
Y-187249D01*
X263664Y-195517D02*
Y-187249D01*
X267578Y-217598D02*
Y-213661D01*
X275058Y-217598D02*
Y-213661D01*
X267578Y-217598D02*
X275058D01*
X267578Y-213661D02*
X275058D01*
X267578Y-222098D02*
Y-218161D01*
X275058Y-222098D02*
Y-218161D01*
X267578Y-222098D02*
X275058D01*
X267578Y-218161D02*
X275058D01*
X255333Y-195517D02*
X259664D01*
X255333Y-187249D02*
X259664D01*
Y-195517D02*
Y-187249D01*
X255333Y-195517D02*
Y-187249D01*
X339311Y-203732D02*
Y-183653D01*
X323169Y-203732D02*
Y-183653D01*
Y-203732D02*
X339311D01*
X323169Y-183653D02*
X339311D01*
X90634Y-79665D02*
Y-75335D01*
X82366Y-79665D02*
Y-75335D01*
X90634D01*
X82366Y-79665D02*
X90634D01*
X328335Y-222134D02*
Y-213866D01*
X332665Y-222134D02*
Y-213866D01*
X328335D02*
X332665D01*
X328335Y-222134D02*
X332665D01*
X328335Y-213134D02*
Y-204866D01*
X332665Y-213134D02*
Y-204866D01*
X328335D02*
X332665D01*
X328335Y-213134D02*
X332665D01*
X329665Y-183634D02*
Y-175366D01*
X325335Y-183634D02*
Y-175366D01*
Y-183634D02*
X329665D01*
X325335Y-175366D02*
X329665D01*
X26032Y-222472D02*
X29969D01*
X26032Y-214992D02*
X29969D01*
Y-222472D02*
Y-214992D01*
X26032Y-222472D02*
Y-214992D01*
X314260Y-215032D02*
X321740D01*
X314260Y-218969D02*
X321740D01*
Y-215032D01*
X314260Y-218969D02*
Y-215032D01*
X-681Y-182512D02*
Y-121488D01*
Y-182512D02*
X51681D01*
Y-121488D01*
X-681D02*
X51681D01*
X115492Y-156532D02*
X122972D01*
X115492Y-160468D02*
X122972D01*
Y-156532D01*
X115492Y-160468D02*
Y-156532D01*
X108260Y-170968D02*
X115740D01*
X108260Y-167032D02*
X115740D01*
X108260Y-170968D02*
Y-167032D01*
X115740Y-170968D02*
Y-167032D01*
X108000Y-125531D02*
X115480D01*
X108000Y-129469D02*
X115480D01*
Y-125531D01*
X108000Y-129469D02*
Y-125531D01*
X107260Y-139032D02*
X114740D01*
X107260Y-142968D02*
X114740D01*
Y-139032D01*
X107260Y-142968D02*
Y-139032D01*
X111760Y-153032D02*
X119240D01*
X111760Y-156968D02*
X119240D01*
Y-153032D01*
X111760Y-156968D02*
Y-153032D01*
X96760Y-76032D02*
X104240D01*
X96760Y-79969D02*
X104240D01*
Y-76032D01*
X96760Y-79969D02*
Y-76032D01*
X91531Y-84240D02*
Y-76760D01*
X95468Y-84240D02*
Y-76760D01*
X91531D02*
X95468D01*
X91531Y-84240D02*
X95468D01*
X219260Y-219468D02*
X226740D01*
X219260Y-215531D02*
X226740D01*
X219260Y-219468D02*
Y-215531D01*
X226740Y-219468D02*
Y-215531D01*
X374268Y-200165D02*
Y-195835D01*
X366000Y-200165D02*
Y-195835D01*
X374268D01*
X366000Y-200165D02*
X374268D01*
X76335Y-44134D02*
X80665D01*
X76335Y-35866D02*
X80665D01*
Y-44134D02*
Y-35866D01*
X76335Y-44134D02*
Y-35866D01*
X328744Y-250575D02*
X334256D01*
X328744D02*
Y-247425D01*
X334256D01*
Y-250575D02*
Y-247425D01*
X328744Y-247031D02*
X334256D01*
X328744D02*
Y-243882D01*
X334256D01*
Y-247031D02*
Y-243882D01*
X314492Y-219531D02*
X321972D01*
X314492Y-223468D02*
X321972D01*
Y-219531D01*
X314492Y-223468D02*
Y-219531D01*
X322028Y-64531D02*
X329508D01*
X322028Y-68468D02*
X329508D01*
Y-64531D01*
X322028Y-68468D02*
Y-64531D01*
X181335Y-112134D02*
Y-103866D01*
X185665Y-112134D02*
Y-103866D01*
X181335D02*
X185665D01*
X181335Y-112134D02*
X185665D01*
X176335D02*
Y-103866D01*
X180665Y-112134D02*
Y-103866D01*
X176335D02*
X180665D01*
X176335Y-112134D02*
X180665D01*
X322260Y-76032D02*
X329740D01*
X322260Y-79969D02*
X329740D01*
Y-76032D01*
X322260Y-79969D02*
Y-76032D01*
X221335Y-111134D02*
X225665D01*
X221335Y-102866D02*
X225665D01*
Y-111134D02*
Y-102866D01*
X221335Y-111134D02*
Y-102866D01*
X71531Y-43240D02*
X75468D01*
X71531Y-35760D02*
X75468D01*
Y-43240D02*
Y-35760D01*
X71531Y-43240D02*
Y-35760D01*
X329665Y-76004D02*
Y-67736D01*
X325335Y-76004D02*
Y-67736D01*
Y-76004D02*
X329665D01*
X325335Y-67736D02*
X329665D01*
X321760Y-50032D02*
X329240D01*
X321760Y-53969D02*
X329240D01*
Y-50032D01*
X321760Y-53969D02*
Y-50032D01*
X322028Y-61032D02*
X329508D01*
X322028Y-64969D02*
X329508D01*
Y-61032D01*
X322028Y-64969D02*
Y-61032D01*
X329665Y-61634D02*
Y-53366D01*
X325335Y-61634D02*
Y-53366D01*
Y-61634D02*
X329665D01*
X325335Y-53366D02*
X329665D01*
X162134Y-95665D02*
Y-91335D01*
X153866Y-95665D02*
Y-91335D01*
X162134D01*
X153866Y-95665D02*
X162134D01*
X189766Y-140840D02*
Y-133360D01*
X185829Y-140840D02*
Y-133360D01*
Y-140840D02*
X189766D01*
X185829Y-133360D02*
X189766D01*
X183760Y-130968D02*
Y-127032D01*
X191240Y-130968D02*
Y-127032D01*
X183760Y-130968D02*
X191240D01*
X183760Y-127032D02*
X191240D01*
X197366Y-127165D02*
Y-122835D01*
X205634Y-127165D02*
Y-122835D01*
X197366Y-127165D02*
X205634D01*
X197366Y-122835D02*
X205634D01*
X381532Y-177240D02*
Y-169760D01*
X385469Y-177240D02*
Y-169760D01*
X381532D02*
X385469D01*
X381532Y-177240D02*
X385469D01*
X387023Y-146048D02*
X409464D01*
X387023Y-174630D02*
X409464D01*
X387023D02*
Y-146048D01*
X409464Y-174630D02*
Y-146048D01*
X89031Y-129740D02*
X92968D01*
X89031Y-122260D02*
X92968D01*
Y-129740D02*
Y-122260D01*
X89031Y-129740D02*
Y-122260D01*
X239366Y-38835D02*
X247634D01*
X239366Y-43165D02*
X247634D01*
Y-38835D01*
X239366Y-43165D02*
Y-38835D01*
X239528Y-32469D02*
X247008D01*
X239528Y-28532D02*
X247008D01*
X239528Y-32469D02*
Y-28532D01*
X247008Y-32469D02*
Y-28532D01*
X239760Y-36468D02*
X247240D01*
X239760Y-32531D02*
X247240D01*
X239760Y-36468D02*
Y-32531D01*
X247240Y-36468D02*
Y-32531D01*
X154260Y-213469D02*
X161740D01*
X154260Y-209531D02*
X161740D01*
X154260Y-213469D02*
Y-209531D01*
X161740Y-213469D02*
Y-209531D01*
X172266Y-140840D02*
Y-133360D01*
X168329Y-140840D02*
Y-133360D01*
Y-140840D02*
X172266D01*
X168329Y-133360D02*
X172266D01*
X176266Y-140840D02*
Y-133360D01*
X172329Y-140840D02*
Y-133360D01*
Y-140840D02*
X176266D01*
X172329Y-133360D02*
X176266D01*
X181329D02*
X185266D01*
X181329Y-140840D02*
X185266D01*
X181329D02*
Y-133360D01*
X185266Y-140840D02*
Y-133360D01*
X180766Y-140840D02*
Y-133360D01*
X176829Y-140840D02*
Y-133360D01*
Y-140840D02*
X180766D01*
X176829Y-133360D02*
X180766D01*
X201031Y-132760D02*
X204969D01*
X201031Y-140240D02*
X204969D01*
X201031D02*
Y-132760D01*
X204969Y-140240D02*
Y-132760D01*
X205634Y-130665D02*
Y-126335D01*
X197366Y-130665D02*
Y-126335D01*
X205634D01*
X197366Y-130665D02*
X205634D01*
X216371Y-196445D02*
X234481D01*
X216371Y-214555D02*
Y-196445D01*
Y-214555D02*
X234481D01*
Y-196445D01*
M02*
