G04*
G04 #@! TF.GenerationSoftware,Altium Limited,Altium Designer,24.5.2 (23)*
G04*
G04 Layer_Color=16711935*
%FSLAX25Y25*%
%MOIN*%
G70*
G04*
G04 #@! TF.SameCoordinates,EB8EEFDD-4660-4ED9-91F6-AAD8B6263AC5*
G04*
G04*
G04 #@! TF.FilePolarity,Negative*
G04*
G01*
G75*
%ADD45R,0.03398X0.03241*%
%ADD47R,0.03241X0.03398*%
%ADD51R,0.03359X0.03556*%
%ADD53R,0.03556X0.03359*%
%ADD62R,0.06115X0.04343*%
%ADD65R,0.06902X0.08280*%
%ADD67R,0.08280X0.06902*%
%ADD69R,0.03241X0.03241*%
%ADD70O,0.04343X0.08674*%
G04:AMPARAMS|DCode=71|XSize=45.4mil|YSize=45.4mil|CornerRadius=13.35mil|HoleSize=0mil|Usage=FLASHONLY|Rotation=270.000|XOffset=0mil|YOffset=0mil|HoleType=Round|Shape=RoundedRectangle|*
%AMROUNDEDRECTD71*
21,1,0.04540,0.01870,0,0,270.0*
21,1,0.01870,0.04540,0,0,270.0*
1,1,0.02670,-0.00935,-0.00935*
1,1,0.02670,-0.00935,0.00935*
1,1,0.02670,0.00935,0.00935*
1,1,0.02670,0.00935,-0.00935*
%
%ADD71ROUNDEDRECTD71*%
%ADD72C,0.04540*%
%ADD73C,0.10249*%
G04:AMPARAMS|DCode=74|XSize=102.49mil|YSize=102.49mil|CornerRadius=27.62mil|HoleSize=0mil|Usage=FLASHONLY|Rotation=270.000|XOffset=0mil|YOffset=0mil|HoleType=Round|Shape=RoundedRectangle|*
%AMROUNDEDRECTD74*
21,1,0.10249,0.04724,0,0,270.0*
21,1,0.04724,0.10249,0,0,270.0*
1,1,0.05524,-0.02362,-0.02362*
1,1,0.05524,-0.02362,0.02362*
1,1,0.05524,0.02362,0.02362*
1,1,0.05524,0.02362,-0.02362*
%
%ADD74ROUNDEDRECTD74*%
%ADD75C,0.20485*%
%ADD76R,0.05512X0.05512*%
%ADD77C,0.05512*%
%ADD78R,0.10642X0.10642*%
%ADD79C,0.08800*%
%ADD80C,0.11824*%
%ADD81C,0.09068*%
%ADD82R,0.09068X0.09068*%
%ADD83C,0.06265*%
%ADD84C,0.06265*%
%ADD85R,0.06265X0.06265*%
%ADD86C,0.18399*%
G04:AMPARAMS|DCode=87|XSize=70.99mil|YSize=169.42mil|CornerRadius=0mil|HoleSize=0mil|Usage=FLASHONLY|Rotation=45.000|XOffset=0mil|YOffset=0mil|HoleType=Round|Shape=Round|*
%AMOVALD87*
21,1,0.09843,0.07099,0.00000,0.00000,135.0*
1,1,0.07099,0.03480,-0.03480*
1,1,0.07099,-0.03480,0.03480*
%
%ADD87OVALD87*%

%ADD88O,0.07099X0.16942*%
%ADD89O,0.16942X0.07099*%
%ADD90R,0.06312X0.06312*%
%ADD91C,0.06312*%
%ADD92C,0.06200*%
%ADD93C,0.02769*%
%ADD128R,0.02756X0.05118*%
%ADD131R,0.04331X0.01968*%
%ADD132R,0.00787X0.00787*%
%ADD133R,0.07087X0.03937*%
%ADD140R,0.05118X0.02756*%
G04:AMPARAMS|DCode=142|XSize=26.38mil|YSize=11.81mil|CornerRadius=1.95mil|HoleSize=0mil|Usage=FLASHONLY|Rotation=90.000|XOffset=0mil|YOffset=0mil|HoleType=Round|Shape=RoundedRectangle|*
%AMROUNDEDRECTD142*
21,1,0.02638,0.00791,0,0,90.0*
21,1,0.02248,0.01181,0,0,90.0*
1,1,0.00390,0.00396,0.01124*
1,1,0.00390,0.00396,-0.01124*
1,1,0.00390,-0.00396,-0.01124*
1,1,0.00390,-0.00396,0.01124*
%
%ADD142ROUNDEDRECTD142*%
%ADD146R,0.06890X0.11811*%
%ADD147R,0.03961X0.04351*%
%ADD150R,0.11811X0.06890*%
%ADD151R,0.04351X0.03961*%
G04:AMPARAMS|DCode=152|XSize=26.38mil|YSize=11.81mil|CornerRadius=1.95mil|HoleSize=0mil|Usage=FLASHONLY|Rotation=180.000|XOffset=0mil|YOffset=0mil|HoleType=Round|Shape=RoundedRectangle|*
%AMROUNDEDRECTD152*
21,1,0.02638,0.00791,0,0,180.0*
21,1,0.02248,0.01181,0,0,180.0*
1,1,0.00390,-0.01124,0.00396*
1,1,0.00390,0.01124,0.00396*
1,1,0.00390,0.01124,-0.00396*
1,1,0.00390,-0.01124,-0.00396*
%
%ADD152ROUNDEDRECTD152*%
%ADD154R,0.01968X0.04331*%
%ADD173R,0.02690X0.02375*%
%ADD174R,0.06902X0.04737*%
%ADD175R,0.12217X0.12217*%
%ADD176R,0.03753X0.01587*%
%ADD177R,0.01587X0.03753*%
G04:AMPARAMS|DCode=178|XSize=19.81mil|YSize=37.53mil|CornerRadius=5.95mil|HoleSize=0mil|Usage=FLASHONLY|Rotation=0.000|XOffset=0mil|YOffset=0mil|HoleType=Round|Shape=RoundedRectangle|*
%AMROUNDEDRECTD178*
21,1,0.01981,0.02563,0,0,0.0*
21,1,0.00791,0.03753,0,0,0.0*
1,1,0.01190,0.00396,-0.01282*
1,1,0.01190,-0.00396,-0.01282*
1,1,0.01190,-0.00396,0.01282*
1,1,0.01190,0.00396,0.01282*
%
%ADD178ROUNDEDRECTD178*%
G04:AMPARAMS|DCode=179|XSize=19.81mil|YSize=37.53mil|CornerRadius=5.95mil|HoleSize=0mil|Usage=FLASHONLY|Rotation=90.000|XOffset=0mil|YOffset=0mil|HoleType=Round|Shape=RoundedRectangle|*
%AMROUNDEDRECTD179*
21,1,0.01981,0.02563,0,0,90.0*
21,1,0.00791,0.03753,0,0,90.0*
1,1,0.01190,0.01282,0.00396*
1,1,0.01190,0.01282,-0.00396*
1,1,0.01190,-0.01282,-0.00396*
1,1,0.01190,-0.01282,0.00396*
%
%ADD179ROUNDEDRECTD179*%
G04:AMPARAMS|DCode=180|XSize=90.68mil|YSize=90.68mil|CornerRadius=6.07mil|HoleSize=0mil|Usage=FLASHONLY|Rotation=90.000|XOffset=0mil|YOffset=0mil|HoleType=Round|Shape=RoundedRectangle|*
%AMROUNDEDRECTD180*
21,1,0.09068,0.07854,0,0,90.0*
21,1,0.07854,0.09068,0,0,90.0*
1,1,0.01213,0.03927,0.03927*
1,1,0.01213,0.03927,-0.03927*
1,1,0.01213,-0.03927,-0.03927*
1,1,0.01213,-0.03927,0.03927*
%
%ADD180ROUNDEDRECTD180*%
%ADD181C,0.02800*%
%ADD182R,0.04737X0.05131*%
%ADD183R,0.09855X0.04737*%
%ADD184R,0.03950X0.04737*%
%ADD185R,0.05918X0.03556*%
%ADD186R,0.04343X0.04540*%
%ADD187R,0.04343X0.06115*%
G04:AMPARAMS|DCode=188|XSize=33.59mil|YSize=55.24mil|CornerRadius=5.92mil|HoleSize=0mil|Usage=FLASHONLY|Rotation=180.000|XOffset=0mil|YOffset=0mil|HoleType=Round|Shape=RoundedRectangle|*
%AMROUNDEDRECTD188*
21,1,0.03359,0.04341,0,0,180.0*
21,1,0.02175,0.05524,0,0,180.0*
1,1,0.01184,-0.01088,0.02170*
1,1,0.01184,0.01088,0.02170*
1,1,0.01184,0.01088,-0.02170*
1,1,0.01184,-0.01088,-0.02170*
%
%ADD188ROUNDEDRECTD188*%
%ADD189R,0.20091X0.16548*%
%ADD190O,0.03162X0.07887*%
%ADD191O,0.07887X0.03162*%
%ADD192R,0.02217X0.01784*%
%ADD193R,0.02769X0.08580*%
%ADD194R,0.16154X0.11706*%
%ADD195R,0.04343X0.04343*%
%ADD196R,0.06706X0.04343*%
%ADD197R,0.04343X0.06706*%
G36*
X53984Y-100740D02*
X41386D01*
Y-98378D01*
X42016D01*
Y-96409D01*
X43984D01*
Y-98378D01*
X47016D01*
Y-96409D01*
X48984D01*
Y-98378D01*
X52016D01*
Y-96409D01*
X53984D01*
Y-100740D01*
D02*
G37*
G36*
X95457Y-101181D02*
X92307D01*
Y-103819D01*
X95457D01*
Y-106181D01*
X92307D01*
Y-108819D01*
X95457D01*
Y-111181D01*
X92307D01*
Y-113819D01*
X95457D01*
Y-116181D01*
X77543D01*
Y-98819D01*
X95457D01*
Y-101181D01*
D02*
G37*
G36*
X73606Y-116614D02*
X71244D01*
Y-115984D01*
X69276D01*
Y-114016D01*
X71244D01*
Y-110984D01*
X69276D01*
Y-109016D01*
X71244D01*
Y-105984D01*
X69276D01*
Y-104016D01*
X73606D01*
Y-116614D01*
D02*
G37*
G36*
X59181Y-122591D02*
X56819D01*
Y-119441D01*
X54181D01*
Y-122591D01*
X51819D01*
Y-119441D01*
X49181D01*
Y-122591D01*
X46819D01*
Y-119441D01*
X44181D01*
Y-122591D01*
X41819D01*
Y-104677D01*
X59181D01*
Y-122591D01*
D02*
G37*
G36*
X44181Y-204323D02*
X26819D01*
Y-186409D01*
X29181D01*
Y-189559D01*
X31819D01*
Y-186409D01*
X34181D01*
Y-189559D01*
X36819D01*
Y-186409D01*
X39181D01*
Y-189559D01*
X41819D01*
Y-186409D01*
X44181D01*
Y-204323D01*
D02*
G37*
G36*
X77457Y-185181D02*
X74307D01*
Y-187819D01*
X77457D01*
Y-190181D01*
X74307D01*
Y-192819D01*
X77457D01*
Y-195181D01*
X74307D01*
Y-197819D01*
X77457D01*
Y-200181D01*
X59543D01*
Y-182819D01*
X77457D01*
Y-185181D01*
D02*
G37*
G36*
X55606Y-200614D02*
X53244D01*
Y-199984D01*
X51276D01*
Y-198016D01*
X53244D01*
Y-194984D01*
X51276D01*
Y-193016D01*
X53244D01*
Y-189984D01*
X51276D01*
Y-188016D01*
X55606D01*
Y-200614D01*
D02*
G37*
G36*
X44614Y-210622D02*
X43984D01*
Y-212591D01*
X42016D01*
Y-210622D01*
X38984D01*
Y-212591D01*
X37016D01*
Y-210622D01*
X33984D01*
Y-212591D01*
X32016D01*
Y-208260D01*
X44614D01*
Y-210622D01*
D02*
G37*
G36*
X122122Y-221016D02*
X124091D01*
Y-222984D01*
X122122D01*
Y-226016D01*
X124091D01*
Y-227984D01*
X122122D01*
Y-231016D01*
X124091D01*
Y-232984D01*
X119760D01*
Y-220386D01*
X122122D01*
Y-221016D01*
D02*
G37*
G36*
X115823Y-238181D02*
X97909D01*
Y-235819D01*
X101059D01*
Y-233181D01*
X97909D01*
Y-230819D01*
X101059D01*
Y-228181D01*
X97909D01*
Y-225819D01*
X101059D01*
Y-223181D01*
X97909D01*
Y-220819D01*
X115823D01*
Y-238181D01*
D02*
G37*
D45*
X245232Y-44500D02*
D03*
X241768D02*
D03*
X38579Y-35000D02*
D03*
X35114D02*
D03*
X81286Y-94337D02*
D03*
X84751D02*
D03*
X81298Y-89833D02*
D03*
X84762D02*
D03*
X102232Y-83000D02*
D03*
X98768D02*
D03*
X75732Y-149500D02*
D03*
X72268D02*
D03*
X114768Y-164000D02*
D03*
X118232D02*
D03*
X83268Y-238000D02*
D03*
X86732D02*
D03*
X512732Y-135000D02*
D03*
X509268D02*
D03*
X283732Y-149000D02*
D03*
X280268D02*
D03*
X368402Y-188500D02*
D03*
X371866D02*
D03*
X269768Y-188500D02*
D03*
X273232D02*
D03*
X269585Y-206630D02*
D03*
X273050D02*
D03*
X269585Y-202630D02*
D03*
X273050D02*
D03*
X269585Y-211130D02*
D03*
X273050D02*
D03*
X269585Y-215630D02*
D03*
X273050D02*
D03*
X269585Y-220130D02*
D03*
X273050D02*
D03*
X319732Y-217000D02*
D03*
X316268D02*
D03*
X120965Y-158500D02*
D03*
X117500D02*
D03*
X110268Y-169000D02*
D03*
X113732D02*
D03*
X113472Y-127500D02*
D03*
X110008D02*
D03*
X112732Y-141000D02*
D03*
X109268D02*
D03*
X117232Y-155000D02*
D03*
X113768D02*
D03*
X102232Y-78000D02*
D03*
X98768D02*
D03*
X221268Y-217500D02*
D03*
X224732D02*
D03*
X319965Y-221500D02*
D03*
X316500D02*
D03*
X327500Y-66500D02*
D03*
X324035D02*
D03*
X327732Y-78000D02*
D03*
X324268D02*
D03*
X327232Y-52000D02*
D03*
X323768D02*
D03*
X327500Y-63000D02*
D03*
X324035D02*
D03*
X185768Y-129000D02*
D03*
X189232D02*
D03*
X241535Y-30500D02*
D03*
X245000D02*
D03*
X241768Y-34500D02*
D03*
X245232D02*
D03*
X156268Y-211500D02*
D03*
X159732D02*
D03*
D47*
X102500Y-131000D02*
D03*
Y-127535D02*
D03*
X92000Y-241732D02*
D03*
Y-238268D02*
D03*
X52500Y-210268D02*
D03*
Y-213732D02*
D03*
X296800Y-140965D02*
D03*
Y-137500D02*
D03*
X292600Y-140965D02*
D03*
Y-137500D02*
D03*
X288401Y-140965D02*
D03*
Y-137500D02*
D03*
X301000Y-140965D02*
D03*
Y-137500D02*
D03*
X284201Y-140965D02*
D03*
Y-137500D02*
D03*
X270500Y-141732D02*
D03*
Y-138268D02*
D03*
X345500Y-190768D02*
D03*
Y-194232D02*
D03*
X262000Y-202232D02*
D03*
Y-198768D02*
D03*
X28000Y-220465D02*
D03*
Y-217000D02*
D03*
X93500Y-78768D02*
D03*
Y-82232D02*
D03*
X73500Y-41232D02*
D03*
Y-37768D02*
D03*
X187798Y-135368D02*
D03*
Y-138833D02*
D03*
X383500Y-171768D02*
D03*
Y-175232D02*
D03*
X91000Y-127732D02*
D03*
Y-124268D02*
D03*
X170298Y-135368D02*
D03*
Y-138833D02*
D03*
X174298Y-135368D02*
D03*
Y-138833D02*
D03*
X183298Y-135368D02*
D03*
Y-138833D02*
D03*
X178798Y-135368D02*
D03*
Y-138833D02*
D03*
X203000Y-134768D02*
D03*
Y-138232D02*
D03*
D51*
X95000Y-124130D02*
D03*
Y-127870D02*
D03*
X98500Y-127630D02*
D03*
Y-131370D02*
D03*
X106000Y-127630D02*
D03*
Y-131370D02*
D03*
X87000Y-247870D02*
D03*
Y-244130D02*
D03*
X82500Y-247870D02*
D03*
Y-244130D02*
D03*
X225418Y-137452D02*
D03*
Y-133712D02*
D03*
X261498Y-189513D02*
D03*
Y-193253D02*
D03*
X257499Y-193253D02*
D03*
Y-189513D02*
D03*
X330500Y-216130D02*
D03*
Y-219870D02*
D03*
Y-207130D02*
D03*
Y-210870D02*
D03*
X327500Y-181370D02*
D03*
Y-177630D02*
D03*
X78500Y-41870D02*
D03*
Y-38130D02*
D03*
X183500Y-106130D02*
D03*
Y-109870D02*
D03*
X178500Y-106130D02*
D03*
Y-109870D02*
D03*
X223500Y-108870D02*
D03*
Y-105130D02*
D03*
X327500Y-73740D02*
D03*
Y-70000D02*
D03*
Y-59370D02*
D03*
Y-55630D02*
D03*
D53*
X84630Y-83000D02*
D03*
X88370D02*
D03*
X113740Y-131500D02*
D03*
X110000D02*
D03*
X112870Y-145000D02*
D03*
X109130D02*
D03*
X112370Y-158500D02*
D03*
X108630D02*
D03*
X100630Y-168000D02*
D03*
X104370D02*
D03*
X106130Y-164000D02*
D03*
X109870D02*
D03*
X270130Y-154500D02*
D03*
X273870D02*
D03*
X270000Y-150500D02*
D03*
X273740D02*
D03*
X405744Y-84339D02*
D03*
X409484D02*
D03*
X409614Y-89339D02*
D03*
X405874D02*
D03*
X409484Y-79839D02*
D03*
X405744D02*
D03*
X233630Y-103000D02*
D03*
X237370D02*
D03*
X233500Y-106500D02*
D03*
X237240D02*
D03*
X372004Y-193500D02*
D03*
X368264D02*
D03*
X88370Y-77500D02*
D03*
X84630D02*
D03*
X372004Y-198000D02*
D03*
X368264D02*
D03*
X159870Y-93500D02*
D03*
X156130D02*
D03*
X199630Y-125000D02*
D03*
X203370D02*
D03*
X245370Y-41000D02*
D03*
X241630D02*
D03*
X203370Y-128500D02*
D03*
X199630D02*
D03*
D62*
X86000Y-125449D02*
D03*
Y-131551D02*
D03*
D65*
X90807Y-230500D02*
D03*
X79193D02*
D03*
D67*
X73500Y-87807D02*
D03*
Y-76193D02*
D03*
X123500Y-206807D02*
D03*
Y-195193D02*
D03*
X40347Y-17193D02*
D03*
Y-28807D02*
D03*
X30847Y-17193D02*
D03*
Y-28807D02*
D03*
X318000Y-210807D02*
D03*
Y-199193D02*
D03*
D69*
X315488Y-259980D02*
D03*
Y-256239D02*
D03*
Y-252500D02*
D03*
Y-248956D02*
D03*
Y-245413D02*
D03*
Y-241869D02*
D03*
Y-238129D02*
D03*
Y-234389D02*
D03*
X321000D02*
D03*
Y-238129D02*
D03*
Y-241869D02*
D03*
Y-245413D02*
D03*
Y-248956D02*
D03*
Y-252500D02*
D03*
Y-256239D02*
D03*
Y-259980D02*
D03*
X286500Y-260024D02*
D03*
Y-256283D02*
D03*
Y-252543D02*
D03*
Y-249000D02*
D03*
Y-245456D02*
D03*
Y-241913D02*
D03*
Y-238173D02*
D03*
Y-234432D02*
D03*
X292012D02*
D03*
Y-238173D02*
D03*
Y-241913D02*
D03*
Y-245456D02*
D03*
Y-249000D02*
D03*
Y-252543D02*
D03*
Y-256283D02*
D03*
Y-260024D02*
D03*
D70*
X310646Y-239311D02*
D03*
Y-255059D02*
D03*
X325842Y-239311D02*
D03*
Y-255059D02*
D03*
X281657Y-255102D02*
D03*
Y-239354D02*
D03*
X296854Y-255102D02*
D03*
Y-239354D02*
D03*
D71*
X134500Y-79500D02*
D03*
D72*
X139500D02*
D03*
X134500Y-84500D02*
D03*
Y-89500D02*
D03*
X139500Y-84500D02*
D03*
Y-89500D02*
D03*
X134500Y-94500D02*
D03*
Y-99500D02*
D03*
X139500Y-94500D02*
D03*
Y-99500D02*
D03*
D73*
X15228Y-45500D02*
D03*
X16228Y-69500D02*
D03*
D74*
X15228Y-15500D02*
D03*
X16228Y-99500D02*
D03*
D75*
X459815Y-90595D02*
D03*
X61500Y-253000D02*
D03*
X89059Y-58095D02*
D03*
D76*
X345500Y-224972D02*
D03*
X254067Y-224736D02*
D03*
D77*
X345500Y-234815D02*
D03*
Y-244657D02*
D03*
Y-254500D02*
D03*
X254067Y-254264D02*
D03*
Y-244421D02*
D03*
Y-234579D02*
D03*
D78*
X34000Y-236500D02*
D03*
D79*
X14000D02*
D03*
D80*
X171501Y-249000D02*
D03*
X151501D02*
D03*
X131500D02*
D03*
X111501D02*
D03*
D81*
X203000Y-248000D02*
D03*
D82*
X218000D02*
D03*
D83*
X492711Y-216200D02*
D03*
Y-205400D02*
D03*
Y-194600D02*
D03*
Y-183800D02*
D03*
D84*
X503911Y-221600D02*
D03*
Y-210800D02*
D03*
Y-200000D02*
D03*
Y-189200D02*
D03*
D85*
Y-178400D02*
D03*
D86*
X498311Y-150800D02*
D03*
Y-249200D02*
D03*
D87*
X370890Y-251610D02*
D03*
D88*
X363409Y-223658D02*
D03*
X414591Y-235469D02*
D03*
D89*
X398843Y-259091D02*
D03*
X387032Y-207909D02*
D03*
D90*
X148000Y-55500D02*
D03*
D91*
Y-65500D02*
D03*
X138000Y-55500D02*
D03*
Y-65500D02*
D03*
X128000Y-55500D02*
D03*
Y-65500D02*
D03*
D92*
X127059Y-12299D02*
D03*
Y-37894D02*
D03*
D93*
X339500Y-203000D02*
D03*
X240000Y-199500D02*
D03*
X355000Y-211000D02*
D03*
X335000Y-206787D02*
D03*
X360500Y-207000D02*
D03*
X365000Y-200158D02*
D03*
X360384Y-174549D02*
D03*
X366384Y-179285D02*
D03*
X165150Y-199500D02*
D03*
X158850D02*
D03*
X162000Y-202650D02*
D03*
Y-196350D02*
D03*
X112500Y-119500D02*
D03*
X91955Y-136526D02*
D03*
X93785Y-138864D02*
D03*
X96000Y-90500D02*
D03*
X104578Y-154724D02*
D03*
X86000Y-86500D02*
D03*
X203500Y-121384D02*
D03*
X194000Y-117500D02*
D03*
X226000Y-126500D02*
D03*
X244008Y-37806D02*
D03*
X241000Y-48500D02*
D03*
X124820Y-234599D02*
D03*
X79500Y-150056D02*
D03*
X271031Y-95500D02*
D03*
X274000D02*
D03*
X163500Y-189184D02*
D03*
X101500Y-46500D02*
D03*
X190998Y-105998D02*
D03*
X258500Y-202216D02*
D03*
X281536Y-145505D02*
D03*
X422595Y-214056D02*
D03*
X281078Y-175380D02*
D03*
X281578Y-169880D02*
D03*
X282500Y-173000D02*
D03*
X159450Y-138000D02*
D03*
X302000Y-192000D02*
D03*
X303881Y-211684D02*
D03*
X237000Y-206000D02*
D03*
X219000Y-63500D02*
D03*
X217000Y-160000D02*
D03*
X246500D02*
D03*
X329500Y-161000D02*
D03*
X331500Y-253500D02*
D03*
X339500Y-186000D02*
D03*
X225500Y-187000D02*
D03*
X221944Y-140444D02*
D03*
X225000Y-143000D02*
D03*
X224000Y-59500D02*
D03*
X246853Y-58784D02*
D03*
X249500Y-177000D02*
D03*
X252462Y-68259D02*
D03*
X252773Y-113521D02*
D03*
X329500Y-113500D02*
D03*
X307000Y-213500D02*
D03*
X359500Y-182500D02*
D03*
X302000D02*
D03*
X302500Y-130500D02*
D03*
X301604Y-82948D02*
D03*
X211000Y-114500D02*
D03*
X242500Y-114000D02*
D03*
X229444Y-194873D02*
D03*
X172472Y-187984D02*
D03*
X115500Y-186000D02*
D03*
X143500Y-203000D02*
D03*
X151553Y-200872D02*
D03*
X110521Y-180212D02*
D03*
X97000Y-167500D02*
D03*
X101620Y-171707D02*
D03*
X81002Y-184004D02*
D03*
X227000Y-184000D02*
D03*
X355000Y-166500D02*
D03*
X320000D02*
D03*
X319897Y-85785D02*
D03*
X247854Y-79786D02*
D03*
X306000Y-193000D02*
D03*
X298000Y-198500D02*
D03*
X307000Y-202000D02*
D03*
X335000Y-177500D02*
D03*
X151703Y-231207D02*
D03*
X227500Y-223000D02*
D03*
X390500Y-127500D02*
D03*
X354030Y-127493D02*
D03*
X354000Y-145500D02*
D03*
X310500D02*
D03*
Y-72500D02*
D03*
X245781Y-72110D02*
D03*
X393332Y-195999D02*
D03*
X396000Y-219500D02*
D03*
X408598Y-133484D02*
D03*
X315912Y-138770D02*
D03*
X315500Y-88500D02*
D03*
X184000D02*
D03*
X189325Y-89036D02*
D03*
X199484Y-105000D02*
D03*
X197500Y-72000D02*
D03*
X252500Y-206500D02*
D03*
X311500Y-207000D02*
D03*
X214652Y-203583D02*
D03*
X214500Y-207000D02*
D03*
X229500Y-44500D02*
D03*
X175500Y-191500D02*
D03*
X175898Y-215500D02*
D03*
X182500Y-198500D02*
D03*
Y-227000D02*
D03*
X191500D02*
D03*
X147500Y-209000D02*
D03*
X144105Y-211859D02*
D03*
X155031Y-205735D02*
D03*
X169500Y-205916D02*
D03*
X155082Y-219584D02*
D03*
X173000Y-201000D02*
D03*
X143500Y-188500D02*
D03*
X241633Y-104040D02*
D03*
X161000Y-38500D02*
D03*
X187478Y-108500D02*
D03*
X197500Y-111000D02*
D03*
X180992Y-110489D02*
D03*
X178500Y-114000D02*
D03*
X413500Y-80000D02*
D03*
Y-104500D02*
D03*
X372500Y-108000D02*
D03*
X323000Y-108500D02*
D03*
X218500Y-107000D02*
D03*
X213500Y-104500D02*
D03*
X326500Y-101500D02*
D03*
X367000D02*
D03*
X409783Y-93975D02*
D03*
X276500Y-130500D02*
D03*
X269000Y-223500D02*
D03*
X449500Y-231500D02*
D03*
X420000Y-209500D02*
D03*
X414429Y-192150D02*
D03*
X425500Y-230500D02*
D03*
X417000Y-225000D02*
D03*
X421976Y-216959D02*
D03*
X399000Y-222000D02*
D03*
X425000Y-217000D02*
D03*
X418000Y-218000D02*
D03*
X305000Y-223500D02*
D03*
X277500Y-220500D02*
D03*
X218000Y-217500D02*
D03*
X154500Y-97000D02*
D03*
X92556Y-17721D02*
D03*
X92500Y-21000D02*
D03*
X105500Y-29500D02*
D03*
Y-43000D02*
D03*
X475708Y-208312D02*
D03*
X473630Y-176692D02*
D03*
X478538Y-238392D02*
D03*
X403000Y-235000D02*
D03*
X252500Y-189500D02*
D03*
X256000Y-198000D02*
D03*
X277000Y-151500D02*
D03*
X279722Y-193591D02*
D03*
X277000Y-206500D02*
D03*
X277500Y-211000D02*
D03*
Y-215500D02*
D03*
X404000Y-195500D02*
D03*
X449712Y-201314D02*
D03*
X436000Y-198835D02*
D03*
X182192Y-145697D02*
D03*
X165691Y-148197D02*
D03*
X262000Y-147000D02*
D03*
Y-117500D02*
D03*
X200892Y-145587D02*
D03*
X188000Y-125000D02*
D03*
X187478Y-142361D02*
D03*
X185500Y-223500D02*
D03*
X152000Y-151000D02*
D03*
X149000Y-103000D02*
D03*
X154000Y-38000D02*
D03*
X148173Y-153442D02*
D03*
X124403Y-150097D02*
D03*
X148339Y-198175D02*
D03*
X495500Y-103000D02*
D03*
X444500D02*
D03*
Y-183500D02*
D03*
X434501Y-179642D02*
D03*
X434500Y-136000D02*
D03*
X519603Y-136243D02*
D03*
X361000Y-146500D02*
D03*
X366000Y-145000D02*
D03*
X395616Y-179374D02*
D03*
X519575Y-99279D02*
D03*
X507924Y-100576D02*
D03*
X400804Y-183299D02*
D03*
X370989Y-183601D02*
D03*
X370762Y-147747D02*
D03*
X375341Y-144050D02*
D03*
X404101Y-139241D02*
D03*
X404500Y-122500D02*
D03*
X495431Y-122000D02*
D03*
X482506Y-98307D02*
D03*
X420000Y-109000D02*
D03*
X515000D02*
D03*
X502760Y-118519D02*
D03*
X505380Y-98416D02*
D03*
X387000Y-173500D02*
D03*
X420000D02*
D03*
X353500Y-87500D02*
D03*
Y-83500D02*
D03*
Y-79000D02*
D03*
Y-75000D02*
D03*
X293000Y-125000D02*
D03*
Y-130500D02*
D03*
X302500Y-125000D02*
D03*
X279000Y-84500D02*
D03*
X260000Y-131000D02*
D03*
X251000Y-126000D02*
D03*
X248500Y-131000D02*
D03*
X254000D02*
D03*
X257500Y-126500D02*
D03*
X283500Y-129000D02*
D03*
X277000Y-147500D02*
D03*
X221000Y-145000D02*
D03*
X212500D02*
D03*
X161500Y-153500D02*
D03*
X98148Y-135364D02*
D03*
X117000Y-145500D02*
D03*
X123500Y-132000D02*
D03*
X171032Y-105855D02*
D03*
X171000Y-115000D02*
D03*
X116500D02*
D03*
X149000Y-132000D02*
D03*
X178522Y-103229D02*
D03*
X183522D02*
D03*
X82298Y-144202D02*
D03*
X406500Y-212000D02*
D03*
X193870Y-128146D02*
D03*
X120500Y-128000D02*
D03*
Y-73500D02*
D03*
X133500D02*
D03*
Y-33000D02*
D03*
X113000Y-20782D02*
D03*
X136000Y-110500D02*
D03*
X229500Y-58500D02*
D03*
X287500Y-64000D02*
D03*
X287000Y-204500D02*
D03*
X400000Y-193000D02*
D03*
X416500Y-206000D02*
D03*
X447000Y-217894D02*
D03*
Y-212500D02*
D03*
X442512Y-217894D02*
D03*
X432630Y-212500D02*
D03*
X442512Y-222382D02*
D03*
X437118D02*
D03*
Y-208012D02*
D03*
X442512D02*
D03*
Y-212500D02*
D03*
X432630Y-217894D02*
D03*
X437118D02*
D03*
Y-212500D02*
D03*
X306000Y-92500D02*
D03*
X425500Y-212000D02*
D03*
Y-188500D02*
D03*
X280500D02*
D03*
X159512Y-84370D02*
D03*
X422500Y-198500D02*
D03*
X298000Y-76000D02*
D03*
X160500D02*
D03*
X178000Y-91000D02*
D03*
X174540Y-87952D02*
D03*
X181500Y-79500D02*
D03*
Y-53500D02*
D03*
X178000Y-59000D02*
D03*
X174500Y-64000D02*
D03*
X197000Y-205500D02*
D03*
X144500Y-196500D02*
D03*
X235000Y-244500D02*
D03*
X234719Y-110312D02*
D03*
X203000Y-114000D02*
D03*
X160000Y-97500D02*
D03*
X164500Y-99000D02*
D03*
X155000Y-29000D02*
D03*
X112500Y-28000D02*
D03*
X96000Y-81500D02*
D03*
X120000Y-31500D02*
D03*
X65868Y-24094D02*
D03*
X128000Y-106000D02*
D03*
X139000Y-43500D02*
D03*
X82042Y-154559D02*
D03*
X138000Y-212500D02*
D03*
X81002Y-195504D02*
D03*
Y-192504D02*
D03*
Y-189504D02*
D03*
X80900Y-186601D02*
D03*
X70000Y-155000D02*
D03*
X67500Y-156500D02*
D03*
X64270Y-156785D02*
D03*
X61500Y-157000D02*
D03*
Y-143000D02*
D03*
X64270Y-143215D02*
D03*
X67500Y-143500D02*
D03*
X70000Y-145500D02*
D03*
X69000Y-97000D02*
D03*
X71500Y-94000D02*
D03*
X74000Y-96500D02*
D03*
X69500Y-86500D02*
D03*
X69340Y-89598D02*
D03*
X69500Y-92000D02*
D03*
X76000Y-98500D02*
D03*
X96500Y-171000D02*
D03*
X79000Y-248000D02*
D03*
X90500D02*
D03*
X98000Y-164000D02*
D03*
X88594Y-137222D02*
D03*
X96000Y-78500D02*
D03*
X86059Y-121429D02*
D03*
X80100Y-123873D02*
D03*
X104000Y-90000D02*
D03*
X79495Y-147087D02*
D03*
X106000Y-124500D02*
D03*
X55000Y-181500D02*
D03*
X85500Y-159000D02*
D03*
X128088Y-165010D02*
D03*
X127588Y-177010D02*
D03*
X119088Y-180010D02*
D03*
X123088D02*
D03*
X127088Y-179510D02*
D03*
X127588Y-162510D02*
D03*
X130088Y-177010D02*
D03*
Y-173510D02*
D03*
Y-170510D02*
D03*
Y-167010D02*
D03*
Y-163510D02*
D03*
X32000Y-216500D02*
D03*
X69689Y-152000D02*
D03*
X61500Y-96000D02*
D03*
X92500Y-42551D02*
D03*
X47000Y-52500D02*
D03*
X90905Y-37000D02*
D03*
X66500D02*
D03*
X228575Y-205500D02*
D03*
X222276D02*
D03*
X225426Y-208649D02*
D03*
Y-202350D02*
D03*
D128*
X58335Y-32795D02*
D03*
X50854D02*
D03*
X65240Y-44354D02*
D03*
X57760D02*
D03*
X65240Y-50354D02*
D03*
X57760D02*
D03*
X65240Y-56354D02*
D03*
X57760D02*
D03*
X65240Y-62854D02*
D03*
X57760D02*
D03*
X65240Y-68854D02*
D03*
X57760D02*
D03*
X65240Y-74854D02*
D03*
X57760D02*
D03*
X65240Y-80854D02*
D03*
X57760D02*
D03*
D131*
X71441Y-100000D02*
D03*
X53441Y-184000D02*
D03*
X121925Y-237000D02*
D03*
D132*
X90126Y-152362D02*
D03*
X82126D02*
D03*
D133*
X75500Y-168000D02*
D03*
Y-156189D02*
D03*
Y-131595D02*
D03*
Y-143405D02*
D03*
D140*
X65000Y-223260D02*
D03*
Y-230740D02*
D03*
X71000Y-223260D02*
D03*
Y-230740D02*
D03*
X59146Y-207646D02*
D03*
Y-215126D02*
D03*
X65146Y-207646D02*
D03*
Y-215126D02*
D03*
X71146Y-207646D02*
D03*
Y-215126D02*
D03*
X77146Y-207646D02*
D03*
Y-215126D02*
D03*
X83146Y-207646D02*
D03*
Y-215126D02*
D03*
X89146Y-207646D02*
D03*
Y-215126D02*
D03*
X95146Y-207646D02*
D03*
Y-215126D02*
D03*
X101146Y-207646D02*
D03*
Y-215126D02*
D03*
D142*
X195968Y-132587D02*
D03*
X194000D02*
D03*
X192032D02*
D03*
Y-138413D02*
D03*
X194000D02*
D03*
X195968D02*
D03*
X275257Y-138272D02*
D03*
X277226D02*
D03*
X279194D02*
D03*
Y-144098D02*
D03*
X277226D02*
D03*
X275257D02*
D03*
D146*
X268713Y-115500D02*
D03*
X295287D02*
D03*
X207287Y-159500D02*
D03*
X180713D02*
D03*
D147*
X264000Y-137242D02*
D03*
Y-142758D02*
D03*
X255500Y-137242D02*
D03*
Y-142758D02*
D03*
X216500Y-133742D02*
D03*
Y-139258D02*
D03*
X209000Y-133742D02*
D03*
Y-139258D02*
D03*
D150*
X294000Y-191213D02*
D03*
Y-217787D02*
D03*
D151*
X274258Y-181500D02*
D03*
X268742D02*
D03*
X274258Y-173500D02*
D03*
X268742D02*
D03*
D152*
X273000Y-194000D02*
D03*
Y-195968D02*
D03*
Y-197937D02*
D03*
X267173D02*
D03*
Y-195968D02*
D03*
Y-194000D02*
D03*
D154*
X58000Y-98575D02*
D03*
X28000Y-210425D02*
D03*
D173*
X320598Y-225457D02*
D03*
X315401D02*
D03*
X286657Y-228527D02*
D03*
X291854D02*
D03*
D174*
X86835Y-17701D02*
D03*
X66165D02*
D03*
X86835Y-30299D02*
D03*
X66165D02*
D03*
D175*
X93500Y-150000D02*
D03*
D176*
X85626Y-144488D02*
D03*
Y-146063D02*
D03*
Y-147638D02*
D03*
Y-149213D02*
D03*
Y-150787D02*
D03*
Y-152362D02*
D03*
Y-153937D02*
D03*
Y-155512D02*
D03*
X101374D02*
D03*
Y-153937D02*
D03*
Y-152362D02*
D03*
Y-150787D02*
D03*
Y-149213D02*
D03*
Y-147638D02*
D03*
Y-146063D02*
D03*
Y-144488D02*
D03*
D177*
X87988Y-157874D02*
D03*
X89563D02*
D03*
X91138D02*
D03*
X92713D02*
D03*
X94287D02*
D03*
X95862D02*
D03*
X97437D02*
D03*
X99012D02*
D03*
Y-142126D02*
D03*
X97437D02*
D03*
X95862D02*
D03*
X94287D02*
D03*
X92713D02*
D03*
X91138D02*
D03*
X89563D02*
D03*
X87988D02*
D03*
D178*
X165839Y-206685D02*
D03*
X163279D02*
D03*
X160721D02*
D03*
X158161D02*
D03*
Y-192315D02*
D03*
X160721D02*
D03*
X163279D02*
D03*
X165839D02*
D03*
X229264Y-212685D02*
D03*
X226705D02*
D03*
X224146D02*
D03*
X221587D02*
D03*
Y-198315D02*
D03*
X224146D02*
D03*
X226705D02*
D03*
X229264D02*
D03*
D179*
X154815Y-203339D02*
D03*
Y-200780D02*
D03*
Y-198221D02*
D03*
Y-195661D02*
D03*
X169185D02*
D03*
Y-198221D02*
D03*
Y-200780D02*
D03*
Y-203339D02*
D03*
X218241Y-209338D02*
D03*
Y-206779D02*
D03*
Y-204220D02*
D03*
Y-201661D02*
D03*
X232611D02*
D03*
Y-204220D02*
D03*
Y-206779D02*
D03*
Y-209338D02*
D03*
D180*
X162000Y-199500D02*
D03*
X225426Y-205500D02*
D03*
D181*
X328619Y-45119D02*
D03*
X300619D02*
D03*
D182*
X476130Y-103547D02*
D03*
Y-117878D02*
D03*
D183*
X519933Y-90634D02*
D03*
X491587D02*
D03*
Y-130791D02*
D03*
X519933D02*
D03*
D184*
X508709Y-130004D02*
D03*
X503984D02*
D03*
X508709Y-91421D02*
D03*
X499260Y-130004D02*
D03*
X503984Y-91421D02*
D03*
X499260D02*
D03*
D185*
X351276Y-190260D02*
D03*
Y-194000D02*
D03*
Y-197740D02*
D03*
X360724D02*
D03*
Y-194000D02*
D03*
Y-190260D02*
D03*
D186*
X98701Y-39500D02*
D03*
X86299D02*
D03*
D187*
X57051Y-17000D02*
D03*
X50949D02*
D03*
D188*
X327500Y-199500D02*
D03*
X331240D02*
D03*
X334980D02*
D03*
Y-187886D02*
D03*
X331240D02*
D03*
X327500D02*
D03*
D189*
X25500Y-130347D02*
D03*
Y-173653D02*
D03*
D190*
X379642Y-68851D02*
D03*
X375311D02*
D03*
X370980D02*
D03*
X366649D02*
D03*
X362319D02*
D03*
X357988D02*
D03*
X353657D02*
D03*
X349326D02*
D03*
Y-138142D02*
D03*
X353657D02*
D03*
X357988D02*
D03*
X362319D02*
D03*
X366649D02*
D03*
X370980D02*
D03*
X375311D02*
D03*
X379642D02*
D03*
X383972D02*
D03*
Y-68851D02*
D03*
D191*
X335744Y-79678D02*
D03*
Y-84008D02*
D03*
Y-88339D02*
D03*
Y-92670D02*
D03*
Y-97000D02*
D03*
Y-101331D02*
D03*
Y-105662D02*
D03*
Y-109993D02*
D03*
Y-114323D02*
D03*
Y-118654D02*
D03*
Y-122985D02*
D03*
Y-127315D02*
D03*
X397555D02*
D03*
Y-122985D02*
D03*
Y-118654D02*
D03*
Y-114323D02*
D03*
Y-109993D02*
D03*
Y-105662D02*
D03*
Y-101331D02*
D03*
Y-97000D02*
D03*
Y-92670D02*
D03*
Y-88339D02*
D03*
Y-84008D02*
D03*
Y-79678D02*
D03*
D192*
X333154Y-249000D02*
D03*
X329847D02*
D03*
X333153Y-245457D02*
D03*
X329846D02*
D03*
D193*
X390744Y-147808D02*
D03*
X395744D02*
D03*
X400744D02*
D03*
X405744D02*
D03*
X390744Y-172871D02*
D03*
X395744D02*
D03*
X400744D02*
D03*
X405744D02*
D03*
D194*
X398244Y-160339D02*
D03*
D195*
X201343Y-53382D02*
D03*
Y-58894D02*
D03*
Y-64406D02*
D03*
X206854D02*
D03*
X212366D02*
D03*
Y-58894D02*
D03*
Y-53382D02*
D03*
X206854D02*
D03*
Y-58894D02*
D03*
D196*
X166500Y-28500D02*
D03*
Y-33500D02*
D03*
Y-38500D02*
D03*
Y-43500D02*
D03*
Y-48500D02*
D03*
Y-53500D02*
D03*
Y-58500D02*
D03*
Y-63500D02*
D03*
Y-68500D02*
D03*
Y-73500D02*
D03*
Y-78500D02*
D03*
Y-83500D02*
D03*
Y-88500D02*
D03*
Y-93500D02*
D03*
X235398D02*
D03*
Y-88500D02*
D03*
Y-83500D02*
D03*
Y-78500D02*
D03*
Y-73500D02*
D03*
Y-68500D02*
D03*
Y-63500D02*
D03*
Y-58500D02*
D03*
Y-53500D02*
D03*
Y-48500D02*
D03*
Y-43500D02*
D03*
Y-38500D02*
D03*
Y-33500D02*
D03*
Y-28500D02*
D03*
D197*
X173449Y-98421D02*
D03*
X178449D02*
D03*
X183449D02*
D03*
X188449D02*
D03*
X193449D02*
D03*
X198449D02*
D03*
X203449D02*
D03*
X208449D02*
D03*
X213449D02*
D03*
X218449D02*
D03*
X223449D02*
D03*
X228449D02*
D03*
M02*
