G04*
G04 #@! TF.GenerationSoftware,Altium Limited,Altium Designer,24.5.2 (23)*
G04*
G04 Layer_Color=8421504*
%FSLAX25Y25*%
%MOIN*%
G70*
G04*
G04 #@! TF.SameCoordinates,F16A58F2-69D1-4175-9934-78DD47C00A05*
G04*
G04*
G04 #@! TF.FilePolarity,Positive*
G04*
G01*
G75*
%ADD15R,0.01968X0.07677*%
%ADD16R,0.04331X0.10433*%
%ADD17R,0.02756X0.04921*%
%ADD18R,0.05512X0.01181*%
%ADD19R,0.02756X0.02559*%
%ADD20R,0.02441X0.02598*%
%ADD21R,0.01968X0.01181*%
%ADD22R,0.02598X0.02441*%
%ADD23R,0.02362X0.03543*%
%ADD24R,0.02055X0.02854*%
%ADD25R,0.04921X0.02362*%
%ADD26R,0.03150X0.03150*%
%ADD27R,0.02559X0.02756*%
%ADD28R,0.05315X0.07087*%
%ADD29R,0.01575X0.01890*%
%ADD30R,0.04528X0.02362*%
%ADD31R,0.04528X0.01181*%
%ADD32R,0.06693X0.10236*%
%ADD33R,0.02362X0.04724*%
%ADD34R,0.03543X0.03543*%
%ADD35R,0.05906X0.03543*%
%ADD36R,0.03543X0.05906*%
D15*
X-188622Y-31043D02*
D03*
Y25453D02*
D03*
D16*
X-191772Y-32421D02*
D03*
Y26831D02*
D03*
D17*
X-195315Y-29665D02*
D03*
Y24075D02*
D03*
D18*
X-190000Y-25433D02*
D03*
Y-23465D02*
D03*
Y-21496D02*
D03*
Y-19528D02*
D03*
Y-17559D02*
D03*
Y-15591D02*
D03*
Y-13622D02*
D03*
Y-11654D02*
D03*
Y-9685D02*
D03*
Y-7717D02*
D03*
Y-5748D02*
D03*
Y-3779D02*
D03*
Y-1811D02*
D03*
Y158D02*
D03*
Y2126D02*
D03*
Y4095D02*
D03*
Y6063D02*
D03*
Y8032D02*
D03*
Y10000D02*
D03*
Y11969D02*
D03*
Y13937D02*
D03*
Y15905D02*
D03*
Y17874D02*
D03*
Y19842D02*
D03*
D19*
X-46130Y3000D02*
D03*
X-49870D02*
D03*
X-46130Y8000D02*
D03*
X-49870D02*
D03*
X-165130Y-9500D02*
D03*
X-168870D02*
D03*
X-140870Y25000D02*
D03*
X-137130D02*
D03*
X-179370Y18000D02*
D03*
X-175630D02*
D03*
X-180630Y-16500D02*
D03*
X-184370D02*
D03*
X-180630Y-12500D02*
D03*
X-184370D02*
D03*
X-170630Y-14500D02*
D03*
X-174370D02*
D03*
X-321630Y-500D02*
D03*
X-325370D02*
D03*
X-321630Y-5500D02*
D03*
X-325370D02*
D03*
X-323870Y-15000D02*
D03*
X-320130D02*
D03*
X-323870Y8000D02*
D03*
X-320130D02*
D03*
X-137130Y10500D02*
D03*
X-140870D02*
D03*
X-137130Y15500D02*
D03*
X-140870D02*
D03*
D20*
X-332500Y-52768D02*
D03*
Y-56232D02*
D03*
X-156000Y-9732D02*
D03*
Y-6268D02*
D03*
X-160500Y-9732D02*
D03*
Y-6268D02*
D03*
X-142000Y29768D02*
D03*
Y33232D02*
D03*
X-137500Y29500D02*
D03*
Y32965D02*
D03*
X-286000Y-54232D02*
D03*
Y-50768D02*
D03*
X75000Y-24465D02*
D03*
Y-21000D02*
D03*
X-297000Y-35768D02*
D03*
Y-39232D02*
D03*
X74500Y20768D02*
D03*
Y24232D02*
D03*
X-151000Y11768D02*
D03*
Y15232D02*
D03*
X-175000Y-37500D02*
D03*
Y-40965D02*
D03*
X-170500Y-37768D02*
D03*
Y-41232D02*
D03*
D21*
X-343256Y-52925D02*
D03*
Y-56075D02*
D03*
X-337744D02*
D03*
Y-52925D02*
D03*
X66756Y-20925D02*
D03*
Y-24075D02*
D03*
X61244D02*
D03*
Y-20925D02*
D03*
X68256Y24075D02*
D03*
Y20925D02*
D03*
X62744D02*
D03*
Y24075D02*
D03*
D22*
X-173768Y-5500D02*
D03*
X-177232D02*
D03*
X-158732Y-31500D02*
D03*
X-155268D02*
D03*
X-163268D02*
D03*
X-166732D02*
D03*
X-177232Y-9500D02*
D03*
X-173768D02*
D03*
X-137268Y20500D02*
D03*
X-140732D02*
D03*
X-177268Y10000D02*
D03*
X-180732D02*
D03*
X-180732Y14000D02*
D03*
X-177268D02*
D03*
X-296699Y-74003D02*
D03*
X-293234D02*
D03*
X-160732Y-54500D02*
D03*
X-157268D02*
D03*
X-160732Y-58500D02*
D03*
X-157268D02*
D03*
X-146768Y21000D02*
D03*
X-150232D02*
D03*
X-166268Y-2500D02*
D03*
X-169732D02*
D03*
D23*
X-161000Y-26012D02*
D03*
X-164740Y-14988D02*
D03*
X-157260D02*
D03*
X-161000Y-49012D02*
D03*
X-164740Y-37988D02*
D03*
X-157260D02*
D03*
D24*
X-290630Y-55779D02*
D03*
X-293866D02*
D03*
Y-49185D02*
D03*
X-290630D02*
D03*
D25*
X-291431Y-83681D02*
D03*
X-299699Y-87421D02*
D03*
Y-79940D02*
D03*
D26*
X-303000Y-39953D02*
D03*
Y-34047D02*
D03*
D27*
X-45500Y-27130D02*
D03*
Y-30870D02*
D03*
X-66000Y-46130D02*
D03*
Y-49870D02*
D03*
X-116000Y-46130D02*
D03*
Y-49870D02*
D03*
X-125000D02*
D03*
Y-46130D02*
D03*
X-120500Y-49870D02*
D03*
Y-46130D02*
D03*
X-292500Y-35630D02*
D03*
Y-39370D02*
D03*
X-287500Y-35630D02*
D03*
Y-39370D02*
D03*
X-146500Y14870D02*
D03*
Y11130D02*
D03*
X-170000Y1630D02*
D03*
Y5370D02*
D03*
X-151000Y7370D02*
D03*
Y3630D02*
D03*
D28*
X-22331Y-29000D02*
D03*
X-38669D02*
D03*
D29*
X-331500Y11000D02*
D03*
Y16197D02*
D03*
Y-98D02*
D03*
Y5098D02*
D03*
Y-5902D02*
D03*
Y-11098D02*
D03*
D30*
X-340398Y-15098D02*
D03*
Y-11949D02*
D03*
Y6949D02*
D03*
Y10098D02*
D03*
D31*
Y-9390D02*
D03*
Y-7421D02*
D03*
Y-5453D02*
D03*
Y-3484D02*
D03*
Y4390D02*
D03*
Y2421D02*
D03*
Y453D02*
D03*
Y-1516D02*
D03*
D32*
X-158079Y24000D02*
D03*
X-167921D02*
D03*
D33*
X-156760Y2882D02*
D03*
X-164240D02*
D03*
Y13118D02*
D03*
X-160500D02*
D03*
X-156760D02*
D03*
D34*
X-99512Y8012D02*
D03*
X-94000D02*
D03*
Y2500D02*
D03*
Y-3012D02*
D03*
X-99512D02*
D03*
X-105024D02*
D03*
Y2500D02*
D03*
Y8012D02*
D03*
X-99512Y2500D02*
D03*
D35*
X-59158Y32894D02*
D03*
Y27894D02*
D03*
Y22894D02*
D03*
Y17894D02*
D03*
Y12894D02*
D03*
Y7894D02*
D03*
Y2894D02*
D03*
Y-2106D02*
D03*
Y-7106D02*
D03*
Y-12106D02*
D03*
Y-17106D02*
D03*
Y-22106D02*
D03*
Y-27106D02*
D03*
Y-32106D02*
D03*
X-128055D02*
D03*
Y-27106D02*
D03*
Y-22106D02*
D03*
Y-17106D02*
D03*
Y-12106D02*
D03*
Y-7106D02*
D03*
Y-2106D02*
D03*
Y2894D02*
D03*
Y7894D02*
D03*
Y12894D02*
D03*
Y17894D02*
D03*
Y22894D02*
D03*
Y27894D02*
D03*
Y32894D02*
D03*
D36*
X-66106Y-37028D02*
D03*
X-71106D02*
D03*
X-76106D02*
D03*
X-81106D02*
D03*
X-86106D02*
D03*
X-91106D02*
D03*
X-96106D02*
D03*
X-101106D02*
D03*
X-106106D02*
D03*
X-111106D02*
D03*
X-116106D02*
D03*
X-121106D02*
D03*
M02*
