G04*
G04 #@! TF.GenerationSoftware,Altium Limited,Altium Designer,24.5.2 (23)*
G04*
G04 Layer_Color=16711935*
%FSLAX25Y25*%
%MOIN*%
G70*
G04*
G04 #@! TF.SameCoordinates,F16A58F2-69D1-4175-9934-78DD47C00A05*
G04*
G04*
G04 #@! TF.FilePolarity,Positive*
G04*
G01*
G75*
%ADD11C,0.00394*%
%ADD12C,0.00787*%
%ADD13C,0.00500*%
%ADD88C,0.00666*%
D11*
X-204961Y31653D02*
X-188425D01*
X-204961Y-37244D02*
Y31653D01*
Y-37244D02*
X-188425D01*
Y31653D01*
X-45933Y1917D02*
Y4083D01*
X-50067Y1917D02*
Y4083D01*
Y1917D02*
X-45933D01*
X-50067Y4083D02*
X-45933D01*
Y6917D02*
Y9083D01*
X-50067Y6917D02*
Y9083D01*
Y6917D02*
X-45933D01*
X-50067Y9083D02*
X-45933D01*
X-333583Y-52433D02*
X-331417D01*
X-333583Y-56567D02*
X-331417D01*
Y-52433D01*
X-333583Y-56567D02*
Y-52433D01*
X-343453Y-51547D02*
X-337547D01*
Y-57453D02*
Y-51547D01*
X-343453Y-57453D02*
X-337547D01*
X-343453D02*
Y-51547D01*
X-177567Y-6583D02*
X-173433D01*
X-177567Y-4417D02*
X-173433D01*
Y-6583D02*
Y-4417D01*
X-177567Y-6583D02*
Y-4417D01*
X-159067Y-30417D02*
X-154933D01*
X-159067Y-32583D02*
X-154933D01*
X-159067D02*
Y-30417D01*
X-154933Y-32583D02*
Y-30417D01*
X-157083Y-10067D02*
Y-5933D01*
X-154917Y-10067D02*
Y-5933D01*
X-157083Y-10067D02*
X-154917D01*
X-157083Y-5933D02*
X-154917D01*
X-167067Y-32583D02*
X-162933D01*
X-167067Y-30417D02*
X-162933D01*
Y-32583D02*
Y-30417D01*
X-167067Y-32583D02*
Y-30417D01*
X-161583Y-10067D02*
Y-5933D01*
X-159417Y-10067D02*
Y-5933D01*
X-161583Y-10067D02*
X-159417D01*
X-161583Y-5933D02*
X-159417D01*
X-177567Y-8417D02*
X-173433D01*
X-177567Y-10583D02*
X-173433D01*
X-177567D02*
Y-8417D01*
X-173433Y-10583D02*
Y-8417D01*
X-169067Y-10583D02*
X-164933D01*
X-169067Y-8417D02*
X-164933D01*
Y-10583D02*
Y-8417D01*
X-169067Y-10583D02*
Y-8417D01*
X-159031Y-17252D02*
X-155291Y-20992D01*
X-166709Y-17252D02*
X-155291D01*
X-166709Y-23748D02*
Y-17252D01*
Y-23748D02*
X-155291D01*
Y-17252D01*
X-289110Y-57717D02*
Y-47284D01*
X-302890D02*
X-289110D01*
X-302890Y-57717D02*
Y-47284D01*
Y-57717D02*
X-289110D01*
X-298124Y-81673D02*
X-294384Y-77933D01*
X-298124Y-89429D02*
Y-77933D01*
Y-89429D02*
X-293006D01*
Y-77933D01*
X-298124D02*
X-293006D01*
X-141067Y19417D02*
X-136933D01*
X-141067Y21583D02*
X-136933D01*
Y19417D02*
Y21583D01*
X-141067Y19417D02*
Y21583D01*
X-143083Y29433D02*
Y33567D01*
X-140917Y29433D02*
Y33567D01*
X-143083Y29433D02*
X-140917D01*
X-143083Y33567D02*
X-140917D01*
X-138583Y29165D02*
Y33299D01*
X-136417Y29165D02*
Y33299D01*
X-138583Y29165D02*
X-136417D01*
X-138583Y33299D02*
X-136417D01*
X-287083Y-54567D02*
Y-50433D01*
X-284917Y-54567D02*
Y-50433D01*
X-287083Y-54567D02*
X-284917D01*
X-287083Y-50433D02*
X-284917D01*
X-181067Y8917D02*
X-176933D01*
X-181067Y11083D02*
X-176933D01*
Y8917D02*
Y11083D01*
X-181067Y8917D02*
Y11083D01*
Y15083D02*
X-176933D01*
X-181067Y12917D02*
X-176933D01*
X-181067D02*
Y15083D01*
X-176933Y12917D02*
Y15083D01*
X73917Y-24799D02*
Y-20665D01*
X76083Y-24799D02*
Y-20665D01*
X73917Y-24799D02*
X76083D01*
X73917Y-20665D02*
X76083D01*
X-297033Y-72921D02*
X-292899D01*
X-297033Y-75086D02*
X-292899D01*
X-297033D02*
Y-72921D01*
X-292899Y-75086D02*
Y-72921D01*
X-295917Y-39567D02*
Y-35433D01*
X-298083Y-39567D02*
Y-35433D01*
X-295917D01*
X-298083Y-39567D02*
X-295917D01*
X73417Y20433D02*
Y24567D01*
X75583Y20433D02*
Y24567D01*
X73417Y20433D02*
X75583D01*
X73417Y24567D02*
X75583D01*
X-152083Y11433D02*
Y15567D01*
X-149917Y11433D02*
Y15567D01*
X-152083Y11433D02*
X-149917D01*
X-152083Y15567D02*
X-149917D01*
X-173917Y-41299D02*
Y-37165D01*
X-176083Y-41299D02*
Y-37165D01*
X-173917D01*
X-176083Y-41299D02*
X-173917D01*
X-169417Y-41567D02*
Y-37433D01*
X-171583Y-41567D02*
Y-37433D01*
X-169417D01*
X-171583Y-41567D02*
X-169417D01*
X-161067Y-53417D02*
X-156933D01*
X-161067Y-55583D02*
X-156933D01*
X-161067D02*
Y-53417D01*
X-156933Y-55583D02*
Y-53417D01*
X-161067Y-57417D02*
X-156933D01*
X-161067Y-59583D02*
X-156933D01*
X-161067D02*
Y-57417D01*
X-156933Y-59583D02*
Y-57417D01*
X-150567Y19917D02*
X-146433D01*
X-150567Y22083D02*
X-146433D01*
Y19917D02*
Y22083D01*
X-150567Y19917D02*
Y22083D01*
X-141067Y26083D02*
X-136933D01*
X-141067Y23917D02*
X-136933D01*
X-141067D02*
Y26083D01*
X-136933Y23917D02*
Y26083D01*
X-44417Y-31067D02*
Y-26933D01*
X-46583Y-31067D02*
Y-26933D01*
X-44417D01*
X-46583Y-31067D02*
X-44417D01*
X-64917Y-50067D02*
Y-45933D01*
X-67083Y-50067D02*
Y-45933D01*
X-64917D01*
X-67083Y-50067D02*
X-64917D01*
X-114917D02*
Y-45933D01*
X-117083Y-50067D02*
Y-45933D01*
X-114917D01*
X-117083Y-50067D02*
X-114917D01*
X-126083D02*
Y-45933D01*
X-123917Y-50067D02*
Y-45933D01*
X-126083Y-50067D02*
X-123917D01*
X-126083Y-45933D02*
X-123917D01*
X-121583Y-50067D02*
Y-45933D01*
X-119417Y-50067D02*
Y-45933D01*
X-121583Y-50067D02*
X-119417D01*
X-121583Y-45933D02*
X-119417D01*
X-291417Y-39567D02*
Y-35433D01*
X-293583Y-39567D02*
Y-35433D01*
X-291417D01*
X-293583Y-39567D02*
X-291417D01*
X-179567Y19083D02*
X-175433D01*
X-179567Y16917D02*
X-175433D01*
X-179567D02*
Y19083D01*
X-175433Y16917D02*
Y19083D01*
X-184567Y-17583D02*
X-180433D01*
X-184567Y-15417D02*
X-180433D01*
Y-17583D02*
Y-15417D01*
X-184567Y-17583D02*
Y-15417D01*
Y-13583D02*
X-180433D01*
X-184567Y-11417D02*
X-180433D01*
Y-13583D02*
Y-11417D01*
X-184567Y-13583D02*
Y-11417D01*
X-286417Y-39567D02*
Y-35433D01*
X-288583Y-39567D02*
Y-35433D01*
X-286417D01*
X-288583Y-39567D02*
X-286417D01*
X-174567Y-15583D02*
X-170433D01*
X-174567Y-13417D02*
X-170433D01*
Y-15583D02*
Y-13417D01*
X-174567Y-15583D02*
Y-13417D01*
X-38374Y-34709D02*
Y-23291D01*
Y-34709D02*
X-22626D01*
Y-23291D01*
X-38374D02*
X-22626D01*
X61047Y-25453D02*
Y-19547D01*
Y-25453D02*
X66953D01*
Y-19547D01*
X61047D02*
X66953D01*
X-159031Y-40252D02*
X-155291Y-43992D01*
X-166709Y-40252D02*
X-155291D01*
X-166709Y-46748D02*
Y-40252D01*
Y-46748D02*
X-155291D01*
Y-40252D01*
X-15008Y16000D02*
Y36000D01*
X-45992Y16001D02*
X-15008D01*
X-45992Y16000D02*
Y36000D01*
Y36001D02*
X-15008D01*
X-325567Y-1583D02*
X-321433D01*
X-325567Y583D02*
X-321433D01*
Y-1583D02*
Y583D01*
X-325567Y-1583D02*
Y583D01*
Y-6583D02*
X-321433D01*
X-325567Y-4417D02*
X-321433D01*
Y-6583D02*
Y-4417D01*
X-325567Y-6583D02*
Y-4417D01*
X-324067Y-13917D02*
X-319933D01*
X-324067Y-16083D02*
X-319933D01*
X-324067D02*
Y-13917D01*
X-319933Y-16083D02*
Y-13917D01*
X-324067Y9083D02*
X-319933D01*
X-324067Y6917D02*
X-319933D01*
X-324067D02*
Y9083D01*
X-319933Y6917D02*
Y9083D01*
X-141067Y9417D02*
X-136933D01*
X-141067Y11583D02*
X-136933D01*
Y9417D02*
Y11583D01*
X-141067Y9417D02*
Y11583D01*
Y14417D02*
X-136933D01*
X-141067Y16583D02*
X-136933D01*
Y14417D02*
Y16583D01*
X-141067Y14417D02*
Y16583D01*
X62547Y19547D02*
Y25453D01*
Y19547D02*
X68453D01*
Y25453D01*
X62547D02*
X68453D01*
X-147583Y15067D02*
X-145417D01*
X-147583Y10933D02*
X-145417D01*
Y15067D01*
X-147583Y10933D02*
Y15067D01*
X-171083Y1433D02*
X-168917D01*
X-171083Y5567D02*
X-168917D01*
X-171083Y1433D02*
Y5567D01*
X-168917Y1433D02*
Y5567D01*
X-152083Y7567D02*
X-149917D01*
X-152083Y3433D02*
X-149917D01*
Y7567D01*
X-152083Y3433D02*
Y7567D01*
X-165933Y-3583D02*
Y-1417D01*
X-170067Y-3583D02*
Y-1417D01*
Y-3583D02*
X-165933D01*
X-170067Y-1417D02*
X-165933D01*
X-168905Y18094D02*
Y29906D01*
Y18094D02*
X-157095D01*
Y29906D01*
X-168905D02*
X-157095D01*
X-158433Y11150D02*
X-154693Y7409D01*
X-166307Y11150D02*
X-154693D01*
X-166307Y4850D02*
Y11150D01*
Y4850D02*
X-154693D01*
Y11150D01*
X-129039Y-38012D02*
Y62382D01*
Y-38012D02*
X-58173D01*
Y62382D01*
X-129039D02*
X-58173D01*
D12*
X-334984Y10098D02*
G03*
X-334984Y10098I-394J0D01*
G01*
X-304575Y-33654D02*
X-301425D01*
X-304575Y-40347D02*
Y-33654D01*
Y-40347D02*
X-301425D01*
Y-33654D01*
X-333075Y15961D02*
X-329925D01*
X-333075Y11236D02*
Y15961D01*
Y11236D02*
X-329925D01*
Y15961D01*
X-333075Y4862D02*
X-329925D01*
X-333075Y138D02*
Y4862D01*
Y138D02*
X-329925D01*
Y4862D01*
X-333075Y-10862D02*
X-329925D01*
Y-6138D01*
X-333075D02*
X-329925D01*
X-333075Y-10862D02*
Y-6138D01*
D13*
X-369236Y-20098D02*
Y15098D01*
Y-47776D02*
Y-20098D01*
Y15098D02*
X-339669D01*
X-369394D02*
X-369236D01*
X-369394Y-20098D02*
Y15098D01*
Y-20098D02*
X-369236D01*
X-339669D01*
Y15098D01*
D88*
X-367858Y-24153D02*
X-364659D01*
Y-25753D01*
X-365193Y-26286D01*
X-366259D01*
X-366792Y-25753D01*
Y-24153D01*
X-365193Y-29485D02*
X-364659Y-28952D01*
Y-27886D01*
X-365193Y-27352D01*
X-367325D01*
X-367858Y-27886D01*
Y-28952D01*
X-367325Y-29485D01*
X-364659Y-30551D02*
X-367858D01*
Y-32151D01*
X-367325Y-32684D01*
X-366792D01*
X-366259Y-32151D01*
Y-30551D01*
Y-32151D01*
X-365726Y-32684D01*
X-365193D01*
X-364659Y-32151D01*
Y-30551D01*
Y-39082D02*
Y-36949D01*
X-367858D01*
Y-39082D01*
X-366259Y-36949D02*
Y-38016D01*
X-364659Y-40148D02*
X-367858D01*
Y-41748D01*
X-367325Y-42281D01*
X-365193D01*
X-364659Y-41748D01*
Y-40148D01*
X-365193Y-45480D02*
X-364659Y-44947D01*
Y-43881D01*
X-365193Y-43347D01*
X-367325D01*
X-367858Y-43881D01*
Y-44947D01*
X-367325Y-45480D01*
X-366259D01*
Y-44414D01*
X-364659Y-48679D02*
Y-46546D01*
X-367858D01*
Y-48679D01*
X-366259Y-46546D02*
Y-47613D01*
M02*
