G04*
G04 #@! TF.GenerationSoftware,Altium Limited,Altium Designer,24.5.2 (23)*
G04*
G04 Layer_Color=32768*
%FSLAX25Y25*%
%MOIN*%
G70*
G04*
G04 #@! TF.SameCoordinates,F16A58F2-69D1-4175-9934-78DD47C00A05*
G04*
G04*
G04 #@! TF.FilePolarity,Positive*
G04*
G01*
G75*
%ADD11C,0.00394*%
%ADD89C,0.00197*%
D11*
X-208898Y35984D02*
X-183307D01*
X-208898Y-41575D02*
Y35984D01*
Y-41575D02*
X-183307D01*
Y35984D01*
X-49083Y3000D02*
X-46917D01*
X-48000Y1917D02*
Y4083D01*
X-49083Y8000D02*
X-46917D01*
X-48000Y6917D02*
Y9083D01*
X-332500Y-55583D02*
Y-53417D01*
X-333583Y-54500D02*
X-331417D01*
X-348177Y-47610D02*
X-332823D01*
Y-61390D02*
Y-47610D01*
X-348177Y-61390D02*
X-332823D01*
X-348177D02*
Y-47610D01*
X-175500Y-6583D02*
Y-4417D01*
X-176583Y-5500D02*
X-174417D01*
X-157000Y-32583D02*
Y-30417D01*
X-158083Y-31500D02*
X-155917D01*
X-157083Y-8000D02*
X-154917D01*
X-156000Y-9083D02*
Y-6917D01*
X-165000Y-32583D02*
Y-30417D01*
X-166083Y-31500D02*
X-163917D01*
X-161583Y-8000D02*
X-159417D01*
X-160500Y-9083D02*
Y-6917D01*
X-175500Y-10583D02*
Y-8417D01*
X-176583Y-9500D02*
X-174417D01*
X-167000Y-10583D02*
Y-8417D01*
X-168083Y-9500D02*
X-165917D01*
X-306827Y-61654D02*
Y-43347D01*
Y-61654D02*
X-285173D01*
Y-43347D01*
X-306827D02*
X-285173D01*
X-306150Y-29126D02*
X-299850D01*
X-306150Y-43102D02*
Y-29126D01*
Y-43102D02*
X-299850D01*
Y-29126D01*
X-139000Y19417D02*
Y21583D01*
X-140083Y20500D02*
X-137917D01*
X-143083Y31500D02*
X-140917D01*
X-142000Y30417D02*
Y32583D01*
X-138583Y31232D02*
X-136417D01*
X-137500Y30150D02*
Y32315D01*
X-287083Y-52500D02*
X-284917D01*
X-286000Y-53583D02*
Y-51417D01*
X-179000Y8917D02*
Y11083D01*
X-180083Y10000D02*
X-177917D01*
X-179000Y12917D02*
Y15083D01*
X-180083Y14000D02*
X-177917D01*
X73917Y-22732D02*
X76083D01*
X75000Y-23815D02*
Y-21650D01*
X-294966Y-75086D02*
Y-72921D01*
X-296049Y-74003D02*
X-293884D01*
X-298083Y-37500D02*
X-295917D01*
X-297000Y-38583D02*
Y-36417D01*
X73417Y22500D02*
X75583D01*
X74500Y21417D02*
Y23583D01*
X-152083Y13500D02*
X-149917D01*
X-151000Y12417D02*
Y14583D01*
X-176083Y-39232D02*
X-173917D01*
X-175000Y-40315D02*
Y-38150D01*
X-171583Y-39500D02*
X-169417D01*
X-170500Y-40583D02*
Y-38417D01*
X-159000Y-55583D02*
Y-53417D01*
X-160083Y-54500D02*
X-157917D01*
X-159000Y-59583D02*
Y-57417D01*
X-160083Y-58500D02*
X-157917D01*
X-148500Y19917D02*
Y22083D01*
X-149583Y21000D02*
X-147417D01*
X-139000Y23917D02*
Y26083D01*
X-140083Y25000D02*
X-137917D01*
X-46583Y-29000D02*
X-44417D01*
X-45500Y-30083D02*
Y-27917D01*
X-67083Y-48000D02*
X-64917D01*
X-66000Y-49083D02*
Y-46917D01*
X-117083Y-48000D02*
X-114917D01*
X-116000Y-49083D02*
Y-46917D01*
X-126083Y-48000D02*
X-123917D01*
X-125000Y-49083D02*
Y-46917D01*
X-121583Y-48000D02*
X-119417D01*
X-120500Y-49083D02*
Y-46917D01*
X-293583Y-37500D02*
X-291417D01*
X-292500Y-38583D02*
Y-36417D01*
X-177500Y16917D02*
Y19083D01*
X-178583Y18000D02*
X-176417D01*
X-182500Y-17583D02*
Y-15417D01*
X-183583Y-16500D02*
X-181417D01*
X-182500Y-13583D02*
Y-11417D01*
X-183583Y-12500D02*
X-181417D01*
X-288583Y-37500D02*
X-286417D01*
X-287500Y-38583D02*
Y-36417D01*
X-172500Y-15583D02*
Y-13417D01*
X-173583Y-14500D02*
X-171417D01*
X-45264Y-38646D02*
Y-19354D01*
Y-38646D02*
X-15736D01*
Y-19354D01*
X-45264D02*
X-15736D01*
X56323Y-29390D02*
Y-15610D01*
Y-29390D02*
X71677D01*
Y-15610D01*
X56323D02*
X71677D01*
X-335043Y19110D02*
X-327957D01*
X-335043Y8087D02*
Y19110D01*
Y8087D02*
X-327957D01*
Y19110D01*
X-323500Y-1583D02*
Y583D01*
X-324583Y-500D02*
X-322417D01*
X-323500Y-6583D02*
Y-4417D01*
X-324583Y-5500D02*
X-322417D01*
X-322000Y-16083D02*
Y-13917D01*
X-323083Y-15000D02*
X-320917D01*
X-322000Y6917D02*
Y9083D01*
X-323083Y8000D02*
X-320917D01*
X-139000Y9417D02*
Y11583D01*
X-140083Y10500D02*
X-137917D01*
X-139000Y14417D02*
Y16583D01*
X-140083Y15500D02*
X-137917D01*
X57823Y15610D02*
Y29390D01*
Y15610D02*
X73177D01*
Y29390D01*
X57823D02*
X73177D01*
X-335043Y8012D02*
X-327957D01*
X-335043Y-3012D02*
Y8012D01*
Y-3012D02*
X-327957D01*
Y8012D01*
X-335043Y-14012D02*
X-327957D01*
Y-2988D01*
X-335043D02*
X-327957D01*
X-335043Y-14012D02*
Y-2988D01*
X-146500Y11917D02*
Y14083D01*
X-147583Y13000D02*
X-145417D01*
X-170000Y2417D02*
Y4583D01*
X-171083Y3500D02*
X-168917D01*
X-151000Y4417D02*
Y6583D01*
X-152083Y5500D02*
X-149917D01*
X-169083Y-2500D02*
X-166917D01*
X-168000Y-3583D02*
Y-1417D01*
X-134945Y-43917D02*
Y66319D01*
Y-43917D02*
X-52268D01*
Y66319D01*
X-134945D02*
X-52268D01*
D89*
X-43866Y835D02*
Y5165D01*
X-52134Y835D02*
Y5165D01*
Y835D02*
X-43866D01*
X-52134Y5165D02*
X-43866D01*
Y5835D02*
Y10165D01*
X-52134Y5835D02*
Y10165D01*
Y5835D02*
X-43866D01*
X-52134Y10165D02*
X-43866D01*
X-334469Y-50760D02*
X-330532D01*
X-334469Y-58240D02*
X-330532D01*
Y-50760D01*
X-334469Y-58240D02*
Y-50760D01*
X-179240Y-7468D02*
X-171760D01*
X-179240Y-3531D02*
X-171760D01*
Y-7468D02*
Y-3531D01*
X-179240Y-7468D02*
Y-3531D01*
X-160740Y-29531D02*
X-153260D01*
X-160740Y-33468D02*
X-153260D01*
X-160740D02*
Y-29531D01*
X-153260Y-33468D02*
Y-29531D01*
X-157968Y-11740D02*
Y-4260D01*
X-154032Y-11740D02*
Y-4260D01*
X-157968Y-11740D02*
X-154032D01*
X-157968Y-4260D02*
X-154032D01*
X-168740Y-33468D02*
X-161260D01*
X-168740Y-29531D02*
X-161260D01*
Y-33468D02*
Y-29531D01*
X-168740Y-33468D02*
Y-29531D01*
X-162469Y-11740D02*
Y-4260D01*
X-158531Y-11740D02*
Y-4260D01*
X-162469Y-11740D02*
X-158531D01*
X-162469Y-4260D02*
X-158531D01*
X-179240Y-7531D02*
X-171760D01*
X-179240Y-11468D02*
X-171760D01*
X-179240D02*
Y-7531D01*
X-171760Y-11468D02*
Y-7531D01*
X-171134Y-11665D02*
X-162866D01*
X-171134Y-7335D02*
X-162866D01*
Y-11665D02*
Y-7335D01*
X-171134Y-11665D02*
Y-7335D01*
X-168087Y-12232D02*
X-153913D01*
X-168087Y-28768D02*
Y-12232D01*
Y-28768D02*
X-153913D01*
Y-12232D01*
X-303144Y-90649D02*
Y-76712D01*
Y-90649D02*
X-287986D01*
Y-76712D01*
X-303144D02*
X-287986D01*
X-142740Y18531D02*
X-135260D01*
X-142740Y22468D02*
X-135260D01*
Y18531D02*
Y22468D01*
X-142740Y18531D02*
Y22468D01*
X-143968Y27760D02*
Y35240D01*
X-140032Y27760D02*
Y35240D01*
X-143968Y27760D02*
X-140032D01*
X-143968Y35240D02*
X-140032D01*
X-139469Y27492D02*
Y34972D01*
X-135531Y27492D02*
Y34972D01*
X-139469Y27492D02*
X-135531D01*
X-139469Y34972D02*
X-135531D01*
X-287968Y-56240D02*
Y-48760D01*
X-284032Y-56240D02*
Y-48760D01*
X-287968Y-56240D02*
X-284032D01*
X-287968Y-48760D02*
X-284032D01*
X-182740Y8032D02*
X-175260D01*
X-182740Y11969D02*
X-175260D01*
Y8032D02*
Y11969D01*
X-182740Y8032D02*
Y11969D01*
X-182740Y15969D02*
X-175260D01*
X-182740Y12032D02*
X-175260D01*
X-182740D02*
Y15969D01*
X-175260Y12032D02*
Y15969D01*
X73032Y-26472D02*
Y-18992D01*
X76968Y-26472D02*
Y-18992D01*
X73032Y-26472D02*
X76968D01*
X73032Y-18992D02*
X76968D01*
X-298707Y-72035D02*
X-291226D01*
X-298707Y-75972D02*
X-291226D01*
X-298707D02*
Y-72035D01*
X-291226Y-75972D02*
Y-72035D01*
X-295031Y-41240D02*
Y-33760D01*
X-298969Y-41240D02*
Y-33760D01*
X-295031D01*
X-298969Y-41240D02*
X-295031D01*
X72531Y18760D02*
Y26240D01*
X76468Y18760D02*
Y26240D01*
X72531Y18760D02*
X76468D01*
X72531Y26240D02*
X76468D01*
X-152969Y9760D02*
Y17240D01*
X-149031Y9760D02*
Y17240D01*
X-152969Y9760D02*
X-149031D01*
X-152969Y17240D02*
X-149031D01*
X-173031Y-42972D02*
Y-35492D01*
X-176969Y-42972D02*
Y-35492D01*
X-173031D01*
X-176969Y-42972D02*
X-173031D01*
X-168532Y-43240D02*
Y-35760D01*
X-172468Y-43240D02*
Y-35760D01*
X-168532D01*
X-172468Y-43240D02*
X-168532D01*
X-162740Y-52531D02*
X-155260D01*
X-162740Y-56468D02*
X-155260D01*
X-162740D02*
Y-52531D01*
X-155260Y-56468D02*
Y-52531D01*
X-162740Y-56532D02*
X-155260D01*
X-162740Y-60469D02*
X-155260D01*
X-162740D02*
Y-56532D01*
X-155260Y-60469D02*
Y-56532D01*
X-152240Y19031D02*
X-144760D01*
X-152240Y22968D02*
X-144760D01*
Y19031D02*
Y22968D01*
X-152240Y19031D02*
Y22968D01*
X-143134Y27165D02*
X-134866D01*
X-143134Y22835D02*
X-134866D01*
X-143134D02*
Y27165D01*
X-134866Y22835D02*
Y27165D01*
X-43335Y-33134D02*
Y-24866D01*
X-47665Y-33134D02*
Y-24866D01*
X-43335D01*
X-47665Y-33134D02*
X-43335D01*
X-63835Y-52134D02*
Y-43866D01*
X-68165Y-52134D02*
Y-43866D01*
X-63835D01*
X-68165Y-52134D02*
X-63835D01*
X-113835D02*
Y-43866D01*
X-118165Y-52134D02*
Y-43866D01*
X-113835D01*
X-118165Y-52134D02*
X-113835D01*
X-127165D02*
Y-43866D01*
X-122835Y-52134D02*
Y-43866D01*
X-127165Y-52134D02*
X-122835D01*
X-127165Y-43866D02*
X-122835D01*
X-122665Y-52134D02*
Y-43866D01*
X-118335Y-52134D02*
Y-43866D01*
X-122665Y-52134D02*
X-118335D01*
X-122665Y-43866D02*
X-118335D01*
X-290335Y-41634D02*
Y-33366D01*
X-294665Y-41634D02*
Y-33366D01*
X-290335D01*
X-294665Y-41634D02*
X-290335D01*
X-181634Y20165D02*
X-173366D01*
X-181634Y15835D02*
X-173366D01*
X-181634D02*
Y20165D01*
X-173366Y15835D02*
Y20165D01*
X-186634Y-18665D02*
X-178366D01*
X-186634Y-14335D02*
X-178366D01*
Y-18665D02*
Y-14335D01*
X-186634Y-18665D02*
Y-14335D01*
Y-14665D02*
X-178366D01*
X-186634Y-10335D02*
X-178366D01*
Y-14665D02*
Y-10335D01*
X-186634Y-14665D02*
Y-10335D01*
X-285335Y-41634D02*
Y-33366D01*
X-289665Y-41634D02*
Y-33366D01*
X-285335D01*
X-289665Y-41634D02*
X-285335D01*
X-176634Y-16665D02*
X-168366D01*
X-176634Y-12335D02*
X-168366D01*
Y-16665D02*
Y-12335D01*
X-176634Y-16665D02*
Y-12335D01*
X-168087Y-35232D02*
X-153913D01*
X-168087Y-51768D02*
Y-35232D01*
Y-51768D02*
X-153913D01*
Y-35232D01*
X-46878Y15114D02*
Y36886D01*
Y15114D02*
X-14122D01*
Y36886D01*
X-46878D02*
X-14122D01*
X-327634Y-2665D02*
X-319366D01*
X-327634Y1665D02*
X-319366D01*
Y-2665D02*
Y1665D01*
X-327634Y-2665D02*
Y1665D01*
Y-7665D02*
X-319366D01*
X-327634Y-3335D02*
X-319366D01*
Y-7665D02*
Y-3335D01*
X-327634Y-7665D02*
Y-3335D01*
X-326134Y-12835D02*
X-317866D01*
X-326134Y-17165D02*
X-317866D01*
X-326134D02*
Y-12835D01*
X-317866Y-17165D02*
Y-12835D01*
X-326134Y10165D02*
X-317866D01*
X-326134Y5835D02*
X-317866D01*
X-326134D02*
Y10165D01*
X-317866Y5835D02*
Y10165D01*
X-337150Y-22559D02*
Y17559D01*
X-370378Y-22559D02*
X-337150D01*
X-370378D02*
Y17559D01*
X-337150D01*
X-143134Y8335D02*
X-134866D01*
X-143134Y12665D02*
X-134866D01*
Y8335D02*
Y12665D01*
X-143134Y8335D02*
Y12665D01*
Y13335D02*
X-134866D01*
X-143134Y17665D02*
X-134866D01*
Y13335D02*
Y17665D01*
X-143134Y13335D02*
Y17665D01*
X-148665Y17134D02*
X-144335D01*
X-148665Y8866D02*
X-144335D01*
Y17134D01*
X-148665Y8866D02*
Y17134D01*
X-172165Y-634D02*
X-167835D01*
X-172165Y7634D02*
X-167835D01*
X-172165Y-634D02*
Y7634D01*
X-167835Y-634D02*
Y7634D01*
X-153165Y9634D02*
X-148835D01*
X-153165Y1366D02*
X-148835D01*
Y9634D01*
X-153165Y1366D02*
Y9634D01*
X-164260Y-4468D02*
Y-532D01*
X-171740Y-4468D02*
Y-532D01*
Y-4468D02*
X-164260D01*
X-171740Y-532D02*
X-164260D01*
X-172252Y16716D02*
Y31284D01*
Y16716D02*
X-153748D01*
Y31284D01*
X-172252D02*
X-153748D01*
X-167587Y16465D02*
X-153413D01*
X-167587Y-465D02*
Y16465D01*
Y-465D02*
X-153413D01*
Y16465D01*
M02*
