G04*
G04 #@! TF.GenerationSoftware,Altium Limited,Altium Designer,24.5.2 (23)*
G04*
G04 Layer_Physical_Order=3*
G04 Layer_Color=16440176*
%FSLAX25Y25*%
%MOIN*%
G70*
G04*
G04 #@! TF.SameCoordinates,F16A58F2-69D1-4175-9934-78DD47C00A05*
G04*
G04*
G04 #@! TF.FilePolarity,Positive*
G04*
G01*
G75*
%ADD68C,0.00800*%
%ADD70C,0.02500*%
%ADD71C,0.02000*%
%ADD74C,0.05000*%
%ADD75C,0.00583*%
%ADD78C,0.06398*%
%ADD79C,0.05512*%
%ADD80R,0.05512X0.05512*%
%ADD81O,0.08465X0.04134*%
%ADD82O,0.07284X0.04134*%
%ADD84C,0.01968*%
%ADD85C,0.04724*%
%ADD87C,0.10000*%
G36*
X71819Y27574D02*
X71669Y27211D01*
X57526D01*
X57377Y27273D01*
X56500Y27388D01*
X55623Y27273D01*
X55474Y27211D01*
X-9389D01*
Y28789D01*
X70604D01*
X71819Y27574D01*
D02*
G37*
G36*
X56209Y23297D02*
X57189D01*
X57134Y23238D01*
X57085Y23175D01*
X57042Y23107D01*
X57004Y23035D01*
X56972Y22959D01*
X56946Y22878D01*
X56926Y22793D01*
X56912Y22703D01*
X56903Y22609D01*
X56900Y22510D01*
X56100D01*
X56097Y22609D01*
X56088Y22703D01*
X56074Y22793D01*
X56054Y22878D01*
X56046Y22903D01*
X56022Y22891D01*
X55947Y22845D01*
X55874Y22792D01*
X55801Y22731D01*
X55729Y22664D01*
X55164Y23229D01*
X55231Y23301D01*
X55292Y23374D01*
X55345Y23447D01*
X55391Y23522D01*
X55430Y23598D01*
X55461Y23674D01*
X55486Y23752D01*
X55503Y23830D01*
X55513Y23910D01*
X55516Y23990D01*
X56209Y23297D01*
D02*
G37*
G36*
X-68238Y23634D02*
X-68175Y23585D01*
X-68107Y23542D01*
X-68035Y23504D01*
X-67959Y23472D01*
X-67878Y23446D01*
X-67792Y23426D01*
X-67703Y23412D01*
X-67609Y23403D01*
X-67510Y23400D01*
Y22600D01*
X-67609Y22597D01*
X-67703Y22588D01*
X-67792Y22574D01*
X-67878Y22554D01*
X-67959Y22528D01*
X-68035Y22496D01*
X-68107Y22458D01*
X-68175Y22415D01*
X-68238Y22366D01*
X-68297Y22311D01*
Y23689D01*
X-68238Y23634D01*
D02*
G37*
G36*
X-43232Y22200D02*
X-43241Y22276D01*
X-43265Y22344D01*
X-43306Y22404D01*
X-43363Y22456D01*
X-43437Y22500D01*
X-43526Y22536D01*
X-43631Y22564D01*
X-43753Y22584D01*
X-43890Y22596D01*
X-44044Y22600D01*
Y23400D01*
X-43892Y23403D01*
X-43756Y23414D01*
X-43636Y23431D01*
X-43532Y23455D01*
X-43444Y23486D01*
X-43372Y23524D01*
X-43316Y23569D01*
X-43276Y23620D01*
X-43252Y23679D01*
X-43244Y23744D01*
X-43232Y22200D01*
D02*
G37*
G36*
X45297Y19311D02*
X45238Y19366D01*
X45175Y19415D01*
X45107Y19458D01*
X45035Y19496D01*
X44959Y19528D01*
X44878Y19554D01*
X44793Y19574D01*
X44703Y19588D01*
X44609Y19597D01*
X44510Y19600D01*
Y20400D01*
X44609Y20403D01*
X44703Y20412D01*
X44793Y20426D01*
X44878Y20446D01*
X44959Y20472D01*
X45035Y20504D01*
X45107Y20542D01*
X45175Y20585D01*
X45238Y20634D01*
X45297Y20689D01*
Y19311D01*
D02*
G37*
G36*
X-10500Y18298D02*
X-11351Y17446D01*
D01*
X-19380Y9418D01*
X-52316D01*
X-52338Y9433D01*
X-52459Y9518D01*
X-52468Y9520D01*
X-52476Y9525D01*
X-52621Y9553D01*
X-52765Y9585D01*
X-52774Y9584D01*
X-52783Y9586D01*
X-52928Y9557D01*
X-53074Y9531D01*
X-53081Y9526D01*
X-53090Y9525D01*
X-53213Y9442D01*
X-53338Y9363D01*
X-53433Y9272D01*
X-53852D01*
X-54504Y9002D01*
X-55002Y8504D01*
X-55272Y7852D01*
Y7148D01*
X-55002Y6496D01*
X-54504Y5998D01*
X-53852Y5728D01*
X-53148D01*
X-52496Y5998D01*
X-51998Y6496D01*
X-51728Y7148D01*
Y7565D01*
X-51713Y7582D01*
X-19000D01*
X-18649Y7652D01*
X-18351Y7851D01*
X-12174Y14028D01*
X-10864Y15338D01*
X-10500Y15188D01*
Y798D01*
X-11880Y-582D01*
X-46405D01*
X-46426Y-549D01*
X-46436Y-542D01*
X-46442Y-532D01*
X-46563Y-452D01*
X-46681Y-368D01*
X-46693Y-365D01*
X-46703Y-358D01*
X-46845Y-330D01*
X-46987Y-298D01*
X-47060Y-295D01*
X-47102Y-292D01*
X-47136Y-286D01*
X-47162Y-280D01*
X-47181Y-274D01*
X-47195Y-268D01*
X-47205Y-263D01*
X-47211Y-259D01*
X-47217Y-254D01*
X-47249Y-224D01*
X-47305Y-190D01*
X-47496Y2D01*
X-48148Y272D01*
X-48852D01*
X-49504Y2D01*
X-50002Y-496D01*
X-50272Y-1148D01*
Y-1852D01*
X-50002Y-2504D01*
X-49504Y-3002D01*
X-48852Y-3272D01*
X-48148D01*
X-47496Y-3002D01*
X-47305Y-2810D01*
X-47249Y-2776D01*
X-47217Y-2746D01*
X-47211Y-2741D01*
X-47205Y-2737D01*
X-47195Y-2732D01*
X-47181Y-2726D01*
X-47162Y-2720D01*
X-47136Y-2714D01*
X-47102Y-2709D01*
X-47060Y-2705D01*
X-46987Y-2702D01*
X-46845Y-2670D01*
X-46703Y-2642D01*
X-46693Y-2635D01*
X-46681Y-2632D01*
X-46563Y-2548D01*
X-46442Y-2468D01*
X-46436Y-2458D01*
X-46426Y-2451D01*
X-46405Y-2418D01*
X-11500D01*
X-11149Y-2348D01*
X-10894Y-2177D01*
X-10603Y-2252D01*
X-10500Y-2294D01*
Y-16971D01*
X-42987D01*
X-42998Y-16953D01*
X-43102Y-16878D01*
X-43201Y-16796D01*
X-43229Y-16787D01*
X-43252Y-16770D01*
X-43377Y-16740D01*
X-43499Y-16702D01*
X-43529Y-16704D01*
X-43557Y-16698D01*
X-43921Y-16685D01*
X-44243Y-16649D01*
X-44551Y-16590D01*
X-44847Y-16509D01*
X-45132Y-16404D01*
X-45407Y-16276D01*
X-45674Y-16125D01*
X-45934Y-15948D01*
X-46186Y-15746D01*
X-46453Y-15498D01*
X-46575Y-15423D01*
X-46693Y-15344D01*
X-46707Y-15341D01*
X-46720Y-15334D01*
X-46860Y-15311D01*
X-47000Y-15283D01*
X-47014Y-15286D01*
X-47029Y-15283D01*
X-47049Y-15288D01*
X-56471Y-5866D01*
Y-161D01*
X-56463Y-157D01*
X-56403Y-77D01*
X-56333Y-7D01*
X-56310Y47D01*
X-56275Y94D01*
X-56251Y191D01*
X-56213Y283D01*
X-56213Y341D01*
X-56198Y398D01*
X-56181Y729D01*
X-56140Y962D01*
X-56080Y1140D01*
X-56010Y1271D01*
X-55929Y1369D01*
X-55831Y1450D01*
X-55700Y1520D01*
X-55522Y1580D01*
X-55289Y1621D01*
X-54958Y1638D01*
X-54826Y1672D01*
X-54693Y1698D01*
X-54675Y1710D01*
X-54654Y1715D01*
X-54545Y1797D01*
X-54432Y1872D01*
X-54420Y1890D01*
X-54403Y1903D01*
X-54399Y1911D01*
X-43416D01*
X-43004Y1498D01*
X-42352Y1228D01*
X-41648D01*
X-40996Y1498D01*
X-40498Y1996D01*
X-40228Y2648D01*
Y3352D01*
X-40498Y4004D01*
X-40996Y4502D01*
X-41648Y4772D01*
X-41733D01*
X-41855Y4853D01*
X-42440Y4969D01*
X-54399D01*
X-54403Y4977D01*
X-54420Y4990D01*
X-54432Y5008D01*
X-54545Y5083D01*
X-54654Y5165D01*
X-54675Y5170D01*
X-54693Y5182D01*
X-54826Y5208D01*
X-54958Y5242D01*
X-55289Y5259D01*
X-55522Y5300D01*
X-55700Y5360D01*
X-55831Y5430D01*
X-55929Y5511D01*
X-56010Y5609D01*
X-56080Y5740D01*
X-56140Y5918D01*
X-56181Y6151D01*
X-56198Y6482D01*
X-56213Y6539D01*
X-56213Y6598D01*
X-56251Y6689D01*
X-56275Y6786D01*
X-56310Y6833D01*
X-56333Y6887D01*
X-56403Y6957D01*
X-56463Y7037D01*
X-56471Y7041D01*
Y10367D01*
X-49419Y17419D01*
X-49087Y17915D01*
X-48971Y18500D01*
Y19563D01*
X-48728Y20148D01*
Y20852D01*
X-48998Y21504D01*
X-49183Y21689D01*
X-49020Y22082D01*
X-44648D01*
X-44626Y22047D01*
X-44618Y22041D01*
X-44612Y22032D01*
X-44490Y21951D01*
X-44370Y21867D01*
X-44360Y21864D01*
X-44351Y21858D01*
X-44208Y21830D01*
X-44065Y21797D01*
X-44043Y21797D01*
Y17457D01*
X-36957D01*
Y24543D01*
X-43232D01*
X-43250Y24547D01*
X-43267Y24543D01*
X-44043D01*
Y24203D01*
X-44062Y24203D01*
X-44206Y24171D01*
X-44351Y24142D01*
X-44359Y24137D01*
X-44368Y24135D01*
X-44489Y24050D01*
X-44612Y23968D01*
X-44617Y23960D01*
X-44624Y23955D01*
X-44648Y23918D01*
X-66905D01*
X-66926Y23951D01*
X-66936Y23958D01*
X-66943Y23968D01*
X-67063Y24048D01*
X-67181Y24132D01*
X-67193Y24135D01*
X-67203Y24142D01*
X-67345Y24170D01*
X-67487Y24203D01*
X-67560Y24205D01*
X-67602Y24208D01*
X-67636Y24214D01*
X-67662Y24220D01*
X-67681Y24226D01*
X-67695Y24232D01*
X-67704Y24237D01*
X-67711Y24241D01*
X-67717Y24246D01*
X-67749Y24276D01*
X-67805Y24310D01*
X-67996Y24502D01*
X-68648Y24772D01*
X-69352D01*
X-70004Y24502D01*
X-70502Y24004D01*
X-70772Y23352D01*
Y22648D01*
X-70502Y21996D01*
X-70004Y21498D01*
X-69352Y21228D01*
X-68648D01*
X-67996Y21498D01*
X-67805Y21690D01*
X-67749Y21724D01*
X-67717Y21754D01*
X-67711Y21759D01*
X-67704Y21763D01*
X-67695Y21768D01*
X-67681Y21774D01*
X-67662Y21780D01*
X-67636Y21786D01*
X-67602Y21791D01*
X-67560Y21795D01*
X-67487Y21798D01*
X-67345Y21830D01*
X-67203Y21858D01*
X-67193Y21865D01*
X-67181Y21868D01*
X-67063Y21952D01*
X-66943Y22032D01*
X-66936Y22042D01*
X-66926Y22049D01*
X-66905Y22082D01*
X-51980D01*
X-51817Y21689D01*
X-52002Y21504D01*
X-52272Y20852D01*
Y20148D01*
X-52029Y19563D01*
Y19133D01*
X-59081Y12081D01*
X-59413Y11585D01*
X-59529Y11000D01*
Y4093D01*
X-59668Y3885D01*
X-59727Y3742D01*
X-59787Y3598D01*
Y3597D01*
X-59788Y3596D01*
X-59787Y3440D01*
X-59788Y3284D01*
X-59787Y3283D01*
Y3283D01*
X-59727Y3138D01*
X-59668Y2995D01*
X-59529Y2787D01*
Y-6500D01*
X-59413Y-7085D01*
X-59081Y-7581D01*
X-49212Y-17451D01*
X-49216Y-17471D01*
X-49214Y-17486D01*
X-49217Y-17500D01*
X-49189Y-17640D01*
X-49167Y-17780D01*
X-49159Y-17793D01*
X-49156Y-17807D01*
X-49077Y-17926D01*
X-49002Y-18047D01*
X-48754Y-18314D01*
X-48551Y-18566D01*
X-48375Y-18826D01*
X-48224Y-19093D01*
X-48096Y-19368D01*
X-47991Y-19653D01*
X-47910Y-19949D01*
X-47851Y-20257D01*
X-47815Y-20579D01*
X-47802Y-20943D01*
X-47796Y-20971D01*
X-47798Y-21001D01*
X-47760Y-21123D01*
X-47730Y-21248D01*
X-47713Y-21272D01*
X-47704Y-21299D01*
X-47622Y-21398D01*
X-47547Y-21502D01*
X-47529Y-21513D01*
Y-22500D01*
X-47413Y-23085D01*
X-47272Y-23297D01*
Y-23352D01*
X-47002Y-24004D01*
X-46504Y-24502D01*
X-45852Y-24772D01*
X-45148D01*
X-44496Y-24502D01*
X-43998Y-24004D01*
X-43728Y-23352D01*
Y-22648D01*
X-43998Y-21996D01*
X-44243Y-21752D01*
X-44230Y-21726D01*
X-44221Y-21633D01*
X-44198Y-21542D01*
X-44181Y-21211D01*
X-44140Y-20978D01*
X-44080Y-20800D01*
X-44010Y-20669D01*
X-43929Y-20571D01*
X-43831Y-20490D01*
X-43700Y-20420D01*
X-43522Y-20360D01*
X-43289Y-20319D01*
X-42958Y-20302D01*
X-42867Y-20279D01*
X-42774Y-20270D01*
X-42717Y-20241D01*
X-42654Y-20224D01*
X-42579Y-20169D01*
X-42497Y-20125D01*
X-42455Y-20076D01*
X-42403Y-20037D01*
X-42399Y-20029D01*
X-10500D01*
Y-59961D01*
X-245500D01*
X-246280Y-60116D01*
X-246942Y-60558D01*
X-275345Y-88961D01*
X-306051D01*
X-306301Y-88657D01*
X-306289Y-88600D01*
Y-86000D01*
Y-82000D01*
Y-78000D01*
Y-74000D01*
X-306289Y-63115D01*
X-307500Y-62000D01*
Y-53298D01*
X-306749Y-52546D01*
X-295120Y-40918D01*
X-254000D01*
X-253649Y-40848D01*
X-253351Y-40649D01*
X-247832Y-35130D01*
X-247794Y-35139D01*
X-247782Y-35137D01*
X-247771Y-35139D01*
X-247628Y-35111D01*
X-247485Y-35087D01*
X-247475Y-35080D01*
X-247463Y-35078D01*
X-247343Y-34997D01*
X-247220Y-34920D01*
X-247166Y-34870D01*
X-247134Y-34843D01*
X-247106Y-34823D01*
X-247083Y-34809D01*
X-247065Y-34800D01*
X-247052Y-34794D01*
X-247041Y-34791D01*
X-247033Y-34789D01*
X-247026Y-34788D01*
X-246982Y-34786D01*
X-246919Y-34772D01*
X-246648D01*
X-245996Y-34502D01*
X-245498Y-34004D01*
X-245228Y-33352D01*
Y-32648D01*
X-245498Y-31996D01*
X-245996Y-31498D01*
X-246648Y-31228D01*
X-247352D01*
X-248004Y-31498D01*
X-248502Y-31996D01*
X-248772Y-32648D01*
Y-32919D01*
X-248786Y-32982D01*
X-248788Y-33026D01*
X-248789Y-33033D01*
X-248791Y-33041D01*
X-248794Y-33051D01*
X-248800Y-33065D01*
X-248809Y-33083D01*
X-248823Y-33106D01*
X-248843Y-33134D01*
X-248870Y-33166D01*
X-248920Y-33220D01*
X-248997Y-33343D01*
X-249078Y-33463D01*
X-249080Y-33475D01*
X-249087Y-33485D01*
X-249111Y-33628D01*
X-249139Y-33771D01*
X-249137Y-33782D01*
X-249139Y-33794D01*
X-249130Y-33832D01*
X-254380Y-39082D01*
X-295500D01*
X-295851Y-39152D01*
X-296149Y-39351D01*
X-305926Y-49128D01*
X-307136Y-50339D01*
X-307500Y-50188D01*
Y-34298D01*
X-307120Y-33918D01*
X-267038D01*
X-267002Y-34004D01*
X-266504Y-34502D01*
X-265852Y-34772D01*
X-265148D01*
X-264496Y-34502D01*
X-263998Y-34004D01*
X-263728Y-33352D01*
Y-32648D01*
X-263998Y-31996D01*
X-264496Y-31498D01*
X-265148Y-31228D01*
X-265852D01*
X-266504Y-31498D01*
X-267002Y-31996D01*
X-267038Y-32082D01*
X-297128D01*
X-297347Y-31755D01*
X-297228Y-31468D01*
Y-30763D01*
X-297264Y-30677D01*
X-296985Y-30398D01*
X-296981D01*
X-296629Y-30328D01*
X-296332Y-30129D01*
X-295120Y-28918D01*
X-217519D01*
X-217489Y-28963D01*
X-217486Y-28965D01*
X-217484Y-28968D01*
X-217356Y-29053D01*
X-217230Y-29139D01*
X-217227Y-29140D01*
X-217224Y-29142D01*
X-217073Y-29172D01*
X-216923Y-29203D01*
X-216571Y-29206D01*
X-215973Y-29229D01*
X-215517Y-29273D01*
X-215364Y-29299D01*
X-215250Y-29325D01*
X-215199Y-29342D01*
X-215190Y-29349D01*
X-215126Y-29379D01*
X-215004Y-29502D01*
X-214352Y-29772D01*
X-213648D01*
X-213063Y-29529D01*
X-174937D01*
X-174352Y-29772D01*
X-173648D01*
X-172996Y-29502D01*
X-172498Y-29004D01*
X-172228Y-28352D01*
Y-27648D01*
X-172498Y-26996D01*
X-172996Y-26498D01*
X-173648Y-26228D01*
X-174352D01*
X-174937Y-26471D01*
X-213063D01*
X-213648Y-26228D01*
X-214352D01*
X-215004Y-26498D01*
X-215126Y-26621D01*
X-215190Y-26651D01*
X-215199Y-26658D01*
X-215250Y-26675D01*
X-215364Y-26701D01*
X-215505Y-26724D01*
X-216582Y-26794D01*
X-216923Y-26797D01*
X-217073Y-26828D01*
X-217224Y-26858D01*
X-217227Y-26860D01*
X-217230Y-26861D01*
X-217357Y-26947D01*
X-217484Y-27032D01*
X-217486Y-27035D01*
X-217489Y-27037D01*
X-217519Y-27082D01*
X-295500D01*
X-295851Y-27152D01*
X-296149Y-27351D01*
X-297361Y-28563D01*
X-297365D01*
X-297716Y-28633D01*
X-298014Y-28832D01*
X-298562Y-29380D01*
X-298648Y-29344D01*
X-299352D01*
X-300004Y-29614D01*
X-300502Y-30112D01*
X-300772Y-30763D01*
Y-31468D01*
X-300653Y-31755D01*
X-300872Y-32082D01*
X-307500D01*
Y-24689D01*
X-307500D01*
X-316559D01*
X-317022Y-24781D01*
X-317415Y-25044D01*
X-317446Y-25090D01*
X-317838Y-25129D01*
X-318075Y-24892D01*
X-319303Y-24000D01*
X-319429Y-23909D01*
X-320919Y-23149D01*
X-322511Y-22632D01*
X-324163Y-22370D01*
X-325837D01*
X-327489Y-22632D01*
X-329081Y-23149D01*
X-330571Y-23909D01*
X-330697Y-24000D01*
X-331925Y-24892D01*
X-332162Y-25129D01*
X-332554Y-25090D01*
X-332585Y-25044D01*
X-332978Y-24781D01*
X-333441Y-24689D01*
X-367100D01*
X-367150Y-24699D01*
X-367461Y-24360D01*
Y-24000D01*
Y-12250D01*
Y0D01*
Y11405D01*
X-363308Y15558D01*
X-363308Y15558D01*
X-343405Y35461D01*
X-10500D01*
Y18298D01*
D02*
G37*
G36*
X63487Y17910D02*
X63497Y17830D01*
X63514Y17752D01*
X63539Y17674D01*
X63570Y17598D01*
X63609Y17522D01*
X63655Y17447D01*
X63708Y17374D01*
X63769Y17301D01*
X63836Y17229D01*
X63271Y16664D01*
X63199Y16731D01*
X63126Y16792D01*
X63053Y16845D01*
X62978Y16891D01*
X62902Y16930D01*
X62826Y16961D01*
X62748Y16986D01*
X62670Y17003D01*
X62590Y17013D01*
X62510Y17016D01*
X63484Y17990D01*
X63487Y17910D01*
D02*
G37*
G36*
X-52217Y8217D02*
X-52285Y8148D01*
X-52442Y7969D01*
X-52479Y7920D01*
X-52508Y7875D01*
X-52529Y7835D01*
X-52543Y7800D01*
X-52548Y7769D01*
X-52547Y7744D01*
X-53256Y8454D01*
X-53231Y8451D01*
X-53200Y8457D01*
X-53165Y8471D01*
X-53125Y8492D01*
X-53080Y8521D01*
X-53031Y8558D01*
X-52917Y8655D01*
X-52783Y8783D01*
X-52217Y8217D01*
D02*
G37*
G36*
X-56980Y6060D02*
X-56920Y5720D01*
X-56820Y5420D01*
X-56680Y5160D01*
X-56500Y4940D01*
X-56280Y4760D01*
X-56020Y4620D01*
X-55720Y4520D01*
X-55380Y4460D01*
X-55000Y4440D01*
Y2440D01*
X-55380Y2420D01*
X-55720Y2360D01*
X-56020Y2260D01*
X-56280Y2120D01*
X-56500Y1940D01*
X-56680Y1720D01*
X-56820Y1460D01*
X-56920Y1160D01*
X-56980Y820D01*
X-57000Y440D01*
X-59000Y3440D01*
X-57000Y6440D01*
X-56980Y6060D01*
D02*
G37*
G36*
X-47738Y-866D02*
X-47675Y-915D01*
X-47607Y-958D01*
X-47535Y-996D01*
X-47459Y-1028D01*
X-47378Y-1054D01*
X-47293Y-1074D01*
X-47203Y-1088D01*
X-47109Y-1097D01*
X-47010Y-1100D01*
Y-1900D01*
X-47109Y-1903D01*
X-47203Y-1912D01*
X-47293Y-1926D01*
X-47378Y-1946D01*
X-47459Y-1972D01*
X-47535Y-2004D01*
X-47607Y-2042D01*
X-47675Y-2085D01*
X-47738Y-2134D01*
X-47797Y-2189D01*
Y-811D01*
X-47738Y-866D01*
D02*
G37*
G36*
X60301Y-16231D02*
X60374Y-16292D01*
X60447Y-16345D01*
X60522Y-16391D01*
X60598Y-16430D01*
X60674Y-16461D01*
X60752Y-16486D01*
X60830Y-16503D01*
X60910Y-16513D01*
X60990Y-16516D01*
X60016Y-17490D01*
X60013Y-17410D01*
X60003Y-17330D01*
X59986Y-17252D01*
X59961Y-17174D01*
X59930Y-17098D01*
X59891Y-17022D01*
X59845Y-16947D01*
X59792Y-16874D01*
X59731Y-16801D01*
X59664Y-16729D01*
X60229Y-16164D01*
X60301Y-16231D01*
D02*
G37*
G36*
X-46711Y-16354D02*
X-46411Y-16595D01*
X-46099Y-16807D01*
X-45775Y-16991D01*
X-45439Y-17146D01*
X-45092Y-17274D01*
X-44733Y-17373D01*
X-44362Y-17443D01*
X-43980Y-17486D01*
X-43586Y-17500D01*
X-43000Y-19500D01*
X-43380Y-19520D01*
X-43720Y-19580D01*
X-44020Y-19680D01*
X-44280Y-19820D01*
X-44500Y-20000D01*
X-44680Y-20220D01*
X-44820Y-20480D01*
X-44920Y-20780D01*
X-44980Y-21120D01*
X-45000Y-21500D01*
X-47000Y-20914D01*
X-47014Y-20520D01*
X-47057Y-20138D01*
X-47127Y-19767D01*
X-47226Y-19408D01*
X-47354Y-19061D01*
X-47509Y-18725D01*
X-47693Y-18401D01*
X-47905Y-18089D01*
X-48145Y-17789D01*
X-48414Y-17500D01*
X-47000Y-16086D01*
X-46711Y-16354D01*
D02*
G37*
G36*
X64336Y-25729D02*
X64269Y-25801D01*
X64208Y-25874D01*
X64155Y-25947D01*
X64109Y-26022D01*
X64070Y-26098D01*
X64039Y-26174D01*
X64014Y-26252D01*
X63997Y-26330D01*
X63987Y-26410D01*
X63984Y-26490D01*
X63010Y-25516D01*
X63090Y-25513D01*
X63170Y-25503D01*
X63248Y-25486D01*
X63326Y-25461D01*
X63402Y-25430D01*
X63478Y-25391D01*
X63553Y-25345D01*
X63626Y-25292D01*
X63699Y-25231D01*
X63771Y-25164D01*
X64336Y-25729D01*
D02*
G37*
G36*
X-214707Y-27314D02*
X-214703Y-27311D01*
Y-28689D01*
X-214707Y-28686D01*
Y-28708D01*
X-214784Y-28649D01*
X-214894Y-28597D01*
X-215035Y-28551D01*
X-215208Y-28511D01*
X-215413Y-28477D01*
X-215919Y-28428D01*
X-216552Y-28403D01*
X-216916Y-28400D01*
Y-27600D01*
X-216552Y-27597D01*
X-215413Y-27523D01*
X-215208Y-27489D01*
X-215035Y-27449D01*
X-214894Y-27403D01*
X-214784Y-27351D01*
X-214707Y-27292D01*
Y-27314D01*
D02*
G37*
G36*
X-247010Y-33984D02*
X-247090Y-33987D01*
X-247170Y-33997D01*
X-247248Y-34014D01*
X-247326Y-34039D01*
X-247402Y-34070D01*
X-247478Y-34109D01*
X-247553Y-34155D01*
X-247626Y-34208D01*
X-247699Y-34269D01*
X-247771Y-34336D01*
X-248336Y-33771D01*
X-248269Y-33699D01*
X-248208Y-33626D01*
X-248155Y-33553D01*
X-248109Y-33478D01*
X-248070Y-33402D01*
X-248039Y-33326D01*
X-248014Y-33248D01*
X-247997Y-33170D01*
X-247987Y-33090D01*
X-247984Y-33010D01*
X-247010Y-33984D01*
D02*
G37*
G36*
X-342513Y-49090D02*
X-342503Y-49170D01*
X-342486Y-49248D01*
X-342461Y-49326D01*
X-342430Y-49402D01*
X-342391Y-49478D01*
X-342345Y-49553D01*
X-342292Y-49626D01*
X-342231Y-49699D01*
X-342164Y-49771D01*
X-342729Y-50336D01*
X-342801Y-50269D01*
X-342874Y-50208D01*
X-342947Y-50155D01*
X-343022Y-50109D01*
X-343098Y-50070D01*
X-343174Y-50039D01*
X-343252Y-50014D01*
X-343330Y-49997D01*
X-343410Y-49987D01*
X-343490Y-49984D01*
X-342516Y-49010D01*
X-342513Y-49090D01*
D02*
G37*
G36*
X-345277Y-55257D02*
X-345267Y-55337D01*
X-345250Y-55415D01*
X-345225Y-55493D01*
X-345194Y-55569D01*
X-345155Y-55645D01*
X-345109Y-55720D01*
X-345056Y-55793D01*
X-344995Y-55866D01*
X-344928Y-55938D01*
X-345493Y-56503D01*
X-345565Y-56436D01*
X-345638Y-56375D01*
X-345711Y-56322D01*
X-345786Y-56276D01*
X-345861Y-56237D01*
X-345938Y-56206D01*
X-346016Y-56181D01*
X-346094Y-56164D01*
X-346174Y-56154D01*
X-346254Y-56151D01*
X-345280Y-55177D01*
X-345277Y-55257D01*
D02*
G37*
%LPC*%
G36*
X-119148Y34272D02*
X-119852D01*
X-120504Y34002D01*
X-121002Y33504D01*
X-121272Y32852D01*
Y32148D01*
X-121002Y31496D01*
X-120504Y30998D01*
X-119852Y30728D01*
X-119148D01*
X-118496Y30998D01*
X-117998Y31496D01*
X-117728Y32148D01*
Y32852D01*
X-117998Y33504D01*
X-118496Y34002D01*
X-119148Y34272D01*
D02*
G37*
G36*
X-20033Y34543D02*
X-20967D01*
X-21868Y34302D01*
X-22676Y33835D01*
X-23335Y33176D01*
X-23802Y32368D01*
X-24043Y31466D01*
Y30533D01*
X-23802Y29632D01*
X-23335Y28824D01*
X-22676Y28165D01*
X-21868Y27698D01*
X-20967Y27457D01*
X-20033D01*
X-19132Y27698D01*
X-18324Y28165D01*
X-17665Y28824D01*
X-17198Y29632D01*
X-16957Y30533D01*
Y31466D01*
X-17198Y32368D01*
X-17665Y33176D01*
X-18324Y33835D01*
X-19132Y34302D01*
X-20033Y34543D01*
D02*
G37*
G36*
X-40034D02*
X-40966D01*
X-41868Y34302D01*
X-42676Y33835D01*
X-43335Y33176D01*
X-43802Y32368D01*
X-44043Y31466D01*
Y30533D01*
X-43802Y29632D01*
X-43335Y28824D01*
X-42676Y28165D01*
X-41868Y27698D01*
X-40966Y27457D01*
X-40034D01*
X-39132Y27698D01*
X-38324Y28165D01*
X-37665Y28824D01*
X-37198Y29632D01*
X-36957Y30533D01*
Y31466D01*
X-37198Y32368D01*
X-37665Y33176D01*
X-38324Y33835D01*
X-39132Y34302D01*
X-40034Y34543D01*
D02*
G37*
G36*
X-66648Y29772D02*
X-67352D01*
X-68004Y29502D01*
X-68502Y29004D01*
X-68772Y28352D01*
Y27648D01*
X-68502Y26996D01*
X-68004Y26498D01*
X-67352Y26228D01*
X-66648D01*
X-65996Y26498D01*
X-65498Y26996D01*
X-65228Y27648D01*
Y28352D01*
X-65498Y29004D01*
X-65996Y29502D01*
X-66648Y29772D01*
D02*
G37*
G36*
X-20033Y24543D02*
X-20967D01*
X-21868Y24302D01*
X-22676Y23835D01*
X-23335Y23176D01*
X-23802Y22368D01*
X-24043Y21466D01*
Y20534D01*
X-23802Y19632D01*
X-23335Y18824D01*
X-22676Y18165D01*
X-21868Y17698D01*
X-20967Y17457D01*
X-20033D01*
X-19132Y17698D01*
X-18324Y18165D01*
X-17665Y18824D01*
X-17198Y19632D01*
X-16957Y20534D01*
Y21466D01*
X-17198Y22368D01*
X-17665Y23176D01*
X-18324Y23835D01*
X-19132Y24302D01*
X-20033Y24543D01*
D02*
G37*
G36*
X-30033D02*
X-30966D01*
X-31868Y24302D01*
X-32676Y23835D01*
X-33335Y23176D01*
X-33802Y22368D01*
X-34043Y21466D01*
Y20534D01*
X-33802Y19632D01*
X-33335Y18824D01*
X-32676Y18165D01*
X-31868Y17698D01*
X-30966Y17457D01*
X-30033D01*
X-29132Y17698D01*
X-28324Y18165D01*
X-27665Y18824D01*
X-27198Y19632D01*
X-26957Y20534D01*
Y21466D01*
X-27198Y22368D01*
X-27665Y23176D01*
X-28324Y23835D01*
X-29132Y24302D01*
X-30033Y24543D01*
D02*
G37*
G36*
X-111648Y20772D02*
X-112352D01*
X-113004Y20502D01*
X-113502Y20004D01*
X-113772Y19352D01*
Y18648D01*
X-113502Y17996D01*
X-113004Y17498D01*
X-112352Y17228D01*
X-111648D01*
X-110996Y17498D01*
X-110498Y17996D01*
X-110228Y18648D01*
Y19352D01*
X-110498Y20004D01*
X-110996Y20502D01*
X-111648Y20772D01*
D02*
G37*
G36*
X-199148Y20272D02*
X-199852D01*
X-200504Y20002D01*
X-201002Y19504D01*
X-201272Y18852D01*
Y18148D01*
X-201002Y17496D01*
X-200504Y16998D01*
X-199852Y16728D01*
X-199148D01*
X-198496Y16998D01*
X-197998Y17496D01*
X-197728Y18148D01*
Y18852D01*
X-197998Y19504D01*
X-198496Y20002D01*
X-199148Y20272D01*
D02*
G37*
G36*
X-217648Y17772D02*
X-218352D01*
X-219004Y17502D01*
X-219195Y17310D01*
X-219251Y17276D01*
X-219283Y17246D01*
X-219289Y17241D01*
X-219296Y17237D01*
X-219305Y17232D01*
X-219319Y17226D01*
X-219338Y17220D01*
X-219364Y17214D01*
X-219398Y17209D01*
X-219440Y17205D01*
X-219513Y17202D01*
X-219655Y17170D01*
X-219797Y17142D01*
X-219807Y17135D01*
X-219819Y17132D01*
X-219937Y17048D01*
X-220058Y16968D01*
X-220064Y16958D01*
X-220074Y16951D01*
X-220095Y16918D01*
X-221801D01*
X-222152Y16848D01*
X-222450Y16649D01*
X-222601Y16498D01*
X-225326D01*
X-225477Y16649D01*
X-225774Y16848D01*
X-226126Y16918D01*
X-236000D01*
X-236351Y16848D01*
X-236649Y16649D01*
X-264925Y-11628D01*
X-265046Y-11809D01*
X-265504Y-11998D01*
X-266002Y-12496D01*
X-266272Y-13148D01*
Y-13852D01*
X-266002Y-14504D01*
X-265504Y-15002D01*
X-264852Y-15272D01*
X-264148D01*
X-263496Y-15002D01*
X-262998Y-14504D01*
X-262728Y-13852D01*
Y-13148D01*
X-262998Y-12496D01*
X-263098Y-12396D01*
X-235620Y15082D01*
X-226506D01*
X-226355Y14931D01*
X-226057Y14732D01*
X-225706Y14663D01*
X-222221D01*
X-221870Y14732D01*
X-221572Y14931D01*
X-221421Y15082D01*
X-220095D01*
X-220074Y15049D01*
X-220064Y15042D01*
X-220058Y15032D01*
X-219937Y14952D01*
X-219819Y14868D01*
X-219807Y14865D01*
X-219797Y14858D01*
X-219655Y14830D01*
X-219513Y14797D01*
X-219440Y14795D01*
X-219398Y14792D01*
X-219364Y14786D01*
X-219338Y14780D01*
X-219319Y14774D01*
X-219305Y14768D01*
X-219296Y14763D01*
X-219289Y14759D01*
X-219283Y14754D01*
X-219251Y14724D01*
X-219195Y14690D01*
X-219004Y14498D01*
X-218352Y14228D01*
X-217648D01*
X-216996Y14498D01*
X-216498Y14996D01*
X-216228Y15648D01*
Y16352D01*
X-216498Y17004D01*
X-216996Y17502D01*
X-217648Y17772D01*
D02*
G37*
G36*
X-115148Y18272D02*
X-115852D01*
X-116504Y18002D01*
X-117002Y17504D01*
X-117272Y16852D01*
Y16148D01*
X-117002Y15496D01*
X-116504Y14998D01*
X-115852Y14728D01*
X-115148D01*
X-114496Y14998D01*
X-113998Y15496D01*
X-113728Y16148D01*
Y16852D01*
X-113998Y17504D01*
X-114496Y18002D01*
X-115148Y18272D01*
D02*
G37*
G36*
X-132648Y17272D02*
X-133352D01*
X-134004Y17002D01*
X-134502Y16504D01*
X-134772Y15852D01*
Y15148D01*
X-134502Y14496D01*
X-134004Y13998D01*
X-133352Y13728D01*
X-132648D01*
X-131996Y13998D01*
X-131498Y14496D01*
X-131228Y15148D01*
Y15852D01*
X-131498Y16504D01*
X-131996Y17002D01*
X-132648Y17272D01*
D02*
G37*
G36*
X-195648Y15772D02*
X-196352D01*
X-197004Y15502D01*
X-197502Y15004D01*
X-197772Y14352D01*
Y13648D01*
X-197502Y12996D01*
X-197004Y12498D01*
X-196352Y12228D01*
X-195648D01*
X-194996Y12498D01*
X-194498Y12996D01*
X-194228Y13648D01*
Y14352D01*
X-194498Y15004D01*
X-194996Y15502D01*
X-195648Y15772D01*
D02*
G37*
G36*
X-119148Y14772D02*
X-119852D01*
X-120504Y14502D01*
X-121002Y14004D01*
X-121272Y13352D01*
Y12648D01*
X-121002Y11996D01*
X-120504Y11498D01*
X-119852Y11228D01*
X-119148D01*
X-118496Y11498D01*
X-117998Y11996D01*
X-117728Y12648D01*
Y13352D01*
X-117998Y14004D01*
X-118496Y14502D01*
X-119148Y14772D01*
D02*
G37*
G36*
X-213148Y13772D02*
X-213852D01*
X-214504Y13502D01*
X-215002Y13004D01*
X-215130Y12694D01*
X-219224D01*
X-219575Y12624D01*
X-219872Y12425D01*
X-242649Y-10351D01*
X-242848Y-10649D01*
X-242918Y-11000D01*
Y-11120D01*
X-247062Y-15264D01*
X-247148Y-15228D01*
X-247852D01*
X-248504Y-15498D01*
X-249002Y-15996D01*
X-249272Y-16648D01*
Y-17352D01*
X-249002Y-18004D01*
X-248504Y-18502D01*
X-247852Y-18772D01*
X-247148D01*
X-246496Y-18502D01*
X-245998Y-18004D01*
X-245728Y-17352D01*
Y-16648D01*
X-245764Y-16562D01*
X-241351Y-12149D01*
X-241152Y-11851D01*
X-241082Y-11500D01*
Y-11380D01*
X-218844Y10859D01*
X-214864D01*
X-214504Y10498D01*
X-213852Y10228D01*
X-213148D01*
X-212496Y10498D01*
X-211998Y10996D01*
X-211728Y11648D01*
Y12352D01*
X-211998Y13004D01*
X-212496Y13502D01*
X-213148Y13772D01*
D02*
G37*
G36*
X-184355Y31903D02*
X-312645D01*
X-314081Y31714D01*
X-315419Y31159D01*
X-316567Y30278D01*
X-329923Y16923D01*
X-330804Y15774D01*
X-331358Y14436D01*
X-331547Y13000D01*
X-331358Y11564D01*
X-330804Y10226D01*
X-329923Y9077D01*
X-328774Y8196D01*
X-327436Y7642D01*
X-326000Y7452D01*
X-324564Y7642D01*
X-323226Y8196D01*
X-322077Y9077D01*
X-310347Y20808D01*
X-264384D01*
X-264165Y20480D01*
X-264272Y20223D01*
Y19519D01*
X-264002Y18867D01*
X-263504Y18369D01*
X-262852Y18099D01*
X-262148D01*
X-261496Y18369D01*
X-260998Y18867D01*
X-260728Y19519D01*
Y20223D01*
X-260835Y20480D01*
X-260616Y20808D01*
X-184355D01*
X-183235Y20955D01*
X-182465Y20186D01*
X-182542Y19800D01*
X-182821Y19685D01*
X-183319Y19186D01*
X-183589Y18535D01*
Y17830D01*
X-183319Y17179D01*
X-182821Y16681D01*
X-182170Y16411D01*
X-181465D01*
X-180814Y16681D01*
X-180315Y17179D01*
X-180200Y17458D01*
X-179814Y17535D01*
X-174415Y12135D01*
X-174565Y11772D01*
X-175216Y11502D01*
X-175715Y11004D01*
X-175985Y10352D01*
Y9648D01*
X-175845Y9311D01*
X-176108Y8918D01*
X-180500D01*
X-180851Y8848D01*
X-181149Y8649D01*
X-182353Y7445D01*
X-182363Y7440D01*
X-182373Y7435D01*
X-182808Y7546D01*
X-182998Y8004D01*
X-183413Y8419D01*
X-183404Y8465D01*
X-182905Y8963D01*
X-182636Y9615D01*
Y10319D01*
X-182905Y10971D01*
X-183404Y11469D01*
X-184055Y11739D01*
X-184760D01*
X-185411Y11469D01*
X-185467Y11413D01*
X-185632Y11380D01*
X-186128Y11049D01*
X-188066Y9110D01*
X-188397Y8614D01*
X-188514Y8029D01*
Y7937D01*
X-195398Y1052D01*
X-195730Y556D01*
X-195764Y386D01*
X-196365Y-215D01*
X-196765Y-59D01*
X-196998Y504D01*
X-197496Y1002D01*
X-198148Y1272D01*
X-198852D01*
X-199504Y1002D01*
X-200002Y504D01*
X-200272Y-148D01*
Y-852D01*
X-200002Y-1504D01*
X-199504Y-2002D01*
X-198941Y-2235D01*
X-198785Y-2635D01*
X-199636Y-3486D01*
X-201502D01*
X-202088Y-3603D01*
X-202584Y-3934D01*
X-210120Y-11471D01*
X-213063D01*
X-213648Y-11228D01*
X-214352D01*
X-215004Y-11498D01*
X-215502Y-11996D01*
X-215772Y-12648D01*
Y-13352D01*
X-215502Y-14004D01*
X-215004Y-14502D01*
X-214352Y-14772D01*
X-213648D01*
X-213063Y-14529D01*
X-209487D01*
X-208902Y-14413D01*
X-208405Y-14081D01*
X-201004Y-6680D01*
X-200671Y-6903D01*
X-200772Y-7148D01*
Y-7852D01*
X-200502Y-8504D01*
X-200004Y-9002D01*
X-199352Y-9272D01*
X-198648D01*
X-198481Y-9203D01*
X-198203Y-9481D01*
X-198272Y-9648D01*
Y-10352D01*
X-198050Y-10888D01*
X-198384Y-11111D01*
X-198496Y-10998D01*
X-199148Y-10728D01*
X-199852D01*
X-200504Y-10998D01*
X-201002Y-11496D01*
X-201272Y-12148D01*
Y-12852D01*
X-201002Y-13504D01*
X-200504Y-14002D01*
X-199852Y-14272D01*
X-199148D01*
X-198496Y-14002D01*
X-197998Y-13504D01*
X-197728Y-12852D01*
Y-12148D01*
X-197950Y-11612D01*
X-197616Y-11389D01*
X-197504Y-11502D01*
X-196852Y-11772D01*
X-196581D01*
X-196518Y-11787D01*
X-196474Y-11788D01*
X-196467Y-11789D01*
X-196458Y-11791D01*
X-196449Y-11794D01*
X-196435Y-11800D01*
X-196417Y-11809D01*
X-196394Y-11823D01*
X-196366Y-11843D01*
X-196334Y-11870D01*
X-196280Y-11920D01*
X-196157Y-11997D01*
X-196037Y-12078D01*
X-196025Y-12080D01*
X-196015Y-12087D01*
X-195872Y-12111D01*
X-195729Y-12139D01*
X-195718Y-12137D01*
X-195706Y-12139D01*
X-195668Y-12130D01*
X-194606Y-13192D01*
X-194829Y-13525D01*
X-195172Y-13383D01*
X-195877D01*
X-196528Y-13653D01*
X-197027Y-14151D01*
X-197297Y-14803D01*
Y-15507D01*
X-197027Y-16158D01*
X-196528Y-16657D01*
X-195877Y-16927D01*
X-195172D01*
X-194521Y-16657D01*
X-194023Y-16158D01*
X-193753Y-15507D01*
Y-14803D01*
X-193895Y-14459D01*
X-193562Y-14236D01*
X-192649Y-15149D01*
X-192351Y-15348D01*
X-192000Y-15418D01*
X-140131D01*
X-139123Y-16425D01*
X-139132Y-16463D01*
X-139130Y-16475D01*
X-139132Y-16487D01*
X-139104Y-16629D01*
X-139080Y-16772D01*
X-139074Y-16782D01*
X-139071Y-16794D01*
X-138991Y-16915D01*
X-138914Y-17038D01*
X-138863Y-17091D01*
X-138836Y-17123D01*
X-138816Y-17151D01*
X-138802Y-17174D01*
X-138793Y-17192D01*
X-138787Y-17206D01*
X-138784Y-17216D01*
X-138782Y-17224D01*
X-138781Y-17231D01*
X-138780Y-17275D01*
X-138765Y-17339D01*
Y-17610D01*
X-138495Y-18261D01*
X-137997Y-18759D01*
X-137346Y-19029D01*
X-136641D01*
X-135990Y-18759D01*
X-135491Y-18261D01*
X-135222Y-17610D01*
Y-16905D01*
X-135491Y-16254D01*
X-135990Y-15755D01*
X-136641Y-15486D01*
X-136912D01*
X-136975Y-15471D01*
X-137019Y-15469D01*
X-137027Y-15468D01*
X-137035Y-15467D01*
X-137045Y-15463D01*
X-137058Y-15458D01*
X-137077Y-15449D01*
X-137099Y-15435D01*
X-137127Y-15414D01*
X-137160Y-15387D01*
X-137213Y-15337D01*
X-137336Y-15260D01*
X-137457Y-15179D01*
X-137468Y-15177D01*
X-137478Y-15171D01*
X-137621Y-15146D01*
X-137764Y-15118D01*
X-137776Y-15121D01*
X-137787Y-15119D01*
X-137826Y-15127D01*
X-138287Y-14665D01*
X-138124Y-14272D01*
X-137648D01*
X-136996Y-14002D01*
X-136498Y-13504D01*
X-136228Y-12852D01*
Y-12148D01*
X-136498Y-11496D01*
X-136996Y-10998D01*
X-137648Y-10728D01*
X-138352D01*
X-139004Y-10998D01*
X-139502Y-11496D01*
X-139772Y-12148D01*
Y-12852D01*
X-139625Y-13206D01*
X-139659Y-13307D01*
X-139895Y-13582D01*
X-191620D01*
X-194370Y-10832D01*
X-194361Y-10794D01*
X-194363Y-10782D01*
X-194361Y-10771D01*
X-194389Y-10628D01*
X-194413Y-10485D01*
X-194420Y-10475D01*
X-194422Y-10463D01*
X-194502Y-10343D01*
X-194580Y-10220D01*
X-194630Y-10166D01*
X-194657Y-10134D01*
X-194677Y-10106D01*
X-194691Y-10083D01*
X-194700Y-10065D01*
X-194706Y-10052D01*
X-194709Y-10041D01*
X-194711Y-10033D01*
X-194712Y-10026D01*
X-194713Y-9982D01*
X-194728Y-9919D01*
Y-9648D01*
X-194998Y-8996D01*
X-195496Y-8498D01*
X-196148Y-8228D01*
X-196852D01*
X-197019Y-8297D01*
X-197297Y-8019D01*
X-197228Y-7852D01*
Y-7148D01*
X-197498Y-6496D01*
X-197909Y-6085D01*
X-196530Y-4706D01*
D01*
X-196143Y-4783D01*
X-196029Y-5058D01*
X-195531Y-5556D01*
X-194880Y-5826D01*
X-194609D01*
X-194546Y-5841D01*
X-194501Y-5842D01*
X-194494Y-5843D01*
X-194486Y-5845D01*
X-194476Y-5848D01*
X-194462Y-5854D01*
X-194444Y-5863D01*
X-194422Y-5877D01*
X-194394Y-5897D01*
X-194361Y-5924D01*
X-194308Y-5974D01*
X-194185Y-6052D01*
X-194064Y-6132D01*
X-194052Y-6134D01*
X-194042Y-6141D01*
X-193899Y-6165D01*
X-193757Y-6193D01*
X-193745Y-6191D01*
X-193733Y-6193D01*
X-193695Y-6184D01*
X-187731Y-12149D01*
X-187433Y-12348D01*
X-187082Y-12418D01*
X-177500D01*
X-177149Y-12348D01*
X-176851Y-12149D01*
X-175120Y-10418D01*
X-142500D01*
X-142149Y-10348D01*
X-141851Y-10149D01*
X-140120Y-8418D01*
X-138595D01*
X-138574Y-8451D01*
X-138564Y-8458D01*
X-138558Y-8468D01*
X-138437Y-8548D01*
X-138319Y-8632D01*
X-138307Y-8635D01*
X-138297Y-8642D01*
X-138155Y-8670D01*
X-138013Y-8703D01*
X-137940Y-8705D01*
X-137898Y-8709D01*
X-137864Y-8714D01*
X-137838Y-8720D01*
X-137819Y-8726D01*
X-137805Y-8732D01*
X-137795Y-8737D01*
X-137789Y-8741D01*
X-137783Y-8746D01*
X-137751Y-8776D01*
X-137695Y-8810D01*
X-137504Y-9002D01*
X-136852Y-9272D01*
X-136148D01*
X-135496Y-9002D01*
X-134998Y-8504D01*
X-134728Y-7852D01*
Y-7148D01*
X-134998Y-6496D01*
X-135496Y-5998D01*
X-136148Y-5728D01*
X-136852D01*
X-137504Y-5998D01*
X-137695Y-6190D01*
X-137751Y-6224D01*
X-137783Y-6254D01*
X-137789Y-6259D01*
X-137795Y-6263D01*
X-137805Y-6268D01*
X-137819Y-6274D01*
X-137838Y-6280D01*
X-137864Y-6286D01*
X-137898Y-6291D01*
X-137940Y-6295D01*
X-138013Y-6297D01*
X-138155Y-6330D01*
X-138297Y-6358D01*
X-138307Y-6365D01*
X-138319Y-6368D01*
X-138437Y-6452D01*
X-138558Y-6532D01*
X-138564Y-6542D01*
X-138574Y-6549D01*
X-138595Y-6582D01*
X-140500D01*
X-140851Y-6652D01*
X-141149Y-6851D01*
X-142880Y-8582D01*
X-175500D01*
X-175851Y-8652D01*
X-176149Y-8851D01*
X-177880Y-10582D01*
X-186702D01*
X-192397Y-4886D01*
X-192389Y-4848D01*
X-192391Y-4836D01*
X-192388Y-4825D01*
X-192417Y-4683D01*
X-192441Y-4539D01*
X-192447Y-4529D01*
X-192449Y-4518D01*
X-192530Y-4397D01*
X-192607Y-4274D01*
X-192658Y-4220D01*
X-192684Y-4188D01*
X-192705Y-4160D01*
X-192719Y-4138D01*
X-192728Y-4119D01*
X-192734Y-4106D01*
X-192737Y-4095D01*
X-192739Y-4087D01*
X-192739Y-4080D01*
X-192741Y-4036D01*
X-192756Y-3973D01*
D01*
Y-3702D01*
X-193026Y-3050D01*
X-193524Y-2552D01*
X-193799Y-2438D01*
X-193876Y-2052D01*
X-193235Y-1412D01*
X-192904Y-915D01*
X-192870Y-745D01*
X-186108Y6017D01*
X-186002Y5996D01*
X-185504Y5498D01*
X-184852Y5228D01*
X-184148D01*
X-184126Y5237D01*
X-184122Y5235D01*
X-184071Y5187D01*
X-183996Y5140D01*
X-183930Y5081D01*
X-183864Y5058D01*
X-183805Y5021D01*
X-183718Y5007D01*
X-183634Y4978D01*
X-183564Y4982D01*
X-183496Y4971D01*
X-183410Y4991D01*
X-183379Y4992D01*
X-183366Y4984D01*
X-183015Y4914D01*
X-182669D01*
X-182317Y4984D01*
X-182020Y5183D01*
X-180120Y7082D01*
X-175380D01*
X-174246Y5948D01*
Y4328D01*
X-174176Y3977D01*
X-173977Y3679D01*
X-167579Y-2719D01*
X-167730Y-3082D01*
X-171723D01*
X-171942Y-2755D01*
X-171823Y-2468D01*
Y-1763D01*
X-172093Y-1112D01*
X-172591Y-614D01*
X-173242Y-344D01*
X-173947D01*
X-174598Y-614D01*
X-175096Y-1112D01*
X-175366Y-1763D01*
Y-2468D01*
X-175247Y-2755D01*
X-175466Y-3082D01*
X-182620D01*
X-183118Y-2585D01*
X-183123Y-2557D01*
X-183150Y-2410D01*
X-183154Y-2403D01*
X-183155Y-2396D01*
X-183238Y-2272D01*
X-183319Y-2146D01*
X-183325Y-2142D01*
X-183329Y-2135D01*
X-183453Y-2052D01*
X-183576Y-1967D01*
X-183583Y-1966D01*
X-183590Y-1961D01*
X-183693Y-1941D01*
X-183719Y-1876D01*
X-184218Y-1378D01*
X-184869Y-1108D01*
X-185574D01*
X-186225Y-1378D01*
X-186723Y-1876D01*
X-186993Y-2527D01*
Y-3232D01*
X-186723Y-3883D01*
X-186225Y-4382D01*
X-185574Y-4651D01*
X-184869D01*
X-184218Y-4382D01*
X-184140Y-4303D01*
X-183993Y-4305D01*
X-183649Y-4649D01*
X-183351Y-4848D01*
X-183000Y-4918D01*
X-167077D01*
X-165646Y-6349D01*
X-165348Y-6548D01*
X-164997Y-6618D01*
X-160255D01*
X-159904Y-6548D01*
X-159606Y-6349D01*
X-158675Y-5418D01*
X-146000D01*
X-145649Y-5348D01*
X-145351Y-5149D01*
X-142938Y-2736D01*
X-142852Y-2772D01*
X-142148D01*
X-141496Y-2502D01*
X-140998Y-2004D01*
X-140728Y-1352D01*
Y-648D01*
X-140998Y4D01*
X-141496Y502D01*
X-142148Y772D01*
X-142852D01*
X-143504Y502D01*
X-144002Y4D01*
X-144272Y-648D01*
Y-1352D01*
X-144236Y-1438D01*
X-146380Y-3582D01*
X-158022D01*
X-158173Y-3219D01*
X-151872Y3082D01*
X-137895D01*
X-137632Y2689D01*
X-137772Y2352D01*
Y1648D01*
X-137502Y996D01*
X-137004Y498D01*
X-136352Y228D01*
X-135648D01*
X-134996Y498D01*
X-134498Y996D01*
X-134228Y1648D01*
Y2352D01*
X-134368Y2689D01*
X-134105Y3082D01*
X-125500D01*
X-125149Y3152D01*
X-124851Y3351D01*
X-122832Y5370D01*
X-122794Y5361D01*
X-122782Y5363D01*
X-122771Y5361D01*
X-122628Y5389D01*
X-122485Y5413D01*
X-122475Y5420D01*
X-122463Y5422D01*
X-122343Y5503D01*
X-122220Y5580D01*
X-122166Y5630D01*
X-122134Y5657D01*
X-122106Y5677D01*
X-122083Y5691D01*
X-122065Y5700D01*
X-122052Y5706D01*
X-122041Y5709D01*
X-122033Y5711D01*
X-122026Y5712D01*
X-121982Y5714D01*
X-121919Y5728D01*
X-121648D01*
X-120996Y5998D01*
X-120498Y6496D01*
X-120228Y7148D01*
Y7852D01*
X-120498Y8504D01*
X-120996Y9002D01*
X-121648Y9272D01*
X-122352D01*
X-123004Y9002D01*
X-123502Y8504D01*
X-123772Y7852D01*
Y7581D01*
X-123787Y7518D01*
X-123788Y7474D01*
X-123789Y7467D01*
X-123791Y7458D01*
X-123794Y7448D01*
X-123800Y7435D01*
X-123809Y7417D01*
X-123823Y7394D01*
X-123843Y7366D01*
X-123870Y7334D01*
X-123920Y7280D01*
X-123997Y7157D01*
X-124078Y7037D01*
X-124080Y7025D01*
X-124087Y7015D01*
X-124111Y6872D01*
X-124139Y6729D01*
X-124137Y6718D01*
X-124139Y6706D01*
X-124130Y6668D01*
X-125880Y4918D01*
X-133369D01*
X-133447Y5311D01*
X-132996Y5498D01*
X-132498Y5996D01*
X-132228Y6648D01*
Y7352D01*
X-132498Y8004D01*
X-132899Y8405D01*
X-132875Y8773D01*
X-132837Y8857D01*
X-132496Y8998D01*
X-131998Y9496D01*
X-131728Y10148D01*
Y10852D01*
X-131998Y11504D01*
X-132496Y12002D01*
X-133148Y12272D01*
X-133852D01*
X-134504Y12002D01*
X-135002Y11504D01*
X-135272Y10852D01*
Y10148D01*
X-135002Y9496D01*
X-134600Y9095D01*
X-134625Y8727D01*
X-134663Y8643D01*
X-135004Y8502D01*
X-135502Y8004D01*
X-135772Y7352D01*
Y6648D01*
X-135502Y5996D01*
X-135004Y5498D01*
X-134553Y5311D01*
X-134631Y4918D01*
X-152252D01*
X-152603Y4848D01*
X-152901Y4649D01*
X-158576Y-1026D01*
X-158969Y-863D01*
Y-323D01*
X-159184Y478D01*
X-159599Y1196D01*
X-160185Y1782D01*
X-160599Y2021D01*
X-165662Y7085D01*
X-165570Y7549D01*
X-165241Y7685D01*
X-164743Y8184D01*
X-164473Y8835D01*
Y9539D01*
X-164743Y10191D01*
X-165241Y10689D01*
X-165892Y10959D01*
X-166597D01*
X-166875Y10843D01*
X-167203Y11062D01*
Y12229D01*
X-167306Y13012D01*
X-167608Y13742D01*
X-168089Y14368D01*
X-168089Y14368D01*
X-176696Y22975D01*
X-176532Y23369D01*
X-176209D01*
X-175558Y23638D01*
X-175060Y24137D01*
X-174790Y24788D01*
Y25493D01*
X-175060Y26144D01*
X-175558Y26642D01*
X-176209Y26912D01*
X-176914D01*
X-177565Y26642D01*
X-178063Y26144D01*
X-178333Y25493D01*
Y25222D01*
X-178687Y25072D01*
X-178947Y25301D01*
X-178808Y26355D01*
X-178997Y27791D01*
X-179551Y29129D01*
X-180433Y30278D01*
X-181581Y31159D01*
X-182920Y31714D01*
X-184355Y31903D01*
D02*
G37*
G36*
X-154648Y10772D02*
X-155352D01*
X-156004Y10502D01*
X-156502Y10004D01*
X-156772Y9352D01*
Y8648D01*
X-156502Y7996D01*
X-156004Y7498D01*
X-155352Y7228D01*
X-154648D01*
X-153996Y7498D01*
X-153498Y7996D01*
X-153228Y8648D01*
Y9352D01*
X-153498Y10004D01*
X-153996Y10502D01*
X-154648Y10772D01*
D02*
G37*
G36*
X-344199Y11043D02*
X-345061D01*
X-345856Y10714D01*
X-346466Y10104D01*
X-346795Y9309D01*
Y8447D01*
X-346466Y7651D01*
X-345856Y7042D01*
X-345061Y6713D01*
X-344199D01*
X-343403Y7042D01*
X-342794Y7651D01*
X-342465Y8447D01*
Y9309D01*
X-342794Y10104D01*
X-343403Y10714D01*
X-344199Y11043D01*
D02*
G37*
G36*
X-195148Y9772D02*
X-195852D01*
X-196504Y9502D01*
X-197002Y9004D01*
X-197272Y8352D01*
Y7648D01*
X-197002Y6996D01*
X-196816Y6811D01*
X-196878Y6498D01*
X-196948Y6386D01*
X-197420Y5914D01*
X-197689Y5263D01*
Y4558D01*
X-197420Y3907D01*
X-196921Y3409D01*
X-196270Y3139D01*
X-195565D01*
X-194914Y3409D01*
X-194416Y3907D01*
X-194146Y4558D01*
Y5263D01*
X-194416Y5914D01*
X-194602Y6100D01*
X-194539Y6413D01*
D01*
X-194525Y6486D01*
X-194496Y6498D01*
X-193998Y6996D01*
X-193728Y7648D01*
Y8352D01*
X-193998Y9004D01*
X-194496Y9502D01*
X-195148Y9772D01*
D02*
G37*
G36*
X-184648Y4772D02*
X-185352D01*
X-186004Y4502D01*
X-186502Y4004D01*
X-186772Y3352D01*
Y2648D01*
X-186502Y1996D01*
X-186004Y1498D01*
X-185352Y1228D01*
X-184648D01*
X-183996Y1498D01*
X-183498Y1996D01*
X-183228Y2648D01*
Y3352D01*
X-183498Y4004D01*
X-183996Y4502D01*
X-184648Y4772D01*
D02*
G37*
G36*
X-65148Y-228D02*
X-65852D01*
X-66504Y-498D01*
X-67002Y-996D01*
X-67272Y-1648D01*
Y-1919D01*
X-67286Y-1982D01*
X-67288Y-2026D01*
X-67289Y-2033D01*
X-67291Y-2042D01*
X-67294Y-2052D01*
X-67300Y-2065D01*
X-67309Y-2083D01*
X-67323Y-2106D01*
X-67343Y-2134D01*
X-67370Y-2166D01*
X-67420Y-2220D01*
X-67497Y-2343D01*
X-67578Y-2463D01*
X-67580Y-2475D01*
X-67587Y-2485D01*
X-67611Y-2628D01*
X-67639Y-2771D01*
X-67637Y-2782D01*
X-67639Y-2794D01*
X-67630Y-2832D01*
X-76937Y-12139D01*
X-77149Y-12351D01*
X-77348Y-12649D01*
X-77418Y-13000D01*
Y-35120D01*
X-84149Y-41851D01*
X-84348Y-42149D01*
X-84418Y-42500D01*
Y-46620D01*
X-89890Y-52092D01*
X-290814D01*
X-290834Y-52059D01*
X-290844Y-52052D01*
X-290851Y-52042D01*
X-290971Y-51961D01*
X-291090Y-51877D01*
X-291101Y-51875D01*
X-291111Y-51868D01*
X-291254Y-51840D01*
X-291395Y-51807D01*
X-291468Y-51805D01*
X-291510Y-51801D01*
X-291544Y-51796D01*
X-291570Y-51790D01*
X-291590Y-51783D01*
X-291603Y-51778D01*
X-291613Y-51773D01*
X-291620Y-51768D01*
X-291625Y-51764D01*
X-291658Y-51734D01*
X-291713Y-51700D01*
X-291905Y-51508D01*
X-292556Y-51238D01*
X-293261D01*
X-293912Y-51508D01*
X-294410Y-52006D01*
X-294680Y-52657D01*
Y-53362D01*
X-294410Y-54013D01*
X-293912Y-54512D01*
X-293261Y-54781D01*
X-292556D01*
X-291905Y-54512D01*
X-291713Y-54320D01*
X-291658Y-54286D01*
X-291625Y-54256D01*
X-291620Y-54251D01*
X-291613Y-54247D01*
X-291603Y-54242D01*
X-291590Y-54236D01*
X-291570Y-54230D01*
X-291544Y-54224D01*
X-291510Y-54218D01*
X-291468Y-54214D01*
X-291395Y-54212D01*
X-291254Y-54180D01*
X-291111Y-54151D01*
X-291101Y-54145D01*
X-291090Y-54142D01*
X-290971Y-54058D01*
X-290851Y-53977D01*
X-290844Y-53967D01*
X-290834Y-53961D01*
X-290814Y-53927D01*
X-89510D01*
X-89159Y-53857D01*
X-88861Y-53659D01*
X-82851Y-47649D01*
X-82652Y-47351D01*
X-82582Y-47000D01*
Y-42880D01*
X-75851Y-36149D01*
X-75652Y-35851D01*
X-75582Y-35500D01*
Y-13380D01*
X-66332Y-4130D01*
X-66294Y-4139D01*
X-66282Y-4137D01*
X-66271Y-4139D01*
X-66128Y-4111D01*
X-65985Y-4087D01*
X-65975Y-4080D01*
X-65963Y-4078D01*
X-65843Y-3997D01*
X-65720Y-3920D01*
X-65666Y-3870D01*
X-65634Y-3843D01*
X-65606Y-3823D01*
X-65583Y-3809D01*
X-65565Y-3800D01*
X-65552Y-3794D01*
X-65541Y-3791D01*
X-65533Y-3789D01*
X-65526Y-3788D01*
X-65482Y-3787D01*
X-65419Y-3772D01*
X-65148D01*
X-64496Y-3502D01*
X-63998Y-3004D01*
X-63728Y-2352D01*
Y-1648D01*
X-63998Y-996D01*
X-64496Y-498D01*
X-65148Y-228D01*
D02*
G37*
G36*
X-180148Y-6228D02*
X-180852D01*
X-181504Y-6498D01*
X-182002Y-6996D01*
X-182272Y-7648D01*
Y-8352D01*
X-182002Y-9004D01*
X-181504Y-9502D01*
X-180852Y-9772D01*
X-180148D01*
X-179496Y-9502D01*
X-178998Y-9004D01*
X-178728Y-8352D01*
Y-7648D01*
X-178998Y-6996D01*
X-179496Y-6498D01*
X-180148Y-6228D01*
D02*
G37*
G36*
X-335500Y8284D02*
X-335563Y8272D01*
X-335852D01*
X-336119Y8161D01*
X-336183Y8149D01*
X-336237Y8112D01*
X-336504Y8002D01*
X-336708Y7798D01*
X-336762Y7762D01*
X-337184Y7339D01*
X-337571Y6760D01*
X-337707Y6078D01*
Y-12023D01*
X-337694Y-12087D01*
Y-12376D01*
X-337584Y-12643D01*
X-337571Y-12706D01*
X-337535Y-12760D01*
X-337424Y-13027D01*
X-337220Y-13231D01*
X-337184Y-13285D01*
X-337130Y-13321D01*
X-336926Y-13525D01*
X-336659Y-13636D01*
X-336605Y-13672D01*
X-336542Y-13684D01*
X-336275Y-13795D01*
X-335986D01*
X-335923Y-13807D01*
X-335859Y-13795D01*
X-335570D01*
X-335303Y-13684D01*
X-335240Y-13672D01*
X-335186Y-13636D01*
X-334919Y-13525D01*
X-334715Y-13321D01*
X-334661Y-13285D01*
X-334625Y-13231D01*
X-334421Y-13027D01*
X-334310Y-12760D01*
X-334274Y-12706D01*
X-334261Y-12643D01*
X-334151Y-12376D01*
Y-12087D01*
X-334138Y-12023D01*
Y5356D01*
X-333998Y5496D01*
X-333888Y5763D01*
X-333852Y5817D01*
X-333839Y5881D01*
X-333728Y6148D01*
Y6436D01*
X-333716Y6500D01*
X-333728Y6564D01*
Y6852D01*
X-333839Y7119D01*
X-333852Y7183D01*
X-333888Y7237D01*
X-333998Y7504D01*
X-334202Y7708D01*
X-334238Y7762D01*
X-334292Y7798D01*
X-334496Y8002D01*
X-334763Y8112D01*
X-334817Y8149D01*
X-334881Y8161D01*
X-335148Y8272D01*
X-335437D01*
X-335500Y8284D01*
D02*
G37*
G36*
X-293884Y12673D02*
X-296115D01*
X-298319Y12324D01*
X-300441Y11635D01*
X-302428Y10622D01*
X-304233Y9311D01*
X-305811Y7733D01*
X-307122Y5928D01*
X-308135Y3941D01*
X-308824Y1819D01*
X-309173Y-384D01*
Y-2616D01*
X-308824Y-4819D01*
X-308135Y-6941D01*
X-307122Y-8928D01*
X-305811Y-10733D01*
X-304233Y-12311D01*
X-302428Y-13622D01*
X-300441Y-14635D01*
X-298319Y-15324D01*
X-296115Y-15673D01*
X-293884D01*
X-291681Y-15324D01*
X-289559Y-14635D01*
X-287572Y-13622D01*
X-285767Y-12311D01*
X-284189Y-10733D01*
X-282878Y-8928D01*
X-281865Y-6941D01*
X-281176Y-4819D01*
X-280827Y-2616D01*
Y-384D01*
X-281176Y1819D01*
X-281865Y3941D01*
X-282878Y5928D01*
X-284189Y7733D01*
X-285767Y9311D01*
X-287572Y10622D01*
X-289559Y11635D01*
X-291681Y12324D01*
X-293884Y12673D01*
D02*
G37*
G36*
X-344199Y-11713D02*
X-345061D01*
X-345856Y-12042D01*
X-346466Y-12651D01*
X-346795Y-13447D01*
Y-14309D01*
X-346466Y-15104D01*
X-345856Y-15714D01*
X-345061Y-16043D01*
X-344199D01*
X-343403Y-15714D01*
X-342794Y-15104D01*
X-342465Y-14309D01*
Y-13447D01*
X-342794Y-12651D01*
X-343403Y-12042D01*
X-344199Y-11713D01*
D02*
G37*
G36*
X-38648Y-20728D02*
X-39352D01*
X-40004Y-20998D01*
X-40502Y-21496D01*
X-40772Y-22148D01*
Y-22852D01*
X-40502Y-23504D01*
X-40004Y-24002D01*
X-39352Y-24272D01*
X-38648D01*
X-37996Y-24002D01*
X-37498Y-23504D01*
X-37228Y-22852D01*
Y-22148D01*
X-37498Y-21496D01*
X-37996Y-20998D01*
X-38648Y-20728D01*
D02*
G37*
G36*
X-81648Y-28228D02*
X-82352D01*
X-83004Y-28498D01*
X-83502Y-28996D01*
X-83772Y-29648D01*
Y-30352D01*
X-83502Y-31004D01*
X-83004Y-31502D01*
X-82352Y-31772D01*
X-81648D01*
X-80996Y-31502D01*
X-80498Y-31004D01*
X-80228Y-30352D01*
Y-29648D01*
X-80498Y-28996D01*
X-80996Y-28498D01*
X-81648Y-28228D01*
D02*
G37*
G36*
X-318648Y272D02*
X-319352D01*
X-320004Y2D01*
X-320502Y-496D01*
X-320772Y-1148D01*
Y-1852D01*
X-320502Y-2504D01*
X-320021Y-2984D01*
X-320502Y-3465D01*
X-320772Y-4116D01*
Y-4821D01*
X-320502Y-5472D01*
X-320004Y-5970D01*
X-319352Y-6240D01*
X-318648D01*
X-317996Y-5970D01*
X-317816Y-5790D01*
X-317760Y-5755D01*
X-317698Y-5697D01*
X-317656Y-5662D01*
X-317619Y-5635D01*
X-317586Y-5615D01*
X-317559Y-5601D01*
X-317537Y-5592D01*
X-317518Y-5586D01*
X-317503Y-5582D01*
X-317489Y-5580D01*
X-317438Y-5578D01*
X-317310Y-5546D01*
X-317180Y-5523D01*
X-317159Y-5509D01*
X-317134Y-5503D01*
X-317027Y-5425D01*
X-316916Y-5353D01*
X-316902Y-5332D01*
X-316882Y-5317D01*
X-316866Y-5291D01*
X-316625D01*
X-316316Y-5230D01*
X-316054Y-5055D01*
X-315689Y-4690D01*
X-315475D01*
X-313307Y-6857D01*
Y-16495D01*
X-313246Y-16804D01*
X-313071Y-17066D01*
X-307802Y-22335D01*
X-307540Y-22510D01*
X-307231Y-22572D01*
X-182387D01*
X-182169Y-22899D01*
X-182272Y-23148D01*
Y-23852D01*
X-182002Y-24504D01*
X-181504Y-25002D01*
X-180852Y-25272D01*
X-180148D01*
X-179496Y-25002D01*
X-178998Y-24504D01*
X-178728Y-23852D01*
Y-23148D01*
X-178831Y-22899D01*
X-178613Y-22572D01*
X-150065D01*
X-141802Y-30835D01*
X-141540Y-31010D01*
X-141231Y-31072D01*
X-135682D01*
X-135668Y-31095D01*
X-135607Y-31140D01*
X-135557Y-31197D01*
X-135483Y-31233D01*
X-135416Y-31282D01*
X-135343Y-31300D01*
X-135275Y-31333D01*
X-135193Y-31338D01*
X-135113Y-31358D01*
X-135074Y-31360D01*
X-135072Y-31362D01*
X-135058Y-31381D01*
X-135044Y-31402D01*
X-135002Y-31504D01*
X-134504Y-32002D01*
X-133852Y-32272D01*
X-133148D01*
X-132496Y-32002D01*
X-131998Y-31504D01*
X-131728Y-30852D01*
Y-30148D01*
X-131998Y-29496D01*
X-132496Y-28998D01*
X-133148Y-28728D01*
X-133852D01*
X-134503Y-28998D01*
X-134628Y-28973D01*
X-134874Y-28602D01*
D01*
D01*
X-134728Y-28250D01*
Y-27546D01*
X-134998Y-26895D01*
X-135496Y-26396D01*
X-136148Y-26126D01*
X-136852D01*
X-137504Y-26396D01*
X-138002Y-26895D01*
X-138225Y-27432D01*
X-138231Y-27433D01*
X-138295Y-27464D01*
X-138365Y-27481D01*
X-138435Y-27532D01*
X-138512Y-27571D01*
X-138560Y-27624D01*
X-138617Y-27667D01*
X-138633Y-27693D01*
X-140166D01*
X-148429Y-19429D01*
X-148691Y-19254D01*
X-149000Y-19193D01*
X-306166D01*
X-309928Y-15430D01*
Y-5792D01*
X-309990Y-5483D01*
X-310165Y-5221D01*
X-313839Y-1547D01*
X-314101Y-1372D01*
X-314410Y-1311D01*
X-315689D01*
X-316054Y-945D01*
X-316316Y-770D01*
X-316625Y-709D01*
X-316856D01*
X-316872Y-683D01*
X-316881Y-676D01*
X-316888Y-666D01*
X-317007Y-583D01*
X-317124Y-497D01*
X-317135Y-494D01*
X-317145Y-488D01*
X-317287Y-457D01*
X-317428Y-422D01*
X-317478Y-420D01*
X-317490Y-418D01*
X-317503Y-415D01*
X-317519Y-410D01*
X-317538Y-402D01*
X-317561Y-389D01*
X-317590Y-370D01*
X-317623Y-345D01*
X-317661Y-311D01*
X-317720Y-253D01*
X-317784Y-211D01*
X-317996Y2D01*
X-318648Y272D01*
D02*
G37*
G36*
X-95648Y-41228D02*
X-96352D01*
X-97004Y-41498D01*
X-97502Y-41996D01*
X-97772Y-42648D01*
Y-43352D01*
X-97502Y-44004D01*
X-97004Y-44502D01*
X-96352Y-44772D01*
X-95648D01*
X-94996Y-44502D01*
X-94498Y-44004D01*
X-94228Y-43352D01*
Y-42648D01*
X-94498Y-41996D01*
X-94996Y-41498D01*
X-95648Y-41228D01*
D02*
G37*
G36*
X-90148Y-43228D02*
X-90852D01*
X-91504Y-43498D01*
X-92002Y-43996D01*
X-92272Y-44648D01*
Y-45352D01*
X-92002Y-46004D01*
X-91504Y-46502D01*
X-90852Y-46772D01*
X-90148D01*
X-89496Y-46502D01*
X-88998Y-46004D01*
X-88728Y-45352D01*
Y-44648D01*
X-88998Y-43996D01*
X-89496Y-43498D01*
X-90148Y-43228D01*
D02*
G37*
G36*
X-83648Y-5728D02*
X-84352D01*
X-85004Y-5998D01*
X-85502Y-6496D01*
X-85772Y-7148D01*
Y-7852D01*
X-85502Y-8504D01*
X-85310Y-8695D01*
X-85276Y-8751D01*
X-85246Y-8783D01*
X-85241Y-8789D01*
X-85237Y-8795D01*
X-85232Y-8805D01*
X-85226Y-8819D01*
X-85220Y-8838D01*
X-85214Y-8864D01*
X-85208Y-8898D01*
X-85205Y-8940D01*
X-85202Y-9013D01*
X-85170Y-9155D01*
X-85142Y-9297D01*
X-85135Y-9307D01*
X-85132Y-9319D01*
X-85048Y-9437D01*
X-84968Y-9557D01*
X-84958Y-9564D01*
X-84951Y-9574D01*
X-84918Y-9595D01*
Y-22620D01*
X-110880Y-48582D01*
X-202105D01*
X-202368Y-48189D01*
X-202228Y-47852D01*
Y-47148D01*
X-202498Y-46496D01*
X-202996Y-45998D01*
X-203648Y-45728D01*
X-204352D01*
X-205004Y-45998D01*
X-205502Y-46496D01*
X-205772Y-47148D01*
Y-47852D01*
X-205756Y-47889D01*
X-206090Y-48112D01*
X-208851Y-45351D01*
X-209149Y-45152D01*
X-209500Y-45082D01*
X-287405D01*
X-287426Y-45049D01*
X-287436Y-45042D01*
X-287442Y-45032D01*
X-287563Y-44952D01*
X-287681Y-44868D01*
X-287693Y-44865D01*
X-287703Y-44858D01*
X-287845Y-44830D01*
X-287987Y-44798D01*
X-288060Y-44795D01*
X-288102Y-44791D01*
X-288136Y-44786D01*
X-288162Y-44780D01*
X-288181Y-44774D01*
X-288195Y-44768D01*
X-288205Y-44763D01*
X-288211Y-44759D01*
X-288217Y-44754D01*
X-288249Y-44724D01*
X-288305Y-44690D01*
X-288496Y-44498D01*
X-289148Y-44228D01*
X-289852D01*
X-290504Y-44498D01*
X-291002Y-44996D01*
X-291272Y-45648D01*
Y-46352D01*
X-291002Y-47004D01*
X-290504Y-47502D01*
X-289852Y-47772D01*
X-289148D01*
X-288496Y-47502D01*
X-288305Y-47310D01*
X-288249Y-47276D01*
X-288217Y-47246D01*
X-288211Y-47241D01*
X-288205Y-47237D01*
X-288195Y-47232D01*
X-288181Y-47226D01*
X-288162Y-47220D01*
X-288136Y-47214D01*
X-288102Y-47208D01*
X-288060Y-47205D01*
X-287987Y-47203D01*
X-287845Y-47170D01*
X-287703Y-47142D01*
X-287693Y-47135D01*
X-287681Y-47132D01*
X-287563Y-47048D01*
X-287442Y-46968D01*
X-287436Y-46958D01*
X-287426Y-46951D01*
X-287405Y-46918D01*
X-209880D01*
X-206649Y-50149D01*
X-206351Y-50348D01*
X-206000Y-50418D01*
X-110500D01*
X-110149Y-50348D01*
X-109851Y-50149D01*
X-83351Y-23649D01*
X-83152Y-23351D01*
X-83082Y-23000D01*
Y-9595D01*
X-83049Y-9574D01*
X-83042Y-9564D01*
X-83032Y-9557D01*
X-82952Y-9437D01*
X-82868Y-9319D01*
X-82865Y-9307D01*
X-82858Y-9297D01*
X-82830Y-9155D01*
X-82797Y-9013D01*
X-82795Y-8940D01*
X-82792Y-8898D01*
X-82786Y-8864D01*
X-82780Y-8838D01*
X-82774Y-8819D01*
X-82768Y-8805D01*
X-82763Y-8795D01*
X-82759Y-8789D01*
X-82754Y-8783D01*
X-82724Y-8751D01*
X-82690Y-8695D01*
X-82498Y-8504D01*
X-82228Y-7852D01*
Y-7148D01*
X-82498Y-6496D01*
X-82996Y-5998D01*
X-83648Y-5728D01*
D02*
G37*
G36*
X-75776Y-42234D02*
X-76480D01*
X-77131Y-42503D01*
X-77630Y-43002D01*
X-77900Y-43653D01*
Y-44358D01*
X-77630Y-45009D01*
X-77250Y-45389D01*
X-77235Y-45408D01*
X-77216Y-45423D01*
X-77213Y-45437D01*
X-77208Y-45461D01*
X-77205Y-45497D01*
X-77202Y-45568D01*
X-77192Y-45612D01*
X-77195Y-45656D01*
X-77157Y-45763D01*
X-77131Y-45873D01*
X-77105Y-45909D01*
X-77090Y-45952D01*
X-77015Y-46036D01*
X-76949Y-46128D01*
X-76918Y-46147D01*
Y-50620D01*
X-83264Y-56967D01*
X-126787D01*
X-127403Y-56351D01*
X-127701Y-56152D01*
X-128052Y-56082D01*
X-139696D01*
X-139765Y-56037D01*
X-140116Y-55967D01*
X-276579D01*
X-276931Y-56037D01*
X-277228Y-56235D01*
X-294743Y-73750D01*
X-301866Y-80873D01*
X-301905Y-80865D01*
X-301916Y-80867D01*
X-301928Y-80864D01*
X-302070Y-80893D01*
X-302213Y-80917D01*
X-302224Y-80923D01*
X-302235Y-80925D01*
X-302356Y-81006D01*
X-302479Y-81083D01*
X-302532Y-81134D01*
X-302565Y-81160D01*
X-302593Y-81181D01*
X-302615Y-81195D01*
X-302634Y-81204D01*
X-302647Y-81209D01*
X-302657Y-81213D01*
X-302665Y-81214D01*
X-302673Y-81215D01*
X-302717Y-81217D01*
X-302780Y-81232D01*
X-303051D01*
X-303702Y-81502D01*
X-304201Y-82000D01*
X-304470Y-82651D01*
Y-83356D01*
X-304201Y-84007D01*
X-303702Y-84505D01*
X-303051Y-84775D01*
X-302346D01*
X-301695Y-84505D01*
X-301197Y-84007D01*
X-300927Y-83356D01*
Y-83085D01*
X-300912Y-83021D01*
X-300911Y-82977D01*
X-300910Y-82970D01*
X-300908Y-82962D01*
X-300905Y-82952D01*
X-300899Y-82938D01*
X-300890Y-82920D01*
X-300876Y-82897D01*
X-300856Y-82869D01*
X-300829Y-82837D01*
X-300778Y-82784D01*
X-300701Y-82661D01*
X-300621Y-82540D01*
X-300618Y-82528D01*
X-300612Y-82518D01*
X-300588Y-82375D01*
X-300559Y-82233D01*
X-300562Y-82221D01*
X-300560Y-82209D01*
X-300569Y-82171D01*
X-293191Y-74793D01*
X-276199Y-57802D01*
X-140420D01*
X-140351Y-57848D01*
X-140000Y-57918D01*
X-128432D01*
X-127816Y-58533D01*
X-127519Y-58732D01*
X-127168Y-58802D01*
X-82884D01*
X-82533Y-58732D01*
X-82235Y-58533D01*
X-75351Y-51649D01*
X-75152Y-51351D01*
X-75082Y-51000D01*
Y-46031D01*
X-75047Y-46009D01*
X-75008Y-45953D01*
X-74957Y-45908D01*
X-74918Y-45826D01*
X-74866Y-45753D01*
X-74851Y-45686D01*
X-74822Y-45625D01*
X-74817Y-45535D01*
X-74797Y-45447D01*
X-74796Y-45370D01*
X-74792Y-45320D01*
X-74786Y-45276D01*
X-74778Y-45239D01*
X-74770Y-45207D01*
X-74761Y-45180D01*
X-74751Y-45158D01*
X-74742Y-45139D01*
X-74732Y-45123D01*
X-74710Y-45093D01*
X-74626Y-45009D01*
X-74356Y-44358D01*
Y-43653D01*
X-74626Y-43002D01*
X-75124Y-42503D01*
X-75776Y-42234D01*
D02*
G37*
%LPD*%
G36*
X-218703Y15311D02*
X-218762Y15366D01*
X-218825Y15415D01*
X-218893Y15458D01*
X-218965Y15496D01*
X-219041Y15528D01*
X-219122Y15554D01*
X-219208Y15574D01*
X-219297Y15588D01*
X-219391Y15597D01*
X-219490Y15600D01*
Y16400D01*
X-219391Y16403D01*
X-219297Y16412D01*
X-219208Y16426D01*
X-219122Y16446D01*
X-219041Y16472D01*
X-218965Y16504D01*
X-218893Y16542D01*
X-218825Y16585D01*
X-218762Y16634D01*
X-218703Y16689D01*
Y15311D01*
D02*
G37*
G36*
X-122010Y6516D02*
X-122090Y6513D01*
X-122170Y6503D01*
X-122248Y6486D01*
X-122326Y6461D01*
X-122402Y6430D01*
X-122478Y6391D01*
X-122553Y6345D01*
X-122626Y6292D01*
X-122699Y6231D01*
X-122771Y6164D01*
X-123336Y6729D01*
X-123269Y6801D01*
X-123208Y6874D01*
X-123155Y6947D01*
X-123109Y7022D01*
X-123070Y7098D01*
X-123039Y7174D01*
X-123014Y7252D01*
X-122997Y7330D01*
X-122987Y7410D01*
X-122984Y7490D01*
X-122010Y6516D01*
D02*
G37*
G36*
X-183520Y7139D02*
X-183495Y7064D01*
X-183465Y6990D01*
X-183429Y6916D01*
X-183388Y6843D01*
X-183342Y6771D01*
X-183290Y6699D01*
X-183171Y6556D01*
X-183103Y6485D01*
X-183522Y5773D01*
X-183595Y5841D01*
X-183669Y5900D01*
X-183742Y5950D01*
X-183816Y5991D01*
X-183890Y6022D01*
X-183965Y6045D01*
X-184040Y6058D01*
X-184115Y6063D01*
X-184191Y6058D01*
X-184267Y6044D01*
X-183539Y7214D01*
X-183520Y7139D01*
D02*
G37*
G36*
X-184256Y-2672D02*
X-184244Y-2679D01*
X-184224Y-2685D01*
X-184198Y-2689D01*
X-184166Y-2694D01*
X-184079Y-2700D01*
X-183897Y-2703D01*
Y-3503D01*
X-184455Y-3497D01*
X-184261Y-2665D01*
X-184256Y-2672D01*
D02*
G37*
G36*
X-193541Y-4144D02*
X-193531Y-4224D01*
X-193513Y-4302D01*
X-193489Y-4380D01*
X-193457Y-4456D01*
X-193419Y-4532D01*
X-193372Y-4607D01*
X-193319Y-4680D01*
X-193259Y-4753D01*
X-193191Y-4825D01*
X-193757Y-5390D01*
X-193829Y-5323D01*
X-193901Y-5262D01*
X-193975Y-5209D01*
X-194050Y-5163D01*
X-194125Y-5124D01*
X-194202Y-5093D01*
X-194279Y-5068D01*
X-194358Y-5051D01*
X-194437Y-5041D01*
X-194518Y-5038D01*
X-193543Y-4064D01*
X-193541Y-4144D01*
D02*
G37*
G36*
X-137203Y-8189D02*
X-137262Y-8134D01*
X-137325Y-8085D01*
X-137393Y-8042D01*
X-137465Y-8004D01*
X-137541Y-7972D01*
X-137622Y-7946D01*
X-137707Y-7926D01*
X-137797Y-7912D01*
X-137891Y-7903D01*
X-137990Y-7900D01*
Y-7100D01*
X-137891Y-7097D01*
X-137797Y-7088D01*
X-137707Y-7074D01*
X-137622Y-7054D01*
X-137541Y-7028D01*
X-137465Y-6996D01*
X-137393Y-6958D01*
X-137325Y-6915D01*
X-137262Y-6866D01*
X-137203Y-6811D01*
Y-8189D01*
D02*
G37*
G36*
X-195513Y-10090D02*
X-195503Y-10170D01*
X-195486Y-10248D01*
X-195461Y-10326D01*
X-195430Y-10402D01*
X-195391Y-10478D01*
X-195345Y-10553D01*
X-195292Y-10626D01*
X-195231Y-10699D01*
X-195164Y-10771D01*
X-195729Y-11336D01*
X-195801Y-11269D01*
X-195874Y-11208D01*
X-195947Y-11155D01*
X-196022Y-11109D01*
X-196098Y-11070D01*
X-196174Y-11039D01*
X-196252Y-11014D01*
X-196330Y-10997D01*
X-196410Y-10987D01*
X-196490Y-10984D01*
X-195516Y-10010D01*
X-195513Y-10090D01*
D02*
G37*
G36*
X-137692Y-15989D02*
X-137619Y-16049D01*
X-137546Y-16102D01*
X-137471Y-16148D01*
X-137396Y-16187D01*
X-137319Y-16219D01*
X-137241Y-16243D01*
X-137163Y-16260D01*
X-137083Y-16270D01*
X-137003Y-16273D01*
X-137977Y-17247D01*
X-137980Y-17167D01*
X-137990Y-17088D01*
X-138007Y-17009D01*
X-138032Y-16932D01*
X-138063Y-16855D01*
X-138102Y-16779D01*
X-138148Y-16705D01*
X-138201Y-16631D01*
X-138262Y-16558D01*
X-138330Y-16487D01*
X-137764Y-15921D01*
X-137692Y-15989D01*
D02*
G37*
G36*
X-65510Y-2984D02*
X-65590Y-2987D01*
X-65670Y-2997D01*
X-65748Y-3014D01*
X-65826Y-3039D01*
X-65902Y-3070D01*
X-65978Y-3109D01*
X-66053Y-3155D01*
X-66126Y-3208D01*
X-66199Y-3269D01*
X-66271Y-3336D01*
X-66836Y-2771D01*
X-66769Y-2699D01*
X-66708Y-2626D01*
X-66655Y-2553D01*
X-66609Y-2478D01*
X-66570Y-2402D01*
X-66539Y-2326D01*
X-66514Y-2248D01*
X-66497Y-2170D01*
X-66487Y-2090D01*
X-66484Y-2010D01*
X-65510Y-2984D01*
D02*
G37*
G36*
X-292146Y-52376D02*
X-292083Y-52425D01*
X-292016Y-52468D01*
X-291944Y-52506D01*
X-291867Y-52538D01*
X-291786Y-52564D01*
X-291701Y-52584D01*
X-291611Y-52598D01*
X-291517Y-52607D01*
X-291418Y-52610D01*
Y-53410D01*
X-291517Y-53413D01*
X-291611Y-53421D01*
X-291701Y-53436D01*
X-291786Y-53456D01*
X-291867Y-53482D01*
X-291944Y-53514D01*
X-292016Y-53551D01*
X-292083Y-53595D01*
X-292146Y-53644D01*
X-292205Y-53699D01*
Y-52321D01*
X-292146Y-52376D01*
D02*
G37*
G36*
X-318209Y-899D02*
X-318131Y-967D01*
X-318052Y-1027D01*
X-317972Y-1079D01*
X-317890Y-1124D01*
X-317807Y-1160D01*
X-317723Y-1188D01*
X-317638Y-1208D01*
X-317552Y-1220D01*
X-317465Y-1224D01*
X-317475Y-1808D01*
X-317561Y-1811D01*
X-317647Y-1823D01*
X-317733Y-1843D01*
X-317817Y-1870D01*
X-317901Y-1906D01*
X-317984Y-1949D01*
X-318066Y-2000D01*
X-318148Y-2059D01*
X-318228Y-2125D01*
X-318308Y-2200D01*
X-318286Y-822D01*
X-318209Y-899D01*
D02*
G37*
G36*
Y-3867D02*
X-318131Y-3935D01*
X-318052Y-3996D01*
X-317972Y-4048D01*
X-317890Y-4092D01*
X-317807Y-4128D01*
X-317723Y-4156D01*
X-317638Y-4177D01*
X-317552Y-4188D01*
X-317465Y-4192D01*
X-317475Y-4776D01*
X-317561Y-4780D01*
X-317647Y-4792D01*
X-317733Y-4811D01*
X-317817Y-4839D01*
X-317901Y-4874D01*
X-317984Y-4917D01*
X-318066Y-4968D01*
X-318148Y-5027D01*
X-318228Y-5094D01*
X-318308Y-5169D01*
X-318286Y-3791D01*
X-318209Y-3867D01*
D02*
G37*
G36*
X-136727Y-28856D02*
X-136787Y-28844D01*
X-136943Y-28823D01*
X-137148Y-28808D01*
X-137869Y-28792D01*
X-138025Y-28208D01*
X-137930Y-28204D01*
X-137844Y-28191D01*
X-137767Y-28170D01*
X-137698Y-28140D01*
X-137639Y-28102D01*
X-137589Y-28055D01*
X-137548Y-28000D01*
X-137515Y-27936D01*
X-137492Y-27864D01*
X-137478Y-27783D01*
X-136727Y-28856D01*
D02*
G37*
G36*
X-134347Y-31001D02*
X-134402Y-30916D01*
X-134460Y-30841D01*
X-134523Y-30774D01*
X-134590Y-30716D01*
X-134660Y-30667D01*
X-134735Y-30627D01*
X-134813Y-30596D01*
X-134896Y-30574D01*
X-134983Y-30561D01*
X-135073Y-30556D01*
X-134922Y-29973D01*
X-134840Y-29970D01*
X-134757Y-29960D01*
X-134671Y-29945D01*
X-134584Y-29923D01*
X-134494Y-29895D01*
X-134403Y-29861D01*
X-134214Y-29774D01*
X-134117Y-29722D01*
X-134018Y-29663D01*
X-134347Y-31001D01*
D02*
G37*
G36*
X-83366Y-8262D02*
X-83415Y-8325D01*
X-83458Y-8393D01*
X-83496Y-8465D01*
X-83528Y-8541D01*
X-83554Y-8622D01*
X-83574Y-8708D01*
X-83588Y-8797D01*
X-83597Y-8891D01*
X-83600Y-8990D01*
X-84400D01*
X-84403Y-8891D01*
X-84412Y-8797D01*
X-84426Y-8708D01*
X-84446Y-8622D01*
X-84472Y-8541D01*
X-84504Y-8465D01*
X-84542Y-8393D01*
X-84585Y-8325D01*
X-84634Y-8262D01*
X-84689Y-8203D01*
X-83311D01*
X-83366Y-8262D01*
D02*
G37*
G36*
X-288738Y-45366D02*
X-288675Y-45415D01*
X-288607Y-45458D01*
X-288535Y-45496D01*
X-288459Y-45528D01*
X-288378Y-45554D01*
X-288293Y-45574D01*
X-288203Y-45588D01*
X-288109Y-45597D01*
X-288010Y-45600D01*
Y-46400D01*
X-288109Y-46403D01*
X-288203Y-46412D01*
X-288293Y-46426D01*
X-288378Y-46446D01*
X-288459Y-46472D01*
X-288535Y-46504D01*
X-288607Y-46542D01*
X-288675Y-46585D01*
X-288738Y-46634D01*
X-288797Y-46689D01*
Y-45311D01*
X-288738Y-45366D01*
D02*
G37*
G36*
X-75400Y-44678D02*
X-75442Y-44746D01*
X-75479Y-44818D01*
X-75511Y-44894D01*
X-75538Y-44973D01*
X-75561Y-45057D01*
X-75578Y-45144D01*
X-75590Y-45234D01*
X-75598Y-45329D01*
X-75600Y-45427D01*
X-76400Y-45542D01*
X-76403Y-45443D01*
X-76413Y-45349D01*
X-76429Y-45261D01*
X-76451Y-45177D01*
X-76480Y-45100D01*
X-76515Y-45027D01*
X-76557Y-44960D01*
X-76605Y-44899D01*
X-76659Y-44843D01*
X-76720Y-44792D01*
X-75353Y-44613D01*
X-75400Y-44678D01*
D02*
G37*
G36*
X-301362Y-82233D02*
X-301430Y-82305D01*
X-301490Y-82377D01*
X-301544Y-82451D01*
X-301590Y-82525D01*
X-301628Y-82601D01*
X-301660Y-82678D01*
X-301684Y-82755D01*
X-301702Y-82834D01*
X-301712Y-82913D01*
X-301714Y-82994D01*
X-302689Y-82019D01*
X-302608Y-82016D01*
X-302529Y-82007D01*
X-302450Y-81989D01*
X-302373Y-81965D01*
X-302296Y-81933D01*
X-302221Y-81894D01*
X-302146Y-81848D01*
X-302073Y-81795D01*
X-302000Y-81735D01*
X-301928Y-81667D01*
X-301362Y-82233D01*
D02*
G37*
D68*
X77075Y16105D02*
G03*
X73100Y14894I-2172J0D01*
G01*
X76900Y15251D02*
G03*
X77075Y16105I-1997J853D01*
G01*
X67300Y14500D02*
G03*
X66919Y15419I-1300J0D01*
G01*
X64666Y18150D02*
G03*
X62350Y15834I-2166J-150D01*
G01*
X67300Y14500D02*
G03*
X66919Y15419I-1300J0D01*
G01*
X58138Y22574D02*
G03*
X58672Y24000I-1638J1426D01*
G01*
D02*
G03*
X54334Y24150I-2172J0D01*
G01*
X77172Y-28500D02*
G03*
X76900Y-27448I-2172J0D01*
G01*
X75506Y-30612D02*
G03*
X77172Y-28500I-506J2112D01*
G01*
X74500Y-30900D02*
G03*
X75506Y-30612I0J1900D01*
G01*
X74500Y-30900D02*
G03*
X75506Y-30612I0J1900D01*
G01*
X63172Y-17500D02*
G03*
X61150Y-15334I-2172J0D01*
G01*
X55200Y-13000D02*
G03*
X55581Y-13919I1300J0D01*
G01*
X55200Y-13000D02*
G03*
X55581Y-13919I1300J0D01*
G01*
X58833Y-17650D02*
G03*
X63172Y-17500I2166J150D01*
G01*
X66919Y-24419D02*
G03*
X67300Y-23500I-919J919D01*
G01*
X66919Y-24419D02*
G03*
X67300Y-23500I-919J919D01*
G01*
X65087Y-27100D02*
G03*
X65166Y-26650I-2087J600D01*
G01*
X62850Y-24333D02*
G03*
X60913Y-27100I150J-2166D01*
G01*
X54157Y-30343D02*
G03*
X55500Y-30900I1343J1343D01*
G01*
X54154Y-30341D02*
G03*
X55500Y-30900I1346J1341D01*
G01*
X44574Y18362D02*
G03*
X48172Y20000I1426J1638D01*
G01*
D02*
G03*
X44574Y21638I-2172J0D01*
G01*
X44000Y10200D02*
G03*
X44919Y10581I0J1300D01*
G01*
X44000Y10200D02*
G03*
X44919Y10581I0J1300D01*
G01*
X4000Y15300D02*
G03*
X3081Y14919I0J-1300D01*
G01*
X23919D02*
G03*
X23000Y15300I-919J-919D01*
G01*
X4000D02*
G03*
X3081Y14919I0J-1300D01*
G01*
X-7500Y21300D02*
G03*
X-8419Y20919I0J-1300D01*
G01*
X-7500Y21300D02*
G03*
X-8419Y20919I0J-1300D01*
G01*
X23919Y14919D02*
G03*
X23000Y15300I-919J-919D01*
G01*
X24581Y10581D02*
G03*
X25500Y10200I919J919D01*
G01*
X24581Y10581D02*
G03*
X25500Y10200I919J919D01*
G01*
X23530Y-3500D02*
G03*
X23530Y-3500I-11030J0D01*
G01*
X46343Y-17156D02*
G03*
X45000Y-16600I-1343J-1343D01*
G01*
X46346Y-17159D02*
G03*
X45000Y-16600I-1346J-1341D01*
G01*
X-307500Y-31700D02*
G03*
X-308419Y-32081I0J-1300D01*
G01*
X-307500Y-31700D02*
G03*
X-308419Y-32081I0J-1300D01*
G01*
X-313970Y-33000D02*
G03*
X-316559Y-25900I-11030J0D01*
G01*
X-317419Y-41081D02*
G03*
X-317800Y-42000I919J-919D01*
G01*
X-315581Y-51919D02*
G03*
X-315200Y-51000I-919J919D01*
G01*
X-317419Y-41081D02*
G03*
X-317800Y-42000I919J-919D01*
G01*
X-313000Y-58800D02*
G03*
X-312081Y-58419I0J1300D01*
G01*
X-313000Y-58800D02*
G03*
X-312081Y-58419I0J1300D01*
G01*
X-315581Y-51919D02*
G03*
X-315200Y-51000I-919J919D01*
G01*
X-320000Y-56200D02*
G03*
X-319581Y-55919I-500J1200D01*
G01*
X-320000Y-56200D02*
G03*
X-319581Y-55919I-500J1200D01*
G01*
X-333441Y-25900D02*
G03*
X-313970Y-33000I8441J-7100D01*
G01*
X-341334Y-48850D02*
G03*
X-343650Y-51166I-2166J-150D01*
G01*
X-338419Y-55919D02*
G03*
X-338000Y-56200I919J919D01*
G01*
X-338419Y-55919D02*
G03*
X-338000Y-56200I919J919D01*
G01*
X-344097Y-55018D02*
G03*
X-348337Y-54519I-2166J-150D01*
G01*
X75963Y18000D02*
X78600D01*
Y0D02*
Y22506D01*
X76900Y14000D02*
X78600D01*
X66006Y35100D02*
X78600Y22506D01*
X57994Y22000D02*
X78600D01*
X57346Y26000D02*
X75106D01*
X64755Y18000D02*
X73843D01*
X67300Y10000D02*
X73100D01*
X76900Y2000D02*
X78600D01*
X76900Y-2000D02*
X78600D01*
X76900Y6000D02*
X78600D01*
X76900Y-10000D02*
X78600D01*
X76900Y-6000D02*
X78600D01*
X76900Y10000D02*
X78600D01*
X67300Y2000D02*
X73100D01*
X67300Y6000D02*
X73100D01*
X67300Y-10000D02*
X73100D01*
X67300Y-6000D02*
X73100D01*
X65032Y17307D02*
X66919Y15419D01*
X63193Y15468D02*
X64700Y13961D01*
X57800Y18000D02*
X60328D01*
X57800Y-12461D02*
Y21720D01*
X55200Y-13000D02*
Y20862D01*
X67300Y14000D02*
X73100D01*
X67300Y-2000D02*
X73100D01*
X57800D02*
X64700D01*
X57800Y-10000D02*
X64700D01*
X57800Y-6000D02*
X64700D01*
X57800Y10000D02*
X64700D01*
X57800Y14000D02*
X64662D01*
X57800Y2000D02*
X64700D01*
X57800Y6000D02*
X64700D01*
X76900Y-18000D02*
X78600D01*
X76900Y-22000D02*
X78600D01*
X76900Y-14000D02*
X78600D01*
Y-47006D02*
Y0D01*
X76900Y-27448D02*
Y15251D01*
X67300Y-18000D02*
X73100D01*
X67300Y-22000D02*
X73100D01*
X67300Y-14000D02*
X73100D01*
Y-27100D02*
Y14894D01*
X67300Y-23500D02*
Y14500D01*
X76900Y-26000D02*
X78600D01*
X76570Y-30000D02*
X78600D01*
X65087Y-27100D02*
X73100D01*
X55500Y-30900D02*
X74500D01*
X65495Y-26000D02*
X73100D01*
X66006Y-59600D02*
X78600Y-47006D01*
X59338Y-14000D02*
X64700D01*
X63113Y-18000D02*
X64700D01*
X63693Y-23968D02*
X64700Y-22962D01*
Y13961D01*
X57800Y-12461D02*
X60307Y-14968D01*
X55581Y-13919D02*
X58468Y-16807D01*
X65532Y-25807D02*
X66919Y-24419D01*
X56287Y-27100D02*
X60913D01*
X55187Y-26000D02*
X60887D01*
X46846Y22000D02*
X52662D01*
X44919Y10581D02*
X55200Y20862D01*
X43461Y12800D02*
X53968Y23307D01*
X-10600Y34000D02*
X67106D01*
X-10600Y30000D02*
X71106D01*
X-10600Y35100D02*
X66006D01*
X-10600Y26000D02*
X55654D01*
X-10600Y22000D02*
X45154D01*
X52338Y18000D02*
X55200D01*
X48338Y14000D02*
X55200D01*
X46846Y18000D02*
X48662D01*
X-7661D02*
X45154D01*
X24838Y14000D02*
X44662D01*
X-6961Y18700D02*
X43720D01*
X1839Y10000D02*
X55200D01*
X25500Y10200D02*
X44000D01*
X-7500Y21300D02*
X43720D01*
X4000Y15300D02*
X23000D01*
X-10600Y18738D02*
Y35100D01*
Y15062D02*
X-6961Y18700D01*
X-10600Y18738D02*
X-8419Y20919D01*
X23919Y14919D02*
X26039Y12800D01*
X43461D01*
X4538Y12700D02*
X22461D01*
X-10600Y14000D02*
X2162D01*
X22461Y12700D02*
X24581Y10581D01*
X-10600Y10000D02*
X-1839D01*
X47187Y-18000D02*
X58887D01*
X51187Y-22000D02*
X64700D01*
X23427Y-2000D02*
X55200D01*
X46346Y-17159D02*
X56287Y-27100D01*
X44213Y-20400D02*
X54154Y-30341D01*
X22061Y2000D02*
X55200D01*
X23243Y-6000D02*
X55200D01*
X18104Y6000D02*
X55200D01*
X15878Y-14000D02*
X55661D01*
X21411Y-10000D02*
X55200D01*
X-10600Y-46000D02*
X78600D01*
X-10600Y-50000D02*
X75606D01*
X-10600Y-54000D02*
X71606D01*
X-10600Y-58000D02*
X67606D01*
X-10600Y-59600D02*
X66006D01*
X-10600Y-30000D02*
X53813D01*
X-10600Y-34000D02*
X78600D01*
X-10600Y-26000D02*
X49813D01*
X-10600Y-42000D02*
X78600D01*
X-10600Y-38000D02*
X78600D01*
X-2162Y6000D02*
X6896D01*
X-6162Y2000D02*
X2939D01*
X-10161Y-2000D02*
X1573D01*
X-10581Y-2419D02*
X4538Y12700D01*
X-10600Y6000D02*
X-5838D01*
X-10600Y2000D02*
X-9838D01*
X-10600Y1238D02*
Y15062D01*
Y1238D02*
X3081Y14919D01*
X-10600Y-16600D02*
Y-2438D01*
Y-20400D02*
X44213D01*
X-10600Y-22000D02*
X45813D01*
X-10600Y-59600D02*
Y-20400D01*
Y-10000D02*
X3589D01*
X-10600Y-6000D02*
X1757D01*
X-10600Y-16600D02*
X45000D01*
X-10600Y-14000D02*
X9122D01*
X-307500Y-31700D02*
Y-25900D01*
X-314386Y-30000D02*
X-307500D01*
X-316476Y-26000D02*
X-307500D01*
X-316559Y-25900D02*
X-307500D01*
X-317419Y-41081D02*
X-308419Y-32081D01*
X-314662Y-42000D02*
X-307500D01*
X-310662Y-38000D02*
X-307500D01*
Y-50161D02*
Y-34839D01*
X-315200Y-46000D02*
X-307500D01*
X-315200Y-42538D02*
X-307500Y-34839D01*
X-315200Y-50000D02*
X-307500D01*
X-314016Y-34000D02*
X-310338D01*
X-314500Y-29622D02*
Y-25900D01*
X-310500Y-34161D02*
Y-25900D01*
X-314500Y-38162D02*
Y-36378D01*
X-315168Y-38000D02*
X-314338D01*
X-315200Y-51000D02*
Y-42538D01*
X-317800Y-50462D02*
Y-42000D01*
X-318623D02*
X-317800D01*
X-318500Y-51161D02*
Y-41911D01*
X-311662Y-58000D02*
X-307500D01*
X-310500Y-53162D02*
Y-37839D01*
X-307500Y-53838D02*
X-307500Y-88600D01*
X-310500D02*
Y-56839D01*
X-313539Y-56200D02*
X-307500Y-50161D01*
X-317661Y-54000D02*
X-311338D01*
X-312081Y-58419D02*
X-307500Y-53838D01*
X-314256Y-88600D02*
X-307500D01*
X-320856Y-82000D02*
X-307500D01*
X-324856Y-78000D02*
X-307500D01*
X-316856Y-86000D02*
X-307500D01*
X-318500Y-56200D02*
Y-54839D01*
X-314500Y-56200D02*
Y-41838D01*
X-321039Y-53700D02*
X-317800Y-50462D01*
X-322500Y-53700D02*
Y-43743D01*
X-319581Y-55919D02*
X-315581Y-51919D01*
X-320000Y-56200D02*
X-313539D01*
X-318500Y-84356D02*
Y-58800D01*
X-314500Y-88356D02*
Y-58800D01*
X-322500Y-80356D02*
Y-58800D01*
X-334500Y-27396D02*
Y-25900D01*
X-367100Y-34000D02*
X-335984D01*
X-364856Y-38000D02*
X-334832D01*
X-367100Y-25900D02*
X-333441D01*
X-367100Y-26000D02*
X-333524D01*
X-367100Y-30000D02*
X-335614D01*
X-340662Y-50000D02*
X-317800D01*
X-330500Y-53700D02*
Y-42561D01*
X-326500Y-53700D02*
Y-43927D01*
X-356856Y-46000D02*
X-317800D01*
X-360856Y-42000D02*
X-331377D01*
X-340968Y-49693D02*
X-336962Y-53700D01*
X-354500Y-48356D02*
Y-25900D01*
X-358500Y-44356D02*
Y-25900D01*
X-350500Y-52356D02*
Y-25900D01*
X-366500Y-36356D02*
Y-25900D01*
X-367100Y-35756D02*
Y-25900D01*
X-362500Y-40356D02*
Y-25900D01*
X-342500Y-47072D02*
Y-25900D01*
X-338500Y-52162D02*
Y-25900D01*
X-352856Y-50000D02*
X-345428D01*
X-367100Y-35756D02*
X-363053Y-39803D01*
X-346500Y-53008D02*
Y-25900D01*
X-334500Y-68356D02*
Y-58800D01*
Y-53700D02*
Y-38604D01*
X-326500Y-76356D02*
Y-58800D01*
X-330500Y-72356D02*
Y-58800D01*
X-336962Y-53700D02*
X-321039D01*
X-332856Y-70000D02*
X-307500D01*
X-336856Y-66000D02*
X-307500D01*
X-328856Y-74000D02*
X-307500D01*
X-340856Y-62000D02*
X-307500D01*
X-343931Y-58800D02*
X-313000D01*
X-342553Y-60303D02*
X-314256Y-88600D01*
X-342807Y-51532D02*
X-338419Y-55919D01*
X-344432Y-54000D02*
X-340338D01*
X-342500Y-56200D02*
Y-51838D01*
X-348856Y-54000D02*
X-348095D01*
X-363053Y-39803D02*
X-348337Y-54519D01*
X-338500Y-56200D02*
Y-55839D01*
X-342500Y-60356D02*
Y-58800D01*
X-338500Y-64356D02*
Y-58800D01*
X-343392Y-56200D02*
X-338000D01*
X-343732Y-55860D02*
X-343392Y-56200D01*
X-344063Y-58793D02*
X-342553Y-60303D01*
X-247500Y-17000D02*
X-242000Y-11500D01*
Y-11000D01*
X-219224Y11776D02*
X-213724D01*
X-242000Y-11000D02*
X-219224Y11776D01*
X-264276Y-13276D02*
Y-12276D01*
X-236000Y16000D02*
X-226126D01*
X-264276Y-12276D02*
X-236000Y16000D01*
X-264500Y-13500D02*
X-264276Y-13276D01*
X-296981Y-29480D02*
X-295500Y-28000D01*
X-299000Y-31116D02*
X-297365Y-29480D01*
X-296981D01*
X-307500Y-33000D02*
X-265500D01*
X-316500Y-42000D02*
X-307500Y-33000D01*
X-213724Y11776D02*
X-213500Y12000D01*
X-159055Y-4500D02*
X-146000D01*
X-142500Y-1000D01*
X-183000Y-4000D02*
X-166697D01*
X-183897Y-3103D02*
X-183000Y-4000D01*
X-166697D02*
X-164997Y-5700D01*
X-184998Y-3103D02*
X-183897D01*
X-185221Y-2880D02*
X-184998Y-3103D01*
X-48500Y-1500D02*
X-11500D01*
X4000Y14000D01*
X23000D01*
X25500Y11500D01*
X44000D01*
X56500Y24000D01*
X-53500Y7500D02*
X-52500Y8500D01*
X-19000D02*
X-7500Y20000D01*
X-52500Y8500D02*
X-19000D01*
X-7500Y20000D02*
X46000D01*
X56500Y-13000D02*
Y24000D01*
X-184500Y7000D02*
X-184184D01*
X-183015Y5831D01*
X-182669D01*
X-180500Y8000D01*
X-175000D01*
X-173328Y4328D02*
Y6328D01*
Y4328D02*
X-164500Y-4500D01*
X-175000Y8000D02*
X-173328Y6328D01*
X-164500Y-4500D02*
X-160752D01*
X-152252Y4000D01*
X-164997Y-5700D02*
X-160255D01*
X-159055Y-4500D01*
X-125500Y4000D02*
X-122000Y7500D01*
X-152252Y4000D02*
X-125500D01*
X-76000Y-51000D02*
Y-44000D01*
X-140000Y-57000D02*
X-128052D01*
X-127168Y-57884D01*
X-82884D01*
X-76000Y-51000D01*
X-140116Y-56884D02*
X-140000Y-57000D01*
X-276579Y-56884D02*
X-140116D01*
X-302699Y-83003D02*
X-276579Y-56884D01*
X-292908Y-53010D02*
X-89510D01*
X-83500Y-47000D01*
Y-42500D01*
X-289500Y-46000D02*
X-209500D01*
X-206000Y-49500D02*
X-110500D01*
X-84000Y-23000D01*
X-209500Y-46000D02*
X-206000Y-49500D01*
X-196500Y-10000D02*
X-192000Y-14500D01*
X-139751D01*
X-221801Y16000D02*
X-218000D01*
X-225706Y15580D02*
X-222221D01*
X-221801Y16000D01*
X-226126D02*
X-225706Y15580D01*
X-187082Y-11500D02*
X-177500D01*
X-194528Y-4054D02*
X-187082Y-11500D01*
X-175500Y-9500D02*
X-142500D01*
X-177500Y-11500D02*
X-175500Y-9500D01*
X66000Y-23500D02*
Y14500D01*
X63000Y-26500D02*
X66000Y-23500D01*
X62500Y18000D02*
X66000Y14500D01*
X56500Y-13000D02*
X61000Y-17500D01*
X-316500Y-51000D02*
Y-42000D01*
X-295500Y-40000D02*
X-254000D01*
X-313000Y-57500D02*
X-295500Y-40000D01*
X-254000D02*
X-247000Y-33000D01*
X-343931Y-57500D02*
X-313000D01*
X-320500Y-55000D02*
X-316500Y-51000D01*
X-337500Y-55000D02*
X-320500D01*
X-343500Y-49000D02*
X-337500Y-55000D01*
X-346264Y-55167D02*
X-343931Y-57500D01*
X-84000Y-23000D02*
Y-7500D01*
X-76500Y-13000D02*
X-65500Y-2000D01*
X-76500Y-35500D02*
Y-13000D01*
X-83500Y-42500D02*
X-76500Y-35500D01*
X-76006Y-44006D02*
X-76000Y-44000D01*
X-76128Y-44006D02*
X-76006D01*
X-295500Y-28000D02*
X-214000D01*
X-42500Y23000D02*
X-40500Y21000D01*
X-69000Y23000D02*
X-42500D01*
X-139751Y-14500D02*
X-136993Y-17257D01*
X-142500Y-9500D02*
X-140500Y-7500D01*
X-136500D01*
D70*
X-335923Y-12023D02*
Y6078D01*
X-335500Y6500D01*
D71*
X-58000Y3440D02*
X-42440D01*
X-42000Y3000D01*
X-185046Y9967D02*
X-184407D01*
X-194317Y-29D02*
X-186984Y7304D01*
Y8029D02*
X-185046Y9967D01*
X-186984Y7304D02*
Y8029D01*
X-209487Y-13000D02*
X-201502Y-5016D01*
X-199003D02*
X-194317Y-330D01*
X-201502Y-5016D02*
X-199003D01*
X-214000Y-13000D02*
X-209487D01*
X-194317Y-330D02*
Y-29D01*
X-46000Y-22500D02*
X-45500Y-23000D01*
X-46000Y-22500D02*
Y-18500D01*
X-58000Y3440D02*
Y11000D01*
Y-6500D02*
Y3440D01*
X-214000Y-28000D02*
X-174000D01*
X74903Y16105D02*
X75000Y16008D01*
Y-28500D02*
Y16008D01*
X74500Y-29000D02*
X75000Y-28500D01*
X55500Y-29000D02*
X74500D01*
X-46000Y-18500D02*
X45000D01*
X55500Y-29000D01*
X-58000Y-6500D02*
X-46000Y-18500D01*
X-50500Y18500D02*
Y20500D01*
X-58000Y11000D02*
X-50500Y18500D01*
D74*
X-170028Y7171D02*
Y7695D01*
Y7171D02*
X-162119Y-738D01*
X-184355Y26355D02*
X-170229Y12229D01*
Y7896D02*
X-170028Y7695D01*
X-170229Y7896D02*
Y12229D01*
D75*
X-310736Y-15765D02*
X-306500Y-20000D01*
X-179724Y-21765D02*
X-149731D01*
X-307231D02*
X-181276D01*
X-306500Y-20000D02*
X-149000D01*
X-179764Y-21724D02*
X-179724Y-21765D01*
X-312500Y-16495D02*
X-307231Y-21765D01*
X-181236Y-21724D02*
X-179764D01*
X-149000Y-20000D02*
X-140500Y-28500D01*
X-181276Y-21765D02*
X-181236Y-21724D01*
X-149731Y-21765D02*
X-141231Y-30264D01*
X-319000Y-1500D02*
X-318984Y-1516D01*
X-316625D01*
X-319000Y-4468D02*
X-318984Y-4484D01*
X-133736Y-30264D02*
X-133500Y-30500D01*
X-318984Y-4484D02*
X-316625D01*
Y-1516D02*
X-316023Y-2118D01*
X-314410D01*
X-136500Y-28000D02*
Y-27898D01*
X-316023Y-3882D02*
X-315141D01*
X-312500Y-6523D01*
X-137000Y-28500D02*
X-136500Y-28000D01*
X-314410Y-2118D02*
X-310736Y-5792D01*
X-141231Y-30264D02*
X-133736D01*
X-316625Y-4484D02*
X-316023Y-3882D01*
X-140500Y-28500D02*
X-137000D01*
X-312500Y-16495D02*
Y-6523D01*
X-310736Y-15765D02*
Y-5792D01*
D78*
X-298795Y-52480D02*
D03*
D79*
X-30500Y31000D02*
D03*
D80*
X-40500Y21000D02*
D03*
D81*
X-342661Y-19508D02*
D03*
Y14508D02*
D03*
D82*
X-359000Y-19508D02*
D03*
Y14508D02*
D03*
D84*
X-242616Y5654D02*
D03*
X-262612Y-6648D02*
D03*
X-255305Y6360D02*
D03*
X-267384Y-17969D02*
D03*
X-264500Y-13500D02*
D03*
X-265500Y-33000D02*
D03*
X-295935Y-31116D02*
D03*
X-292500D02*
D03*
X-299000D02*
D03*
X-266384Y5654D02*
D03*
X-248547Y17884D02*
D03*
X-272169Y-6158D02*
D03*
X-242642Y-17969D02*
D03*
X-247500Y-17000D02*
D03*
X-218601Y5235D02*
D03*
X-142500Y-1000D02*
D03*
X-184500Y-8500D02*
D03*
X-154508Y-2116D02*
D03*
X-169500Y-6000D02*
D03*
X-35949Y-6158D02*
D03*
X-42000Y3000D02*
D03*
X-30044Y5654D02*
D03*
X-18233D02*
D03*
X35500Y14000D02*
D03*
X46000Y20000D02*
D03*
X49000Y2000D02*
D03*
X-247116Y-6158D02*
D03*
X-236736Y17884D02*
D03*
X-118626Y17465D02*
D03*
X-196744Y19602D02*
D03*
X-110000Y-500D02*
D03*
X-184500Y7000D02*
D03*
X-184407Y9967D02*
D03*
X-122000Y7500D02*
D03*
X-157000Y-43000D02*
D03*
X-120500Y-55500D02*
D03*
X-199500Y-33500D02*
D03*
X-187000Y33000D02*
D03*
X-152500Y-7000D02*
D03*
X-185221Y-2880D02*
D03*
X-196500Y2000D02*
D03*
X-336000Y11000D02*
D03*
X-284512Y-83707D02*
D03*
X-288000Y-74500D02*
D03*
X-254000Y-60500D02*
D03*
X-276500Y-75500D02*
D03*
X-286000Y-63500D02*
D03*
X13000Y22000D02*
D03*
X29500Y-26000D02*
D03*
X54500Y-34000D02*
D03*
X56258Y-21797D02*
D03*
X42000Y-10000D02*
D03*
X61000Y2000D02*
D03*
X70500Y10000D02*
D03*
X-312500Y-43000D02*
D03*
X-358000Y-31500D02*
D03*
X-329500Y-48000D02*
D03*
X-341000Y-42500D02*
D03*
X-313000Y-81500D02*
D03*
X-325500Y-67000D02*
D03*
X-305000D02*
D03*
X-153500Y-58768D02*
D03*
Y-55000D02*
D03*
X-116000Y-56000D02*
D03*
X-196500Y-10000D02*
D03*
X-202500Y-15000D02*
D03*
X-218000Y16000D02*
D03*
X-213500Y12000D02*
D03*
X-194528Y-4054D02*
D03*
X-121500Y-23000D02*
D03*
X-139358Y-36504D02*
D03*
X-144000Y-31500D02*
D03*
X-134000Y-26000D02*
D03*
X-142500Y-22000D02*
D03*
X-149407Y-26864D02*
D03*
X-269000Y-25000D02*
D03*
X-289500Y-24500D02*
D03*
X-308500Y-25500D02*
D03*
X-313500Y-21000D02*
D03*
X-241000Y-24500D02*
D03*
X-219500Y-25000D02*
D03*
X-191500Y34500D02*
D03*
X-96500Y13000D02*
D03*
X-89542Y11722D02*
D03*
X-103500Y12500D02*
D03*
X-110000D02*
D03*
X-100500Y-9000D02*
D03*
X-95000Y-8500D02*
D03*
X-90000Y-8000D02*
D03*
X-89000Y-1000D02*
D03*
X-53500Y34000D02*
D03*
X-122500Y34500D02*
D03*
X-146000Y33000D02*
D03*
X-133500D02*
D03*
X-331500Y-14500D02*
D03*
Y19000D02*
D03*
X-328000Y6000D02*
D03*
X-316000Y8000D02*
D03*
Y-15000D02*
D03*
X-320500Y-11500D02*
D03*
X-320000Y-18500D02*
D03*
X-335000Y-16000D02*
D03*
X-337000Y-49000D02*
D03*
X-328500Y-52500D02*
D03*
X-294000Y-45000D02*
D03*
X-282500Y-50500D02*
D03*
X-178500Y-40500D02*
D03*
X-170500Y-45000D02*
D03*
X-161139Y-17288D02*
D03*
X-153500Y-17000D02*
D03*
X-173500Y21500D02*
D03*
X-192000Y-40000D02*
D03*
X-185500Y-31500D02*
D03*
X-170000D02*
D03*
X-152000D02*
D03*
X-153000Y-37000D02*
D03*
X-17000Y-29500D02*
D03*
X71500Y-21000D02*
D03*
X72000Y28000D02*
D03*
X56500Y24000D02*
D03*
X62500Y18000D02*
D03*
X-278075Y-41884D02*
D03*
X-266264D02*
D03*
X-254453D02*
D03*
X-247000Y-33000D02*
D03*
X-150508Y82D02*
D03*
X-161008Y7582D02*
D03*
X-18233Y-41591D02*
D03*
X-24138Y-53402D02*
D03*
X-30044Y-41591D02*
D03*
X-35949Y-53402D02*
D03*
X-47760Y-6158D02*
D03*
X-41855Y-41591D02*
D03*
X-47760Y-53402D02*
D03*
X-53666Y-17969D02*
D03*
Y-41591D02*
D03*
X-59571Y-53402D02*
D03*
X-71382Y17465D02*
D03*
X-65477Y5654D02*
D03*
Y-17969D02*
D03*
X-71382Y-29780D02*
D03*
Y-53402D02*
D03*
X-83193Y17465D02*
D03*
X-77288Y5654D02*
D03*
X-83193Y-53402D02*
D03*
X-95004Y17465D02*
D03*
X-89099Y5654D02*
D03*
Y-17969D02*
D03*
X-95004Y-29780D02*
D03*
X-106815Y17465D02*
D03*
X-100910Y-17969D02*
D03*
X-112721Y5654D02*
D03*
X-118626Y-6158D02*
D03*
Y-29780D02*
D03*
X-207209Y5654D02*
D03*
X-213114Y-6158D02*
D03*
X-224925Y17465D02*
D03*
X-219020Y-17969D02*
D03*
Y-41591D02*
D03*
X-230831Y-17969D02*
D03*
Y-41591D02*
D03*
X-242642D02*
D03*
X-260358Y17465D02*
D03*
X-272169D02*
D03*
X-283980D02*
D03*
X-278075Y5654D02*
D03*
Y-17969D02*
D03*
X-295791Y17465D02*
D03*
X-289886Y-17969D02*
D03*
X-307603Y17465D02*
D03*
X-301697Y-17969D02*
D03*
X-313508Y5654D02*
D03*
X-325319Y29276D02*
D03*
X-337130D02*
D03*
X-354847Y17465D02*
D03*
X-348941Y5654D02*
D03*
X-354847Y-6158D02*
D03*
X-348941Y-17969D02*
D03*
X-45500Y-23000D02*
D03*
X-84000Y-7500D02*
D03*
X-289500Y-46000D02*
D03*
X-65500Y-2000D02*
D03*
X-292908Y-53010D02*
D03*
X-214000Y-28000D02*
D03*
Y-13000D02*
D03*
X-76128Y-44006D02*
D03*
X-302699Y-83003D02*
D03*
X74903Y16105D02*
D03*
X75000Y-28500D02*
D03*
X-50500Y20500D02*
D03*
X-53500Y7500D02*
D03*
X63000Y-26500D02*
D03*
X61000Y-17500D02*
D03*
X-48500Y-1500D02*
D03*
X-69000Y23000D02*
D03*
X-346264Y-55167D02*
D03*
X-343500Y-49000D02*
D03*
X-174000Y-28000D02*
D03*
X-136993Y-17257D02*
D03*
X-136500Y-7500D02*
D03*
X-143993Y20604D02*
D03*
X-326000Y13000D02*
D03*
X-335500Y6500D02*
D03*
X-335923Y-12023D02*
D03*
X-319000Y-4468D02*
D03*
Y-1500D02*
D03*
X-133500Y-30500D02*
D03*
X-136500Y-27898D02*
D03*
D85*
X-162119Y-738D02*
D03*
D87*
X-326000Y13000D02*
X-312645Y26355D01*
X-184355D01*
M02*
