G04*
G04 #@! TF.GenerationSoftware,Altium Limited,Altium Designer,24.5.2 (23)*
G04*
G04 Layer_Physical_Order=4*
G04 Layer_Color=16711680*
%FSLAX25Y25*%
%MOIN*%
G70*
G04*
G04 #@! TF.SameCoordinates,F16A58F2-69D1-4175-9934-78DD47C00A05*
G04*
G04*
G04 #@! TF.FilePolarity,Positive*
G04*
G01*
G75*
%ADD68C,0.00800*%
%ADD71C,0.02000*%
%ADD76C,0.26772*%
%ADD77C,0.19685*%
%ADD78C,0.06398*%
%ADD79C,0.05512*%
%ADD80R,0.05512X0.05512*%
%ADD81O,0.08465X0.04134*%
%ADD82O,0.07284X0.04134*%
%ADD83C,0.02756*%
%ADD84C,0.01968*%
%ADD85C,0.04724*%
G36*
X46762Y20634D02*
X46825Y20585D01*
X46893Y20542D01*
X46965Y20504D01*
X47041Y20472D01*
X47122Y20446D01*
X47207Y20426D01*
X47297Y20412D01*
X47391Y20403D01*
X47490Y20400D01*
Y19600D01*
X47391Y19597D01*
X47297Y19588D01*
X47207Y19574D01*
X47122Y19554D01*
X47041Y19528D01*
X46965Y19496D01*
X46893Y19458D01*
X46825Y19415D01*
X46762Y19366D01*
X46703Y19311D01*
Y20689D01*
X46762Y20634D01*
D02*
G37*
G36*
X61801Y19269D02*
X61874Y19208D01*
X61947Y19155D01*
X62022Y19109D01*
X62098Y19070D01*
X62174Y19039D01*
X62252Y19014D01*
X62330Y18997D01*
X62410Y18987D01*
X62490Y18984D01*
X61516Y18010D01*
X61513Y18090D01*
X61503Y18170D01*
X61486Y18248D01*
X61461Y18326D01*
X61430Y18402D01*
X61391Y18478D01*
X61345Y18553D01*
X61292Y18626D01*
X61231Y18699D01*
X61164Y18771D01*
X61729Y19336D01*
X61801Y19269D01*
D02*
G37*
G36*
X-10500Y-59961D02*
X-245500D01*
X-246280Y-60116D01*
X-246942Y-60558D01*
X-275345Y-88961D01*
X-307500D01*
Y-24000D01*
X-319303D01*
X-319429Y-23909D01*
X-320919Y-23149D01*
X-322511Y-22632D01*
X-324163Y-22370D01*
X-325837D01*
X-327489Y-22632D01*
X-329081Y-23149D01*
X-330571Y-23909D01*
X-330697Y-24000D01*
X-367461D01*
Y-12250D01*
Y0D01*
Y11405D01*
X-363308Y15558D01*
X-363308Y15558D01*
X-343405Y35461D01*
X-10500D01*
Y-59961D01*
D02*
G37*
%LPC*%
G36*
X-40034Y34543D02*
X-40966D01*
X-41868Y34302D01*
X-42676Y33835D01*
X-42963Y33548D01*
X-43020Y33512D01*
X-43184Y33357D01*
X-43330Y33239D01*
X-43479Y33137D01*
X-43633Y33049D01*
X-43793Y32975D01*
X-43960Y32914D01*
X-44135Y32867D01*
X-44320Y32832D01*
X-44515Y32811D01*
X-44750Y32802D01*
X-44889Y32770D01*
X-45029Y32742D01*
X-45041Y32734D01*
X-45055Y32730D01*
X-45171Y32647D01*
X-45289Y32568D01*
X-45297Y32556D01*
X-45309Y32547D01*
X-45320Y32529D01*
X-52805D01*
X-53013Y32668D01*
X-53156Y32727D01*
X-53301Y32787D01*
X-53302D01*
X-53302Y32788D01*
X-53458Y32787D01*
X-53614Y32788D01*
X-53615Y32787D01*
X-53615D01*
X-53760Y32727D01*
X-53903Y32668D01*
X-54111Y32529D01*
X-60866D01*
X-61919Y33581D01*
X-62415Y33913D01*
X-63000Y34029D01*
X-118563D01*
X-119148Y34272D01*
X-119852D01*
X-120504Y34002D01*
X-121002Y33504D01*
X-121272Y32852D01*
Y32148D01*
X-121002Y31496D01*
X-120504Y30998D01*
X-119852Y30728D01*
X-119148D01*
X-118563Y30971D01*
X-63634D01*
X-62581Y29919D01*
X-62085Y29587D01*
X-61500Y29471D01*
X-57059D01*
X-57055Y29463D01*
X-56975Y29403D01*
X-56905Y29333D01*
X-56851Y29311D01*
X-56804Y29276D01*
X-56707Y29251D01*
X-56616Y29213D01*
X-56557Y29213D01*
X-56500Y29198D01*
X-56169Y29181D01*
X-55936Y29140D01*
X-55758Y29080D01*
X-55627Y29010D01*
X-55529Y28929D01*
X-55448Y28831D01*
X-55378Y28700D01*
X-55318Y28522D01*
X-55277Y28289D01*
X-55260Y27958D01*
X-55226Y27826D01*
X-55200Y27693D01*
X-55188Y27675D01*
X-55183Y27654D01*
X-55101Y27545D01*
X-55026Y27432D01*
X-55008Y27420D01*
X-54995Y27403D01*
X-54988Y27399D01*
Y23458D01*
X-54871Y22873D01*
X-54540Y22377D01*
X-52244Y20081D01*
X-52002Y19496D01*
X-51504Y18998D01*
X-50852Y18728D01*
X-50148D01*
X-49496Y18998D01*
X-48998Y19496D01*
X-48728Y20148D01*
Y20852D01*
X-48998Y21504D01*
X-49496Y22002D01*
X-50081Y22244D01*
X-51929Y24092D01*
Y27399D01*
X-51921Y27403D01*
X-51908Y27420D01*
X-51890Y27432D01*
X-51815Y27545D01*
X-51733Y27654D01*
X-51728Y27675D01*
X-51716Y27693D01*
X-51690Y27826D01*
X-51656Y27958D01*
X-51639Y28289D01*
X-51598Y28522D01*
X-51538Y28700D01*
X-51468Y28831D01*
X-51388Y28929D01*
X-51289Y29010D01*
X-51158Y29080D01*
X-50980Y29140D01*
X-50747Y29181D01*
X-50416Y29198D01*
X-50359Y29213D01*
X-50301Y29213D01*
X-50209Y29251D01*
X-50112Y29276D01*
X-50065Y29311D01*
X-50011Y29333D01*
X-49941Y29403D01*
X-49861Y29463D01*
X-49857Y29471D01*
X-45320D01*
X-45309Y29453D01*
X-45297Y29444D01*
X-45289Y29432D01*
X-45171Y29353D01*
X-45055Y29269D01*
X-45041Y29266D01*
X-45029Y29258D01*
X-44889Y29230D01*
X-44750Y29198D01*
X-44515Y29189D01*
X-44320Y29168D01*
X-44135Y29133D01*
X-43960Y29086D01*
X-43793Y29025D01*
X-43633Y28951D01*
X-43479Y28863D01*
X-43330Y28761D01*
X-43184Y28643D01*
X-43020Y28488D01*
X-42963Y28452D01*
X-42676Y28165D01*
X-41868Y27698D01*
X-40966Y27457D01*
X-40034D01*
X-39132Y27698D01*
X-38324Y28165D01*
X-37665Y28824D01*
X-37198Y29632D01*
X-36957Y30533D01*
Y31466D01*
X-37198Y32368D01*
X-37665Y33176D01*
X-38324Y33835D01*
X-39132Y34302D01*
X-40034Y34543D01*
D02*
G37*
G36*
X-20033D02*
X-20967D01*
X-21868Y34302D01*
X-22676Y33835D01*
X-23335Y33176D01*
X-23802Y32368D01*
X-24043Y31466D01*
Y31052D01*
X-24059Y30977D01*
X-24061Y30586D01*
X-24103Y29899D01*
X-24138Y29626D01*
X-24185Y29382D01*
X-24238Y29177D01*
X-24296Y29013D01*
X-24354Y28889D01*
X-24407Y28805D01*
X-24492Y28705D01*
X-24553Y28596D01*
X-24622Y28493D01*
X-24628Y28460D01*
X-24644Y28432D01*
X-24659Y28308D01*
X-24683Y28185D01*
X-24677Y28153D01*
X-24680Y28121D01*
X-24680Y28118D01*
X-26149Y26649D01*
X-26348Y26351D01*
X-26418Y26000D01*
Y-8620D01*
X-38168Y-20370D01*
X-38206Y-20361D01*
X-38218Y-20363D01*
X-38229Y-20361D01*
X-38372Y-20389D01*
X-38515Y-20413D01*
X-38525Y-20420D01*
X-38537Y-20422D01*
X-38657Y-20503D01*
X-38780Y-20580D01*
X-38834Y-20630D01*
X-38866Y-20657D01*
X-38894Y-20677D01*
X-38917Y-20691D01*
X-38935Y-20700D01*
X-38949Y-20706D01*
X-38959Y-20709D01*
X-38967Y-20711D01*
X-38974Y-20712D01*
X-39018Y-20714D01*
X-39081Y-20728D01*
X-39352D01*
X-40004Y-20998D01*
X-40502Y-21496D01*
X-40772Y-22148D01*
Y-22852D01*
X-40502Y-23504D01*
X-40004Y-24002D01*
X-39352Y-24272D01*
X-38648D01*
X-37996Y-24002D01*
X-37498Y-23504D01*
X-37228Y-22852D01*
Y-22581D01*
X-37214Y-22518D01*
X-37212Y-22474D01*
X-37211Y-22467D01*
X-37209Y-22458D01*
X-37206Y-22448D01*
X-37200Y-22435D01*
X-37191Y-22417D01*
X-37177Y-22394D01*
X-37157Y-22366D01*
X-37130Y-22334D01*
X-37080Y-22280D01*
X-37003Y-22157D01*
X-36922Y-22037D01*
X-36920Y-22025D01*
X-36913Y-22015D01*
X-36889Y-21872D01*
X-36861Y-21729D01*
X-36863Y-21718D01*
X-36861Y-21706D01*
X-36870Y-21668D01*
X-24851Y-9649D01*
X-24652Y-9351D01*
X-24582Y-9000D01*
Y25620D01*
X-23382Y26820D01*
X-23379Y26820D01*
X-23347Y26823D01*
X-23314Y26817D01*
X-23192Y26841D01*
X-23068Y26856D01*
X-23040Y26872D01*
X-23007Y26878D01*
X-22904Y26947D01*
X-22794Y27008D01*
X-22695Y27093D01*
X-22611Y27145D01*
X-22488Y27204D01*
X-22323Y27261D01*
X-22118Y27315D01*
X-21874Y27362D01*
X-21601Y27397D01*
X-20914Y27439D01*
X-20523Y27441D01*
X-20448Y27457D01*
X-20033D01*
X-19132Y27698D01*
X-18324Y28165D01*
X-17665Y28824D01*
X-17198Y29632D01*
X-16957Y30533D01*
Y31466D01*
X-17198Y32368D01*
X-17665Y33176D01*
X-18324Y33835D01*
X-19132Y34302D01*
X-20033Y34543D01*
D02*
G37*
G36*
X-66648Y29772D02*
X-67352D01*
X-68004Y29502D01*
X-68195Y29310D01*
X-68251Y29276D01*
X-68283Y29246D01*
X-68289Y29241D01*
X-68296Y29237D01*
X-68305Y29232D01*
X-68319Y29226D01*
X-68338Y29220D01*
X-68364Y29214D01*
X-68398Y29208D01*
X-68440Y29205D01*
X-68513Y29202D01*
X-68655Y29170D01*
X-68797Y29142D01*
X-68807Y29135D01*
X-68819Y29132D01*
X-68937Y29048D01*
X-69058Y28968D01*
X-69064Y28958D01*
X-69074Y28951D01*
X-69095Y28918D01*
X-254500D01*
X-254851Y28848D01*
X-255149Y28649D01*
X-261765Y22032D01*
X-261805Y22042D01*
X-261857Y22033D01*
X-261908Y22038D01*
X-262010Y22006D01*
X-262114Y21989D01*
X-262158Y21961D01*
X-262208Y21946D01*
X-262289Y21878D01*
X-262379Y21822D01*
X-262434Y21769D01*
X-262471Y21738D01*
X-262504Y21714D01*
X-262533Y21695D01*
X-262559Y21680D01*
X-262581Y21670D01*
X-262600Y21663D01*
X-262617Y21658D01*
X-262632Y21655D01*
X-262680Y21649D01*
X-262698Y21643D01*
X-262852D01*
X-263504Y21373D01*
X-264002Y20875D01*
X-264272Y20223D01*
Y19519D01*
X-264002Y18867D01*
X-263504Y18369D01*
X-262852Y18099D01*
X-262148D01*
X-261496Y18369D01*
X-260998Y18867D01*
X-260728Y19519D01*
Y19952D01*
X-260719Y20015D01*
X-260721Y20050D01*
X-260721Y20052D01*
X-260716Y20062D01*
X-260707Y20078D01*
X-260691Y20100D01*
X-260667Y20129D01*
X-260618Y20182D01*
X-260603Y20206D01*
X-260581Y20224D01*
X-260520Y20338D01*
X-260452Y20447D01*
X-260448Y20476D01*
X-260434Y20501D01*
X-260422Y20629D01*
X-260401Y20756D01*
X-260407Y20784D01*
X-260406Y20796D01*
X-254120Y27082D01*
X-177531D01*
X-177453Y26689D01*
X-177565Y26642D01*
X-178063Y26144D01*
X-178333Y25493D01*
Y24788D01*
X-178063Y24137D01*
X-177565Y23638D01*
X-176914Y23369D01*
X-176209D01*
X-175558Y23638D01*
X-175060Y24137D01*
X-174993Y24296D01*
X-174960Y24298D01*
X-174811Y24333D01*
X-174660Y24367D01*
X-174658Y24369D01*
X-174655Y24369D01*
X-174530Y24459D01*
X-174404Y24548D01*
X-174403Y24551D01*
X-174401Y24552D01*
X-174382Y24582D01*
X-122680D01*
X-118728Y20630D01*
X-118878Y20266D01*
X-142583D01*
X-142935Y20197D01*
X-143232Y19998D01*
X-143592Y19637D01*
X-173004D01*
X-174083Y20716D01*
X-174381Y20915D01*
X-174732Y20985D01*
X-185030D01*
X-185382Y20915D01*
X-185679Y20716D01*
X-187862Y18533D01*
X-197728D01*
Y18852D01*
X-197998Y19504D01*
X-198496Y20002D01*
X-199148Y20272D01*
X-199852D01*
X-200504Y20002D01*
X-201002Y19504D01*
X-201272Y18852D01*
Y18148D01*
X-201002Y17496D01*
X-200817Y17311D01*
X-200980Y16918D01*
X-215905D01*
X-215926Y16951D01*
X-215936Y16958D01*
X-215943Y16968D01*
X-216063Y17048D01*
X-216181Y17132D01*
X-216193Y17135D01*
X-216203Y17142D01*
X-216345Y17170D01*
X-216487Y17202D01*
X-216560Y17205D01*
X-216602Y17209D01*
X-216636Y17214D01*
X-216662Y17220D01*
X-216681Y17226D01*
X-216695Y17232D01*
X-216705Y17237D01*
X-216711Y17241D01*
X-216717Y17246D01*
X-216749Y17276D01*
X-216805Y17310D01*
X-216996Y17502D01*
X-217648Y17772D01*
X-218352D01*
X-219004Y17502D01*
X-219502Y17004D01*
X-219772Y16352D01*
Y15648D01*
X-219502Y14996D01*
X-219004Y14498D01*
X-218352Y14228D01*
X-217648D01*
X-216996Y14498D01*
X-216805Y14690D01*
X-216749Y14724D01*
X-216717Y14754D01*
X-216711Y14759D01*
X-216705Y14763D01*
X-216695Y14768D01*
X-216681Y14774D01*
X-216662Y14780D01*
X-216636Y14786D01*
X-216602Y14792D01*
X-216560Y14795D01*
X-216487Y14797D01*
X-216345Y14830D01*
X-216203Y14858D01*
X-216193Y14865D01*
X-216181Y14868D01*
X-216063Y14952D01*
X-215943Y15032D01*
X-215936Y15042D01*
X-215926Y15049D01*
X-215905Y15082D01*
X-197895D01*
X-197632Y14689D01*
X-197772Y14352D01*
Y13648D01*
X-197632Y13311D01*
X-197895Y12918D01*
X-211405D01*
X-211426Y12951D01*
X-211436Y12958D01*
X-211442Y12968D01*
X-211563Y13048D01*
X-211681Y13132D01*
X-211693Y13135D01*
X-211703Y13142D01*
X-211845Y13170D01*
X-211987Y13203D01*
X-212060Y13205D01*
X-212102Y13208D01*
X-212136Y13214D01*
X-212162Y13220D01*
X-212181Y13226D01*
X-212195Y13232D01*
X-212205Y13237D01*
X-212211Y13241D01*
X-212217Y13246D01*
X-212249Y13276D01*
X-212305Y13310D01*
X-212496Y13502D01*
X-213148Y13772D01*
X-213852D01*
X-214504Y13502D01*
X-215002Y13004D01*
X-215272Y12352D01*
Y11648D01*
X-215002Y10996D01*
X-214504Y10498D01*
X-213852Y10228D01*
X-213148D01*
X-212496Y10498D01*
X-212305Y10690D01*
X-212249Y10724D01*
X-212217Y10754D01*
X-212211Y10759D01*
X-212205Y10763D01*
X-212195Y10768D01*
X-212181Y10774D01*
X-212162Y10780D01*
X-212136Y10786D01*
X-212102Y10791D01*
X-212060Y10795D01*
X-211987Y10797D01*
X-211845Y10830D01*
X-211703Y10858D01*
X-211693Y10865D01*
X-211681Y10868D01*
X-211563Y10952D01*
X-211442Y11032D01*
X-211436Y11042D01*
X-211426Y11049D01*
X-211405Y11082D01*
X-186289D01*
X-186026Y10689D01*
X-186179Y10319D01*
Y9615D01*
X-185909Y8963D01*
X-185742Y8797D01*
X-185746Y8259D01*
X-186002Y8004D01*
X-186272Y7352D01*
Y6648D01*
X-186132Y6311D01*
X-186395Y5918D01*
X-192120D01*
X-193370Y7168D01*
X-193361Y7206D01*
X-193363Y7218D01*
X-193361Y7229D01*
X-193389Y7372D01*
X-193413Y7515D01*
X-193420Y7525D01*
X-193422Y7537D01*
X-193502Y7657D01*
X-193580Y7780D01*
X-193630Y7834D01*
X-193657Y7866D01*
X-193677Y7894D01*
X-193691Y7917D01*
X-193700Y7935D01*
X-193706Y7948D01*
X-193709Y7959D01*
X-193711Y7967D01*
X-193712Y7974D01*
X-193713Y8018D01*
X-193728Y8081D01*
Y8352D01*
X-193998Y9004D01*
X-194496Y9502D01*
X-195148Y9772D01*
X-195852D01*
X-196504Y9502D01*
X-197002Y9004D01*
X-197272Y8352D01*
Y7648D01*
X-197002Y6996D01*
X-196816Y6811D01*
X-196878Y6498D01*
X-196948Y6386D01*
X-197420Y5914D01*
X-197689Y5263D01*
Y4558D01*
X-197420Y3907D01*
X-196921Y3409D01*
X-196270Y3139D01*
X-195999D01*
X-195936Y3124D01*
X-195892Y3123D01*
X-195884Y3122D01*
X-195876Y3120D01*
X-195866Y3117D01*
X-195853Y3111D01*
X-195834Y3102D01*
X-195812Y3088D01*
X-195784Y3068D01*
X-195752Y3041D01*
X-195698Y2990D01*
X-195575Y2913D01*
X-195454Y2833D01*
X-195443Y2830D01*
X-195432Y2824D01*
X-195290Y2800D01*
X-195148Y2772D01*
Y2230D01*
X-195078Y1879D01*
X-194879Y1581D01*
X-188149Y-5149D01*
X-187851Y-5348D01*
X-187500Y-5418D01*
X-186643D01*
X-186353Y-5612D01*
X-186002Y-5681D01*
X-184441D01*
X-184090Y-5612D01*
X-183792Y-5413D01*
X-183297Y-4918D01*
X-142000D01*
X-141649Y-4848D01*
X-141351Y-4649D01*
X-136832Y-130D01*
X-136794Y-139D01*
X-136782Y-137D01*
X-136771Y-139D01*
X-136628Y-111D01*
X-136485Y-87D01*
X-136475Y-80D01*
X-136463Y-78D01*
X-136343Y2D01*
X-136220Y80D01*
X-136166Y130D01*
X-136134Y157D01*
X-136106Y177D01*
X-136083Y191D01*
X-136065Y200D01*
X-136051Y206D01*
X-136041Y209D01*
X-136033Y211D01*
X-136026Y212D01*
X-135982Y213D01*
X-135919Y228D01*
X-135648D01*
X-134996Y498D01*
X-134498Y996D01*
X-134228Y1648D01*
Y2352D01*
X-134498Y3004D01*
X-134683Y3189D01*
X-134520Y3582D01*
X-120880D01*
X-86649Y-30649D01*
X-86351Y-30848D01*
X-86000Y-30918D01*
X-84095D01*
X-84074Y-30951D01*
X-84064Y-30958D01*
X-84057Y-30968D01*
X-83937Y-31048D01*
X-83819Y-31132D01*
X-83807Y-31135D01*
X-83797Y-31142D01*
X-83655Y-31170D01*
X-83513Y-31203D01*
X-83440Y-31205D01*
X-83398Y-31209D01*
X-83364Y-31214D01*
X-83338Y-31220D01*
X-83319Y-31226D01*
X-83305Y-31232D01*
X-83296Y-31237D01*
X-83289Y-31241D01*
X-83283Y-31246D01*
X-83251Y-31276D01*
X-83195Y-31310D01*
X-83004Y-31502D01*
X-82352Y-31772D01*
X-81648D01*
X-80996Y-31502D01*
X-80498Y-31004D01*
X-80228Y-30352D01*
Y-29648D01*
X-80498Y-28996D01*
X-80996Y-28498D01*
X-81648Y-28228D01*
X-82352D01*
X-83004Y-28498D01*
X-83195Y-28690D01*
X-83251Y-28724D01*
X-83283Y-28754D01*
X-83289Y-28759D01*
X-83296Y-28763D01*
X-83305Y-28768D01*
X-83319Y-28774D01*
X-83338Y-28780D01*
X-83364Y-28786D01*
X-83398Y-28791D01*
X-83440Y-28795D01*
X-83513Y-28798D01*
X-83655Y-28830D01*
X-83797Y-28858D01*
X-83807Y-28865D01*
X-83819Y-28868D01*
X-83937Y-28952D01*
X-84057Y-29032D01*
X-84064Y-29042D01*
X-84074Y-29049D01*
X-84095Y-29082D01*
X-85620D01*
X-119851Y5149D01*
X-120149Y5348D01*
X-120500Y5418D01*
X-121369D01*
X-121447Y5811D01*
X-120996Y5998D01*
X-120498Y6496D01*
X-120228Y7148D01*
Y7852D01*
X-120498Y8504D01*
X-120996Y9002D01*
X-121648Y9272D01*
X-122352D01*
X-123004Y9002D01*
X-123502Y8504D01*
X-123772Y7852D01*
Y7148D01*
X-123502Y6496D01*
X-123004Y5998D01*
X-122553Y5811D01*
X-122631Y5418D01*
X-132520D01*
X-132683Y5811D01*
X-132498Y5996D01*
X-132228Y6648D01*
Y7352D01*
X-132498Y8004D01*
X-132899Y8405D01*
X-132875Y8773D01*
X-132837Y8857D01*
X-132496Y8998D01*
X-131998Y9496D01*
X-131728Y10148D01*
Y10852D01*
X-131998Y11504D01*
X-132383Y11889D01*
X-132223Y12282D01*
X-121660D01*
X-121641Y12252D01*
X-121575Y12205D01*
X-121520Y12146D01*
X-121449Y12114D01*
X-121386Y12069D01*
X-121307Y12050D01*
X-121234Y12017D01*
X-121156Y12015D01*
X-121081Y11998D01*
X-121011Y11995D01*
X-121000Y11994D01*
X-120504Y11498D01*
X-119852Y11228D01*
X-119148D01*
X-118496Y11498D01*
X-117998Y11996D01*
X-117728Y12648D01*
Y13352D01*
X-117998Y14004D01*
X-118496Y14502D01*
X-119148Y14772D01*
X-119852D01*
X-120504Y14502D01*
X-120550Y14455D01*
X-120560Y14451D01*
X-120588Y14441D01*
X-120622Y14431D01*
X-120660Y14422D01*
X-120694Y14416D01*
X-120819Y14404D01*
X-120889Y14403D01*
X-120946Y14390D01*
X-121004Y14392D01*
X-121097Y14356D01*
X-121194Y14335D01*
X-121242Y14301D01*
X-121297Y14280D01*
X-121370Y14212D01*
X-121451Y14155D01*
X-121475Y14118D01*
X-131362D01*
X-131513Y14481D01*
X-131498Y14496D01*
X-131228Y15148D01*
Y15852D01*
X-131498Y16504D01*
X-131996Y17002D01*
X-132648Y17272D01*
X-133352D01*
X-134004Y17002D01*
X-134195Y16810D01*
X-134251Y16776D01*
X-134283Y16746D01*
X-134289Y16741D01*
X-134295Y16737D01*
X-134305Y16732D01*
X-134319Y16726D01*
X-134338Y16720D01*
X-134364Y16714D01*
X-134398Y16709D01*
X-134440Y16705D01*
X-134513Y16702D01*
X-134655Y16670D01*
X-134797Y16642D01*
X-134807Y16635D01*
X-134819Y16632D01*
X-134937Y16548D01*
X-135057Y16468D01*
X-135064Y16458D01*
X-135074Y16451D01*
X-135095Y16418D01*
X-174982D01*
X-175213Y16649D01*
X-175511Y16848D01*
X-175862Y16918D01*
X-180062D01*
X-180261Y17311D01*
X-180046Y17830D01*
Y18535D01*
X-180165Y18822D01*
X-179946Y19149D01*
X-175112D01*
X-174033Y18071D01*
X-173736Y17872D01*
X-173384Y17802D01*
X-143212D01*
X-142861Y17872D01*
X-142563Y18071D01*
X-142203Y18431D01*
X-118226D01*
X-117612Y17817D01*
X-117590Y17707D01*
X-117510Y17588D01*
X-117529Y17504D01*
X-117518Y17436D01*
X-117522Y17366D01*
X-117493Y17282D01*
X-117479Y17195D01*
X-117442Y17136D01*
X-117419Y17070D01*
X-117360Y17004D01*
X-117313Y16929D01*
X-117265Y16878D01*
X-117263Y16874D01*
X-117272Y16852D01*
Y16148D01*
X-117002Y15496D01*
X-116504Y14998D01*
X-115852Y14728D01*
X-115148D01*
X-114496Y14998D01*
X-113998Y15496D01*
X-113728Y16148D01*
Y16852D01*
X-113998Y17504D01*
X-114040Y17545D01*
X-113819Y17868D01*
X-113807Y17865D01*
X-113797Y17858D01*
X-113655Y17830D01*
X-113513Y17797D01*
X-113440Y17795D01*
X-113398Y17792D01*
X-113364Y17786D01*
X-113338Y17780D01*
X-113319Y17774D01*
X-113305Y17768D01*
X-113295Y17763D01*
X-113289Y17759D01*
X-113283Y17754D01*
X-113251Y17724D01*
X-113195Y17690D01*
X-113004Y17498D01*
X-112352Y17228D01*
X-111648D01*
X-110996Y17498D01*
X-110498Y17996D01*
X-110228Y18648D01*
Y19352D01*
X-110498Y20004D01*
X-110996Y20502D01*
X-111648Y20772D01*
X-112352D01*
X-113004Y20502D01*
X-113195Y20310D01*
X-113251Y20276D01*
X-113283Y20246D01*
X-113289Y20241D01*
X-113295Y20237D01*
X-113305Y20232D01*
X-113319Y20226D01*
X-113338Y20220D01*
X-113364Y20214D01*
X-113398Y20209D01*
X-113440Y20205D01*
X-113513Y20202D01*
X-113655Y20170D01*
X-113797Y20142D01*
X-113807Y20135D01*
X-113819Y20132D01*
X-113937Y20048D01*
X-114058Y19968D01*
X-114064Y19958D01*
X-114074Y19951D01*
X-114095Y19918D01*
X-115420D01*
X-121651Y26149D01*
X-121949Y26348D01*
X-122300Y26418D01*
X-174741D01*
X-174762Y26451D01*
X-174780Y26465D01*
X-174794Y26483D01*
X-174908Y26555D01*
X-175017Y26633D01*
X-175040Y26638D01*
X-175059Y26650D01*
X-175191Y26673D01*
X-175262Y26689D01*
X-175218Y27082D01*
X-69095D01*
X-69074Y27049D01*
X-69064Y27042D01*
X-69058Y27032D01*
X-68937Y26952D01*
X-68819Y26868D01*
X-68807Y26865D01*
X-68797Y26858D01*
X-68655Y26830D01*
X-68513Y26798D01*
X-68440Y26795D01*
X-68398Y26792D01*
X-68364Y26786D01*
X-68338Y26780D01*
X-68319Y26774D01*
X-68305Y26768D01*
X-68296Y26763D01*
X-68289Y26759D01*
X-68283Y26754D01*
X-68251Y26724D01*
X-68195Y26690D01*
X-68004Y26498D01*
X-67352Y26228D01*
X-66648D01*
X-65996Y26498D01*
X-65498Y26996D01*
X-65228Y27648D01*
Y28352D01*
X-65498Y29004D01*
X-65996Y29502D01*
X-66648Y29772D01*
D02*
G37*
G36*
X-68648Y24772D02*
X-69352D01*
X-70004Y24502D01*
X-70502Y24004D01*
X-70772Y23352D01*
Y22648D01*
X-70502Y21996D01*
X-70004Y21498D01*
X-69352Y21228D01*
X-68648D01*
X-67996Y21498D01*
X-67498Y21996D01*
X-67228Y22648D01*
Y23352D01*
X-67498Y24004D01*
X-67996Y24502D01*
X-68648Y24772D01*
D02*
G37*
G36*
X-20033Y24543D02*
X-20967D01*
X-21868Y24302D01*
X-22676Y23835D01*
X-23335Y23176D01*
X-23802Y22368D01*
X-24043Y21466D01*
Y20534D01*
X-23802Y19632D01*
X-23335Y18824D01*
X-22676Y18165D01*
X-21868Y17698D01*
X-20967Y17457D01*
X-20033D01*
X-19132Y17698D01*
X-18324Y18165D01*
X-17665Y18824D01*
X-17198Y19632D01*
X-16957Y20534D01*
Y21466D01*
X-17198Y22368D01*
X-17665Y23176D01*
X-18324Y23835D01*
X-19132Y24302D01*
X-20033Y24543D01*
D02*
G37*
G36*
X-30033D02*
X-30966D01*
X-31868Y24302D01*
X-32676Y23835D01*
X-33335Y23176D01*
X-33802Y22368D01*
X-34043Y21466D01*
Y20534D01*
X-33802Y19632D01*
X-33335Y18824D01*
X-32676Y18165D01*
X-31868Y17698D01*
X-30966Y17457D01*
X-30033D01*
X-29132Y17698D01*
X-28324Y18165D01*
X-27665Y18824D01*
X-27198Y19632D01*
X-26957Y20534D01*
Y21466D01*
X-27198Y22368D01*
X-27665Y23176D01*
X-28324Y23835D01*
X-29132Y24302D01*
X-30033Y24543D01*
D02*
G37*
G36*
X-36957D02*
X-44043D01*
Y17457D01*
X-36957D01*
Y24543D01*
D02*
G37*
G36*
X-325648Y14772D02*
X-326352D01*
X-327004Y14502D01*
X-327502Y14004D01*
X-327772Y13352D01*
Y12648D01*
X-327502Y11996D01*
X-327004Y11498D01*
X-326352Y11228D01*
X-325648D01*
X-324996Y11498D01*
X-324498Y11996D01*
X-324228Y12648D01*
Y13352D01*
X-324498Y14004D01*
X-324996Y14502D01*
X-325648Y14772D01*
D02*
G37*
G36*
X-344199Y11043D02*
X-345061D01*
X-345856Y10714D01*
X-346466Y10104D01*
X-346795Y9309D01*
Y8447D01*
X-346466Y7651D01*
X-345856Y7042D01*
X-345061Y6713D01*
X-344199D01*
X-343403Y7042D01*
X-342794Y7651D01*
X-342465Y8447D01*
Y9309D01*
X-342794Y10104D01*
X-343403Y10714D01*
X-344199Y11043D01*
D02*
G37*
G36*
X-53148Y9272D02*
X-53852D01*
X-54504Y9002D01*
X-55002Y8504D01*
X-55272Y7852D01*
Y7148D01*
X-55002Y6496D01*
X-54504Y5998D01*
X-53852Y5728D01*
X-53148D01*
X-52496Y5998D01*
X-51998Y6496D01*
X-51728Y7148D01*
Y7852D01*
X-51998Y8504D01*
X-52496Y9002D01*
X-53148Y9272D01*
D02*
G37*
G36*
X-335148Y8272D02*
X-335852D01*
X-336504Y8002D01*
X-337002Y7504D01*
X-337272Y6852D01*
Y6148D01*
X-337002Y5496D01*
X-336504Y4998D01*
X-335852Y4728D01*
X-335148D01*
X-334496Y4998D01*
X-333998Y5496D01*
X-333728Y6148D01*
Y6852D01*
X-333998Y7504D01*
X-334496Y8002D01*
X-335148Y8272D01*
D02*
G37*
G36*
X-41648Y4772D02*
X-42352D01*
X-43004Y4502D01*
X-43502Y4004D01*
X-43772Y3352D01*
Y2648D01*
X-43502Y1996D01*
X-43004Y1498D01*
X-42352Y1228D01*
X-41648D01*
X-40996Y1498D01*
X-40498Y1996D01*
X-40228Y2648D01*
Y3352D01*
X-40498Y4004D01*
X-40996Y4502D01*
X-41648Y4772D01*
D02*
G37*
G36*
X-48148Y272D02*
X-48852D01*
X-49504Y2D01*
X-50002Y-496D01*
X-50272Y-1148D01*
Y-1852D01*
X-50002Y-2504D01*
X-49504Y-3002D01*
X-48852Y-3272D01*
X-48148D01*
X-47496Y-3002D01*
X-46998Y-2504D01*
X-46728Y-1852D01*
Y-1148D01*
X-46998Y-496D01*
X-47496Y2D01*
X-48148Y272D01*
D02*
G37*
G36*
X-65148Y-228D02*
X-65852D01*
X-66504Y-498D01*
X-67002Y-996D01*
X-67272Y-1648D01*
Y-2352D01*
X-67002Y-3004D01*
X-66504Y-3502D01*
X-65852Y-3772D01*
X-65148D01*
X-64496Y-3502D01*
X-63998Y-3004D01*
X-63728Y-2352D01*
Y-1648D01*
X-63998Y-996D01*
X-64496Y-498D01*
X-65148Y-228D01*
D02*
G37*
G36*
X-318648Y272D02*
X-319352D01*
X-320004Y2D01*
X-320502Y-496D01*
X-320772Y-1148D01*
Y-1852D01*
X-320502Y-2504D01*
X-320021Y-2984D01*
X-320502Y-3465D01*
X-320772Y-4116D01*
Y-4821D01*
X-320502Y-5472D01*
X-320004Y-5970D01*
X-319352Y-6240D01*
X-318648D01*
X-317996Y-5970D01*
X-317498Y-5472D01*
X-317228Y-4821D01*
Y-4116D01*
X-317498Y-3465D01*
X-317979Y-2984D01*
X-317498Y-2504D01*
X-317228Y-1852D01*
Y-1148D01*
X-317498Y-496D01*
X-317996Y2D01*
X-318648Y272D01*
D02*
G37*
G36*
X-83648Y-5728D02*
X-84352D01*
X-85004Y-5998D01*
X-85502Y-6496D01*
X-85772Y-7148D01*
Y-7852D01*
X-85502Y-8504D01*
X-85004Y-9002D01*
X-84352Y-9272D01*
X-83648D01*
X-82996Y-9002D01*
X-82498Y-8504D01*
X-82228Y-7852D01*
Y-7148D01*
X-82498Y-6496D01*
X-82996Y-5998D01*
X-83648Y-5728D01*
D02*
G37*
G36*
X-136148D02*
X-136852D01*
X-137504Y-5998D01*
X-138002Y-6496D01*
X-138272Y-7148D01*
Y-7852D01*
X-138002Y-8504D01*
X-137504Y-9002D01*
X-136852Y-9272D01*
X-136148D01*
X-135496Y-9002D01*
X-134998Y-8504D01*
X-134728Y-7852D01*
Y-7148D01*
X-134998Y-6496D01*
X-135496Y-5998D01*
X-136148Y-5728D01*
D02*
G37*
G36*
X-180148Y-6228D02*
X-180852D01*
X-181504Y-6498D01*
X-182002Y-6996D01*
X-182272Y-7648D01*
Y-8352D01*
X-182002Y-9004D01*
X-181504Y-9502D01*
X-180852Y-9772D01*
X-180148D01*
X-179496Y-9502D01*
X-178998Y-9004D01*
X-178728Y-8352D01*
Y-7648D01*
X-178998Y-6996D01*
X-179496Y-6498D01*
X-180148Y-6228D01*
D02*
G37*
G36*
X-198648Y-5728D02*
X-199352D01*
X-200004Y-5998D01*
X-200502Y-6496D01*
X-200744Y-7081D01*
X-208081Y-14419D01*
X-208413Y-14915D01*
X-208529Y-15500D01*
Y-44500D01*
X-208413Y-45085D01*
X-208081Y-45581D01*
X-205744Y-47919D01*
X-205502Y-48504D01*
X-205004Y-49002D01*
X-204352Y-49272D01*
X-203648D01*
X-202996Y-49002D01*
X-202498Y-48504D01*
X-202228Y-47852D01*
Y-47148D01*
X-202498Y-46496D01*
X-202996Y-45998D01*
X-203581Y-45756D01*
X-205471Y-43867D01*
Y-16134D01*
X-201665Y-12328D01*
X-201272Y-12491D01*
Y-12852D01*
X-201002Y-13504D01*
X-200810Y-13695D01*
X-200776Y-13751D01*
X-200746Y-13783D01*
X-200741Y-13789D01*
X-200737Y-13795D01*
X-200732Y-13805D01*
X-200726Y-13819D01*
X-200720Y-13838D01*
X-200714Y-13864D01*
X-200709Y-13898D01*
X-200705Y-13940D01*
X-200703Y-14013D01*
X-200670Y-14155D01*
X-200642Y-14297D01*
X-200635Y-14307D01*
X-200632Y-14319D01*
X-200548Y-14437D01*
X-200468Y-14558D01*
X-200458Y-14564D01*
X-200451Y-14574D01*
X-200418Y-14595D01*
Y-22500D01*
X-200348Y-22851D01*
X-200149Y-23149D01*
X-175649Y-47649D01*
X-175351Y-47848D01*
X-175000Y-47918D01*
X-92500D01*
X-92149Y-47848D01*
X-91851Y-47649D01*
X-91332Y-47130D01*
X-91294Y-47139D01*
X-91282Y-47137D01*
X-91271Y-47139D01*
X-91128Y-47111D01*
X-90985Y-47087D01*
X-90975Y-47080D01*
X-90963Y-47078D01*
X-90843Y-46997D01*
X-90720Y-46920D01*
X-90666Y-46870D01*
X-90634Y-46843D01*
X-90606Y-46823D01*
X-90583Y-46809D01*
X-90565Y-46800D01*
X-90552Y-46794D01*
X-90541Y-46791D01*
X-90533Y-46789D01*
X-90526Y-46788D01*
X-90482Y-46786D01*
X-90419Y-46772D01*
X-90148D01*
X-89496Y-46502D01*
X-88998Y-46004D01*
X-88728Y-45352D01*
Y-44648D01*
X-88998Y-43996D01*
X-89496Y-43498D01*
X-90148Y-43228D01*
X-90852D01*
X-91504Y-43498D01*
X-92002Y-43996D01*
X-92272Y-44648D01*
Y-44919D01*
X-92286Y-44982D01*
X-92288Y-45026D01*
X-92289Y-45033D01*
X-92291Y-45041D01*
X-92294Y-45052D01*
X-92300Y-45065D01*
X-92309Y-45083D01*
X-92323Y-45106D01*
X-92343Y-45134D01*
X-92370Y-45166D01*
X-92420Y-45220D01*
X-92497Y-45343D01*
X-92578Y-45463D01*
X-92580Y-45475D01*
X-92587Y-45485D01*
X-92611Y-45628D01*
X-92639Y-45771D01*
X-92637Y-45782D01*
X-92639Y-45794D01*
X-92899Y-46082D01*
X-174620D01*
X-198582Y-22120D01*
Y-14595D01*
X-198549Y-14574D01*
X-198542Y-14564D01*
X-198532Y-14558D01*
X-198452Y-14437D01*
X-198368Y-14319D01*
X-198365Y-14307D01*
X-198358Y-14297D01*
X-198330Y-14155D01*
X-198298Y-14013D01*
X-198295Y-13940D01*
X-198292Y-13898D01*
X-198286Y-13864D01*
X-198280Y-13838D01*
X-198274Y-13818D01*
X-198268Y-13805D01*
X-198263Y-13795D01*
X-198259Y-13789D01*
X-198254Y-13783D01*
X-198224Y-13751D01*
X-198190Y-13695D01*
X-197998Y-13504D01*
X-197728Y-12852D01*
Y-12148D01*
X-197950Y-11612D01*
X-197616Y-11389D01*
X-197504Y-11502D01*
X-196852Y-11772D01*
X-196148D01*
X-195496Y-11502D01*
X-194998Y-11004D01*
X-194728Y-10352D01*
Y-9648D01*
X-194998Y-8996D01*
X-195496Y-8498D01*
X-196148Y-8228D01*
X-196852D01*
X-197019Y-8297D01*
X-197297Y-8019D01*
X-197228Y-7852D01*
Y-7148D01*
X-197498Y-6496D01*
X-197996Y-5998D01*
X-198648Y-5728D01*
D02*
G37*
G36*
X-335570Y-10252D02*
X-336275D01*
X-336926Y-10521D01*
X-337424Y-11020D01*
X-337694Y-11671D01*
Y-12376D01*
X-337424Y-13027D01*
X-336926Y-13525D01*
X-336275Y-13795D01*
X-335570D01*
X-334919Y-13525D01*
X-334421Y-13027D01*
X-334151Y-12376D01*
Y-11671D01*
X-334421Y-11020D01*
X-334919Y-10521D01*
X-335570Y-10252D01*
D02*
G37*
G36*
X-198148Y1272D02*
X-198852D01*
X-199504Y1002D01*
X-200002Y504D01*
X-200272Y-148D01*
Y-852D01*
X-200002Y-1504D01*
X-199810Y-1695D01*
X-199776Y-1751D01*
X-199746Y-1783D01*
X-199741Y-1789D01*
X-199737Y-1795D01*
X-199732Y-1805D01*
X-199726Y-1819D01*
X-199720Y-1838D01*
X-199714Y-1864D01*
X-199708Y-1898D01*
X-199705Y-1940D01*
X-199703Y-2013D01*
X-199670Y-2155D01*
X-199642Y-2297D01*
X-199635Y-2307D01*
X-199632Y-2319D01*
X-199548Y-2437D01*
X-199468Y-2558D01*
X-199458Y-2564D01*
X-199451Y-2574D01*
X-199418Y-2595D01*
Y-3500D01*
X-199348Y-3851D01*
X-199149Y-4149D01*
X-190149Y-13149D01*
X-189851Y-13348D01*
X-189500Y-13418D01*
X-140095D01*
X-140074Y-13451D01*
X-140064Y-13458D01*
X-140058Y-13468D01*
X-139937Y-13548D01*
X-139819Y-13632D01*
X-139807Y-13635D01*
X-139797Y-13642D01*
X-139655Y-13670D01*
X-139513Y-13702D01*
X-139440Y-13705D01*
X-139398Y-13709D01*
X-139364Y-13714D01*
X-139338Y-13720D01*
X-139319Y-13726D01*
X-139305Y-13732D01*
X-139295Y-13737D01*
X-139289Y-13741D01*
X-139283Y-13746D01*
X-139251Y-13776D01*
X-139195Y-13810D01*
X-139004Y-14002D01*
X-138352Y-14272D01*
X-137648D01*
X-136996Y-14002D01*
X-136498Y-13504D01*
X-136228Y-12852D01*
Y-12148D01*
X-136498Y-11496D01*
X-136996Y-10998D01*
X-137648Y-10728D01*
X-138352D01*
X-139004Y-10998D01*
X-139195Y-11190D01*
X-139251Y-11224D01*
X-139283Y-11254D01*
X-139289Y-11259D01*
X-139295Y-11263D01*
X-139305Y-11268D01*
X-139319Y-11274D01*
X-139338Y-11280D01*
X-139364Y-11286D01*
X-139398Y-11292D01*
X-139440Y-11295D01*
X-139513Y-11298D01*
X-139655Y-11330D01*
X-139797Y-11358D01*
X-139807Y-11365D01*
X-139819Y-11368D01*
X-139937Y-11452D01*
X-140058Y-11532D01*
X-140064Y-11542D01*
X-140074Y-11549D01*
X-140095Y-11582D01*
X-189120D01*
X-194513Y-6190D01*
X-194362Y-5826D01*
X-194175D01*
X-193524Y-5556D01*
X-193026Y-5058D01*
X-192756Y-4406D01*
Y-3702D01*
X-193026Y-3050D01*
X-193524Y-2552D01*
X-194175Y-2282D01*
X-194880D01*
X-195531Y-2552D01*
X-196029Y-3050D01*
X-196299Y-3702D01*
Y-3889D01*
X-196663Y-4039D01*
X-197582Y-3120D01*
Y-2595D01*
X-197549Y-2574D01*
X-197542Y-2564D01*
X-197532Y-2558D01*
X-197452Y-2437D01*
X-197368Y-2319D01*
X-197365Y-2307D01*
X-197358Y-2297D01*
X-197330Y-2155D01*
X-197298Y-2013D01*
X-197295Y-1940D01*
X-197292Y-1898D01*
X-197286Y-1864D01*
X-197280Y-1838D01*
X-197274Y-1819D01*
X-197268Y-1805D01*
X-197263Y-1795D01*
X-197259Y-1789D01*
X-197254Y-1783D01*
X-197224Y-1751D01*
X-197190Y-1695D01*
X-196998Y-1504D01*
X-196728Y-852D01*
Y-148D01*
X-196998Y504D01*
X-197496Y1002D01*
X-198148Y1272D01*
D02*
G37*
G36*
X-293884Y12673D02*
X-296115D01*
X-298319Y12324D01*
X-300441Y11635D01*
X-302428Y10622D01*
X-304233Y9311D01*
X-305811Y7733D01*
X-307122Y5928D01*
X-308135Y3941D01*
X-308824Y1819D01*
X-309173Y-384D01*
Y-2616D01*
X-308824Y-4819D01*
X-308135Y-6941D01*
X-307122Y-8928D01*
X-305811Y-10733D01*
X-304233Y-12311D01*
X-302428Y-13622D01*
X-300441Y-14635D01*
X-298319Y-15324D01*
X-296115Y-15673D01*
X-293884D01*
X-291681Y-15324D01*
X-289559Y-14635D01*
X-287572Y-13622D01*
X-285767Y-12311D01*
X-284189Y-10733D01*
X-282878Y-8928D01*
X-281865Y-6941D01*
X-281176Y-4819D01*
X-280827Y-2616D01*
Y-384D01*
X-281176Y1819D01*
X-281865Y3941D01*
X-282878Y5928D01*
X-284189Y7733D01*
X-285767Y9311D01*
X-287572Y10622D01*
X-289559Y11635D01*
X-291681Y12324D01*
X-293884Y12673D01*
D02*
G37*
G36*
X-344199Y-11713D02*
X-345061D01*
X-345856Y-12042D01*
X-346466Y-12651D01*
X-346795Y-13447D01*
Y-14309D01*
X-346466Y-15104D01*
X-345856Y-15714D01*
X-345061Y-16043D01*
X-344199D01*
X-343403Y-15714D01*
X-342794Y-15104D01*
X-342465Y-14309D01*
Y-13447D01*
X-342794Y-12651D01*
X-343403Y-12042D01*
X-344199Y-11713D01*
D02*
G37*
G36*
X-136641Y-15486D02*
X-137346D01*
X-137997Y-15755D01*
X-138495Y-16254D01*
X-138765Y-16905D01*
Y-17610D01*
X-138495Y-18261D01*
X-137997Y-18759D01*
X-137346Y-19029D01*
X-136641D01*
X-135990Y-18759D01*
X-135491Y-18261D01*
X-135222Y-17610D01*
Y-16905D01*
X-135491Y-16254D01*
X-135990Y-15755D01*
X-136641Y-15486D01*
D02*
G37*
G36*
X-45148Y-21228D02*
X-45852D01*
X-46504Y-21498D01*
X-47002Y-21996D01*
X-47272Y-22648D01*
Y-23352D01*
X-47002Y-24004D01*
X-46504Y-24502D01*
X-45852Y-24772D01*
X-45148D01*
X-44496Y-24502D01*
X-43998Y-24004D01*
X-43728Y-23352D01*
Y-22648D01*
X-43998Y-21996D01*
X-44496Y-21498D01*
X-45148Y-21228D01*
D02*
G37*
G36*
X-180148Y-21728D02*
X-180852D01*
X-181504Y-21998D01*
X-182002Y-22496D01*
X-182272Y-23148D01*
Y-23852D01*
X-182002Y-24504D01*
X-181504Y-25002D01*
X-180852Y-25272D01*
X-180148D01*
X-179496Y-25002D01*
X-178998Y-24504D01*
X-178728Y-23852D01*
Y-23148D01*
X-178998Y-22496D01*
X-179496Y-21998D01*
X-180148Y-21728D01*
D02*
G37*
G36*
X-136148Y-26126D02*
X-136852D01*
X-137504Y-26396D01*
X-138002Y-26895D01*
X-138272Y-27546D01*
Y-28250D01*
X-138002Y-28902D01*
X-137504Y-29400D01*
X-136852Y-29670D01*
X-136148D01*
X-135496Y-29400D01*
X-134998Y-28902D01*
X-134728Y-28250D01*
Y-27546D01*
X-134998Y-26895D01*
X-135496Y-26396D01*
X-136148Y-26126D01*
D02*
G37*
G36*
X-173648Y-26228D02*
X-174352D01*
X-175004Y-26498D01*
X-175502Y-26996D01*
X-175772Y-27648D01*
Y-28352D01*
X-175502Y-29004D01*
X-175004Y-29502D01*
X-174352Y-29772D01*
X-173648D01*
X-172996Y-29502D01*
X-172498Y-29004D01*
X-172228Y-28352D01*
Y-27648D01*
X-172498Y-26996D01*
X-172996Y-26498D01*
X-173648Y-26228D01*
D02*
G37*
G36*
X-213648Y-11228D02*
X-214352D01*
X-215004Y-11498D01*
X-215502Y-11996D01*
X-215772Y-12648D01*
Y-13352D01*
X-215529Y-13937D01*
Y-27063D01*
X-215772Y-27648D01*
Y-28352D01*
X-215502Y-29004D01*
X-215004Y-29502D01*
X-214352Y-29772D01*
X-213648D01*
X-212996Y-29502D01*
X-212498Y-29004D01*
X-212228Y-28352D01*
Y-27648D01*
X-212471Y-27063D01*
Y-13937D01*
X-212228Y-13352D01*
Y-12648D01*
X-212498Y-11996D01*
X-212996Y-11498D01*
X-213648Y-11228D01*
D02*
G37*
G36*
X-133148Y-28728D02*
X-133852D01*
X-134504Y-28998D01*
X-135002Y-29496D01*
X-135272Y-30148D01*
Y-30852D01*
X-135002Y-31504D01*
X-134504Y-32002D01*
X-133852Y-32272D01*
X-133148D01*
X-132496Y-32002D01*
X-131998Y-31504D01*
X-131728Y-30852D01*
Y-30148D01*
X-131998Y-29496D01*
X-132496Y-28998D01*
X-133148Y-28728D01*
D02*
G37*
G36*
X-298648Y-29344D02*
X-299352D01*
X-300004Y-29614D01*
X-300502Y-30112D01*
X-300772Y-30763D01*
Y-31468D01*
X-300502Y-32119D01*
X-300004Y-32618D01*
X-299352Y-32887D01*
X-298648D01*
X-297996Y-32618D01*
X-297498Y-32119D01*
X-297228Y-31468D01*
Y-30763D01*
X-297498Y-30112D01*
X-297996Y-29614D01*
X-298648Y-29344D01*
D02*
G37*
G36*
X-247148Y-15228D02*
X-247852D01*
X-248504Y-15498D01*
X-249002Y-15996D01*
X-249272Y-16648D01*
Y-17352D01*
X-249002Y-18004D01*
X-248504Y-18502D01*
X-247918Y-18745D01*
Y-31462D01*
X-248004Y-31498D01*
X-248502Y-31996D01*
X-248772Y-32648D01*
Y-33352D01*
X-248502Y-34004D01*
X-248004Y-34502D01*
X-247352Y-34772D01*
X-246648D01*
X-245996Y-34502D01*
X-245498Y-34004D01*
X-245228Y-33352D01*
Y-32648D01*
X-245498Y-31996D01*
X-245996Y-31498D01*
X-246082Y-31462D01*
Y-18088D01*
X-245998Y-18004D01*
X-245728Y-17352D01*
Y-16648D01*
X-245998Y-15996D01*
X-246496Y-15498D01*
X-247148Y-15228D01*
D02*
G37*
G36*
X-264148Y-11728D02*
X-264852D01*
X-265504Y-11998D01*
X-266002Y-12496D01*
X-266272Y-13148D01*
Y-13852D01*
X-266143Y-14162D01*
X-266149Y-14167D01*
X-266348Y-14465D01*
X-266418Y-14816D01*
Y-31462D01*
X-266504Y-31498D01*
X-267002Y-31996D01*
X-267272Y-32648D01*
Y-33352D01*
X-267002Y-34004D01*
X-266504Y-34502D01*
X-265852Y-34772D01*
X-265148D01*
X-264496Y-34502D01*
X-263998Y-34004D01*
X-263728Y-33352D01*
Y-32648D01*
X-263998Y-31996D01*
X-264496Y-31498D01*
X-264582Y-31462D01*
Y-15272D01*
X-264148D01*
X-263496Y-15002D01*
X-262998Y-14504D01*
X-262728Y-13852D01*
Y-13148D01*
X-262998Y-12496D01*
X-263496Y-11998D01*
X-264148Y-11728D01*
D02*
G37*
G36*
X-195172Y-13383D02*
X-195877D01*
X-196528Y-13653D01*
X-197027Y-14151D01*
X-197297Y-14803D01*
Y-15507D01*
X-197027Y-16158D01*
X-196835Y-16350D01*
X-196801Y-16406D01*
X-196771Y-16438D01*
X-196766Y-16444D01*
X-196762Y-16450D01*
X-196757Y-16460D01*
X-196751Y-16473D01*
X-196745Y-16493D01*
X-196739Y-16519D01*
X-196733Y-16553D01*
X-196729Y-16595D01*
X-196727Y-16668D01*
X-196695Y-16809D01*
X-196667Y-16952D01*
X-196660Y-16962D01*
X-196657Y-16974D01*
X-196573Y-17092D01*
X-196493Y-17212D01*
X-196483Y-17219D01*
X-196476Y-17229D01*
X-196442Y-17250D01*
Y-17475D01*
X-196373Y-17826D01*
X-196174Y-18124D01*
X-174649Y-39649D01*
X-174351Y-39848D01*
X-174000Y-39918D01*
X-110038D01*
X-106307Y-43649D01*
X-106009Y-43848D01*
X-105658Y-43918D01*
X-98095D01*
X-98074Y-43951D01*
X-98064Y-43958D01*
X-98058Y-43968D01*
X-97937Y-44048D01*
X-97819Y-44132D01*
X-97807Y-44135D01*
X-97797Y-44142D01*
X-97655Y-44170D01*
X-97513Y-44203D01*
X-97440Y-44205D01*
X-97398Y-44208D01*
X-97364Y-44214D01*
X-97338Y-44220D01*
X-97319Y-44226D01*
X-97305Y-44232D01*
X-97295Y-44237D01*
X-97289Y-44241D01*
X-97283Y-44246D01*
X-97251Y-44276D01*
X-97195Y-44310D01*
X-97004Y-44502D01*
X-96352Y-44772D01*
X-95648D01*
X-94996Y-44502D01*
X-94498Y-44004D01*
X-94228Y-43352D01*
Y-42648D01*
X-94498Y-41996D01*
X-94996Y-41498D01*
X-95648Y-41228D01*
X-96352D01*
X-97004Y-41498D01*
X-97195Y-41690D01*
X-97251Y-41724D01*
X-97283Y-41754D01*
X-97289Y-41759D01*
X-97295Y-41763D01*
X-97305Y-41768D01*
X-97319Y-41774D01*
X-97338Y-41780D01*
X-97364Y-41786D01*
X-97398Y-41791D01*
X-97440Y-41795D01*
X-97513Y-41798D01*
X-97655Y-41830D01*
X-97797Y-41858D01*
X-97807Y-41865D01*
X-97819Y-41868D01*
X-97937Y-41952D01*
X-98058Y-42032D01*
X-98064Y-42042D01*
X-98074Y-42049D01*
X-98095Y-42082D01*
X-105278D01*
X-109009Y-38351D01*
X-109307Y-38152D01*
X-109658Y-38082D01*
X-173620D01*
X-194530Y-17172D01*
X-194476Y-17092D01*
X-194392Y-16974D01*
X-194390Y-16962D01*
X-194383Y-16952D01*
X-194355Y-16809D01*
X-194322Y-16668D01*
X-194320Y-16595D01*
X-194316Y-16553D01*
X-194311Y-16519D01*
X-194305Y-16493D01*
X-194298Y-16473D01*
X-194293Y-16460D01*
X-194288Y-16450D01*
X-194283Y-16443D01*
X-194279Y-16438D01*
X-194249Y-16406D01*
X-194214Y-16350D01*
X-194023Y-16158D01*
X-193753Y-15507D01*
Y-14803D01*
X-194023Y-14151D01*
X-194521Y-13653D01*
X-195172Y-13383D01*
D02*
G37*
G36*
X-75776Y-42234D02*
X-76480D01*
X-77131Y-42503D01*
X-77630Y-43002D01*
X-77900Y-43653D01*
Y-44358D01*
X-77630Y-45009D01*
X-77131Y-45507D01*
X-76480Y-45777D01*
X-75776D01*
X-75124Y-45507D01*
X-74626Y-45009D01*
X-74356Y-44358D01*
Y-43653D01*
X-74626Y-43002D01*
X-75124Y-42503D01*
X-75776Y-42234D01*
D02*
G37*
G36*
X-289148Y-44228D02*
X-289852D01*
X-290504Y-44498D01*
X-291002Y-44996D01*
X-291272Y-45648D01*
Y-46352D01*
X-291002Y-47004D01*
X-290504Y-47502D01*
X-289852Y-47772D01*
X-289148D01*
X-288496Y-47502D01*
X-287998Y-47004D01*
X-287728Y-46352D01*
Y-45648D01*
X-287998Y-44996D01*
X-288496Y-44498D01*
X-289148Y-44228D01*
D02*
G37*
G36*
X-292556Y-51238D02*
X-293261D01*
X-293912Y-51508D01*
X-294410Y-52006D01*
X-294680Y-52657D01*
Y-53362D01*
X-294410Y-54013D01*
X-293912Y-54512D01*
X-293261Y-54781D01*
X-292556D01*
X-291905Y-54512D01*
X-291406Y-54013D01*
X-291137Y-53362D01*
Y-52657D01*
X-291406Y-52006D01*
X-291905Y-51508D01*
X-292556Y-51238D01*
D02*
G37*
G36*
X-302346Y-81232D02*
X-303051D01*
X-303702Y-81502D01*
X-304201Y-82000D01*
X-304470Y-82651D01*
Y-83356D01*
X-304201Y-84007D01*
X-303702Y-84505D01*
X-303051Y-84775D01*
X-302346D01*
X-301695Y-84505D01*
X-301197Y-84007D01*
X-300927Y-83356D01*
Y-82651D01*
X-301197Y-82000D01*
X-301695Y-81502D01*
X-302346Y-81232D01*
D02*
G37*
%LPD*%
G36*
X-42468Y29071D02*
X-42655Y29247D01*
X-42850Y29405D01*
X-43053Y29545D01*
X-43266Y29665D01*
X-43487Y29768D01*
X-43716Y29851D01*
X-43955Y29916D01*
X-44202Y29963D01*
X-44457Y29991D01*
X-44722Y30000D01*
Y32000D01*
X-44457Y32009D01*
X-44202Y32037D01*
X-43955Y32084D01*
X-43716Y32149D01*
X-43487Y32232D01*
X-43266Y32335D01*
X-43053Y32455D01*
X-42850Y32595D01*
X-42655Y32753D01*
X-42468Y32929D01*
Y29071D01*
D02*
G37*
G36*
X-50458Y30000D02*
X-50838Y29980D01*
X-51178Y29920D01*
X-51478Y29820D01*
X-51738Y29680D01*
X-51958Y29500D01*
X-52138Y29280D01*
X-52278Y29020D01*
X-52378Y28720D01*
X-52438Y28380D01*
X-52458Y28000D01*
X-54458D01*
X-54478Y28380D01*
X-54538Y28720D01*
X-54638Y29020D01*
X-54778Y29280D01*
X-54958Y29500D01*
X-55178Y29680D01*
X-55438Y29820D01*
X-55738Y29920D01*
X-56078Y29980D01*
X-56458Y30000D01*
X-53458Y32000D01*
X-50458Y30000D01*
D02*
G37*
G36*
X-20528Y28244D02*
X-20941Y28242D01*
X-21678Y28197D01*
X-22001Y28155D01*
X-22295Y28099D01*
X-22559Y28030D01*
X-22792Y27947D01*
X-22996Y27852D01*
X-23170Y27742D01*
X-23314Y27620D01*
X-23880Y28185D01*
X-23758Y28330D01*
X-23649Y28504D01*
X-23553Y28708D01*
X-23470Y28941D01*
X-23401Y29205D01*
X-23345Y29499D01*
X-23303Y29822D01*
X-23258Y30559D01*
X-23256Y30972D01*
X-20528Y28244D01*
D02*
G37*
G36*
X-37664Y-21729D02*
X-37731Y-21801D01*
X-37792Y-21874D01*
X-37845Y-21947D01*
X-37891Y-22022D01*
X-37930Y-22098D01*
X-37961Y-22174D01*
X-37986Y-22252D01*
X-38003Y-22330D01*
X-38013Y-22410D01*
X-38016Y-22490D01*
X-38990Y-21516D01*
X-38910Y-21513D01*
X-38830Y-21503D01*
X-38752Y-21486D01*
X-38674Y-21461D01*
X-38598Y-21430D01*
X-38522Y-21391D01*
X-38447Y-21345D01*
X-38374Y-21292D01*
X-38301Y-21231D01*
X-38229Y-21164D01*
X-37664Y-21729D01*
D02*
G37*
G36*
X-67703Y27311D02*
X-67762Y27366D01*
X-67825Y27415D01*
X-67893Y27458D01*
X-67965Y27496D01*
X-68041Y27528D01*
X-68122Y27554D01*
X-68208Y27574D01*
X-68297Y27588D01*
X-68391Y27597D01*
X-68490Y27600D01*
Y28400D01*
X-68391Y28403D01*
X-68297Y28412D01*
X-68208Y28426D01*
X-68122Y28446D01*
X-68041Y28472D01*
X-67965Y28504D01*
X-67893Y28542D01*
X-67825Y28585D01*
X-67762Y28634D01*
X-67703Y28689D01*
Y27311D01*
D02*
G37*
G36*
X-176095Y26012D02*
X-176028Y25989D01*
X-175881Y25950D01*
X-175801Y25935D01*
X-175631Y25912D01*
X-175540Y25905D01*
X-175345Y25900D01*
X-174988Y25100D01*
X-175088Y25097D01*
X-175181Y25086D01*
X-175267Y25069D01*
X-175345Y25045D01*
X-175416Y25014D01*
X-175478Y24976D01*
X-175534Y24931D01*
X-175582Y24880D01*
X-175622Y24821D01*
X-175655Y24756D01*
X-176159Y26038D01*
X-176095Y26012D01*
D02*
G37*
G36*
X-261203Y20731D02*
X-261271Y20659D01*
X-261331Y20586D01*
X-261383Y20512D01*
X-261426Y20437D01*
X-261462Y20362D01*
X-261490Y20286D01*
X-261510Y20208D01*
X-261522Y20130D01*
X-261525Y20052D01*
X-261521Y19972D01*
X-262581Y20852D01*
X-262502Y20862D01*
X-262423Y20878D01*
X-262345Y20901D01*
X-262268Y20930D01*
X-262192Y20965D01*
X-262117Y21007D01*
X-262043Y21056D01*
X-261970Y21110D01*
X-261898Y21171D01*
X-261827Y21239D01*
X-261203Y20731D01*
D02*
G37*
G36*
X-112703Y18311D02*
X-112762Y18366D01*
X-112825Y18415D01*
X-112893Y18458D01*
X-112965Y18496D01*
X-113041Y18528D01*
X-113122Y18554D01*
X-113207Y18574D01*
X-113297Y18588D01*
X-113391Y18597D01*
X-113490Y18600D01*
Y19400D01*
X-113391Y19403D01*
X-113297Y19412D01*
X-113207Y19426D01*
X-113122Y19446D01*
X-113041Y19472D01*
X-112965Y19504D01*
X-112893Y19542D01*
X-112825Y19585D01*
X-112762Y19634D01*
X-112703Y19689D01*
Y18311D01*
D02*
G37*
G36*
X-115944Y17829D02*
X-115802Y17710D01*
X-115729Y17658D01*
X-115657Y17612D01*
X-115584Y17571D01*
X-115510Y17535D01*
X-115436Y17505D01*
X-115361Y17480D01*
X-115286Y17461D01*
X-116456Y16733D01*
X-116442Y16809D01*
X-116437Y16885D01*
X-116442Y16960D01*
X-116455Y17035D01*
X-116478Y17110D01*
X-116509Y17184D01*
X-116550Y17258D01*
X-116600Y17331D01*
X-116659Y17405D01*
X-116727Y17478D01*
X-116015Y17897D01*
X-115944Y17829D01*
D02*
G37*
G36*
X-217238Y16634D02*
X-217175Y16585D01*
X-217107Y16542D01*
X-217035Y16504D01*
X-216959Y16472D01*
X-216878Y16446D01*
X-216792Y16426D01*
X-216703Y16412D01*
X-216609Y16403D01*
X-216510Y16400D01*
Y15600D01*
X-216609Y15597D01*
X-216703Y15588D01*
X-216792Y15574D01*
X-216878Y15554D01*
X-216959Y15528D01*
X-217035Y15496D01*
X-217107Y15458D01*
X-217175Y15415D01*
X-217238Y15366D01*
X-217297Y15311D01*
Y16689D01*
X-217238Y16634D01*
D02*
G37*
G36*
X-133703Y14811D02*
X-133762Y14866D01*
X-133825Y14915D01*
X-133893Y14958D01*
X-133965Y14996D01*
X-134041Y15028D01*
X-134122Y15054D01*
X-134207Y15074D01*
X-134297Y15088D01*
X-134391Y15097D01*
X-134490Y15100D01*
Y15900D01*
X-134391Y15903D01*
X-134297Y15912D01*
X-134207Y15926D01*
X-134122Y15946D01*
X-134041Y15972D01*
X-133965Y16004D01*
X-133893Y16042D01*
X-133825Y16085D01*
X-133762Y16134D01*
X-133703Y16189D01*
Y14811D01*
D02*
G37*
G36*
X-120328Y12468D02*
X-120374Y12531D01*
X-120425Y12588D01*
X-120483Y12637D01*
X-120547Y12681D01*
X-120616Y12717D01*
X-120692Y12747D01*
X-120773Y12770D01*
X-120861Y12787D01*
X-120955Y12797D01*
X-121054Y12800D01*
X-120871Y13600D01*
X-120773Y13602D01*
X-120587Y13620D01*
X-120500Y13635D01*
X-120416Y13654D01*
X-120335Y13678D01*
X-120258Y13706D01*
X-120185Y13739D01*
X-120115Y13776D01*
X-120048Y13817D01*
X-120328Y12468D01*
D02*
G37*
G36*
X-212738Y12634D02*
X-212675Y12585D01*
X-212607Y12542D01*
X-212535Y12504D01*
X-212459Y12472D01*
X-212378Y12446D01*
X-212293Y12426D01*
X-212203Y12412D01*
X-212109Y12403D01*
X-212010Y12400D01*
Y11600D01*
X-212109Y11597D01*
X-212203Y11588D01*
X-212293Y11574D01*
X-212378Y11554D01*
X-212459Y11528D01*
X-212535Y11496D01*
X-212607Y11458D01*
X-212675Y11415D01*
X-212738Y11366D01*
X-212797Y11311D01*
Y12689D01*
X-212738Y12634D01*
D02*
G37*
G36*
X-134261Y11742D02*
X-134188Y11682D01*
X-134114Y11630D01*
X-134040Y11585D01*
X-133964Y11549D01*
X-133888Y11520D01*
X-133810Y11499D01*
X-133732Y11485D01*
X-133653Y11479D01*
X-133573Y11482D01*
X-134483Y10447D01*
X-134491Y10527D01*
X-134505Y10606D01*
X-134526Y10684D01*
X-134554Y10762D01*
X-134588Y10838D01*
X-134629Y10913D01*
X-134676Y10987D01*
X-134731Y11061D01*
X-134792Y11133D01*
X-134859Y11204D01*
X-134333Y11810D01*
X-134261Y11742D01*
D02*
G37*
G36*
X-155955Y8764D02*
X-155977Y8828D01*
X-156007Y8885D01*
X-156046Y8935D01*
X-156094Y8979D01*
X-156151Y9016D01*
X-156217Y9046D01*
X-156291Y9070D01*
X-156375Y9087D01*
X-156468Y9097D01*
X-156570Y9100D01*
X-156438Y9900D01*
X-155301Y9937D01*
X-155955Y8764D01*
D02*
G37*
G36*
X-165483Y9821D02*
X-165419Y9772D01*
X-165352Y9729D01*
X-165280Y9691D01*
X-165203Y9659D01*
X-165122Y9633D01*
X-165037Y9613D01*
X-164947Y9599D01*
X-164853Y9590D01*
X-164754Y9587D01*
Y8787D01*
X-164853Y8784D01*
X-164947Y8776D01*
X-165037Y8761D01*
X-165122Y8741D01*
X-165203Y8715D01*
X-165280Y8683D01*
X-165352Y8646D01*
X-165419Y8602D01*
X-165483Y8553D01*
X-165542Y8498D01*
Y9876D01*
X-165483Y9821D01*
D02*
G37*
G36*
X-135629Y11034D02*
X-135609Y10918D01*
X-135588Y10884D01*
X-135577Y10846D01*
X-135505Y10753D01*
X-135442Y10652D01*
X-135391Y10598D01*
X-135361Y10563D01*
X-135338Y10531D01*
X-135320Y10504D01*
X-135308Y10481D01*
X-135299Y10461D01*
X-135293Y10445D01*
X-135289Y10430D01*
X-135286Y10417D01*
X-135282Y10370D01*
X-135272Y10336D01*
Y10148D01*
X-135002Y9496D01*
X-134600Y9095D01*
X-134625Y8727D01*
X-134663Y8643D01*
X-135004Y8502D01*
X-135195Y8310D01*
X-135251Y8276D01*
X-135283Y8246D01*
X-135289Y8241D01*
X-135295Y8237D01*
X-135305Y8232D01*
X-135319Y8226D01*
X-135338Y8220D01*
X-135364Y8214D01*
X-135398Y8208D01*
X-135440Y8205D01*
X-135513Y8202D01*
X-135655Y8170D01*
X-135797Y8142D01*
X-135807Y8135D01*
X-135819Y8132D01*
X-135937Y8048D01*
X-136057Y7968D01*
X-136064Y7958D01*
X-136074Y7951D01*
X-136095Y7918D01*
X-147500D01*
X-147851Y7848D01*
X-148149Y7649D01*
X-149880Y5918D01*
X-174232D01*
X-174583Y5848D01*
X-174880Y5649D01*
X-175380Y5149D01*
X-176181D01*
X-176681Y5649D01*
X-176978Y5848D01*
X-177330Y5918D01*
X-182605D01*
X-182868Y6311D01*
X-182728Y6648D01*
Y7352D01*
X-182998Y8004D01*
X-183413Y8419D01*
X-183404Y8465D01*
X-182905Y8963D01*
X-182636Y9615D01*
Y10319D01*
X-182789Y10689D01*
X-182526Y11082D01*
X-176108D01*
X-175845Y10689D01*
X-175985Y10352D01*
Y9648D01*
X-175715Y8996D01*
X-175216Y8498D01*
X-174565Y8228D01*
X-173861D01*
X-173209Y8498D01*
X-172711Y8996D01*
X-172441Y9648D01*
Y10352D01*
X-172581Y10689D01*
X-172318Y11082D01*
X-167327D01*
X-167248Y10691D01*
X-167248Y10689D01*
X-167746Y10191D01*
X-168016Y9539D01*
Y8835D01*
X-167746Y8184D01*
X-167248Y7685D01*
X-166597Y7415D01*
X-165892D01*
X-165241Y7685D01*
X-165049Y7877D01*
X-164994Y7911D01*
X-164962Y7941D01*
X-164956Y7946D01*
X-164949Y7950D01*
X-164939Y7955D01*
X-164926Y7961D01*
X-164907Y7967D01*
X-164880Y7973D01*
X-164846Y7979D01*
X-164804Y7982D01*
X-164731Y7985D01*
X-164590Y8017D01*
X-164447Y8045D01*
X-164437Y8052D01*
X-164426Y8055D01*
X-164308Y8139D01*
X-164187Y8219D01*
X-164180Y8229D01*
X-164171Y8236D01*
X-164150Y8269D01*
X-162068D01*
X-161717Y8339D01*
X-161419Y8538D01*
X-161375Y8582D01*
X-157175D01*
X-157156Y8551D01*
X-157070Y8490D01*
X-156993Y8418D01*
X-156944Y8399D01*
X-156901Y8369D01*
X-156799Y8345D01*
X-156700Y8308D01*
X-156647Y8309D01*
X-156630Y8305D01*
X-156502Y7996D01*
X-156004Y7498D01*
X-155352Y7228D01*
X-154648D01*
X-153996Y7498D01*
X-153498Y7996D01*
X-153228Y8648D01*
Y9352D01*
X-153498Y10004D01*
X-153996Y10502D01*
X-154447Y10689D01*
X-154369Y11082D01*
X-135642D01*
X-135629Y11034D01*
D02*
G37*
G36*
X-194513Y7910D02*
X-194503Y7830D01*
X-194486Y7752D01*
X-194461Y7674D01*
X-194430Y7598D01*
X-194391Y7522D01*
X-194345Y7447D01*
X-194292Y7374D01*
X-194231Y7301D01*
X-194164Y7229D01*
X-194729Y6664D01*
X-194801Y6731D01*
X-194874Y6792D01*
X-194947Y6845D01*
X-195022Y6891D01*
X-195098Y6930D01*
X-195174Y6961D01*
X-195252Y6986D01*
X-195330Y7003D01*
X-195410Y7013D01*
X-195490Y7016D01*
X-194516Y7990D01*
X-194513Y7910D01*
D02*
G37*
G36*
X-134703Y6311D02*
X-134762Y6366D01*
X-134825Y6415D01*
X-134893Y6458D01*
X-134965Y6496D01*
X-135041Y6528D01*
X-135122Y6554D01*
X-135207Y6574D01*
X-135297Y6588D01*
X-135391Y6597D01*
X-135490Y6600D01*
Y7400D01*
X-135391Y7403D01*
X-135297Y7412D01*
X-135207Y7426D01*
X-135122Y7446D01*
X-135041Y7472D01*
X-134965Y7504D01*
X-134893Y7542D01*
X-134825Y7585D01*
X-134762Y7634D01*
X-134703Y7689D01*
Y6311D01*
D02*
G37*
G36*
X-194931Y4821D02*
X-194921Y4741D01*
X-194904Y4663D01*
X-194879Y4585D01*
X-194848Y4509D01*
X-194809Y4433D01*
X-194763Y4358D01*
X-194710Y4285D01*
X-194649Y4212D01*
X-194581Y4140D01*
X-195147Y3574D01*
X-195219Y3642D01*
X-195292Y3703D01*
X-195365Y3756D01*
X-195440Y3802D01*
X-195516Y3841D01*
X-195592Y3872D01*
X-195670Y3897D01*
X-195748Y3914D01*
X-195827Y3924D01*
X-195908Y3927D01*
X-194934Y4901D01*
X-194931Y4821D01*
D02*
G37*
G36*
X-184238Y3634D02*
X-184175Y3585D01*
X-184107Y3542D01*
X-184035Y3504D01*
X-183959Y3472D01*
X-183878Y3446D01*
X-183792Y3426D01*
X-183703Y3412D01*
X-183609Y3403D01*
X-183510Y3400D01*
Y2600D01*
X-183609Y2597D01*
X-183703Y2588D01*
X-183792Y2574D01*
X-183878Y2554D01*
X-183959Y2528D01*
X-184035Y2496D01*
X-184107Y2458D01*
X-184175Y2415D01*
X-184238Y2366D01*
X-184297Y2311D01*
Y3689D01*
X-184238Y3634D01*
D02*
G37*
G36*
X-137317Y3189D02*
X-137502Y3004D01*
X-137772Y2352D01*
Y2081D01*
X-137787Y2018D01*
X-137788Y1974D01*
X-137789Y1967D01*
X-137791Y1959D01*
X-137794Y1949D01*
X-137800Y1935D01*
X-137809Y1917D01*
X-137823Y1894D01*
X-137843Y1866D01*
X-137870Y1834D01*
X-137920Y1780D01*
X-137997Y1657D01*
X-138078Y1537D01*
X-138080Y1525D01*
X-138087Y1515D01*
X-138111Y1372D01*
X-138139Y1229D01*
X-138137Y1218D01*
X-138139Y1206D01*
X-138130Y1168D01*
X-140335Y-1037D01*
X-140728Y-874D01*
Y-648D01*
X-140998Y4D01*
X-141496Y502D01*
X-142148Y772D01*
X-142852D01*
X-143504Y502D01*
X-144002Y4D01*
X-144272Y-648D01*
Y-1352D01*
X-144002Y-2004D01*
X-143504Y-2502D01*
X-143053Y-2689D01*
X-143131Y-3082D01*
X-159495D01*
X-159645Y-2719D01*
X-159599Y-2672D01*
X-159184Y-1953D01*
X-158969Y-1152D01*
Y-323D01*
X-159184Y478D01*
X-159562Y1132D01*
X-159426Y1522D01*
X-145691Y1083D01*
X-145676Y1085D01*
X-145661Y1082D01*
X-145000D01*
X-144649Y1152D01*
X-144351Y1351D01*
X-142120Y3582D01*
X-137480D01*
X-137317Y3189D01*
D02*
G37*
G36*
X-136010Y1016D02*
X-136090Y1013D01*
X-136170Y1003D01*
X-136248Y986D01*
X-136326Y961D01*
X-136402Y930D01*
X-136478Y891D01*
X-136553Y845D01*
X-136626Y792D01*
X-136699Y731D01*
X-136771Y664D01*
X-137336Y1229D01*
X-137269Y1301D01*
X-137208Y1374D01*
X-137155Y1447D01*
X-137109Y1522D01*
X-137070Y1598D01*
X-137039Y1674D01*
X-137014Y1752D01*
X-136997Y1830D01*
X-136987Y1910D01*
X-136984Y1990D01*
X-136010Y1016D01*
D02*
G37*
G36*
X-82703Y-30689D02*
X-82762Y-30634D01*
X-82825Y-30585D01*
X-82893Y-30542D01*
X-82965Y-30504D01*
X-83041Y-30472D01*
X-83122Y-30446D01*
X-83207Y-30426D01*
X-83297Y-30412D01*
X-83391Y-30403D01*
X-83490Y-30400D01*
Y-29600D01*
X-83391Y-29597D01*
X-83297Y-29588D01*
X-83207Y-29574D01*
X-83122Y-29554D01*
X-83041Y-29528D01*
X-82965Y-29496D01*
X-82893Y-29458D01*
X-82825Y-29415D01*
X-82762Y-29366D01*
X-82703Y-29311D01*
Y-30689D01*
D02*
G37*
G36*
X-198866Y-13262D02*
X-198915Y-13325D01*
X-198958Y-13393D01*
X-198996Y-13465D01*
X-199028Y-13541D01*
X-199054Y-13622D01*
X-199074Y-13708D01*
X-199088Y-13797D01*
X-199097Y-13891D01*
X-199100Y-13990D01*
X-199900D01*
X-199903Y-13891D01*
X-199912Y-13797D01*
X-199926Y-13708D01*
X-199946Y-13622D01*
X-199972Y-13541D01*
X-200004Y-13465D01*
X-200042Y-13393D01*
X-200085Y-13325D01*
X-200134Y-13262D01*
X-200189Y-13203D01*
X-198811D01*
X-198866Y-13262D01*
D02*
G37*
G36*
X-90510Y-45984D02*
X-90590Y-45987D01*
X-90670Y-45997D01*
X-90748Y-46014D01*
X-90826Y-46039D01*
X-90902Y-46070D01*
X-90978Y-46109D01*
X-91053Y-46155D01*
X-91126Y-46208D01*
X-91199Y-46269D01*
X-91271Y-46336D01*
X-91836Y-45771D01*
X-91769Y-45699D01*
X-91708Y-45626D01*
X-91655Y-45553D01*
X-91609Y-45478D01*
X-91570Y-45402D01*
X-91539Y-45326D01*
X-91514Y-45248D01*
X-91497Y-45170D01*
X-91487Y-45090D01*
X-91484Y-45010D01*
X-90510Y-45984D01*
D02*
G37*
G36*
X-197866Y-1262D02*
X-197915Y-1325D01*
X-197958Y-1393D01*
X-197996Y-1465D01*
X-198028Y-1541D01*
X-198054Y-1622D01*
X-198074Y-1708D01*
X-198088Y-1797D01*
X-198097Y-1891D01*
X-198100Y-1990D01*
X-198900D01*
X-198903Y-1891D01*
X-198912Y-1797D01*
X-198926Y-1708D01*
X-198946Y-1622D01*
X-198972Y-1541D01*
X-199004Y-1465D01*
X-199042Y-1393D01*
X-199085Y-1325D01*
X-199134Y-1262D01*
X-199189Y-1203D01*
X-197811D01*
X-197866Y-1262D01*
D02*
G37*
G36*
X-138703Y-13189D02*
X-138762Y-13134D01*
X-138825Y-13085D01*
X-138893Y-13042D01*
X-138965Y-13004D01*
X-139041Y-12972D01*
X-139122Y-12946D01*
X-139207Y-12926D01*
X-139297Y-12912D01*
X-139391Y-12903D01*
X-139490Y-12900D01*
Y-12100D01*
X-139391Y-12097D01*
X-139297Y-12088D01*
X-139207Y-12074D01*
X-139122Y-12054D01*
X-139041Y-12028D01*
X-138965Y-11996D01*
X-138893Y-11958D01*
X-138825Y-11915D01*
X-138762Y-11866D01*
X-138703Y-11811D01*
Y-13189D01*
D02*
G37*
G36*
X-194891Y-15917D02*
X-194940Y-15980D01*
X-194983Y-16048D01*
X-195021Y-16120D01*
X-195053Y-16196D01*
X-195079Y-16277D01*
X-195099Y-16362D01*
X-195113Y-16452D01*
X-195122Y-16546D01*
X-195125Y-16645D01*
X-195925D01*
X-195928Y-16546D01*
X-195936Y-16452D01*
X-195951Y-16362D01*
X-195971Y-16277D01*
X-195997Y-16196D01*
X-196029Y-16120D01*
X-196066Y-16048D01*
X-196110Y-15980D01*
X-196159Y-15917D01*
X-196214Y-15858D01*
X-194836D01*
X-194891Y-15917D01*
D02*
G37*
G36*
X-96703Y-43689D02*
X-96762Y-43634D01*
X-96825Y-43585D01*
X-96893Y-43542D01*
X-96965Y-43504D01*
X-97041Y-43472D01*
X-97122Y-43446D01*
X-97207Y-43426D01*
X-97297Y-43412D01*
X-97391Y-43403D01*
X-97490Y-43400D01*
Y-42600D01*
X-97391Y-42597D01*
X-97297Y-42588D01*
X-97207Y-42574D01*
X-97122Y-42554D01*
X-97041Y-42528D01*
X-96965Y-42496D01*
X-96893Y-42458D01*
X-96825Y-42415D01*
X-96762Y-42366D01*
X-96703Y-42311D01*
Y-43689D01*
D02*
G37*
D68*
X61419Y20919D02*
G03*
X60500Y21300I-919J-919D01*
G01*
X77075Y16105D02*
G03*
X77075Y16105I-2172J0D01*
G01*
X64672Y18000D02*
G03*
X62650Y20166I-2172J0D01*
G01*
X60334Y17850D02*
G03*
X64672Y18000I2166J150D01*
G01*
X58672Y24000D02*
G03*
X58672Y24000I-2172J0D01*
G01*
X47426Y21638D02*
G03*
X47426Y18362I-1426J-1638D01*
G01*
X61419Y20919D02*
G03*
X60500Y21300I-919J-919D01*
G01*
X77172Y-28500D02*
G03*
X77172Y-28500I-2172J0D01*
G01*
X65172Y-26500D02*
G03*
X65172Y-26500I-2172J0D01*
G01*
X63172Y-17500D02*
G03*
X63172Y-17500I-2172J0D01*
G01*
X23530Y-3500D02*
G03*
X23530Y-3500I-11030J0D01*
G01*
X-313970Y-33000D02*
G03*
X-318220Y-24300I-11030J0D01*
G01*
X-331780D02*
G03*
X-313970Y-33000I6780J-8700D01*
G01*
X-341328Y-49000D02*
G03*
X-341328Y-49000I-2172J0D01*
G01*
X-345616Y-57240D02*
G03*
X-344092Y-55167I-648J2073D01*
G01*
D02*
G03*
X-348337Y-54519I-2172J0D01*
G01*
X-162015Y2523D02*
G03*
X-162748Y2463I-104J-3260D01*
G01*
X66006Y35100D02*
X78600Y22506D01*
X61500Y20839D02*
Y35100D01*
X73500Y17762D02*
Y27606D01*
X61419Y20919D02*
X61807Y20532D01*
X57346Y22000D02*
X78600D01*
X57346Y26000D02*
X75106D01*
X75437Y14000D02*
X78600D01*
X75963Y18000D02*
X78600D01*
X64672D02*
X73843D01*
X57500Y25928D02*
Y35100D01*
X53500Y21300D02*
Y35100D01*
X49500Y21300D02*
Y35100D01*
X45500Y22113D02*
Y35100D01*
X57500Y21300D02*
Y22072D01*
X48280Y18700D02*
X59961D01*
X48280Y21300D02*
X60500D01*
X46846Y22000D02*
X55654D01*
X46846Y18000D02*
X60245D01*
X78600Y0D02*
Y22506D01*
X73500Y-26930D02*
Y14447D01*
X78600Y-47006D02*
Y0D01*
X77500Y-48106D02*
Y23606D01*
X63113Y-18000D02*
X78600D01*
X69500Y-56106D02*
Y31606D01*
X65500Y-59600D02*
Y35100D01*
X76570Y-30000D02*
X78600D01*
X73500Y-52106D02*
Y-30070D01*
X65113Y-26000D02*
X78600D01*
X66006Y-59600D02*
X78600Y-47006D01*
X49500Y-59600D02*
Y18700D01*
X41500Y-59600D02*
Y35100D01*
X53500Y-59600D02*
Y18700D01*
X33500Y-59600D02*
Y35100D01*
X29500Y-59600D02*
Y35100D01*
X37500Y-59600D02*
Y35100D01*
X61500Y-24930D02*
Y-19613D01*
Y-15387D02*
Y16072D01*
Y-59600D02*
Y-28070D01*
X45500Y-59600D02*
Y17887D01*
X57500Y-59600D02*
Y18700D01*
X-10600Y26000D02*
X55654D01*
X-10600Y18000D02*
X45154D01*
X-10600Y10000D02*
X78600D01*
X-10600Y14000D02*
X74369D01*
X-10600Y34000D02*
X67106D01*
X-10600Y35100D02*
X66006D01*
X-10600Y30000D02*
X71106D01*
X23427Y-2000D02*
X78600D01*
X22061Y2000D02*
X78600D01*
X23243Y-6000D02*
X78600D01*
X21411Y-10000D02*
X78600D01*
X18104Y6000D02*
X78600D01*
X15878Y-14000D02*
X78600D01*
X17500Y6331D02*
Y35100D01*
X13500Y7485D02*
Y35100D01*
X21500Y2877D02*
Y35100D01*
X9500Y7114D02*
Y35100D01*
X5500Y5024D02*
Y35100D01*
X1500Y-2688D02*
Y35100D01*
X-10600Y-6000D02*
X1757D01*
X-10600Y-2000D02*
X1573D01*
X-10600Y-10000D02*
X3589D01*
X-10600Y22000D02*
X45154D01*
X-10600Y6000D02*
X6896D01*
X-10600Y2000D02*
X2939D01*
X-10600Y-34000D02*
X78600D01*
X-10600Y-30000D02*
X73430D01*
X-10600Y-38000D02*
X78600D01*
X25500Y-59600D02*
Y35100D01*
X-10600Y-22000D02*
X78600D01*
X-10600Y-18000D02*
X58887D01*
X-10600Y-26000D02*
X60887D01*
X-10600Y-54000D02*
X71606D01*
X-10600Y-58000D02*
X67606D01*
X-10600Y-59600D02*
X66006D01*
X-10600Y-46000D02*
X78600D01*
X-10600Y-42000D02*
X78600D01*
X-10600Y-50000D02*
X75606D01*
X-2500Y-59600D02*
Y35100D01*
X1500Y-59600D02*
Y-4312D01*
X-10500Y-59600D02*
Y35100D01*
X-10600Y-59600D02*
Y35100D01*
X-6500Y-59600D02*
Y35100D01*
X17500Y-59600D02*
Y-13331D01*
X13500Y-59600D02*
Y-14484D01*
X21500Y-59600D02*
Y-9876D01*
X-10600Y-14000D02*
X9122D01*
X5500Y-59600D02*
Y-12024D01*
X9500Y-59600D02*
Y-14114D01*
X-314386Y-30000D02*
X-307500D01*
X-314016Y-34000D02*
X-307500D01*
X-315168Y-38000D02*
X-307500D01*
X-318623Y-42000D02*
X-307500D01*
X-340856Y-62000D02*
X-307500D01*
X-336856Y-66000D02*
X-307500D01*
X-341572Y-50000D02*
X-307500D01*
X-314500Y-29622D02*
Y-24300D01*
X-334500Y-27396D02*
Y-24300D01*
X-338500Y-64356D02*
Y-24300D01*
X-318220D02*
X-307500D01*
X-316476Y-26000D02*
X-307500D01*
X-324856Y-78000D02*
X-307500D01*
Y-88600D02*
Y-24300D01*
X-332856Y-70000D02*
X-307500D01*
X-328856Y-74000D02*
X-307500D01*
X-316856Y-86000D02*
X-307500D01*
X-314256Y-88600D02*
X-307500D01*
X-320856Y-82000D02*
X-307500D01*
X-314500Y-88356D02*
Y-36378D01*
X-310500Y-88600D02*
Y-24300D01*
X-334500Y-68356D02*
Y-38604D01*
X-318500Y-84356D02*
Y-41911D01*
X-326500Y-76356D02*
Y-43927D01*
X-322500Y-80356D02*
Y-43743D01*
X-330500Y-72356D02*
Y-42561D01*
X-367100Y-30000D02*
X-335614D01*
X-367100Y-34000D02*
X-335984D01*
X-367100Y-24300D02*
X-331780D01*
X-367100Y-26000D02*
X-333524D01*
X-360856Y-42000D02*
X-331377D01*
X-356856Y-46000D02*
X-307500D01*
X-364856Y-38000D02*
X-334832D01*
X-358500Y-44356D02*
Y-24300D01*
X-354500Y-48356D02*
Y-24300D01*
X-366500Y-36356D02*
Y-24300D01*
X-362500Y-40356D02*
Y-24300D01*
X-367100Y-35756D02*
X-363053Y-39803D01*
X-342500Y-47072D02*
Y-24300D01*
X-367100Y-35756D02*
Y-24500D01*
X-344432Y-54000D02*
X-307500D01*
X-342500Y-60356D02*
Y-50928D01*
X-344856Y-58000D02*
X-307500D01*
X-342553Y-60303D02*
X-314256Y-88600D01*
X-345616Y-57240D02*
X-342553Y-60303D01*
X-350500Y-52356D02*
Y-24300D01*
X-346500Y-53008D02*
Y-24300D01*
X-363053Y-39803D02*
X-348337Y-54519D01*
X-348856Y-54000D02*
X-348095D01*
X-352856Y-50000D02*
X-345428D01*
X-264500Y-13816D02*
Y-13500D01*
X-265500Y-33000D02*
Y-14816D01*
X-264500Y-13816D01*
X-247000Y-33000D02*
Y-17816D01*
X-247500Y-17316D02*
Y-17000D01*
Y-17316D02*
X-247000Y-17816D01*
X-162015Y2523D02*
X-145661Y2000D01*
X-164576Y2234D02*
X-163913D01*
X-162748Y2463D01*
X-183677Y-4000D02*
X-142000D01*
X-164613Y2272D02*
X-164576Y2234D01*
X-165342Y3000D02*
X-164613Y2272D01*
X-142000Y-4000D02*
X-136000Y2000D01*
X-184441Y-4764D02*
X-183677Y-4000D01*
X-145661Y2000D02*
X-145000D01*
X-186002Y-4764D02*
X-184441D01*
X46000Y20000D02*
X60500D01*
X-176562Y25140D02*
X-176360D01*
X-176000Y25500D01*
X-122300D01*
X-115800Y19000D01*
X-112000D01*
X-199500Y18500D02*
X-198616Y17616D01*
X-187482D01*
X-185030Y20067D01*
X-174732D01*
X-173384Y18720D01*
X-143212D02*
X-142583Y19349D01*
X-173384Y18720D02*
X-143212D01*
X-117846Y19349D02*
X-116742Y18245D01*
X-142583Y19349D02*
X-117846D01*
X-116742Y18058D02*
Y18245D01*
X-115500Y16500D02*
Y16816D01*
X-116742Y18058D02*
X-115500Y16816D01*
X-218000Y16000D02*
X-175862D01*
X-213500Y12000D02*
X-135089D01*
X-196000Y14000D02*
X-195200Y13200D01*
X-119700D01*
X-119500Y13000D01*
X-176561Y4231D02*
X-175000D01*
X-192500Y5000D02*
X-177330D01*
X-175000Y4231D02*
X-174232Y5000D01*
X-177330D02*
X-176561Y4231D01*
X-195500Y8000D02*
X-192500Y5000D01*
X-185000Y3000D02*
X-165342D01*
X-174232Y5000D02*
X-149500D01*
X-147500Y7000D01*
X-166244Y9187D02*
X-162068D01*
X-161755Y9500D02*
X-155816D01*
X-162068Y9187D02*
X-161755Y9500D01*
X-186266Y-4500D02*
X-186002Y-4764D01*
X-194230Y2230D02*
X-187500Y-4500D01*
X-186266D01*
X-145000Y2000D02*
X-144766Y2234D01*
X-142500Y4500D01*
X-198500Y-3500D02*
Y-500D01*
Y-3500D02*
X-189500Y-12500D01*
X-194230Y2230D02*
Y3223D01*
X-195918Y4911D02*
X-194230Y3223D01*
X-199500Y-22500D02*
Y-12500D01*
X-175362Y15500D02*
X-133000D01*
X-175862Y16000D02*
X-175362Y15500D01*
X-133589Y10500D02*
X-133500D01*
X-135089Y12000D02*
X-133589Y10500D01*
X-189500Y-12500D02*
X-138000D01*
X60500Y20000D02*
X62500Y18000D01*
X-262500Y19871D02*
Y20000D01*
X-254500Y28000D01*
X-155816Y9500D02*
X-155316Y9000D01*
X-155000D01*
X-39000Y-22500D02*
X-25500Y-9000D01*
Y26000D01*
X-20500Y31000D01*
X-86000Y-30000D02*
X-82000D01*
X-120500Y4500D02*
X-86000Y-30000D01*
X-142500Y4500D02*
X-120500D01*
X-147500Y7000D02*
X-134000D01*
X-254500Y28000D02*
X-67000D01*
X-195525Y-17475D02*
X-174000Y-39000D01*
X-195525Y-17475D02*
Y-15155D01*
X-174000Y-39000D02*
X-109658D01*
X-105658Y-43000D02*
X-96000D01*
X-109658Y-39000D02*
X-105658Y-43000D01*
X-92500Y-47000D02*
X-90500Y-45000D01*
X-175000Y-47000D02*
X-92500D01*
X-199500Y-22500D02*
X-175000Y-47000D01*
D71*
X-207000Y-15500D02*
X-199000Y-7500D01*
X-207000Y-44500D02*
Y-15500D01*
X-214000Y-28000D02*
Y-13000D01*
X-53458Y23458D02*
X-50500Y20500D01*
X-53458Y31000D02*
X-40500D01*
X-61500D02*
X-53458D01*
Y23458D02*
Y31000D01*
X-119500Y32500D02*
X-63000D01*
X-61500Y31000D01*
X-207000Y-44500D02*
X-204000Y-47500D01*
D76*
X-295000Y-1500D02*
D03*
D77*
X-325000Y-33000D02*
D03*
X12500Y-3500D02*
D03*
D78*
X-298795Y-52480D02*
D03*
D79*
X-20500Y31000D02*
D03*
Y21000D02*
D03*
X-30500Y31000D02*
D03*
Y21000D02*
D03*
X-40500Y31000D02*
D03*
D80*
Y21000D02*
D03*
D81*
X-342661Y-19508D02*
D03*
Y14508D02*
D03*
D82*
X-359000Y-19508D02*
D03*
Y14508D02*
D03*
D83*
X-344630Y-13878D02*
D03*
Y8878D02*
D03*
D84*
X-242616Y5654D02*
D03*
X-262612Y-6648D02*
D03*
X-255305Y6360D02*
D03*
X-267384Y-17969D02*
D03*
X-264500Y-13500D02*
D03*
X-265500Y-33000D02*
D03*
X-295935Y-31116D02*
D03*
X-292500D02*
D03*
X-299000D02*
D03*
X-266384Y5654D02*
D03*
X-248547Y17884D02*
D03*
X-272169Y-6158D02*
D03*
X-242642Y-17969D02*
D03*
X-247500Y-17000D02*
D03*
X-218601Y5235D02*
D03*
X-142500Y-1000D02*
D03*
X-184500Y-8500D02*
D03*
X-173594Y-2116D02*
D03*
X-154508D02*
D03*
X-169500Y-6000D02*
D03*
X-174213Y10000D02*
D03*
X-180500Y-23500D02*
D03*
X-35949Y-6158D02*
D03*
X-42000Y3000D02*
D03*
X-30044Y5654D02*
D03*
X-18233D02*
D03*
X35500Y14000D02*
D03*
X46000Y20000D02*
D03*
X49000Y2000D02*
D03*
X-247116Y-6158D02*
D03*
X-236736Y17884D02*
D03*
X-176562Y25140D02*
D03*
X-118626Y17465D02*
D03*
X-112000Y19000D02*
D03*
X-199500Y18500D02*
D03*
X-196744Y19602D02*
D03*
X-196000Y14000D02*
D03*
X-115500Y16500D02*
D03*
X-110000Y-500D02*
D03*
X-119500Y13000D02*
D03*
X-184500Y7000D02*
D03*
X-184407Y9967D02*
D03*
X-185000Y3000D02*
D03*
X-166244Y9187D02*
D03*
X-122000Y7500D02*
D03*
X-157000Y-43000D02*
D03*
X-120500Y-55500D02*
D03*
X-199500Y-33500D02*
D03*
X-187000Y33000D02*
D03*
X-152500Y-7000D02*
D03*
X-185221Y-2880D02*
D03*
X-180500Y-8000D02*
D03*
X-198500Y-500D02*
D03*
X-195918Y4911D02*
D03*
X-196500Y2000D02*
D03*
X-336000Y11000D02*
D03*
X-284512Y-83707D02*
D03*
X-288000Y-74500D02*
D03*
X-254000Y-60500D02*
D03*
X-276500Y-75500D02*
D03*
X-286000Y-63500D02*
D03*
X13000Y22000D02*
D03*
X29500Y-26000D02*
D03*
X54500Y-34000D02*
D03*
X56258Y-21797D02*
D03*
X42000Y-10000D02*
D03*
X61000Y2000D02*
D03*
X70500Y10000D02*
D03*
X-312500Y-43000D02*
D03*
X-358000Y-31500D02*
D03*
X-329500Y-48000D02*
D03*
X-341000Y-42500D02*
D03*
X-313000Y-81500D02*
D03*
X-325500Y-67000D02*
D03*
X-305000D02*
D03*
X-153500Y-58768D02*
D03*
Y-55000D02*
D03*
X-116000Y-56000D02*
D03*
X-196500Y-10000D02*
D03*
X-199000Y-7500D02*
D03*
X-199500Y-12500D02*
D03*
X-202500Y-15000D02*
D03*
X-218000Y16000D02*
D03*
X-213500Y12000D02*
D03*
X-194528Y-4054D02*
D03*
X-121500Y-23000D02*
D03*
X-139358Y-36504D02*
D03*
X-144000Y-31500D02*
D03*
X-134000Y-26000D02*
D03*
X-142500Y-22000D02*
D03*
X-149407Y-26864D02*
D03*
X-269000Y-25000D02*
D03*
X-289500Y-24500D02*
D03*
X-308500Y-25500D02*
D03*
X-313500Y-21000D02*
D03*
X-241000Y-24500D02*
D03*
X-219500Y-25000D02*
D03*
X-191500Y34500D02*
D03*
X-96500Y13000D02*
D03*
X-89542Y11722D02*
D03*
X-103500Y12500D02*
D03*
X-110000D02*
D03*
X-100500Y-9000D02*
D03*
X-95000Y-8500D02*
D03*
X-90000Y-8000D02*
D03*
X-89000Y-1000D02*
D03*
X-53500Y34000D02*
D03*
X-122500Y34500D02*
D03*
X-146000Y33000D02*
D03*
X-133500D02*
D03*
X-331500Y-14500D02*
D03*
Y19000D02*
D03*
X-328000Y6000D02*
D03*
X-316000Y8000D02*
D03*
Y-15000D02*
D03*
X-320500Y-11500D02*
D03*
X-320000Y-18500D02*
D03*
X-335000Y-16000D02*
D03*
X-337000Y-49000D02*
D03*
X-328500Y-52500D02*
D03*
X-294000Y-45000D02*
D03*
X-282500Y-50500D02*
D03*
X-178500Y-40500D02*
D03*
X-170500Y-45000D02*
D03*
X-161139Y-17288D02*
D03*
X-153500Y-17000D02*
D03*
X-173500Y21500D02*
D03*
X-192000Y-40000D02*
D03*
X-185500Y-31500D02*
D03*
X-170000D02*
D03*
X-152000D02*
D03*
X-153000Y-37000D02*
D03*
X-17000Y-29500D02*
D03*
X71000Y24000D02*
D03*
X71500Y-21000D02*
D03*
X72000Y28000D02*
D03*
X56500Y24000D02*
D03*
X62500Y18000D02*
D03*
X-278075Y-41884D02*
D03*
X-266264D02*
D03*
X-254453D02*
D03*
X-247000Y-33000D02*
D03*
X-150508Y82D02*
D03*
X-161008Y7582D02*
D03*
X-18233Y-41591D02*
D03*
X-24138Y-53402D02*
D03*
X-30044Y-41591D02*
D03*
X-35949Y-53402D02*
D03*
X-47760Y-6158D02*
D03*
X-41855Y-41591D02*
D03*
X-47760Y-53402D02*
D03*
X-53666Y-17969D02*
D03*
Y-41591D02*
D03*
X-59571Y-53402D02*
D03*
X-71382Y17465D02*
D03*
X-65477Y5654D02*
D03*
Y-17969D02*
D03*
X-71382Y-29780D02*
D03*
Y-53402D02*
D03*
X-83193Y17465D02*
D03*
X-77288Y5654D02*
D03*
X-83193Y-53402D02*
D03*
X-95004Y17465D02*
D03*
X-89099Y5654D02*
D03*
Y-17969D02*
D03*
X-95004Y-29780D02*
D03*
X-106815Y17465D02*
D03*
X-100910Y-17969D02*
D03*
X-112721Y5654D02*
D03*
X-118626Y-6158D02*
D03*
Y-29780D02*
D03*
X-207209Y5654D02*
D03*
X-213114Y-6158D02*
D03*
X-224925Y17465D02*
D03*
X-219020Y-17969D02*
D03*
Y-41591D02*
D03*
X-230831Y-17969D02*
D03*
Y-41591D02*
D03*
X-242642D02*
D03*
X-260358Y17465D02*
D03*
X-272169D02*
D03*
X-283980D02*
D03*
X-278075Y5654D02*
D03*
Y-17969D02*
D03*
X-295791Y17465D02*
D03*
X-289886Y-17969D02*
D03*
X-307603Y17465D02*
D03*
X-301697Y-17969D02*
D03*
X-313508Y5654D02*
D03*
X-325319Y29276D02*
D03*
X-337130D02*
D03*
X-354847Y17465D02*
D03*
X-348941Y5654D02*
D03*
X-354847Y-6158D02*
D03*
X-348941Y-17969D02*
D03*
X-45500Y-23000D02*
D03*
X-84000Y-7500D02*
D03*
X-289500Y-46000D02*
D03*
X-65500Y-2000D02*
D03*
X-292908Y-53010D02*
D03*
X-214000Y-28000D02*
D03*
Y-13000D02*
D03*
X-195500Y8000D02*
D03*
X-262500Y19871D02*
D03*
X-181817Y18183D02*
D03*
X-76128Y-44006D02*
D03*
X-302699Y-83003D02*
D03*
X74903Y16105D02*
D03*
X75000Y-28500D02*
D03*
X-50500Y20500D02*
D03*
X-53500Y7500D02*
D03*
X63000Y-26500D02*
D03*
X61000Y-17500D02*
D03*
X-48500Y-1500D02*
D03*
X-39000Y-22500D02*
D03*
X-119500Y32500D02*
D03*
X-69000Y23000D02*
D03*
X-82000Y-30000D02*
D03*
X-346264Y-55167D02*
D03*
X-343500Y-49000D02*
D03*
X-67000Y28000D02*
D03*
X-174000Y-28000D02*
D03*
X-204000Y-47500D02*
D03*
X-195525Y-15155D02*
D03*
X-96000Y-43000D02*
D03*
X-90500Y-45000D02*
D03*
X-136993Y-17257D02*
D03*
X-138000Y-12500D02*
D03*
X-136500Y-7500D02*
D03*
X-136000Y2000D02*
D03*
X-134000Y7000D02*
D03*
X-133500Y10500D02*
D03*
X-133000Y15500D02*
D03*
X-155000Y9000D02*
D03*
X-143993Y20604D02*
D03*
X-326000Y13000D02*
D03*
X-335500Y6500D02*
D03*
X-335923Y-12023D02*
D03*
X-319000Y-4468D02*
D03*
Y-1500D02*
D03*
X-133500Y-30500D02*
D03*
X-136500Y-27898D02*
D03*
D85*
X-162119Y-738D02*
D03*
M02*
