G04*
G04 #@! TF.GenerationSoftware,Altium Limited,Altium Designer,24.5.2 (23)*
G04*
G04 Layer_Physical_Order=2*
G04 Layer_Color=36540*
%FSLAX25Y25*%
%MOIN*%
G70*
G04*
G04 #@! TF.SameCoordinates,F16A58F2-69D1-4175-9934-78DD47C00A05*
G04*
G04*
G04 #@! TF.FilePolarity,Positive*
G04*
G01*
G75*
%ADD68C,0.00800*%
%ADD69C,0.01200*%
%ADD74C,0.05000*%
%ADD78C,0.06398*%
%ADD79C,0.05512*%
%ADD81O,0.08465X0.04134*%
%ADD82O,0.07284X0.04134*%
%ADD84C,0.01968*%
%ADD86C,0.03937*%
G36*
X78961Y22655D02*
Y0D01*
Y-47155D01*
X66155Y-59961D01*
X-9697D01*
Y35461D01*
X66155D01*
X78961Y22655D01*
D02*
G37*
G36*
X-10500Y-59961D02*
X-245500D01*
X-246280Y-60116D01*
X-246942Y-60558D01*
X-275345Y-88961D01*
X-307500D01*
Y-24000D01*
X-319303D01*
X-319429Y-23909D01*
X-320919Y-23149D01*
X-322511Y-22632D01*
X-324163Y-22370D01*
X-325837D01*
X-327489Y-22632D01*
X-329081Y-23149D01*
X-330571Y-23909D01*
X-330697Y-24000D01*
X-367461D01*
Y-12250D01*
Y0D01*
Y11405D01*
X-363308Y15558D01*
X-363308Y15558D01*
X-343405Y35461D01*
X-10500D01*
Y-59961D01*
D02*
G37*
%LPC*%
G36*
X56852Y25772D02*
X56148D01*
X55496Y25502D01*
X54998Y25004D01*
X54728Y24352D01*
Y23648D01*
X54998Y22996D01*
X55496Y22498D01*
X56148Y22228D01*
X56852D01*
X57504Y22498D01*
X58002Y22996D01*
X58272Y23648D01*
Y24352D01*
X58002Y25004D01*
X57504Y25502D01*
X56852Y25772D01*
D02*
G37*
G36*
X46352Y21772D02*
X45648D01*
X44996Y21502D01*
X44498Y21004D01*
X44228Y20352D01*
Y19648D01*
X44498Y18996D01*
X44996Y18498D01*
X45648Y18228D01*
X46352D01*
X47004Y18498D01*
X47502Y18996D01*
X47772Y19648D01*
Y20352D01*
X47502Y21004D01*
X47004Y21502D01*
X46352Y21772D01*
D02*
G37*
G36*
X62852Y19772D02*
X62148D01*
X61496Y19502D01*
X60998Y19004D01*
X60728Y18352D01*
Y17648D01*
X60998Y16996D01*
X61496Y16498D01*
X62148Y16228D01*
X62852D01*
X63504Y16498D01*
X64002Y16996D01*
X64272Y17648D01*
Y18352D01*
X64002Y19004D01*
X63504Y19502D01*
X62852Y19772D01*
D02*
G37*
G36*
X75255Y17876D02*
X74551D01*
X73900Y17607D01*
X73401Y17108D01*
X73131Y16457D01*
Y15753D01*
X73401Y15101D01*
X73900Y14603D01*
X74551Y14333D01*
X75255D01*
X75907Y14603D01*
X76405Y15101D01*
X76675Y15753D01*
Y16457D01*
X76405Y17108D01*
X75907Y17607D01*
X75255Y17876D01*
D02*
G37*
G36*
X13337Y7130D02*
X11663D01*
X10011Y6868D01*
X8420Y6351D01*
X6929Y5592D01*
X5575Y4608D01*
X4392Y3425D01*
X3409Y2071D01*
X2649Y581D01*
X2132Y-1011D01*
X1870Y-2663D01*
Y-4337D01*
X2132Y-5989D01*
X2649Y-7581D01*
X3409Y-9071D01*
X4392Y-10425D01*
X5575Y-11608D01*
X6929Y-12592D01*
X8420Y-13351D01*
X10011Y-13868D01*
X11663Y-14130D01*
X13337D01*
X14989Y-13868D01*
X16580Y-13351D01*
X18071Y-12592D01*
X19425Y-11608D01*
X20608Y-10425D01*
X21591Y-9071D01*
X22351Y-7581D01*
X22868Y-5989D01*
X23130Y-4337D01*
Y-2663D01*
X22868Y-1011D01*
X22351Y581D01*
X21591Y2071D01*
X20608Y3425D01*
X19425Y4608D01*
X18071Y5592D01*
X16580Y6351D01*
X14989Y6868D01*
X13337Y7130D01*
D02*
G37*
G36*
X61352Y-15728D02*
X60648D01*
X59996Y-15998D01*
X59498Y-16496D01*
X59228Y-17148D01*
Y-17852D01*
X59498Y-18504D01*
X59996Y-19002D01*
X60648Y-19272D01*
X61352D01*
X62004Y-19002D01*
X62502Y-18504D01*
X62772Y-17852D01*
Y-17148D01*
X62502Y-16496D01*
X62004Y-15998D01*
X61352Y-15728D01*
D02*
G37*
G36*
X63352Y-24728D02*
X62648D01*
X61996Y-24998D01*
X61498Y-25496D01*
X61228Y-26148D01*
Y-26852D01*
X61498Y-27504D01*
X61996Y-28002D01*
X62648Y-28272D01*
X63352D01*
X64004Y-28002D01*
X64502Y-27504D01*
X64772Y-26852D01*
Y-26148D01*
X64502Y-25496D01*
X64004Y-24998D01*
X63352Y-24728D01*
D02*
G37*
G36*
X75352Y-26728D02*
X74648D01*
X73996Y-26998D01*
X73498Y-27496D01*
X73228Y-28148D01*
Y-28852D01*
X73498Y-29504D01*
X73996Y-30002D01*
X74648Y-30272D01*
X75352D01*
X76004Y-30002D01*
X76502Y-29504D01*
X76772Y-28852D01*
Y-28148D01*
X76502Y-27496D01*
X76004Y-26998D01*
X75352Y-26728D01*
D02*
G37*
G36*
X-119148Y34272D02*
X-119852D01*
X-120504Y34002D01*
X-121002Y33504D01*
X-121272Y32852D01*
Y32148D01*
X-121002Y31496D01*
X-120504Y30998D01*
X-119852Y30728D01*
X-119148D01*
X-118496Y30998D01*
X-117998Y31496D01*
X-117728Y32148D01*
Y32852D01*
X-117998Y33504D01*
X-118496Y34002D01*
X-119148Y34272D01*
D02*
G37*
G36*
X-20033Y34543D02*
X-20967D01*
X-21868Y34302D01*
X-22676Y33835D01*
X-23335Y33176D01*
X-23802Y32368D01*
X-24043Y31466D01*
Y30533D01*
X-23802Y29632D01*
X-23335Y28824D01*
X-22676Y28165D01*
X-21868Y27698D01*
X-20967Y27457D01*
X-20033D01*
X-19132Y27698D01*
X-18324Y28165D01*
X-17665Y28824D01*
X-17198Y29632D01*
X-16957Y30533D01*
Y31466D01*
X-17198Y32368D01*
X-17665Y33176D01*
X-18324Y33835D01*
X-19132Y34302D01*
X-20033Y34543D01*
D02*
G37*
G36*
X-40034D02*
X-40966D01*
X-41868Y34302D01*
X-42676Y33835D01*
X-43335Y33176D01*
X-43802Y32368D01*
X-44043Y31466D01*
Y30533D01*
X-43802Y29632D01*
X-43335Y28824D01*
X-42676Y28165D01*
X-41868Y27698D01*
X-40966Y27457D01*
X-40034D01*
X-39132Y27698D01*
X-38324Y28165D01*
X-37665Y28824D01*
X-37198Y29632D01*
X-36957Y30533D01*
Y31466D01*
X-37198Y32368D01*
X-37665Y33176D01*
X-38324Y33835D01*
X-39132Y34302D01*
X-40034Y34543D01*
D02*
G37*
G36*
X-66648Y29772D02*
X-67352D01*
X-68004Y29502D01*
X-68502Y29004D01*
X-68772Y28352D01*
Y27648D01*
X-68502Y26996D01*
X-68004Y26498D01*
X-67352Y26228D01*
X-66648D01*
X-65996Y26498D01*
X-65498Y26996D01*
X-65228Y27648D01*
Y28352D01*
X-65498Y29004D01*
X-65996Y29502D01*
X-66648Y29772D01*
D02*
G37*
G36*
X-176209Y26912D02*
X-176914D01*
X-177565Y26642D01*
X-178063Y26144D01*
X-178333Y25493D01*
Y24788D01*
X-178063Y24137D01*
X-177565Y23638D01*
X-176914Y23369D01*
X-176209D01*
X-175558Y23638D01*
X-175060Y24137D01*
X-174790Y24788D01*
Y25493D01*
X-175060Y26144D01*
X-175558Y26642D01*
X-176209Y26912D01*
D02*
G37*
G36*
X-68648Y24772D02*
X-69352D01*
X-70004Y24502D01*
X-70502Y24004D01*
X-70772Y23352D01*
Y22648D01*
X-70502Y21996D01*
X-70004Y21498D01*
X-69352Y21228D01*
X-68648D01*
X-67996Y21498D01*
X-67498Y21996D01*
X-67228Y22648D01*
Y23352D01*
X-67498Y24004D01*
X-67996Y24502D01*
X-68648Y24772D01*
D02*
G37*
G36*
X-50148Y22272D02*
X-50852D01*
X-51504Y22002D01*
X-52002Y21504D01*
X-52272Y20852D01*
Y20148D01*
X-52002Y19496D01*
X-51504Y18998D01*
X-50852Y18728D01*
X-50148D01*
X-49496Y18998D01*
X-48998Y19496D01*
X-48728Y20148D01*
Y20852D01*
X-48998Y21504D01*
X-49496Y22002D01*
X-50148Y22272D01*
D02*
G37*
G36*
X-262148Y21643D02*
X-262852D01*
X-263504Y21373D01*
X-264002Y20875D01*
X-264272Y20223D01*
Y19519D01*
X-264002Y18867D01*
X-263504Y18369D01*
X-262852Y18099D01*
X-262148D01*
X-261496Y18369D01*
X-260998Y18867D01*
X-260728Y19519D01*
Y20223D01*
X-260998Y20875D01*
X-261496Y21373D01*
X-262148Y21643D01*
D02*
G37*
G36*
X-20033Y24543D02*
X-20967D01*
X-21868Y24302D01*
X-22676Y23835D01*
X-23335Y23176D01*
X-23802Y22368D01*
X-24043Y21466D01*
Y20534D01*
X-23802Y19632D01*
X-23335Y18824D01*
X-22676Y18165D01*
X-21868Y17698D01*
X-20967Y17457D01*
X-20033D01*
X-19132Y17698D01*
X-18324Y18165D01*
X-17665Y18824D01*
X-17198Y19632D01*
X-16957Y20534D01*
Y21466D01*
X-17198Y22368D01*
X-17665Y23176D01*
X-18324Y23835D01*
X-19132Y24302D01*
X-20033Y24543D01*
D02*
G37*
G36*
X-30033D02*
X-30966D01*
X-31868Y24302D01*
X-32676Y23835D01*
X-33335Y23176D01*
X-33802Y22368D01*
X-34043Y21466D01*
Y20534D01*
X-33802Y19632D01*
X-33335Y18824D01*
X-32676Y18165D01*
X-31868Y17698D01*
X-30966Y17457D01*
X-30033D01*
X-29132Y17698D01*
X-28324Y18165D01*
X-27665Y18824D01*
X-27198Y19632D01*
X-26957Y20534D01*
Y21466D01*
X-27198Y22368D01*
X-27665Y23176D01*
X-28324Y23835D01*
X-29132Y24302D01*
X-30033Y24543D01*
D02*
G37*
G36*
X-36957D02*
X-44043D01*
Y17457D01*
X-36957D01*
Y24543D01*
D02*
G37*
G36*
X-111648Y20772D02*
X-112352D01*
X-113004Y20502D01*
X-113502Y20004D01*
X-113772Y19352D01*
Y18648D01*
X-113502Y17996D01*
X-113004Y17498D01*
X-112352Y17228D01*
X-111648D01*
X-110996Y17498D01*
X-110498Y17996D01*
X-110228Y18648D01*
Y19352D01*
X-110498Y20004D01*
X-110996Y20502D01*
X-111648Y20772D01*
D02*
G37*
G36*
X-199148Y20272D02*
X-199852D01*
X-200504Y20002D01*
X-201002Y19504D01*
X-201272Y18852D01*
Y18148D01*
X-201002Y17496D01*
X-200504Y16998D01*
X-199852Y16728D01*
X-199148D01*
X-198496Y16998D01*
X-197998Y17496D01*
X-197728Y18148D01*
Y18852D01*
X-197998Y19504D01*
X-198496Y20002D01*
X-199148Y20272D01*
D02*
G37*
G36*
X-115148Y18272D02*
X-115852D01*
X-116504Y18002D01*
X-117002Y17504D01*
X-117272Y16852D01*
Y16148D01*
X-117002Y15496D01*
X-116504Y14998D01*
X-115852Y14728D01*
X-115148D01*
X-114496Y14998D01*
X-113998Y15496D01*
X-113728Y16148D01*
Y16852D01*
X-113998Y17504D01*
X-114496Y18002D01*
X-115148Y18272D01*
D02*
G37*
G36*
X-217648Y17772D02*
X-218352D01*
X-219004Y17502D01*
X-219502Y17004D01*
X-219772Y16352D01*
Y15648D01*
X-219502Y14996D01*
X-219004Y14498D01*
X-218352Y14228D01*
X-217648D01*
X-216996Y14498D01*
X-216498Y14996D01*
X-216228Y15648D01*
Y16352D01*
X-216498Y17004D01*
X-216996Y17502D01*
X-217648Y17772D01*
D02*
G37*
G36*
X-132648Y17272D02*
X-133352D01*
X-134004Y17002D01*
X-134502Y16504D01*
X-134772Y15852D01*
Y15148D01*
X-134502Y14496D01*
X-134004Y13998D01*
X-133352Y13728D01*
X-132648D01*
X-131996Y13998D01*
X-131498Y14496D01*
X-131228Y15148D01*
Y15852D01*
X-131498Y16504D01*
X-131996Y17002D01*
X-132648Y17272D01*
D02*
G37*
G36*
X-195648Y15772D02*
X-196352D01*
X-197004Y15502D01*
X-197502Y15004D01*
X-197772Y14352D01*
Y13648D01*
X-197502Y12996D01*
X-197004Y12498D01*
X-196352Y12228D01*
X-195648D01*
X-194996Y12498D01*
X-194498Y12996D01*
X-194228Y13648D01*
Y14352D01*
X-194498Y15004D01*
X-194996Y15502D01*
X-195648Y15772D01*
D02*
G37*
G36*
X-181817Y20700D02*
X-182780Y20508D01*
X-183597Y19962D01*
X-184143Y19146D01*
X-184334Y18183D01*
X-184143Y17220D01*
X-183597Y16403D01*
X-183341Y16147D01*
Y11869D01*
X-183734Y11606D01*
X-184055Y11739D01*
X-184760D01*
X-185411Y11469D01*
X-185909Y10971D01*
X-186179Y10319D01*
Y9615D01*
X-185909Y8963D01*
X-185742Y8797D01*
X-185746Y8259D01*
X-186002Y8004D01*
X-186272Y7352D01*
Y6648D01*
X-186002Y5996D01*
X-185504Y5498D01*
X-184852Y5228D01*
X-184148D01*
X-183496Y5498D01*
X-182998Y5996D01*
X-182728Y6648D01*
Y7352D01*
X-182998Y8004D01*
X-183413Y8419D01*
X-183404Y8465D01*
X-182976Y8893D01*
X-182818Y8957D01*
X-182492Y8933D01*
X-182017Y8457D01*
Y3000D01*
X-181825Y2037D01*
X-181280Y1220D01*
X-179564Y-495D01*
Y-4151D01*
X-180400Y-4987D01*
X-180500Y-4974D01*
X-181283Y-5077D01*
X-182013Y-5379D01*
X-182640Y-5860D01*
X-183121Y-6487D01*
X-183423Y-7217D01*
X-183526Y-8000D01*
Y-23500D01*
X-183423Y-24283D01*
X-183121Y-25013D01*
X-182640Y-25640D01*
X-182013Y-26120D01*
X-181283Y-26423D01*
X-180500Y-26526D01*
X-179717Y-26423D01*
X-178987Y-26120D01*
X-178360Y-25640D01*
X-177880Y-25013D01*
X-177577Y-24283D01*
X-177474Y-23500D01*
Y-9180D01*
X-175268Y-6973D01*
X-174722Y-6157D01*
X-174530Y-5194D01*
Y-4000D01*
X-174203Y-3781D01*
X-173947Y-3887D01*
X-173242D01*
X-172591Y-3618D01*
X-172093Y-3119D01*
X-171823Y-2468D01*
Y-1763D01*
X-172093Y-1112D01*
X-172591Y-614D01*
X-173242Y-344D01*
X-173947D01*
X-174203Y-450D01*
X-174530Y-231D01*
Y547D01*
X-174722Y1510D01*
X-175268Y2327D01*
X-176983Y4042D01*
Y8878D01*
X-176183D01*
X-176156Y8837D01*
X-176153Y8835D01*
X-176151Y8832D01*
X-176024Y8747D01*
X-175897Y8661D01*
X-175894Y8660D01*
X-175891Y8658D01*
X-175740Y8628D01*
X-175590Y8597D01*
X-175490Y8596D01*
X-175332Y8591D01*
X-175307Y8588D01*
X-175216Y8498D01*
X-174565Y8228D01*
X-173861D01*
X-173209Y8498D01*
X-172711Y8996D01*
X-172441Y9648D01*
Y10352D01*
X-172711Y11004D01*
X-173209Y11502D01*
X-173861Y11772D01*
X-174565D01*
X-175216Y11502D01*
X-175303Y11416D01*
X-175501Y11404D01*
X-175590Y11403D01*
X-175740Y11372D01*
X-175891Y11342D01*
X-175894Y11340D01*
X-175897Y11339D01*
X-176024Y11253D01*
X-176151Y11168D01*
X-176153Y11165D01*
X-176156Y11163D01*
X-176183Y11122D01*
X-177615D01*
X-177720Y11280D01*
X-178307Y11866D01*
Y17189D01*
X-178498Y18152D01*
X-179044Y18969D01*
X-180038Y19962D01*
X-180854Y20508D01*
X-181817Y20700D01*
D02*
G37*
G36*
X-119148Y14772D02*
X-119852D01*
X-120504Y14502D01*
X-121002Y14004D01*
X-121272Y13352D01*
Y12648D01*
X-121002Y11996D01*
X-120504Y11498D01*
X-119852Y11228D01*
X-119148D01*
X-118496Y11498D01*
X-117998Y11996D01*
X-117728Y12648D01*
Y13352D01*
X-117998Y14004D01*
X-118496Y14502D01*
X-119148Y14772D01*
D02*
G37*
G36*
X-325648D02*
X-326352D01*
X-327004Y14502D01*
X-327502Y14004D01*
X-327772Y13352D01*
Y12648D01*
X-327502Y11996D01*
X-327004Y11498D01*
X-326352Y11228D01*
X-325648D01*
X-324996Y11498D01*
X-324498Y11996D01*
X-324228Y12648D01*
Y13352D01*
X-324498Y14004D01*
X-324996Y14502D01*
X-325648Y14772D01*
D02*
G37*
G36*
X-213148Y13772D02*
X-213852D01*
X-214504Y13502D01*
X-215002Y13004D01*
X-215272Y12352D01*
Y11648D01*
X-215002Y10996D01*
X-214504Y10498D01*
X-213852Y10228D01*
X-213148D01*
X-212496Y10498D01*
X-211998Y10996D01*
X-211728Y11648D01*
Y12352D01*
X-211998Y13004D01*
X-212496Y13502D01*
X-213148Y13772D01*
D02*
G37*
G36*
X-165892Y10959D02*
X-166597D01*
X-167248Y10689D01*
X-167746Y10191D01*
X-168016Y9539D01*
Y8835D01*
X-167746Y8184D01*
X-167248Y7685D01*
X-166597Y7415D01*
X-165892D01*
X-165241Y7685D01*
X-164743Y8184D01*
X-164473Y8835D01*
Y9539D01*
X-164743Y10191D01*
X-165241Y10689D01*
X-165892Y10959D01*
D02*
G37*
G36*
X-154648Y10772D02*
X-155352D01*
X-156004Y10502D01*
X-156502Y10004D01*
X-156772Y9352D01*
Y8648D01*
X-156502Y7996D01*
X-156004Y7498D01*
X-155352Y7228D01*
X-154648D01*
X-153996Y7498D01*
X-153498Y7996D01*
X-153228Y8648D01*
Y9352D01*
X-153498Y10004D01*
X-153996Y10502D01*
X-154648Y10772D01*
D02*
G37*
G36*
X-344199Y11043D02*
X-345061D01*
X-345856Y10714D01*
X-346466Y10104D01*
X-346795Y9309D01*
Y8447D01*
X-346466Y7651D01*
X-345856Y7042D01*
X-345061Y6713D01*
X-344199D01*
X-343403Y7042D01*
X-342794Y7651D01*
X-342465Y8447D01*
Y9309D01*
X-342794Y10104D01*
X-343403Y10714D01*
X-344199Y11043D01*
D02*
G37*
G36*
X-53148Y9272D02*
X-53852D01*
X-54504Y9002D01*
X-55002Y8504D01*
X-55272Y7852D01*
Y7148D01*
X-55002Y6496D01*
X-54504Y5998D01*
X-53852Y5728D01*
X-53148D01*
X-52496Y5998D01*
X-51998Y6496D01*
X-51728Y7148D01*
Y7852D01*
X-51998Y8504D01*
X-52496Y9002D01*
X-53148Y9272D01*
D02*
G37*
G36*
X-121648D02*
X-122352D01*
X-123004Y9002D01*
X-123502Y8504D01*
X-123772Y7852D01*
Y7148D01*
X-123502Y6496D01*
X-123004Y5998D01*
X-122352Y5728D01*
X-121648D01*
X-120996Y5998D01*
X-120498Y6496D01*
X-120228Y7148D01*
Y7852D01*
X-120498Y8504D01*
X-120996Y9002D01*
X-121648Y9272D01*
D02*
G37*
G36*
X-133148Y12272D02*
X-133852D01*
X-134504Y12002D01*
X-135002Y11504D01*
X-135272Y10852D01*
Y10148D01*
X-135002Y9496D01*
X-134600Y9095D01*
X-134625Y8727D01*
X-134663Y8643D01*
X-135004Y8502D01*
X-135502Y8004D01*
X-135772Y7352D01*
Y6648D01*
X-135502Y5996D01*
X-135004Y5498D01*
X-134352Y5228D01*
X-133648D01*
X-132996Y5498D01*
X-132498Y5996D01*
X-132228Y6648D01*
Y7352D01*
X-132498Y8004D01*
X-132899Y8405D01*
X-132875Y8773D01*
X-132837Y8857D01*
X-132496Y8998D01*
X-131998Y9496D01*
X-131728Y10148D01*
Y10852D01*
X-131998Y11504D01*
X-132496Y12002D01*
X-133148Y12272D01*
D02*
G37*
G36*
X-335148Y8272D02*
X-335852D01*
X-336504Y8002D01*
X-337002Y7504D01*
X-337272Y6852D01*
Y6148D01*
X-337002Y5496D01*
X-336504Y4998D01*
X-335852Y4728D01*
X-335148D01*
X-334496Y4998D01*
X-333998Y5496D01*
X-333728Y6148D01*
Y6852D01*
X-333998Y7504D01*
X-334496Y8002D01*
X-335148Y8272D01*
D02*
G37*
G36*
X-195148Y9772D02*
X-195852D01*
X-196504Y9502D01*
X-197002Y9004D01*
X-197272Y8352D01*
Y7648D01*
X-197002Y6996D01*
X-196816Y6811D01*
X-196878Y6498D01*
X-196948Y6386D01*
X-197420Y5914D01*
X-197689Y5263D01*
Y4558D01*
X-197420Y3907D01*
X-196921Y3409D01*
X-196270Y3139D01*
X-195565D01*
X-194914Y3409D01*
X-194416Y3907D01*
X-194146Y4558D01*
Y5263D01*
X-194416Y5914D01*
X-194602Y6100D01*
X-194539Y6413D01*
X-194470Y6525D01*
X-193998Y6996D01*
X-193728Y7648D01*
Y8352D01*
X-193998Y9004D01*
X-194496Y9502D01*
X-195148Y9772D01*
D02*
G37*
G36*
X-41648Y4772D02*
X-42352D01*
X-43004Y4502D01*
X-43502Y4004D01*
X-43772Y3352D01*
Y2648D01*
X-43502Y1996D01*
X-43004Y1498D01*
X-42352Y1228D01*
X-41648D01*
X-40996Y1498D01*
X-40498Y1996D01*
X-40228Y2648D01*
Y3352D01*
X-40498Y4004D01*
X-40996Y4502D01*
X-41648Y4772D01*
D02*
G37*
G36*
X-184648D02*
X-185352D01*
X-186004Y4502D01*
X-186502Y4004D01*
X-186772Y3352D01*
Y2648D01*
X-186502Y1996D01*
X-186004Y1498D01*
X-185352Y1228D01*
X-184648D01*
X-183996Y1498D01*
X-183498Y1996D01*
X-183228Y2648D01*
Y3352D01*
X-183498Y4004D01*
X-183996Y4502D01*
X-184648Y4772D01*
D02*
G37*
G36*
X-135648Y3772D02*
X-136352D01*
X-137004Y3502D01*
X-137502Y3004D01*
X-137772Y2352D01*
Y1648D01*
X-137502Y996D01*
X-137004Y498D01*
X-136352Y228D01*
X-135648D01*
X-134996Y498D01*
X-134498Y996D01*
X-134228Y1648D01*
Y2352D01*
X-134498Y3004D01*
X-134996Y3502D01*
X-135648Y3772D01*
D02*
G37*
G36*
X-198148Y1272D02*
X-198852D01*
X-199504Y1002D01*
X-200002Y504D01*
X-200272Y-148D01*
Y-852D01*
X-200002Y-1504D01*
X-199504Y-2002D01*
X-198852Y-2272D01*
X-198148D01*
X-197496Y-2002D01*
X-196998Y-1504D01*
X-196728Y-852D01*
Y-148D01*
X-196998Y504D01*
X-197496Y1002D01*
X-198148Y1272D01*
D02*
G37*
G36*
X-142148Y772D02*
X-142852D01*
X-143504Y502D01*
X-144002Y4D01*
X-144272Y-648D01*
Y-1352D01*
X-144002Y-2004D01*
X-143504Y-2502D01*
X-142852Y-2772D01*
X-142148D01*
X-141496Y-2502D01*
X-140998Y-2004D01*
X-140728Y-1352D01*
Y-648D01*
X-140998Y4D01*
X-141496Y502D01*
X-142148Y772D01*
D02*
G37*
G36*
X-48148Y272D02*
X-48852D01*
X-49504Y2D01*
X-50002Y-496D01*
X-50272Y-1148D01*
Y-1852D01*
X-50002Y-2504D01*
X-49504Y-3002D01*
X-48852Y-3272D01*
X-48148D01*
X-47496Y-3002D01*
X-46998Y-2504D01*
X-46728Y-1852D01*
Y-1148D01*
X-46998Y-496D01*
X-47496Y2D01*
X-48148Y272D01*
D02*
G37*
G36*
X-65148Y-228D02*
X-65852D01*
X-66504Y-498D01*
X-67002Y-996D01*
X-67272Y-1648D01*
Y-2352D01*
X-67002Y-3004D01*
X-66504Y-3502D01*
X-65852Y-3772D01*
X-65148D01*
X-64496Y-3502D01*
X-63998Y-3004D01*
X-63728Y-2352D01*
Y-1648D01*
X-63998Y-996D01*
X-64496Y-498D01*
X-65148Y-228D01*
D02*
G37*
G36*
X-161704Y2412D02*
X-162533D01*
X-163335Y2197D01*
X-164053Y1782D01*
X-164639Y1196D01*
X-165054Y478D01*
X-165269Y-323D01*
Y-1152D01*
X-165054Y-1953D01*
X-164639Y-2672D01*
X-164053Y-3258D01*
X-163335Y-3673D01*
X-162533Y-3887D01*
X-161704D01*
X-160903Y-3673D01*
X-160185Y-3258D01*
X-159599Y-2672D01*
X-159184Y-1953D01*
X-158969Y-1152D01*
Y-323D01*
X-159184Y478D01*
X-159599Y1196D01*
X-160185Y1782D01*
X-160903Y2197D01*
X-161704Y2412D01*
D02*
G37*
G36*
X-184869Y-1108D02*
X-185574D01*
X-186225Y-1378D01*
X-186723Y-1876D01*
X-186993Y-2527D01*
Y-3232D01*
X-186723Y-3883D01*
X-186225Y-4382D01*
X-185574Y-4651D01*
X-184869D01*
X-184218Y-4382D01*
X-183719Y-3883D01*
X-183450Y-3232D01*
Y-2527D01*
X-183719Y-1876D01*
X-184218Y-1378D01*
X-184869Y-1108D01*
D02*
G37*
G36*
X-194175Y-2282D02*
X-194880D01*
X-195531Y-2552D01*
X-196029Y-3050D01*
X-196299Y-3702D01*
Y-4406D01*
X-196029Y-5058D01*
X-195531Y-5556D01*
X-194880Y-5826D01*
X-194175D01*
X-193524Y-5556D01*
X-193026Y-5058D01*
X-192756Y-4406D01*
Y-3702D01*
X-193026Y-3050D01*
X-193524Y-2552D01*
X-194175Y-2282D01*
D02*
G37*
G36*
X-318648Y272D02*
X-319352D01*
X-320004Y2D01*
X-320502Y-496D01*
X-320772Y-1148D01*
Y-1852D01*
X-320502Y-2504D01*
X-320021Y-2984D01*
X-320502Y-3465D01*
X-320772Y-4116D01*
Y-4821D01*
X-320502Y-5472D01*
X-320004Y-5970D01*
X-319352Y-6240D01*
X-318648D01*
X-317996Y-5970D01*
X-317498Y-5472D01*
X-317228Y-4821D01*
Y-4116D01*
X-317498Y-3465D01*
X-317979Y-2984D01*
X-317498Y-2504D01*
X-317228Y-1852D01*
Y-1148D01*
X-317498Y-496D01*
X-317996Y2D01*
X-318648Y272D01*
D02*
G37*
G36*
X-83648Y-5728D02*
X-84352D01*
X-85004Y-5998D01*
X-85502Y-6496D01*
X-85772Y-7148D01*
Y-7852D01*
X-85502Y-8504D01*
X-85004Y-9002D01*
X-84352Y-9272D01*
X-83648D01*
X-82996Y-9002D01*
X-82498Y-8504D01*
X-82228Y-7852D01*
Y-7148D01*
X-82498Y-6496D01*
X-82996Y-5998D01*
X-83648Y-5728D01*
D02*
G37*
G36*
X-136148D02*
X-136852D01*
X-137504Y-5998D01*
X-138002Y-6496D01*
X-138272Y-7148D01*
Y-7852D01*
X-138002Y-8504D01*
X-137504Y-9002D01*
X-136852Y-9272D01*
X-136148D01*
X-135496Y-9002D01*
X-134998Y-8504D01*
X-134728Y-7852D01*
Y-7148D01*
X-134998Y-6496D01*
X-135496Y-5998D01*
X-136148Y-5728D01*
D02*
G37*
G36*
X-198648D02*
X-199352D01*
X-200004Y-5998D01*
X-200502Y-6496D01*
X-200772Y-7148D01*
Y-7852D01*
X-200502Y-8504D01*
X-200004Y-9002D01*
X-199352Y-9272D01*
X-198648D01*
X-198481Y-9203D01*
X-198203Y-9481D01*
X-198272Y-9648D01*
Y-10352D01*
X-198050Y-10888D01*
X-198384Y-11111D01*
X-198496Y-10998D01*
X-199148Y-10728D01*
X-199852D01*
X-200504Y-10998D01*
X-201002Y-11496D01*
X-201272Y-12148D01*
Y-12852D01*
X-201002Y-13504D01*
X-200504Y-14002D01*
X-199852Y-14272D01*
X-199148D01*
X-198496Y-14002D01*
X-197998Y-13504D01*
X-197728Y-12852D01*
Y-12148D01*
X-197950Y-11612D01*
X-197616Y-11389D01*
X-197504Y-11502D01*
X-196852Y-11772D01*
X-196148D01*
X-195496Y-11502D01*
X-194998Y-11004D01*
X-194728Y-10352D01*
Y-9648D01*
X-194998Y-8996D01*
X-195496Y-8498D01*
X-196148Y-8228D01*
X-196852D01*
X-197019Y-8297D01*
X-197297Y-8019D01*
X-197228Y-7852D01*
Y-7148D01*
X-197498Y-6496D01*
X-197996Y-5998D01*
X-198648Y-5728D01*
D02*
G37*
G36*
X-335570Y-10252D02*
X-336275D01*
X-336926Y-10521D01*
X-337424Y-11020D01*
X-337694Y-11671D01*
Y-12376D01*
X-337424Y-13027D01*
X-336926Y-13525D01*
X-336275Y-13795D01*
X-335570D01*
X-334919Y-13525D01*
X-334421Y-13027D01*
X-334151Y-12376D01*
Y-11671D01*
X-334421Y-11020D01*
X-334919Y-10521D01*
X-335570Y-10252D01*
D02*
G37*
G36*
X-137648Y-10728D02*
X-138352D01*
X-139004Y-10998D01*
X-139502Y-11496D01*
X-139772Y-12148D01*
Y-12852D01*
X-139502Y-13504D01*
X-139004Y-14002D01*
X-138352Y-14272D01*
X-137648D01*
X-136996Y-14002D01*
X-136498Y-13504D01*
X-136228Y-12852D01*
Y-12148D01*
X-136498Y-11496D01*
X-136996Y-10998D01*
X-137648Y-10728D01*
D02*
G37*
G36*
X-213648Y-11228D02*
X-214352D01*
X-215004Y-11498D01*
X-215502Y-11996D01*
X-215772Y-12648D01*
Y-13352D01*
X-215502Y-14004D01*
X-215004Y-14502D01*
X-214352Y-14772D01*
X-213648D01*
X-212996Y-14502D01*
X-212498Y-14004D01*
X-212228Y-13352D01*
Y-12648D01*
X-212498Y-11996D01*
X-212996Y-11498D01*
X-213648Y-11228D01*
D02*
G37*
G36*
X-264148Y-11728D02*
X-264852D01*
X-265504Y-11998D01*
X-266002Y-12496D01*
X-266272Y-13148D01*
Y-13852D01*
X-266002Y-14504D01*
X-265504Y-15002D01*
X-264852Y-15272D01*
X-264148D01*
X-263496Y-15002D01*
X-262998Y-14504D01*
X-262728Y-13852D01*
Y-13148D01*
X-262998Y-12496D01*
X-263496Y-11998D01*
X-264148Y-11728D01*
D02*
G37*
G36*
X-293884Y12673D02*
X-296115D01*
X-298319Y12324D01*
X-300441Y11635D01*
X-302428Y10622D01*
X-304233Y9311D01*
X-305811Y7733D01*
X-307122Y5928D01*
X-308135Y3941D01*
X-308824Y1819D01*
X-309173Y-384D01*
Y-2616D01*
X-308824Y-4819D01*
X-308135Y-6941D01*
X-307122Y-8928D01*
X-305811Y-10733D01*
X-304233Y-12311D01*
X-302428Y-13622D01*
X-300441Y-14635D01*
X-298319Y-15324D01*
X-296115Y-15673D01*
X-293884D01*
X-291681Y-15324D01*
X-289559Y-14635D01*
X-287572Y-13622D01*
X-285767Y-12311D01*
X-284189Y-10733D01*
X-282878Y-8928D01*
X-281865Y-6941D01*
X-281176Y-4819D01*
X-280827Y-2616D01*
Y-384D01*
X-281176Y1819D01*
X-281865Y3941D01*
X-282878Y5928D01*
X-284189Y7733D01*
X-285767Y9311D01*
X-287572Y10622D01*
X-289559Y11635D01*
X-291681Y12324D01*
X-293884Y12673D01*
D02*
G37*
G36*
X-344199Y-11713D02*
X-345061D01*
X-345856Y-12042D01*
X-346466Y-12651D01*
X-346795Y-13447D01*
Y-14309D01*
X-346466Y-15104D01*
X-345856Y-15714D01*
X-345061Y-16043D01*
X-344199D01*
X-343403Y-15714D01*
X-342794Y-15104D01*
X-342465Y-14309D01*
Y-13447D01*
X-342794Y-12651D01*
X-343403Y-12042D01*
X-344199Y-11713D01*
D02*
G37*
G36*
X-195172Y-13383D02*
X-195877D01*
X-196528Y-13653D01*
X-197027Y-14151D01*
X-197297Y-14803D01*
Y-15507D01*
X-197027Y-16158D01*
X-196528Y-16657D01*
X-195877Y-16927D01*
X-195172D01*
X-194521Y-16657D01*
X-194023Y-16158D01*
X-193753Y-15507D01*
Y-14803D01*
X-194023Y-14151D01*
X-194521Y-13653D01*
X-195172Y-13383D01*
D02*
G37*
G36*
X-247148Y-15228D02*
X-247852D01*
X-248504Y-15498D01*
X-249002Y-15996D01*
X-249272Y-16648D01*
Y-17352D01*
X-249002Y-18004D01*
X-248504Y-18502D01*
X-247852Y-18772D01*
X-247148D01*
X-246496Y-18502D01*
X-245998Y-18004D01*
X-245728Y-17352D01*
Y-16648D01*
X-245998Y-15996D01*
X-246496Y-15498D01*
X-247148Y-15228D01*
D02*
G37*
G36*
X-136641Y-15486D02*
X-137346D01*
X-137997Y-15755D01*
X-138495Y-16254D01*
X-138765Y-16905D01*
Y-17610D01*
X-138495Y-18261D01*
X-137997Y-18759D01*
X-137346Y-19029D01*
X-136641D01*
X-135990Y-18759D01*
X-135491Y-18261D01*
X-135222Y-17610D01*
Y-16905D01*
X-135491Y-16254D01*
X-135990Y-15755D01*
X-136641Y-15486D01*
D02*
G37*
G36*
X-38648Y-20728D02*
X-39352D01*
X-40004Y-20998D01*
X-40502Y-21496D01*
X-40772Y-22148D01*
Y-22852D01*
X-40502Y-23504D01*
X-40004Y-24002D01*
X-39352Y-24272D01*
X-38648D01*
X-37996Y-24002D01*
X-37498Y-23504D01*
X-37228Y-22852D01*
Y-22148D01*
X-37498Y-21496D01*
X-37996Y-20998D01*
X-38648Y-20728D01*
D02*
G37*
G36*
X-45148Y-21228D02*
X-45852D01*
X-46504Y-21498D01*
X-47002Y-21996D01*
X-47272Y-22648D01*
Y-23352D01*
X-47002Y-24004D01*
X-46504Y-24502D01*
X-45852Y-24772D01*
X-45148D01*
X-44496Y-24502D01*
X-43998Y-24004D01*
X-43728Y-23352D01*
Y-22648D01*
X-43998Y-21996D01*
X-44496Y-21498D01*
X-45148Y-21228D01*
D02*
G37*
G36*
X-136148Y-26126D02*
X-136852D01*
X-137504Y-26396D01*
X-138002Y-26895D01*
X-138272Y-27546D01*
Y-28250D01*
X-138002Y-28902D01*
X-137504Y-29400D01*
X-136852Y-29670D01*
X-136148D01*
X-135496Y-29400D01*
X-134998Y-28902D01*
X-134728Y-28250D01*
Y-27546D01*
X-134998Y-26895D01*
X-135496Y-26396D01*
X-136148Y-26126D01*
D02*
G37*
G36*
X-173648Y-26228D02*
X-174352D01*
X-175004Y-26498D01*
X-175502Y-26996D01*
X-175772Y-27648D01*
Y-28352D01*
X-175502Y-29004D01*
X-175004Y-29502D01*
X-174352Y-29772D01*
X-173648D01*
X-172996Y-29502D01*
X-172498Y-29004D01*
X-172228Y-28352D01*
Y-27648D01*
X-172498Y-26996D01*
X-172996Y-26498D01*
X-173648Y-26228D01*
D02*
G37*
G36*
X-213648D02*
X-214352D01*
X-215004Y-26498D01*
X-215502Y-26996D01*
X-215772Y-27648D01*
Y-28352D01*
X-215502Y-29004D01*
X-215004Y-29502D01*
X-214352Y-29772D01*
X-213648D01*
X-212996Y-29502D01*
X-212498Y-29004D01*
X-212228Y-28352D01*
Y-27648D01*
X-212498Y-26996D01*
X-212996Y-26498D01*
X-213648Y-26228D01*
D02*
G37*
G36*
X-81648Y-28228D02*
X-82352D01*
X-83004Y-28498D01*
X-83502Y-28996D01*
X-83772Y-29648D01*
Y-30352D01*
X-83502Y-31004D01*
X-83004Y-31502D01*
X-82352Y-31772D01*
X-81648D01*
X-80996Y-31502D01*
X-80498Y-31004D01*
X-80228Y-30352D01*
Y-29648D01*
X-80498Y-28996D01*
X-80996Y-28498D01*
X-81648Y-28228D01*
D02*
G37*
G36*
X-133148Y-28728D02*
X-133852D01*
X-134504Y-28998D01*
X-135002Y-29496D01*
X-135272Y-30148D01*
Y-30852D01*
X-135002Y-31504D01*
X-134504Y-32002D01*
X-133852Y-32272D01*
X-133148D01*
X-132496Y-32002D01*
X-131998Y-31504D01*
X-131728Y-30852D01*
Y-30148D01*
X-131998Y-29496D01*
X-132496Y-28998D01*
X-133148Y-28728D01*
D02*
G37*
G36*
X-298648Y-29344D02*
X-299352D01*
X-300004Y-29614D01*
X-300502Y-30112D01*
X-300772Y-30763D01*
Y-31468D01*
X-300502Y-32119D01*
X-300004Y-32618D01*
X-299352Y-32887D01*
X-298648D01*
X-297996Y-32618D01*
X-297498Y-32119D01*
X-297228Y-31468D01*
Y-30763D01*
X-297498Y-30112D01*
X-297996Y-29614D01*
X-298648Y-29344D01*
D02*
G37*
G36*
X-246648Y-31228D02*
X-247352D01*
X-248004Y-31498D01*
X-248502Y-31996D01*
X-248772Y-32648D01*
Y-33352D01*
X-248502Y-34004D01*
X-248004Y-34502D01*
X-247352Y-34772D01*
X-246648D01*
X-245996Y-34502D01*
X-245498Y-34004D01*
X-245228Y-33352D01*
Y-32648D01*
X-245498Y-31996D01*
X-245996Y-31498D01*
X-246648Y-31228D01*
D02*
G37*
G36*
X-265148D02*
X-265852D01*
X-266504Y-31498D01*
X-267002Y-31996D01*
X-267272Y-32648D01*
Y-33352D01*
X-267002Y-34004D01*
X-266504Y-34502D01*
X-265852Y-34772D01*
X-265148D01*
X-264496Y-34502D01*
X-263998Y-34004D01*
X-263728Y-33352D01*
Y-32648D01*
X-263998Y-31996D01*
X-264496Y-31498D01*
X-265148Y-31228D01*
D02*
G37*
G36*
X-95648Y-41228D02*
X-96352D01*
X-97004Y-41498D01*
X-97502Y-41996D01*
X-97772Y-42648D01*
Y-43352D01*
X-97502Y-44004D01*
X-97004Y-44502D01*
X-96352Y-44772D01*
X-95648D01*
X-94996Y-44502D01*
X-94498Y-44004D01*
X-94228Y-43352D01*
Y-42648D01*
X-94498Y-41996D01*
X-94996Y-41498D01*
X-95648Y-41228D01*
D02*
G37*
G36*
X-75776Y-42234D02*
X-76480D01*
X-77131Y-42503D01*
X-77630Y-43002D01*
X-77900Y-43653D01*
Y-44358D01*
X-77630Y-45009D01*
X-77131Y-45507D01*
X-76480Y-45777D01*
X-75776D01*
X-75124Y-45507D01*
X-74626Y-45009D01*
X-74356Y-44358D01*
Y-43653D01*
X-74626Y-43002D01*
X-75124Y-42503D01*
X-75776Y-42234D01*
D02*
G37*
G36*
X-90148Y-43228D02*
X-90852D01*
X-91504Y-43498D01*
X-92002Y-43996D01*
X-92272Y-44648D01*
Y-45352D01*
X-92002Y-46004D01*
X-91504Y-46502D01*
X-90852Y-46772D01*
X-90148D01*
X-89496Y-46502D01*
X-88998Y-46004D01*
X-88728Y-45352D01*
Y-44648D01*
X-88998Y-43996D01*
X-89496Y-43498D01*
X-90148Y-43228D01*
D02*
G37*
G36*
X-289148Y-44228D02*
X-289852D01*
X-290504Y-44498D01*
X-291002Y-44996D01*
X-291272Y-45648D01*
Y-46352D01*
X-291002Y-47004D01*
X-290504Y-47502D01*
X-289852Y-47772D01*
X-289148D01*
X-288496Y-47502D01*
X-287998Y-47004D01*
X-287728Y-46352D01*
Y-45648D01*
X-287998Y-44996D01*
X-288496Y-44498D01*
X-289148Y-44228D01*
D02*
G37*
G36*
X-203648Y-45728D02*
X-204352D01*
X-205004Y-45998D01*
X-205502Y-46496D01*
X-205772Y-47148D01*
Y-47852D01*
X-205502Y-48504D01*
X-205004Y-49002D01*
X-204352Y-49272D01*
X-203648D01*
X-202996Y-49002D01*
X-202498Y-48504D01*
X-202228Y-47852D01*
Y-47148D01*
X-202498Y-46496D01*
X-202996Y-45998D01*
X-203648Y-45728D01*
D02*
G37*
G36*
X-292556Y-51238D02*
X-293261D01*
X-293912Y-51508D01*
X-294410Y-52006D01*
X-294680Y-52657D01*
Y-53362D01*
X-294410Y-54013D01*
X-293912Y-54512D01*
X-293261Y-54781D01*
X-292556D01*
X-291905Y-54512D01*
X-291406Y-54013D01*
X-291137Y-53362D01*
Y-52657D01*
X-291406Y-52006D01*
X-291905Y-51508D01*
X-292556Y-51238D01*
D02*
G37*
G36*
X-302346Y-81232D02*
X-303051D01*
X-303702Y-81502D01*
X-304201Y-82000D01*
X-304470Y-82651D01*
Y-83356D01*
X-304201Y-84007D01*
X-303702Y-84505D01*
X-303051Y-84775D01*
X-302346D01*
X-301695Y-84505D01*
X-301197Y-84007D01*
X-300927Y-83356D01*
Y-82651D01*
X-301197Y-82000D01*
X-301695Y-81502D01*
X-302346Y-81232D01*
D02*
G37*
%LPD*%
G36*
X-174916Y9311D02*
X-174938Y9328D01*
X-174970Y9343D01*
X-175013Y9356D01*
X-175065Y9368D01*
X-175126Y9378D01*
X-175280Y9392D01*
X-175472Y9399D01*
X-175584Y9400D01*
Y10600D01*
X-175472Y10601D01*
X-175126Y10622D01*
X-175065Y10632D01*
X-175013Y10644D01*
X-174970Y10657D01*
X-174938Y10672D01*
X-174916Y10689D01*
Y9311D01*
D02*
G37*
D68*
X77075Y16105D02*
G03*
X77075Y16105I-2172J0D01*
G01*
X58672Y24000D02*
G03*
X58672Y24000I-2172J0D01*
G01*
X48172Y20000D02*
G03*
X48172Y20000I-2172J0D01*
G01*
X64672Y18000D02*
G03*
X64672Y18000I-2172J0D01*
G01*
X63172Y-17500D02*
G03*
X63172Y-17500I-2172J0D01*
G01*
X65172Y-26500D02*
G03*
X65172Y-26500I-2172J0D01*
G01*
X77172Y-28500D02*
G03*
X77172Y-28500I-2172J0D01*
G01*
X23530Y-3500D02*
G03*
X23530Y-3500I-11030J0D01*
G01*
X-313970Y-33000D02*
G03*
X-318220Y-24300I-11030J0D01*
G01*
X-331780D02*
G03*
X-313970Y-33000I6780J-8700D01*
G01*
X-341328Y-49000D02*
G03*
X-341328Y-49000I-2172J0D01*
G01*
X-345616Y-57240D02*
G03*
X-344092Y-55167I-648J2073D01*
G01*
D02*
G03*
X-348337Y-54519I-2172J0D01*
G01*
X66006Y35100D02*
X78600Y22506D01*
Y0D02*
Y22506D01*
X57346Y22000D02*
X78600D01*
X57346Y26000D02*
X75106D01*
X64672Y18000D02*
X73843D01*
X75437Y14000D02*
X78600D01*
X75963Y18000D02*
X78600D01*
X63113Y-18000D02*
X78600D01*
X23427Y-2000D02*
X78600D01*
X22061Y2000D02*
X78600D01*
X23243Y-6000D02*
X78600D01*
X61500Y19928D02*
Y35100D01*
X57500Y25928D02*
Y35100D01*
X73500Y17762D02*
Y27606D01*
X45500Y22113D02*
Y35100D01*
X61500Y-15387D02*
Y16072D01*
X46846Y22000D02*
X55654D01*
X46846Y18000D02*
X60328D01*
X78600Y-47006D02*
Y0D01*
X73500Y-26930D02*
Y14447D01*
X77500Y-48106D02*
Y23606D01*
X69500Y-56106D02*
Y31606D01*
X65500Y-59600D02*
Y35100D01*
X76570Y-30000D02*
X78600D01*
X73500Y-52106D02*
Y-30070D01*
X65113Y-26000D02*
X78600D01*
X61500Y-59600D02*
Y-28070D01*
X66006Y-59600D02*
X78600Y-47006D01*
X41500Y-59600D02*
Y35100D01*
X37500Y-59600D02*
Y35100D01*
X49500Y-59600D02*
Y35100D01*
X29500Y-59600D02*
Y35100D01*
X25500Y-59600D02*
Y35100D01*
X33500Y-59600D02*
Y35100D01*
X61500Y-24930D02*
Y-19613D01*
X53500Y-59600D02*
Y35100D01*
X57500Y-59600D02*
Y22072D01*
X21500Y-59600D02*
Y-9876D01*
X45500Y-59600D02*
Y17887D01*
X-13100Y26000D02*
X55654D01*
X-13100Y22000D02*
X45154D01*
X21500Y2877D02*
Y35100D01*
X-13100Y34000D02*
X67106D01*
X-13100Y35100D02*
X66006D01*
X-13100Y30000D02*
X71106D01*
X21411Y-10000D02*
X78600D01*
X18104Y6000D02*
X78600D01*
X15878Y-14000D02*
X78600D01*
X-13100Y14000D02*
X74369D01*
X-13100Y18000D02*
X45154D01*
X-13100Y10000D02*
X78600D01*
X13500Y7485D02*
Y35100D01*
X9500Y7114D02*
Y35100D01*
X17500Y6331D02*
Y35100D01*
X-13100Y6000D02*
X6896D01*
X5500Y5024D02*
Y35100D01*
X1500Y-2688D02*
Y35100D01*
X-13100Y-10000D02*
X3589D01*
X-13100Y-6000D02*
X1757D01*
X-13100Y-14000D02*
X9122D01*
X-13100Y2000D02*
X2939D01*
X-13100Y-2000D02*
X1573D01*
X-13100Y-38000D02*
X78600D01*
X-13100Y-34000D02*
X78600D01*
X-13100Y-42000D02*
X78600D01*
X-13100Y-22000D02*
X78600D01*
X-13100Y-26000D02*
X60887D01*
X-13100Y-30000D02*
X73430D01*
X-13100Y-54000D02*
X71606D01*
X-13100Y-58000D02*
X67606D01*
X-13100Y-59600D02*
X66006D01*
X-13100Y-46000D02*
X78600D01*
X-13100Y-50000D02*
X75606D01*
X-2500Y-59600D02*
Y35100D01*
X1500Y-59600D02*
Y-4312D01*
X-10500Y-59600D02*
Y35100D01*
X-13100Y-59600D02*
Y35100D01*
X-6500Y-59600D02*
Y35100D01*
X13500Y-59600D02*
Y-14484D01*
X9500Y-59600D02*
Y-14114D01*
X17500Y-59600D02*
Y-13331D01*
X-13100Y-18000D02*
X58887D01*
X5500Y-59600D02*
Y-12024D01*
X-308172Y-24300D02*
X-307500Y-24972D01*
X-313828Y-24300D02*
X-307500Y-30628D01*
X-313975Y-32671D02*
X-307500Y-26196D01*
X-314681Y-29104D02*
X-307500Y-36285D01*
X-314200Y-35242D02*
X-307500Y-41942D01*
X-315886Y-39213D02*
X-307500Y-47599D01*
X-318701Y-42055D02*
X-307500Y-53256D01*
X-322638Y-43774D02*
X-307500Y-58913D01*
X-317516Y-24898D02*
X-316918Y-24300D01*
X-336456D02*
X-334054Y-26701D01*
X-318220Y-24300D02*
X-307500D01*
X-315099Y-28138D02*
X-311261Y-24300D01*
X-341346Y-48728D02*
X-333102Y-40484D01*
X-322281Y-80575D02*
X-307500Y-65794D01*
Y-88600D02*
Y-24300D01*
X-327938Y-74918D02*
X-307500Y-54480D01*
X-325109Y-77746D02*
X-307500Y-60137D01*
X-314256Y-88600D02*
X-307500D01*
X-313335D02*
X-307500Y-82765D01*
X-319453Y-83403D02*
X-307500Y-71451D01*
X-316624Y-86232D02*
X-307500Y-77108D01*
X-336423Y-66433D02*
X-307500Y-37510D01*
X-333595Y-69261D02*
X-307500Y-43167D01*
X-339251Y-63604D02*
X-307500Y-31853D01*
X-339251Y-63604D02*
X-307500Y-31853D01*
X-328667Y-43403D02*
X-307500Y-64569D01*
X-330766Y-72090D02*
X-307500Y-48823D01*
X-342080Y-60776D02*
X-325329Y-44025D01*
X-342113Y-24300D02*
X-335774Y-30638D01*
X-347769Y-24300D02*
X-335403Y-36667D01*
X-359050Y-43805D02*
X-339545Y-24300D01*
X-356222Y-46634D02*
X-333888Y-24300D01*
X-350565Y-52291D02*
X-335278Y-37003D01*
X-367100Y-24300D02*
X-331780D01*
X-353394Y-49462D02*
X-335990Y-32058D01*
X-364707Y-38148D02*
X-350859Y-24300D01*
X-361879Y-40977D02*
X-345202Y-24300D01*
X-367100Y-29228D02*
X-362173Y-24300D01*
X-367100Y-34884D02*
X-356516Y-24300D01*
X-367100Y-35756D02*
X-363053Y-39803D01*
X-367100Y-27597D02*
X-345672Y-49025D01*
X-367100Y-35756D02*
Y-24500D01*
X-344908Y-57947D02*
X-329862Y-42901D01*
X-353426Y-24300D02*
X-307500Y-70226D01*
X-359083Y-24300D02*
X-307500Y-75883D01*
X-364740Y-24300D02*
X-307500Y-81540D01*
X-343525Y-51171D02*
X-307500Y-87197D01*
X-342553Y-60303D02*
X-314256Y-88600D01*
X-344287Y-56067D02*
X-311754Y-88600D01*
X-344287Y-56067D02*
X-311754Y-88600D01*
X-345690Y-53073D02*
X-343772Y-51155D01*
X-363053Y-39803D02*
X-348337Y-54519D01*
X-367100Y-33254D02*
X-347163Y-53190D01*
X-367100Y-33254D02*
X-347163Y-53190D01*
X-345616Y-57240D02*
X-342553Y-60303D01*
D69*
X-179500Y9500D02*
X-179000Y10000D01*
X-174213D01*
D74*
X-180500Y-23500D02*
Y-8000D01*
D78*
X-298795Y-52480D02*
D03*
D79*
X-30500Y31000D02*
D03*
D81*
X-342661Y-19508D02*
D03*
Y14508D02*
D03*
D82*
X-359000Y-19508D02*
D03*
Y14508D02*
D03*
D84*
X-242616Y5654D02*
D03*
X-262612Y-6648D02*
D03*
X-255305Y6360D02*
D03*
X-267384Y-17969D02*
D03*
X-295935Y-31116D02*
D03*
X-292500D02*
D03*
X-266384Y5654D02*
D03*
X-248547Y17884D02*
D03*
X-272169Y-6158D02*
D03*
X-242642Y-17969D02*
D03*
X-218601Y5235D02*
D03*
X-184500Y-8500D02*
D03*
X-154508Y-2116D02*
D03*
X-169500Y-6000D02*
D03*
X-174213Y10000D02*
D03*
X-180500Y-23500D02*
D03*
X-35949Y-6158D02*
D03*
X-30044Y5654D02*
D03*
X-18233D02*
D03*
X35500Y14000D02*
D03*
X49000Y2000D02*
D03*
X-247116Y-6158D02*
D03*
X-236736Y17884D02*
D03*
X-118626Y17465D02*
D03*
X-196744Y19602D02*
D03*
X-110000Y-500D02*
D03*
X-157000Y-43000D02*
D03*
X-120500Y-55500D02*
D03*
X-199500Y-33500D02*
D03*
X-187000Y33000D02*
D03*
X-152500Y-7000D02*
D03*
X-180500Y-8000D02*
D03*
X-196500Y2000D02*
D03*
X-336000Y11000D02*
D03*
X-284512Y-83707D02*
D03*
X-288000Y-74500D02*
D03*
X-254000Y-60500D02*
D03*
X-276500Y-75500D02*
D03*
X-286000Y-63500D02*
D03*
X13000Y22000D02*
D03*
X29500Y-26000D02*
D03*
X54500Y-34000D02*
D03*
X56258Y-21797D02*
D03*
X42000Y-10000D02*
D03*
X61000Y2000D02*
D03*
X70500Y10000D02*
D03*
X-312500Y-43000D02*
D03*
X-358000Y-31500D02*
D03*
X-329500Y-48000D02*
D03*
X-341000Y-42500D02*
D03*
X-313000Y-81500D02*
D03*
X-325500Y-67000D02*
D03*
X-305000D02*
D03*
X-153500Y-58768D02*
D03*
Y-55000D02*
D03*
X-116000Y-56000D02*
D03*
X-202500Y-15000D02*
D03*
X-121500Y-23000D02*
D03*
X-139358Y-36504D02*
D03*
X-144000Y-31500D02*
D03*
X-134000Y-26000D02*
D03*
X-142500Y-22000D02*
D03*
X-149407Y-26864D02*
D03*
X-269000Y-25000D02*
D03*
X-289500Y-24500D02*
D03*
X-308500Y-25500D02*
D03*
X-313500Y-21000D02*
D03*
X-241000Y-24500D02*
D03*
X-219500Y-25000D02*
D03*
X-191500Y34500D02*
D03*
X-96500Y13000D02*
D03*
X-89542Y11722D02*
D03*
X-103500Y12500D02*
D03*
X-110000D02*
D03*
X-100500Y-9000D02*
D03*
X-95000Y-8500D02*
D03*
X-90000Y-8000D02*
D03*
X-89000Y-1000D02*
D03*
X-53500Y34000D02*
D03*
X-122500Y34500D02*
D03*
X-146000Y33000D02*
D03*
X-133500D02*
D03*
X-331500Y-14500D02*
D03*
Y19000D02*
D03*
X-328000Y6000D02*
D03*
X-316000Y8000D02*
D03*
Y-15000D02*
D03*
X-320500Y-11500D02*
D03*
X-320000Y-18500D02*
D03*
X-335000Y-16000D02*
D03*
X-337000Y-49000D02*
D03*
X-328500Y-52500D02*
D03*
X-294000Y-45000D02*
D03*
X-282500Y-50500D02*
D03*
X-178500Y-40500D02*
D03*
X-170500Y-45000D02*
D03*
X-161139Y-17288D02*
D03*
X-153500Y-17000D02*
D03*
X-173500Y21500D02*
D03*
X-192000Y-40000D02*
D03*
X-185500Y-31500D02*
D03*
X-170000D02*
D03*
X-152000D02*
D03*
X-153000Y-37000D02*
D03*
X-17000Y-29500D02*
D03*
X71000Y24000D02*
D03*
X71500Y-21000D02*
D03*
X72000Y28000D02*
D03*
X-278075Y-41884D02*
D03*
X-266264D02*
D03*
X-254453D02*
D03*
X-150508Y82D02*
D03*
X-161008Y7582D02*
D03*
X-18233Y-41591D02*
D03*
X-24138Y-53402D02*
D03*
X-30044Y-41591D02*
D03*
X-35949Y-53402D02*
D03*
X-47760Y-6158D02*
D03*
X-41855Y-41591D02*
D03*
X-47760Y-53402D02*
D03*
X-53666Y-17969D02*
D03*
Y-41591D02*
D03*
X-59571Y-53402D02*
D03*
X-71382Y17465D02*
D03*
X-65477Y5654D02*
D03*
Y-17969D02*
D03*
X-71382Y-29780D02*
D03*
Y-53402D02*
D03*
X-83193Y17465D02*
D03*
X-77288Y5654D02*
D03*
X-83193Y-53402D02*
D03*
X-95004Y17465D02*
D03*
X-89099Y5654D02*
D03*
Y-17969D02*
D03*
X-95004Y-29780D02*
D03*
X-106815Y17465D02*
D03*
X-100910Y-17969D02*
D03*
X-112721Y5654D02*
D03*
X-118626Y-6158D02*
D03*
Y-29780D02*
D03*
X-207209Y5654D02*
D03*
X-213114Y-6158D02*
D03*
X-224925Y17465D02*
D03*
X-219020Y-17969D02*
D03*
Y-41591D02*
D03*
X-230831Y-17969D02*
D03*
Y-41591D02*
D03*
X-242642D02*
D03*
X-260358Y17465D02*
D03*
X-272169D02*
D03*
X-283980D02*
D03*
X-278075Y5654D02*
D03*
Y-17969D02*
D03*
X-295791Y17465D02*
D03*
X-289886Y-17969D02*
D03*
X-307603Y17465D02*
D03*
X-301697Y-17969D02*
D03*
X-313508Y5654D02*
D03*
X-325319Y29276D02*
D03*
X-337130D02*
D03*
X-354847Y17465D02*
D03*
X-348941Y5654D02*
D03*
X-354847Y-6158D02*
D03*
X-348941Y-17969D02*
D03*
X-181817Y18183D02*
D03*
X-143993Y20604D02*
D03*
D86*
X-180824Y10824D02*
Y17189D01*
Y10824D02*
X-179500Y9500D01*
X-181817Y18183D02*
X-180824Y17189D01*
X-180000Y-8000D02*
X-179500Y-7500D01*
X-180500Y-8000D02*
X-180000D01*
X-179500Y-7500D02*
X-179353D01*
X-179500Y3000D02*
Y9500D01*
X-177047Y-5194D02*
Y547D01*
X-179500Y3000D02*
X-177047Y547D01*
X-179353Y-7500D02*
X-177047Y-5194D01*
M02*
