G04*
G04 #@! TF.GenerationSoftware,Altium Limited,Altium Designer,24.5.2 (23)*
G04*
G04 Layer_Physical_Order=1*
G04 Layer_Color=255*
%FSLAX25Y25*%
%MOIN*%
G70*
G04*
G04 #@! TF.SameCoordinates,B792C49A-183B-4FC1-AA54-09E065BB5E11*
G04*
G04*
G04 #@! TF.FilePolarity,Positive*
G04*
G01*
G75*
%ADD12R,0.07480X0.06102*%
%ADD13R,0.03937X0.06693*%
%ADD14R,0.03937X0.03937*%
%ADD20C,0.03937*%
%ADD21C,0.05000*%
G04:AMPARAMS|DCode=22|XSize=196.85mil|YSize=452.76mil|CornerRadius=49.21mil|HoleSize=0mil|Usage=FLASHONLY|Rotation=270.000|XOffset=0mil|YOffset=0mil|HoleType=Round|Shape=RoundedRectangle|*
%AMROUNDEDRECTD22*
21,1,0.19685,0.35433,0,0,270.0*
21,1,0.09843,0.45276,0,0,270.0*
1,1,0.09843,-0.17717,-0.04921*
1,1,0.09843,-0.17717,0.04921*
1,1,0.09843,0.17717,0.04921*
1,1,0.09843,0.17717,-0.04921*
%
%ADD22ROUNDEDRECTD22*%
%ADD23C,0.01968*%
%ADD24C,0.05000*%
%ADD25C,0.27559*%
G36*
X774012Y564319D02*
X771640D01*
X770920Y564224D01*
X770250Y563947D01*
X769674Y563505D01*
X763402Y557232D01*
X743401D01*
Y558587D01*
X743401Y558587D01*
Y558783D01*
X743401D01*
X743401Y559087D01*
Y559731D01*
X743517Y559881D01*
X743848Y560681D01*
X743961Y561539D01*
X743848Y562397D01*
X743517Y563197D01*
X743401Y563348D01*
Y564295D01*
X742454D01*
X742304Y564411D01*
X741504Y564742D01*
X740646Y564855D01*
X716315D01*
X715457Y564742D01*
X714657Y564411D01*
X713970Y563884D01*
X707855Y557768D01*
X687122D01*
Y558587D01*
X681610D01*
Y556261D01*
X681495Y556111D01*
X681163Y555311D01*
X681050Y554453D01*
X681163Y553595D01*
X681495Y552795D01*
X681610Y552644D01*
Y550319D01*
X687122D01*
Y551137D01*
X709228D01*
X710086Y551250D01*
X710886Y551581D01*
X711573Y552108D01*
X717688Y558224D01*
X737890D01*
Y554633D01*
X737866Y554453D01*
X737890Y554272D01*
Y550319D01*
X743401D01*
Y551673D01*
X764553D01*
X765273Y551768D01*
X765943Y552045D01*
X766519Y552487D01*
X772791Y558760D01*
X774012D01*
Y434295D01*
X771640D01*
X770920Y434201D01*
X770250Y433923D01*
X769674Y433481D01*
X763402Y427209D01*
X743401D01*
Y428563D01*
X743401Y428563D01*
Y428760D01*
X743401D01*
X743401Y429063D01*
Y429707D01*
X743517Y429858D01*
X743849Y430658D01*
X743961Y431516D01*
X743849Y432374D01*
X743517Y433174D01*
X743401Y433324D01*
Y434272D01*
X742454D01*
X742304Y434387D01*
X741504Y434719D01*
X740646Y434831D01*
X716315D01*
X715457Y434719D01*
X714657Y434387D01*
X713970Y433860D01*
X707855Y427745D01*
X687122D01*
Y428563D01*
X681610D01*
Y426238D01*
X681495Y426087D01*
X681163Y425287D01*
X681050Y424429D01*
X681163Y423571D01*
X681495Y422771D01*
X681610Y422621D01*
Y420295D01*
X687122D01*
Y421113D01*
X709228D01*
X710087Y421226D01*
X710886Y421558D01*
X711573Y422085D01*
X717688Y428200D01*
X737890D01*
Y424609D01*
X737866Y424429D01*
X737890Y424249D01*
Y420295D01*
X743401D01*
Y421650D01*
X764553D01*
X765273Y421744D01*
X765943Y422022D01*
X766519Y422464D01*
X772791Y428736D01*
X774012D01*
Y293291D01*
X771640D01*
X770920Y293197D01*
X770250Y292919D01*
X769674Y292477D01*
X763402Y286205D01*
X743401D01*
Y287559D01*
X743401Y287559D01*
Y287756D01*
X743401D01*
X743401Y288059D01*
Y288703D01*
X743517Y288854D01*
X743849Y289654D01*
X743961Y290512D01*
X743849Y291370D01*
X743517Y292170D01*
X743401Y292320D01*
Y293268D01*
X742454D01*
X742304Y293383D01*
X741504Y293715D01*
X740646Y293828D01*
X716315D01*
X715457Y293715D01*
X714657Y293383D01*
X713970Y292856D01*
X707855Y286741D01*
X687122D01*
Y287559D01*
X681610D01*
Y285234D01*
X681495Y285083D01*
X681163Y284283D01*
X681050Y283425D01*
X681163Y282567D01*
X681495Y281767D01*
X681610Y281617D01*
Y279291D01*
X687122D01*
Y280109D01*
X709228D01*
X710087Y280222D01*
X710886Y280554D01*
X711573Y281081D01*
X717688Y287196D01*
X737890D01*
Y283605D01*
X737866Y283425D01*
X737890Y283245D01*
Y279291D01*
X743401D01*
Y280645D01*
X764553D01*
X765273Y280740D01*
X765943Y281018D01*
X766519Y281460D01*
X772791Y287732D01*
X774012D01*
Y149681D01*
X771640D01*
X770920Y149586D01*
X770250Y149309D01*
X769674Y148867D01*
X763402Y142595D01*
X743401D01*
Y143949D01*
X743401Y143949D01*
Y144146D01*
X743401D01*
X743401Y144449D01*
Y145093D01*
X743517Y145244D01*
X743849Y146043D01*
X743961Y146902D01*
X743849Y147760D01*
X743517Y148559D01*
X743401Y148710D01*
Y149657D01*
X742454D01*
X742304Y149773D01*
X741504Y150104D01*
X740646Y150217D01*
X716315D01*
X715457Y150104D01*
X714657Y149773D01*
X713970Y149246D01*
X707855Y143131D01*
X687122D01*
Y143949D01*
X681610D01*
Y141623D01*
X681495Y141473D01*
X681163Y140673D01*
X681050Y139815D01*
X681163Y138957D01*
X681495Y138157D01*
X681610Y138006D01*
Y135681D01*
X687122D01*
Y136499D01*
X709228D01*
X710087Y136612D01*
X710886Y136943D01*
X711573Y137470D01*
X717688Y143586D01*
X737890D01*
Y139995D01*
X737866Y139815D01*
X737890Y139635D01*
Y135681D01*
X743401D01*
Y137035D01*
X764553D01*
X765273Y137130D01*
X765943Y137408D01*
X766519Y137849D01*
X772791Y144122D01*
X774012D01*
Y13851D01*
X770687D01*
X770001Y14536D01*
X769425Y14978D01*
X768755Y15256D01*
X768035Y15350D01*
X743755D01*
X743401Y15704D01*
X743401Y16705D01*
X743401Y17205D01*
Y19477D01*
X743425Y19658D01*
X743401Y19838D01*
Y22413D01*
X740826D01*
X740646Y22437D01*
X716049D01*
X715330Y22342D01*
X714659Y22065D01*
X714084Y21623D01*
X707811Y15350D01*
X687122D01*
Y16705D01*
X681610D01*
Y12752D01*
X681586Y12571D01*
X681610Y12390D01*
Y8437D01*
X687122D01*
Y9791D01*
X708963D01*
X709682Y9886D01*
X710352Y10164D01*
X710928Y10605D01*
X717201Y16878D01*
X737461D01*
X737890Y16705D01*
X737890Y16378D01*
Y12752D01*
X737866Y12571D01*
X737890Y12390D01*
Y8437D01*
X743401D01*
Y9791D01*
X766884D01*
X767570Y9105D01*
X768146Y8664D01*
X768816Y8386D01*
X769535Y8291D01*
X774012D01*
Y2039D01*
X79984D01*
X2039Y2039D01*
Y568827D01*
X79012Y568827D01*
X774012Y568827D01*
Y564319D01*
D02*
G37*
G36*
X806473Y492972D02*
X806473Y492972D01*
Y492933D01*
X806628Y492153D01*
X807070Y491491D01*
X903473Y395088D01*
Y174393D01*
X807070Y77990D01*
X806628Y77328D01*
X806473Y76548D01*
Y2039D01*
X775512D01*
Y8291D01*
X796925D01*
X797106Y8315D01*
X799681D01*
Y10891D01*
X799705Y11071D01*
X799681Y11251D01*
X799681Y13925D01*
X799681Y14220D01*
Y17978D01*
X799705Y18158D01*
Y25969D01*
X801539D01*
Y33646D01*
X792484D01*
Y25969D01*
X794145D01*
Y18158D01*
X794169Y17976D01*
Y14244D01*
X794169Y14024D01*
X793847Y13851D01*
X775512D01*
Y144122D01*
X793847D01*
X794169Y143949D01*
X794169Y143728D01*
Y139996D01*
X794146Y139815D01*
Y133535D01*
X792398D01*
Y125858D01*
X801453D01*
Y133535D01*
X799705D01*
Y139815D01*
X799681Y139996D01*
Y143752D01*
X799681Y144047D01*
X799681Y144343D01*
Y146721D01*
X799705Y146902D01*
X799681Y147082D01*
Y149657D01*
X797106D01*
X796925Y149681D01*
X775512D01*
Y287732D01*
X793847D01*
X794169Y287559D01*
X794169Y287338D01*
Y283606D01*
X794146Y283425D01*
Y275339D01*
X791484D01*
Y267661D01*
X800539D01*
Y275339D01*
X799705D01*
Y283425D01*
X799681Y283606D01*
Y287362D01*
X799681Y287657D01*
X799681Y287953D01*
Y290331D01*
X799705Y290512D01*
X799681Y290692D01*
Y293268D01*
X797106D01*
X796925Y293291D01*
X775512D01*
Y428736D01*
X793847D01*
X794169Y428563D01*
X794169Y428342D01*
Y424610D01*
X794146Y424429D01*
Y415839D01*
X791484D01*
Y408161D01*
X800539D01*
Y415839D01*
X799705D01*
Y424429D01*
X799681Y424610D01*
Y428366D01*
X799681Y428661D01*
X799681Y428957D01*
Y431335D01*
X799705Y431516D01*
X799681Y431696D01*
Y434272D01*
X797106D01*
X796925Y434295D01*
X775512D01*
Y558760D01*
X793847D01*
X794169Y558587D01*
X794169Y558366D01*
Y554634D01*
X794145Y554453D01*
Y547260D01*
X791484D01*
Y539583D01*
X800539D01*
Y547260D01*
X799705D01*
Y554453D01*
X799681Y554633D01*
Y558390D01*
X799681Y558685D01*
X799681Y558980D01*
Y561360D01*
X799705Y561539D01*
X799681Y561719D01*
Y564295D01*
X797106D01*
X796925Y564319D01*
X775512D01*
Y568827D01*
X806473D01*
Y492972D01*
D02*
G37*
%LPC*%
G36*
X571807Y564855D02*
X547476D01*
X546618Y564742D01*
X545819Y564411D01*
X545132Y563884D01*
X539016Y557768D01*
X518283D01*
Y558587D01*
X512772D01*
Y556261D01*
X512656Y556111D01*
X512325Y555311D01*
X512212Y554453D01*
X512325Y553595D01*
X512656Y552795D01*
X512772Y552644D01*
Y550319D01*
X518283D01*
Y551137D01*
X540390D01*
X541248Y551250D01*
X542048Y551581D01*
X542734Y552108D01*
X548850Y558224D01*
X569051D01*
Y554633D01*
X569027Y554453D01*
X569051Y554272D01*
Y550319D01*
X574563D01*
Y551673D01*
X595715D01*
X596434Y551768D01*
X597104Y552045D01*
X597680Y552487D01*
X603953Y558760D01*
X624902D01*
X625331Y558587D01*
X625331Y558260D01*
Y554633D01*
X625307Y554453D01*
Y547260D01*
X622646D01*
Y539583D01*
X631701D01*
Y547260D01*
X630866D01*
Y554453D01*
X630842Y554633D01*
Y558283D01*
X630842Y558587D01*
X630842Y559087D01*
Y561359D01*
X630866Y561539D01*
X630842Y561720D01*
Y564295D01*
X628267D01*
X628087Y564319D01*
X602801D01*
X602082Y564224D01*
X601411Y563947D01*
X600836Y563505D01*
X594563Y557232D01*
X574563D01*
Y558587D01*
X574563Y558587D01*
Y558783D01*
X574563D01*
X574563Y559087D01*
Y559731D01*
X574679Y559881D01*
X575010Y560681D01*
X575123Y561539D01*
X575010Y562397D01*
X574679Y563197D01*
X574563Y563348D01*
Y564295D01*
X573616D01*
X573465Y564411D01*
X572665Y564742D01*
X571807Y564855D01*
D02*
G37*
G36*
X402969D02*
X378638D01*
X377780Y564742D01*
X376980Y564411D01*
X376293Y563884D01*
X370178Y557768D01*
X349445D01*
Y558587D01*
X343933D01*
Y556261D01*
X343817Y556111D01*
X343486Y555311D01*
X343373Y554453D01*
X343486Y553595D01*
X343817Y552795D01*
X343933Y552644D01*
Y550319D01*
X349445D01*
Y551137D01*
X371551D01*
X372409Y551250D01*
X373209Y551581D01*
X373896Y552108D01*
X380011Y558224D01*
X400213D01*
Y554633D01*
X400189Y554453D01*
X400213Y554272D01*
Y550319D01*
X405724D01*
Y551673D01*
X426876D01*
X427595Y551768D01*
X428266Y552045D01*
X428841Y552487D01*
X435114Y558760D01*
X456064D01*
X456492Y558587D01*
X456492Y558260D01*
Y554633D01*
X456468Y554453D01*
Y547260D01*
X453807D01*
Y539583D01*
X462862D01*
Y547260D01*
X462028D01*
Y554453D01*
X462004Y554633D01*
Y558283D01*
X462004Y558587D01*
X462004Y559087D01*
Y561359D01*
X462028Y561539D01*
X462004Y561720D01*
Y564295D01*
X459429D01*
X459248Y564319D01*
X433963D01*
X433243Y564224D01*
X432573Y563947D01*
X431997Y563505D01*
X425725Y557232D01*
X405724D01*
Y558587D01*
X405724Y558587D01*
Y558783D01*
X405724D01*
X405724Y559087D01*
Y559731D01*
X405840Y559881D01*
X406171Y560681D01*
X406284Y561539D01*
X406171Y562397D01*
X405840Y563197D01*
X405724Y563348D01*
Y564295D01*
X404777D01*
X404626Y564411D01*
X403827Y564742D01*
X402969Y564855D01*
D02*
G37*
G36*
X234130D02*
X209799D01*
X208941Y564742D01*
X208141Y564411D01*
X207455Y563884D01*
X201339Y557768D01*
X180606D01*
Y558587D01*
X175094D01*
Y556261D01*
X174979Y556111D01*
X174648Y555311D01*
X174535Y554453D01*
X174648Y553595D01*
X174979Y552795D01*
X175094Y552644D01*
Y550319D01*
X180606D01*
Y551137D01*
X202713D01*
X203571Y551250D01*
X204370Y551581D01*
X205057Y552108D01*
X211173Y558224D01*
X231374D01*
Y554633D01*
X231350Y554453D01*
X231374Y554272D01*
Y550319D01*
X236886D01*
Y551673D01*
X258037D01*
X258757Y551768D01*
X259427Y552045D01*
X260003Y552487D01*
X266275Y558760D01*
X287225D01*
X287653Y558587D01*
X287653Y558260D01*
Y554633D01*
X287630Y554453D01*
Y547260D01*
X284968D01*
Y539583D01*
X294024D01*
Y547260D01*
X293189D01*
Y554453D01*
X293165Y554633D01*
Y558283D01*
X293165Y558587D01*
X293165Y559087D01*
Y561359D01*
X293189Y561539D01*
X293165Y561720D01*
Y564295D01*
X290590D01*
X290409Y564319D01*
X265124D01*
X264405Y564224D01*
X263734Y563947D01*
X263158Y563505D01*
X256886Y557232D01*
X236886D01*
Y558587D01*
X236886Y558587D01*
Y558783D01*
X236886D01*
X236886Y559087D01*
Y559731D01*
X237001Y559881D01*
X237333Y560681D01*
X237446Y561539D01*
X237333Y562397D01*
X237001Y563197D01*
X236886Y563348D01*
Y564295D01*
X235939D01*
X235788Y564411D01*
X234988Y564742D01*
X234130Y564855D01*
D02*
G37*
G36*
X65291D02*
X40961D01*
X40102Y564742D01*
X39303Y564411D01*
X38616Y563884D01*
X32501Y557768D01*
X11768D01*
Y558587D01*
X6256D01*
Y556261D01*
X6140Y556111D01*
X5809Y555311D01*
X5696Y554453D01*
X5809Y553595D01*
X6140Y552795D01*
X6256Y552644D01*
Y550319D01*
X11768D01*
Y551137D01*
X33874D01*
X34732Y551250D01*
X35532Y551581D01*
X36219Y552108D01*
X42334Y558224D01*
X62536D01*
Y554633D01*
X62512Y554453D01*
X62536Y554272D01*
Y550319D01*
X68047D01*
Y551673D01*
X89199D01*
X89918Y551768D01*
X90589Y552045D01*
X91164Y552487D01*
X97437Y558760D01*
X118387D01*
X118815Y558587D01*
X118815Y558260D01*
Y554633D01*
X118791Y554453D01*
Y547260D01*
X116130D01*
Y539583D01*
X125185D01*
Y547260D01*
X124351D01*
Y554453D01*
X124327Y554633D01*
Y558283D01*
X124327Y558587D01*
X124327Y559087D01*
Y561359D01*
X124351Y561539D01*
X124327Y561720D01*
Y564295D01*
X121751D01*
X121571Y564319D01*
X96285D01*
X95566Y564224D01*
X94896Y563947D01*
X94320Y563505D01*
X88047Y557232D01*
X68047D01*
Y558587D01*
X68047Y558587D01*
Y558783D01*
X68047D01*
X68047Y559087D01*
Y559731D01*
X68163Y559881D01*
X68494Y560681D01*
X68607Y561539D01*
X68494Y562397D01*
X68163Y563197D01*
X68047Y563348D01*
Y564295D01*
X67100D01*
X66949Y564411D01*
X66149Y564742D01*
X65291Y564855D01*
D02*
G37*
G36*
X631701Y535646D02*
X622646D01*
Y527969D01*
X624297D01*
Y524042D01*
X623917Y523383D01*
X623693Y522547D01*
Y521681D01*
X623917Y520845D01*
X624350Y520096D01*
X624962Y519484D01*
X625711Y519051D01*
X626547Y518827D01*
X627413D01*
X628249Y519051D01*
X628999Y519484D01*
X629611Y520096D01*
X630044Y520845D01*
X630268Y521681D01*
Y522547D01*
X630044Y523383D01*
X629856Y523707D01*
Y527969D01*
X631701D01*
Y535646D01*
D02*
G37*
G36*
X462862D02*
X453807D01*
Y527969D01*
X455458D01*
Y524042D01*
X455078Y523383D01*
X454854Y522547D01*
Y521681D01*
X455078Y520845D01*
X455511Y520096D01*
X456123Y519484D01*
X456873Y519051D01*
X457709Y518827D01*
X458574D01*
X459411Y519051D01*
X460160Y519484D01*
X460772Y520096D01*
X461205Y520845D01*
X461429Y521681D01*
Y522547D01*
X461205Y523383D01*
X461018Y523707D01*
Y527969D01*
X462862D01*
Y535646D01*
D02*
G37*
G36*
X294024D02*
X284968D01*
Y527969D01*
X286620D01*
Y524042D01*
X286240Y523383D01*
X286016Y522547D01*
Y521681D01*
X286240Y520845D01*
X286673Y520096D01*
X287285Y519484D01*
X288034Y519051D01*
X288870Y518827D01*
X289736D01*
X290572Y519051D01*
X291322Y519484D01*
X291934Y520096D01*
X292367Y520845D01*
X292590Y521681D01*
Y522547D01*
X292367Y523383D01*
X292179Y523707D01*
Y527969D01*
X294024D01*
Y535646D01*
D02*
G37*
G36*
X125185D02*
X116130D01*
Y527969D01*
X117781D01*
Y524042D01*
X117401Y523383D01*
X117177Y522547D01*
Y521681D01*
X117401Y520845D01*
X117834Y520096D01*
X118446Y519484D01*
X119196Y519051D01*
X120032Y518827D01*
X120897D01*
X121733Y519051D01*
X122483Y519484D01*
X123095Y520096D01*
X123528Y520845D01*
X123752Y521681D01*
Y522547D01*
X123528Y523383D01*
X123341Y523707D01*
Y527969D01*
X125185D01*
Y535646D01*
D02*
G37*
G36*
X402969Y434831D02*
X378638D01*
X377780Y434719D01*
X376980Y434387D01*
X376293Y433860D01*
X370178Y427745D01*
X349445D01*
Y428563D01*
X343933D01*
Y426238D01*
X343817Y426087D01*
X343486Y425287D01*
X343373Y424429D01*
X343486Y423571D01*
X343817Y422771D01*
X343933Y422621D01*
Y420295D01*
X349445D01*
Y421113D01*
X371551D01*
X372410Y421226D01*
X373209Y421558D01*
X373896Y422085D01*
X380011Y428200D01*
X400213D01*
Y424609D01*
X400189Y424429D01*
X400213Y424249D01*
Y420295D01*
X405724D01*
Y421650D01*
X426876D01*
X427596Y421744D01*
X428266Y422022D01*
X428842Y422464D01*
X435114Y428736D01*
X456064D01*
X456492Y428563D01*
X456492Y428236D01*
Y424609D01*
X456468Y424429D01*
Y416839D01*
X453984D01*
Y409161D01*
X463039D01*
Y416839D01*
X462028D01*
Y424429D01*
X462004Y424611D01*
Y428260D01*
X462004Y428563D01*
X462004Y429063D01*
Y431334D01*
X462028Y431516D01*
X462004Y431697D01*
Y434272D01*
X459429D01*
X459248Y434295D01*
X433963D01*
X433243Y434201D01*
X432573Y433923D01*
X431997Y433481D01*
X425725Y427209D01*
X405724D01*
Y428563D01*
X405724Y428563D01*
Y428760D01*
X405724D01*
X405724Y429063D01*
Y429707D01*
X405840Y429858D01*
X406171Y430658D01*
X406284Y431516D01*
X406171Y432374D01*
X405840Y433174D01*
X405724Y433324D01*
Y434272D01*
X404777D01*
X404627Y434387D01*
X403827Y434719D01*
X402969Y434831D01*
D02*
G37*
G36*
X234130D02*
X209799D01*
X208941Y434719D01*
X208141Y434387D01*
X207455Y433860D01*
X201339Y427745D01*
X180606D01*
Y428563D01*
X175094D01*
Y426238D01*
X174979Y426087D01*
X174648Y425287D01*
X174535Y424429D01*
X174648Y423571D01*
X174979Y422771D01*
X175094Y422621D01*
Y420295D01*
X180606D01*
Y421113D01*
X202713D01*
X203571Y421226D01*
X204371Y421558D01*
X205057Y422085D01*
X211173Y428200D01*
X231374D01*
Y424609D01*
X231350Y424429D01*
X231374Y424249D01*
Y420295D01*
X236886D01*
Y421650D01*
X258037D01*
X258757Y421744D01*
X259427Y422022D01*
X260003Y422464D01*
X266276Y428736D01*
X287225D01*
X287653Y428563D01*
X287653Y428236D01*
Y424609D01*
X287630Y424429D01*
Y416839D01*
X284984D01*
Y409161D01*
X294039D01*
Y416839D01*
X293189D01*
Y424429D01*
X293165Y424611D01*
Y428260D01*
X293165Y428563D01*
X293165Y429063D01*
Y431334D01*
X293189Y431516D01*
X293165Y431697D01*
Y434272D01*
X290590D01*
X290409Y434295D01*
X265124D01*
X264405Y434201D01*
X263734Y433923D01*
X263159Y433481D01*
X256886Y427209D01*
X236886D01*
Y428563D01*
X236886Y428563D01*
Y428760D01*
X236886D01*
X236886Y429063D01*
Y429707D01*
X237002Y429858D01*
X237333Y430658D01*
X237446Y431516D01*
X237333Y432374D01*
X237002Y433174D01*
X236886Y433324D01*
Y434272D01*
X235939D01*
X235788Y434387D01*
X234988Y434719D01*
X234130Y434831D01*
D02*
G37*
G36*
X571807D02*
X547476D01*
X546618Y434719D01*
X545819Y434387D01*
X545132Y433860D01*
X539016Y427745D01*
X518283D01*
Y428563D01*
X512772D01*
Y426238D01*
X512656Y426087D01*
X512325Y425287D01*
X512212Y424429D01*
X512325Y423571D01*
X512656Y422771D01*
X512772Y422621D01*
Y420295D01*
X518283D01*
Y421113D01*
X540390D01*
X541248Y421226D01*
X542048Y421558D01*
X542734Y422085D01*
X548850Y428200D01*
X569051D01*
Y424609D01*
X569028Y424429D01*
X569051Y424249D01*
Y420295D01*
X574563D01*
Y421650D01*
X595715D01*
X596434Y421744D01*
X597105Y422022D01*
X597680Y422464D01*
X603953Y428736D01*
X624902D01*
X625331Y428563D01*
X625331Y428236D01*
Y424609D01*
X625307Y424429D01*
Y416339D01*
X622984D01*
Y408661D01*
X632039D01*
Y416339D01*
X630866D01*
Y424429D01*
X630842Y424611D01*
Y428260D01*
X630842Y428563D01*
X630842Y429063D01*
Y431334D01*
X630866Y431516D01*
X630842Y431697D01*
Y434272D01*
X628267D01*
X628087Y434295D01*
X602801D01*
X602082Y434201D01*
X601411Y433923D01*
X600836Y433481D01*
X594563Y427209D01*
X574563D01*
Y428563D01*
X574563Y428563D01*
Y428760D01*
X574563D01*
X574563Y429063D01*
Y429707D01*
X574679Y429858D01*
X575010Y430658D01*
X575123Y431516D01*
X575010Y432374D01*
X574679Y433174D01*
X574563Y433324D01*
Y434272D01*
X573616D01*
X573465Y434387D01*
X572665Y434719D01*
X571807Y434831D01*
D02*
G37*
G36*
X65292D02*
X40961D01*
X40103Y434719D01*
X39303Y434387D01*
X38616Y433860D01*
X32501Y427745D01*
X11768D01*
Y428563D01*
X6256D01*
Y426238D01*
X6140Y426087D01*
X5809Y425287D01*
X5696Y424429D01*
X5809Y423571D01*
X6140Y422771D01*
X6256Y422621D01*
Y420295D01*
X11768D01*
Y421113D01*
X33874D01*
X34732Y421226D01*
X35532Y421558D01*
X36219Y422085D01*
X42334Y428200D01*
X62536D01*
Y424609D01*
X62512Y424429D01*
X62536Y424249D01*
Y420295D01*
X68047D01*
Y421650D01*
X89199D01*
X89918Y421744D01*
X90589Y422022D01*
X91164Y422464D01*
X97437Y428736D01*
X118387D01*
X118815Y428563D01*
X118815Y428236D01*
Y424609D01*
X118791Y424429D01*
Y416339D01*
X115984D01*
Y408661D01*
X125039D01*
Y416339D01*
X124351D01*
Y424429D01*
X124327Y424611D01*
Y428260D01*
X124327Y428563D01*
X124327Y429063D01*
Y431334D01*
X124351Y431516D01*
X124327Y431697D01*
Y434272D01*
X121752D01*
X121571Y434295D01*
X96286D01*
X95566Y434201D01*
X94896Y433923D01*
X94320Y433481D01*
X88048Y427209D01*
X68047D01*
Y428563D01*
X68047Y428563D01*
Y428760D01*
X68047D01*
X68047Y429063D01*
Y429707D01*
X68163Y429858D01*
X68494Y430658D01*
X68607Y431516D01*
X68494Y432374D01*
X68163Y433174D01*
X68047Y433324D01*
Y434272D01*
X67100D01*
X66949Y434387D01*
X66150Y434719D01*
X65292Y434831D01*
D02*
G37*
G36*
X632039Y404724D02*
X622984D01*
Y397047D01*
X624297D01*
Y394018D01*
X623917Y393359D01*
X623693Y392523D01*
Y391658D01*
X623917Y390822D01*
X624350Y390072D01*
X624962Y389460D01*
X625711Y389027D01*
X626548Y388803D01*
X627413D01*
X628249Y389027D01*
X628999Y389460D01*
X629611Y390072D01*
X630044Y390822D01*
X630268Y391658D01*
Y392523D01*
X630044Y393359D01*
X629856Y393684D01*
Y397047D01*
X632039D01*
Y404724D01*
D02*
G37*
G36*
X463039Y405224D02*
X453984D01*
Y397547D01*
X455459D01*
Y394018D01*
X455078Y393359D01*
X454854Y392523D01*
Y391658D01*
X455078Y390822D01*
X455511Y390072D01*
X456123Y389460D01*
X456873Y389027D01*
X457709Y388803D01*
X458575D01*
X459411Y389027D01*
X460160Y389460D01*
X460772Y390072D01*
X461205Y390822D01*
X461429Y391658D01*
Y392523D01*
X461205Y393359D01*
X461018Y393684D01*
Y397547D01*
X463039D01*
Y405224D01*
D02*
G37*
G36*
X294039D02*
X284984D01*
Y397547D01*
X286620D01*
Y394018D01*
X286240Y393359D01*
X286016Y392523D01*
Y391658D01*
X286240Y390822D01*
X286673Y390072D01*
X287285Y389460D01*
X288034Y389027D01*
X288871Y388803D01*
X289736D01*
X290572Y389027D01*
X291322Y389460D01*
X291934Y390072D01*
X292367Y390822D01*
X292591Y391658D01*
Y392523D01*
X292367Y393359D01*
X292179Y393684D01*
Y397547D01*
X294039D01*
Y405224D01*
D02*
G37*
G36*
X125039Y404724D02*
X115984D01*
Y397047D01*
X117781D01*
Y394018D01*
X117401Y393359D01*
X117177Y392523D01*
Y391658D01*
X117401Y390822D01*
X117834Y390072D01*
X118446Y389460D01*
X119196Y389027D01*
X120032Y388803D01*
X120897D01*
X121734Y389027D01*
X122483Y389460D01*
X123095Y390072D01*
X123528Y390822D01*
X123752Y391658D01*
Y392523D01*
X123528Y393359D01*
X123341Y393684D01*
Y397047D01*
X125039D01*
Y404724D01*
D02*
G37*
G36*
X571807Y293828D02*
X547476D01*
X546618Y293715D01*
X545819Y293383D01*
X545132Y292856D01*
X539016Y286741D01*
X518283D01*
Y287559D01*
X512772D01*
Y285234D01*
X512656Y285083D01*
X512325Y284283D01*
X512212Y283425D01*
X512325Y282567D01*
X512656Y281767D01*
X512772Y281617D01*
Y279291D01*
X518283D01*
Y280109D01*
X540390D01*
X541248Y280222D01*
X542048Y280554D01*
X542734Y281081D01*
X548850Y287196D01*
X569051D01*
Y283605D01*
X569028Y283425D01*
X569051Y283245D01*
Y279291D01*
X574563D01*
Y280645D01*
X595715D01*
X596434Y280740D01*
X597105Y281018D01*
X597680Y281460D01*
X603953Y287732D01*
X624902D01*
X625331Y287559D01*
X625331Y287232D01*
Y283605D01*
X625307Y283425D01*
Y276339D01*
X622984D01*
Y268661D01*
X632039D01*
Y276339D01*
X630866D01*
Y283425D01*
X630842Y283607D01*
Y287256D01*
X630842Y287559D01*
X630842Y288059D01*
Y290330D01*
X630866Y290512D01*
X630842Y290693D01*
Y293268D01*
X628267D01*
X628087Y293291D01*
X602801D01*
X602082Y293197D01*
X601411Y292919D01*
X600836Y292477D01*
X594563Y286205D01*
X574563D01*
Y287559D01*
X574563Y287559D01*
Y287756D01*
X574563D01*
X574563Y288059D01*
Y288703D01*
X574679Y288854D01*
X575010Y289654D01*
X575123Y290512D01*
X575010Y291370D01*
X574679Y292170D01*
X574563Y292320D01*
Y293268D01*
X573616D01*
X573465Y293383D01*
X572665Y293715D01*
X571807Y293828D01*
D02*
G37*
G36*
X65292D02*
X40961D01*
X40103Y293715D01*
X39303Y293383D01*
X38616Y292856D01*
X32501Y286741D01*
X11768D01*
Y287559D01*
X6256D01*
Y285234D01*
X6140Y285083D01*
X5809Y284283D01*
X5696Y283425D01*
X5809Y282567D01*
X6140Y281767D01*
X6256Y281617D01*
Y279291D01*
X11768D01*
Y280109D01*
X33874D01*
X34732Y280222D01*
X35532Y280554D01*
X36219Y281081D01*
X42334Y287196D01*
X62536D01*
Y283605D01*
X62512Y283425D01*
X62536Y283245D01*
Y279291D01*
X68047D01*
Y280645D01*
X89199D01*
X89918Y280740D01*
X90589Y281018D01*
X91164Y281460D01*
X97437Y287732D01*
X118387D01*
X118815Y287559D01*
X118815Y287232D01*
Y283605D01*
X118791Y283425D01*
Y276232D01*
X116130D01*
Y268555D01*
X125185D01*
Y276232D01*
X124351D01*
Y283425D01*
X124327Y283607D01*
Y287256D01*
X124327Y287559D01*
X124327Y288059D01*
Y290330D01*
X124351Y290512D01*
X124327Y290693D01*
Y293268D01*
X121752D01*
X121571Y293291D01*
X96286D01*
X95566Y293197D01*
X94896Y292919D01*
X94320Y292477D01*
X88048Y286205D01*
X68047D01*
Y287559D01*
X68047Y287559D01*
Y287756D01*
X68047D01*
X68047Y288059D01*
Y288703D01*
X68163Y288854D01*
X68494Y289654D01*
X68607Y290512D01*
X68494Y291370D01*
X68163Y292170D01*
X68047Y292320D01*
Y293268D01*
X67100D01*
X66949Y293383D01*
X66150Y293715D01*
X65292Y293828D01*
D02*
G37*
G36*
X234130D02*
X209799D01*
X208941Y293715D01*
X208141Y293383D01*
X207455Y292856D01*
X201339Y286741D01*
X180606D01*
Y287559D01*
X175094D01*
Y285234D01*
X174979Y285083D01*
X174648Y284283D01*
X174535Y283425D01*
X174648Y282567D01*
X174979Y281767D01*
X175094Y281617D01*
Y279291D01*
X180606D01*
Y280109D01*
X202713D01*
X203571Y280222D01*
X204371Y280554D01*
X205057Y281081D01*
X211173Y287196D01*
X231374D01*
Y283605D01*
X231350Y283425D01*
X231374Y283245D01*
Y279291D01*
X236886D01*
Y280645D01*
X258037D01*
X258757Y280740D01*
X259427Y281018D01*
X260003Y281460D01*
X266276Y287732D01*
X287225D01*
X287653Y287559D01*
X287653Y287232D01*
Y283605D01*
X287630Y283425D01*
Y275839D01*
X284984D01*
Y268161D01*
X294039D01*
Y275839D01*
X293189D01*
Y283425D01*
X293165Y283607D01*
Y287256D01*
X293165Y287559D01*
X293165Y288059D01*
Y290330D01*
X293189Y290512D01*
X293165Y290693D01*
Y293268D01*
X290590D01*
X290409Y293291D01*
X265124D01*
X264405Y293197D01*
X263734Y292919D01*
X263159Y292477D01*
X256886Y286205D01*
X236886D01*
Y287559D01*
X236886Y287559D01*
Y287756D01*
X236886D01*
X236886Y288059D01*
Y288703D01*
X237002Y288854D01*
X237333Y289654D01*
X237446Y290512D01*
X237333Y291370D01*
X237002Y292170D01*
X236886Y292320D01*
Y293268D01*
X235939D01*
X235788Y293383D01*
X234988Y293715D01*
X234130Y293828D01*
D02*
G37*
G36*
X402969D02*
X378638D01*
X377780Y293715D01*
X376980Y293383D01*
X376293Y292856D01*
X370178Y286741D01*
X349445D01*
Y287559D01*
X343933D01*
Y285234D01*
X343817Y285083D01*
X343486Y284283D01*
X343373Y283425D01*
X343486Y282567D01*
X343817Y281767D01*
X343933Y281617D01*
Y279291D01*
X349445D01*
Y280109D01*
X371551D01*
X372410Y280222D01*
X373209Y280554D01*
X373896Y281081D01*
X380011Y287196D01*
X400213D01*
Y283605D01*
X400189Y283425D01*
X400213Y283245D01*
Y279291D01*
X405724D01*
Y280645D01*
X426876D01*
X427596Y280740D01*
X428266Y281018D01*
X428842Y281460D01*
X435114Y287732D01*
X456064D01*
X456492Y287559D01*
X456492Y287232D01*
Y283605D01*
X456468Y283425D01*
Y275339D01*
X453984D01*
Y267661D01*
X463039D01*
Y275339D01*
X462028D01*
Y283425D01*
X462004Y283607D01*
Y287256D01*
X462004Y287559D01*
X462004Y288059D01*
Y290330D01*
X462028Y290512D01*
X462004Y290693D01*
Y293268D01*
X459429D01*
X459248Y293291D01*
X433963D01*
X433243Y293197D01*
X432573Y292919D01*
X431997Y292477D01*
X425725Y286205D01*
X405724D01*
Y287559D01*
X405724Y287559D01*
Y287756D01*
X405724D01*
X405724Y288059D01*
Y288703D01*
X405840Y288854D01*
X406171Y289654D01*
X406284Y290512D01*
X406171Y291370D01*
X405840Y292170D01*
X405724Y292320D01*
Y293268D01*
X404777D01*
X404627Y293383D01*
X403827Y293715D01*
X402969Y293828D01*
D02*
G37*
G36*
X632039Y264724D02*
X622984D01*
Y257047D01*
X624297D01*
Y253014D01*
X623917Y252356D01*
X623693Y251519D01*
Y250654D01*
X623917Y249818D01*
X624350Y249068D01*
X624962Y248456D01*
X625711Y248023D01*
X626548Y247799D01*
X627413D01*
X628249Y248023D01*
X628999Y248456D01*
X629611Y249068D01*
X630044Y249818D01*
X630268Y250654D01*
Y251519D01*
X630044Y252356D01*
X629856Y252680D01*
Y257047D01*
X632039D01*
Y264724D01*
D02*
G37*
G36*
X463039Y263724D02*
X453984D01*
Y256047D01*
X455459D01*
Y253014D01*
X455078Y252356D01*
X454854Y251519D01*
Y250654D01*
X455078Y249818D01*
X455511Y249068D01*
X456123Y248456D01*
X456873Y248023D01*
X457709Y247799D01*
X458575D01*
X459411Y248023D01*
X460160Y248456D01*
X460772Y249068D01*
X461205Y249818D01*
X461429Y250654D01*
Y251519D01*
X461205Y252356D01*
X461018Y252680D01*
Y256047D01*
X463039D01*
Y263724D01*
D02*
G37*
G36*
X294039Y264224D02*
X284984D01*
Y256547D01*
X286620D01*
Y253014D01*
X286240Y252356D01*
X286016Y251519D01*
Y250654D01*
X286240Y249818D01*
X286673Y249068D01*
X287285Y248456D01*
X288034Y248023D01*
X288871Y247799D01*
X289736D01*
X290572Y248023D01*
X291322Y248456D01*
X291934Y249068D01*
X292367Y249818D01*
X292591Y250654D01*
Y251519D01*
X292367Y252356D01*
X292179Y252680D01*
Y256547D01*
X294039D01*
Y264224D01*
D02*
G37*
G36*
X125185Y264618D02*
X116130D01*
Y256941D01*
X117781D01*
Y253014D01*
X117401Y252356D01*
X117177Y251519D01*
Y250654D01*
X117401Y249818D01*
X117834Y249068D01*
X118446Y248456D01*
X119196Y248023D01*
X120032Y247799D01*
X120897D01*
X121734Y248023D01*
X122483Y248456D01*
X123095Y249068D01*
X123528Y249818D01*
X123752Y250654D01*
Y251519D01*
X123528Y252356D01*
X123341Y252680D01*
Y256941D01*
X125185D01*
Y264618D01*
D02*
G37*
G36*
X68728Y199250D02*
X33295D01*
X31805Y199054D01*
X30416Y198479D01*
X29224Y197564D01*
X28309Y196371D01*
X27734Y194982D01*
X27537Y193492D01*
Y183650D01*
X27734Y182159D01*
X28309Y180771D01*
X29224Y179578D01*
X30416Y178663D01*
X31805Y178088D01*
X33295Y177892D01*
X68728D01*
X70219Y178088D01*
X71607Y178663D01*
X72800Y179578D01*
X73715Y180771D01*
X74290Y182159D01*
X74486Y183650D01*
Y193492D01*
X74290Y194982D01*
X73715Y196371D01*
X72800Y197564D01*
X71607Y198479D01*
X70219Y199054D01*
X68728Y199250D01*
D02*
G37*
G36*
X571807Y150217D02*
X547476D01*
X546618Y150104D01*
X545819Y149773D01*
X545132Y149246D01*
X539016Y143131D01*
X518283D01*
Y143949D01*
X512772D01*
Y141623D01*
X512656Y141473D01*
X512325Y140673D01*
X512212Y139815D01*
X512325Y138957D01*
X512656Y138157D01*
X512772Y138006D01*
Y135681D01*
X518283D01*
Y136499D01*
X540390D01*
X541248Y136612D01*
X542048Y136943D01*
X542734Y137470D01*
X548850Y143586D01*
X569051D01*
Y139995D01*
X569028Y139815D01*
X569051Y139635D01*
Y135681D01*
X574563D01*
Y137035D01*
X595715D01*
X596434Y137130D01*
X597105Y137408D01*
X597680Y137849D01*
X603953Y144122D01*
X624902D01*
X625331Y143949D01*
X625331Y143622D01*
Y139995D01*
X625307Y139815D01*
Y133535D01*
X623559D01*
Y125858D01*
X632614D01*
Y133535D01*
X630866D01*
Y139815D01*
X630842Y139996D01*
Y143646D01*
X630842Y143949D01*
X630842Y144449D01*
Y146720D01*
X630866Y146902D01*
X630842Y147083D01*
Y149657D01*
X628267D01*
X628087Y149681D01*
X602801D01*
X602082Y149586D01*
X601411Y149309D01*
X600836Y148867D01*
X594563Y142595D01*
X574563D01*
Y143949D01*
X574563Y143949D01*
Y144146D01*
X574563D01*
X574563Y144449D01*
Y145093D01*
X574679Y145244D01*
X575010Y146043D01*
X575123Y146902D01*
X575010Y147760D01*
X574679Y148559D01*
X574563Y148710D01*
Y149657D01*
X573616D01*
X573465Y149773D01*
X572665Y150104D01*
X571807Y150217D01*
D02*
G37*
G36*
X402969D02*
X378638D01*
X377780Y150104D01*
X376980Y149773D01*
X376293Y149246D01*
X370178Y143131D01*
X349445D01*
Y143949D01*
X343933D01*
Y141623D01*
X343817Y141473D01*
X343486Y140673D01*
X343373Y139815D01*
X343486Y138957D01*
X343817Y138157D01*
X343933Y138006D01*
Y135681D01*
X349445D01*
Y136499D01*
X371551D01*
X372410Y136612D01*
X373209Y136943D01*
X373896Y137470D01*
X380011Y143586D01*
X400213D01*
Y139995D01*
X400189Y139815D01*
X400213Y139635D01*
Y135681D01*
X405724D01*
Y137035D01*
X426876D01*
X427596Y137130D01*
X428266Y137408D01*
X428842Y137849D01*
X435114Y144122D01*
X456064D01*
X456492Y143949D01*
X456492Y143622D01*
Y139995D01*
X456468Y139815D01*
Y133535D01*
X454721D01*
Y125858D01*
X463776D01*
Y133535D01*
X462028D01*
Y139815D01*
X462004Y139996D01*
Y143646D01*
X462004Y143949D01*
X462004Y144449D01*
Y146720D01*
X462028Y146902D01*
X462004Y147083D01*
Y149657D01*
X459429D01*
X459248Y149681D01*
X433963D01*
X433243Y149586D01*
X432573Y149309D01*
X431997Y148867D01*
X425725Y142595D01*
X405724D01*
Y143949D01*
X405724Y143949D01*
Y144146D01*
X405724D01*
X405724Y144449D01*
Y145093D01*
X405840Y145244D01*
X406171Y146043D01*
X406284Y146902D01*
X406171Y147760D01*
X405840Y148559D01*
X405724Y148710D01*
Y149657D01*
X404777D01*
X404627Y149773D01*
X403827Y150104D01*
X402969Y150217D01*
D02*
G37*
G36*
X234130D02*
X209799D01*
X208941Y150104D01*
X208141Y149773D01*
X207455Y149246D01*
X201339Y143131D01*
X180606D01*
Y143949D01*
X175094D01*
Y141623D01*
X174979Y141473D01*
X174648Y140673D01*
X174535Y139815D01*
X174648Y138957D01*
X174979Y138157D01*
X175094Y138006D01*
Y135681D01*
X180606D01*
Y136499D01*
X202713D01*
X203571Y136612D01*
X204371Y136943D01*
X205057Y137470D01*
X211173Y143586D01*
X231374D01*
Y139995D01*
X231350Y139815D01*
X231374Y139635D01*
Y135681D01*
X236886D01*
Y137035D01*
X258037D01*
X258757Y137130D01*
X259427Y137408D01*
X260003Y137849D01*
X266276Y144122D01*
X287225D01*
X287653Y143949D01*
X287653Y143622D01*
Y139995D01*
X287630Y139815D01*
Y133535D01*
X285882D01*
Y125858D01*
X294937D01*
Y133535D01*
X293189D01*
Y139815D01*
X293165Y139996D01*
Y143646D01*
X293165Y143949D01*
X293165Y144449D01*
Y146720D01*
X293189Y146902D01*
X293165Y147083D01*
Y149657D01*
X290590D01*
X290409Y149681D01*
X265124D01*
X264405Y149586D01*
X263734Y149309D01*
X263159Y148867D01*
X256886Y142595D01*
X236886D01*
Y143949D01*
X236886Y143949D01*
Y144146D01*
X236886D01*
X236886Y144449D01*
Y145093D01*
X237002Y145244D01*
X237333Y146043D01*
X237446Y146902D01*
X237333Y147760D01*
X237002Y148559D01*
X236886Y148710D01*
Y149657D01*
X235939D01*
X235788Y149773D01*
X234988Y150104D01*
X234130Y150217D01*
D02*
G37*
G36*
X65292D02*
X40961D01*
X40103Y150104D01*
X39303Y149773D01*
X38616Y149246D01*
X32501Y143131D01*
X11768D01*
Y143949D01*
X6256D01*
Y141623D01*
X6140Y141473D01*
X5809Y140673D01*
X5696Y139815D01*
X5809Y138957D01*
X6140Y138157D01*
X6256Y138006D01*
Y135681D01*
X11768D01*
Y136499D01*
X33874D01*
X34732Y136612D01*
X35532Y136943D01*
X36219Y137470D01*
X42334Y143586D01*
X62536D01*
Y139995D01*
X62512Y139815D01*
X62536Y139635D01*
Y135681D01*
X68047D01*
Y137035D01*
X89199D01*
X89918Y137130D01*
X90589Y137408D01*
X91164Y137849D01*
X97437Y144122D01*
X118387D01*
X118815Y143949D01*
X118815Y143622D01*
Y139995D01*
X118791Y139815D01*
Y132622D01*
X116130D01*
Y124945D01*
X125185D01*
Y132622D01*
X124351D01*
Y139815D01*
X124327Y139996D01*
Y143646D01*
X124327Y143949D01*
X124327Y144449D01*
Y146720D01*
X124351Y146902D01*
X124327Y147083D01*
Y149657D01*
X121752D01*
X121571Y149681D01*
X96286D01*
X95566Y149586D01*
X94896Y149309D01*
X94320Y148867D01*
X88048Y142595D01*
X68047D01*
Y143949D01*
X68047Y143949D01*
Y144146D01*
X68047D01*
X68047Y144449D01*
Y145093D01*
X68163Y145244D01*
X68494Y146043D01*
X68607Y146902D01*
X68494Y147760D01*
X68163Y148559D01*
X68047Y148710D01*
Y149657D01*
X67100D01*
X66949Y149773D01*
X66150Y150104D01*
X65292Y150217D01*
D02*
G37*
G36*
X632614Y121921D02*
X623559D01*
Y114244D01*
X624297D01*
Y109404D01*
X623917Y108745D01*
X623693Y107909D01*
Y107044D01*
X623917Y106208D01*
X624350Y105458D01*
X624962Y104846D01*
X625711Y104413D01*
X626548Y104189D01*
X627413D01*
X628249Y104413D01*
X628999Y104846D01*
X629611Y105458D01*
X630044Y106208D01*
X630268Y107044D01*
Y107909D01*
X630044Y108745D01*
X629856Y109070D01*
Y114244D01*
X632614D01*
Y121921D01*
D02*
G37*
G36*
X463776D02*
X454721D01*
Y114244D01*
X455459D01*
Y109404D01*
X455078Y108745D01*
X454854Y107909D01*
Y107044D01*
X455078Y106208D01*
X455511Y105458D01*
X456123Y104846D01*
X456873Y104413D01*
X457709Y104189D01*
X458575D01*
X459411Y104413D01*
X460160Y104846D01*
X460772Y105458D01*
X461205Y106208D01*
X461429Y107044D01*
Y107909D01*
X461205Y108745D01*
X461018Y109070D01*
Y114244D01*
X463776D01*
Y121921D01*
D02*
G37*
G36*
X294937D02*
X285882D01*
Y114244D01*
X286620D01*
Y109404D01*
X286240Y108745D01*
X286016Y107909D01*
Y107044D01*
X286240Y106208D01*
X286673Y105458D01*
X287285Y104846D01*
X288034Y104413D01*
X288871Y104189D01*
X289736D01*
X290572Y104413D01*
X291322Y104846D01*
X291934Y105458D01*
X292367Y106208D01*
X292591Y107044D01*
Y107909D01*
X292367Y108745D01*
X292179Y109070D01*
Y114244D01*
X294937D01*
Y121921D01*
D02*
G37*
G36*
X125185Y121008D02*
X116130D01*
Y113331D01*
X117781D01*
Y109404D01*
X117401Y108745D01*
X117177Y107909D01*
Y107044D01*
X117401Y106208D01*
X117834Y105458D01*
X118446Y104846D01*
X119196Y104413D01*
X120032Y104189D01*
X120897D01*
X121734Y104413D01*
X122483Y104846D01*
X123095Y105458D01*
X123528Y106208D01*
X123752Y107044D01*
Y107909D01*
X123528Y108745D01*
X123341Y109070D01*
Y113331D01*
X125185D01*
Y121008D01*
D02*
G37*
G36*
X628027Y50280D02*
X627308Y50185D01*
X626638Y49907D01*
X626062Y49466D01*
X625620Y48890D01*
X625343Y48219D01*
X625248Y47500D01*
Y45260D01*
X623646D01*
Y37583D01*
X632701D01*
Y45260D01*
X630807D01*
Y47500D01*
X630712Y48219D01*
X630435Y48890D01*
X629993Y49466D01*
X629417Y49907D01*
X628747Y50185D01*
X628027Y50280D01*
D02*
G37*
G36*
X459189D02*
X458469Y50185D01*
X457799Y49907D01*
X457223Y49466D01*
X456782Y48890D01*
X456504Y48219D01*
X456409Y47500D01*
Y45260D01*
X454807D01*
Y37583D01*
X463862D01*
Y45260D01*
X461969D01*
Y47500D01*
X461874Y48219D01*
X461596Y48890D01*
X461155Y49466D01*
X460579Y49907D01*
X459908Y50185D01*
X459189Y50280D01*
D02*
G37*
G36*
X290350D02*
X289631Y50185D01*
X288961Y49907D01*
X288385Y49466D01*
X287943Y48890D01*
X287665Y48219D01*
X287571Y47500D01*
Y45260D01*
X285968D01*
Y37583D01*
X295024D01*
Y45260D01*
X293130D01*
Y47500D01*
X293035Y48219D01*
X292758Y48890D01*
X292316Y49466D01*
X291740Y49907D01*
X291070Y50185D01*
X290350Y50280D01*
D02*
G37*
G36*
X121512D02*
X120792Y50185D01*
X120122Y49907D01*
X119546Y49466D01*
X119105Y48890D01*
X118827Y48219D01*
X118732Y47500D01*
Y45260D01*
X117130D01*
Y37583D01*
X126185D01*
Y45260D01*
X124292D01*
Y47500D01*
X124197Y48219D01*
X123919Y48890D01*
X123477Y49466D01*
X122902Y49907D01*
X122231Y50185D01*
X121512Y50280D01*
D02*
G37*
G36*
X632701Y33646D02*
X623646D01*
Y25969D01*
X625307D01*
Y18158D01*
X625331Y17977D01*
X625331Y14024D01*
X624902Y13851D01*
X601848D01*
X601162Y14536D01*
X600587Y14978D01*
X599916Y15256D01*
X599197Y15350D01*
X574917D01*
X574563Y15704D01*
X574563Y16705D01*
X574563Y17205D01*
Y19477D01*
X574587Y19658D01*
X574563Y19838D01*
Y22413D01*
X571988D01*
X571807Y22437D01*
X547211D01*
X546491Y22342D01*
X545821Y22065D01*
X545245Y21623D01*
X538973Y15350D01*
X518283D01*
Y16705D01*
X512772D01*
Y12752D01*
X512748Y12571D01*
X512772Y12390D01*
Y8437D01*
X518283D01*
Y9791D01*
X540124D01*
X540843Y9886D01*
X541514Y10164D01*
X542090Y10605D01*
X548362Y16878D01*
X568623D01*
X569051Y16705D01*
X569051Y16378D01*
Y12752D01*
X569027Y12571D01*
X569051Y12390D01*
Y8437D01*
X574563D01*
Y9791D01*
X598045D01*
X598731Y9105D01*
X599307Y8664D01*
X599977Y8386D01*
X600697Y8291D01*
X628087D01*
X628267Y8315D01*
X630842D01*
Y10890D01*
X630866Y11071D01*
X630842Y11252D01*
Y13524D01*
X630842Y13827D01*
X630842Y14327D01*
Y17977D01*
X630866Y18158D01*
Y25969D01*
X632701D01*
Y33646D01*
D02*
G37*
G36*
X463862D02*
X454807D01*
Y25969D01*
X456468D01*
Y18158D01*
X456492Y17977D01*
X456492Y14024D01*
X456064Y13851D01*
X433010D01*
X432324Y14536D01*
X431748Y14978D01*
X431078Y15256D01*
X430358Y15350D01*
X406078D01*
X405724Y15704D01*
X405724Y16705D01*
X405724Y17205D01*
Y19477D01*
X405748Y19658D01*
X405724Y19838D01*
Y22413D01*
X403149D01*
X402969Y22437D01*
X378372D01*
X377653Y22342D01*
X376982Y22065D01*
X376407Y21623D01*
X370134Y15350D01*
X349445D01*
Y16705D01*
X343933D01*
Y12752D01*
X343909Y12571D01*
X343933Y12390D01*
Y8437D01*
X349445D01*
Y9791D01*
X371285D01*
X372005Y9886D01*
X372675Y10164D01*
X373251Y10605D01*
X379523Y16878D01*
X399784D01*
X400213Y16705D01*
X400213Y16378D01*
Y12752D01*
X400189Y12571D01*
X400213Y12390D01*
Y8437D01*
X405724D01*
Y9791D01*
X429207D01*
X429893Y9105D01*
X430468Y8664D01*
X431139Y8386D01*
X431858Y8291D01*
X459248D01*
X459429Y8315D01*
X462004D01*
Y10890D01*
X462028Y11071D01*
X462004Y11252D01*
Y13524D01*
X462004Y13827D01*
X462004Y14327D01*
Y17977D01*
X462028Y18158D01*
Y25969D01*
X463862D01*
Y33646D01*
D02*
G37*
G36*
X295024D02*
X285968D01*
Y25969D01*
X287630D01*
Y18158D01*
X287653Y17977D01*
X287653Y14024D01*
X287225Y13851D01*
X264171D01*
X263485Y14536D01*
X262910Y14978D01*
X262239Y15256D01*
X261520Y15350D01*
X237239D01*
X236886Y15704D01*
X236886Y16705D01*
X236886Y17205D01*
Y19477D01*
X236910Y19658D01*
X236886Y19838D01*
Y22413D01*
X234311D01*
X234130Y22437D01*
X209534D01*
X208814Y22342D01*
X208144Y22065D01*
X207568Y21623D01*
X201295Y15350D01*
X180606D01*
Y16705D01*
X175094D01*
Y12752D01*
X175071Y12571D01*
X175094Y12390D01*
Y8437D01*
X180606D01*
Y9791D01*
X202447D01*
X203166Y9886D01*
X203837Y10164D01*
X204412Y10605D01*
X210685Y16878D01*
X230946D01*
X231374Y16705D01*
X231374Y16378D01*
Y12752D01*
X231350Y12571D01*
X231374Y12390D01*
Y8437D01*
X236886D01*
Y9791D01*
X260368D01*
X261054Y9105D01*
X261630Y8664D01*
X262300Y8386D01*
X263020Y8291D01*
X290409D01*
X290590Y8315D01*
X293165D01*
Y10890D01*
X293189Y11071D01*
X293165Y11252D01*
Y13524D01*
X293165Y13827D01*
X293165Y14327D01*
Y17977D01*
X293189Y18158D01*
Y25969D01*
X295024D01*
Y33646D01*
D02*
G37*
G36*
X126185D02*
X117130D01*
Y25969D01*
X118791D01*
Y18158D01*
X118815Y17977D01*
X118815Y14024D01*
X118387Y13851D01*
X95332D01*
X94647Y14536D01*
X94071Y14978D01*
X93401Y15256D01*
X92681Y15350D01*
X68401D01*
X68047Y15704D01*
X68047Y16705D01*
X68047Y17205D01*
Y19477D01*
X68071Y19658D01*
X68047Y19838D01*
Y22413D01*
X65472D01*
X65291Y22437D01*
X40695D01*
X39976Y22342D01*
X39305Y22065D01*
X38729Y21623D01*
X32457Y15350D01*
X11768D01*
Y16705D01*
X6256D01*
Y12752D01*
X6232Y12571D01*
X6256Y12390D01*
Y8437D01*
X11768D01*
Y9791D01*
X33608D01*
X34328Y9886D01*
X34998Y10164D01*
X35574Y10605D01*
X41846Y16878D01*
X62107D01*
X62536Y16705D01*
X62536Y16378D01*
Y12752D01*
X62512Y12571D01*
X62536Y12390D01*
Y8437D01*
X68047D01*
Y9791D01*
X91530D01*
X92216Y9105D01*
X92791Y8664D01*
X93462Y8386D01*
X94181Y8291D01*
X121571D01*
X121751Y8315D01*
X124327D01*
Y10890D01*
X124351Y11071D01*
X124327Y11252D01*
Y13524D01*
X124327Y13827D01*
X124327Y14327D01*
Y17977D01*
X124351Y18158D01*
Y25969D01*
X126185D01*
Y33646D01*
D02*
G37*
%LPD*%
D12*
X458512Y413000D02*
D03*
Y401386D02*
D03*
X627512Y412500D02*
D03*
Y400886D02*
D03*
X796012Y412000D02*
D03*
Y400386D02*
D03*
X289512Y401386D02*
D03*
Y413000D02*
D03*
X120512Y412500D02*
D03*
Y400886D02*
D03*
X289512Y272000D02*
D03*
Y260386D02*
D03*
X120658Y260780D02*
D03*
Y272394D02*
D03*
X458512Y271500D02*
D03*
Y259886D02*
D03*
X627512Y272500D02*
D03*
Y260886D02*
D03*
X796012Y259886D02*
D03*
Y271500D02*
D03*
X120658Y128784D02*
D03*
Y117169D02*
D03*
X459335Y29807D02*
D03*
Y41421D02*
D03*
X628173Y29807D02*
D03*
Y41421D02*
D03*
X797012Y29807D02*
D03*
Y41421D02*
D03*
X796925Y129697D02*
D03*
Y118083D02*
D03*
X628087Y129697D02*
D03*
Y118083D02*
D03*
X459248Y129697D02*
D03*
Y118083D02*
D03*
X290409D02*
D03*
Y129697D02*
D03*
X290496Y29807D02*
D03*
Y41421D02*
D03*
X120658Y531807D02*
D03*
Y543421D02*
D03*
X289496D02*
D03*
Y531807D02*
D03*
X458335Y543421D02*
D03*
Y531807D02*
D03*
X627173Y543421D02*
D03*
Y531807D02*
D03*
X796012Y543421D02*
D03*
Y531807D02*
D03*
X121658Y41421D02*
D03*
Y29807D02*
D03*
D13*
X459248Y18158D02*
D03*
X628087D02*
D03*
X796925D02*
D03*
X290409D02*
D03*
X121571D02*
D03*
X9012Y554453D02*
D03*
X121571Y424429D02*
D03*
Y554453D02*
D03*
Y283425D02*
D03*
Y139815D02*
D03*
X65291Y12571D02*
D03*
X177850D02*
D03*
X234130D02*
D03*
X346689D02*
D03*
X402969D02*
D03*
X515527D02*
D03*
X571807D02*
D03*
X684366D02*
D03*
X740646D02*
D03*
X65291Y554453D02*
D03*
Y283425D02*
D03*
X9012D02*
D03*
X684366D02*
D03*
X740646D02*
D03*
X796925D02*
D03*
X290409Y424429D02*
D03*
X234130D02*
D03*
X177850D02*
D03*
X290409Y139815D02*
D03*
X234130D02*
D03*
X177850D02*
D03*
X234130Y554453D02*
D03*
X177850D02*
D03*
X290409D02*
D03*
X796925D02*
D03*
X628087D02*
D03*
X402969D02*
D03*
X346689D02*
D03*
X684366D02*
D03*
X515527D02*
D03*
X459248D02*
D03*
X571807D02*
D03*
X740646D02*
D03*
X9012Y424429D02*
D03*
X65291D02*
D03*
X684366D02*
D03*
X628087D02*
D03*
X571807D02*
D03*
X740646D02*
D03*
X796925D02*
D03*
X515527D02*
D03*
X346689D02*
D03*
X402969D02*
D03*
X459248D02*
D03*
X9012Y12571D02*
D03*
X796925Y139815D02*
D03*
X740646D02*
D03*
X684366D02*
D03*
X628087D02*
D03*
X571807D02*
D03*
X515527D02*
D03*
X459248D02*
D03*
X402969D02*
D03*
X346689D02*
D03*
X65291D02*
D03*
X9012D02*
D03*
X628087Y283425D02*
D03*
X571807D02*
D03*
X515527D02*
D03*
X459248D02*
D03*
X402969D02*
D03*
X346689D02*
D03*
X290409D02*
D03*
X234130D02*
D03*
X177850D02*
D03*
D14*
X459248Y11071D02*
D03*
X628087D02*
D03*
X796925D02*
D03*
X290409D02*
D03*
X121571D02*
D03*
X9012Y561539D02*
D03*
X121571Y431516D02*
D03*
Y561539D02*
D03*
Y290512D02*
D03*
Y146902D02*
D03*
X65291Y19658D02*
D03*
X177850D02*
D03*
X234130D02*
D03*
X346689D02*
D03*
X402969D02*
D03*
X515527D02*
D03*
X571807D02*
D03*
X684366D02*
D03*
X740646D02*
D03*
X65291Y561539D02*
D03*
Y290512D02*
D03*
X9012D02*
D03*
X684366D02*
D03*
X740646D02*
D03*
X796925D02*
D03*
X290409Y431516D02*
D03*
X234130D02*
D03*
X177850D02*
D03*
X290409Y146902D02*
D03*
X234130D02*
D03*
X177850D02*
D03*
X234130Y561539D02*
D03*
X177850D02*
D03*
X290409D02*
D03*
X796925D02*
D03*
X628087D02*
D03*
X402969D02*
D03*
X346689D02*
D03*
X684366D02*
D03*
X515527D02*
D03*
X459248D02*
D03*
X571807D02*
D03*
X740646D02*
D03*
X9012Y431516D02*
D03*
X65291D02*
D03*
X684366D02*
D03*
X628087D02*
D03*
X571807D02*
D03*
X740646D02*
D03*
X796925D02*
D03*
X515527D02*
D03*
X346689D02*
D03*
X402969D02*
D03*
X459248D02*
D03*
X9012Y19658D02*
D03*
X796925Y146902D02*
D03*
X740646D02*
D03*
X684366D02*
D03*
X628087D02*
D03*
X571807D02*
D03*
X515527D02*
D03*
X459248D02*
D03*
X402969D02*
D03*
X346689D02*
D03*
X65291D02*
D03*
X9012D02*
D03*
X628087Y290512D02*
D03*
X571807D02*
D03*
X515527D02*
D03*
X459248D02*
D03*
X402969D02*
D03*
X346689D02*
D03*
X290409D02*
D03*
X234130D02*
D03*
X177850D02*
D03*
D20*
X716049Y19658D02*
X740646D01*
X708963Y12571D02*
X716049Y19658D01*
X684366Y12571D02*
X708963D01*
X768035D02*
X769535Y11071D01*
X740646Y12571D02*
X768035D01*
X769535Y11071D02*
X796925D01*
Y29721D02*
X797012Y29807D01*
X796925Y18158D02*
Y29721D01*
X796866Y41567D02*
X797012Y41421D01*
X796866Y41567D02*
Y47500D01*
X547211Y19658D02*
X571807D01*
X540124Y12571D02*
X547211Y19658D01*
X515527Y12571D02*
X540124D01*
X599197D02*
X600697Y11071D01*
X571807Y12571D02*
X599197D01*
X600697Y11071D02*
X628087D01*
Y29721D02*
X628173Y29807D01*
X628087Y18158D02*
Y29721D01*
X628027Y41567D02*
X628173Y41421D01*
X628027Y41567D02*
Y47500D01*
X378372Y19658D02*
X402969D01*
X371285Y12571D02*
X378372Y19658D01*
X346689Y12571D02*
X371285D01*
X430358D02*
X431858Y11071D01*
X402969Y12571D02*
X430358D01*
X431858Y11071D02*
X459248D01*
Y29721D02*
X459335Y29807D01*
X459248Y18158D02*
Y29721D01*
X459189Y41567D02*
X459335Y41421D01*
X459189Y41567D02*
Y47500D01*
X209534Y19658D02*
X234130D01*
X202447Y12571D02*
X209534Y19658D01*
X177850Y12571D02*
X202447D01*
X261520D02*
X263020Y11071D01*
X234130Y12571D02*
X261520D01*
X263020Y11071D02*
X290409D01*
Y29721D02*
X290496Y29807D01*
X290409Y18158D02*
Y29721D01*
X290350Y41567D02*
X290496Y41421D01*
X290350Y41567D02*
Y47500D01*
X121512Y41567D02*
Y47500D01*
Y41567D02*
X121658Y41421D01*
X121571Y18158D02*
Y29721D01*
X121658Y29807D01*
X94181Y11071D02*
X121571D01*
X65291Y12571D02*
X92681D01*
X94181Y11071D01*
X9012Y12571D02*
X33608D01*
X40695Y19658D01*
X65291D01*
X96286Y146902D02*
X121571D01*
X65292Y139815D02*
X89199D01*
X96286Y146902D01*
X121571Y129697D02*
Y139815D01*
X120658Y128784D02*
X121571Y129697D01*
X120465Y107476D02*
X120561Y107573D01*
Y117073D02*
X120658Y117169D01*
X120561Y107573D02*
Y117073D01*
X289400Y107573D02*
Y117073D01*
X290409Y129697D02*
Y139815D01*
X258037D02*
X265124Y146902D01*
X234130Y139815D02*
X258037D01*
X265124Y146902D02*
X290409D01*
X458238Y107573D02*
Y117073D01*
X459248Y129697D02*
Y139815D01*
X426876D02*
X433963Y146902D01*
X402969Y139815D02*
X426876D01*
X433963Y146902D02*
X459248D01*
X627077Y107573D02*
Y117073D01*
X628087Y129697D02*
Y139815D01*
X595715D02*
X602801Y146902D01*
X571807Y139815D02*
X595715D01*
X602801Y146902D02*
X628087D01*
X795915Y107573D02*
Y117073D01*
X796925Y129697D02*
Y139815D01*
X764553D02*
X771640Y146902D01*
X740646Y139815D02*
X764553D01*
X771640Y146902D02*
X796925D01*
X96286Y290512D02*
X121571D01*
X65292Y283425D02*
X89199D01*
X96286Y290512D01*
X121571Y273307D02*
Y283425D01*
X120658Y272394D02*
X121571Y273307D01*
X120465Y251087D02*
X120561Y251183D01*
Y260683D02*
X120658Y260780D01*
X120561Y251183D02*
Y260683D01*
X289400Y251183D02*
Y260683D01*
X290409Y273307D02*
Y283425D01*
X258037D02*
X265124Y290512D01*
X234130Y283425D02*
X258037D01*
X265124Y290512D02*
X290409D01*
X458238Y251183D02*
Y260683D01*
X459248Y273307D02*
Y283425D01*
X426876D02*
X433963Y290512D01*
X402969Y283425D02*
X426876D01*
X433963Y290512D02*
X459248D01*
X627077Y251183D02*
Y260683D01*
X628087Y273307D02*
Y283425D01*
X595715D02*
X602801Y290512D01*
X571807Y283425D02*
X595715D01*
X602801Y290512D02*
X628087D01*
X795915Y251183D02*
Y260683D01*
X796925Y273307D02*
Y283425D01*
X764553D02*
X771640Y290512D01*
X740646Y283425D02*
X764553D01*
X771640Y290512D02*
X796925D01*
X96286Y431516D02*
X121571D01*
X65292Y424429D02*
X89199D01*
X96286Y431516D01*
X121571Y414311D02*
Y424429D01*
X120658Y413398D02*
X121571Y414311D01*
X120465Y392091D02*
X120561Y392187D01*
Y401687D02*
X120658Y401784D01*
X120561Y392187D02*
Y401687D01*
X289400Y392187D02*
Y401687D01*
X290409Y414311D02*
Y424429D01*
X258037D02*
X265124Y431516D01*
X234130Y424429D02*
X258037D01*
X265124Y431516D02*
X290409D01*
X458238Y392187D02*
Y401687D01*
X459248Y414311D02*
Y424429D01*
X426876D02*
X433963Y431516D01*
X402969Y424429D02*
X426876D01*
X433963Y431516D02*
X459248D01*
X627077Y392187D02*
Y401687D01*
X628087Y414311D02*
Y424429D01*
X595715D02*
X602801Y431516D01*
X571807Y424429D02*
X595715D01*
X602801Y431516D02*
X628087D01*
X795915Y392187D02*
Y401687D01*
X796925Y414311D02*
Y424429D01*
X764553D02*
X771640Y431516D01*
X740646Y424429D02*
X764553D01*
X771640Y431516D02*
X796925D01*
X771640Y561539D02*
X796925D01*
X740646Y554453D02*
X764553D01*
X771640Y561539D01*
X796925Y544335D02*
Y554453D01*
X795915Y522211D02*
Y531711D01*
X602801Y561539D02*
X628087D01*
X571807Y554453D02*
X595715D01*
X602801Y561539D01*
X628087Y544335D02*
Y554453D01*
X627077Y522211D02*
Y531711D01*
X433963Y561539D02*
X459248D01*
X402969Y554453D02*
X426876D01*
X433963Y561539D01*
X459248Y544335D02*
Y554453D01*
X458238Y522211D02*
Y531711D01*
X265124Y561539D02*
X290409D01*
X234130Y554453D02*
X258037D01*
X265124Y561539D01*
X290409Y544335D02*
Y554453D01*
X289400Y522211D02*
Y531711D01*
X120561Y522211D02*
Y531711D01*
X120658Y531807D01*
X120465Y522114D02*
X120561Y522211D01*
X120658Y543421D02*
X121571Y544335D01*
Y554453D01*
X89199D02*
X96285Y561539D01*
X65291Y554453D02*
X89199D01*
X96285Y561539D02*
X121571D01*
D21*
X40961Y146902D02*
X65292D01*
X9012Y139815D02*
X33874D01*
X40961Y146902D01*
X202713Y139815D02*
X209799Y146902D01*
X177850Y139815D02*
X202713D01*
X209799Y146902D02*
X234130D01*
X371551Y139815D02*
X378638Y146902D01*
X346689Y139815D02*
X371551D01*
X378638Y146902D02*
X402969D01*
X540390Y139815D02*
X547476Y146902D01*
X515528Y139815D02*
X540390D01*
X547476Y146902D02*
X571807D01*
X709228Y139815D02*
X716315Y146902D01*
X684366Y139815D02*
X709228D01*
X716315Y146902D02*
X740646D01*
X40961Y290512D02*
X65292D01*
X9012Y283425D02*
X33874D01*
X40961Y290512D01*
X202713Y283425D02*
X209799Y290512D01*
X177850Y283425D02*
X202713D01*
X209799Y290512D02*
X234130D01*
X371551Y283425D02*
X378638Y290512D01*
X346689Y283425D02*
X371551D01*
X378638Y290512D02*
X402969D01*
X540390Y283425D02*
X547476Y290512D01*
X515528Y283425D02*
X540390D01*
X547476Y290512D02*
X571807D01*
X709228Y283425D02*
X716315Y290512D01*
X684366Y283425D02*
X709228D01*
X716315Y290512D02*
X740646D01*
X40961Y431516D02*
X65292D01*
X9012Y424429D02*
X33874D01*
X40961Y431516D01*
X202713Y424429D02*
X209799Y431516D01*
X177850Y424429D02*
X202713D01*
X209799Y431516D02*
X234130D01*
X371551Y424429D02*
X378638Y431516D01*
X346689Y424429D02*
X371551D01*
X378638Y431516D02*
X402969D01*
X540390Y424429D02*
X547476Y431516D01*
X515528Y424429D02*
X540390D01*
X547476Y431516D02*
X571807D01*
X709228Y424429D02*
X716315Y431516D01*
X684366Y424429D02*
X709228D01*
X716315Y431516D02*
X740646D01*
X716315Y561539D02*
X740646D01*
X684366Y554453D02*
X709228D01*
X716315Y561539D01*
X547476D02*
X571807D01*
X515527Y554453D02*
X540390D01*
X547476Y561539D01*
X378638D02*
X402969D01*
X346689Y554453D02*
X371551D01*
X378638Y561539D01*
X209799D02*
X234130D01*
X177850Y554453D02*
X202713D01*
X209799Y561539D01*
X33874Y554453D02*
X40961Y561539D01*
X9012Y554453D02*
X33874D01*
X40961Y561539D02*
X65291D01*
D22*
X51012Y188571D02*
D03*
X52512Y393295D02*
D03*
D23*
X796866Y47500D02*
D03*
X628027D02*
D03*
X459189D02*
D03*
X290350D02*
D03*
X121512D02*
D03*
D24*
X795819Y107476D02*
D03*
X458142D02*
D03*
X289303D02*
D03*
X626980D02*
D03*
X120465D02*
D03*
X795819Y251087D02*
D03*
X458142D02*
D03*
X289303D02*
D03*
X626980D02*
D03*
X120465D02*
D03*
X795819Y392091D02*
D03*
X458142D02*
D03*
X289303D02*
D03*
X626980D02*
D03*
X120465D02*
D03*
X120465Y522114D02*
D03*
X626980D02*
D03*
X289303D02*
D03*
X458142D02*
D03*
X795819D02*
D03*
D25*
X887728Y285368D02*
D03*
M02*
