G04*
G04 #@! TF.GenerationSoftware,Altium Limited,Altium Designer,24.5.2 (23)*
G04*
G04 Layer_Color=255*
%FSLAX25Y25*%
%MOIN*%
G70*
G04*
G04 #@! TF.SameCoordinates,B792C49A-183B-4FC1-AA54-09E065BB5E11*
G04*
G04*
G04 #@! TF.FilePolarity,Positive*
G04*
G01*
G75*
%ADD12R,0.07480X0.06102*%
%ADD13R,0.03937X0.06693*%
%ADD14R,0.03937X0.03937*%
G04:AMPARAMS|DCode=22|XSize=196.85mil|YSize=452.76mil|CornerRadius=49.21mil|HoleSize=0mil|Usage=FLASHONLY|Rotation=270.000|XOffset=0mil|YOffset=0mil|HoleType=Round|Shape=RoundedRectangle|*
%AMROUNDEDRECTD22*
21,1,0.19685,0.35433,0,0,270.0*
21,1,0.09843,0.45276,0,0,270.0*
1,1,0.09843,-0.17717,-0.04921*
1,1,0.09843,-0.17717,0.04921*
1,1,0.09843,0.17717,0.04921*
1,1,0.09843,0.17717,-0.04921*
%
%ADD22ROUNDEDRECTD22*%
D12*
X458512Y413000D02*
D03*
Y401386D02*
D03*
X627512Y412500D02*
D03*
Y400886D02*
D03*
X796012Y412000D02*
D03*
Y400386D02*
D03*
X289512Y401386D02*
D03*
Y413000D02*
D03*
X120512Y412500D02*
D03*
Y400886D02*
D03*
X289512Y272000D02*
D03*
Y260386D02*
D03*
X120658Y260780D02*
D03*
Y272394D02*
D03*
X458512Y271500D02*
D03*
Y259886D02*
D03*
X627512Y272500D02*
D03*
Y260886D02*
D03*
X796012Y259886D02*
D03*
Y271500D02*
D03*
X120658Y128784D02*
D03*
Y117169D02*
D03*
X459335Y29807D02*
D03*
Y41421D02*
D03*
X628173Y29807D02*
D03*
Y41421D02*
D03*
X797012Y29807D02*
D03*
Y41421D02*
D03*
X796925Y129697D02*
D03*
Y118083D02*
D03*
X628087Y129697D02*
D03*
Y118083D02*
D03*
X459248Y129697D02*
D03*
Y118083D02*
D03*
X290409D02*
D03*
Y129697D02*
D03*
X290496Y29807D02*
D03*
Y41421D02*
D03*
X120658Y531807D02*
D03*
Y543421D02*
D03*
X289496D02*
D03*
Y531807D02*
D03*
X458335Y543421D02*
D03*
Y531807D02*
D03*
X627173Y543421D02*
D03*
Y531807D02*
D03*
X796012Y543421D02*
D03*
Y531807D02*
D03*
X121658Y41421D02*
D03*
Y29807D02*
D03*
D13*
X459248Y18158D02*
D03*
X628087D02*
D03*
X796925D02*
D03*
X290409D02*
D03*
X121571D02*
D03*
X9012Y554453D02*
D03*
X121571Y424429D02*
D03*
Y554453D02*
D03*
Y283425D02*
D03*
Y139815D02*
D03*
X65291Y12571D02*
D03*
X177850D02*
D03*
X234130D02*
D03*
X346689D02*
D03*
X402969D02*
D03*
X515527D02*
D03*
X571807D02*
D03*
X684366D02*
D03*
X740646D02*
D03*
X65291Y554453D02*
D03*
Y283425D02*
D03*
X9012D02*
D03*
X684366D02*
D03*
X740646D02*
D03*
X796925D02*
D03*
X290409Y424429D02*
D03*
X234130D02*
D03*
X177850D02*
D03*
X290409Y139815D02*
D03*
X234130D02*
D03*
X177850D02*
D03*
X234130Y554453D02*
D03*
X177850D02*
D03*
X290409D02*
D03*
X796925D02*
D03*
X628087D02*
D03*
X402969D02*
D03*
X346689D02*
D03*
X684366D02*
D03*
X515527D02*
D03*
X459248D02*
D03*
X571807D02*
D03*
X740646D02*
D03*
X9012Y424429D02*
D03*
X65291D02*
D03*
X684366D02*
D03*
X628087D02*
D03*
X571807D02*
D03*
X740646D02*
D03*
X796925D02*
D03*
X515527D02*
D03*
X346689D02*
D03*
X402969D02*
D03*
X459248D02*
D03*
X9012Y12571D02*
D03*
X796925Y139815D02*
D03*
X740646D02*
D03*
X684366D02*
D03*
X628087D02*
D03*
X571807D02*
D03*
X515527D02*
D03*
X459248D02*
D03*
X402969D02*
D03*
X346689D02*
D03*
X65291D02*
D03*
X9012D02*
D03*
X628087Y283425D02*
D03*
X571807D02*
D03*
X515527D02*
D03*
X459248D02*
D03*
X402969D02*
D03*
X346689D02*
D03*
X290409D02*
D03*
X234130D02*
D03*
X177850D02*
D03*
D14*
X459248Y11071D02*
D03*
X628087D02*
D03*
X796925D02*
D03*
X290409D02*
D03*
X121571D02*
D03*
X9012Y561539D02*
D03*
X121571Y431516D02*
D03*
Y561539D02*
D03*
Y290512D02*
D03*
Y146902D02*
D03*
X65291Y19658D02*
D03*
X177850D02*
D03*
X234130D02*
D03*
X346689D02*
D03*
X402969D02*
D03*
X515527D02*
D03*
X571807D02*
D03*
X684366D02*
D03*
X740646D02*
D03*
X65291Y561539D02*
D03*
Y290512D02*
D03*
X9012D02*
D03*
X684366D02*
D03*
X740646D02*
D03*
X796925D02*
D03*
X290409Y431516D02*
D03*
X234130D02*
D03*
X177850D02*
D03*
X290409Y146902D02*
D03*
X234130D02*
D03*
X177850D02*
D03*
X234130Y561539D02*
D03*
X177850D02*
D03*
X290409D02*
D03*
X796925D02*
D03*
X628087D02*
D03*
X402969D02*
D03*
X346689D02*
D03*
X684366D02*
D03*
X515527D02*
D03*
X459248D02*
D03*
X571807D02*
D03*
X740646D02*
D03*
X9012Y431516D02*
D03*
X65291D02*
D03*
X684366D02*
D03*
X628087D02*
D03*
X571807D02*
D03*
X740646D02*
D03*
X796925D02*
D03*
X515527D02*
D03*
X346689D02*
D03*
X402969D02*
D03*
X459248D02*
D03*
X9012Y19658D02*
D03*
X796925Y146902D02*
D03*
X740646D02*
D03*
X684366D02*
D03*
X628087D02*
D03*
X571807D02*
D03*
X515527D02*
D03*
X459248D02*
D03*
X402969D02*
D03*
X346689D02*
D03*
X65291D02*
D03*
X9012D02*
D03*
X628087Y290512D02*
D03*
X571807D02*
D03*
X515527D02*
D03*
X459248D02*
D03*
X402969D02*
D03*
X346689D02*
D03*
X290409D02*
D03*
X234130D02*
D03*
X177850D02*
D03*
D22*
X51012Y188571D02*
D03*
X52512Y393295D02*
D03*
M02*
