G04*
G04 #@! TF.GenerationSoftware,Altium Limited,Altium Designer,24.5.2 (23)*
G04*
G04 Layer_Color=32896*
%FSLAX25Y25*%
%MOIN*%
G70*
G04*
G04 #@! TF.SameCoordinates,B792C49A-183B-4FC1-AA54-09E065BB5E11*
G04*
G04*
G04 #@! TF.FilePolarity,Positive*
G04*
G01*
G75*
G36*
X59683Y211585D02*
X43290D01*
Y253933D01*
X59683D01*
Y211585D01*
D02*
G37*
G36*
X75512Y367913D02*
Y330598D01*
X38269D01*
Y367913D01*
X75512D01*
D02*
G37*
G36*
X729012Y299542D02*
Y269028D01*
X201037D01*
Y299542D01*
X729012D01*
D02*
G37*
%LPC*%
G36*
X57683Y251933D02*
X45289D01*
Y213585D01*
X57683D01*
Y251933D01*
D02*
G37*
G36*
X73512Y346449D02*
Y346449D01*
D01*
Y346449D01*
D02*
G37*
G36*
X59807Y365913D02*
X40269Y365913D01*
X40269Y332598D01*
Y346449D01*
X53975Y346449D01*
Y332598D01*
X73512D01*
X59807D01*
Y346449D01*
X73512D01*
Y352208D01*
X59807D01*
X59807Y365913D01*
D02*
G37*
%LPD*%
G36*
X53975Y352208D02*
X40269Y352208D01*
X40269Y365913D01*
X53975Y365913D01*
X53975Y352208D01*
D02*
G37*
%LPC*%
G36*
X335679Y297097D02*
X325162D01*
X324607Y297060D01*
X323977Y297023D01*
X323311Y296986D01*
X322681Y296912D01*
X322126Y296838D01*
X322052D01*
X321793Y296764D01*
X321459Y296690D01*
X321015Y296579D01*
X320533Y296394D01*
X320015Y296171D01*
X319460Y295912D01*
X318978Y295616D01*
X318904Y295579D01*
X318756Y295468D01*
X318534Y295246D01*
X318238Y294986D01*
X317904Y294653D01*
X317571Y294209D01*
X317201Y293727D01*
X316905Y293172D01*
X316868Y293098D01*
X316793Y292913D01*
X316645Y292580D01*
X316497Y292135D01*
X316386Y291617D01*
X316238Y291024D01*
X316164Y290358D01*
X316127Y289654D01*
Y289654D01*
Y271472D01*
X335679D01*
Y297097D01*
D02*
G37*
G36*
X510608Y297097D02*
X507202D01*
Y286581D01*
X493945D01*
Y297097D01*
X490538D01*
Y271472D01*
X510608D01*
Y297097D01*
D02*
G37*
G36*
X435030Y297097D02*
X431624D01*
Y286581D01*
X418367D01*
Y297097D01*
X424995D01*
X414960D01*
Y271472D01*
X418367D01*
Y283544D01*
X431624D01*
Y271472D01*
X424995D01*
X435030D01*
Y297097D01*
D02*
G37*
G36*
X314498Y297097D02*
X310387D01*
X305351Y289321D01*
Y289284D01*
X305277Y289210D01*
X305203Y289099D01*
X305092Y288950D01*
X304981Y288765D01*
X304833Y288543D01*
X304463Y287988D01*
X304055Y287321D01*
X303648Y286581D01*
X303167Y285803D01*
X302722Y284988D01*
Y285025D01*
X302685Y285099D01*
X302611Y285210D01*
X302500Y285359D01*
X302389Y285544D01*
X302241Y285766D01*
X301907Y286321D01*
X301500Y286988D01*
X301019Y287766D01*
X300463Y288617D01*
X299871Y289543D01*
X294946Y297097D01*
X290984D01*
X301204Y282322D01*
Y271472D01*
X314498D01*
X304611D01*
Y282322D01*
X314498Y297097D01*
D02*
G37*
G36*
X473653Y297541D02*
X473319D01*
X473060Y297504D01*
X472727D01*
X472394Y297467D01*
X471949Y297393D01*
X471505Y297319D01*
X470542Y297134D01*
X469431Y296838D01*
X468357Y296394D01*
X467802Y296134D01*
X467246Y295838D01*
X467209Y295801D01*
X467135Y295764D01*
X466987Y295653D01*
X466765Y295542D01*
X466543Y295357D01*
X466247Y295135D01*
X465617Y294616D01*
X464951Y293950D01*
X464210Y293135D01*
X463506Y292172D01*
X462914Y291098D01*
Y291061D01*
X462840Y290950D01*
X462766Y290802D01*
X462692Y290580D01*
X462544Y290284D01*
X462432Y289950D01*
X462284Y289543D01*
X462136Y289099D01*
X462025Y288617D01*
X461877Y288099D01*
X461729Y287506D01*
X461618Y286914D01*
X461470Y285618D01*
X461396Y284211D01*
Y284248D01*
Y283840D01*
X461433Y283544D01*
Y283211D01*
X461470Y282804D01*
X461544Y282359D01*
X461581Y281878D01*
X461766Y280804D01*
X462062Y279619D01*
X462469Y278434D01*
X462692Y277842D01*
X462988Y277249D01*
Y277212D01*
X463062Y277101D01*
X463136Y276953D01*
X463284Y276731D01*
X463432Y276471D01*
X463618Y276212D01*
X464136Y275509D01*
X464765Y274768D01*
X465506Y273990D01*
X466395Y273250D01*
X467431Y272583D01*
X467469D01*
X467543Y272509D01*
X467728Y272435D01*
X467950Y272324D01*
X468209Y272213D01*
X468505Y272102D01*
X468876Y271954D01*
X469283Y271806D01*
X469727Y271657D01*
X470209Y271509D01*
X471283Y271287D01*
X472431Y271102D01*
X473653Y271028D01*
X461396Y271028D01*
D01*
X485910Y271028D01*
X474023D01*
X474245Y271065D01*
X474578D01*
X474949Y271139D01*
X475356Y271176D01*
X475837Y271250D01*
X476837Y271472D01*
X477911Y271769D01*
X479022Y272213D01*
X479577Y272472D01*
X480133Y272768D01*
X480170Y272806D01*
X480244Y272843D01*
X480392Y272954D01*
X480614Y273102D01*
X480836Y273250D01*
X481096Y273472D01*
X481725Y274027D01*
X482429Y274694D01*
X483169Y275509D01*
X483836Y276434D01*
X484465Y277508D01*
Y277545D01*
X484539Y277656D01*
X484614Y277804D01*
X484688Y278027D01*
X484799Y278323D01*
X484910Y278656D01*
X485058Y279027D01*
X485169Y279434D01*
X485317Y279915D01*
X485465Y280397D01*
X485687Y281507D01*
X485836Y282656D01*
X485910Y283914D01*
Y284211D01*
X485873Y284544D01*
Y284988D01*
X485798Y285507D01*
X485724Y286136D01*
X485613Y286840D01*
X485465Y287580D01*
X485317Y288358D01*
X485095Y289173D01*
X484799Y289987D01*
X484465Y290839D01*
X484095Y291654D01*
X483614Y292468D01*
X483095Y293209D01*
X482503Y293913D01*
X482466Y293950D01*
X482355Y294061D01*
X482132Y294246D01*
X481873Y294468D01*
X481540Y294764D01*
X481133Y295060D01*
X480651Y295394D01*
X480096Y295727D01*
X479503Y296060D01*
X478837Y296394D01*
X478096Y296690D01*
X477319Y296986D01*
X476467Y297208D01*
X475578Y297393D01*
X474652Y297504D01*
X473653Y297541D01*
D02*
G37*
G36*
X256435Y297097D02*
X238660Y297097D01*
X242141Y297097D01*
Y280508D01*
X238660Y280508D01*
Y280508D01*
Y271472D01*
Y277619D01*
X242141Y277619D01*
Y271472D01*
X256435D01*
X245289D01*
Y277619D01*
X256435D01*
Y280508D01*
X244696Y297097D01*
X256435D01*
D02*
G37*
G36*
X717643Y297097D02*
X714162D01*
X700721Y276953D01*
Y297097D01*
X697462Y297097D01*
Y271472D01*
X717643Y271472D01*
Y297097D01*
D02*
G37*
G36*
X640102Y297097D02*
X636622D01*
X623180Y276953D01*
Y297097D01*
X619921D01*
Y271472D01*
X640102D01*
Y297097D01*
D02*
G37*
G36*
X409257Y297097D02*
X390705D01*
Y294061D01*
X405851D01*
Y286247D01*
X391668D01*
Y283211D01*
X405851D01*
Y274509D01*
X390113D01*
Y274509D01*
Y271472D01*
X409257D01*
Y297097D01*
D02*
G37*
G36*
X280615Y297097D02*
X276912D01*
X270247Y278471D01*
Y278434D01*
X270210Y278360D01*
X270173Y278249D01*
X270099Y278101D01*
X270062Y277878D01*
X269988Y277656D01*
X269802Y277101D01*
X269580Y276471D01*
X269358Y275768D01*
X268914Y274287D01*
Y274324D01*
X268877Y274398D01*
X268840Y274509D01*
X268803Y274657D01*
X268691Y275064D01*
X268506Y275620D01*
X268321Y276249D01*
X268099Y276953D01*
X267840Y277693D01*
X267544Y278471D01*
X260582Y297097D01*
X257138D01*
X267173Y271472D01*
X257138D01*
X280615D01*
X270691D01*
X280615Y297097D01*
D02*
G37*
G36*
X665875Y297097D02*
X662469D01*
Y282285D01*
Y282248D01*
Y282137D01*
Y281952D01*
Y281730D01*
X662431Y281470D01*
Y281137D01*
X662395Y280434D01*
X662320Y279619D01*
X662209Y278804D01*
X662061Y278027D01*
X661987Y277694D01*
X661876Y277360D01*
X661839Y277286D01*
X661765Y277101D01*
X661580Y276842D01*
X661358Y276471D01*
X661098Y276101D01*
X660728Y275694D01*
X660284Y275287D01*
X659765Y274953D01*
X659691Y274916D01*
X659506Y274805D01*
X659173Y274694D01*
X658729Y274546D01*
X658210Y274361D01*
X657544Y274250D01*
X656840Y274139D01*
X656062Y274102D01*
X655692D01*
X655470Y274139D01*
X655137D01*
X654803Y274176D01*
X653989Y274324D01*
X653100Y274509D01*
X652248Y274805D01*
X651434Y275213D01*
X651063Y275472D01*
X650730Y275768D01*
X650693Y275805D01*
X650656Y275842D01*
X650582Y275953D01*
X650471Y276101D01*
X650360Y276323D01*
X650212Y276546D01*
X650064Y276879D01*
X649915Y277212D01*
X649767Y277619D01*
X649656Y278101D01*
X649508Y278656D01*
X649397Y279249D01*
X649286Y279915D01*
X649212Y280619D01*
X649138Y281434D01*
Y282285D01*
Y297097D01*
X645731D01*
Y271028D01*
X665875D01*
Y297097D01*
D02*
G37*
G36*
X680687Y297542D02*
X680317D01*
X680058Y297504D01*
X679725Y297467D01*
X679317Y297430D01*
X678910Y297393D01*
X678429Y297282D01*
X677429Y297060D01*
X676318Y296727D01*
X675762Y296505D01*
X675244Y296246D01*
X674725Y295912D01*
X674207Y295579D01*
X674170Y295542D01*
X674096Y295505D01*
X673948Y295394D01*
X673763Y295209D01*
X673578Y295023D01*
X673318Y294764D01*
X673059Y294468D01*
X672763Y294172D01*
X672467Y293801D01*
X672170Y293357D01*
X671837Y292913D01*
X671541Y292431D01*
X671282Y291876D01*
X670986Y291320D01*
X670763Y290728D01*
X670541Y290061D01*
X673874Y289284D01*
Y289321D01*
X673911Y289395D01*
X673985Y289543D01*
X674059Y289728D01*
X674133Y289950D01*
X674244Y290247D01*
X674540Y290839D01*
X674911Y291506D01*
X675355Y292172D01*
X675911Y292802D01*
X676503Y293357D01*
X676577Y293431D01*
X676799Y293579D01*
X677170Y293764D01*
X677651Y294024D01*
X678280Y294246D01*
X678984Y294468D01*
X679836Y294616D01*
X680761Y294653D01*
X681058D01*
X681243Y294616D01*
X681502D01*
X681798Y294579D01*
X682502Y294468D01*
X683279Y294320D01*
X684094Y294061D01*
X684946Y293690D01*
X685723Y293209D01*
X685760D01*
X685798Y293135D01*
X686057Y292950D01*
X686390Y292654D01*
X686797Y292209D01*
X687279Y291654D01*
X687723Y291024D01*
X688130Y290247D01*
X688501Y289395D01*
Y289358D01*
X688538Y289284D01*
X688575Y289173D01*
X688612Y288988D01*
X688686Y288765D01*
X688760Y288506D01*
X688871Y287877D01*
X689019Y287136D01*
X689167Y286321D01*
X689241Y285433D01*
X689278Y284470D01*
Y284433D01*
Y284322D01*
Y284137D01*
Y283914D01*
X689241Y283655D01*
Y283322D01*
X689204Y282952D01*
X689167Y282544D01*
X689056Y281656D01*
X688871Y280693D01*
X688649Y279730D01*
X688352Y278767D01*
Y278730D01*
X688315Y278656D01*
X688241Y278545D01*
X688167Y278360D01*
X687945Y277916D01*
X687612Y277397D01*
X687205Y276805D01*
X686686Y276175D01*
X686094Y275620D01*
X685390Y275101D01*
X685353D01*
X685279Y275064D01*
X685168Y274990D01*
X685020Y274916D01*
X684835Y274842D01*
X684613Y274731D01*
X684094Y274509D01*
X683427Y274287D01*
X682687Y274102D01*
X681872Y273953D01*
X681021Y273916D01*
X680761D01*
X680539Y273953D01*
X680280D01*
X680021Y273991D01*
X679354Y274139D01*
X678577Y274324D01*
X677799Y274620D01*
X676984Y275027D01*
X676577Y275250D01*
X676207Y275546D01*
X676170Y275583D01*
X676133Y275620D01*
X676021Y275731D01*
X675873Y275842D01*
X675725Y276027D01*
X675540Y276249D01*
X675318Y276471D01*
X675133Y276768D01*
X674911Y277101D01*
X674651Y277471D01*
X674429Y277842D01*
X674207Y278286D01*
X674022Y278767D01*
X673837Y279286D01*
X673652Y279841D01*
X673503Y280434D01*
X670097Y279582D01*
Y271028D01*
Y279545D01*
X670134Y279397D01*
X670208Y279175D01*
X670319Y278878D01*
X670430Y278545D01*
X670578Y278138D01*
X670763Y277694D01*
X670986Y277212D01*
X671504Y276175D01*
X672170Y275138D01*
X672578Y274620D01*
X672985Y274102D01*
X673429Y273657D01*
X673948Y273213D01*
X673985Y273176D01*
X674059Y273102D01*
X674244Y273028D01*
X674429Y272880D01*
X674725Y272694D01*
X675022Y272509D01*
X675429Y272324D01*
X675836Y272139D01*
X676318Y271917D01*
X676836Y271732D01*
X677392Y271547D01*
X677984Y271361D01*
X678614Y271213D01*
X679280Y271139D01*
X679984Y271065D01*
X680724Y271028D01*
X692759D01*
D01*
X681132D01*
X681428Y271065D01*
X681761D01*
X682168Y271102D01*
X682613Y271176D01*
X683131Y271250D01*
X684205Y271435D01*
X685316Y271732D01*
X686427Y272139D01*
X686945Y272398D01*
X687464Y272694D01*
X687501Y272731D01*
X687575Y272768D01*
X687723Y272880D01*
X687871Y273028D01*
X688093Y273176D01*
X688352Y273398D01*
X688649Y273657D01*
X688945Y273953D01*
X689241Y274287D01*
X689574Y274620D01*
X690241Y275472D01*
X690871Y276471D01*
X691426Y277582D01*
Y277619D01*
X691500Y277730D01*
X691537Y277916D01*
X691648Y278138D01*
X691722Y278434D01*
X691833Y278804D01*
X691982Y279212D01*
X692093Y279656D01*
X692204Y280137D01*
X692352Y280693D01*
X692537Y281841D01*
X692685Y283137D01*
X692759Y284470D01*
Y284914D01*
Y284877D01*
X692722Y285137D01*
Y285507D01*
X692685Y285877D01*
X692648Y286358D01*
X692574Y286840D01*
X692389Y287914D01*
X692130Y289099D01*
X691759Y290284D01*
X691241Y291432D01*
X691204Y291469D01*
X691167Y291580D01*
X691093Y291728D01*
X690945Y291913D01*
X690797Y292172D01*
X690611Y292468D01*
X690130Y293135D01*
X689501Y293876D01*
X688760Y294616D01*
X687908Y295357D01*
X686908Y295986D01*
X686871Y296023D01*
X686760Y296060D01*
X686612Y296134D01*
X686427Y296246D01*
X686131Y296357D01*
X685835Y296468D01*
X685464Y296616D01*
X685057Y296764D01*
X684613Y296912D01*
X684131Y297060D01*
X683094Y297282D01*
X681909Y297467D01*
X680687Y297542D01*
D02*
G37*
G36*
X727012Y297097D02*
X723605D01*
Y271472D01*
X727012D01*
Y297097D01*
D02*
G37*
G36*
X614181Y297097D02*
X595629D01*
Y294061D01*
X610775D01*
Y286247D01*
X596592D01*
Y283211D01*
X610775D01*
Y274509D01*
X595037D01*
Y271472D01*
X614181D01*
Y297097D01*
D02*
G37*
G36*
X568375Y297097D02*
X548083D01*
Y271472D01*
Y294061D01*
X556526D01*
Y271472D01*
X548083D01*
X559933D01*
Y294061D01*
X568375D01*
Y297097D01*
D02*
G37*
G36*
X534604D02*
X515052Y297097D01*
X524087D01*
X523532Y297060D01*
X522902Y297023D01*
X522236Y296986D01*
X521606Y296912D01*
X521051Y296838D01*
X520977D01*
X520718Y296764D01*
X520385Y296690D01*
X519940Y296579D01*
X519459Y296394D01*
X518940Y296171D01*
X518385Y295912D01*
X517903Y295616D01*
X517829Y295579D01*
X517681Y295468D01*
X517459Y295246D01*
X517163Y294987D01*
X516830Y294653D01*
X516496Y294209D01*
X516126Y293727D01*
X515830Y293172D01*
X515793Y293098D01*
X515719Y292913D01*
X515571Y292580D01*
X515422Y292135D01*
X515311Y291617D01*
X515163Y291024D01*
X515089Y290358D01*
X515052Y289654D01*
Y271472D01*
Y289358D01*
X515089Y289099D01*
X515126Y288840D01*
X515163Y288506D01*
X515237Y288136D01*
X515311Y287729D01*
X515571Y286877D01*
X515719Y286433D01*
X515941Y285951D01*
X516200Y285470D01*
X516459Y285025D01*
X516792Y284581D01*
X517163Y284137D01*
X517200Y284100D01*
X517274Y284026D01*
X517385Y283914D01*
X517570Y283803D01*
X517792Y283618D01*
X518089Y283433D01*
X518459Y283211D01*
X518866Y283026D01*
X519348Y282804D01*
X519903Y282581D01*
X520496Y282396D01*
X521199Y282248D01*
X521940Y282100D01*
X522754Y281989D01*
X523680Y281915D01*
X524643Y281878D01*
X531197Y281878D01*
Y271472D01*
X515052Y271472D01*
X534604Y271472D01*
Y297097D01*
D02*
G37*
G36*
X458952Y297097D02*
X438659D01*
Y271472D01*
Y294061D01*
X447102D01*
Y271472D01*
X438659D01*
X450509D01*
Y294061D01*
X458952D01*
Y297097D01*
D02*
G37*
G36*
X385373Y297097D02*
X373486D01*
X373190Y297060D01*
X372857D01*
X372079Y297023D01*
X371265Y296912D01*
X370376Y296801D01*
X369561Y296616D01*
X369154Y296505D01*
X368821Y296394D01*
X368784D01*
X368747Y296357D01*
X368524Y296245D01*
X368191Y296097D01*
X367784Y295838D01*
X367339Y295505D01*
X366858Y295060D01*
X366414Y294542D01*
X365969Y293950D01*
Y293913D01*
X365932Y293876D01*
X365784Y293653D01*
X365636Y293283D01*
X365414Y292802D01*
X365229Y292246D01*
X365044Y291580D01*
X364932Y290876D01*
X364896Y290099D01*
Y290061D01*
Y289987D01*
Y289839D01*
X364932Y289654D01*
Y289395D01*
X364969Y289136D01*
X365118Y288506D01*
X365340Y287766D01*
X365636Y286988D01*
X366080Y286210D01*
X366377Y285840D01*
X366673Y285470D01*
X366710Y285433D01*
X366747Y285396D01*
X366858Y285285D01*
X367006Y285174D01*
X367191Y285025D01*
X367413Y284877D01*
X367710Y284692D01*
X368006Y284470D01*
X368376Y284285D01*
X368784Y284100D01*
X369228Y283877D01*
X369709Y283692D01*
X370265Y283544D01*
X370820Y283359D01*
X371450Y283248D01*
X372116Y283137D01*
X372042Y283100D01*
X371894Y283026D01*
X371672Y282878D01*
X371376Y282730D01*
X370709Y282322D01*
X370376Y282063D01*
X370080Y281841D01*
X370006Y281767D01*
X369820Y281582D01*
X369524Y281285D01*
X369154Y280915D01*
X368747Y280397D01*
X368265Y279841D01*
X367784Y279175D01*
X367265Y278434D01*
X362859Y271472D01*
D01*
X385373D01*
Y297097D01*
D02*
G37*
G36*
X352602Y297097D02*
X348899D01*
X338419Y271472D01*
D01*
X351771D01*
X342270D01*
X345270Y279249D01*
X356008Y279249D01*
X358786Y271472D01*
X362377D01*
X352602Y297097D01*
D02*
G37*
G36*
X233661Y275064D02*
X230069D01*
Y271472D01*
X233661D01*
Y275064D01*
D02*
G37*
G36*
X217220Y297097D02*
X213517D01*
X203037Y271472D01*
D01*
X226996D01*
D01*
X217220Y297097D01*
D02*
G37*
G36*
X581521Y297541D02*
X581040D01*
X580780Y297504D01*
X580521D01*
X579818Y297430D01*
X579040Y297319D01*
X578225Y297134D01*
X577337Y296912D01*
X576522Y296616D01*
X576485D01*
X576411Y296579D01*
X576300Y296505D01*
X576152Y296431D01*
X575781Y296246D01*
X575300Y295912D01*
X574745Y295542D01*
X574189Y295060D01*
X573671Y294505D01*
X573189Y293876D01*
Y293839D01*
X573152Y293801D01*
X573078Y293690D01*
X573004Y293579D01*
X572819Y293209D01*
X572597Y292728D01*
X572337Y292135D01*
X572152Y291432D01*
X571967Y290691D01*
X571893Y289876D01*
X575152Y289617D01*
Y289654D01*
Y289728D01*
X575189Y289839D01*
X575226Y290024D01*
X575337Y290432D01*
X575485Y290987D01*
X575707Y291580D01*
X576041Y292172D01*
X576448Y292728D01*
X576966Y293246D01*
X577040Y293283D01*
X577225Y293431D01*
X577596Y293653D01*
X578077Y293876D01*
X578707Y294098D01*
X579447Y294320D01*
X580373Y294468D01*
X581410Y294505D01*
X581928D01*
X582151Y294468D01*
X582447Y294431D01*
X583113Y294357D01*
X583854Y294209D01*
X584594Y294024D01*
X585298Y293727D01*
X585594Y293542D01*
X585890Y293357D01*
X585965Y293320D01*
X586113Y293172D01*
X586335Y292913D01*
X586557Y292617D01*
X586816Y292209D01*
X587039Y291765D01*
X587187Y291246D01*
X587261Y290654D01*
Y290580D01*
Y290432D01*
X587224Y290173D01*
X587149Y289876D01*
X587039Y289506D01*
X586853Y289136D01*
X586631Y288765D01*
X586298Y288395D01*
X586261Y288358D01*
X586076Y288247D01*
X585927Y288136D01*
X585779Y288062D01*
X585557Y287951D01*
X585298Y287803D01*
X584965Y287692D01*
X584594Y287543D01*
X584187Y287395D01*
X583706Y287210D01*
X583187Y287062D01*
X582595Y286877D01*
X581928Y286729D01*
X581188Y286544D01*
X581151D01*
X581003Y286507D01*
X580780Y286470D01*
X580521Y286396D01*
X580188Y286321D01*
X579781Y286210D01*
X579373Y286099D01*
X578929Y285988D01*
X577966Y285729D01*
X577040Y285470D01*
X576596Y285322D01*
X576189Y285174D01*
X575818Y285062D01*
X575522Y284914D01*
X575485D01*
X575411Y284877D01*
X575300Y284803D01*
X575152Y284729D01*
X574745Y284507D01*
X574263Y284211D01*
X573708Y283803D01*
X573152Y283359D01*
X572634Y282841D01*
X572189Y282285D01*
X572152Y282211D01*
X572004Y282026D01*
X571856Y281693D01*
X571634Y281248D01*
X571449Y280730D01*
X571264Y280100D01*
X571153Y279397D01*
X571115Y278656D01*
Y278323D01*
X571190Y277916D01*
X571264Y277397D01*
X571412Y276805D01*
X571597Y276175D01*
X571893Y275509D01*
X572300Y274805D01*
Y274768D01*
X572337Y274731D01*
X572523Y274509D01*
X572782Y274176D01*
X573152Y273805D01*
X573634Y273361D01*
X574226Y272880D01*
X574893Y272435D01*
X575670Y272028D01*
X575707D01*
X575781Y271991D01*
X575892Y271954D01*
X576041Y271880D01*
X576263Y271806D01*
X576522Y271695D01*
X577114Y271547D01*
X577818Y271361D01*
X578670Y271176D01*
X579595Y271065D01*
X580595Y271028D01*
X571115D01*
X591482Y271028D01*
D01*
X581188Y271028D01*
X581484Y271065D01*
X581817D01*
X582188Y271102D01*
X582632Y271139D01*
X583558Y271287D01*
X584520Y271435D01*
X585483Y271695D01*
X586409Y272028D01*
X586446D01*
X586520Y272065D01*
X586631Y272139D01*
X586779Y272213D01*
X587224Y272435D01*
X587742Y272768D01*
X588335Y273213D01*
X588964Y273731D01*
X589557Y274361D01*
X590112Y275064D01*
Y275101D01*
X590186Y275175D01*
X590223Y275287D01*
X590334Y275435D01*
X590408Y275620D01*
X590519Y275842D01*
X590778Y276397D01*
X591038Y277101D01*
X591260Y277879D01*
X591408Y278767D01*
X591482Y279693D01*
X588298Y279989D01*
Y279952D01*
Y279915D01*
X588260Y279804D01*
Y279656D01*
X588186Y279323D01*
X588075Y278841D01*
X587927Y278360D01*
X587779Y277805D01*
X587520Y277286D01*
X587261Y276805D01*
X587224Y276768D01*
X587113Y276620D01*
X586927Y276360D01*
X586631Y276101D01*
X586261Y275768D01*
X585853Y275435D01*
X585298Y275101D01*
X584706Y274805D01*
X584668D01*
X584631Y274768D01*
X584520Y274731D01*
X584409Y274694D01*
X584039Y274583D01*
X583558Y274435D01*
X582965Y274287D01*
X582299Y274176D01*
X581558Y274101D01*
X580743Y274064D01*
X580410D01*
X580040Y274101D01*
X579595Y274139D01*
X579077Y274213D01*
X578484Y274287D01*
X577892Y274435D01*
X577337Y274620D01*
X577262Y274657D01*
X577077Y274731D01*
X576818Y274879D01*
X576485Y275027D01*
X576152Y275287D01*
X575781Y275546D01*
X575411Y275842D01*
X575115Y276212D01*
X575078Y276249D01*
X575004Y276397D01*
X574893Y276583D01*
X574745Y276879D01*
X574596Y277175D01*
X574485Y277545D01*
X574411Y277953D01*
X574374Y278397D01*
Y278434D01*
Y278619D01*
X574411Y278841D01*
X574448Y279138D01*
X574559Y279434D01*
X574670Y279804D01*
X574856Y280174D01*
X575115Y280508D01*
X575152Y280545D01*
X575263Y280656D01*
X575411Y280804D01*
X575670Y281026D01*
X575967Y281248D01*
X576374Y281507D01*
X576855Y281767D01*
X577411Y281989D01*
X577448Y282026D01*
X577633Y282063D01*
X577929Y282174D01*
X578114Y282211D01*
X578373Y282285D01*
X578633Y282396D01*
X578966Y282470D01*
X579336Y282581D01*
X579781Y282693D01*
X580225Y282804D01*
X580743Y282952D01*
X581336Y283100D01*
X581965Y283248D01*
X582002D01*
X582114Y283285D01*
X582299Y283322D01*
X582521Y283396D01*
X582817Y283470D01*
X583150Y283544D01*
X583891Y283766D01*
X584706Y284026D01*
X585557Y284285D01*
X586298Y284544D01*
X586631Y284692D01*
X586927Y284840D01*
X586964D01*
X587001Y284877D01*
X587224Y285025D01*
X587557Y285211D01*
X587927Y285507D01*
X588372Y285840D01*
X588816Y286247D01*
X589260Y286729D01*
X589631Y287247D01*
X589668Y287321D01*
X589779Y287506D01*
X589927Y287803D01*
X590075Y288173D01*
X590223Y288654D01*
X590371Y289210D01*
X590482Y289802D01*
X590519Y290432D01*
Y290469D01*
Y290506D01*
Y290617D01*
Y290765D01*
X590445Y291135D01*
X590371Y291617D01*
X590260Y292172D01*
X590075Y292802D01*
X589816Y293431D01*
X589445Y294061D01*
Y294098D01*
X589408Y294135D01*
X589223Y294357D01*
X588964Y294653D01*
X588631Y295023D01*
X588186Y295431D01*
X587631Y295875D01*
X586964Y296283D01*
X586224Y296653D01*
X586187D01*
X586113Y296690D01*
X586002Y296727D01*
X585853Y296801D01*
X585668Y296875D01*
X585409Y296949D01*
X584854Y297097D01*
X584150Y297245D01*
X583335Y297393D01*
X582484Y297504D01*
X581521Y297541D01*
D02*
G37*
%LPD*%
G36*
X332272Y284914D02*
X325384D01*
X325125Y284951D01*
X324866D01*
X324570Y284988D01*
X323866Y285062D01*
X323089Y285210D01*
X322311Y285433D01*
X321607Y285729D01*
X321274Y285914D01*
X321015Y286136D01*
X320941Y286210D01*
X320793Y286358D01*
X320571Y286655D01*
X320311Y287025D01*
X320052Y287506D01*
X319830Y288099D01*
X319682Y288765D01*
X319608Y289543D01*
Y289580D01*
Y289617D01*
Y289802D01*
X319645Y290136D01*
X319719Y290506D01*
X319793Y290913D01*
X319941Y291394D01*
X320163Y291839D01*
X320422Y292283D01*
X320460Y292320D01*
X320571Y292468D01*
X320756Y292653D01*
X320978Y292913D01*
X321311Y293172D01*
X321681Y293394D01*
X322089Y293616D01*
X322570Y293801D01*
X322607D01*
X322755Y293839D01*
X322977Y293876D01*
X323274Y293950D01*
X323718Y293987D01*
X324274Y294024D01*
X324940Y294061D01*
X332272D01*
Y284914D01*
D02*
G37*
G36*
X316164Y289099D02*
X316201Y288839D01*
X316238Y288506D01*
X316312Y288136D01*
X316386Y287729D01*
X316645Y286877D01*
X316793Y286433D01*
X317016Y285951D01*
X317275Y285470D01*
X317534Y285025D01*
X317867Y284581D01*
X318238Y284137D01*
X318275Y284100D01*
X318349Y284026D01*
X318460Y283914D01*
X318645Y283803D01*
X318867Y283618D01*
X319163Y283433D01*
X319534Y283211D01*
X319941Y283026D01*
X320422Y282804D01*
X320978Y282581D01*
X321570Y282396D01*
X322274Y282248D01*
X323015Y282100D01*
X323829Y281989D01*
X324755Y281915D01*
X325718Y281878D01*
X332272D01*
Y271472D01*
X316127D01*
Y289358D01*
X316164Y289099D01*
D02*
G37*
G36*
X507202Y271472D02*
X493945D01*
Y283544D01*
X507202D01*
Y271472D01*
D02*
G37*
G36*
X474245Y294579D02*
X474578Y294542D01*
X474912Y294468D01*
X475319Y294394D01*
X475763Y294320D01*
X476726Y294024D01*
X477245Y293801D01*
X477763Y293579D01*
X478318Y293283D01*
X478837Y292950D01*
X479355Y292580D01*
X479837Y292135D01*
X479874Y292098D01*
X479948Y292024D01*
X480059Y291876D01*
X480244Y291654D01*
X480429Y291394D01*
X480651Y291061D01*
X480873Y290654D01*
X481133Y290173D01*
X481355Y289654D01*
X481614Y289025D01*
X481836Y288358D01*
X482021Y287617D01*
X482206Y286803D01*
X482318Y285877D01*
X482392Y284914D01*
X482429Y283877D01*
Y283840D01*
Y283692D01*
Y283433D01*
X482392Y283100D01*
X482355Y282730D01*
X482281Y282285D01*
X482206Y281767D01*
X482132Y281248D01*
X481836Y280063D01*
X481614Y279471D01*
X481392Y278841D01*
X481096Y278249D01*
X480762Y277656D01*
X480392Y277101D01*
X479948Y276583D01*
X479911Y276546D01*
X479837Y276471D01*
X479689Y276323D01*
X479503Y276175D01*
X479244Y275953D01*
X478948Y275731D01*
X478615Y275509D01*
X478244Y275250D01*
X477800Y274990D01*
X477319Y274768D01*
X476800Y274546D01*
X476245Y274324D01*
X475652Y274176D01*
X475060Y274027D01*
X474393Y273953D01*
X473690Y273916D01*
X473504D01*
X473319Y273953D01*
X473060D01*
X472727Y273990D01*
X472357Y274064D01*
X471912Y274139D01*
X471468Y274250D01*
X470949Y274398D01*
X470468Y274583D01*
X469913Y274768D01*
X469394Y275027D01*
X468876Y275360D01*
X468357Y275694D01*
X467839Y276101D01*
X467357Y276583D01*
X467320Y276620D01*
X467246Y276694D01*
X467135Y276879D01*
X466950Y277101D01*
X466765Y277360D01*
X466580Y277693D01*
X466358Y278101D01*
X466098Y278545D01*
X465876Y279064D01*
X465654Y279656D01*
X465469Y280286D01*
X465247Y280952D01*
X465099Y281693D01*
X464988Y282507D01*
X464914Y283359D01*
X464877Y284248D01*
Y284285D01*
Y284396D01*
Y284544D01*
Y284766D01*
X464914Y285025D01*
Y285359D01*
X464951Y285692D01*
X465025Y286099D01*
X465136Y286951D01*
X465321Y287840D01*
X465580Y288802D01*
X465950Y289691D01*
Y289728D01*
X465987Y289802D01*
X466061Y289913D01*
X466136Y290061D01*
X466395Y290506D01*
X466728Y291024D01*
X467172Y291617D01*
X467728Y292209D01*
X468357Y292802D01*
X469061Y293320D01*
X469098D01*
X469135Y293394D01*
X469246Y293431D01*
X469431Y293542D01*
X469616Y293616D01*
X469838Y293727D01*
X470394Y293987D01*
X471061Y294209D01*
X471838Y294431D01*
X472727Y294579D01*
X473653Y294616D01*
X473986D01*
X474245Y294579D01*
D02*
G37*
G36*
X253361Y280508D02*
X245289D01*
Y291987D01*
X253361Y280508D01*
D02*
G37*
G36*
X714385Y271472D02*
X700980D01*
X714385Y291580D01*
Y271472D01*
D02*
G37*
G36*
X636844Y271472D02*
X623439D01*
X636844Y291580D01*
Y271472D01*
D02*
G37*
G36*
X665875Y271028D02*
X656099D01*
X656359Y271065D01*
X656655D01*
X657025Y271102D01*
X657433Y271139D01*
X657840Y271176D01*
X658766Y271324D01*
X659765Y271547D01*
X660728Y271843D01*
X661654Y272250D01*
X661691D01*
X661765Y272324D01*
X661876Y272398D01*
X662024Y272472D01*
X662431Y272768D01*
X662913Y273176D01*
X663468Y273694D01*
X663987Y274287D01*
X664505Y275027D01*
X664913Y275842D01*
Y275879D01*
X664950Y275953D01*
X664987Y276101D01*
X665061Y276286D01*
X665135Y276508D01*
X665209Y276805D01*
X665320Y277138D01*
X665394Y277545D01*
X665468Y277990D01*
X665579Y278471D01*
X665653Y278990D01*
X665727Y279545D01*
X665801Y280174D01*
X665838Y280841D01*
X665875Y281545D01*
Y271028D01*
D02*
G37*
G36*
X645768Y281322D02*
Y280952D01*
X645805Y280508D01*
X645842Y280063D01*
X645953Y279064D01*
X646101Y278027D01*
X646323Y277027D01*
X646472Y276546D01*
X646620Y276101D01*
Y276064D01*
X646657Y275990D01*
X646731Y275879D01*
X646805Y275731D01*
X647027Y275324D01*
X647360Y274805D01*
X647805Y274213D01*
X648323Y273620D01*
X648990Y272991D01*
X649804Y272435D01*
X649841D01*
X649915Y272361D01*
X650027Y272324D01*
X650212Y272213D01*
X650434Y272102D01*
X650730Y271991D01*
X651026Y271880D01*
X651397Y271732D01*
X651804Y271584D01*
X652248Y271472D01*
X652730Y271361D01*
X653285Y271250D01*
X653841Y271176D01*
X654433Y271102D01*
X655766Y271028D01*
X645731D01*
Y281656D01*
X645768Y281322D01*
D02*
G37*
G36*
X531197Y284914D02*
X524310Y284914D01*
X524050Y284951D01*
X523791D01*
X523495Y284988D01*
X522791Y285062D01*
X522014Y285210D01*
X521236Y285433D01*
X520533Y285729D01*
X520199Y285914D01*
X519940Y286136D01*
X519866Y286210D01*
X519718Y286358D01*
X519496Y286655D01*
X519237Y287025D01*
X518977Y287506D01*
X518755Y288099D01*
X518607Y288765D01*
X518533Y289543D01*
Y289580D01*
Y289617D01*
Y289802D01*
X518570Y290136D01*
X518644Y290506D01*
X518718Y290913D01*
X518866Y291394D01*
X519088Y291839D01*
X519348Y292283D01*
X519385Y292320D01*
X519496Y292468D01*
X519681Y292654D01*
X519903Y292913D01*
X520236Y293172D01*
X520607Y293394D01*
X521014Y293616D01*
X521495Y293801D01*
X521532D01*
X521680Y293839D01*
X521903Y293876D01*
X522199Y293950D01*
X522643Y293987D01*
X523199Y294024D01*
X523865Y294061D01*
X531197Y294061D01*
Y284914D01*
D02*
G37*
G36*
X381966Y285766D02*
X374338D01*
X373894Y285803D01*
X373375Y285840D01*
X372783Y285877D01*
X372190Y285951D01*
X371598Y286062D01*
X371079Y286210D01*
X371005Y286247D01*
X370857Y286321D01*
X370635Y286433D01*
X370339Y286581D01*
X370006Y286803D01*
X369672Y287062D01*
X369339Y287395D01*
X369080Y287766D01*
X369043Y287803D01*
X368969Y287951D01*
X368858Y288173D01*
X368710Y288469D01*
X368599Y288802D01*
X368487Y289173D01*
X368413Y289617D01*
X368376Y290061D01*
Y290099D01*
Y290136D01*
X368413Y290358D01*
X368450Y290691D01*
X368524Y291135D01*
X368710Y291580D01*
X368932Y292098D01*
X369265Y292580D01*
X369709Y293061D01*
X369783Y293098D01*
X369969Y293246D01*
X370265Y293431D01*
X370746Y293653D01*
X371302Y293876D01*
X372042Y294061D01*
X372894Y294209D01*
X373894Y294246D01*
X381966D01*
Y285766D01*
D02*
G37*
G36*
Y271472D02*
X367080D01*
X370450Y276805D01*
Y276842D01*
X370524Y276916D01*
X370598Y277027D01*
X370709Y277175D01*
X370968Y277582D01*
X371302Y278101D01*
X371709Y278656D01*
X372116Y279249D01*
X372524Y279804D01*
X372894Y280323D01*
X372931Y280360D01*
X373042Y280508D01*
X373227Y280730D01*
X373486Y280989D01*
X374042Y281544D01*
X374338Y281804D01*
X374634Y282026D01*
X374671Y282063D01*
X374745Y282100D01*
X374894Y282174D01*
X375116Y282285D01*
X375338Y282396D01*
X375597Y282507D01*
X376190Y282693D01*
X376227D01*
X376301Y282730D01*
X376449D01*
X376634Y282767D01*
X376893Y282804D01*
X377189D01*
X377597Y282841D01*
X381966D01*
Y271472D01*
D02*
G37*
G36*
X350824Y294394D02*
X350861Y294320D01*
Y294172D01*
X350935Y294024D01*
X350972Y293764D01*
X351046Y293505D01*
X351194Y292876D01*
X351379Y292135D01*
X351639Y291320D01*
X351898Y290432D01*
X352231Y289506D01*
X355009Y282026D01*
X346343D01*
X349010Y289062D01*
Y289099D01*
X349047Y289210D01*
X349121Y289395D01*
X349195Y289617D01*
X349306Y289876D01*
X349417Y290210D01*
X349528Y290580D01*
X349676Y290950D01*
X349972Y291802D01*
X350269Y292691D01*
X350565Y293579D01*
X350824Y294431D01*
Y294394D01*
D02*
G37*
G36*
X215442Y294394D02*
X215479Y294320D01*
Y294172D01*
X215553Y294024D01*
X215591Y293764D01*
X215665Y293505D01*
X215813Y292876D01*
X215998Y292135D01*
X216257Y291320D01*
X216516Y290432D01*
X216849Y289506D01*
X219627Y282026D01*
X210962D01*
X213628Y289062D01*
Y289099D01*
X213665Y289210D01*
X213739Y289395D01*
X213813Y289617D01*
X213924Y289876D01*
X214035Y290210D01*
X214146Y290580D01*
X214295Y290950D01*
X214591Y291802D01*
X214887Y292690D01*
X215183Y293579D01*
X215442Y294431D01*
Y294394D01*
D02*
G37*
G36*
X223404Y271472D02*
X206889D01*
X209888Y279249D01*
X220627D01*
X223404Y271472D01*
D02*
G37*
M02*
