M48
;Layer_Color=9474304
;FILE_FORMAT=2:5
INCH,LZ
;TYPE=PLATED
T01F00S00C0.01181
T03F00S00C0.03000
T04F00S00C0.03150
T05F00S00C0.04035
T06F00S00C0.12598
T07F00S00C0.25591
;TYPE=NON_PLATED
T08F00S00C0.02756
%
T01
X00295Y-0026
X0042Y-001
X0049Y0002
X0061
X00705Y001
X0074903Y0016105
X0071Y0024
X0072Y0028
X00565Y0024
X00625Y0018
X0046Y002
X00355Y0014
X0013Y0022
X0056258Y-0021797
X0061Y-00175
X0063Y-00265
X00715Y-0021
X0075Y-00285
X00545Y-0034
X-0017Y-00295
X-0018233Y-0041591
X-0030044
X-0041855
X-0053666
X-004776Y-0053402
X-0035949
X-0024138
X-0059571
X-0071382
X-0083193
X-00905Y-0045
X-0096Y-0043
X-0095004Y-002978
X-0082Y-003
X-0071382Y-002978
X-0065477Y-0017969
X-0053666
X-00455Y-0023
X-0039Y-00225
X-0035949Y-0006158
X-004776
X-00485Y-00015
X-0042Y0003
X-0030044Y0005654
X-0018233
X-00535Y00075
X-0065477Y0005654
X-00655Y-0002
X-0077288Y0005654
X-0089099
X-0089542Y0011722
X-00965Y0013
X-0095004Y0017465
X-0083193
X-0071382
X-0069Y0023
X-0067Y0028
X-00535Y0034
X-00505Y00205
X-0106815Y0017465
X-0112Y0019
X-01155Y00165
X-0118626Y0017465
X-01195Y0013
X-0122Y00075
X-0112721Y0005654
X-011Y-00005
Y00125
X-01035
X-01005Y-0009
X-0095Y-00085
X-009Y-0008
X-0084Y-00075
X-0089Y-0001
X-0089099Y-0017969
X-010091
X-01215Y-0023
X-0118626Y-002978
X-01335Y-00305
X-0134Y-0026
X-01365Y-0027898
X-0144Y-00315
X-0152
X-0153Y-0037
X-0157Y-0043
X-01535Y-0055
Y-0058768
X-0149407Y-0026864
X-01425Y-0022
X-0136993Y-0017257
X-0138Y-00125
X-01365Y-00075
X-0136Y0002
X-0134Y0007
X-01335Y00105
X-0133Y00155
X-0143993Y0020604
X-0146Y0033
X-01335
X-01225Y00345
X-01195Y00325
X-0118626Y-0006158
X-01425Y-0001
X-0150508Y0000082
X-0154508Y-0002116
X-01525Y-0007
X-01535Y-0017
X-0155Y0009
X-0139358Y-0036504
X-01205Y-00555
X-0116Y-0056
X-0076128Y-0044006
X-01705Y-0045
X-01785Y-00405
X-0192Y-004
X-01995Y-00335
X-01855Y-00315
X-01805Y-00235
X-0174Y-0028
X-017Y-00315
X-0161139Y-0017288
X-01695Y-0006
X-0173594Y-0002116
X-0185221Y-000288
X-0185Y0003
X-01845Y0007
X-0184407Y0009967
X-0174213Y001
X-0166244Y0009187
X-0161008Y0007582
X-01735Y00215
X-0176562Y002514
X-0181817Y0018183
X-0196744Y0019602
X-01995Y00185
X-0196Y0014
X-01955Y0008
X-0195918Y0004911
X-01965Y0002
X-01985Y-00005
X-0199Y-00075
X-01965Y-001
X-01995Y-00125
X-02025Y-0015
X-0195525Y-0015155
X-0194528Y-0004054
X-01845Y-00085
X-01805Y-0008
X-0213114Y-0006158
X-0214Y-0013
X-021902Y-0017969
X-02195Y-0025
X-0214Y-0028
X-021902Y-0041591
X-0230831
X-0242642
X-0254453Y-0041884
X-0266264
X-02655Y-0033
X-0269Y-0025
X-0267384Y-0017969
X-02645Y-00135
X-0262612Y-0006648
X-0272169Y-0006158
X-0266384Y0005654
X-0278075
X-0272169Y0017465
X-0260358
X-02625Y0019871
X-0248547Y0017884
X-0236736
X-0224925Y0017465
X-0218Y0016
X-02135Y0012
X-0218601Y0005235
X-0207209Y0005654
X-0242616
X-0255305Y000636
X-0247116Y-0006158
X-02475Y-0017
X-0242642Y-0017969
X-0241Y-00245
X-0247Y-0033
X-0230831Y-0017969
X-0278075
X-0289886
X-02895Y-00245
X-02925Y-0031116
X-0295935
X-0299
X-03085Y-00255
X-03135Y-0021
X-0301697Y-0017969
X-0294Y-0045
X-02895Y-0046
X-0292908Y-005301
X-02825Y-00505
X-0278075Y-0041884
X-0286Y-00635
X-0288Y-00745
X-02765Y-00755
X-0284512Y-0083707
X-0302699Y-0083003
X-0313Y-00815
X-0305Y-0067
X-03125Y-0043
X-0313508Y0005654
X-0307603Y0017465
X-0295791
X-028398
X-0254Y-00605
X-0204Y-00475
X-01915Y00345
X-0187Y0033
X-0325319Y0029276
X-033713
X-03315Y0019
X-0326Y0013
X-0328Y0006
X-03355Y00065
X-0336Y0011
X-0348941Y0005654
X-0354847Y0017465
Y-0006158
X-0348941Y-0017969
X-0335Y-0016
X-0335923Y-0012023
X-03315Y-00145
X-03205Y-00115
X-032Y-00185
X-0316Y-0015
X-0319Y-0004468
Y-00015
X-0316Y0008
X-03295Y-0048
X-03285Y-00525
X-0337Y-0049
X-03435
X-0346264Y-0055167
X-0341Y-00425
X-0358Y-00315
X-03255Y-0067
T03
X-00405Y0021
X-00305
X-00205
Y0031
X-00305
X-00405
T04
X-0162119Y-0000738
T05
X-0298795Y-005248
T06
X00125Y-00035
X-0325Y-0033
T07
X-0295Y-00015
T08
X-034463Y-0013878
Y0008878
M30
